<svg viewBox="0 0 56.6934 56.6934" xmlns="http://www.w3.org/2000/svg" enable-background="new 0 0 56.6934 56.6934"><path d="m28.07 4.155c-13.601 0-24.625 11.02-24.625 24.623s11.02 24.625 24.625 24.625 24.625-11.03 24.625-24.625-11.02-24.623-24.625-24.623m2.331 31.1c-2.552 3.59-7.675 4.639-11.672 3.1-4.01-1.528-6.852-5.765-6.514-10.09.088-5.285 4.947-9.914 10.232-9.737 2.532-.118 4.913.985 6.852 2.532-.828.94-1.685 1.847-2.601 2.694-2.332-1.611-5.648-2.072-7.979-.211-3.336 2.307-3.487 7.754-.279 10.237 3.12 2.831 9.02 1.425 9.879-2.91-1.954-.029-3.914 0-5.868-.064-.005-1.166-.001-2.332-.005-3.497 3.267-.001 6.534-.015 9.806.001.196 2.743-.167 5.662-1.852 7.93m14.09-5.02c-.975.001-1.949.015-2.929.024-.001.98-.015 1.954-.02 2.929-.975 0-1.944 0-2.919 0-.001-.975-.001-1.949-.02-2.924-.975-.001-1.954-.02-2.929-.029 0-.97 0-1.94 0-2.914.975-.001 1.949-.015 2.929-.02.005-.98.015-1.954.025-2.929.97 0 1.94 0 2.914 0 .005.975.001 1.954.02 2.929.975.001 1.954.001 2.929.02 0 .97 0 1.945 0 2.914"/></svg>