<svg xmlns="http://www.w3.org/2000/svg" viewBox="0 0 40 40" enable-background="new 0 0 40 40"><path d="M20,36.9l-3.1-2.8c-8.8-8-14.6-13.2-14.6-20c0-2.7,1-5.2,2.9-7.1s4.4-3,7.1-3h0.2C15.3,4,18,5.1,20,7 c2-1.9,4.7-3,7.5-3h0.1c5.5,0,10,4.5,10.1,10v0.2c0,6.7-5.8,12-14.5,19.9l-0.1,0.1L20,36.9z" fill="#cfae7f"/><path d="m12.3 6c-2.2 0-4.2.9-5.7 2.4-1.5 1.6-2.3 3.6-2.3 5.8 0 5.8 5.6 10.8 13.9 18.4l1.8 1.6 1.7-1.6c8.5-7.6 14-12.6 14-18.4v-.2c0-4.4-3.7-8-8.1-8 0 0-.1 0-.1 0-2.6 0-5.1 1.2-6.8 3.1l-.7.9-.8-.9c-1.7-2-4.2-3.1-6.7-3.1h-.2"/></svg>