<?xml version="1.0" encoding="UTF-8"?><!DOCTYPE svg PUBLIC "-//W3C//DTD SVG 1.1//EN" "http://www.w3.org/Graphics/SVG/1.1/DTD/svg11.dtd"><svg xmlns="http://www.w3.org/2000/svg" xmlns:xlink="http://www.w3.org/1999/xlink"><symbol id="icon-add" viewBox="0 0 24 24"><path d="M13,7H11v4H7v2h4v4h2V13h4V11H13ZM12,2A10,10,0,1,0,22,12,10.016,10.016,0,0,0,12,2Zm0,18a8,8,0,1,1,8-8A8.011,8.011,0,0,1,12,20Z"/></symbol><symbol id="icon-auth" viewBox="0 0 24 24"><path d="M21 3.01H3c-1.1 0-2 .9-2 2V9h2V4.99h18v14.03H3V15H1v4.01c0 1.1.9 1.98 2 1.98h18c1.1 0 2-.88 2-1.98v-14c0-1.11-.9-2-2-2zM11 16l4-4-4-4v3H1v2h10v3z"/></symbol><symbol id="icon-checks" viewBox="0 0 24 24"><path d="M18,7,16.59,5.59l-6.34,6.34,1.41,1.41Zm4.24-1.41L11.66,16.17,7.48,12,6.07,13.41,11.66,19l12-12ZM.41,13.41,6,19l1.41-1.41L1.83,12Z"/></symbol><symbol id="icon-close_lg" viewBox="0 0 35.36 35.36"><g transform="matrix(.70711-.70711.70711.70711-7.32 17.68)"><path d="m-6.32 16.68h48v2h-48z"/><path d="m16.68-6.32h2v48h-2z"/></g></symbol><symbol id="icon-help" viewBox="0 0 24 24"><g transform="translate(-4-2)"><circle cx="15.6" cy="6.2" r="2"/><path d="m19.5 10.3c-.6-.7-1.4-1.1-2.4-1.1h-2.5c-2.8 0-5-2.2-5-5h-2c0 3.1 2 5.8 5 6.7v13.3h2v-6h2v6h2v-11.9l4 3.9 1.4-1.4-4.5-4.5"/></g></symbol><symbol id="icon-like" viewBox="0 0 40 40"><path d="M20,36.9l-3.1-2.8c-8.8-8-14.6-13.2-14.6-20c0-2.7,1-5.2,2.9-7.1s4.4-3,7.1-3h0.2C15.3,4,18,5.1,20,7 c2-1.9,4.7-3,7.5-3h0.1c5.5,0,10,4.5,10.1,10v0.2c0,6.7-5.8,12-14.5,19.9l-0.1,0.1L20,36.9z" fill="#cfae7f"/><path d="m12.3 6c-2.2 0-4.2.9-5.7 2.4-1.5 1.6-2.3 3.6-2.3 5.8 0 5.8 5.6 10.8 13.9 18.4l1.8 1.6 1.7-1.6c8.5-7.6 14-12.6 14-18.4v-.2c0-4.4-3.7-8-8.1-8 0 0-.1 0-.1 0-2.6 0-5.1 1.2-6.8 3.1l-.7.9-.8-.9c-1.7-2-4.2-3.1-6.7-3.1h-.2"/></symbol><symbol id="icon-logo" viewBox="0 0 88 88"><g><path d="m88 2.3h-21.2c.7.6 1.3 1.3 1.9 1.9 3.1 3.4 5.5 7.3 7.1 11.5h12.2"/><path d="M88,38.7h-9.7c-0.5,4.7-1.9,9.3-4.1,13.5H88"/><path d="m88 74.5h-19.7c-3.4 0-6.6-1.6-8.6-4.2l-7.5-10.7c11.3-4.2 17.2-14.6 17.2-26.8v-2.3c0-15.9-10.1-29.1-28.8-28.8h-40.6v1.3c0 6.8 5.5 12.3 12.2 12.3h28.7c10.2 0 14.8 6.7 14.8 14.8v3.3c0 8-4.4 13.8-14.4 14.6-.2 0-.4 0-.6 0h-40.7v40h13.5v-26.4h23.6l11.6 16.5c4.3 5.8 10.8 9.4 18 9.9h21.3"/></g></symbol><symbol id="icon-phone" viewBox="0 0 24 24"><path d="M6.54,5a12.312,12.312,0,0,0,.45,2.59l-1.2,1.2A14.826,14.826,0,0,1,5.03,5H6.54M16.4,17.02a12.753,12.753,0,0,0,2.6.45v1.49a15.426,15.426,0,0,1-3.8-.75l1.2-1.19M7.5,3H4A1,1,0,0,0,3,4,17,17,0,0,0,20,21a1,1,0,0,0,1-1V16.51a1,1,0,0,0-1-1,11.407,11.407,0,0,1-3.57-.57.839.839,0,0,0-.31-.05,1.024,1.024,0,0,0-.71.29l-2.2,2.2a15.149,15.149,0,0,1-6.59-6.59l2.2-2.2a1,1,0,0,0,.25-1.02A11.36,11.36,0,0,1,8.5,4,1,1,0,0,0,7.5,3Z"/></symbol><symbol id="icon-search" viewBox="0 0 24 24"><path d="M15.5,14h-.79l-.28-.27a6.51,6.51,0,1,0-.7.7l.27.28v.79l5,4.99L20.49,19Zm-6,0A4.5,4.5,0,1,1,14,9.5,4.494,4.494,0,0,1,9.5,14Z"/></symbol><symbol id="icon-social-facebook" viewBox="0 0 56.693 56.693"><path d="m28.347 5.157c-13.6 0-24.625 11.03-24.625 24.625 0 13.6 11.03 24.623 24.625 24.623 13.6 0 24.625-11.02 24.625-24.623 0-13.598-11.03-24.625-24.625-24.625m6.517 24.522h-4.264c0 6.814 0 15.207 0 15.207h-6.32c0 0 0-8.307 0-15.207h-3.01v-5.369h3.01v-3.479c0-2.49 1.182-6.377 6.379-6.377l4.68.018v5.215c0 0-2.846 0-3.398 0-.555 0-1.34.277-1.34 1.461v3.163h4.818l-.555 5.368"/></symbol><symbol id="icon-social-google" viewBox="0 0 56.6934 56.6934"><path d="m28.07 4.155c-13.601 0-24.625 11.02-24.625 24.623s11.02 24.625 24.625 24.625 24.625-11.03 24.625-24.625-11.02-24.623-24.625-24.623m2.331 31.1c-2.552 3.59-7.675 4.639-11.672 3.1-4.01-1.528-6.852-5.765-6.514-10.09.088-5.285 4.947-9.914 10.232-9.737 2.532-.118 4.913.985 6.852 2.532-.828.94-1.685 1.847-2.601 2.694-2.332-1.611-5.648-2.072-7.979-.211-3.336 2.307-3.487 7.754-.279 10.237 3.12 2.831 9.02 1.425 9.879-2.91-1.954-.029-3.914 0-5.868-.064-.005-1.166-.001-2.332-.005-3.497 3.267-.001 6.534-.015 9.806.001.196 2.743-.167 5.662-1.852 7.93m14.09-5.02c-.975.001-1.949.015-2.929.024-.001.98-.015 1.954-.02 2.929-.975 0-1.944 0-2.919 0-.001-.975-.001-1.949-.02-2.924-.975-.001-1.954-.02-2.929-.029 0-.97 0-1.94 0-2.914.975-.001 1.949-.015 2.929-.02.005-.98.015-1.954.025-2.929.97 0 1.94 0 2.914 0 .005.975.001 1.954.02 2.929.975.001 1.954.001 2.929.02 0 .97 0 1.945 0 2.914"/></symbol><symbol id="icon-social-instagram" viewBox="0 0 56.7 56.7"><circle cx="28.1" cy="30" r="4.4"/><path d="m33.6 19.2h-11c-1.6 0-3 .5-3.9 1.4-.9.9-1.4 2.3-1.4 3.9v11c0 1.6.5 3 1.5 4 1 .9 2.3 1.4 3.9 1.4h10.9c1.6 0 3-.5 3.9-1.4 1-.9 1.5-2.3 1.5-3.9v-11c0-1.6-.5-2.9-1.4-3.9-1-1-2.3-1.5-4-1.5m-5.5 17.6c-3.8 0-6.8-3.1-6.8-6.8 0-3.8 3.1-6.8 6.8-6.8s6.9 3 6.9 6.8c0 3.8-3.1 6.8-6.9 6.8m7.1-12.3c-.9 0-1.6-.7-1.6-1.6s.7-1.6 1.6-1.6 1.6.7 1.6 1.6-.7 1.6-1.6 1.6"/><path d="m28.3 5.2c-13.6 0-24.6 11-24.6 24.6 0 13.6 11 24.6 24.6 24.6 13.6 0 24.6-11 24.6-24.6.1-13.6-11-24.6-24.6-24.6m13.1 30.4c0 2.3-.8 4.3-2.2 5.7-1.4 1.4-3.4 2.1-5.6 2.1h-10.9c-2.2 0-4.2-.7-5.6-2.1-1.5-1.4-2.2-3.4-2.2-5.7v-11c0-4.6 3.1-7.8 7.8-7.8h11c2.3 0 4.2.8 5.6 2.2 1.4 1.4 2.1 3.3 2.1 5.6v11"/></symbol><symbol id="icon-social-twitter" viewBox="0 0 56.693 56.693"><path d="m28.348 5.157c-13.6 0-24.625 11.03-24.625 24.625 0 13.6 11.03 24.623 24.625 24.623 13.6 0 24.623-11.02 24.623-24.623 0-13.598-11.02-24.625-24.623-24.625m12.404 19.66c.013.266.018.533.018.803 0 8.201-6.242 17.656-17.656 17.656-3.504 0-6.767-1.027-9.513-2.787.486.057.979.086 1.48.086 2.908 0 5.584-.992 7.707-2.656-2.715-.051-5.01-1.846-5.796-4.311.378.074.767.111 1.167.111.566 0 1.114-.074 1.635-.217-2.84-.57-4.979-3.08-4.979-6.084 0-.027 0-.053.0001-.08.836.465 1.793.744 2.811.777-1.666-1.115-2.761-3.01-2.761-5.166 0-1.137.306-2.204.84-3.12 3.061 3.754 7.634 6.225 12.792 6.483-.106-.453-.161-.928-.161-1.414 0-3.426 2.778-6.205 6.206-6.205 1.785 0 3.397.754 4.529 1.959 1.414-.277 2.742-.795 3.941-1.506-.465 1.45-1.448 2.666-2.73 3.433 1.257-.15 2.453-.484 3.565-.977-.83 1.247-1.883 2.34-3.096 3.215"/></symbol><symbol id="icon-thumb" viewBox="0 0 24 24"><path d="M1,21H5V9H1ZM23,10a2.006,2.006,0,0,0-2-2H14.69l.95-4.57.03-.32a1.505,1.505,0,0,0-.44-1.06L14.17,1,7.59,7.59A1.955,1.955,0,0,0,7,9V19a2.006,2.006,0,0,0,2,2h9a1.987,1.987,0,0,0,1.84-1.22l3.02-7.05A1.976,1.976,0,0,0,23,12Z"/></symbol><symbol id="icon-view_listing" viewBox="0 0 24 24"><path d="M4,5V18H21V5ZM14,7v3.5H11V7ZM6,7H9v3.5H6Zm0,9V12.5H9V16Zm5,0V12.5h3V16Zm8,0H16V12.5h3Zm-3-5.5V7h3v3.5Z"/></symbol><symbol id="icon-view_map" viewBox="0 0 24 24"><path d="M20.5,3l-.16.03L15,5.1,9,3,3.36,4.9A.5.5,0,0,0,3,5.38V20.5a.5.5,0,0,0,.5.5l.16-.03L9,18.9,15,21l5.64-1.9a.5.5,0,0,0,.36-.48V3.5A.5.5,0,0,0,20.5,3ZM10,5.47l4,1.4V18.53l-4-1.4ZM5,6.46,8,5.45v11.7L5,18.31ZM19,17.54l-3,1.01V6.86L19,5.7Z"/></symbol></svg>