<?xml version="1.0" encoding="UTF-8"?><!DOCTYPE svg PUBLIC "-//W3C//DTD SVG 1.1//EN" "http://www.w3.org/Graphics/SVG/1.1/DTD/svg11.dtd"><svg xmlns="http://www.w3.org/2000/svg" xmlns:xlink="http://www.w3.org/1999/xlink"><symbol id="icon-add" viewBox="0 0 24 24"><path d="M13,7H11v4H7v2h4v4h2V13h4V11H13ZM12,2A10,10,0,1,0,22,12,10.016,10.016,0,0,0,12,2Zm0,18a8,8,0,1,1,8-8A8.011,8.011,0,0,1,12,20Z"/></symbol><symbol id="icon-close_lg" viewBox="0 0 35.36 35.36"><g transform="matrix(.70711-.70711.70711.70711-7.32 17.68)"><path d="m-6.32 16.68h48v2h-48z"/><path d="m16.68-6.32h2v48h-2z"/></g></symbol><symbol id="icon-like" viewBox="0 0 40 40"><path d="M20,36.9l-3.1-2.8c-8.8-8-14.6-13.2-14.6-20c0-2.7,1-5.2,2.9-7.1s4.4-3,7.1-3h0.2C15.3,4,18,5.1,20,7 c2-1.9,4.7-3,7.5-3h0.1c5.5,0,10,4.5,10.1,10v0.2c0,6.7-5.8,12-14.5,19.9l-0.1,0.1L20,36.9z" fill="#cfae7f"/><path d="m12.3 6c-2.2 0-4.2.9-5.7 2.4-1.5 1.6-2.3 3.6-2.3 5.8 0 5.8 5.6 10.8 13.9 18.4l1.8 1.6 1.7-1.6c8.5-7.6 14-12.6 14-18.4v-.2c0-4.4-3.7-8-8.1-8 0 0-.1 0-.1 0-2.6 0-5.1 1.2-6.8 3.1l-.7.9-.8-.9c-1.7-2-4.2-3.1-6.7-3.1h-.2"/></symbol><symbol id="icon-search" viewBox="0 0 24 24"><path d="M15.5,14h-.79l-.28-.27a6.51,6.51,0,1,0-.7.7l.27.28v.79l5,4.99L20.49,19Zm-6,0A4.5,4.5,0,1,1,14,9.5,4.494,4.494,0,0,1,9.5,14Z"/></symbol><symbol id="icon-thumb" viewBox="0 0 24 24"><path d="M1,21H5V9H1ZM23,10a2.006,2.006,0,0,0-2-2H14.69l.95-4.57.03-.32a1.505,1.505,0,0,0-.44-1.06L14.17,1,7.59,7.59A1.955,1.955,0,0,0,7,9V19a2.006,2.006,0,0,0,2,2h9a1.987,1.987,0,0,0,1.84-1.22l3.02-7.05A1.976,1.976,0,0,0,23,12Z"/></symbol><symbol id="icon-view_listing" viewBox="0 0 24 24"><path d="M4,5V18H21V5ZM14,7v3.5H11V7ZM6,7H9v3.5H6Zm0,9V12.5H9V16Zm5,0V12.5h3V16Zm8,0H16V12.5h3Zm-3-5.5V7h3v3.5Z"/></symbol><symbol id="icon-view_map" viewBox="0 0 24 24"><path d="M20.5,3l-.16.03L15,5.1,9,3,3.36,4.9A.5.5,0,0,0,3,5.38V20.5a.5.5,0,0,0,.5.5l.16-.03L9,18.9,15,21l5.64-1.9a.5.5,0,0,0,.36-.48V3.5A.5.5,0,0,0,20.5,3ZM10,5.47l4,1.4V18.53l-4-1.4ZM5,6.46,8,5.45v11.7L5,18.31ZM19,17.54l-3,1.01V6.86L19,5.7Z"/></symbol></svg>