<svg xmlns="http://www.w3.org/2000/svg" viewBox="0 0 24 24" enable-background="new 0 0 24 24"><path fill="#B0BEC5" d="m16.5 3c-1.7 0-3.4.8-4.5 2.1-1.1-1.3-2.8-2.1-4.5-2.1-3.1 0-5.5 2.4-5.5 5.5 0 3.8 3.4 6.9 8.6 11.5l1.4 1.3 1.4-1.3c5.2-4.7 8.6-7.8 8.6-11.5 0-3.1-2.4-5.5-5.5-5.5m-4.4 15.5l-.1.1-.1-.1c-4.8-4.3-7.9-7.1-7.9-10 0-2 1.5-3.5 3.5-3.5 1.5 0 3 1 3.6 2.4h1.9c.5-1.4 2-2.4 3.5-2.4 2 0 3.5 1.5 3.5 3.5 0 2.9-3.1 5.7-7.9 10"/><path d="M16.5,3c-1.7,0-3.4,0.8-4.5,2.1C10.9,3.8,9.2,3,7.5,3C4.4,3,2,5.4,2,8.5c0,3.8,3.4,6.9,8.6,11.5l1.4,1.3l1.4-1.3
	c5.2-4.7,8.6-7.8,8.6-11.5C22,5.4,19.6,3,16.5,3z"/></svg>