<svg xmlns="http://www.w3.org/2000/svg" viewBox="0 0 56 52.07">
<path fill="#B0BEC5"
      d="M28,52.07l-4.76-4.33C9.23,35,0,26.66,0,16A15.86,15.86,0,0,1,15.7,0H16A17.29,17.29,0,0,1,28,5,17.29,17.29,0,0,1,40,0,15.86,15.86,0,0,1,56,15.7V16c0,10.63-9.2,19-23.12,31.64ZM15.73,2.67A13.19,13.19,0,0,0,2.67,16c0,9.49,8.88,17.55,22.33,29.74l3,2.74,3.08-2.78C44.48,33.51,53.33,25.46,53.33,16v-.27A13.19,13.19,0,0,0,40,2.67,14.63,14.63,0,0,0,29,7.78L28,9,27,7.78A14.63,14.63,0,0,0,16,2.67Z"/>
<path d="M28,52.07l-4.76-4.33C9.23,35,0,26.66,0,16A15.86,15.86,0,0,1,15.7,0H16A17.29,17.29,0,0,1,28,5,17.29,17.29,0,0,1,40,0,15.86,15.86,0,0,1,56,15.7V16c0,10.63-9.2,19-23.12,31.64Z"/>
</svg>