<svg xmlns="http://www.w3.org/2000/svg" viewBox="0 0 88 88" enable-background="new 0 0 88 88"><g><path d="m88 2.3h-21.2c.7.6 1.3 1.3 1.9 1.9 3.1 3.4 5.5 7.3 7.1 11.5h12.2"/><path d="M88,38.7h-9.7c-0.5,4.7-1.9,9.3-4.1,13.5H88"/><path d="m88 74.5h-19.7c-3.4 0-6.6-1.6-8.6-4.2l-7.5-10.7c11.3-4.2 17.2-14.6 17.2-26.8v-2.3c0-15.9-10.1-29.1-28.8-28.8h-40.6v1.3c0 6.8 5.5 12.3 12.2 12.3h28.7c10.2 0 14.8 6.7 14.8 14.8v3.3c0 8-4.4 13.8-14.4 14.6-.2 0-.4 0-.6 0h-40.7v40h13.5v-26.4h23.6l11.6 16.5c4.3 5.8 10.8 9.4 18 9.9h21.3"/></g></svg>