<svg xmlns="http://www.w3.org/2000/svg" viewBox="0 0 40 40" enable-background="new 0 0 40 40"><path d="m27.6 4c-2.9 0-5.6 1.1-7.6 3-2-1.9-4.7-3-7.5-3h-.2c-2.7 0-5.2 1.1-7.1 3-1.9 1.9-2.9 4.4-2.9 7.1 0 6.8 5.8 12 14.6 20l3.1 2.8 3.1-2.7.1-.1c8.7-7.9 14.5-13.2 14.5-19.9v-.2c-.1-5.5-4.6-10-10.1-10m8.1 10.2c0 5.8-5.5 10.8-14 18.4l-1.7 1.6-1.8-1.6c-8.3-7.6-13.9-12.6-13.9-18.4 0-2.2.8-4.2 2.3-5.8 1.5-1.5 3.5-2.4 5.7-2.4h.2c2.5 0 5 1.1 6.7 3.1l.8.9.7-.9c1.7-1.9 4.2-3.1 6.8-3.1h.1c4.4 0 8.1 3.6 8.1 8v.2" fill="#cfae7f"/><path d="M20,36.9l-3.1-2.8c-8.8-8-14.6-13.2-14.6-20c0-2.7,1-5.2,2.9-7.1s4.4-3,7.1-3h0.2C15.3,4,18,5.1,20,7 c2-1.9,4.7-3,7.5-3h0.1c5.5,0,10,4.5,10.1,10v0.2c0,6.7-5.8,12-14.5,19.9l-0.1,0.1L20,36.9z"/></svg>