<svg xmlns="http://www.w3.org/2000/svg" width="1915.02" height="509.72" viewBox="0 0 1915.016 509.717"><g transform="translate(-5.794-200)"><circle cx="216" cy="216" r="216" transform="translate(1280 200)" fill="#131313"/><g fill="none" stroke="#707070"><path d="m-1498.19 279c222.79 101 597.22-81.7 646.27-104.21 149.49-68.63 328.63-63.38 321.34 21.363-9.687 112.55-56.53 129.85-66.955 91.85s83.8-85.42 83.8-85.42 111.18-67.986 188.97-52.974c95.45 18.418 93.15 115.39 50.06 108.89s-30.608-98.82-23.837-130c0 0 32.353-171.83 226.35-166.5" transform="translate(1504.19 400)"/><path d="M-13.833,192.166S154.833,255.5,254.047,86.391,458,0,458,0" transform="translate(1462.5 264.5)"/></g></g></svg>