<svg xmlns="http://www.w3.org/2000/svg" height="1025.17" viewBox="0 0 1720 1025.168"><g fill-rule="evenodd"><path d="m134 160.78l3.658-4.633 2.195-1.707.487-2.438 20.483 5.852-7.315 2.926h-8.05l-4.633-1.463" transform="translate(514.25 271.26)" fill="#954c2e"/><path d="m305 139.02l11.217-19.02v1.463l1.951-1.463v1.219l2.194-1.219.732 1.463 2.438-1.219-7.07 16.581-.975-.488-.732.732-.975-.488-1.463.975-1.219-.975-1.463 1.219h-.975l-1.707.244" transform="translate(1046.43 253.8)" fill="#131313"/><path d="m162.22 198.71l5.121-1.707-2.438 6.584-3.9-1.463" transform="translate(474.71 339.53)" fill="#deebdc"/><g fill="#131313"><path d="m168.95 263.88l4.877-2.682-2.439-2.195h-4.389l.488 4.633" transform="translate(495.27 434.58)"/><path d="M206.17,230.852,203,225l7.072,3.414v2.926l-1.463-1.951.244,2.438-1.219-.975-.488,1.219Z" transform="translate(603.78 390.78)"/></g><path d="m210 275.37l4.877-5.365 1.951 1.219 1.707-1.219.244 1.219 2.195-.732.244 4.389-5.121 2.438-.975-2.195-2.682 1.219" transform="translate(656.77 470.75)" fill="#954c2e"/><g fill="#deebdc"><path d="m236 321.63l.975-4.633.732 1.707 1.219-1.463 1.463 1.707.732 2.682-3.9-.488" transform="translate(685.89 669.71)"/><path d="m134 313.14l.975-2.926 2.683-1.219 1.707 1.219-.244 2.438h-1.463l-1.219 1.463-.732-1.219" transform="translate(390.57 637.5)"/></g><g fill="#954c2e"><path d="m170 289.46l3.17-1.463 2.438.975-.488 2.682-2.195.488-.732-1.951-1.951 1.463" transform="translate(496.93 477.77)"/><path d="m222.68 135l1.951 1.707-.732 4.633-3.17-.244-.731-2.438 1.219-.244-.975-3.17" transform="translate(635.74 231.78)"/><path d="m292.98 269.46l-.975 16.825 1.219-1.463 1.463 2.438.244-1.463.975.975.732-1.219 1.219 1.219 1.219-11.217-.732.244-.488-2.926-.488.732-.73-5.608-1.463 2.195-.732-1.707" transform="translate(868.5 724.74)"/></g><g fill="#deebdc"><path d="m297 223.44l6.1-2.439 4.145 2.195 1.707 3.17h-2.442l-1.707-2.438-1.707 2.195-1.219-.975h-1.707l-1.219-.975" transform="translate(937.29 373.66)"/><path d="m266 150.46l.488 3.414 1.707-.975 2.195-1.463-1.464-2.439" transform="translate(766.47 250.01)"/></g><g fill="#954c2e"><path d="m282 240.73l.488 2.926 2.926-.975-.732-2.683" transform="translate(803.37 395.14)"/><path d="m246 210.44l.975 5.365 6.1-3.658-.975-4.146" transform="translate(731.68 365.47)"/></g><path d="m326 266l8.535 2.682-6.34 4.633-.975-4.633" transform="translate(986.79 463.78)" fill="#deebdc"/><g fill="#954c2e"><path d="m384.88 246l-4.877 1.951 3.17 6.828 2.438-2.682" transform="translate(1320.49 439.02)"/><path d="m339 320.95l1.219-1.707.732 1.707 1.949-1.951 1.707 4.145-2.438.488-.732-1.219-1.707 1.707v-1.951" transform="translate(990.93 669.22)"/></g><path d="m254.93 94l-2.926 2.682 2.926 3.9 4.877-1.707-3.17-1.707-.244-1.463-1.219-1.463" transform="translate(756.12 162.01)" fill="#131313"/><path d="m302 115v2.926l1.219 1.219 2.438-1.707-.488-2.195-1.463.732" transform="translate(862.8 190.78)" fill="#954c2e"/><path d="m163 86.22l4.389 14.14 1.951-.975-1.707-12.436-1.463.732-1.219-2.683" transform="translate(480.61 168.94)" fill="#f5f5f5"/><path d="m111.49 101l6.1 4.389-.975 3.17-4.877-1.707-.736-4.145" transform="translate(328.24 176.78)" fill="#131313"/><g fill="#deebdc"><path d="m70.46 177.17l5.852-3.17 4.389.488-1.463 4.145-5.365-.975-4.876 3.17" transform="translate(-52.17 301.04)"/><path d="m215.39 53l-4.389 6.34 3.414 2.438.975-4.145 1.711 4.877.244-3.658-.244-4.145" transform="translate(622.14-40.08)"/></g><path d="M306.951,41.463,305,50.729,306.219,50l.488,2.926.732-1.219s.244,1.219.488.975a5.33,5.33,0,0,1,.732-1.219l2.926-10.973-1.951,1.219L307.682,40Z" transform="translate(901.91-30.25)" fill="#f5f5f5"/><path d="m123 47.15l3.658 5.608 3.414-3.9-1.707-5.853s-1.951 3.658-2.438 3.9c-.489 0-2.927.245-2.927.245" transform="translate(365.84-32.515)" fill="#954c2e"/><path d="m184.49 20.707l-.488 5.608 2.195.488 2.926-4.145-2.926-3.658" transform="translate(534.76-14.367)" fill="#deebdc"/><path d="M52,44l4.389,6.828,3.658-5.365-3.9-.975v1.707L54.438,44Z" transform="translate(-39.32-33.27)" fill="#954c2e"/><path d="m35 85.36l.732-5.365 2.682 1.463 5.365 2.195v3.658l-3.17-2.195-.975 3.658-1.464-2.679-1.219 1.463-.975-1.951" transform="translate(-26.465 142.77)" fill="#131313"/><g fill="#f5f5f5"><path d="M98.145,0,95.219,2.682l1.219,2.438-1.219,3.17L94,12.68l2.438,2.926.244-2.926L99.365,10,97.414,7.8l2.926-2.438L99.121,3.9l1.951-1.463Z" transform="translate(279.58)"/><path d="m10.975 139.93l1.951-2.926 5.365.244.975 1.707 4.877.488-1.463 1.951-3.17-.732-1.951-1.463-2.682.488-.732-1.219-1.463 4.636-.975-2.195-1.707.972" transform="translate(-7.562 234.31)"/></g><path d="m37.488 221.22l2.682-1.219 4.145.488.244 1.219-5.121 2.926-.244-1.463-1.951.244.488-.975-.731-.976" transform="translate(-27.978 367.74)" fill="#131313"/><path d="m12 176.71l3.414-1.707 2.438 1.951-1.219 1.219" transform="translate(-9.07 285.95)" fill="#954c2e"/><path d="m0 206.63l.975-3.17 3.17-1.463 4.633.732-.732 1.219h-2.438l-.488 2.926-1.706-.977-.732.732" transform="translate(0 338.94)" fill="#131313"/><path d="m9.951 266.93l7.315-2.926-.975 1.951 1.219.244-.975.975 4.145.732-12.192 4.389 1.463-1.951-1.951-.24 1.463-.732-1.219-1.468" transform="translate(-6.05 467.49)" fill="#deebdc"/><path d="m83 227.78l2.195-6.34.488 1.951 1.462-4.389-.975 6.34 1.951-.244-1.463 1.463v3.414l-2.438-1.707-.975 1.951" transform="translate(30.984 406.51)" fill="#131313"/><g fill="#954c2e"><path d="m108 280.41l1.219-3.414 2.926 1.463v2.437l-3.658 2.195" transform="translate(310.31 473.75)"/><path d="m127.73 228l-.732 4.877 3.17.488.732-3.9" transform="translate(363.87 385.5)"/></g><path d="m72 329.9l.975-12.68 1.219 1.463h1.219l1.219-2.438.244 1.951 1.224-2.196v13.411l-2.2-1.219-1.219 1.219-.732-1.463-.975 1.219" transform="translate(-23.995 688.44)" fill="#f5f5f5"/><g fill="#131313"><path d="m7 325.44l3.658-2.439 1.951 2.438-1.709 1.951-1.463-1.463-.975 1.463" transform="translate(-5.293 683.15)"/><path d="m35 353.68l1.463-2.682 1.707.975.488 2.926-2.438.732" transform="translate(-26.465 661.98)"/><path d="m123.19 347.19l-2.195-7.8 2.195 2.195-.488-6.587 2.438 2.195 2.926 7.559-3.17-.732.488 1.951" transform="translate(359.89 674.07)"/></g><g fill="#954c2e"><path d="m172 342.05l4.145-8.05 1.219 6.34-2.438-.732" transform="translate(501.33 674.83)"/><path d="M246.926,371.633,244,367l2.682.488,3.9.975-2.195,1.463Z" transform="translate(721.53 649.88)"/></g><g fill="#131313"><path d="m181.71 383.61l5.121-1.463-1.951-4.145-4.877.975" transform="translate(533.82 641.56)"/><path d="M352.414,369.609,349,364l3.658,2.195.244-1.951,1.707,3.17Z" transform="translate(1020.16 652.14)"/></g><path d="m257.93 20l-2.926 3.658 1.707 4.145 2.682-1.707" transform="translate(734.77-15.12)" fill="#954c2e"/><path d="m365.1 68.24l-4.149-.244-1.951 4.389 2.682-2.438v.975" transform="translate(1304.23-32.667)" fill="#f5f5f5"/><path d="m422.19 90h-10.485l.488 1.219-2.195 1.219 7.07.488" transform="translate(1297.81 146.51)" fill="#954c2e"/><path d="m424 151.44l3.414-2.438v.975l1.463-.488-.244.732 3.17-.488-4.877 2.682-.488-.488-.488.244-.244-.732" transform="translate(1287.22 244.39)" fill="#131313"/><path d="m375.14 172.07l-4.145-6.1 3.658 1.707v-2.679l5.365 6.584-3.658-1.219.488 1.463" transform="translate(1327.3 286.57)" fill="#954c2e"/><path d="m430 233.44l2.438-2.438 2.926 3.17-2.195 1.463-.975-1.951" transform="translate(1282.68 386.13)" fill="#deebdc"/><g fill="#131313"><path d="m375 222.19l4.633-.244-.488-1.951" transform="translate(1324.27 354.12)"/><path d="m393.88 313.14l-.975-3.9-2.195.975-1.707-1.22v2.438l.732 2.682 1.707-1.707 1.463 1.707" transform="translate(1313.69 637.5)"/></g></g></svg>