<svg xmlns="http://www.w3.org/2000/svg" viewBox="0 0 1556 1093.5"><g fill-rule="evenodd"><path d="m134 161.65l4.02-5.09 2.411-1.875.536-2.679 22.5 6.43-8.04 3.215h-8.841l-5.09-1.607" transform="translate(450.44 299.36)" fill="#954c2e"/><path d="m305 140.9l12.324-20.9v1.607l2.143-1.607v1.34l2.411-1.34.8 1.607 2.679-1.34-7.769 18.218-1.072-.536-.8.8-1.072-.536-1.607 1.072-1.34-1.072-1.607 1.34h-1.072l-1.875.268" transform="translate(914.71 278.49)" fill="#131313"/><path d="m162.34 198.87l5.626-1.875-2.679 7.234-4.287-1.608" transform="translate(413.64 375.18)" fill="#deebdc"/><g fill="#131313"><path d="m169.14 264.36l5.358-2.947-2.679-2.411h-4.822l.536 5.09" transform="translate(431.61 480.71)"/><path d="M206.483,231.43,203,225l7.769,3.751v3.215l-1.607-2.143.268,2.679-1.34-1.072-.536,1.34Z" transform="translate(526.21 431.69)"/></g><path d="m210 275.89l5.358-5.894 2.143 1.34 1.875-1.34.268 1.34 2.411-.8.268 4.822-5.626 2.679-1.072-2.411-2.947 1.34" transform="translate(573.02 519.96)" fill="#954c2e"/><g fill="#deebdc"><path d="m236 322.09l1.072-5.09.8 1.875 1.34-1.607 1.607 1.875.8 2.947-4.287-.536" transform="translate(597.46 734.25)"/><path d="m134 313.55l1.072-3.215 2.947-1.34 1.875 1.34-.268 2.679h-1.607l-1.34 1.607-.8-1.34" transform="translate(340.23 698.07)"/></g><g fill="#954c2e"><path d="m170 289.61l3.483-1.607 2.679 1.072-.536 2.947-2.411.536-.8-2.143-2.143 1.607" transform="translate(432.91 528.71)"/><path d="m222.95 135l2.143 1.875-.8 5.09-3.49-.265-.8-2.679 1.34-.268-1.072-3.483" transform="translate(553.7 256.15)"/><path d="m293.07 269.61l-1.072 18.486 1.34-1.607 1.607 2.679.268-1.607 1.072 1.072.8-1.34 1.34 1.34 1.34-12.324-.8.268-.536-3.215-.536.8-.8-6.162-1.607 2.411-.8-1.875" transform="translate(756.92 789.87)"/></g><g fill="#deebdc"><path d="m297 223.68l6.7-2.679 4.554 2.411 1.875 3.483h-2.679l-1.875-2.679-1.875 2.411-1.34-1.072h-1.875l-1.34-1.072" transform="translate(817.92 413.2)"/><path d="m266 150.61l.536 3.751 1.875-1.072 2.411-1.607-1.607-2.679" transform="translate(667.51 276.55)"/></g><g fill="#954c2e"><path d="m282 240.8l.536 3.215 3.215-1.072-.8-2.947" transform="translate(699.47 437.4)"/><path d="m246 210.68l1.072 5.894 6.7-4.02-1.072-4.554" transform="translate(637.68 403.56)"/></g><path d="m326 266l9.377 2.947-6.966 5.09-1.072-5.09" transform="translate(860.35 512.26)" fill="#deebdc"/><g fill="#954c2e"><path d="m385.36 246l-5.358 2.143 3.483 7.5 2.679-2.947" transform="translate(1154.57 484.49)"/><path d="m339 321.14l1.34-1.875.8 1.875 2.147-2.143 1.875 4.554-2.679.536-.8-1.34-1.875 1.875v-2.143" transform="translate(863.28 733.9)"/></g><path d="m255.22 94l-3.215 2.947 3.215 4.287 5.358-1.875-3.483-1.875-.268-1.607-1.34-1.607" transform="translate(659.1 179.02)" fill="#131313"/><path d="m302 115v3.215l1.34 1.34 2.679-1.875-.536-2.411-1.607.8" transform="translate(751.25 211.12)" fill="#954c2e"/><path d="m163 86.34l4.822 15.539 2.143-1.072-1.875-13.664-1.607.8-1.34-2.943" transform="translate(418.78 185.75)" fill="#f5f5f5"/><path d="m111.54 101l6.7 4.822-1.072 3.483-5.364-1.875-.8-4.554" transform="translate(286.03 195.23)" fill="#131313"/><g fill="#deebdc"><path d="m70.61 177.48l6.43-3.483 4.822.536-1.607 4.554-5.894-1.072-5.358 3.482" transform="translate(-50.51 332.61)"/><path d="m215.82 53l-4.822 6.966 3.751 2.679 1.072-4.554 1.875 5.358.268-4.02-.268-4.554" transform="translate(542.1-38.801)"/></g><path d="M307.143,41.607,305,51.788l1.34-.8.536,3.215.8-1.34s.268,1.34.536,1.072a5.856,5.856,0,0,1,.8-1.34l3.215-12.056-2.143,1.34L307.947,40Z" transform="translate(785.93-29.28)" fill="#f5f5f5"/><path d="m123 47.554l4.02 6.162 3.751-4.287-1.876-6.429s-2.143 4.02-2.679 4.287c-.536 0-3.215.267-3.215.267" transform="translate(318.84-31.48)" fill="#954c2e"/><path d="m184.54 20.875l-.536 6.162 2.411.536 3.215-4.554-3.215-4.02" transform="translate(465.81-13.91)" fill="#deebdc"/><path d="M52,44l4.822,7.5,4.019-5.894-4.287-1.072v1.875L54.679,44Z" transform="translate(-38.07-32.21)" fill="#954c2e"/><path d="m35 85.89l.8-5.894 2.947 1.607 5.894 2.411v4.02l-3.483-2.411-1.068 4.02-1.607-2.945-1.34 1.607-1.072-2.143" transform="translate(-25.623 157.56)" fill="#131313"/><g fill="#f5f5f5"><path d="m98.55 0l-3.214 2.947 1.34 2.679-1.34 3.483-1.34 4.822 2.679 3.215.268-3.215 2.947-2.947-2.143-2.411 3.215-2.679-1.34-1.607 2.143-1.607" transform="translate(243.66)"/><path d="m11.07 140.22l2.143-3.215 5.894.268 1.072 1.875 5.358.536-1.607 2.143-3.483-.8-2.143-1.607-2.947.536-.8-1.34-1.607 5.09-1.072-2.411-1.88 1.068" transform="translate(-7.321 258.99)"/></g><path d="m37.536 221.34l2.947-1.34 4.554.536.268 1.34-5.626 3.215-.268-1.607-2.143.268.536-1.072-.8-1.072" transform="translate(-27.09 406.83)" fill="#131313"/><path d="m12 176.87l3.751-1.875 2.679 2.143-1.34 1.34" transform="translate(-8.785 316.63)" fill="#954c2e"/><path d="M0,207.09l1.072-3.483L4.554,202l5.09.8-.8,1.34H6.162l-.536,3.215-1.875-1.072-.8.8Z" transform="translate(0 374.92)" fill="#131313"/><path d="m10.143 267.21l8.04-3.215-1.072 2.143 1.34.268-1.072 1.072 4.554.8-13.4 4.822 1.607-2.143-2.138-.262 1.607-.8-1.34-1.607" transform="translate(-5.857 516.05)" fill="#deebdc"/><path d="m83 228.65l2.411-6.966.536 2.143 1.607-4.822-1.072 6.966 2.143-.268-1.607 1.607v3.751l-2.679-1.875-1.072 2.143" transform="translate(42.23 447.98)" fill="#131313"/><g fill="#954c2e"><path d="m108 280.75l1.34-3.751 3.215 1.607v2.679l-4.02 2.411" transform="translate(270.23 523.65)"/><path d="m127.8 228l-.8 5.358 3.483.536.8-4.287" transform="translate(316.85 426.29)"/></g><path d="m72 331.27l1.072-13.931 1.34 1.607h1.34l1.34-2.679.268 2.143 1.34-2.411v14.735l-2.411-1.34-1.34 1.34-.8-1.607-1.072 1.34" transform="translate(-19.258 754.73)" fill="#f5f5f5"/><g fill="#131313"><path d="m7 325.68l4.02-2.679 2.143 2.679-1.875 2.143-1.607-1.607-1.072 1.607" transform="translate(-5.125 749.6)"/><path d="m35 353.95l1.607-2.947 1.875 1.072.536 3.215-2.679.8" transform="translate(-25.623 729.11)"/><path d="m123.41 348.4l-2.411-8.578 2.411 2.411-.536-7.233 2.679 2.411 3.215 8.305-3.483-.8.536 2.143" transform="translate(313.65 740.82)"/></g><g fill="#954c2e"><path d="m172 342.84l4.554-8.841 1.34 6.966-2.679-.8" transform="translate(436.72 741.55)"/><path d="M247.215,372.09,244,367l2.947.536,4.287,1.072-2.411,1.607Z" transform="translate(628.75 717.39)"/></g><g fill="#131313"><path d="m181.87 384.16l5.626-1.607-2.143-4.555-5.358 1.072" transform="translate(465.21 709.34)"/><path d="M352.751,370.162,349,364l4.019,2.411.268-2.143,1.875,3.483Z" transform="translate(888.74 719.59)"/></g><path d="m258.21 20l-3.215 4.02 1.875 4.554 2.947-1.875" transform="translate(639.91-14.642)" fill="#954c2e"/><path d="m365.7 68.27l-4.557-.268-2.143 4.822 2.947-2.679v1.072" transform="translate(1134.63-29.18)" fill="#f5f5f5"/><path d="m423.4 90h-11.52l.536 1.34-2.416 1.339 7.769.536" transform="translate(1132.6 162.25)" fill="#954c2e"/><path d="m424 151.68l3.751-2.679v1.072l1.607-.536-.268.8 3.483-.536-5.358 2.947-.536-.536-.536.268-.268-.8" transform="translate(1122.36 270.57)" fill="#131313"/><path d="m375.55 172.77l-4.554-6.7 4.02 1.875v-2.944l5.894 7.234-4.02-1.34.536 1.607" transform="translate(1161.16 316.57)" fill="#954c2e"/><path d="m430 233.68l2.679-2.679 3.215 3.483-2.411 1.607-1.072-2.143" transform="translate(1117.96 427.18)" fill="#deebdc"/><g fill="#131313"><path d="m375 222.41l5.09-.268-.536-2.143" transform="translate(1158.23 392.35)"/><path d="M394.358,313.554l-1.072-4.287-2.411,1.072L389,309v2.679l.8,2.947,1.875-1.875,1.607,1.875Z" transform="translate(1147.98 698.07)"/></g></g></svg>