<svg xmlns="http://www.w3.org/2000/svg" width="1920.47" viewBox="0 0 1920.474 704.211"><g transform="translate(.127-1008)"><g><path d="m1928 51.982s-210.23-202.7-558.12-148.2-158.74 45.27-497.88 132.9c-482 115.2-552 61.34-576 24-28.36-69.58 9-164 120-240s210 202-408 39.29" transform="translate(-8 1331.31)" fill="none" stroke="#757575"/><circle cx="344" cy="344" r="344" transform="translate(1048 1008)" fill="#131313"/><path d="m531.6 667.39q-30.07-64.66-45.14-172.45-4.973-24.648-54.92-17.4-36.617 6.864-60.15 1.106a259.78 259.78 0 0 0 -65.873 -15.689q-80.48 7.625-110.3-25.591c23.4-15.432 38.636-22.14 76.03-15.735q31.18 10.03 92.7-8.114c10.939-3.3 14.188 1.129 9.96 3.01q-19.256 5.284-70.65 4.333c-34.693-9.212-23.725 2.333 0 0 43.849-4.326-25.287-31.917-40.564-37.424q-22.388-8.07-54.92-3.455c-8.806 2.545-20.49 3.644-37.876.811-11.968-4.462-33.415-2.977-71.57 7.492q21.819 16.08 63.19-7.394 14.371-4.92 41.33-10.348 17.843 5.954 57.16 4.591 5.082-23.636-47.03-47.833-53.941 25.24-145.25 48.36 27.712 18.216 64.47-1.174 37.02-1.114 77.4-20.636 28.27 9.375 55.07 8.962c9.478-9.318-4.02-13.371 0 0 4.286 14.288 10.683 21.871 22.4 27.333 18.84 8.447 30.06 14.879 34.941 20.348 7.507 8.114 11.793 8.348 13.889 2.01q11.479-33.34-171.48-110.85c-13.6-2.242-26.21-6.78-35.627-12.3m-3.299-2.067a55.027 55.027 0 0 1 -11.683 -10.3m-2.322-2.879a61.936 61.936 0 0 1 -10.195 -21.121q7 3.125 14.06 6.121m37.628 14.947c59.54 21.21 133.48 40.826 196.68 51.44q65.862 45.886 147.7 72.894 52.948 25.22 63 69.49 22.432 42.24 42.08 77.49" transform="translate(1133.56 1044.61)" fill="none" stroke="#f5f5f5" stroke-miterlimit="22.926" fill-rule="evenodd"/></g><g fill="none" stroke="#f5f5f5" fill-rule="evenodd" stroke-miterlimit="22.926"><path d="m121.2 215.97c-10.04 8.12-9.05 20.246-3.433 26.13-.568-11.814 5.262-21.18 9.13-23.1-8.5 6.46-8.741 18.243-3.09 19.623-1.121-8.541 3.331-15.905 13.435-18.532t7.908 2.86q-3.608-7.645-10.06-9.141 3.923-7.458 16.26-12.7c1.565-3.3 2.872-6.749 4.678-9.952 17.15-30.533 38.81-17.222 3.339.639 5.511 2.073 13.388 3.063 18.479.748q3.106-.012 7.216 2.665c.553-.8.646-2.19.3-4.161q2.359.538 5.892 4.6a6.585 6.585 0 0 0 .732 -3.912q13.871 16.973 29.742 20.986s-2.086-2.315-6.258-6.951q9.948 7.551 18.992 9.5l-7.356-6.523a22.369 22.369 0 0 0 14.8 4.411q-15.213-4.489-33.14-33.666c-4.779-9.149-18.15-20.815-30.458-28.881 9.629 4.01 17.19-3.811 2.187-8.876 7 2.065 8.422-3.85 1.323-10 5.254.826 9.52-1.675 1.619-7.645 3.666-.787 3.495-7.871-2.872-8.377 6.632-1.411 4.359-5.8 3.01-6.531 2.95-1.083 3.736-4.169.592-6.64 5.215-.39 8.726-5.01-.521-8.07 6.06.709 12.812-2.315 7.223-7.957 6.678-1.348 16.221 2.315 18.845-7.01 0 0-8.741-2.089-15.311-2.05 10.4-2.268 44.827-27.16 12.07-15.4 9.59-2.657 27.305-29.691 23.561-45.963-18.44 33.447-42.14 57.707-81.15 78.75-9.987 16.825-23.258 30.6-35.883 37.882-7.722-1.473-17.638.966-26.473 5.19-9.255 4.419-17.342 10.8-20.518 16.693-3.97 7.364-.918 12.96 3.627 13.4 5.277.507 9.123-4.777 10.983-11.07 1.891-6.382 1.744-13.8-1-17.269-28.07-5.224-56.33 19.05-58.13 43.18a78.147 78.147 0 0 1 -1.175 21.111c-11.358 19.856-16.16 34.437-20.325 48.45 4.873-6.85 8.539-13.06 12.446-17.519-4.227 8.713-6.118 11.7-7.216 13.91q10.696-9.417 29.67-41.29c19.366-14.518 24.13-25.826 20.03-35.4-15.07 6.866-15.217 28.6-24.869 35.871-7.254 5.463-14.06 1.637-4.39-5.689 7.239-5.478 19.374-6.842 23.593-14a16.242 16.242 0 0 0 2.164 -9.679c-3.168-.273-9.823 11.495-3.16 9.874 8.75-2.126 17.434-5.577 24.294-10.477 2.055-1.34 5-6.211 2.265-7.162-2.755-.966-3.433 3.647-1.129 7.341 5.83 6.951 21.2 9.468 46.32 8.2q17.28-.561 23.273 2 7.05 1.5 2.164 10.746-2.7-5.833-9.59-4.949-11.746 4.594-16.338 13.04 2.545 4.126 1.105 6.086-9.866-.433-14.213 10.684-2.51-5.786 2.078-10.24c-4.585 2.19-6.507 8.183-7.558 18.508-3.557-11.471-1.448-20.34 10.06-24.595q-10.426.374-16.486 14.03" transform="translate(1150 1098.91)"/><path d="m106.41 126.43q6.235-17.648-7.443-29.7-2.294-18.6-2.294-18.6c4.52-29.646 4.543-58.37-8.814-78.13 9.677 2.265 18.17 22.614 17.983 34.538.091-13.674.038-26.11 3.294-30.553 3.869 7.886 3.68 20.689.568 30.917q6.179-23.24 13.183-28.14a47.967 47.967 0 0 1 -3.869 24.871c6.194-13.04 11.706-20.53 17.62-22.462-.25 5.955-2.976 13.439-5.588 21.379 5.846-8.151 13.334-13.97 16.04-14.8.144 4.386-2.1 10.4-4.437 14.311q6.781-6.443 14.4-7.394.772 8.318-3.725 13.05 11.744-5.875 15.333-3.386a11.53 11.53 0 0 1 -1.151 5.561q6.871.636 8.738.72-.239 5.648-4.149 7.242l9.45 1.091q-1.136 5.4-3.725 7 7.8.057 8.889 4.288-1.863 8.148-8.382 8.091" transform="translate(1128.67 1125.7)"/></g></g></svg>