<svg xmlns="http://www.w3.org/2000/svg" height="821.21" viewBox="0 0 575.719 821.208"><g transform="translate(38.519-5809.26)" fill="none" fill-rule="evenodd" stroke-miterlimit="22.926"><path d="m52.16 292c0-54.9 23.306-100 52.16-100-28.855 0-52.16-45.1-52.16-100 0 54.9-23.306 100-52.16 100 28.855 0 52.16 45.1 52.16 100" transform="translate(57.676 6223)" stroke="#131313"/><g transform="translate(-38 5809.81)" stroke="#757575"><path d="m507.31 279c25-15 42-19 64-21 3 15 4 23 4 23-25 23-50 42-65 51m-8 26c19-17 43-26 71-30 3 28-14 50-50 65-22 9-40 18-52 26m-1 11c5-2 10-2 18-5 20-9 32-14 53-12 6 21-4 40-34 48a93.646 93.646 0 0 0 -38 21c-1-28 1-58 5-90m-11 11c-2 19-3 35-4 42-2-22-3-34-3-34m-34-138c-11 7-21 13-25 16 0 0-20 16-59 47 31 12 39 26 23 43-20-20-32-23-30-6 43 13 53 27 34 33-44-2-37 4-23 14 25-6 56-29 94-71 21-36 41-66 60-91 15 19 19 48 14 74a197.519 197.519 0 0 1 -8 26 78.526 78.526 0 0 1 -16 23c-24 23-44 44-52 66-5 65-28 106-71 124-61-64-63-159-32-230-7 6-14 10-30 28-13 152-54 198-118 314-65 103-145-22-52-36 117-19 202 132 188 169-2 4-4 7-7 6-29-8-53-128 60-186 26-14 53-48 75-117 4-14 9-24 19-32q-12 231-15 267c-3 5-6 7-8 6 9-188 13-282 13-282-10-12-13-32-3-61m-19-151c21-14 46-29 60-37m10-4c2 0 3-1 5-1 2 17 0 29-8 36" transform="translate(-89-2)"/><path d="m58 334c-4-21-8-47-12-76 5-1 4-15 0-29 1-31-2-52-14-66a3.491 3.491 0 0 0 -1 2c5 9 9 18 9 28h-1c-3-13-9-24-19-33-2 10-3 22 2 42 5 16 9 29 8 44 0 10 2 11 7 12a79.462 79.462 0 0 0 8 41c10 18 23 16 40-6-14 30 8 30 15 25 12-8 18-28 17-43a18.031 18.031 0 0 1 -12 -12c2-24 2-40 2-50-4-6-5-14-5-23 0-25-2-38-6-41 11-5 19-2 25 9-5-18-20-20-46-6-15 6-30 4-43-1 11-11 39-27 54-20-27-56-65-75-85-80a19.978 19.978 0 0 1 21 -5c5 3 6 3 9 2 5 5 6 5 12 5 8 0 12 4 13 9 6-2 7 6 11 3 1 5 6 10 9 9 2 5 4 5 7 4 10 9 17 21 21 37 3 14 5 22 5 22-19-22-13-46-14-65a228.837 228.837 0 0 1 1 -45c3-17 3-17 3-24l6-1c9 14 14 31 16 48 6 23 9 38 7 43 8-26 17-45 28-59 9-14 14-24 16-30 3-1 5-2 4-1a142.562 142.562 0 0 0 1 42c-3 24-11 44-15 57-1-1 2-12-3-3a11.669 11.669 0 0 0 2 11c1 2 0 4-4 5-2 1-2 1-1 3 3 5 1 9-5 11-2 1-2 2-1 4 1 1 1 2-1 3 1 3 0 5-3 7-4 3-5 5-2 6a73.473 73.473 0 0 0 8 -2q27-34.5 54-39c13-3 24-6 31-10 16-9 30-11 40-7-1 1-1 2-3 4a117.947 117.947 0 0 0 -36 23c-17 8-36 15-56 19-12 3-20 8-25 13 8-1 16-4 22-9 12 3 17 6 15 10 0 3 3 4 5 4 2 1 3 3 2 6 0 3 3 3 4 3 6 17 6 29 1 37-10-19-63-63-80-39 2-13 6-31 10-55 4 0 5-2 4-5-1-5-1-9 1-13 5-4 6-8 3-13-5-5-9-1-7 6 1 3 1 6-2 9-2 5-3 9-1 11q-10.5 45-12 57c-5-32-8-53-7-64-1-4-1-8 1-11s0-5-2-5c-3-3-3-9-2-12-4-5-7-3-6 4-1 11 1 15 5 15 1 2-4 11-1 12 5 58 13 86 27 84a128.962 128.962 0 0 0 -14 27c-2 4-4 7-7 7-1 9-1 19-2 27-1 12-1 20 0 23" transform="translate(297.31-2)"/></g></g></svg>