<svg xmlns="http://www.w3.org/2000/svg" width="600" height="92" viewBox="0 0 5867 901" shape-rendering="geometricPrecision" image-rendering="optimizeQuality" fill-rule="evenodd" clip-rule="evenodd"><path d="m561 623c-25 28-62 50-109 67-48 17-101 25-158 25-87 0-157-27-209-80-53-54-81-129-85-224v-58c0-66 12-123 35-173 23-49 57-87 100-113 43-27 93-40 150-40 84 0 148 19 194 58 46 38 73 95 81 170h-155c-6-37-18-64-36-80-18-16-44-24-78-24-41 0-72 18-94 52-22 34-33 83-33 147v40c0 67 11 117 34 151 23 33 59 50 108 50 41 0 73-10 93-28v-104h-112v-111h274v275m387-274l-51-4c-49 0-80 16-94 46v315h-155v-497h145l5 64c26-49 63-74 109-74 17 0 31 2 43 6l-2 144m287 366c-76 0-138-23-185-68-47-46-71-105-71-178v-13c0-51 10-95 29-134 18-39 46-69 82-91 36-21 79-32 129-32 69 0 125 22 165 66 41 43 61 103 61 181v60h-308c5 28 18 50 36 66 19 16 43 24 73 24 49 0 87-18 115-52l70 84c-19 26-46 48-82 63-35 16-73 24-114 24m-17-396c-46 0-73 30-81 90h156v-12c1-25-6-44-19-58-13-13-32-20-56-20m499 277c22 0 39-6 51-18 12-12 18-28 17-50h146c0 55-20 100-59 135-39 35-89 52-151 52-72 0-129-23-171-68-41-45-62-108-62-188v-7c0-50 9-94 27-133 19-38 46-68 81-89 35-20 76-31 124-31 64 0 116 18 154 54 38 36 57 85 57 146h-146c0-26-6-46-18-59-13-14-30-21-51-21-40 0-63 26-70 77-2 16-4 38-4 67 0 50 6 84 18 104 12 19 31 29 57 29m259-143c0-50 10-94 29-133 19-39 47-68 83-89 36-21 79-32 128-32 74 0 133 24 176 70 42 46 64 108 64 188v5c0 78-22 139-65 185-43 45-101 68-174 68-71 0-128-21-171-64-43-42-66-99-69-172l-1-26m155 9c0 46 7 80 22 101 14 22 35 33 64 33 55 0 83-43 84-128v-15c0-90-28-134-85-134-52 0-80 38-84 115l-1 28m855-1c0 82-17 145-51 188-34 44-81 66-142 66-51 0-92-20-123-60l-6 51h-139v-706h155v249c29-33 66-50 112-50 62 0 109 23 143 67 34 44 51 107 51 188v7m-156-10c0-47-6-81-19-101-13-21-32-31-58-31-35 0-60 13-73 40v197c13 26 38 40 74 40 36 0 59-18 69-54 5-17 7-47 7-91m204 2c0-50 10-94 29-133 19-39 47-68 83-89 36-21 79-32 128-32 74 0 133 24 176 70 42 46 64 108 64 188v5c0 78-22 139-65 185-43 45-101 68-174 68-71 0-128-21-171-64-43-42-66-99-69-172l-1-26m155 9c0 46 7 80 22 101 14 22 35 33 64 33 55 0 83-43 84-128v-15c0-90-28-134-85-134-52 0-80 38-84 115l-1 28m373-9c0-50 10-94 29-133 20-39 47-68 84-89 36-21 78-32 127-32 74 0 133 24 176 70 43 46 64 108 64 188v5c0 78-21 139-64 185-43 45-102 68-175 68-71 0-128-21-171-64-43-42-66-99-69-172l-1-26m155 9c0 46 8 80 22 101 14 22 36 33 64 33 55 0 83-43 84-128v-15c0-90-28-134-85-134-52 0-80 38-84 115l-1 28m593 59l-44 43v142h-155v-706h155v375l16-21 117-145h185l-174 204 186 293h-178l-108-185m478 185h-155v-497h155v497m-164-626c0-22 8-40 24-54 16-14 36-21 62-21 25 0 46 7 62 21 16 14 24 32 24 54 0 23-8 41-24 55-16 14-37 21-62 21-26 0-46-7-62-21-16-14-24-32-24-55m402 129l5 58c34-45 81-68 142-68 51 0 90 16 116 47 25 31 38 77 39 139v321h-155v-314c0-25-5-44-15-55-10-12-29-18-55-18-31 0-53 12-68 36v351h-155v-497h146m370 245c0-51 8-95 25-134 16-38 40-68 71-89 31-21 67-32 108-32 51 0 92 18 121 53l6-43h140v478c0 44-10 82-30 114-21 32-50 57-89 74-38 18-83 26-134 26-36 0-72-7-106-20-34-14-60-32-78-54l65-91c28 34 66 51 113 51 69 0 103-35 103-106v-15c-29 33-67 49-112 49-61 0-110-23-147-70-38-46-56-108-56-186v-5m155 9c0 41 8 73 23 97 15 24 37 36 64 36 34 0 58-12 73-34v-209c-15-23-39-34-72-34-27 0-49 12-65 37-15 25-23 60-23 107" fill="#657482" fill-rule="nonzero"/></svg>