<?xml version="1.0" encoding="UTF-8"?><!DOCTYPE svg PUBLIC "-//W3C//DTD SVG 1.1//EN" "http://www.w3.org/Graphics/SVG/1.1/DTD/svg11.dtd"><svg xmlns="http://www.w3.org/2000/svg"><symbol id="ico_action-like-full" viewBox="0 0 169 169"><path d="m84 141c0-22-68-22-68-80 0-15 15-33 34-33 17 0 25 7 34 21 8-14 16-21 33-21 19 0 34 18 34 33 0 58-67 58-67 80" fill="currentColor" fill-rule="nonzero"/></symbol><symbol id="ico_action-like" viewBox="0 0 169 169">
    <path d="m84 141c0-22-68-22-68-80 0-15 15-33 34-33 17 0 25 7 34 21 8-14 16-21 33-21 19 0 34 18 34 33 0 58-67 58-67 80" fill="currentColor" fill-rule="nonzero"/>
</symbol><symbol id="ico_action-write" viewBox="0 0 271 271"><path d="m45 103v117c0 2 1 3 2 5 1 2 4 4 7 4h163c3 0 6-2 7-4 1-2 2-3 2-5v-117c-1-3-2-6-4-7l-82-52c-3-2-6-2-9 0l-81 51c-3 2-5 5-5 8m17 8v-4l73-46 74 46v4l-74 47-73-47m147 94l-58-37 58-37v74m-147 0v-74l58 37-58 37m21 7l52-34 53 34h-105" fill="currentColor"/></symbol><symbol id="ico_advantage-column" viewBox="0 0 542 542"><g fill="currentColor" fill-rule="nonzero"><path d="m181 271h180v-45h-180z"/><path d="m406 45h-271c-49 0-90 41-90 90 0 50 41 91 90 91 50 0 91-41 91-91 0-16-5-31-13-45h116c-8 14-13 29-13 45 0 50 41 91 90 91 50 0 91-41 91-91 0-49-41-90-91-90m-271 136c-24 0-45-21-45-46 0-24 21-45 45-45 25 0 46 21 46 45 0 25-21 46-46 46m271 0c-25 0-45-21-45-46 0-24 20-45 45-45 25 0 46 21 46 45 0 25-21 46-46 46"/><path d="m181 497h45v-158h22v158h46v-158h22v158h45v-203h-180z"/></g></symbol><symbol id="ico_advantage-cup" viewBox="0 0 542 542"><path d="m474 68h-74c-8-14-22-23-39-23h-180c-17 0-31 9-39 23h-74c-13 0-23 10-23 22v69c0 21 9 40 26 53l94 75c20 26 50 44 83 50v47h-45c-12 0-22 10-22 22v46h-23v45h45 136 45v-45h-23v-46c0-12-10-22-22-22h-45v-47c33-6 63-24 83-50l94-75c16-13 26-32 26-53v-69c0-12-10-22-23-22m-158 384h-90v-23h90v23m-217-275c-6-5-9-11-9-18v-46h45v90c0 1 1 2 1 3l-37-29m172 116c-50 0-90-40-90-90v-113h180v113c0 50-40 90-90 90m181-134c0 7-4 13-9 18l-37 29c0-1 0-2 0-3v-90h46v46" fill="currentColor" fill-rule="nonzero"/></symbol><symbol id="ico_advantage-flag" viewBox="0 0 542 542"><g fill="currentColor" fill-rule="nonzero"><path d="m384 271v161l-101-67c-7-5-17-5-25 0l-100 67v-342h271c0-25-20-45-45-45h-226c-25 0-45 20-45 45v384c0 8 4 16 12 20 7 4 16 4 23-1l123-82 123 82c4 2 8 4 12 4 4 0 8-1 11-3 7-4 12-12 12-20v-203h-45"/><path d="m271 311l-88-88 40-40 48 48 93-93 40 40z"/></g></symbol><symbol id="ico_arrow-left-long" viewBox="0 0 339 169"><path d="m69 142c1 1 1 4 0 6-2 1-4 1-6 0l-63-63 63-63c2-2 4-2 6 0 1 1 1 4 0 6l-53 52h318c3 0 5 2 5 5 0 2-2 4-5 4h-318l53 53" fill="currentColor" fill-rule="nonzero"/></symbol><symbol id="ico_arrow-right-small" viewBox="0 0 1052 1747"><path fill="none" stroke="#b2b9c1" stroke-linecap="round" stroke-width="253" d="m126 126l748 748-748 747"/></symbol><symbol id="ico_arrow-right" viewBox="0 0 169 169"><path d="m95 31c-4-3-4-9 0-12 3-3 8-3 12 0l59 60c4 3 4 8 0 12l-59 59c-4 4-9 4-12 0-4-3-4-8 0-12l45-45h-132c-4 0-8-4-8-8 0-5 4-9 8-9h132l-45-45" fill="currentColor" fill-rule="nonzero"/></symbol><symbol id="ico_blog-eye" viewBox="0 0 169 169"><path d="m84 108c7 0 13-3 17-7 4-4 7-10 7-16 0-7-3-12-7-17-4-4-10-6-17-6-6 0-12 2-16 6-5 5-7 10-7 17 0 6 2 12 7 16 4 4 10 7 16 7m-20-48c-8 1-15 3-22 6-11 5-21 11-28 19 7 7 17 14 28 18 7 3 14 5 22 6-1 0-1-1-2-2-6-6-10-14-10-22 0-9 4-17 10-23 1 0 1-1 2-2m40 49c8-1 16-3 23-6 11-4 21-11 28-18-7-8-17-14-28-19-7-3-15-5-23-6 1 1 2 2 3 2 6 6 9 14 9 23 0 8-3 16-9 22-1 1-2 2-3 2m-65-51c13-5 29-8 45-8 17 0 32 3 46 8 14 6 26 14 34 24 1 1 1 4 0 5-8 10-20 18-34 24-14 5-29 8-46 8-16 0-32-3-45-8-14-6-26-14-34-24-1-1-1-3 0-5 8-10 20-18 34-24" fill="currentColor" fill-rule="nonzero"/></symbol><symbol id="ico_blog-message" viewBox="0 0 169 169"><path d="m130 67v-29c0-3-2-7-4-9-3-2-6-4-10-4h-91c-3 0-6 2-9 4-2 2-4 6-4 9v44c0 4 2 7 4 10 3 2 6 4 9 4h5v26l25-26h2 7v-12c0-5 2-9 5-12 3-3 8-5 12-5h49m-7 66h-42c-4 0-9-2-12-5-3-3-5-7-5-12v-12h-5l-23 24c-2 1-4 2-5 3-2 0-4 0-5 0-2-1-3-2-4-4 0-1-1-3-1-5v-18c-4-1-8-3-11-6-4-4-6-10-6-16v-44c0-6 2-11 6-15 4-4 10-6 15-6h91c6 0 12 2 16 6 4 4 6 9 6 15v29h10c4 0 9 2 12 5 3 3 5 7 5 12v32c0 5-2 9-5 12-2 2-5 4-8 4v13c0 2 0 3-1 4-1 2-2 3-3 3-2 1-3 1-5 0-1 0-2-1-4-2l-16-17m-42-9h45l17 18v-18h5c2 0 4-1 6-2 1-2 2-4 2-6v-32c0-3-1-5-2-6-2-2-4-3-6-3h-67c-2 0-4 1-6 3-1 1-2 3-2 6v32c0 2 1 4 2 6 2 1 4 2 6 2" fill="currentColor" fill-rule="nonzero"/></symbol><symbol id="ico_cite-infinity" viewBox="0 0 7200 2352"><path d="m5794 2103c53-12 66 28 29 91-37 62-109 124-161 136-466 114-1077-237-1740-618-109-63-219-126-330-188-142 73-286 148-433 225-224 117-454 236-685 353l-2 1c-210 103-404 155-579 168-225 17-419-32-574-120-153-87-269-214-338-355-41-84-65-173-72-263-5-60-1-119 11-176 34-171 137-337 319-474 147-112 342-188 587-206 168-13 368 1 600 48h3c435 85 885 307 1323 550 90-46 179-92 268-136-1353-737-2865-1501-3833-276-50 63-123 110-162 104-40-7-31-63 20-127 1211-1532 2856-649 4300 140 492-234 979-435 1491-579 117-33 237-55 353-64h1c220-17 430 13 602 105 171 91 303 244 367 473 19 69 32 144 39 224 9 117-8 221-45 312-75 184-212 315-388 404-129 65-279 99-436 111-344 27-737-53-977-150-362-148-757-363-1169-588-91 44-182 89-274 135 73 42 146 84 218 125 650 374 1248 718 1667 615m-2358-666c-397-215-803-405-1193-481-1 0-2-1-3-1-224-45-414-58-574-46-195 14-330 60-416 125-52 40-85 105-101 182-9 47-12 94-9 142 6 79 29 159 66 236 65 132 173 251 318 334 144 81 323 127 529 111 151-11 316-54 491-140 237-121 462-237 681-352l211-110m-1196-482c-35-10-23-66 27-128l-27 128m3470-328c-406 114-800 267-1195 446 365 199 715 385 1035 516 233 94 609 171 938 146 132-10 254-36 347-84 47-23 84-57 102-104 25-60 36-137 28-231-6-78-18-147-35-210-60-212-183-354-342-440-159-84-354-112-558-97h1c-106 8-214 28-321 58" fill="#f2784b" fill-rule="nonzero"/></symbol><symbol id="ico_cite-key" viewBox="0 0 9500 3918"><path d="m0 1646v614l3077 5c-201-216-179-427-1-617l-1678 6c0-476 0-1017 143-1267h-495v729c0 187-332 177-332-21l-6-708h-508c104 313 104 770 128 1267l-328-8m6769-1048c-209 351-338 832-338 1361 0 529 129 1011 338 1361 220 370 531 598 879 598 348 0 659-229 879-598 157-263 268-599 315-974 131 109 325 109 472 109-30-114-23-244-193-256-138-11-95-116 26-71 167 78 296-49 353-169-57-120-186-247-353-169-121 46-164-60-26-71 170-11 163-142 193-256-147 0-341 0-472 109-46-375-158-711-315-974-220-369-530-598-879-598-348 0-659 229-879 598m157 1350c3-232 38-451 105-657 23-64 37-141 43-231l3-435-5-36c162-214 362-341 576-341 213 0 412 126 575 339l-8 44 3 435c6 91 20 167 42 231 68 206 103 425 106 657v10c-3 232-38 451-106 657-21 64-36 140-42 231l-3 435 8 44c-163 213-362 339-575 339-215 0-416-129-579-345l8-45-3-435c-6-90-20-167-43-230-67-207-102-426-105-658v-9m-1892-373l10 804c32 101 102 151 210 150 112-17 177-77 195-180v-56c-1-17 20-26 60-26 42-2 64 5 67 22v83c15 32 40 49 75 52 47-4 74-26 80-67l2-71c5-13 27-20 66-20 38-2 58 7 57 29v119c0 55 21 102 62 141 37 34 77 53 120 58 49 5 89-2 119-22 69-38 107-95 114-174 0-624 0-936 0-936-9-73-44-127-105-162-27-19-63-28-108-29-59 4-108 26-145 66-37 36-56 78-57 125v122c0 29-20 42-63 37-45 2-65-10-60-34v-48c-5-44-31-70-79-77-46 3-72 26-80 71v63c0 19-20 27-60 25-40 4-62-8-65-34 0-28 0-42 0-42-10-71-44-124-102-157-42-26-91-35-145-25-57 14-102 44-134 90-21 25-32 59-34 103m-440 621c109 378 260 186 325 318 47-269-76-324-325-318m79-434c-208 0-194 384 0 384 102 0 222-52 300-192-78-140-198-192-300-192m246-368c-65 133-216-59-325 319 249 5 372-49 325-319m-284 119c-200 14-379 107-485 208-42 41-86 20-85-5-9-61 117-6 121-98-280 1-279 33-293 85l-23 63c181-9 175 166 286 161l163 4c99-2 184-78 212-224 19-123 74-175 104-194m-765 630l22 62c15 53 14 84 294 85-4-92-130-37-121-97-1-25 43-47 85-6 106 102 285 195 485 208-30-18-85-71-104-194-28-145-113-222-212-223l-163 3c-111-5-105 171-286 162m-356 64c83 92 86 82 346 82-23-85-56-149-102-151-105-8-72-88 19-53 126 59 222-41 265-131-43-90-139-189-265-130-91 34-124-45-19-53 46-3 79-66 102-152-260 0-263-10-346 83-35 44-75 94-117 117 77 35 141 80 191 135-50 55-114 100-191 136 42 23 82 72 117 117m-365-78c55 183 71 160 360 160-48-69-119-178-245-145-64 5-81-2-115-15m-89-175c57 268 373 64 448 3h6l-3-3 3-2h-6c-75-62-391-265-448 2m449-335c-290 0-305-23-360 161 34-13 51-20 115-15 126 33 197-76 245-146" fill="#f9690e"/></symbol><symbol id="ico_close" viewBox="0 0 271 271"><path d="m47 238c-4 4-10 4-14 0-4-4-4-10 0-14l88-89-88-88c-4-4-4-10 0-14 4-4 10-4 14 0l88 88 89-88c4-4 10-4 14 0 4 4 4 10 0 14l-88 88 88 89c4 4 4 10 0 14-4 4-10 4-14 0l-89-88-88 88" fill="currentColor" fill-rule="nonzero"/></symbol><symbol id="ico_contact-address" viewBox="0 0 169 169"><path d="m62 141h11v-39h6v39h11v-39h6v39h11v-51h-45v51m57-113h-68c-13 0-23 10-23 23 0 12 10 22 23 22 12 0 22-10 22-22 0-4-1-8-3-11l29-1c-2 4-3 8-3 12 0 12 10 22 23 22 12 0 22-10 22-22 0-13-10-23-22-23m-68 34c-6 0-11-5-11-11 0-6 5-12 11-12 6 0 11 6 11 12 0 6-5 11-11 11m68 0c-7 0-12-5-12-11 0-6 5-12 12-12 6 0 11 6 11 12 0 6-5 11-11 11m-57 23h45v-12h-45v12" fill="currentColor" fill-rule="nonzero"/></symbol><symbol id="ico_contact-fly" viewBox="0 0 169 169"><path d="m143 79c-29-12-50-22-66-29-30-13-38-17-44-17-5 0-7 3-8 4-3 4-3 9-1 13l21 35-21 34c-2 4-2 9 1 13 1 1 3 4 8 4 6 0 14-4 44-17 16-7 37-16 66-29 2-1 4-3 4-5 0-3-2-5-4-6m-109-34c5 1 17 6 39 16 10 5 24 11 41 18h-59l-21-34m38 64c-22 10-34 15-38 16l21-35h59c-17 8-31 14-42 19" fill="currentColor" fill-rule="nonzero"/></symbol><symbol id="ico_contact-messenger" viewBox="0 0 169 169"><path d="m51 141v-22h-11c-7 0-12-6-12-12v-68c0-6 5-11 12-11h90c6 0 11 5 11 11v68c0 6-5 12-11 12h-49l-30 22m58-83c0 4-3 7-7 7-4 0-7-3-7-7 0-4 3-7 7-7 4 0 7 3 7 7m-34 0c0 4-3 7-7 7-4 0-7-3-7-7 0-4 3-7 7-7 4 0 7 3 7 7m-16 21c4 10 14 17 26 17 11 0 21-7 26-17h-52m-19-40v68h22v12l15-12h53v-68h-90" fill="currentColor" fill-rule="nonzero"/></symbol><symbol id="ico_contact-tel" viewBox="0 0 4200 4200"><path d="m3758 2432h-884c-238 0-433 189-442 425-562-90-989-518-1085-1089 234-11 421-205 421-441v-885c0-243-198-442-441-442h-885c-244 0-442 199-442 442v1105c0 1463 1190 2653 2653 2653h1105c244 0 442-198 442-442v-884c0-244-198-442-442-442m-1105 1326c-1219 0-2211-991-2211-2211v-1105h885v885h-222c-59 0-116 23-157 65-42 43-64 100-64 159 16 1006 777 1765 1769 1765 122 0 221-99 221-221v-221h884v884h-1105" fill="currentColor" fill-rule="nonzero"/></symbol><symbol id="ico_form-close" viewBox="0 0 271 271"><path d="m47 238c-4 4-10 4-14 0-4-4-4-10 0-14l88-89-88-88c-4-4-4-10 0-14 4-4 10-4 14 0l88 88 89-88c4-4 10-4 14 0 4 4 4 10 0 14l-88 88 88 89c4 4 4 10 0 14-4 4-10 4-14 0l-89-88-88 88" fill="currentColor" fill-rule="nonzero"/></symbol><symbol id="ico_form-submit" viewBox="0 0 339 339"><g fill="currentColor" fill-rule="nonzero"><path d="m275 44c5-5 6-12 2-17-4-6-11-8-17-5l-231 114c-6 2-9 8-8 13 1 6 5 11 10 12l95 24c4 1 9-1 12-4l137-137"/><path d="m158 200c-4 4-5 9-4 13l24 94c1 6 6 10 11 11 6 0 11-3 14-8l113-231c3-6 1-13-4-17-5-4-13-3-17 1l-137 137"/></g></symbol><symbol id="ico_mark" viewBox="0 0 169 169">
    <path d="m38 64c0 28 27 65 45 87 19-22 46-59 46-87 0-21-14-38-33-43-4-2-8-2-13-2-24 0-45 20-45 45m45 16c11 0 20-9 20-20 0-10-9-19-20-19-10 0-19 9-19 19 0 11 9 20 19 20" fill-rule="evenodd" fill="currentColor"/>
</symbol><symbol id="ico_page-next" viewBox="0 0 169 169"><g fill="currentColor" fill-rule="nonzero"><path d="m35 33c-3-4-8-4-11 0-4 3-4 8 0 12l40 40-40 40c-4 3-4 8 0 12 3 3 8 3 12 0l46-46c3-4 3-9-1-12l-46-46"/><path d="m98 33c-3-4-9-4-12 0-3 3-3 8 0 12l40 40-40 40c-3 3-3 8 0 12 3 3 9 3 12 0l46-46c3-4 3-9 0-12l-46-46"/></g></symbol><symbol id="ico_page-prev" viewBox="0 0 169 169"><g fill="currentColor" fill-rule="nonzero"><path d="m132 33c3-4 9-4 12 0 3 3 3 8 0 12l-40 40 40 40c3 3 3 8 0 12-3 3-9 3-12 0l-46-46c-3-4-3-9 0-12l46-46"/><path d="m70 33c3-4 8-4 12 0 3 3 3 8 0 12l-40 40 40 40c3 3 3 8 0 12-4 3-9 3-12 0l-46-46c-4-4-4-9 0-12l46-46"/></g></symbol><symbol id="ico_scroll-up" viewBox="0 0 254 119">
    <g fill="currentColor" fill-rule="nonzero">
        <path d="m0 63l127-64 127 64v56l-127-63-127 63z"/>
    </g>

</symbol><symbol id="ico_search" viewBox="0 0 169 169"><path d="m75 118c12 0 22-5 30-13 8-7 12-18 12-30 0-11-4-22-12-30-8-7-18-12-30-12-12 0-23 5-30 12-8 8-13 19-13 30 0 12 5 23 13 30 7 8 18 13 30 13m75 18c4 4 4 11 0 14-4 4-10 4-14 0l-27-26c-9 7-21 11-34 11-17 0-31-7-42-18-11-10-18-25-18-42 0-16 7-31 18-42 11-10 25-17 42-17 16 0 31 7 42 17 11 11 17 26 17 42 0 13-4 25-11 35l27 26" fill="currentColor" fill-rule="nonzero"/></symbol><symbol id="ico_share-fb" viewBox="0 0 339 339"><path d="m118 140v36h29v89h37v-89h36v-36h-36v-19c0-6 4-11 7-11h29v-36h-29c-24 0-44 21-44 48v18h-29" fill="currentColor"/></symbol><symbol id="ico_share-google" viewBox="0 0 339 339"><path d="m177 223c0-22-22-39-49-39h-4c-1-2-2-5-2-8 0-3 1-8 2-8h1c22 0 41-18 41-41 0-5-3-12-5-15l14-8v-27l-30 17c-6-5-13-7-21-7-22 0-40 18-40 40 0 13 6 24 15 32-3 5-4 11-4 17 0 6 1 11 3 16-12 7-19 18-19 31 0 21 22 38 49 38 27 0 49-17 49-38m37-41v-32h-32v-14h32v-32h14v32h32v14h-32v32h-14m-70-55c0 11-9 19-19 19-10 0-19-8-19-19 0-10 9-19 19-19 10 0 19 9 19 19m6 96c0 8-10 14-22 14-12 0-22-6-22-14 0-9 10-15 22-15 12 0 22 6 22 15" fill="currentColor"/></symbol><symbol id="ico_share-tw" viewBox="0 0 339 339"><path d="m109 113v67c0 35 27 64 60 64h42c10 0 18-8 18-18 0-11-8-19-18-19h-41c-12 0-23-13-23-27v-11h64c10 0 18-8 18-18 0-11-8-19-18-19h-64v-19c0-10-8-18-19-18-10 0-19 8-19 18" fill="currentColor"/></symbol><symbol id="ico_share-vk" viewBox="0 0 339 339"><path d="m121 201c22 23 46 21 46 21h12c0 0 3 0 5-2 1-2 1-5 1-5 0 0 0-15 7-17 7-2 16 14 25 21 7 5 12 4 12 4l25-1c0 0 13-1 7-11 0-1-3-7-18-21-16-15-14-13 5-38 11-15 16-24 15-28-2-4-10-3-10-3h-28c0 0-2 0-4 1-1 1-2 3-2 3 0 0-5 12-11 22-12 21-17 22-19 21-5-3-4-13-4-19 0-21 3-30-6-32-3 0-5-1-13-1-10 0-19 0-24 2-3 2-5 5-4 6 2 0 6 1 9 4 2 4 2 13 2 13 0 0 2 24-4 27-3 2-9-2-20-22-5-10-10-20-10-20 0 0-1-3-2-4-2-1-4-1-4-1h-27c0 0-4 0-6 2-1 1 0 4 0 4 0 0 21 49 45 74" fill="currentColor"/></symbol><symbol id="ico_submit" viewBox="0 0 190 190"><g fill="currentColor" fill-rule="nonzero"><path d="m163 15c3-3 4-8 1-11-2-4-7-5-11-3l-148 73c-3 1-5 5-5 8 0 4 3 7 7 8l60 15c3 1 6 0 8-2l88-88"/><path d="m88 115c-3 2-3 5-3 8l15 61c1 3 4 6 8 6 4 1 7-1 9-5l72-148c2-4 1-8-2-11-4-2-8-2-11 1l-88 88"/></g></symbol><symbol id="ico_villa-bath" viewBox="0 0 10700 9364"><path d="m5684 1674c-246 0-446 199-446 446 0 246 200 445 446 445 247 0 446-199 446-445 0-247-199-446-446-446m5016 4012h-1003v-4458c0-738-428-1228-1166-1228h-3120l-61 983h668v-321h2452c246 0 558 320 558 566v4458l-9028 5v634l1003 30v446c0 842 551 1710 1337 1894l-334 669h669l334-669h4681l334 669h700l-365-669c787-184 1333-1051 1333-1676l5-664 1003 19v-688m-1672 1003c0 669-512 1337-1004 1337h-5349c-491 0-1003-734-1003-1225v-446h7356v334m-1561-1895c246 0 446-199 446-446 0-246-200-445-446-445-247 0-446 199-446 445 0 247 199 446 446 446m-3566 0c246 0 446-199 446-446 0-246-200-445-446-445-247 0-446 199-446 445 0 247 199 446 446 446m1783-891c-246 0-446 199-446 445 0 247 200 446 446 446 247 0 446-199 446-446 0-246-199-445-446-445m892-1115c-247 0-446 199-446 445 0 247 199 447 446 447 246 0 445-200 445-447 0-246-199-445-445-445m-1784 892c247 0 446-200 446-447 0-246-199-445-446-445-246 0-445 199-445 445 0 247 199 447 445 447" fill="currentColor" fill-rule="nonzero"/></symbol><symbol id="ico_villa-bed" viewBox="0 0 8700 7035"><path d="m8362 3515c-228-97-447-181-670-262l5-3247-671-6v1012h-5353v-1012h-652v3269c-347 126-669 244-876 342-157 74-145 240-145 413v3011h669v-1004h7362v1004h669v-3020c0-173-182-426-338-500m-1336-1731v1257c-725-198-1535-345-2341-356v-1003l2341 102m-5353-102h2343v1003c-756 33-1605 165-2344 379l1-1382m-1004 2342c1385-372 2008-670 3683-670 1671 0 2362 317 3679 670v1338h-7362v-1338" fill="currentColor" fill-rule="nonzero"/></symbol><symbol id="ico_villa-sea" viewBox="0 0 9500 9701">
    <path d="m2542 8911c669-406 1487-725 2401-925l2 7 362-80c606-110 1249-169 1915-169 401 0 792 22 1173 62v1225l-286-10h-5743c57-37 116-74 176-110m6296-3991l-3-14c-57-225-287-404-613-511-390-128-904-147-1448-28-543 120-1001 354-1302 634-252 235-385 494-341 723l3 11 298 1356c573-90 1173-138 1790-138 636 0 1254 51 1842 146v257 544 1801l-8542-8c382-552 933-1045 1611-1456 742-449 1641-801 2640-1022l-296-1347c-56-226-286-405-613-513-391-128-905-148-1448-28-543 120-1002 354-1302 634-251 233-385 492-342 720l3 14c16 301-474 492-654 144-294-1333-36-2657 616-3719 596-968 1520-1719 2656-2062l-4-14-140-636c-40-181 75-360 255-400 180-40 360 75 399 255l141 637 2 10c1191-181 2364 112 3325 749 1038 690 1828 1784 2122 3116 81 368-594 422-655 145m-434-1168c-344-632-830-1157-1403-1537-894-593-2004-839-3116-594-1112 245-2016 934-2579 1848-360 586-581 1267-627 1984 384-350 944-638 1593-781 660-145 1300-115 1800 48 211 69 399 162 557 277 94-170 225-334 388-485 384-358 953-654 1613-799 649-143 1278-117 1774 39" fill-rule="evenodd" fill="currentColor"/>
</symbol></svg>