<svg xmlns="http://www.w3.org/2000/svg" viewBox="0 0 656 679.6" enable-background="new 0 0 656 679.6"><g transform="translate(395.76 128)" fill="#deebdc" fill-rule="evenodd"><path d="m99.3 231.8c18-17.4 28.5-2.9 49.4 9.9-50 21.5-97.6 9.3-143.5-34.9 29.6-2.9 46.5 2.9 49.4 18.6 19.7-15.7 38.9-12.8 44.1 6.4h.6"/><path d="m81.3 192.3c-25.6 16.8-44.1-2.3-74.9 3.5 22.1-29.6 54.6-36 75.5-21.5 7.6-12.8 30.8-10.5 33.1 4.1 20.3-19.2 55.8-5.2 70.3 15.1-27.3-3.5-55.2 16.3-73.2-1.2-4.6 13.4-26.1 12.8-30.8-.6v.6"/><path d="m53.4 116.1c0 21.5-19.2 31.9-50 38.3 16.6-95.3 62.8-71.2 154-120.2-15.7 35.4-34.3 56.9-56.9 48.8 4.6 17.4-23.8 41.8-47.1 33.1"/><path d="m246.3 19.2c-16.8 41.2-40.1 68.5-70.3 79-4.1-3.5-8.1-6.4-12.8-7.6 6.4-34.3 29-62.2 63.3-85.4l-.6 8.1 8.1-6.4-1.2 10.5 8.7-5.8-2.9 10.5 7.6-2.3.1-.6"/><path d="m204.5 1.2c-1.2 25.6-36.6 42.4-44.7 87.7-.6 0-1.7-.6-2.3-.6-11.7-46.4 29.5-67.3 32.4-87.1l2.3 4.1 3.5-4.6 2.3 6.4 6.4-6.4v.5z"/><path d="m260.2 43.1c-20.3 43.6-45.3 64.5-79.6 59.8-.6-1.2-1.7-1.7-2.3-2.9 29.6-9.3 51.1-31.4 66.8-62.7 3.5-8.7 8.1-13.9 14.5-15.1l-6.4 8.7 7-2.3-5.8 8.7 5.8-1.2-4.6 6.4 4.6 1.2v-.6"/><path d="m0 172.6c61.6-79 124.9-29 152.8-70.9-5.2-10.5 23.2-7.6 18.6 3.5-30.2 61.6-111.5-2.9-167.9 70.3l-3.5-2.3v-.6"/></g><g fill="#757575"><path d="m308.2 315.6c-.6 0-1.3-.4-2-.8-.3-.2-.6-.4-1-.6l-.1-.1-.1-.1c-.9-1.2-.6-2.9-.1-4.1l.1-.1c1-1 2-.4 3.1.2.3.2.6.4 1 .6l.2.1c1.1 1.2 1.1 3 0 4.2-.3.5-.7.7-1.1.7m-2.5-2.2c.4.2.7.4 1 .5 1.2.7 1.5.8 1.9.4.7-.8.7-2 0-2.8-.4-.2-.7-.4-1-.5-1.2-.7-1.5-.8-1.9-.5-.3.9-.5 2.1 0 2.9"/><path d="m312.5 328.1c0 0 0 0 0 0-1.1 0-2.3-.7-3-1.4-.9-1.2-.6-2.9-.1-4.1l.1-.1c1-1 2-.4 3.1.2.3.2.6.4 1 .6l.2.1c1.1 1.2 1.1 3 0 4.2-.3.4-.8.5-1.3.5m-2.2-5c-.4.9-.6 2.2 0 3 .5.5 1.5 1.1 2.2 1.1.3 0 .5-.1.6-.2.7-.8.7-2 0-2.8-.4-.2-.7-.4-1-.5-1.1-.8-1.4-1-1.8-.6"/><path d="m321.7 334.4c-.6 0-1.3-.4-2-.8-.3-.2-.6-.4-1-.6l-.1-.1-.1-.1c-.9-1.2-.6-2.9-.1-4.1l.1-.1c.3-.3.8-.5 1.3-.5 1.1 0 2.3.7 3 1.4 1.1 1.2 1.1 3.1 0 4.3-.4.5-.7.6-1.1.6m-2.5-2.1c.4.2.7.4 1 .5 1.2.7 1.5.8 1.9.4.7-.8.7-2.1 0-2.9-.5-.5-1.5-1.1-2.2-1.1-.2 0-.4.1-.6.2-.4.8-.6 2.1-.1 2.9"/><path d="m326.9 344.3c0 0 0 0 0 0-1.1 0-2.3-.7-3-1.4-.9-1.2-.6-2.9-.1-4.1l.1-.1c1-1 2-.4 3.1.2.3.2.6.4 1 .6l.2.1c1.1 1.2 1.1 3 0 4.2-.3.3-.8.5-1.3.5m-2.2-5.1c-.4.9-.6 2.2 0 3 .5.5 1.5 1.1 2.2 1.1.3 0 .5-.1.6-.2.7-.8.7-2 0-2.8-.4-.2-.7-.4-1-.5-1.1-.8-1.5-.9-1.8-.6"/><path d="m319.9 344.3c-.6 0-1.3-.4-2-.8-.3-.2-.6-.4-1-.6l-.1-.1-.1-.1c-.9-1.2-.6-2.9-.1-4.1l.1-.1c.3-.3.8-.5 1.3-.5 1.1 0 2.3.7 3 1.4 1.1 1.2 1.1 3.1 0 4.3-.4.4-.7.6-1.1.6m-2.5-2.2c.4.2.7.4 1 .5 1.2.7 1.5.8 1.9.4.7-.8.7-2.1 0-2.9-.5-.5-1.5-1.1-2.2-1.1-.2 0-.4.1-.6.2-.4.9-.6 2.1-.1 2.9"/><path d="m312.7 336.2c-.6 0-1.3-.4-2-.8-.3-.2-.6-.4-1-.6l-.1-.1-.1-.1c-.9-1.2-.6-2.9-.1-4.1l.1-.1c1-1 2-.4 3.1.2.3.2.6.4 1 .6l.2.1c1.1 1.2 1.1 3 0 4.2-.3.6-.7.7-1.1.7m-2.5-2.2c.4.2.7.4 1 .5 1.2.7 1.5.8 1.9.4.7-.8.7-2 0-2.8-.4-.2-.7-.4-1-.5-1.2-.6-1.5-.8-1.9-.5-.3.9-.5 2.1 0 2.9"/><path d="m318.8 323.6c0 0 0 0 0 0-1.1 0-2.3-.7-3-1.4-.9-1.2-.6-2.9-.1-4.1l.1-.1c1-1 2-.4 3.1.2.3.2.6.4 1 .6l.2.1c1.1 1.2 1.1 3 0 4.2-.3.4-.8.5-1.3.5m-2.2-5c-.4.9-.6 2.2 0 3 .5.5 1.5 1.1 2.2 1.1.3 0 .5-.1.6-.2.7-.8.7-2 0-2.8-.4-.2-.7-.4-1-.5-1.1-.8-1.4-.9-1.8-.6"/><path d="m326.9 328.1c0 0 0 0 0 0-1.1 0-2.3-.7-3-1.4-.9-1.2-.6-2.9-.1-4.1l.1-.1c1-1 2-.4 3.1.2.3.2.6.4 1 .6l.2.1c1.1 1.2 1.1 3 0 4.2-.3.4-.8.5-1.3.5m-2.2-5c-.4.9-.6 2.2 0 3 .5.5 1.4 1.1 2.2 1.1.3 0 .5-.1.6-.2.7-.8.7-2 0-2.8-.4-.2-.7-.4-1-.5-1.1-.8-1.5-1-1.8-.6"/><path d="m331.5 337.1c-.6 0-1.3-.4-2-.8-.3-.2-.6-.4-1-.6l-.1-.1-.1-.1c-.9-1.2-.6-2.9-.1-4.1l.1-.1c1-1 2-.4 3.1.2.3.2.6.4 1 .6l.2.1c1.1 1.2 1.1 3 0 4.2-.3.6-.7.7-1.1.7m-2.4-2.2c.4.2.7.4 1 .5 1.2.7 1.5.8 1.9.4.7-.8.7-2 0-2.8-.4-.2-.7-.4-1-.5-1.1-.6-1.5-.8-1.9-.5-.3.9-.5 2.1 0 2.9"/><path d="m338.5 347.9c0 0 0 0 0 0-1.1 0-2.3-.7-3-1.4-.9-1.2-.6-2.9-.1-4.2l.1-.1c1-1 2-.4 3.1.2.3.2.6.4 1 .6l.2.1c1.1 1.2 1.1 3 0 4.2-.3.4-.7.6-1.3.6m-2.2-5.1c-.4.9-.6 2.2 0 3 .5.5 1.5 1.1 2.2 1.1.3 0 .5-.1.6-.2.7-.8.7-2 0-2.8-.4-.2-.7-.4-1-.5-1-.8-1.4-.9-1.8-.6"/><path d="m334 354.2c-1.1 0-2.3-.7-3-1.4-.9-1.2-.6-2.9-.1-4.1l.1-.1c1-1 2-.4 3.1.2.3.2.6.4 1 .6l.2.1c1.1 1.2 1.1 3 0 4.2-.3.3-.7.5-1.3.5m-2.2-5.1c-.4.9-.6 2.2 0 3 .5.5 1.5 1.1 2.2 1.1.3 0 .5-.1.6-.2.7-.8.7-2 0-2.8-.4-.2-.7-.4-1-.5-1-.8-1.4-.9-1.8-.6"/><path d="m325.2 356.9c-.6 0-1.3-.4-2-.8-.3-.2-.6-.4-1-.6l-.1-.1-.1-.1c-.9-1.2-.6-2.9-.1-4.1l.1-.1c1-1 2-.4 3.1.2.3.2.7.4 1 .6l.2.1c1.1 1.2 1.1 3 0 4.2-.3.5-.7.7-1.1.7m-2.4-2.2c.4.2.7.4 1 .5 1.2.7 1.5.8 1.9.4.7-.8.7-2 0-2.8-.4-.2-.7-.4-1-.5-1.2-.6-1.5-.8-1.9-.5-.3.9-.5 2.1 0 2.9"/><path d="m317.2 354.2c-.6 0-1.3-.4-2-.8-.3-.2-.6-.4-1-.6l-.1-.1-.1-.1c-.9-1.2-.6-2.9-.1-4.1l.1-.1c.3-.3.8-.5 1.3-.5 1.1 0 2.3.7 3 1.4 1.1 1.2 1.1 3.1 0 4.3-.3.4-.7.6-1.1.6m-2.5-2.2c.4.2.7.4 1 .5 1.2.7 1.5.8 1.9.4.7-.8.7-2.1 0-2.9-.5-.5-1.5-1.1-2.2-1.1-.2 0-.4.1-.6.2-.4.9-.6 2.1-.1 2.9"/><path d="m308.2 347.9c-.6 0-1.3-.4-2-.8-.3-.2-.7-.4-1-.6l-.1-.1-.1-.1c-.9-1.2-.6-2.9-.1-4.1l.1-.1c1-1 2-.4 3.1.2.3.2.6.4 1 .6l.2.1c1.1 1.2 1.1 3 0 4.2-.3.5-.7.7-1.1.7m-2.5-2.2c.4.2.7.4 1 .5 1.2.7 1.5.8 1.9.4.7-.8.7-2 0-2.8-.4-.2-.7-.4-1-.5-1.2-.7-1.5-.8-1.9-.5-.3.9-.5 2.1 0 2.9"/><path d="m316.3 313.8c-.6 0-1.3-.4-2-.8-.3-.2-.6-.4-1-.6l-.1-.1-.1-.1c-.9-1.2-.6-2.9-.1-4.1l.1-.1c.3-.3.8-.5 1.3-.5 1.1 0 2.3.7 3 1.4 1.1 1.2 1.1 3.1 0 4.3-.3.4-.7.6-1.1.6m-2.5-2.2c.4.2.7.4 1 .5 1.2.7 1.5.8 1.9.4.7-.8.7-2.1 0-2.9-.5-.5-1.5-1.1-2.2-1.1-.2 0-.4.1-.6.2-.4.9-.6 2.1-.1 2.9"/><path d="m324.3 316.5c-.6 0-1.3-.4-2-.8-.3-.2-.6-.4-1-.6l-.1-.1-.1-.1c-.9-1.2-.6-2.9-.1-4.1l.1-.1c.3-.3.8-.5 1.3-.5 1.1 0 2.3.7 3 1.4 1.1 1.2 1.1 3.1 0 4.3-.3.4-.7.6-1.1.6m-2.4-2.2c.4.2.7.4 1 .5 1.2.7 1.5.8 1.9.4.7-.8.7-2.1 0-2.9-.5-.5-1.5-1.1-2.2-1.1-.2 0-.4.1-.6.2-.4.9-.6 2.1-.1 2.9"/><path d="m332.4 322.7c-.6 0-1.3-.4-2-.8-.3-.2-.6-.4-1-.6l-.1-.1-.1-.1c-.9-1.2-.6-2.9-.1-4.1l.1-.1c1-1 2-.4 3.1.2.3.2.6.4 1 .6l.2.1c1.1 1.2 1.1 3 0 4.2-.3.6-.7.7-1.1.7m-2.4-2.1c.4.2.7.4 1 .5 1.2.7 1.5.8 1.9.4.7-.8.7-2 0-2.8-.4-.2-.7-.4-1-.5-1.2-.6-1.5-.8-1.9-.5-.3.9-.5 2.1 0 2.9"/><path d="m337.8 329.9c-.6 0-1.3-.4-2-.8-.3-.2-.6-.4-1-.6l-.1-.1-.1-.1c-.9-1.2-.6-2.9-.1-4.1l.1-.1c.3-.3.8-.5 1.3-.5 1.1 0 2.3.7 3 1.4 1.1 1.2 1.1 3.1 0 4.3-.3.5-.7.6-1.1.6m-2.4-2.1c.4.2.7.4 1 .5 1.2.7 1.5.8 1.9.4.7-.8.7-2.1 0-2.9-.5-.5-1.5-1.1-2.2-1.1-.2 0-.4.1-.6.2-.4.8-.7 2.1-.1 2.9"/><path d="m339.6 339.8c-.6 0-1.3-.4-2-.8-.3-.2-.6-.4-1-.6l-.1-.1-.1-.1c-.9-1.2-.6-2.9-.1-4.1l.1-.1c.3-.3.8-.5 1.3-.5 1.1 0 2.3.7 3 1.4 1.1 1.2 1.1 3.1 0 4.3-.3.4-.7.6-1.1.6m-2.4-2.2c.4.2.7.4 1 .5 1.2.7 1.5.8 1.9.4.7-.8.7-2.1 0-2.9-.5-.5-1.5-1.1-2.2-1.1-.2 0-.4.1-.6.2-.4.9-.7 2.1-.1 2.9"/><path d="m302.8 320.9c-.6 0-1.3-.4-2-.8-.3-.2-.6-.4-1-.6l-.1-.1-.1-.1c-.9-1.2-.6-2.9-.1-4.1l.1-.1c.3-.3.8-.5 1.3-.5 1.1 0 2.3.7 3 1.4 1.1 1.2 1.1 3.1 0 4.3-.3.5-.7.6-1.1.6m-2.4-2.1c.4.2.7.4 1 .5 1.2.7 1.5.8 1.9.4.7-.8.7-2.1 0-2.9-.5-.5-1.5-1.1-2.2-1.1-.2 0-.4.1-.6.2-.4.9-.7 2.1-.1 2.9"/><path d="m302.8 339.8c-.6 0-1.3-.4-2-.8-.3-.2-.6-.4-1-.6l-.1-.1-.1-.1c-.9-1.2-.6-2.9-.1-4.1l.1-.1c1-1 2-.4 3.1.2.3.2.6.4 1 .6l.2.1c1.1 1.2 1.1 3 0 4.2-.3.5-.7.7-1.1.7m-2.4-2.2c.4.2.7.4 1 .5 1.2.7 1.5.8 1.9.4.7-.8.7-2 0-2.8-.4-.2-.7-.4-1-.5-1.2-.6-1.5-.8-1.9-.5-.3.9-.6 2.1 0 2.9"/><path d="m300.8 329.9c0 0 0 0 0 0-1.1 0-2.3-.7-3-1.4-.9-1.2-.6-2.9-.1-4.1l.1-.1c1-1 2-.4 3.1.2.3.2.6.4 1 .6l.2.1c1.1 1.2 1.1 3 0 4.2-.3.3-.7.5-1.3.5m-2.2-5c-.4.9-.6 2.2 0 3 .5.5 1.5 1.1 2.2 1.1.3 0 .5-.1.6-.2.7-.8.7-2 0-2.8-.4-.2-.7-.4-1-.5-1-.8-1.4-1-1.8-.6"/></g></svg>