<svg xmlns="http://www.w3.org/2000/svg" height="679.61" viewBox="0 0 656 679.605" xmlns:xlink="http://www.w3.org/1999/xlink"><defs><path id="0" d="m.673.372c.9-.9 1.8 0 3.59.9a2.73 2.73 0 0 1 0 3.59c-.9.9-1.8 0-3.59-.9a2.73 2.73 0 0 1 0 -3.59" stroke-miterlimit="22.926" fill-rule="evenodd" stroke="#757575" fill="none"/><path id="1" d="m.673.372c.9-.9 2.693 0 3.59.9a2.73 2.73 0 0 1 0 3.59c-.9.9-1.8 0-3.59-.9a2.73 2.73 0 0 1 0 -3.59" stroke-miterlimit="22.926" fill-rule="evenodd" stroke="#757575" fill="none"/><path id="2" d="m.673.372c.9-.9 1.8 0 3.59.9a2.73 2.73 0 0 1 0 3.59c-.9.9-2.693 0-3.59-.9a2.73 2.73 0 0 1 0 -3.59" stroke-miterlimit="22.926" fill-rule="evenodd" stroke="#757575" fill="none"/></defs><g transform="translate(0 .648)"><g transform="translate(395.76 128)" fill="#deebdc" fill-rule="evenodd"><path d="M94.1,25.7c18.007-17.426,28.463-2.9,49.375,9.875C93.522,57.066,45.89,44.868,0,.721c29.625-2.9,46.471,2.9,49.375,18.588C69.125,3.625,88.294,6.53,93.522,25.7Z" transform="translate(5.228 205.49)"/><path d="M74.934,26.352C49.375,43.2,30.787,24.028,0,29.837,22.074.212,54.6-6.177,75.515,8.345c7.551-12.779,30.787-10.456,33.11,4.066,20.331-19.169,55.765-5.228,70.287,15.1-27.3-3.485-55.184,16.265-73.191-1.162-4.647,13.36-26.14,12.779-30.787-.581Z" transform="translate(6.39 165.34)"/><path d="m49.956 81.9c0 21.493-19.17 31.948-49.956 38.34 16.555-95.38 62.735-71.27 153.93-120.24-15.684 35.434-34.27 56.926-56.927 48.794 4.647 17.426-23.816 41.824-47.05 33.11" transform="translate(3.485 33.575)"/><path d="m83.07 13.941c-16.846 41.24-40.08 68.54-70.29 79-4.066-3.485-8.132-6.39-12.779-7.551 6.39-34.27 29.04-62.16 63.32-85.39l-.581 8.132 8.132-6.39-1.161 10.458 8.713-5.81-2.9 10.456 7.551-2.324" transform="translate(163.23 4.647)"/><path d="M49.109.581c-1.162,25.559-36.6,42.4-44.728,87.713-.581,0-1.743-.581-2.323-.581C-9.56,41.243,31.682,20.331,34.587.581L36.91,4.647,40.4,0l2.323,6.39L49.109,0Z" transform="translate(155.36)"/><path d="M81.9,20.912C61.574,64.478,36.6,85.39,2.324,80.743,1.743,79.581.581,79,0,77.838,29.625,68.544,51.118,46.471,66.8,15.1,70.287,6.39,74.934,1.162,81.324,0l-6.39,8.713L81.9,6.39,76.1,15.1,81.9,13.941l-4.647,6.39L81.9,21.493Z" transform="translate(178.33 21.493)"/><path d="m0 77.36c61.57-79 124.89-29.04 152.77-70.868-5.228-10.456 23.24-7.551 18.588 3.485-30.21 61.57-111.53-2.904-167.87 70.29l-3.485-2.323" transform="translate(0 94.58)"/></g><g transform="translate(72)"><g transform="translate(225.55 307.39)"><use transform="translate(7.181 1.795)" xlink:href="#0"/><path d="m.673.372c.9-.9 1.8 0 3.59.9a2.73 2.73 0 0 1 0 3.59c-.9.9-2.693 0-3.59-.9a2.73 2.73 0 0 1 0 -3.59" transform="translate(11.668 14.361)" fill="none" stroke="#757575" stroke-miterlimit="22.926" fill-rule="evenodd"/><use transform="translate(20.644 20.644)" xlink:href="#1"/><path d="m.673.372c.9-.9 1.8 0 3.59.9a2.73 2.73 0 0 1 0 3.59c-.9.9-2.693 0-3.59-.9a2.73 2.73 0 0 1 0 -3.59" transform="translate(26.03 30.517)" fill="none" stroke="#757575" stroke-miterlimit="22.926" fill-rule="evenodd"/><use transform="translate(18.849 30.517)" xlink:href="#1"/><use transform="translate(11.668 22.439)" xlink:href="#0"/><use transform="translate(17.951 9.873)" xlink:href="#2"/><use transform="translate(26.03 14.361)" xlink:href="#2"/><use transform="translate(30.517 23.337)" xlink:href="#0"/><use transform="translate(37.698 34.11)" xlink:href="#2"/><use transform="translate(33.21 40.39)" xlink:href="#2"/><use transform="translate(24.23 43.08)" xlink:href="#0"/><use transform="translate(16.16 40.39)" xlink:href="#1"/><use transform="translate(7.181 34.11)" xlink:href="#0"/><use transform="translate(15.259)" xlink:href="#1"/><use transform="translate(23.337 2.693)" xlink:href="#1"/><use transform="translate(31.415 8.976)" xlink:href="#0"/><use transform="translate(36.8 16.16)" xlink:href="#1"/><use transform="translate(38.596 26.03)" xlink:href="#1"/><use transform="translate(1.795 7.181)" xlink:href="#1"/><use transform="translate(1.795 26.03)" xlink:href="#0"/><use transform="translate(0 16.16)" xlink:href="#2"/></g><g fill="none" stroke="#757575" fill-rule="evenodd" stroke-miterlimit="22.926"><path d="m58.37 585.11c-75.4-141.82-78.986-275.55-3.59-389.55 14.361-21.542 32.32-41.29 42.19-67.32 14.361 11.668 17.951 53.854-5.385 84.37-42.18 100.53 28.722 168.74-12.567 225.29-7.181 8.976-13.464.9-1.8-12.566 9.882-12.566 7.182-51.16-7.175-115.79-5.385-23.337-21.542-6.283-.9.9 12.566 4.488 22.439-13.464 28.722-44.879 8.976-40.39-19.747-33.21-2.693 0 19.747 38.6 81.68 123.87 151.69 124.76 17.05 0 33.21-7.181 36.8-19.747.9-3.59-2.693-4.488-5.385-3.59-11.668 3.59-1.8 9.873 4.488-2.693 6.283-13.464 1.8-29.62-5.385-42.19a71.091 71.091 0 0 0 -46.674 -35.005c-14.361-2.693-25.13 1.8-32.31 14.361-16.16 34.11 27.825 78.986 61.932 78.986 16.16 0 10.771-15.259 1.8-9.873-5.385 2.693-8.976 6.283-13.464 8.08a26.208 26.208 0 0 1 -8.078 1.8c-13.464 1.8-26.03-4.488-34.11-9.873-78.987-45.782-213.62-248.63-195.67-323.13 5.385-21.542 17.05-36.8 35.01-43.981a64.757 64.757 0 0 1 81.679 38.6c1.8 6.283-1.8 5.385-4.488.9-12.563-20.651-27.821-32.32-47.568-23.343-49.37 22.439-1.8 127.45 28.722 92.45 12.566-13.464 3.59-47.571-10.771-53.854-12.566-5.386-16.16 8.08-13.463 17.951 2.693 8.08 8.08 15.259 14.361 13.464 9.873-2.693 6.283-21.542-3.59-27.825-1.8 1.8-1.8 5.385 1.8 8.976s3.59 9.873.9 12.566c-35.01-12.568-54.759 32.31-13.471 55.649-40.39 9.873-84.37-73.6-50.26-113.09"/><path d="m0 0c14.361 5.385 29.62 16.16 44.879 31.415" transform="translate(177.75 245.83)"/><path d="m159.06 236.96c31.415-19.747 47.571-60.14 48.47-122.07-18.849 8.976-25.13 26.927-25.13 45.776-13.464 12.566-21.542 25.13-25.13 36.8-8.08 1.8-15.259 3.59-21.542 6.283-8.976 3.59-16.16 9.873-22.439 17.05-5.385 8.08-2.693 11.668 5.385 5.385 6.283-6.283 10.771-14.361 16.16-23.337 19.747-35.9 31.415-88.86 33.21-153.49-19.747 8.976-26.03 29.62-24.23 52.957-11.668 12.566-17.951 27.825-17.951 44.879-16.16 19.747-25.13 33.21-28.722 41.29-2.693 5.385.9 8.08 4.488 2.693 26.926-39.492 33.21-102.32 20.643-191.18-18.849 17.05-23.336 42.19-17.05 67.32-8.976 21.542-13.464 43.982-14.362 67.32q-18.848 25.58-24.23 40.39c-3.59 8.976 1.8 11.668 6.283 2.693 25.13-52.957 20.644-105.91-14.361-157.97-14.361 24.23-5.385 47.571.9 63.728-1.8 15.259-4.488 28.722-8.976 41.29a123.034 123.034 0 0 1 -9.873 27.825c-24.23 45.776-76.29-20.644-2.693 15.259 32.31 15.253 53.852 100.53 94.24 106.81 96.94 4.488 67.32-67.32 1.8 1.8-67.32 70.01-144.51 222.6-59.24 281.84" transform="translate(101.26 48.36)"/><path d="m35.8 0c-37.7 4.488-29.623 39.493 8.973 31.415 12.566-2.693 6.283-14.361-10.773-9.873-43.08 12.566-51.16 74.5 10.773 59.24 22.439-5.385 8.08-24.23-7.181-13.464-51.16 37.7-22.439 88.86 22.439 63.728 19.747-10.771 7.181-35.9-17.951-2.693-46.674 61.03 12.566 132.84 72.7 87.06 38.6-28.722-6.283-53.854-32.31-7.181-38.6 69.11 52.06 72.7 96.04 15.259 18.849-25.13 43.981-50.26 64.62-65.52m5.385-2.693c28.722-17.951 55.649-17.05 75.4 8.976" transform="translate(187.73 388.54)"/><path d="M18.359,21.542C13.871,8.078-1.388,7.181,13.871,34.108c5.385,8.976,12.566,15.259,17.054,12.566,7.181-4.488-4.488-33.21-17.951-42.186C-.49-3.59-2.285,16.156,2.2,26.927A30.332,30.332,0,0,0,7.588,37.7,232.891,232.891,0,0,0,25.539,65.523c38.6,59.24,61.932,88.86,70.908,88.86,1.8-17.054-52.957-124.762-68.215-142.714A33.007,33.007,0,0,0,13.871,0" transform="translate(403.53 524.08)"/></g></g><circle cx="60" cy="60" r="60" transform="translate(0 328)" fill="#131313"/></g></svg>