<svg xmlns="http://www.w3.org/2000/svg" width="1920.53" height="802.19" viewBox="0 0 1920.526 802.188"><g transform="translate(1.458-2203.34)" fill="none" stroke="#757575"><path d="m8-88s258 586 1352 56c482-216 488-150 512-80 28.36 130.46-162.64 265.57-355.32 414.79s-442.44-148.35 411.32-30.787" transform="translate(-9 2659.31)"/><g transform="translate(1279 2207.85)" fill-rule="evenodd" stroke-miterlimit="22.926"><path d="m207.43 266.8c32.98 32.97 47.9 297.51-49.47 244.13-33.765-25.12-15.7-70.65 35.34-29.83 51.825 47.884 86.37 80.85 95.8 106.76 18.845 51.809-49.47 56.52-34.55-13.345 15.7-73 91.87-146.01 215.94-220.58-52.61-45.529-77.74-101.26-113.07-159.35-11.778-33.755-65.959-33.755-97.37-62.8.785 31.4 18.845 46.31 53.4 44.744-39.26-7.06-87.95-22.765-145.27-45.529 1.57 19.625 13.349 36.894 44.758 43.959 21.2 18.06 54.18 14.915 102.86 5.495 23.557-7.06 36.906-7.85 41.617-3.14 22.772 47.1 64.39 105.19 124.07 175.05 92.66 90.27 140.56 58.874 139.77 10.2 0-29.05-29.05-58.874-65.959-46.31-94.23 32.97-87.16 217.44-71.46 300.65 8.637 45.529 43.973 30.615 30.624-14.915-22.772-75.36-48.684-182.9-186.1-197.82l-65.18-55.724c-22.772-36.894-52.61-63.58-76.17-71.43-20.416 0-39.26-3.925-55.751-11.775 13.349-11.775 29.839-18.06 44.758-20.41m58.11 8.635c22.773 8.635 47.11 22.765 61.25 34.542 27.483 25.9 10.993 40.819-3.926 4.71-3.926-9.42-3.926-25.12 0-31.4 14.13-23.55 32.98-10.2 2.356 3.14-5.5 1.57-14.919-2.355-10.993-11.775-4.711 5.495-14.13 3.925-16.49-3.14-33.765 10.2-87.95-1.57-114.64-13.345-32.19 1.57-53.4-16.485-59.677-43.959 76.952 25.12 164.9 20.41 244.99-12.56-80.88 15.7-138.99 18.06-186.1 8.635m-18.846-3.925c-9.423-2.355-15.7-3.925-23.557-7.06 0 11.775 5.5 19.625 17.275 24.335m76.17 62.8c-22.772-2.355-22.772 45.529-18.06 87.13 3.141 40.819-5.5 58.874-14.919 61.23-18.06 4.71-25.913-38.464-4.711-40.03" transform="translate(-47.24-60.35)"/><path d="m134.72 185.44c-34.55-47.1-69.885-95.77-99.72-144.44a1637.419 1637.419 0 0 1 117 146.008m31.409 43.174a133.18 133.18 0 0 1 7.852 10.99c10.993 14.915 1.57 21.98-10.208 7.06-6.282-7.85-11.778-15.7-17.275-23.55" transform="translate(-35-41)"/><path d="m218.83 290.19c-1.57-3.14 0-3.925 3.141-1.57 7.852 7.85 10.993 13.345 9.423 14.915-3.926 2.355-11.778-10.99-12.564-13.345" transform="translate(-74.35-93.95)"/></g></g></svg>