<svg xmlns="http://www.w3.org/2000/svg" viewBox="0 0 737 737">
    <defs>
        <style>
            .cls-4{fill:none}.cls-3{fill:#e49173}.cls-3,.cls-5,.cls-7{fill-rule:evenodd}.cls-4{stroke:#b5684c;stroke-linecap:round;stroke-linejoin:round;stroke-width:2px}.cls-5,.cls-6{fill:#29304d}.cls-7{fill:#b5684c}
        </style>
    </defs>
    <g>
        <path fill="none" d="M.5.5h736v736H.5z"/>
        <path class="cls-3"
              d="M692.5 184c-1.63.3-4.68-.64-4.1-5.65 1.75-7.45 11.17-43.72-3.72-37.45-.3 14.38-12.48 31.37-14.61 50.33q-1.44 17.06-18.83 31.84c-41.58 35.34-191 84.53-244.25 97.61l-14.41-60.87-33.44 27.05-11.33 46.5C216.67 357.33 94.56 350.89 91 272.31c17.81-18 3-41.72 36.69-47.43-10.92-14.78-28.53 4.43-36.6 7.12-3.89-15.39-19.79-53.2-27.72-60.27-5.43-5-9.84 2.29-.47 16.67 6.58 17.4 7.29 25.26 9.68 31.14-12.51 2.81-28.56 13.56-32.43 36C40.35 353 120.39 402.42 251 402.25c30.15 3.58 29.85 12.78 41.66 25.64C340.51 478 436 468 483.8 370.61c5.57-10.56 13.59-22.56 28.16-28.75 37.04-20.79 180.51-49.23 210.31-116.47l2.56-43.63c-13.2-1.51-24-.9-32.33 2.24z"/>
        <path class="cls-3"
              d="M385.08 280.54c5.43-9.67 8.93-24.57 10.86-39.24 8.07-36.67-27.46-51.19-44.19-35.44-9.3 10.58-16.46 41.12-16.66 69.31-.27 36.43 31.36 38.52 49.99 5.37z"/>
        <path class="cls-3"
              d="M343.87 246.11q6.5-5.06 0-10.1-9.36 7.4-24.53 1.44c-2.88 0-3.6 4-.36 6.13q13.5 7.28 24.89 2.53z"/>
        <path class="cls-4" d="M359 259.52q-6.09 7.53-16.23 4"/>
        <path class="cls-5"
              d="M385.36 212c-4.61 15.48 8.55 17.13-2.06 35.48 40.38 7 40.78-54.55 10.34-50.94-2.24-12.38-28.82-24.3-46-7-25.64 31.62 35.2 24.31 37.72 22.46z"/>
        <ellipse class="cls-6" cx="340.8" cy="228.28" rx="2.53"
                 ry="4.15" transform="rotate(-12.35 340.961 228.35)"/>
        <ellipse class="cls-6" cx="354.8" cy="232.34" rx="2.9"
                 ry="4.76" transform="rotate(-12.35 354.966 232.436)"/>
        <path class="cls-5"
              d="M351.72 217c10 .19 17.66 5 13.46 13.4q-3-7.75-11.9-7.93c-.98-.85-1.72-3.97-1.56-5.47z"/>
        <path class="cls-5"
              d="M347.32 216.06c-3.92.85-6.91.94-10 2.4 1.69 3.58 5 3 8.51 2.62 1.03-.57 1.89-3.58 1.49-5.02z"/>
        <path class="cls-3"
              d="M383.78 249.66c12.52-22.79 23.09-28.86 26.33-17.68 1.38 9.73-5.25 19.58-21 30.29z"/>
        <path class="cls-4"
              d="M398.34 240.76c-6.13 1.8-9 7.09-12.26 16.95"/>
        <path class="cls-4"
              d="M318.57 243.28c8.84 5.94 18.58 5.42 28.06 2"/>
        <path class="cls-4"
              d="M73.25 264.87q-5.11-26 17.88-32.87a46.23 46.23 0 008.4-4.86"/>
        <path class="cls-7"
              d="M352.59 313.72q13.91-10.67 52.67-.33l-12.69-53.58c-1.91 7.94-4.39 15.19-7.5 20.72-8.72 15.53-20.3 23.33-30.12 23.48z"/>
        <path class="cls-7"
              d="M701 233.35c-14.4 15.66-30.12 26.94-46.93 33.2-90.72 41-148.41 50.82-167.52 80.59q-13.37 22.11-13.12 42.18a205.63 205.63 0 0010.41-18.7Q495 348.84 512 341.87a508.28 508.28 0 0158.53-22.45A629.8 629.8 0 00658.89 283c10.42-5.18 47.5-23 63.39-57.55l2.55-43.63q-19.1-2.31-31.54 1.95 5.52 28.58-20.6 38.66 10.84 8.42 28.26 11zM248 399.74q-139.6-5.06-183.58-85.45-17.93-39.84-15.89-78.74a46.63 46.63 0 00-8.28 20c.1 97.45 80.14 146.87 210.75 146.7 19.06 2.26 26 6.77 31.43 13q-6.81-15.34-34.45-15.54z"/>
    </g>
</svg>