<svg xmlns="http://www.w3.org/2000/svg" viewBox="0 0 737 737">
    <defs>
        <style>
            .cls-1{fill:#fff;stroke:#000;stroke-miterlimit:10;}.cls-2,.cls-3,.cls-4,.cls-7{fill:none;}.cls-3,.cls-4{stroke:#29304d;}.cls-3,.cls-4,.cls-7{stroke-linecap:round;stroke-linejoin:round;}.cls-3{stroke-width:5.4px;}.cls-4{stroke-width:3px;}.cls-5{fill:#29304d;}.cls-5,.cls-6{fill-rule:evenodd;}.cls-6{fill:#e49173;}.cls-7{stroke:#b5684c;stroke-width:2px;}
        </style>
    </defs>
    <g>
        <g>
            <rect class="cls-3" x="74.36" y="73.19"
                  width="617.22" height="343.65" rx="16.63"
                  transform="translate(-42.43 84.61) rotate(-11.95)"/>
            <line class="cls-4" x1="653" y1="29.94" x2="48.92"
                  y2="157.59"/>
            <path class="cls-5"
                  d="M49,157.57,652.9,30a19.49,19.49,0,0,0-22.51-13.07L64.32,136.51A19.5,19.5,0,0,0,49,157.57ZM619.47,31.91a4.25,4.25,0,1,1,3.28-5.05h0A4.26,4.26,0,0,1,619.47,31.91Zm-17.9,3.78a4.25,4.25,0,1,1,3.28-5h0a4.26,4.26,0,0,1-3.28,5Zm-17.9,3.78a4.25,4.25,0,1,1,3.28-5h0a4.25,4.25,0,0,1-3.27,5Z"/>
        </g>
        <g>
            <path class="cls-6"
                  d="M61.34,260.43C44,261.38,12.55,253.49,13.58,232q6.51-1.11,10.06,6.25,5.77,6.12,11.46,6.75-.26-16.62-1.11-21c4.67-10.09,8-26,9.17-36.77,8.53-1.93,10.6,9.68,7.09,24.45,1.23-.15,2.57-.35,4-.59,10.42-7.8,24-27.49,31.21-39.14,7,6.07,6.92,15.89-.13,21.59-1.4,2.83-7.62,10.84-9,12.62,11.91-3.06,16.84-6.12,30.27-10.4,2.72,5.71-1.3,11.92-6.36,14.55-10.86,5.34-23.09,13-38.71,14.89Z"/>
            <path class="cls-7"
                  d="M23.64,238.26q10.68,9.65,20.78,6.64"/>
            <path class="cls-7"
                  d="M50.71,191.55a35.89,35.89,0,0,1,0,18.15c-.58,3.24-5.39,10.29-1.12,14.91q8.3,7.86,26.84-18.47a129.62,129.62,0,0,0,9-12.62q10.53-9.6.13-21.59"/>
            <path class="cls-7"
                  d="M47.91,221.18a19.24,19.24,0,0,1-.69,9.55"/>
        </g>
        <g>
            <g>
                <g>
                    <path class="cls-6"
                          d="M727.94,175.49c-30.35-6.3-52.24-12.47-62.74-19.56-8.05,20.43,46,29.07,58.31,29.75C730.21,185.44,732.71,178.1,727.94,175.49Z"/>
                    <path class="cls-6"
                          d="M727.76,199.86c5.93-1.45,5.66-11.29-.12-14.42L693,178a236.37,236.37,0,0,1-34-1.94c.38,9.6,4.76,12.34,12.11,13.93,9.42,2,18.81.08,18.92.18C701.09,196.29,713.66,200.36,727.76,199.86Z"/>
                    <path class="cls-6"
                          d="M723.81,212.35q9.8-3,4-12.49-23.26.39-35.16-3.57-19.68,3.24-32.09,2.23c-3.31,6.66,3.33,10,9,10.37q14.87.93,24.86-1.11,12.11,6.38,29.42,4.57Z"/>
                    <path class="cls-6"
                          d="M724.57,212.1c6.49,2,6.07,13.62-.39,13.88-9.84,1.6-19.68-1.56-29.2-4.23a45.72,45.72,0,0,1-28-5c-2.7-2.1-1.22-6.3,1.75-6.14,14.8,2.3,31.42,2.72,55.87,1.49Z"/>
                </g>
                <path class="cls-7"
                      d="M720.73,212.61q-11.33,2.12-26.34-4.83a98.12,98.12,0,0,1-24.86,1.12"/>
                <path class="cls-7"
                      d="M727.64,185.44q-28.54-5.79-36.93-8.33Q679,178.9,659,176.06q-1.05,17.92,31,14.11c9,4.78,19,8.65,29.17,9.43"/>
            </g>
            <path class="cls-7"
                  d="M727.94,175.49c-24.54-4.54-45.1-10-62.74-19.56"/>
        </g>
    </g>
</svg>