<svg xmlns="http://www.w3.org/2000/svg" viewBox="0 0 737 737">
    <defs>
        <style>
            .cls-1,.cls-4{fill:#fff;}.cls-1,.cls-11{stroke:#000;}.cls-1{stroke-miterlimit:10;}.cls-11,.cls-13,.cls-14,.cls-15,.cls-2,.cls-5,.cls-7,.cls-9{fill:none;}.cls-3,.cls-6{fill:#29304d;}.cls-10,.cls-12,.cls-4,.cls-6,.cls-8{fill-rule:evenodd;}.cls-14,.cls-15,.cls-5,.cls-7{stroke:#29304d;}.cls-13,.cls-14,.cls-15,.cls-5,.cls-7,.cls-9{stroke-linecap:round;stroke-linejoin:round;}.cls-13,.cls-5,.cls-9{stroke-width:2px;}.cls-8{fill:#e49173;}.cls-9{stroke:#b5684c;}.cls-10{fill:#b5684c;}.cls-11{stroke-miterlimit:22.93;stroke-width:0.57px;}.cls-12{fill:#5159be;}.cls-13{stroke:#fff;}.cls-14{stroke-width:5.4px;}.cls-15{stroke-width:3px;}
        </style>
    </defs>
    <g id="Слой_2" data-name="Слой 2">
        <g id="Слой_1-2" data-name="Слой 1">
            <g id="ЧЕЛОВЕК">
                <g id="Слой_1-3" data-name="Слой_1">
                    <g id="_2321981849184" data-name=" 2321981849184">
                        <rect id="Rectangle_1127" data-name="Rectangle 1127" class="cls-2" x="0.5" y="0.5" width="736"
                              height="736"/>
                        <g id="Group_3652" data-name="Group 3652">
                            <ellipse id="Ellipse_875" data-name="Ellipse 875" class="cls-3" cx="391.53" cy="670.81"
                                     rx="76.71" ry="8.56"/>
                            <g id="Group_3651" data-name="Group 3651">
                                <path id="Path_3851" data-name="Path 3851" class="cls-4"
                                      d="M446,517q-58.44-12.93-102.43,1.83c-4.42,2-3.72,5.71,1.86,4.84q48-13.08,86.7.63L446,517Z"/>
                                <path id="Path_3852" data-name="Path 3852" class="cls-4"
                                      d="M310.75,563.24Q305.13,550,315,536.52q-57.8-17.26-91.47-6.54a34.44,34.44,0,0,0-13.45,12.59q10.15,7.11,33.37,3.78,17.4-4.5,67.26,16.89Z"/>
                                <path id="Path_3853" data-name="Path 3853" class="cls-4"
                                      d="M501.11,587.12c16.28-8.3,26.94,5.39,13.15,19.39-28.55,18-65.09,13.64-95.91,4.54-17.89-6-35.7-13.8-53-21.87-14.76-6.91-29.1-14-42.75-20.46L321,568a1.91,1.91,0,0,1-2.69-.15,1.94,1.94,0,0,1-.48-1.32c-1.75-8.75.56-26.33,14.05-35.18C354.15,528.29,444.32,624.42,501.11,587.12Z"/>
                                <path id="Path_3854" data-name="Path 3854" class="cls-4"
                                      d="M424.1,563.91q-15.32-5.6-27.47-11.27Q459,513.82,509.57,517.31q6.7,3.16,15.8,12.72c-32-2.68-61.57,8.87-90.59,27.39a20.16,20.16,0,0,0-1.83,2.39A34.41,34.41,0,0,1,424.1,563.91Z"/>
                                <path id="Path_3855" data-name="Path 3855" class="cls-4"
                                      d="M340.68,593.84a36.4,36.4,0,0,0-9.38-14.1c-48.22,22.54-74.88,14.66-85.16-14.6-.93-9-15.78-2.39-15.62,10,2.76,33.74,35.72,49.5,110.16,18.67Z"/>
                                <path id="Path_3856" data-name="Path 3856" class="cls-5"
                                      d="M451.68,513.91c-23.25-4.91-49-6.54-74.62-5.22-10.68.55-31.89,3.71-55.35,9.66m-70,27.55c-21.08,13.51-32.6,30.67-21.29,51.78,16.09,30,79,13.86,135-8.5m69.4-31.76c8.13-4.35,14.7-8.14,19-10.78q34.65-18.55,71.57-16.61-20.12-22.67-50-17.29-11.17-5.31-14.55-3.9-22.38,12.62-43.83,23m-94.37,36.85c-27.33,7.62-41,6.87-40.18-2.4m217.07-35.16c19.46,11.11,33.31,26.47,37.92,46.48,2.23,22.42-8.73,36.22-29.31,41.49C448,634.53,378.14,594.73,321,568a1.91,1.91,0,0,1-3.17-1.47c-25.35-11.76-48-20.65-66.12-20.58h0c-13.17.09-29.69,4.68-41.59-3.33,3.31-6.5,13.84-15.59,30.94-18.86,21.14.7,33.49-.88,37.7-13.16,15.91-2.85,38.51,5.17,63,16.21,2.12-.88,4.74.43,4.36,2,16-4.25,26.61,12.68,37.92,18,13.8,6.56,26.31,12.22,38.94,16.73,16.38,5.86,31.12,8.92,42.54,6.38,8.18-1.82,12.24-6.13,6.3-12.1-3.89-3.91-12.83-8.71-18-11.2"/>
                                <path id="Path_3857" data-name="Path 3857" class="cls-6"
                                      d="M341.88,597.37c-4.42-14.89-14.63-24-29.26-26.09q4.65-1.06,10-2.56c13.64,6.43,28,13.55,42.75,20.46-7.25,2.85-14.65,5.61-22.07,8.19l-1.3.44C342,597.66,341.93,597.51,341.88,597.37Z"/>
                                <path id="Path_3858" data-name="Path 3858" class="cls-6"
                                      d="M472.22,558.18a33.16,33.16,0,0,0-7.68-5.68,95.4,95.4,0,0,0-10.74-5.86,140,140,0,0,1,45.81-15.43q2,1.15,3.95,2.37c-15.81-1.85-26.53,10.88-31.32,24.62l0,0Z"/>
                                <path id="Path_3859" data-name="Path 3859" class="cls-7"
                                      d="M338.51,525.29a13.37,13.37,0,0,0-9.1-.36c-13.92,4.11-26.16,27.44-18.65,38.31"/>
                                <path id="Path_3860" data-name="Path 3860" class="cls-7"
                                      d="M323.68,519.1c-16.8-6.93-37,24.5-27.91,37.73"/>
                                <path id="Path_3861" data-name="Path 3861" class="cls-7"
                                      d="M437.42,556c7.42-11-4.77-28-20.54-24.07"/>
                                <path id="Path_3862" data-name="Path 3862" class="cls-7"
                                      d="M446.14,551.15c6.3-8.74-4.27-28.24-19.23-24.18"/>
                                <line id="Line_308" data-name="Line 308" class="cls-7" x1="327.57" y1="525.53"
                                      x2="312.84" y2="519.43"/>
                                <line id="Line_309" data-name="Line 309" class="cls-7" x1="322.4" y1="528.64"
                                      x2="307.67" y2="522.54"/>
                                <line id="Line_310" data-name="Line 310" class="cls-7" x1="316.88" y1="534.07"
                                      x2="302.15" y2="527.97"/>
                                <line id="Line_311" data-name="Line 311" class="cls-7" x1="312.05" y1="541.54"
                                      x2="297.32" y2="535.44"/>
                                <line id="Line_312" data-name="Line 312" class="cls-7" x1="309.56" y1="547.86"
                                      x2="294.57" y2="541.65"/>
                                <line id="Line_313" data-name="Line 313" class="cls-7" x1="308.54" y1="553.3"
                                      x2="293.56" y2="547.13"/>
                                <line id="Line_314" data-name="Line 314" class="cls-7" x1="308.62" y1="557.32"
                                      x2="293.88" y2="551.22"/>
                                <line id="Line_315" data-name="Line 315" class="cls-7" x1="309.35" y1="560.67"
                                      x2="294.62" y2="554.56"/>
                                <line id="Line_316" data-name="Line 316" class="cls-7" x1="332.17" y1="524.38"
                                      x2="317.21" y2="518.2"/>
                                <line id="Line_317" data-name="Line 317" class="cls-7" x1="422.08" y1="531.22"
                                      x2="431.09" y2="526.42"/>
                                <line id="Line_318" data-name="Line 318" class="cls-7" x1="425.66" y1="531.71"
                                      x2="434.66" y2="526.91"/>
                                <line id="Line_319" data-name="Line 319" class="cls-7" x1="429.96" y1="533.22"
                                      x2="438.62" y2="528.61"/>
                                <line id="Line_320" data-name="Line 320" class="cls-7" x1="433.56" y1="535.98"
                                      x2="442.15" y2="531.4"/>
                                <line id="Line_321" data-name="Line 321" class="cls-7" x1="436.73" y1="539.23"
                                      x2="444.9" y2="534.88"/>
                                <line id="Line_322" data-name="Line 322" class="cls-7" x1="439.5" y1="546.62"
                                      x2="447.77" y2="542.22"/>
                                <line id="Line_323" data-name="Line 323" class="cls-7" x1="439.77" y1="549.96"
                                      x2="447.98" y2="545.59"/>
                                <line id="Line_324" data-name="Line 324" class="cls-7" x1="438.87" y1="553.14"
                                      x2="447.43" y2="548.58"/>
                                <line id="Line_325" data-name="Line 325" class="cls-7" x1="438.83" y1="543.1"
                                      x2="446.86" y2="538.82"/>
                                <path id="Path_3863" data-name="Path 3863" class="cls-7"
                                      d="M302,512.14q-12.51,13.65-29.8,8.28"/>
                                <path id="Path_3864" data-name="Path 3864" class="cls-7"
                                      d="M452,515.9a25.24,25.24,0,0,0,20.5.16"/>
                                <path id="Path_3865" data-name="Path 3865" class="cls-5"
                                      d="M346.16,528.74C328.57,533.13,317.92,549.59,321,568"/>
                                <path id="Path_3866" data-name="Path 3866" class="cls-7"
                                      d="M341.9,530.09c18.12,0,14.07,14-1.67,3.83-2.8-1.73-5,.81-2.75,3.21q5.19,7.07-5.17,3.15"/>
                                <path id="Path_3867" data-name="Path 3867" class="cls-5"
                                      d="M341.8,526.76c-15.38,3.74-26.82,20.32-24,39.72"/>
                                <path id="Path_3868" data-name="Path 3868" class="cls-5"
                                      d="M382.35,544.93c11.09-3.18,22.58-10.69,25.47-11.64,15.24-6.35,35.45,12.81,25.13,26.52a34.41,34.41,0,0,1-8.85,4.1"/>
                                <path id="Path_3869" data-name="Path 3869" class="cls-5"
                                      d="M484.36,555c11.52,21.72-6.9,31-25.83,29.93-26.36-1.51-49.77-13.32-70-29.38-16.27-12.89-35.2-28.45-45.58-25.86"/>
                                <path id="Path_3870" data-name="Path 3870" class="cls-4"
                                      d="M515.77,565.41c-9.87,4.06-5.13,12.93,3,15.35C530.5,584.22,526.28,562.45,515.77,565.41Z"/>
                            </g>
                        </g>
                    </g>
                </g>
                <g id="Слой_1-2-2" data-name="Слой_1-2">
                    <g id="_2322038012736" data-name=" 2322038012736">
                        <rect id="Rectangle_1128" data-name="Rectangle 1128" class="cls-2" x="0.5" y="0.5" width="736"
                              height="736"/>
                        <path id="Path_3871" data-name="Path 3871" class="cls-8"
                              d="M692.5,184c-1.63.3-4.68-.64-4.1-5.65,1.75-7.45,11.17-43.72-3.72-37.45-.3,14.38-12.48,31.37-14.61,50.33q-1.44,17.06-18.83,31.84c-41.58,35.34-191,84.53-244.25,97.61l-14.41-60.87-33.44,27.05-11.33,46.5C216.67,357.33,94.56,350.89,91,272.31c17.81-18,3-41.72,36.69-47.43-10.92-14.78-28.53,4.43-36.6,7.12-3.89-15.39-19.79-53.2-27.72-60.27-5.43-5-9.84,2.29-.47,16.67,6.58,17.4,7.29,25.26,9.68,31.14-12.51,2.81-28.56,13.56-32.43,36C40.35,353,120.39,402.42,251,402.25c30.15,3.58,29.85,12.78,41.66,25.64C340.51,478,436,468,483.8,370.61c5.57-10.56,13.59-22.56,28.16-28.75C549,321.07,692.47,292.63,722.27,225.39l2.56-43.63C711.63,180.25,700.83,180.86,692.5,184Z"/>
                        <path id="Path_3872" data-name="Path 3872" class="cls-8"
                              d="M385.08,280.54c5.43-9.67,8.93-24.57,10.86-39.24,8.07-36.67-27.46-51.19-44.19-35.44-9.3,10.58-16.46,41.12-16.66,69.31C334.82,311.6,366.45,313.69,385.08,280.54Z"/>
                        <path id="Path_3873" data-name="Path 3873" class="cls-8"
                              d="M343.87,246.11q6.5-5.06,0-10.1-9.36,7.4-24.53,1.44c-2.88,0-3.6,4-.36,6.13Q332.48,250.86,343.87,246.11Z"/>
                        <path id="Path_3874" data-name="Path 3874" class="cls-9" d="M359,259.52q-6.09,7.53-16.23,4"/>
                        <path id="Path_3875" data-name="Path 3875" class="cls-6"
                              d="M385.36,212c-4.61,15.48,8.55,17.13-2.06,35.48,40.38,7,40.78-54.55,10.34-50.94-2.24-12.38-28.82-24.3-46-7C322,221.16,382.84,213.85,385.36,212Z"/>
                        <ellipse id="Ellipse_876" data-name="Ellipse 876" class="cls-3" cx="340.8" cy="228.28" rx="2.53"
                                 ry="4.15" transform="translate(-40.95 78.21) rotate(-12.35)"/>
                        <ellipse id="Ellipse_877" data-name="Ellipse 877" class="cls-3" cx="354.8" cy="232.34" rx="2.9"
                                 ry="4.76" transform="translate(-41.5 81.3) rotate(-12.35)"/>
                        <path id="Path_3876" data-name="Path 3876" class="cls-6"
                              d="M351.72,217c10,.19,17.66,5,13.46,13.4q-3-7.75-11.9-7.93C352.3,221.62,351.56,218.5,351.72,217Z"/>
                        <path id="Path_3877" data-name="Path 3877" class="cls-6"
                              d="M347.32,216.06c-3.92.85-6.91.94-10,2.4,1.69,3.58,5,3,8.51,2.62C346.86,220.51,347.72,217.5,347.32,216.06Z"/>
                        <path id="Path_3878" data-name="Path 3878" class="cls-8"
                              d="M383.78,249.66c12.52-22.79,23.09-28.86,26.33-17.68,1.38,9.73-5.25,19.58-21,30.29Z"/>
                        <path id="Path_3879" data-name="Path 3879" class="cls-9"
                              d="M398.34,240.76c-6.13,1.8-9,7.09-12.26,16.95"/>
                        <path id="Path_3880" data-name="Path 3880" class="cls-9"
                              d="M318.57,243.28c8.84,5.94,18.58,5.42,28.06,2"/>
                        <path id="Path_3881" data-name="Path 3881" class="cls-9"
                              d="M73.25,264.87q-5.11-26,17.88-32.87a46.23,46.23,0,0,0,8.4-4.86"/>
                        <path id="Path_3882" data-name="Path 3882" class="cls-10"
                              d="M352.59,313.72q13.91-10.67,52.67-.33l-12.69-53.58c-1.91,7.94-4.39,15.19-7.5,20.72-8.72,15.53-20.3,23.33-30.12,23.48Z"/>
                        <path id="Path_3883" data-name="Path 3883" class="cls-10"
                              d="M701,233.35c-14.4,15.66-30.12,26.94-46.93,33.2-90.72,41-148.41,50.82-167.52,80.59q-13.37,22.11-13.12,42.18a205.63,205.63,0,0,0,10.41-18.7Q495,348.84,512,341.87a508.28,508.28,0,0,1,58.53-22.45A629.8,629.8,0,0,0,658.89,283c10.42-5.18,47.5-23,63.39-57.55l2.55-43.63q-19.1-2.31-31.54,1.95,5.52,28.58-20.6,38.66,10.84,8.42,28.26,11Zm-453,166.39q-139.6-5.06-183.58-85.45-17.93-39.84-15.89-78.74a46.63,46.63,0,0,0-8.28,20C40.35,353,120.39,402.42,251,402.25c19.06,2.26,26,6.77,31.43,13q-6.81-15.34-34.45-15.54Z"/>
                    </g>
                </g>
                <g id="Костюм">
                    <g id="_2322176412432" data-name=" 2322176412432">
                        <rect id="Rectangle_1131" data-name="Rectangle 1131" class="cls-2" x="0.5" y="0.5" width="736"
                              height="736"/>
                        <path id="Path_3896" data-name="Path 3896" class="cls-11"
                              d="M364,414.76q29.55-86.29,86.88-105.95"/>
                        <path id="Path_3897" data-name="Path 3897" class="cls-12"
                              d="M81.5,363.06a130.67,130.67,0,0,1-27.95-34.52c6.05-12,26.69-34.16,44.84-40.51,7.72,12.8,23.44,26.06,23.44,26.06C109.54,323.89,88.41,345,81.5,363.06Z"/>
                        <path id="Path_3898" data-name="Path 3898" class="cls-4"
                              d="M409.79,320.76c16.8-5.25,110.48-33.12,140.41-46.83,30.14-13.8,61.31-31.71,67.39-26.65,16.68,13,27.24,34.5,34.45,60.75,4.86,12.15-24.1,22.82-60.52,28.62-60,15.07-98.66,36.66-110,58.84C442.88,469,335.39,496,286.59,429.44c-7-12-16-17.67-34.2-18.49-45.14,2.39-89.4-9.16-132.49-21.05-30.72-8.48-36.51-7.75-35.4-21.84,5.58-14.78,23.19-35.64,40.33-49,19.19-5.73,9.53,22.05,66.34,29.57C216.6,351.73,321,338,347.59,335c-2.73,7.87-.62,17.48.64,25.51q13.18,3,31.53.11c1.4-3.47,2.91-6.84,4.61-10.17,6.49-12.71,14.71-22.81,24.64-28.87.27-.27.52-.54.77-.8Zm-42.81,99c0-.38,0-.76.08-1.13,0,.37-.06.75-.08,1.12Z"/>
                        <path id="Path_3899" data-name="Path 3899" class="cls-12"
                              d="M679.25,278.34,649,303c-8.11-27.71-21-50.63-34.45-60.75l34.17-19.52c17,7.89,33.66,43.21,30.49,55.58Z"/>
                        <path id="Path_3900" data-name="Path 3900" class="cls-12"
                              d="M465.14,293.2c-21.84-5.18-45.79-1.79-64.6.24l1.23,5.19h0l3.49,14.76.75,3.17c-24.71,15.07-38.84,55.23-42,98.2-28-26.95-51.64-57.92-55.22-80.5,16.11-12.56,31.21-22,46-28.64L351.39,319l-.11.12-3.47,14.25-4.68.85c1.61,29.17,8.83,54.92,20.85,80.55,15.77-47.26,63.52-74.46,93.13-114.5q10.06-3.17,17.11-5.42c-3.05,0-3.14-.41-9.08-1.63Z"/>
                        <path id="Path_3901" data-name="Path 3901" class="cls-4"
                              d="M344.53,182.94c24.55,8.49,52.17,15.2,85,38.13,13.29,7.45,21.35,7.79,25.28,4.1,5.91-5.53,2.45-20.17-6.63-33.36-22.64-32.88-74-52.75-110-47.61-31.91,4.57-13.1,28.79,6.26,38.74Z"/>
                        <path id="Path_3902" data-name="Path 3902" class="cls-13"
                              d="M364.27,398.49c22.05-48.27,62.45-62.13,89.05-109.74"/>
                        <path id="Path_3903" data-name="Path 3903" class="cls-13"
                              d="M368.35,377.92c23.09-40.26,51.53-45.38,76.26-90.63"/>
                        <path id="Path_3904" data-name="Path 3904" class="cls-13"
                              d="M357.82,396.87c-23.09-25.27-38-46.67-42.83-67.1"/>
                        <path id="Path_3905" data-name="Path 3905" class="cls-13"
                              d="M351.64,379.11c-16.56-18.71-28.2-38.1-31.2-54.68"/>
                        <path id="Path_3906" data-name="Path 3906" class="cls-6"
                              d="M401.76,298.64l3.5,14.75.75,3.17C419.6,307.08,416.42,299.46,401.76,298.64Z"/>
                        <path id="Path_3907" data-name="Path 3907" class="cls-6"
                              d="M366.59,392.88a23.24,23.24,0,0,1-6.1.66c-.91-2.67-1.81-5.54-2.73-8.63a58.88,58.88,0,0,0,10.37-.23c.58-2.79,1.21-5.53,1.9-8.24a61.15,61.15,0,0,1-14.56.33q-.92-3.43-1.85-7.17A57.62,57.62,0,0,0,372.1,369q1-3.33,2.1-6.53a66.49,66.49,0,0,1-22.25.33q-.72-3.08-1.46-6.32a15.4,15.4,0,0,1-5.3-1.22A211.85,211.85,0,0,0,364,414.75l.92-9.78q-.61-1.35-1.23-2.85a4,4,0,0,0,1.64-.7C365.69,398.54,366.11,395.7,366.59,392.88Z"/>
                        <path id="Path_3908" data-name="Path 3908" class="cls-6"
                              d="M343.06,320.22q-.21,8.1.07,14l4.68-.84,4.95-19.77A69,69,0,0,0,343.06,320.22Z"/>
                        <path id="Path_3909" data-name="Path 3909" class="cls-6"
                              d="M473.92,294.93q-6.78,2.18-16.38,5.19l7.14-2.25q-2.78,4.2-6.3,8.74-15.06,19.39-43.6,44.68a203,203,0,0,0-50.13,60.78c15.4-42.08,56.2-68.24,85.22-102.92l0,0q3.58-4.29,6.9-8.76,4.68-6.12,8-7c5.94,1.22,6,1.61,9.08,1.63Z"/>
                        <g id="Group_3660" data-name="Group 3660">
                            <path id="Path_3910" data-name="Path 3910" class="cls-12"
                                  d="M414.79,221.33c-27.33-25.18-52.14-29.4-70.79-27.39l1.83-13.61c30.35-7,67.2,12.92,74.94,31.83,9.43,27.76,29.72,64.34,64.59,52.69l-2.71,5.75,5.84,3.59c-39.7,13.25-59.29-19.18-71.07-51-.36,17.88,3.32,40.25,18,49.71l-5.35.42.93,6.09c-14.67-9.94-18.94-27.31-19.41-44.56q3.24-5.31,3.46-14Z"/>
                            <path id="Path_3911" data-name="Path 3911" class="cls-6"
                                  d="M412.39,245.27a11.11,11.11,0,0,1,6.35-2.87,104.39,104.39,0,0,1-1.32-19.18c1.45,3.91,3,7.83,4.73,11.68a43.5,43.5,0,0,0,10.64,3.93,142.34,142.34,0,0,1-12-26.67c-1.85-4.52-5.36-9.09-10-13.34a56.31,56.31,0,0,1-7.82,12.71l-.06.31a127.58,127.58,0,0,1,11.64,9.5,35.27,35.27,0,0,1-2.9,13.54V235a100.2,100.2,0,0,0,.8,10.23Z"/>
                        </g>
                        <path id="Path_3912" data-name="Path 3912" class="cls-10"
                              d="M345.23,355.49q-1.78-13.55-2.1-21.29l4.62-.83a167.16,167.16,0,0,0,2.74,23.06q-3.11-.44-5.26-.94Z"/>
                        <path id="Path_3913" data-name="Path 3913" class="cls-6"
                              d="M95.43,340.37a133.28,133.28,0,0,1-27.05-31.19,105.17,105.17,0,0,0-11.62,14,46,46,0,0,0-3.21,5.36,130.67,130.67,0,0,0,28,34.52C84.52,355.07,90.21,346.92,95.43,340.37Z"/>
                        <path id="Path_3914" data-name="Path 3914" class="cls-6"
                              d="M672.71,251.17c-9.62,9.05-21,15.91-34.07,22.94l-.49.26a181.16,181.16,0,0,1,8.27,20.36q1.38,4.06,2.62,8.3l30.21-24.69a15.49,15.49,0,0,0,.38-4.3c-.22-6-2.85-14.48-6.92-22.87Z"/>
                        <path id="Path_3915" data-name="Path 3915" class="cls-13"
                              d="M623.6,236.68Q648.32,256.09,657,296.5"/>
                        <path id="Path_3916" data-name="Path 3916" class="cls-13"
                              d="M630.5,232.74c16,11.76,28.68,32.1,32.58,58.82"/>
                        <path id="Path_3917" data-name="Path 3917" class="cls-13"
                              d="M74.7,356.62q11.16-29,41.08-48.12"/>
                        <path id="Path_3918" data-name="Path 3918" class="cls-13"
                              d="M68.46,349.89a96.12,96.12,0,0,1,42.3-46.49"/>
                    </g>
                </g>
                <g id="Слой_1-3-2" data-name="Слой_1-3">
                    <g id="_2322046479936" data-name=" 2322046479936">
                        <rect id="Rectangle_1129" data-name="Rectangle 1129" class="cls-2" x="0.5" y="0.5" width="736"
                              height="736"/>
                        <g id="Group_3658" data-name="Group 3658">
                            <g id="Group_3653" data-name="Group 3653">
                                <rect id="Rectangle_1130" data-name="Rectangle 1130" class="cls-14" x="74.36" y="73.19"
                                      width="617.22" height="343.65" rx="16.63"
                                      transform="translate(-42.43 84.61) rotate(-11.95)"/>
                                <line id="Line_326" data-name="Line 326" class="cls-15" x1="653" y1="29.94" x2="48.92"
                                      y2="157.59"/>
                                <path id="Path_3884" data-name="Path 3884" class="cls-6"
                                      d="M49,157.57,652.9,30a19.49,19.49,0,0,0-22.51-13.07L64.32,136.51A19.5,19.5,0,0,0,49,157.57ZM619.47,31.91a4.25,4.25,0,1,1,3.28-5.05h0A4.26,4.26,0,0,1,619.47,31.91Zm-17.9,3.78a4.25,4.25,0,1,1,3.28-5h0a4.26,4.26,0,0,1-3.28,5Zm-17.9,3.78a4.25,4.25,0,1,1,3.28-5h0a4.25,4.25,0,0,1-3.27,5Z"/>
                            </g>
                            <g id="Group_3654" data-name="Group 3654">
                                <path id="Path_3885" data-name="Path 3885" class="cls-8"
                                      d="M61.34,260.43C44,261.38,12.55,253.49,13.58,232q6.51-1.11,10.06,6.25,5.77,6.12,11.46,6.75-.26-16.62-1.11-21c4.67-10.09,8-26,9.17-36.77,8.53-1.93,10.6,9.68,7.09,24.45,1.23-.15,2.57-.35,4-.59,10.42-7.8,24-27.49,31.21-39.14,7,6.07,6.92,15.89-.13,21.59-1.4,2.83-7.62,10.84-9,12.62,11.91-3.06,16.84-6.12,30.27-10.4,2.72,5.71-1.3,11.92-6.36,14.55-10.86,5.34-23.09,13-38.71,14.89Z"/>
                                <path id="Path_3886" data-name="Path 3886" class="cls-9"
                                      d="M23.64,238.26q10.68,9.65,20.78,6.64"/>
                                <path id="Path_3887" data-name="Path 3887" class="cls-9"
                                      d="M50.71,191.55a35.89,35.89,0,0,1,0,18.15c-.58,3.24-5.39,10.29-1.12,14.91q8.3,7.86,26.84-18.47a129.62,129.62,0,0,0,9-12.62q10.53-9.6.13-21.59"/>
                                <path id="Path_3888" data-name="Path 3888" class="cls-9"
                                      d="M47.91,221.18a19.24,19.24,0,0,1-.69,9.55"/>
                            </g>
                            <g id="Group_3657" data-name="Group 3657">
                                <g id="Group_3656" data-name="Group 3656">
                                    <g id="Group_3655" data-name="Group 3655">
                                        <path id="Path_3889" data-name="Path 3889" class="cls-8"
                                              d="M727.94,175.49c-30.35-6.3-52.24-12.47-62.74-19.56-8.05,20.43,46,29.07,58.31,29.75C730.21,185.44,732.71,178.1,727.94,175.49Z"/>
                                        <path id="Path_3890" data-name="Path 3890" class="cls-8"
                                              d="M727.76,199.86c5.93-1.45,5.66-11.29-.12-14.42L693,178a236.37,236.37,0,0,1-34-1.94c.38,9.6,4.76,12.34,12.11,13.93,9.42,2,18.81.08,18.92.18C701.09,196.29,713.66,200.36,727.76,199.86Z"/>
                                        <path id="Path_3891" data-name="Path 3891" class="cls-8"
                                              d="M723.81,212.35q9.8-3,4-12.49-23.26.39-35.16-3.57-19.68,3.24-32.09,2.23c-3.31,6.66,3.33,10,9,10.37q14.87.93,24.86-1.11,12.11,6.38,29.42,4.57Z"/>
                                        <path id="Path_3892" data-name="Path 3892" class="cls-8"
                                              d="M724.57,212.1c6.49,2,6.07,13.62-.39,13.88-9.84,1.6-19.68-1.56-29.2-4.23a45.72,45.72,0,0,1-28-5c-2.7-2.1-1.22-6.3,1.75-6.14,14.8,2.3,31.42,2.72,55.87,1.49Z"/>
                                    </g>
                                    <path id="Path_3893" data-name="Path 3893" class="cls-9"
                                          d="M720.73,212.61q-11.33,2.12-26.34-4.83a98.12,98.12,0,0,1-24.86,1.12"/>
                                    <path id="Path_3894" data-name="Path 3894" class="cls-9"
                                          d="M727.64,185.44q-28.54-5.79-36.93-8.33Q679,178.9,659,176.06q-1.05,17.92,31,14.11c9,4.78,19,8.65,29.17,9.43"/>
                                </g>
                                <path id="Path_3895" data-name="Path 3895" class="cls-9"
                                      d="M727.94,175.49c-24.54-4.54-45.1-10-62.74-19.56"/>
                            </g>
                        </g>
                    </g>
                </g>
            </g>
        </g>
    </g>
</svg>