<svg xmlns="http://www.w3.org/2000/svg" viewBox="0 0 329.61 116.32">
    <defs>
        <style>
            .cls-1{fill:#fff;}.cls-1,.cls-3{fill-rule:evenodd;}.cls-2,.cls-4{fill:none;stroke:#29304d;stroke-linecap:round;stroke-linejoin:round;}.cls-2{stroke-width:2px;}.cls-3{fill:#29304d;}
        </style>
    </defs>
    <g>
        <path class="cls-1"
              d="M236.9,9.75Q178.46-3.18,134.47,11.58c-4.43,2-3.73,5.71,1.86,4.84q48-13.08,86.7.63l13.87-7.3Z"/>
        <path class="cls-1"
              d="M101.63,56Q96,42.72,105.91,29.27,48.13,12,14.45,22.73A34.37,34.37,0,0,0,1,35.32q10.15,7.11,33.37,3.78Q51.77,34.6,101.63,56Z"/>
        <path class="cls-1"
              d="M292,79.86c16.28-8.3,26.94,5.4,13.15,19.4-28.55,18-65.09,13.64-95.92,4.54-17.88-6-35.7-13.8-53-21.88-14.76-6.9-29.1-14-42.75-20.45l-1.63-.77a1.91,1.91,0,0,1-2.69-.15,1.94,1.94,0,0,1-.48-1.32c-1.75-8.75.56-26.33,14-35.18C145,21,235.2,117.17,292,79.86Z"/>
        <path class="cls-1"
              d="M215,56.66q-15.31-5.59-27.47-11.27Q249.84,6.57,300.45,10.06q6.69,3.16,15.8,12.72c-32-2.68-61.57,8.87-90.59,27.39a20.16,20.16,0,0,0-1.83,2.39A34.41,34.41,0,0,1,215,56.66Z"/>
        <path class="cls-1"
              d="M131.56,86.59a36.4,36.4,0,0,0-9.38-14.1C74,95,47.29,87.15,37,57.89c-.92-9-15.77-2.39-15.61,10,2.76,33.74,35.71,49.5,110.16,18.67Z"/>
        <path class="cls-2"
              d="M242.56,6.66c-23.25-4.91-49-6.54-74.62-5.22-10.68.55-31.89,3.71-55.35,9.66m-70,27.55C21.51,52.16,10,69.32,21.3,90.43c16.09,30,79,13.86,135-8.5m69.4-31.76c8.14-4.35,14.71-8.14,19-10.78q34.66-18.55,71.57-16.61-20.1-22.67-50-17.29Q255.09.18,251.71,1.59q-22.4,12.62-43.83,23M113.51,61.47c-27.34,7.62-41,6.87-40.18-2.4M290.4,23.91C309.86,35,323.71,50.38,328.32,70.39c2.23,22.42-8.73,36.22-29.31,41.49-60.12,15.4-130-24.4-187.13-51.18a1.91,1.91,0,0,1-2.69-.15,1.94,1.94,0,0,1-.48-1.32c-25.35-11.76-48-20.65-66.12-20.58h0C29.42,38.74,12.9,43.33,1,35.32c3.31-6.5,13.84-15.59,30.94-18.86,21.13.7,33.49-.88,37.7-13.16,15.91-2.85,38.51,5.17,63,16.21,2.12-.88,4.74.43,4.36,2,16-4.25,26.6,12.68,37.92,18.05,13.79,6.56,26.31,12.22,38.94,16.73,16.38,5.86,31.12,8.92,42.53,6.38,8.19-1.82,12.25-6.13,6.3-12.1-3.88-3.91-12.82-8.71-18-11.2"/>
        <path class="cls-3"
              d="M132.76,90.11c-4.42-14.88-14.63-24-29.26-26.08q4.65-1.06,10-2.56c13.64,6.43,28,13.55,42.75,20.45-7.25,2.86-14.65,5.62-22.07,8.19l-1.3.45C132.85,90.41,132.8,90.26,132.76,90.11Z"/>
        <path class="cls-3"
              d="M263.1,50.93a32.88,32.88,0,0,0-7.68-5.68,95.4,95.4,0,0,0-10.74-5.86A140,140,0,0,1,290.49,24q2,1.16,3.95,2.37C278.63,24.48,267.91,37.21,263.12,51l0,0Z"/>
        <path class="cls-4"
              d="M129.38,18a13.34,13.34,0,0,0-9.09-.36C106.37,21.79,94.13,45.12,101.63,56"/>
        <path class="cls-4"
              d="M114.56,11.85c-16.8-6.93-37,24.5-27.91,37.73"/>
        <path class="cls-4" d="M228.29,48.75c7.43-11-4.76-28-20.53-24.07"/>
        <path class="cls-4" d="M237,43.9c6.3-8.74-4.27-28.24-19.23-24.18"/>
        <line class="cls-4" x1="118.45" y1="18.28" x2="103.71" y2="12.18"/>
        <line class="cls-4" x1="113.28" y1="21.39" x2="98.55" y2="15.29"/>
        <line class="cls-4" x1="107.76" y1="26.82" x2="93.03" y2="20.72"/>
        <line class="cls-4" x1="102.93" y1="34.29" x2="88.2" y2="28.19"/>
        <line class="cls-4" x1="100.44" y1="40.61" x2="85.45" y2="34.4"/>
        <line class="cls-4" x1="99.42" y1="46.05" x2="84.44" y2="39.88"/>
        <line class="cls-4" x1="99.5" y1="50.07" x2="84.76" y2="43.97"/>
        <line class="cls-4" x1="100.23" y1="53.42" x2="85.5" y2="47.31"/>
        <line class="cls-4" x1="123.05" y1="17.13" x2="108.09" y2="10.95"/>
        <line class="cls-4" x1="212.96" y1="23.97" x2="221.97" y2="19.17"/>
        <line class="cls-4" x1="216.54" y1="24.46" x2="225.54" y2="19.66"/>
        <line class="cls-4" x1="220.84" y1="25.97" x2="229.49" y2="21.36"/>
        <line class="cls-4" x1="224.43" y1="28.73" x2="233.03" y2="24.15"/>
        <line class="cls-4" x1="227.6" y1="31.98" x2="235.78" y2="27.63"/>
        <line class="cls-4" x1="230.38" y1="39.37" x2="238.65" y2="34.97"/>
        <line class="cls-4" x1="230.65" y1="42.71" x2="238.86" y2="38.34"/>
        <line class="cls-4" x1="229.75" y1="45.89" x2="238.31" y2="41.33"/>
        <line class="cls-4" x1="229.7" y1="35.85" x2="237.74" y2="31.57"/>
        <path class="cls-4" d="M92.92,4.89q-12.51,13.65-29.8,8.28"/>
        <path class="cls-4" d="M242.84,8.65a25.24,25.24,0,0,0,20.5.16"/>
        <path class="cls-2"
              d="M137,21.49c-17.6,4.38-28.25,20.85-25.17,39.21"/>
        <path class="cls-4"
              d="M132.77,22.84c18.12,0,14.08,14-1.66,3.83-2.8-1.73-5,.81-2.75,3.21q5.19,7.07-5.17,3.15"/>
        <path class="cls-2"
              d="M132.68,19.51c-15.39,3.74-26.82,20.32-24,39.72"/>
        <path class="cls-2"
              d="M173.23,37.68C184.32,34.5,195.81,27,198.7,26c15.24-6.35,35.45,12.81,25.13,26.52a34.41,34.41,0,0,1-8.85,4.1"/>
        <path class="cls-2"
              d="M275.24,47.76c11.52,21.71-6.9,31-25.83,29.93-26.37-1.51-49.77-13.32-70-29.38-16.27-12.89-35.2-28.45-45.58-25.86"/>
        <path class="cls-1"
              d="M306.65,58.15c-9.87,4.07-5.13,12.94,3,15.35C321.38,77,317.16,55.19,306.65,58.15Z"/>
    </g>
</svg>