<svg xmlns="http://www.w3.org/2000/svg" shape-rendering="geometricPrecision" image-rendering="optimizeQuality"
     fill-rule="evenodd" clip-rule="evenodd" viewBox="0 0 700 700">
    <path fill="#29304d"
          d="m383.1 289.72l1.854 7.828c5.331-1.908 8.469-3.819 8.227-5.328-.25-1.561-4.074-2.4-10.08-2.5"/>
    <path fill="#f2f3fe"
          d="m398.73 213.65l-5.584 4.694c-12.804-23.801-32.709-37.914-59.61-41.45l7.713-17.686c-24.05-31.11-1.859-56.885 22.06-30.03 8.748-18.231 39.06-8.459 32.565 14.312 15.02-16.08 39.865 5.954 28.02 21.777 26.375 8.06 25.931 38.16 4.178 37.12 12.724 18.02-15.1 48.21-29.348 11.267"/>
    <g fill="#fff">
        <path d="m332.91 144.46c9.157 8.465 20.09-4.858 29.644-6.668 8.295 8.338 16.17 18.526 29.25 11.438 19.308 1.142 8.62 31.2 27 24 11.674.068 23.01 16.224 9.27 29.16 1.968 2.646 3.048 5.974 3.242 9.985.661-4.477 3.228-8.824 7.7-13.04v-.006c9.781-7.722 5.639-27.715-15.12-34.06 9.152-12.231-3.617-28.17-16.823-27.347l.005-.006c-5.03.344-8.692-1.512-10.992-5.567l-.002.006c-3.218-11.13-17-15.879-26.304-10.377l.003-.007c-4.88 2.586-10.513 2.106-16.898-1.439v.005c-15.385-8.392-26.837 4.672-19.976 23.926m61.3 27.943c-13.28-12.523-33.15-20.337-50.83-18.1l-2.143 4.913-7.711 17.681c17.241 2.265 31.608 8.875 43.07 19.595 2.663-2.775 5.104-5.543 7.322-8.304.015-.019.03-.038.045-.057 4.226-5.268 7.64-10.511 10.243-15.728"/>
        <path d="m219.87 384.12c-63.41-2.204-108.04-13.829-133.88-34.878-.829-13.06 9.608-36.31 27.375-48.37 49.5 25.995 120.11 27.825 194.55 16.317 12.657-4.066 18.847-8.856 18.571-14.369.148 2.702 8.496 2.874 16.943 2.343 6.95.209 8.337 6.295 8.758 14.914 4.612-.38 8.676-.963 12.192-1.748-1.988-7.02-2.494-14.977 6.263-16.859 2.596-.553 23.09-5.228 22.526-9.252-.006-.048-.019-.095-.033-.142.961 3.231 3.718 4.782 8.272 4.65 78.85-21.882 154-53.621 205.08-82.48 11.02 5.295 30.35 37.09 33.375 57.75-38.9 19.68-141.84 53.49-155.25 61.5-12.698 8.666-24.07 21.04-31.875 45-35.18 81.42-143.31 81.67-195 12-6.162-7.03-19.422-6.64-37.874-6.374"/>
    </g>
    <path fill="#29304d"
          d="m333.08 305.25l1.79-7.346.098-.405c-5.476 1.936-8.711 3.882-8.466 5.413.198 1.231 2.618 2.01 6.578 2.338"/>
    <path fill="none" stroke="#29304d" stroke-width="2" stroke-linecap="round" stroke-linejoin="round"
          stroke-miterlimit="22.926"
          d="m352.2 320.07c8.271-.446 23.284-3.826 45.04-10.14 12.568 36.476 19.265 74.08 20.09 112.81"/>
    <g fill="#29304d">
        <circle cx="392.22" cy="321.56" r="3.5"/>
        <circle cx="399.95" cy="348.65" r="3.5"/>
        <circle cx="336.27" cy="359.81" r="3.5"/>
        <circle cx="342.02" cy="391.68" r="3.5"/>
        <circle cx="347.77" cy="423.56" r="3.5"/>
        <circle cx="405.95" cy="380.72" r="3.5"/>
        <circle cx="408.45" cy="412.78" r="3.5"/>
        <circle cx="333.77" cy="329.06" r="3.5"/>
    </g>
    <g fill="#f2f3fe">
        <path d="m85.998 349.25c-.079-3.868.316-7.346 1.186-10.435 49.19 28.956 99.65 43.781 151.93 39.976 12.917-1.925 30.22 6.463 34.474 29.38-6.06-5.661-11.344-11.551-15.842-17.669-4.108-4.078-10.163-6.165-18.16-6.259-72.17.408-123.36-11.256-153.59-34.993"/>
        <path d="m455.06 371.98c-1.592 4.803-2.94 8.245-4.04 10.328-2.611-22.741 7.348-41.977 29.878-57.71 84.56-37.582 133.82-57.28 153.89-69.947 2.633 6.477 4.327 12.259 5.082 17.345-39.933 17.45-91.68 37.95-155.25 61.5-13.651 9.264-23.504 22.09-29.559 38.484"/>
    </g>
    <circle fill="#86e5c7" cx="546.24" cy="291.7" r="10"/>
    <circle fill="#5159be" cx="196.24" cy="306.07" r="7.436"/>
</svg>