<svg xmlns="http://www.w3.org/2000/svg" shape-rendering="geometricPrecision" image-rendering="optimizeQuality"
     fill-rule="evenodd" clip-rule="evenodd" viewBox="0 0 700 700">
    <g fill="#fff">
        <path d="m329.45 200.09c7.948 2.768 18.17 3.683 29.539 2.244 3.951 10.524 5.094 23.739 2.526 37.53-4.414 23.703-18.438 41.876-33.944 46.14-5.932-3.893-9.896-12.194-9.804-24.861.063-8.673.21-17.206 1.503-25.629-5.466.624-11.181-1.142-17.334-4.455-3.087-2.059-2.05-6.583.835-6.208 7.251 2.846 12.917 3.285 18.08 1.319 2.179-10.585 5.091-19.725 8.603-26.08"/>
        <path d="m302.06 230.82c8.412 5.647 17.676 5.155 26.691 1.894l-26.691-1.894"/>
    </g>
    <path fill="none" stroke="#b5684c" stroke-width="2" stroke-linecap="round" stroke-linejoin="round"
          stroke-miterlimit="22.926" d="m302.06 230.82c8.412 5.647 17.676 5.155 26.691 1.894"/>
    <g fill="#29304d">
        <path d="m323.66 220.12c-1.296.284-2.724-1.211-3.19-3.34-.467-2.128.204-4.083 1.5-4.367 1.295-.285 2.724 1.21 3.191 3.339.466 2.128-.205 4.084-1.501 4.368"/>
        <path d="m337.1 224.55c-1.486.326-3.124-1.389-3.66-3.83-.535-2.441.236-4.685 1.722-5.01 1.486-.325 3.124 1.389 3.659 3.831.536 2.441-.235 4.684-1.721 5.01"/>
        <path d="m329.01 204.65c-3.729.803-6.575.891-9.494 2.276 1.605 3.405 4.724 2.836 8.097 2.495.957-.54 1.773-3.405 1.397-4.771"/>
        <path d="m334.13 209.28c3.751.695 6.411 1.709 9.638 1.554-.17-3.76-3.268-4.435-6.512-5.419-1.092.129-2.947 2.46-3.126 3.865"/>
    </g>
    <path fill="none" stroke="#fc5b61" stroke-width="2" stroke-linecap="round" stroke-linejoin="round"
          stroke-miterlimit="22.926" d="m320.23 248.85l18.375 2.156"/>
    <path fill="#29304d" d="m335.83 228.02c-5.685 9.674 4.386 11.255 0 0"/>
    <path fill="#fff"
          d="m103.82 293.44c43.736 31.33 110.34 39.596 199.8 24.801 37.94 34.05 75.22 26.01 111.84-24.08 57.7-16.826 118.36-42.36 181.97-76.61 14.165 15.524 23.94 34.377 29.324 56.56-24.859 13.265-55.54 25.335-92.06 36.21-34.749 9.174-56.37 20.549-64.875 34.12-41.631 101.89-159.01 115.14-198 61.12-6.256-11.312-14.8-19.13-27-19.5-90.56-3.632-148.48-20.765-173.77-51.4 5.306-16.479 16.23-30.22 32.769-41.23"/>
    <path fill="#29304d"
          d="m407.49 304.39c-8.39 10.06-16.814 17.915-25.27 23.578 23.526-5.228 44.41-12.568 59.757-21.821-4.329-3.921-8.303-7.767-11.92-11.538-6.552 3.593-14.156 6.859-22.563 9.781m-17.11 95.27c-33.992 7.848-70.955 11.223-109.82 9.571-2.045-.087-4.096-.188-6.151-.303 5.577 6.752 12.463 12.324 20.303 16.667 3.214.034 6.414.035 9.6.003 31.412-.32 61.48-3.875 89.63-10.376 6.73-1.554 13.352-3.276 19.858-5.164 3.401-.986 6.769-2.02 10.11-3.094 9.373-7.49 18.13-16.431 25.919-26.874-3.403 1.498-6.854 2.942-10.35 4.333-15.511 6.169-31.922 11.272-49.09 15.237m-279.16-60.818c4.02-8.718 8.355-17.544 13.01-26.478.936-1.798 1.885-3.601 2.847-5.408-4.909-2.282-9.608-4.776-14.1-7.481-.833 1.564-1.656 3.124-2.47 4.68-4.95 9.466-9.545 18.799-13.787 27.999-.891 1.932-1.767 3.86-2.628 5.782-1.272 2.844-2.512 5.677-3.719 8.5-.574 1.343-1.14 2.683-1.699 4.02 4.222 2.88 8.857 5.589 13.906 8.127.515-1.246 1.038-2.495 1.567-3.746 1.055-2.495 2.138-5 3.248-7.52 1.241-2.811 2.515-5.637 3.824-8.476m26.358-21.04c-2.279 11.526-4.335 22.655-6.168 33.387-.457 2.674-.9 5.324-1.329 7.949-.37 2.262-.73 4.507-1.08 6.733-.163 1.04-.324 2.077-.483 3.109 4.913 1.571 10.08 3.037 15.492 4.4.13-.858.262-1.72.395-2.585.298-1.926.603-3.867.917-5.822.585-3.65 1.198-7.349 1.838-11.1 1.743-10.204 3.691-20.778 5.846-31.722.349-1.779.705-3.567 1.066-5.365-5.286-1.463-10.387-3.113-15.302-4.95-.404 1.999-.801 3.987-1.192 5.963m34.777 7.829c-1.042 16.09-2.181 31.417-3.418 45.966-.135 1.592-.272 3.175-.409 4.748-.064.725-.127 1.448-.191 2.169 5.1.892 10.375 1.713 15.824 2.462.064-.714.127-1.43.19-2.147.119-1.358.237-2.724.354-4.096 1.281-14.973 2.46-30.788 3.538-47.44.084-1.298.167-2.602.25-3.911-5.431-.634-10.713-1.419-15.844-2.356-.097 1.543-.195 3.08-.294 4.609m32.891 2.517c.68 17.721 1.578 34.29 2.694 49.719.079 1.104.16 2.202.242 3.295.065.857.13 1.711.196 2.562 5.237.479 10.609.903 16.12 1.271-.081-1.021-.163-2.048-.242-3.079-.071-.911-.14-1.826-.209-2.746-1.18-15.746-2.126-32.719-2.836-50.92-.038-.962-.075-1.928-.111-2.898-5.449-.053-10.774-.23-15.975-.533.041 1.114.082 2.224.125 3.329m41.36 58.03c3.207.297 6.151 1.127 8.859 2.409l.056.027.13.062c3.414 1.65 6.451 4.02 9.166 6.96 1.491.101 2.984.194 4.476.28 40.588 2.333 81.71-.743 118.49-8.899 22.651-5.02 43.704-11.996 62.05-20.846 1.02-.492 2.032-.99 3.035-1.493.005-.003.001-.005.015-.008 3.455-1.735 6.808-3.538 10.05-5.41 2.48-4.713 4.785-9.651 6.896-14.817 2.06-3.29 4.891-6.45 8.492-9.482-1.304-.928-2.591-1.853-3.862-2.774-.002-.002-.004-.003-.006-.005-.022-.015-.043-.031-.065-.047-5.994 4.952-12.744 9.543-20.14 13.766-19.488 11.125-43.46 19.691-69.901 25.554-38.08 8.447-81.12 11.216-123.21 7.912l.382-.66c-2.975-16.846-5.582-34.16-7.82-51.948-.103-.817-.205-1.634-.306-2.453-5.438.386-10.772.666-16 .841l9.223 61.03m23.865-60.929c1.293 8.992 2.853 18.532 4.679 28.62-2.129 4.115-4.392 8.35-6.789 12.704 33.2 3.108 70.896.42 106.32-6.956 33.685-7.01 65.5-18.315 89.69-32.962.483-.293.963-.587 1.44-.882l.291.221c-.053-.419-.108-.839-.164-1.258-1.2-8.956-2.998-17.785-5.396-26.487l-.008.002c-1.331-4.827-2.845-9.609-4.543-14.345-.3-.836-.605-1.669-.915-2.501-5.05 1.777-10.08 3.49-15.09 5.139.284.758.564 1.516.839 2.276 1.629 4.508 3.076 9.06 4.341 13.647v.031c.757 2.748 1.449 5.513 2.076 8.295 1.686 1.456 3.42 2.921 5.201 4.397-22.08 12.622-50.646 22.479-81.01 28.802-31.62 6.584-65.01 9.286-94.93 7.249 2.438-4.784 4.69-9.402 6.756-13.856 15.841.31 32.11-.275 48.11-1.704-8.06-2.883-16.15-7.7-24.279-14.449-2.01.073-4.02.132-6.03.177-3.658.081-7.307.116-10.939.103-.197.497-.398.997-.6 1.5-.76 1.882-1.56 3.8-2.399 5.753-.279-1.808-.546-3.588-.801-5.341-.123-.845-.243-1.683-.361-2.515-5.362.726-10.636 1.364-15.822 1.913.113.804.228 1.613.345 2.427m195.61-44.716c1.283 3.578 2.51 7.29 3.681 11.137 2.278 7.481 4.346 15.48 6.203 23.999.934 4.288 1.816 8.708 2.644 13.259.0001.009.003.019.005.028.302 1.661.597 3.34.884 5.04 3.996-3.185 8.858-6.226 14.587-9.121-.207-1.124-.419-2.24-.634-3.349-.019-.102-.039-.204-.059-.305-.951-4.892-1.967-9.645-3.048-14.259-1.629-6.952-3.406-13.59-5.332-19.912-1.227-4.03-2.515-7.929-3.862-11.698-.381-1.063-.765-2.116-1.156-3.159-4.99 1.935-9.96 3.808-14.91 5.621.336.899.668 1.807.997 2.724m27.904-9.749c2.48 6.254 4.604 12.589 6.371 19v.031c1.012 3.673 1.907 7.377 2.687 11.11 1.054 5.05 1.895 10.156 2.523 15.318.007.056.014.113.021.17.126 1.049.245 2.101.354 3.156 4.734-1.882 9.885-3.694 15.454-5.436-.143-1.157-.296-2.312-.458-3.464-.007-.048-.014-.096-.02-.144-.755-5.323-1.723-10.602-2.902-15.835-.689-3.057-1.45-6.099-2.284-9.125l-.008.002c-1.89-6.855-4.15-13.618-6.78-20.29-.55-1.394-1.116-2.784-1.698-4.17-4.924 2.093-9.829 4.129-14.715 6.108.498 1.185.983 2.373 1.455 3.564m30.676-11.521c3.579 8.843 6.588 18.15 8.913 27.35.157.621.31 1.241.461 1.859 1.359 5.588 2.458 11.09 3.271 16.388.006.039.012.077.018.115.225 1.475.429 2.933.609 4.372 5.272-1.595 10.42-3.216 15.444-4.862-.219-1.564-.462-3.141-.726-4.73-.008-.046-.016-.092-.023-.138-.923-5.52-2.115-11.181-3.552-16.869-.0001-.003-.0001-.006-.002-.009-2.49-9.853-5.729-19.856-9.599-29.409-.753-1.858-1.53-3.7-2.33-5.52-4.859 2.257-9.7 4.459-14.523 6.608.699 1.597 1.379 3.213 2.039 4.845m26.471-10.813c4.236 9.08 7.7 18.855 10.303 28.587.079.295.157.59.234.884 1.525 5.814 2.734 11.576 3.61 17.12.009.054.017.107.025.16.265 1.686.498 3.353.7 4.996 5.264-1.849 10.38-3.728 15.348-5.637-.251-1.733-.532-3.483-.842-5.246-.002-.018-.006-.035-.009-.052-.944-5.369-2.158-10.858-3.628-16.355-.077-.286-.154-.573-.232-.86-2.772-10.18-6.432-20.431-10.898-30.04-1.01-2.177-2.064-4.321-3.156-6.423-4.803 2.384-9.588 4.717-14.355 6.998 1 1.916 1.97 3.875 2.9 5.867m37.18 10.59c.851 2.387 1.639 4.828 2.364 7.325 1.58 5.439 2.862 11.141 3.845 17.11.005.03.001.061.016.091.291 1.773.556 3.57.795 5.389 5.236-2.201 10.286-4.44 15.15-6.717-.281-1.798-.586-3.575-.916-5.332-.011-.059-.022-.119-.033-.178-1.088-5.756-2.438-11.288-4.051-16.598-.659-2.17-1.362-4.302-2.109-6.398-3.138-8.801-7.04-16.953-11.713-24.454-1.358-2.181-2.78-4.306-4.267-6.377-4.802 2.528-9.587 5.01-14.355 7.434 1.516 2.01 2.959 4.084 4.33 6.221 4.39 6.844 8.04 14.34 10.943 22.489"/>
    <path fill="#fc5b61"
          d="m322.2 300.13c-2.773 17.18 10.505 20.844 49.965 4.481.076.589.197 1.214.363 1.876 5.75 2.047 3.079 74.07 2.879 79.44-1.237 29.576 11.235 52.1 39.871 48.806-12.183-7.889-20.682-17.07-22.12-36.542-3.537-50.758-8.195-81.39-13.973-91.9.316-.13.616-.267.901-.41 3.817 1.901 6.22 6.244 7.207 13.03 5.267 25.929 25.611 31.24 47.813 16.781-15.03 2.896-26.489-6.78-34.5-17.344-4.399-6.03-8.63-10.17-12.692-12.435 8.242-.11 11.01-6.814 6.438-11.446.113 1.438-3.932 3.064-10.54 4.521l-.035-.187-4.781-1.406c-3.611.058-5.81 1.251-6.599 3.579-4.218.581-8.849 1.083-13.718 1.466-19.925 1.564-36.26.531-36.48-2.308"/>
    <path fill="#29304d"
          d="m383.56 291.67l1.402 5.922.24 1.013c-.408.129-.871.26-1.39.387.052 3.73-1.19 6.03-3.726 6.894.235.025.465.043.689.055 3.02.507 6.196 2.144 9.521 4.912-2.556-4-4.832-5.727-6.827-5.166h-.003c2.694-.765 4.02-3.534 3.982-7.585 4.421-1.209 6.994-2.481 6.904-3.632-.111-1.415-4.225-2.382-10.792-2.801m-5.193 31.465c-1.419-9.315-3.366-14.863-5.84-16.642 2.163.349 4.118.318 5.863-.093 1.208 2.513 2.169 6.81 2.883 12.891-2.191-6.939-3.676-10.877-4.453-11.813.516 3.649 1.032 8.868 1.547 15.657m2.408-17.194l2.691-.253-2.691.253m-47.14-2.964l1.236-5.072.7-2.875c-8.266 1.597-13.502 3.472-13.373 5.106.114 1.461 4.495 2.444 11.437 2.841"/>
    <g fill="#fcf32a">
        <circle cx="100.79" cy="373.97" r="22.571"/>
        <circle cx="258.21" cy="274.3" r="5.219"/>
        <circle cx="430.63" cy="245.12" r="12.134"/>
    </g>
</svg>