<svg xmlns="http://www.w3.org/2000/svg" shape-rendering="geometricPrecision" image-rendering="optimizeQuality"
     fill-rule="evenodd" clip-rule="evenodd" viewBox="0 0 700 700">
    <path fill="#fff"
          d="m53.14 310.26c-5.69-8.433-9.534-15.746-11.531-21.938 11.573-11.415 27.51-17.352 47.812-17.813 1.644 5.933 3.487 10.651 5.532 14.157l-41.813 25.594"/>
    <path fill="#f2f3fe"
          d="m57.819 292.65c-2.092-3.808-4.03-7.946-5.817-12.416-2.749 1.665-5.329 3.542-7.739 5.632-.908.788-1.793 1.606-2.653 2.455 1.4 4.341 3.708 9.233 6.923 14.676 1.371 2.321 2.907 4.741 4.608 7.262l1.71-1.047 8.947-5.477.857-.524c-1.83-2.389-3.571-4.969-5.224-7.743-.546-.918-1.085-1.858-1.612-2.818"/>
    <path fill="#fff"
          d="m334.07 330.26c1.184-25.23 1.775-37.842 1.775-37.842 2.414 4.296 6.126 8.404 11.14 12.326 11.247-5.01 22.448-13.56 33.602-25.647-5.765 36.623-8.647 54.935-8.647 54.935-15.576 26.289-23.364 39.434-23.364 39.434-9.67-28.804-14.506-43.21-14.506-43.21"/>
    <path fill="#fc5b61"
          d="m346.98 304.75c-4.198 5.185-7.01 9.221-8.437 12.11 1.788 4.293 3.818 8.04 6.088 11.238-1.157 3.25-2.677 10.342-4.295 20.845 2.607 8.377 5.441 16.41 8.235 24.53 2.096-3.622 5.479-9.435 10.149-17.438-1.437-9.169-3.259-18.262-5.464-27.28 3.03-5.875 4.935-10.826 5.709-14.855-3.95-3.246-7.945-6.296-11.985-9.149"/>
    <path fill="#fff"
          d="m600.26 221.95c7.364-3.743 13.99-8.493 19.876-14.251 13.394 12.07 23.04 29.01 28.934 50.797-9.381 7.03-18.902 12.158-28.56 15.391l-20.25-51.937"/>
    <path fill="#f2f3fe"
          d="m644.45 244.33c-6.199 4.307-12.61 8.06-19.231 11.25-3.325 1.602-6.702 3.064-10.132 4.386l4.634 11.886.043.11.75 1.925c2.921-.978 5.829-2.128 8.724-3.453 6.679-3.056 13.291-7.04 19.836-11.938-.227-.84-.459-1.672-.698-2.497-.057-.197-.114-.394-.172-.59-1.129-3.852-2.38-7.545-3.754-11.08"/>
    <path fill="#5159be"
          d="m334.07 330.26c.743-15.823 1.334-28.438 1.775-37.842l-2.162-.527c-5.13 7.167-5.168 6.442-16.849 23.984-122.87 23.931-197 11.124-222.4-38.423-20.973 2.923-36.35 11.548-46.12 25.876 23.842 51.756 77.47 78.76 160.87 81 29.569-.166 45.854 1.338 56.625 10.5 21.973 25.794 47.19 40.19 75.18 40.859 5.349.329 11.527.583 19.282-.459 39.478-3.539 72.74-30.31 99.49-76.76 8.239-19.539 24.989-33.16 50.25-40.874 73.6-24.12 113.51-39.09 119.72-44.907-4.695-22.17-12.696-40.666-24-55.5-60.667 37.03-129.79 64.35-207.37 81.952-10.503-14.197-15.754-21.295-15.754-21.295-1.345.837-2.02 1.256-2.02 1.256-3.27 20.01-6.151 38.38-8.642 55.04l-.004-.108c-7.552 12.281-15.34 25.424-23.365 39.434-2.737-8.153-7.572-22.555-14.506-43.21"/>
    <g fill="#29304d">
        <path d="m367.28 291.82c3.271.547 6.855 1.564 10.751 3.053.822-5.137 1.673-10.396 2.551-15.773-4.427 4.797-8.861 9.04-13.302 12.72"/>
        <path d="m336.83 338.51c-.495-8.88-1.074-10.212 3.065-18.598-.109-.237-.677-1.474-.841-1.851 2.59-4.404 5.267-8.237 7.95-11.386 2.136 1.692 4.383 3.529 6.629 5.46.525 7.105-.626 12.557-3.455 16.358 3.658 12.95 5.474 23.973 5.445 33.07 0 0 1.031-1.843 3.093-5.53-1.792-10.884-3.613-19.978-5.464-27.28.657-1.234 3.167-5.86 4.537-10.452 3.886 3.229 10.4 7.668 14.762 11.797.296-1.99.443-2.985.443-2.985-7.832-8.357-16.437-16.04-26.02-22.364-5.932 7.03-9.791 13.408-12.754 22.08l-.161 3.434 2.769 8.245"/>
        <path d="m353.26 328.75c.882-1.71 1.669-3.342 2.36-4.895-3.369.958-6.203 2.515-8.501 4.668-.812-.111-1.64-.255-2.485-.43-.817 2.298-1.75 6.409-2.799 12.33 3.704-4.445 7.694-7.579 11.971-9.401-.179-.758-.362-1.515-.547-2.271"/>
        <path d="m342.11 324.14c5.2-3.825 10.635-6.459 16.305-7.903.221-.814.406-1.596.55-2.346-1.822-1.498-3.654-2.953-5.496-4.367-5.515 2.127-9.993 5.687-13.427 10.679.66 1.378 1.35 2.69 2.068 3.937"/>
        <path d="m355.4 338.1c-4.72 2.38-9.698 6.481-14.716 11.872l2.319 6.909c4.765-4.246 9.504-7.641 14.11-10.205-.534-2.866-1.106-5.725-1.716-8.576"/>
        <path d="m348.57 373.47l-2.906-8.658c4.906-3.802 9.203-6.544 12.926-8.252-4.125 6.704-7.465 12.341-10.02 16.91"/>
        <ellipse cx="351.58" cy="385.02" rx="2.618" ry="2.577"/>
        <ellipse cx="351.58" cy="404.03" rx="2.618" ry="2.577"/>
        <ellipse cx="351.58" cy="423.04" rx="2.618" ry="2.577"/>
        <path d="m48.3 303.33c2.314-3.253 4.521-5.945 6.16-7.407 16.933 38.07 53.29 62.788 116.95 76.23 62.63 12.571 98.1-1.161 106.09 35.03-4.854-4.681-8.755-8.797-11.701-12.348-5.624-4.999-14.313-8.136-26.07-9.41-8.236-.886-19.536-1.284-33.9-1.193-20.268-.543-40.28-3.104-60.03-7.68-49.826-13.03-82.48-37.21-97.5-73.22"/>
        <path d="m629.73 272.69c-1.557-6.484-2.335-9.725-2.335-9.725-20.875 12.07-65.733 27.84-134.95 52.18-22.559 7.415-40.05 29.451-42.15 58.2 3.397-4.728 6.552-9.685 9.464-14.872 7.926-18.393 22.919-31.439 44.98-39.14 68.78-21.82 110.44-37.37 124.99-46.646"/>
    </g>
    <circle fill="#fc5b61" cx="579.56" cy="376.88" r="15.919"/>
    <circle fill="#86e5c7" cx="182.71" cy="321.49" r="10.83"/>
</svg>