<svg xmlns="http://www.w3.org/2000/svg" shape-rendering="geometricPrecision" image-rendering="optimizeQuality"
     fill-rule="evenodd" clip-rule="evenodd" viewBox="0 0 700 700">
    <path fill="#fff"
          d="m274.83 405.98c51.835 55.8 147.77 34.18 185.44-49.688 6.987-16.807 22.425-29.24 46.31-37.31 57.38-18.925 104.32-38.36 140.81-58.31-6.04-16.468-17.1-33.22-33.19-50.25-67.844 43.535-142.44 68.98-220.79 85.964l-66.937 16.313c-64.22 13.02-197.77 36.407-234.65-39.28-21.367 9.838-35.929 19.901-43.686 30.19 33.503 62.64 109.48 78.13 174.94 79.69 23.335-1.069 40.585 6.493 51.75 22.687"/>
    <path fill="#f2f3fe"
          d="m352.39 436.71c8.558-.518 13.13-1.594 19.294-2.905l21.73-137.42-8.158-14.438c-9.264 7.17-22.23 14.638-35.16 19.03-6.239-1.81-12.989-6.091-17.06-9.657l-6.56 21.376c14.08 68.785 21.997 106.8 25.913 124.01"/>
    <path fill="#5159be"
          d="m397.19 460.18c-31.33-8.197-48.31-53.26-50.92-135.2 0 0-1.744-4.61-5.231-13.83.582-.89 1.1-1.683 1.555-2.38 1.637-2.505 2.456-3.758 2.456-3.758 1.635.155 3.392.153 5.272-.007.003-.0001.006-.0001.009-.0001 2.397-.172 4.762-.576 7.094-1.211.37.369.738.733 1.101 1.095 2.274 2.261 4.414 4.389 6.421 6.385l-5.271 12.583c5.77 64.11 24.09 104.18 54.951 120.2 2.933 8.04 4.339 12.11 4.219 12.187-14.438 2.626-21.656 3.938-21.656 3.938"/>
    <g fill="#29304d">
        <path d="m334.23 326.04l9.01-9.07-1.21-3.198c4.911-8.537 14.192-8.739 21.803.155l-1.282 3.063 24.541 19.4.423-2.678c0 0-7.523-7.48-22.569-22.441l-7.522-7.48c-4.207 1.113-8.332 1.52-12.375 1.219-2.674 4.092-4.01 6.138-4.01 6.138-2.554 3.91-6.329 9.686-11.323 17.33l22.679 108.23 2.229-.156-20.393-110.51"/>
        <path d="m336.88 288.67c-2.164.89-3.541 1.11-3.844 2.648 1.262 1.068 2.221 1.835 2.876 2.301l1.206-4.952-.238.003"/>
        <path d="m381.85 284.47c-.587-2.479-.88-3.719-.88-3.719 2.746.085 4.173.249 4.282 1.193-2.268 1.684-3.402 2.526-3.402 2.526"/>
    </g>
    <g fill="#f2f3fe">
        <path d="m274.83 405.98c4.535 4.853 9.278 9.07 14.229 12.646-12.727-29.13-24.24-42.935-55.59-43.27-89.84-.959-149.26-27.426-178.26-79.4-2.239 1.966-4.593 4.515-7.06 7.647 18.88 33.74 49.38 56.44 91.5 68.09 20.904 6.492 48.715 10.357 83.43 11.595 14.408-.948 27.16 2.111 38.27 9.176 5.58 3.902 10.07 8.406 13.479 13.511"/>
        <path d="m647.4 260.67c-1.512-4.03-3.058-7.618-4.639-10.754-27.452 16.432-78.859 38.648-154.66 66.914-24.452 10.794-35.965 32.22-37.673 57.745 3.167-4.751 6.338-10.596 9.513-17.534 5.683-13.42 15.693-23.765 30.03-31.04 8.323-4.203 18.203-7.999 29.639-11.386 53.765-18.532 96.36-36.515 127.79-53.949"/>
    </g>
    <g fill="none" stroke="#29304d" stroke-linejoin="round" stroke-linecap="round" stroke-width="2"
       stroke-miterlimit="22.926">
        <path d="m309.03 352.27c-3.927-26.363 6.209-41.867 19.03-52.38m65.47-12.301c11.445 6.979 23.22 19.407 35.32 32.995 20.423 22.802 39.17 35.678 60 31.876"/>
        <path d="m310.33 413.72c-20.523-4.192-20.957-24.678-1.3-61.45 27.359 32.94 32.29 52.737 14.8 59.39"/>
    </g>
    <g fill="#29304d">
        <circle cx="310.33" cy="413.72" r="3.139"/>
        <circle cx="323.18" cy="411.52" r="3.139"/>
        <circle cx="497.66" cy="350.77" r="10.825"/>
    </g>
    <g fill="none" stroke-miterlimit="22.926">
        <path stroke="#29304d" stroke-width="2" stroke-linecap="round" stroke-linejoin="round"
              d="m299.45 372.89c7.53-9.07 14.34-9.481 22.582-3.509"/>
        <path stroke="#000" stroke-width=".567" d="m346.26 324.98c4.59 1.516 9.06 1.142 13.406-1.124"/>
    </g>
    <g fill="#fc5b61">
        <path d="m359.9 372.76c1.354 0 2.452-1.063 2.452-2.374 0-1.312-1.098-2.376-2.452-2.376-1.354 0-2.451 1.064-2.451 2.376 0 1.311 1.097 2.374 2.451 2.374"/>
        <path d="m348.59 361.14c1.217-.139 2.161-1.142 2.161-2.358 0-1.312-1.098-2.375-2.452-2.375-.055 0-.11.002-.164.005.145 1.594.297 3.171.455 4.728"/>
        <path d="m357.45 347.17c0 1.311 1.097 2.375 2.451 2.375 1.354 0 2.452-1.064 2.452-2.375 0-1.312-1.098-2.375-2.452-2.375-1.354 0-2.451 1.063-2.451 2.375"/>
        <path d="m362.35 393.59c0-1.312-1.098-2.375-2.452-2.375-1.354 0-2.451 1.063-2.451 2.375 0 1.312 1.097 2.375 2.451 2.375 1.354 0 2.452-1.063 2.452-2.375"/>
        <path d="m369.05 381.99c0 1.129.814 2.075 1.905 2.316-.416-1.303-.823-2.624-1.22-3.963-.424.427-.685 1.01-.685 1.647"/>
        <path d="m362.35 416.8c0-1.312-1.098-2.375-2.452-2.375-.328 0-.641.062-.927.176.505 1.535 1.026 3.03 1.561 4.494 1.047-.271 1.818-1.196 1.818-2.295"/>
        <path d="m369.05 405.19c0 1.312 1.098 2.376 2.452 2.376 1.354 0 2.451-1.064 2.451-2.376 0-1.311-1.097-2.375-2.451-2.375-1.354 0-2.452 1.064-2.452 2.375"/>
        <path d="m383.11 414.43c-1.354 0-2.451 1.063-2.451 2.375 0 1.311 1.097 2.375 2.451 2.375 1.354 0 2.452-1.064 2.452-2.375 0-.132-.011-.261-.033-.387-.318-.499-.634-1-.948-1.513-.409-.298-.919-.475-1.471-.475"/>
        <path d="m372.85 426.42c-.387-.247-.85-.39-1.347-.39-1.354 0-2.452 1.063-2.452 2.375 0 1.312 1.098 2.375 2.452 2.375.233 0 .458-.032.672-.09 1.027-.283 1.779-1.199 1.779-2.285 0-.83-.439-1.56-1.104-1.985"/>
        <path d="m392.26 428.4c0 1.312 1.097 2.375 2.451 2.375.603 0 1.155-.211 1.582-.56-1.1-1.146-2.177-2.337-3.23-3.573-.494.435-.803 1.062-.803 1.758"/>
        <path d="m385.56 440.01c0-1.311-1.098-2.375-2.452-2.375-1.354 0-2.451 1.064-2.451 2.375 0 1.312 1.097 2.375 2.451 2.375 1.354 0 2.452-1.063 2.452-2.375"/>
        <path d="m394.71 449.24c-1.354 0-2.451 1.063-2.451 2.375 0 1.311 1.097 2.375 2.451 2.375 1.355 0 2.452-1.064 2.452-2.375 0-1.312-1.097-2.375-2.452-2.375"/>
        <path d="m403.87 440.01c0 1.312 1.098 2.375 2.452 2.375 1.15 0 2.115-.767 2.38-1.803-1.248-.819-2.473-1.682-3.675-2.589-.694.419-1.157 1.166-1.157 2.02"/>
        <path d="m416.63 449.6c-.695.419-1.158 1.166-1.158 2.02 0 1.311 1.098 2.375 2.452 2.375.083 0 .164-.004.245-.012-.366-1.077-.879-2.537-1.539-4.381"/>
        <path d="m348.3 337.94c1.354 0 2.452-1.064 2.452-2.376 0-1.311-1.098-2.374-2.452-2.374-.653 0-1.246.247-1.686.65.056 1.208.115 2.407.178 3.597.416.315.939.503 1.508.503"/>
        <path d="m357.45 323.96c0 .288.053.565.15.82.693-.263 1.385-.575 2.072-.933l.909-2.17c-.216-.06-.444-.092-.68-.092-1.354 0-2.451 1.063-2.451 2.375"/>
        <path d="m348.3 314.74c1.354 0 2.451-1.064 2.451-2.375 0-1.312-1.097-2.375-2.451-2.375-1.354 0-2.452 1.063-2.452 2.375 0 1.311 1.098 2.375 2.452 2.375"/>
    </g>
    <path fill="#fff"
          d="m371.95 250.31c-8.494-3.665-10.599-10.254-6.314-19.766-22.09 9.652-38.59 12.433-49.5 8.344l-4.717 8.252 1.626 4.935-1.317 8.867 1.538 3.714.704 9.776 3.056 3.02 3.516 4.471c22.1 5.161 39.24-5.376 51.41-31.61m-53.5 28.943c.643.931 1.341 1.82 2.097 2.667l-2.097-2.667"/>
    <g fill="#f2f3fe">
        <path d="m313.05 252.07l-1.626-4.935c18.991 1.205 36.838-.507 52.29-10.578-.136.854-.209 1.568-.219 2.142-10.01 8.996-35.636 13.922-50.44 13.371"/>
        <path d="m313.27 264.65l-1.538-3.714c23.08-.303 40.77-6.93 53.06-16.506.682 1.025 1.035 1.545 1.056 1.559-18.715 14.324-31.06 17.11-52.574 18.661"/>
        <path d="m367.87 247.95c-10.914 15.737-28.879 24.562-53.896 26.476 1.162 1.147 2.181 2.153 3.056 3.02 26.953-2.648 44.21-12.26 51.758-28.833l-.918-.66"/>
    </g>
    <circle fill="#fcf32a" cx="485.56" cy="264.39" r="14.796"/>
    <circle fill="#86e5c7" cx="217.47" cy="374.9" r="10.09"/>
    <circle fill="#5159be" cx="183.37" cy="277.68" r="7.133"/>
</svg>