<svg xmlns="http://www.w3.org/2000/svg" shape-rendering="geometricPrecision" image-rendering="optimizeQuality"
     fill-rule="evenodd" clip-rule="evenodd" viewBox="0 0 700 700">
    <ellipse fill="#29304d" transform="matrix(1.15628.23558-.26341.97219 379.59 239.54)" rx="9.363" ry="18.945"/>
    <path fill="#5159be"
          d="m379 254.94c16.06 3.09 21.472-26.343 5.659-29.395-4.01-.772-8.531 5.182-10.09 13.299-1.563 8.117.423 15.324 4.434 16.1"/>
    <path fill="#29304d"
          d="m371.4 177c18.333 2.406 22.361 24.06 12.797 64.92-1.023 5.478 5.219 7.639 7.621 1.247 8.856-44.35.649-67.38-23.17-68.58-.202.824.612 1.903 2.751 2.408l-.002.002"/>
    <path fill="#5159be"
          d="m368.97 175.71c21.536-.09 27.22 21.601 17.04 65.09-1.023 5.478 4.094 7.218 6.121.92 8.815-44.14 1.518-66.863-21.876-68.19-1.503.146-2.059 1.22-1.283 2.18"/>
    <ellipse fill="#29304d" cx="344.68" cy="251.34" rx="4.219" ry="4.266"/>
    <path fill="none" stroke="#29304d" stroke-width="2" stroke-linecap="round" stroke-linejoin="round"
          stroke-miterlimit="22.926" d="m344.68 251.34c9.776 3.367 19.266 2.161 28.471-3.619"/>
    <path fill="#fff"
          d="m329.26 299.61c-1.837 11.338-7.558 14.554-23.478 19.2-55.42 8.07-95.2 9.633-119.34 4.688-8.881 20.441-12.506 40.38-10.875 59.812 36.422.42 61.3 2.607 74.63 6.563 7.123 3.536 13.685 9.598 19.688 18.19 47.953 51.19 131.7 42.5 176.44-23.812 9.631-14.657 16.194-25.782 19.688-33.375 10.436-23.19 38.5-19.19 98.82-44.25-.049-29.02-7.207-48.08-26.408-60.56-52.833 21.651-96.49 46.652-140.09 49.688-2.146.364-4.097-2.476-5.221-4.906.356 2.588-13.646 6.651-31.27 9.07-17.628 2.422-32.21 2.286-32.563-.303"/>
    <g fill="#29304d" stroke="#000" stroke-width=".567" stroke-miterlimit="22.926">
        <path d="m334.02 301.38l.848-3.479.492-2.02c-3.962 1.346-6.243 2.66-6.097 3.724.12.87 1.847 1.463 4.757 1.775z"/>
        <path d="m382.88 288.8l1.555 6.567c5.525-1.62 8.844-3.256 8.668-4.533-.182-1.325-4.089-2.01-10.223-2.034z"/>
    </g>
    <g fill="#fcf32a">
        <path d="m185.59 363.2c2.535 0 4.59-1.99 4.59-4.446 0-2.456-2.055-4.447-4.59-4.447-2.535 0-4.59 1.991-4.59 4.447 0 2.456 2.055 4.446 4.59 4.446"/>
        <path d="m203.97 377.44c-.773.795-1.246 1.867-1.246 3.046 0 .092.003.183.008.274.088 1.395.839 2.616 1.952 3.371 1.645.081 3.255.167 4.829.259 1.165-.617 2.023-1.709 2.298-3.01.061-.29.093-.59.093-.897 0-.843-.242-1.63-.662-2.302-.805-1.285-2.263-2.145-3.928-2.145-1.318 0-2.507.539-3.344 1.401"/>
        <path d="m224.45 358.76c0 2.456 2.055 4.446 4.59 4.446 2.535 0 4.59-1.99 4.59-4.446 0-2.456-2.055-4.447-4.59-4.447-2.535 0-4.59 1.991-4.59 4.447"/>
        <path d="m207.31 341.48c2.535 0 4.59-1.991 4.59-4.447 0-2.456-2.055-4.447-4.59-4.447-2.535 0-4.59 1.991-4.59 4.447 0 2.456 2.055 4.447 4.59 4.447"/>
        <path d="m250.77 332.59c-2.535 0-4.59 1.991-4.59 4.447 0 2.456 2.055 4.447 4.59 4.447 2.535 0 4.59-1.991 4.59-4.447 0-2.456-2.055-4.447-4.59-4.447"/>
        <path d="m272.49 354.31c-2.535 0-4.59 1.991-4.59 4.447 0 2.456 2.055 4.446 4.59 4.446 2.535 0 4.59-1.99 4.59-4.446 0-2.456-2.055-4.447-4.59-4.447"/>
        <path d="m272.49 397.76c-.54 0-1.059.091-1.541.257-1.777.613-3.049 2.258-3.049 4.19 0 2.456 2.055 4.446 4.59 4.446 1.569 0 2.953-.762 3.781-1.925.51-.716.809-1.585.809-2.521 0-2.456-2.055-4.447-4.59-4.447"/>
        <path d="m250.77 376.04c-.54 0-1.059.091-1.54.257-1.778.613-3.05 2.258-3.05 4.19 0 2.456 2.055 4.447 4.59 4.447 1.569 0 2.953-.763 3.781-1.925.51-.717.809-1.586.809-2.522 0-2.456-2.055-4.447-4.59-4.447"/>
        <path d="m289.63 380.49c0 2.456 2.055 4.447 4.59 4.447 2.535 0 4.59-1.991 4.59-4.447 0-2.456-2.055-4.447-4.59-4.447-2.535 0-4.59 1.991-4.59 4.447"/>
        <path d="m298.61 422.63c-.575-1.819-2.323-3.141-4.389-3.141-.235 0-.467.017-.693.05-2.206.323-3.897 2.168-3.897 4.396 0 .236.019.468.055.695 1.943 1.254 3.917 2.436 5.919 3.546 1.859-.569 3.206-2.253 3.206-4.241 0-.454-.07-.892-.201-1.305"/>
        <path d="m311.36 402.21c0 2.456 2.055 4.446 4.59 4.446 2.535 0 4.59-1.99 4.59-4.446 0-2.456-2.055-4.447-4.59-4.447-2.535 0-4.59 1.991-4.59 4.447"/>
        <path d="m315.94 363.2c2.535 0 4.59-1.99 4.59-4.446 0-2.456-2.055-4.447-4.59-4.447-2.535 0-4.59 1.991-4.59 4.447 0 2.456 2.055 4.446 4.59 4.446"/>
        <path d="m294.22 341.48c2.535 0 4.59-1.991 4.59-4.447 0-2.456-2.055-4.447-4.59-4.447-2.535 0-4.59 1.991-4.59 4.447 0 2.456 2.055 4.447 4.59 4.447"/>
        <path d="m314.11 319.38c.562.238 1.182.369 1.834.369 1.21 0 2.311-.453 3.131-1.195.897-.811 1.459-1.968 1.459-3.251 0-.658-.148-1.283-.413-1.845-2.274 1.268-5.05 2.388-8.432 3.516.45 1.076 1.324 1.943 2.421 2.406"/>
        <path d="m337.67 332.59c-2.535 0-4.59 1.991-4.59 4.447 0 2.456 2.055 4.447 4.59 4.447 2.535 0 4.59-1.991 4.59-4.447 0-2.456-2.055-4.447-4.59-4.447"/>
        <path d="m359.4 354.31c-2.535 0-4.59 1.991-4.59 4.447 0 2.456 2.055 4.446 4.59 4.446 2.535 0 4.59-1.99 4.59-4.446 0-2.456-2.055-4.447-4.59-4.447"/>
        <path d="m342.26 380.49c0-2.456-2.055-4.447-4.59-4.447-2.535 0-4.59 1.991-4.59 4.447 0 2.456 2.055 4.447 4.59 4.447 2.535 0 4.59-1.991 4.59-4.447"/>
        <path d="m342.26 423.94c0-2.456-2.055-4.446-4.59-4.446-2.535 0-4.59 1.99-4.59 4.446 0 2.456 2.055 4.447 4.59 4.447 2.535 0 4.59-1.991 4.59-4.447"/>
        <path d="m354.81 402.21c0 2.456 2.055 4.446 4.59 4.446 2.535 0 4.59-1.99 4.59-4.446 0-2.456-2.055-4.447-4.59-4.447-2.535 0-4.59 1.991-4.59 4.447"/>
        <path d="m381.12 419.49c-2.535 0-4.59 1.99-4.59 4.446 0 2.277 1.767 4.154 4.045 4.416.179.02.36.031.545.031 1.396 0 2.646-.604 3.487-1.556.688-.777 1.103-1.787 1.103-2.891 0-2.456-2.055-4.446-4.59-4.446"/>
        <path d="m398.26 402.21c0 2.456 2.055 4.446 4.59 4.446 2.535 0 4.59-1.99 4.59-4.446 0-2.456-2.055-4.447-4.59-4.447-2.535 0-4.59 1.991-4.59 4.447"/>
        <path d="m381.12 384.93c2.535 0 4.59-1.991 4.59-4.447 0-2.456-2.055-4.447-4.59-4.447-2.535 0-4.59 1.991-4.59 4.447 0 2.456 2.055 4.447 4.59 4.447"/>
    </g>
    <path fill="#fc5b61"
          d="m508.03 220.75c0 8.225 6.883 14.894 15.375 14.894 8.492 0 15.376-6.669 15.376-14.894 0-8.227-6.884-14.896-15.376-14.896-8.492 0-15.375 6.669-15.375 14.896"/>
    <g fill="#fcf32a">
        <path d="m100.72 352.17c0 8.02 6.716 14.531 15 14.531 8.284 0 15-6.506 15-14.531 0-8.03-6.716-14.532-15-14.532-8.284 0-15 6.506-15 14.532"/>
        <path d="m381.12 341.48c2.535 0 4.59-1.991 4.59-4.447 0-2.456-2.055-4.447-4.59-4.447-2.535 0-4.59 1.991-4.59 4.447 0 2.456 2.055 4.447 4.59 4.447"/>
        <path d="m359.4 319.75c2.535 0 4.59-1.99 4.59-4.446 0-2.456-2.055-4.447-4.59-4.447-2.535 0-4.59 1.991-4.59 4.447 0 2.456 2.055 4.446 4.59 4.446"/>
        <path d="m398.26 315.31c0 2.456 2.055 4.446 4.59 4.446 2.535 0 4.59-1.99 4.59-4.446 0-2.456-2.055-4.447-4.59-4.447-2.535 0-4.59 1.991-4.59 4.447"/>
        <path d="m420.29 295.17c.66 1.672 2.331 2.86 4.289 2.86 2.535 0 4.59-1.991 4.59-4.447 0-.369-.047-.727-.134-1.07-.183-.718-.546-1.366-1.04-1.899-2.632.696-5.256 1.335-7.875 1.91-.086.339-.131.694-.131 1.059 0 .559.106 1.094.301 1.587"/>
        <path d="m446.3 310.86c-2.535 0-4.59 1.991-4.59 4.447 0 2.456 2.055 4.446 4.59 4.446 2.535 0 4.59-1.99 4.59-4.446 0-2.456-2.055-4.447-4.59-4.447"/>
        <path d="m429.17 337.03c0-2.456-2.055-4.447-4.59-4.447-2.535 0-4.59 1.991-4.59 4.447 0 2.456 2.055 4.447 4.59 4.447 2.535 0 4.59-1.991 4.59-4.447"/>
        <path d="m446.3 354.31c-2.535 0-4.59 1.991-4.59 4.447 0 2.456 2.055 4.446 4.59 4.446 1.742 0 3.257-.94 4.04-2.325.354-.63.555-1.353.555-2.121 0-.272-.025-.539-.074-.797-.387-2.076-2.262-3.65-4.516-3.65"/>
        <path d="m429.17 380.49c0-2.456-2.055-4.447-4.59-4.447-2.535 0-4.59 1.991-4.59 4.447 0 2.456 2.055 4.447 4.59 4.447 2.535 0 4.59-1.991 4.59-4.447"/>
        <path d="m466.31 341.16c.531.207 1.111.322 1.718.322 2.535 0 4.59-1.991 4.59-4.447 0-.895-.273-1.728-.743-2.425-.818-1.217-2.236-2.02-3.847-2.02-2.535 0-4.59 1.991-4.59 4.447 0 1.866 1.186 3.463 2.868 4.123.0001.0001.003.0001.004.002"/>
        <path d="m485.16 315.31c0 2.456 2.055 4.446 4.59 4.446 2.535 0 4.59-1.99 4.59-4.446 0-2.456-2.055-4.447-4.59-4.447-2.535 0-4.59 1.991-4.59 4.447"/>
        <path d="m468.03 298.03c2.535 0 4.59-1.991 4.59-4.447 0-2.456-2.055-4.447-4.59-4.447-2.535 0-4.59 1.991-4.59 4.447 0 2.456 2.055 4.447 4.59 4.447"/>
        <path stroke="#fcf32a" stroke-width=".567" stroke-miterlimit="22.926"
              d="m485.61 273.78c.74 1.493 2.316 2.523 4.14 2.523 2.535 0 4.59-1.99 4.59-4.446 0-.395-.054-.779-.153-1.143-.521-1.902-2.31-3.304-4.437-3.304-.14 0-.278.006-.415.018-.923.408-1.843.814-2.761 1.219-.872.809-1.414 1.948-1.414 3.21 0 .689.161 1.341.45 1.923z"/>
        <path d="m511.48 289.13c-2.535 0-4.59 1.991-4.59 4.447 0 2.036 1.413 3.753 3.34 4.28.398.109.817.167 1.25.167 1.744 0 3.261-.943 4.04-2.33.353-.63.553-1.351.553-2.117 0-2.456-2.055-4.447-4.59-4.447"/>
        <path d="m533.21 310.86c-2.535 0-4.59 1.991-4.59 4.447 0 1.616.89 3.03 2.222 3.81 2.155-.697 4.371-1.429 6.648-2.202.2-.498.31-1.041.31-1.608 0-2.456-2.055-4.447-4.59-4.447"/>
        <path d="m550.34 293.58c0 2.456 2.055 4.447 4.59 4.447 2.535 0 4.59-1.991 4.59-4.447 0-2.456-2.055-4.447-4.59-4.447-2.535 0-4.59 1.991-4.59 4.447"/>
        <path d="m533.21 276.3c2.535 0 4.59-1.99 4.59-4.446 0-2.456-2.055-4.447-4.59-4.447-2.535 0-4.59 1.991-4.59 4.447 0 2.456 2.055 4.446 4.59 4.446"/>
    </g>
    <path fill="#29304d" fill-rule="nonzero"
          d="m400.59 356.84c.621-1.289 1.242-1.933 2.484-1.933 1.372 0 2.484 1.155 2.484 2.578 0 2.578-2.484 5.156-4.968 7.734-2.485-2.578-4.969-5.156-4.969-7.734 0-1.423 1.113-2.578 2.484-2.578 1.242 0 1.864.644 2.485 1.933"/>
</svg>