<svg xmlns="http://www.w3.org/2000/svg" shape-rendering="geometricPrecision" image-rendering="optimizeQuality"
     fill-rule="evenodd" clip-rule="evenodd" viewBox="0 0 700 700">
    <path fill="#29304d"
          d="m416.16 290.77c-8.05 5.82 4.408 106.23 35.645 86.93-30.24 63.15-130.89 101.75-179.16 27.844 19.433-3.454 29.494-33.365 30.3-87.42l18.87-3.873c-2.739 59.943 57.24 53.14 65.72 16.08 2.381-10.401 4.586-24.05 8.392-32.23l20.232-7.336"/>
    <path fill="#fff"
          d="m400.35 381.48c-29.43 6.831-58.13 9.723-86.11 8.672.529 15.892 1.345 30.745 2.446 44.558 30.623 3.124 59.35 1.609 84.27-4.333 3.391-2.041 6.279-3.563 9.993-6.226l-10.597-42.671"/>
    <path fill="#29304d" fill-rule="nonzero"
          d="m330.78 396.88l.454 13.858 7.07-.233-.223-6.783 6.494-.214.079 2.403-13.11 13.91-.015.008.377 11.503 20.649-.678-.232-7.07-13.576.446-.052-1.588 13.12-13.911.016-.008-.404-12.316-20.649.677m22.19-.838c.069.52 1.24 9.329 1.334 10.04l7.01-.933-.401-3.02 6.441-.856.218 1.637-7.02 26.964 7.02-.933 7.03-26.964-1.151-8.653c-.139.018-19.866 2.641-20.479 2.722m23.05-3.296l1.41 6.935 3.836-.78 5.468 26.897 6.943-1.412-6.878-33.832-10.779 2.192"/>
    <g fill="#5159be">
        <path d="m449.75 369.49l-7.236 10.55c.087.012.175.023.263.033 2.813.323 5.822-.388 9.02-2.366 1.662-2.876 2.215-5.344.641-12.139l-.644.939-.141.205-1.906 2.778"/>
        <path d="m414.09 297c2.162-.634 4.379-1.291 6.647-1.969-.8-1.622-2.259-5.04-4.584-4.261-1.01.73-1.696 2.947-2.063 6.23"/>
    </g>
    <g fill="#fc5b61">
        <path fill-rule="nonzero"
              d="m666.78 356.82c-33.15-22.09-78.86-49.601-120.21-39.28-83.39 20.812-90.7 105.21-194.02 125.14l-2.744-1.495 5.442-4.897-5.084-1.862 3.317-3.427-3.581-3.689 5.328-3.449-6.164-3.981 2.259-1.999c104.41-18.682 111.39-99.34 195.2-120.26 41.682-10.403 80.06.332 113.66 26.344l6.593 32.859m-362.07 89.47c-17.667-1.887-40.494-9.366-48.898-23.346-6.214-10.339-5.463-23.814-2.313-37.801 1.611.501 3.153 1.099 4.627 1.796-2.412 7.917-3.574 13.675-1.986 16.318 9.119 15.169 35.78 18.366 53.695 18.398l3.498 3.498-5.906 3.75 6 2.719-7.782 2.719 8.344 5.437-9.279 6.512m-34.966-121.02c5.54-34.402-4.934-57.8-75.79-75.13l-17.203-31.17c76.862 18.799 104.48 64.23 98.54 105.71l-5.549.587"/>
        <path d="m588.07 223.87c4.192-1.603 10.83 5.08 16.394 15.776.226-.041.449-.078.669-.108.398.012 1.898 2.803.808 3.096-.0001 0 .994 2.198 1.082 2.403 3.4 6.097 8.195 11.07 14.387 14.925-.675 1.717-2.456 2.967-5.344 3.749-1.176-.083-2.316-.23-3.423-.439 1.587 8.971.773 15.808-2.574 17.384l-11.8 5.684c-.163.096-.333.178-.51.246-1.696.649-3.793-.06-6.06-1.841 3.149-1.309 6.289-2.649 9.411-4.02.897-6.03-.708-15.838-4.684-26.23-.679-1.776-1.398-3.493-2.148-5.139-.768-1.361-1.483-2.817-2.146-4.371-2.615-4.938-5.453-8.986-8.153-11.708-3.705 1.875-7.572 3.761-11.577 5.648.008-1.01.064-1.955.169-2.829-.262-.251-.503-.528-.717-.832-2.348-3.317-.722-8.504 3.631-11.585 4.346-3.075 9.767-2.888 12.12.413.149-.083.302-.155.461-.216"/>
    </g>
    <g fill="#29304d">
        <path d="m600.98 262.05c5.223 1.688 9.325 3.736 12.307 6.145-.127-1.545-.343-3.191-.649-4.916-2.842-.537-5.458-1.49-7.848-2.857-4.201-2.402-7.704-6.086-10.507-11.05.747 1.641 1.464 3.354 2.141 5.125.892 2.333 1.665 4.636 2.317 6.873.768.221 1.514.448 2.239.682"/>
        <path d="m576 229.7l11.09-5.358c-2.72-1.285-6.569-.809-9.818 1.49-3.484 2.465-5.221 6.28-4.572 9.406.487-2.907 1.583-4.88 3.304-5.538"/>
        <path d="m583.92 233.31c-2.733-2.477-5.286-3.552-7.294-2.784-2.22.849-3.433 3.82-3.669 8.14 3.786-1.79 7.448-3.577 10.963-5.356"/>
        <path d="m601.02 280.77c-2.764 1.215-5.543 2.405-8.329 3.569 1.925 1.299 3.701 1.759 5.175 1.195.176-.067.347-.149.51-.245.006-.004.012-.007.017-.001 1.274-.749 2.147-2.318 2.627-4.509"/>
        <path d="m606.33 241.9c.027.413-.102.659-.386.738l-13.309 3.47c-.112-.499.223-.745.378-.79l13.317-3.418"/>
    </g>
</svg>