<svg xmlns="http://www.w3.org/2000/svg" shape-rendering="geometricPrecision" image-rendering="optimizeQuality"
     fill-rule="evenodd" clip-rule="evenodd" viewBox="0 0 700 700">
    <path fill="none" stroke="#000" stroke-width=".567" stroke-miterlimit="22.926"
          d="m345.7 393.99c18.74-54.716 46.28-88.3 82.64-100.76"/>
    <path fill="#5159be"
          d="m77.04 344.83c-9.919-8.831-18.428-18.543-26.585-32.836 5.756-11.441 25.389-32.491 42.65-38.526 7.343 12.178 22.289 24.785 22.289 24.785-11.691 9.32-31.784 29.363-38.35 46.577"/>
    <path fill="#fff"
          d="m386.41 299.84c15.979-4.985 105.08-31.496 133.54-44.532 28.666-13.13 58.31-30.17 64.09-25.354 15.866 12.318 25.907 32.811 32.766 57.78 4.624 11.56-22.919 21.707-57.55 27.22-57.08 14.334-93.83 34.865-104.63 55.957-36.734 69.885-138.97 95.59-185.38 32.29-6.614-11.413-15.226-16.803-32.528-17.581-42.925 2.272-85.03-8.716-126.01-20.03-29.22-8.06-34.724-7.369-33.667-20.765 5.304-14.06 22.05-33.901 38.35-46.577 18.252-5.455 9.07 20.969 63.1 28.12 24.19 2.916 123.5-10.168 148.77-13.01-2.599 7.486-.589 16.623.607 24.26 8.358 1.899 18.354 1.933 29.99.102 1.334-3.301 2.766-6.501 4.386-9.673 6.171-12.09 13.989-21.695 23.432-27.452.254-.26.5-.516.738-.769m-40.716 94.16c.027-.358.054-.715.082-1.072-.028.357-.055.714-.082 1.072"/>
    <g fill="#5159be">
        <path d="m645.55 264.25l-28.735 23.477c-7.711-26.35-19.992-48.15-32.766-57.78l32.499-18.561c16.13 7.502 32.02 41.09 29 52.864"/>
        <path d="m441.91 278.38c-20.77-4.93-43.549-1.702-61.44.228l1.17 4.939 3.322 14.04.715 3.02c-23.504 14.33-36.94 52.52-39.978 93.39-26.623-25.632-49.12-55.08-52.52-76.56 15.325-11.941 29.692-20.899 43.787-27.23l-3.23 12.701-.107.118-3.303 13.558c-1.338.244-3.113.564-4.449.801 1.528 27.746 8.393 52.24 19.826 76.61 14.997-44.954 60.42-70.82 88.58-108.9 6.382-2 11.805-3.721 16.27-5.152-2.899-.016-2.988-.388-8.634-1.551"/>
    </g>
    <path fill="#fff"
          d="m327.2 173.52c23.351 8.07 49.623 14.459 80.88 36.27 12.643 7.084 20.311 7.404 24.05 3.903 5.618-5.268 2.335-19.19-6.302-31.729-21.532-31.28-70.37-50.17-104.57-45.28-30.349 4.341-12.466 27.374 5.949 36.841"/>
    <g fill="none" stroke="#fff" stroke-linejoin="round" stroke-linecap="round" stroke-width="2"
       stroke-miterlimit="22.926">
        <path d="m345.98 378.52c20.968-45.901 59.39-59.09 84.69-104.37"/>
        <path d="m349.86 358.96c21.963-38.29 49.01-43.16 72.53-86.19"/>
        <path d="m339.84 376.98c-21.963-24.03-36.15-44.38-40.734-63.818"/>
        <path d="m333.97 360.09c-15.752-17.791-26.819-36.24-29.679-52"/>
    </g>
    <g fill="#29304d">
        <path d="m381.64 283.55l3.323 14.04.715 3.02c12.924-9.02 9.905-16.262-4.04-17.05"/>
        <path d="m348.18 373.19c-1.857.465-3.793.674-5.805.625-.857-2.531-1.721-5.265-2.59-8.202 3.658.211 6.907.134 9.861-.217.553-2.653 1.156-5.27 1.807-7.843-4.794.63-9.09.788-13.846.319-.586-2.182-1.174-4.455-1.765-6.819 6.574.72 12.363.5 17.577-.621.631-2.109 1.299-4.182 2-6.213-7 1.287-13.992 1.408-21.16.322-.461-1.953-.923-3.959-1.386-6.02-2.273-.212-3.955-.597-5.05-1.154 3.403 20.507 9.36 39.38 17.871 56.63l.878-9.306c-.387-.858-.775-1.761-1.165-2.706.662-.148 1.182-.373 1.559-.673.355-2.732.758-5.442 1.209-8.122"/>
        <path d="m325.8 304.09c-.129 5.137-.106 9.568.069 13.293 2.966-.534 4.449-.801 4.449-.801 3.142-12.534 4.714-18.801 4.714-18.801-3.592 2.069-6.67 4.172-9.232 6.309"/>
        <path d="m450.26 280.03c-4.302 1.379-9.495 3.02-15.577 4.934 2.237-.701 4.505-1.415 6.792-2.139-1.764 2.67-3.763 5.442-5.994 8.316-9.549 12.299-23.373 26.464-41.473 42.495-19.614 16.09-35.505 35.36-47.673 57.811 14.646-40.02 53.45-64.911 81.05-97.89.014-.016.028-.033.042-.049 2.271-2.717 4.466-5.488 6.566-8.327 2.963-3.881 5.508-6.115 7.636-6.703 5.646 1.163 5.735 1.535 8.635 1.551"/>
    </g>
    <path fill="#5159be"
          d="m394.03 210.02c-25.995-23.94-49.588-27.963-67.33-26.05l1.738-12.944c28.87-6.653 63.914 12.291 71.27 30.28 8.977 26.399 28.27 61.19 61.44 50.11l-2.574 5.471 5.547 3.41c-37.752 12.609-56.39-18.235-67.59-48.48-.346 17.01 3.154 38.28 17.11 47.28l-5.086.402.888 5.793c-13.959-9.454-18.02-25.976-18.467-42.38 2.057-3.373 3.155-7.798 3.296-13.277l-.248.38"/>
    <path fill="#29304d"
          d="m391.74 232.8c2.102-1.725 4.115-2.637 6.04-2.735-1.04-6.14-1.37-12.439-1.252-18.242 1.379 3.723 2.87 7.454 4.495 11.11 3.175 1.675 6.549 2.921 10.123 3.738-4.876-8.183-8.653-17.18-11.438-25.367-1.757-4.295-5.093-8.644-9.547-12.687-2.351 5.01-4.83 9.04-7.439 12.09l-.057.298c3.713 2.707 7.246 5.514 11.07 9.04-.158 4.65-1.02 9.138-2.763 12.875.002.053.003.106.005.158.094 3.257.33 6.517.759 9.725"/>
    <path fill="#b5684c"
          d="m327.87 337.63c-1.128-8.594-1.794-15.343-1.996-20.249 2.928-.527 4.391-.791 4.391-.791.321 7.03 1.192 14.339 2.611 21.929-1.968-.271-3.637-.567-5.01-.889"/>
    <g fill="#29304d">
        <path d="m90.28 323.25c-13.32-11.468-19.821-20.637-25.722-29.669-4.449 4.561-8.283 9.223-11.06 13.316-1.243 1.834-2.273 3.554-3.05 5.098 8.157 14.293 16.666 24 26.585 32.836 2.869-7.606 8.28-15.355 13.243-21.581"/>
        <path d="m639.33 238.41c-9.148 8.606-19.975 15.13-32.405 21.815-.154.084-.309.167-.464.25 2.876 5.958 5.525 12.465 7.867 19.367.874 2.576 1.705 5.208 2.489 7.887l28.735-23.477c.298-1.165.411-2.544.358-4.091-.201-5.737-2.703-13.779-6.58-21.751"/>
    </g>
    <g fill="none" stroke="#fff" stroke-linejoin="round" stroke-linecap="round" stroke-width="2"
       stroke-miterlimit="22.926">
        <path d="m592.62 224.63c15.672 12.308 26.27 31.27 31.796 56.891"/>
        <path d="m599.19 220.88c15.19 11.186 27.28 30.538 30.981 55.943"/>
        <path d="m70.57 338.7c7.078-18.403 20.1-33.659 39.07-45.767"/>
        <path d="m64.64 332.3c8.447-19.35 22.304-34.35 40.24-44.21"/>
    </g>
    <circle fill="#fcf32a" cx="160.66" cy="231.29" r="17.523"/>
    <circle fill="#86e5c7" cx="493.79" cy="384.32" r="12.204"/>
</svg>