<svg xmlns="http://www.w3.org/2000/svg" shape-rendering="geometricPrecision" image-rendering="optimizeQuality" fill-rule="evenodd" clip-rule="evenodd" viewBox="0 0 700 700"><path fill="#86e5c7" d="m580.67 449.46c-13.1 0-23.712-29.55-23.712-66 0 36.45-10.617 66-23.713 66 13.1 0 23.713 29.549 23.713 65.998 0-36.449 10.616-65.998 23.712-65.998"/><path fill="#fff" d="m236.06 160.62h271.5v339.75c0 39.944 32.682 72.63 72.63 72.63h-271.5c-39.945 0-72.63-32.682-72.63-72.63v-339.75"/><g stroke="#29304d" stroke-linejoin="round" stroke-linecap="round" stroke-width="2" stroke-miterlimit="22.926"><path fill="#29304d" d="m236.06 160.62h271.5v-22.12c0-11-8.999-20-20-20h-231.5c-11 0-20 8.999-20 20v22.12zm249.63-28.558c-4.142 0-7.5 3.358-7.5 7.5 0 4.142 3.358 7.5 7.5 7.5 4.142 0 7.5-3.358 7.5-7.5 0-4.142-3.358-7.5-7.5-7.5zm-22.2 0c-4.167 0-7.512 3.358-7.512 7.5 0 4.142 3.345 7.5 7.512 7.5 4.138 0 7.483-3.358 7.483-7.5 0-4.142-3.345-7.5-7.483-7.5zm-22.21 0c-4.167 0-7.512 3.358-7.512 7.5 0 4.142 3.345 7.5 7.512 7.5 4.138 0 7.483-3.358 7.483-7.5 0-4.142-3.345-7.5-7.483-7.5z"/><g fill="none"><path d="m254.23 428.57l7.47-81 5.99 109.69 10.69-42.56 4.75 5.33 388.5.02"/><path d="m37.14 424.82l7.469-81 5.998 109.69 10.693-42.56 4.74 5.33 7.5.02 9.13-6.48 6.47 6.47h32.53l6.37-6.66 4.93 6.67 9.12-.001 4.7 8.53"/><path d="m146.79 424.82l5.25-77.25 6 109.69 10.69-42.56 4.75 5.33 7.5.02 9.12-6.48 6.47 6.47h32.53l6.38-6.65 4.93 6.66 9.12-.001 4.7 8.53"/><path d="m324.94 353.25c31.25-27 62.5-27 93.75 0"/><path d="m396.19 239.83c14.21 6.245 28.21 6.495 42 .75"/><path d="m347.44 239.83c-14.21 6.245-28.21 6.495-42 .75"/></g></g><g fill-rule="nonzero"><g fill="#f2f3fe"><circle cx="298.97" cy="290.83" r="17.06"/><circle cx="444.65" cy="290.83" r="17.06"/></g><path fill="#29304d" d="m429.09 254.95c2.344 12.75 9.375 19.12 9.375 25.5 0 6.375-2.344 12.75-9.375 12.75-7.03 0-9.375-6.375-9.375-12.75 0-6.375 7.03-12.75 9.375-25.5"/></g><path fill="#fcf32a" d="m268.8 210.79c-28.783 0-52.12-47.846-52.12-106.87 0 59.02-23.335 106.87-52.12 106.87 28.783 0 52.12 47.846 52.12 106.87 0-59.02 23.335-106.87 52.12-106.87"/><circle fill="#5159be" cx="147.4" cy="148.24" r="22.5"/></svg>