<svg xmlns="http://www.w3.org/2000/svg" shape-rendering="geometricPrecision" image-rendering="optimizeQuality" fill-rule="evenodd" clip-rule="evenodd" viewBox="0 0 700 700"><path fill="#fcf32a" d="m549 119.94c-15.924 0-28.833-35.93-28.833-80.25 0 44.32-12.909 80.25-28.832 80.25 15.923 0 28.832 35.929 28.832 80.25 0-44.32 12.909-80.25 28.833-80.25"/><path fill="#fff" d="m255.41 169.55c-21.512 0-38.951-35.759-38.951-79.87 0 44.11-17.44 79.87-38.952 79.87 21.512 0 38.952 35.759 38.952 79.87 0-44.11 17.439-79.87 38.951-79.87"/><path fill="none" stroke="#29304d" stroke-width="2" stroke-linecap="round" stroke-linejoin="round" stroke-miterlimit="22.926" d="m37.655 646.94c-47.09-223.33 95.5-264.06 166.75-172.03 79.63 102.85 227.69 107.76 197.21-13.414m-72.38-194.18c-86.51-145.9 47.18-222.25 171.53-166.86 134.22 59.788 181.24.732 186.49-25.01"/><path fill="#86e5c7" d="m208.52 449.23c-13.1 0-23.713-29.549-23.713-66 0 36.451-10.616 66-23.712 66 13.1 0 23.712 29.549 23.712 65.999 0-36.45 10.617-65.999 23.713-65.999"/><path fill="#fff" d="m338.59 329.19c10-10 10-26.22 0-36.23-10-10-26.22-10-36.23 0-10 10-10 26.22.0001 36.23 10 10 26.22 10 36.23 0m0 64.834c-10-10-26.22-10-36.23 0-10 10-10 26.22-.0001 36.23 10 10 26.22 10 36.23 0 10-10 10-26.22 0-36.23m-48.19 48.19c-6.907-6.907-18.11-6.907-25.01 0-6.907 6.907-6.907 18.11 0 25.01 6.907 6.907 18.11 6.907 25.01-.0001 6.908-6.907 6.908-18.11.0001-25.01m-36.982 36.981c-3.811-3.811-9.99-3.811-13.801 0-3.811 3.811-3.811 9.991 0 13.802 3.811 3.811 9.99 3.811 13.801 0 3.812-3.811 3.812-9.991 0-13.802m150.01-150.01c10 10 26.22 10 36.23 0 10-10 10-26.22 0-36.23-10-10-26.22-10-36.23 0-10 10-10 26.22 0 36.23m48.19-48.19c6.907 6.907 18.11 6.907 25.01 0 6.908-6.907 6.908-18.11 0-25.01-6.907-6.907-18.11-6.907-25.01 0-6.907 6.908-6.907 18.11 0 25.01m36.981-36.981c3.811 3.811 9.99 3.811 13.802 0 3.811-3.812 3.811-9.991 0-13.802-3.812-3.811-9.991-3.811-13.802 0-3.811 3.811-3.811 9.99 0 13.802m-117.59 65.758c-9.768 0-17.687-7.919-17.687-17.687 0-9.769 7.918-17.687 17.687-17.688 9.768.0001 17.687 7.919 17.687 17.688 0 9.768-7.919 17.687-17.687 17.687m0-52.3c-5.39 0-9.759-4.369-9.759-9.759 0-5.39 4.369-9.759 9.759-9.759 5.39 0 9.759 4.369 9.759 9.759 0 5.39-4.369 9.759-9.759 9.759m0 155.97c9.768 0 17.687 7.919 17.687 17.687 0 9.768-7.919 17.687-17.687 17.687-9.768 0-17.687-7.919-17.687-17.687 0-9.768 7.918-17.687 17.687-17.687m0 52.3c5.39 0 9.759 4.37 9.759 9.759 0 5.391-4.369 9.76-9.759 9.76-5.39 0-9.759-4.369-9.759-9.76 0-5.389 4.369-9.759 9.759-9.759m-51.833-104.13c0-9.769-7.919-17.687-17.687-17.687-9.769 0-17.688 7.918-17.688 17.687 0 9.768 7.919 17.687 17.688 17.687 9.768 0 17.687-7.919 17.687-17.687m-52.3 0c0-5.39-4.369-9.759-9.759-9.759-5.39 0-9.759 4.369-9.759 9.759 0 5.39 4.369 9.759 9.759 9.759 5.39 0 9.759-4.369 9.759-9.759m155.97 0c0 9.768 7.919 17.687 17.687 17.687 9.768 0 17.687-7.919 17.687-17.687 0-9.769-7.919-17.687-17.687-17.687-9.768 0-17.687 7.918-17.687 17.687m-132.44-80.61c6.907-6.907 6.907-18.11-.0001-25.01-6.907-6.907-18.11-6.907-25.01 0-6.907 6.908-6.907 18.11 0 25.01 6.907 6.907 18.11 6.907 25.01 0m-36.982-36.981c3.812-3.812 3.812-9.991 0-13.802-3.811-3.811-9.99-3.811-13.801 0-3.811 3.811-3.811 9.99 0 13.802 3.811 3.811 9.99 3.811 13.801 0m150.01 150.01c-10 10-10 26.22 0 36.23 10 10 26.22 10 36.23 0 10-10 10-26.22 0-36.23-10-10-26.22-10-36.23 0m48.19 48.19c-6.907 6.907-6.907 18.11 0 25.01 6.907 6.907 18.11 6.907 25.01 0 6.908-6.908 6.908-18.11 0-25.01-6.907-6.907-18.11-6.907-25.01 0m36.981 36.981c-3.811 3.811-3.811 9.991 0 13.802 3.811 3.811 9.99 3.811 13.802 0 3.811-3.811 3.811-9.991 0-13.802-3.812-3.811-9.991-3.811-13.802 0m-13.459-117.59c0 5.39 4.369 9.759 9.76 9.759 5.389 0 9.759-4.369 9.759-9.759 0-5.39-4.37-9.759-9.759-9.759-5.391 0-9.76 4.369-9.76 9.759"/><path fill="#29304d" d="m371 334.5c8.363 0 15.14-6.78 15.14-15.14 0-8.364-6.78-15.14-15.14-15.14-8.364 0-15.14 6.78-15.14 15.14 0 8.364 6.78 15.14 15.14 15.14m-27.1 27.1c0-8.364-6.78-15.14-15.14-15.14-8.364 0-15.14 6.78-15.14 15.14 0 8.364 6.78 15.14 15.14 15.14 8.364 0 15.14-6.779 15.14-15.14m-40.29 0c0-5.775-4.682-10.457-10.457-10.457-5.775 0-10.456 4.682-10.456 10.457 0 5.775 4.681 10.457 10.456 10.457 5.775 0 10.457-4.682 10.457-10.457m-30.919 0c0-3.187-2.584-5.77-5.77-5.77-3.186 0-5.77 2.583-5.77 5.77 0 3.186 2.584 5.77 5.77 5.77 3.186 0 5.77-2.584 5.77-5.77m125.42 0c0 8.364 6.78 15.14 15.14 15.14 8.363 0 15.14-6.78 15.14-15.14 0-8.364-6.78-15.14-15.14-15.14-8.364 0-15.14 6.78-15.14 15.14m40.29 0c0 5.775 4.682 10.457 10.457 10.457 5.775 0 10.457-4.682 10.457-10.457 0-5.775-4.682-10.457-10.457-10.457-5.775 0-10.457 4.682-10.457 10.457m30.92 0c0 3.186 2.583 5.77 5.769 5.77 3.187 0 5.77-2.584 5.77-5.77 0-3.187-2.583-5.77-5.77-5.77-3.186 0-5.769 2.583-5.769 5.77m-76.65-21.668c-4.084-4.084-4.084-10.705 0-14.788 4.084-4.084 10.705-4.084 14.788 0 4.084 4.083 4.084 10.704 0 14.788-4.083 4.083-10.704 4.083-14.788 0m21.863-21.864c-2.253-2.253-2.253-5.906 0-8.159 2.254-2.253 5.907-2.253 8.16 0 2.253 2.253 2.253 5.906 0 8.159-2.253 2.254-5.906 2.254-8.16 0m-65.2 65.2c4.084 4.084 4.084 10.705 0 14.788-4.083 4.084-10.704 4.084-14.787 0-4.084-4.083-4.084-10.704 0-14.788 4.083-4.083 10.704-4.083 14.787 0m-21.863 21.864c2.253 2.253 2.253 5.906 0 8.159-2.253 2.253-5.906 2.253-8.159 0-2.253-2.253-2.253-5.906 0-8.159 2.253-2.254 5.906-2.254 8.159 0m21.863-65.2c4.084-4.084 4.084-10.705 0-14.788-4.083-4.084-10.704-4.084-14.788 0-4.083 4.083-4.083 10.704.0001 14.788 4.083 4.083 10.704 4.083 14.787 0m-21.863-21.864c2.253-2.253 2.253-5.906 0-8.159-2.253-2.253-5.906-2.253-8.159 0-2.253 2.253-2.253 5.906 0 8.159 2.253 2.254 5.906 2.254 8.159 0m65.2 65.2c-4.084 4.084-4.084 10.705 0 14.788 4.084 4.084 10.705 4.084 14.788 0 4.084-4.083 4.084-10.704 0-14.788-4.083-4.083-10.704-4.083-14.788 0m-21.668-89.06c5.775 0 10.456-4.681 10.456-10.456 0-5.775-4.681-10.457-10.456-10.457-5.775 0-10.457 4.682-10.457 10.457 0 5.775 4.682 10.456 10.457 10.456m0-30.919c3.186 0 5.769-2.583 5.769-5.77 0-3.186-2.583-5.769-5.769-5.769-3.187 0-5.77 2.583-5.77 5.769 0 3.187 2.583 5.77 5.77 5.77m0 125.42c-8.364 0-15.14 6.78-15.14 15.14 0 8.363 6.78 15.14 15.14 15.14 8.363 0 15.14-6.78 15.14-15.14 0-8.364-6.781-15.14-15.14-15.14m0 40.29c-5.775 0-10.457 4.682-10.457 10.457 0 5.775 4.682 10.457 10.457 10.457 5.775 0 10.456-4.682 10.456-10.457 0-5.775-4.681-10.457-10.456-10.457m0 30.92c-3.187 0-5.77 2.583-5.77 5.77 0 3.186 2.583 5.769 5.77 5.769 3.186 0 5.769-2.583 5.769-5.769 0-3.187-2.583-5.77-5.769-5.77m43.531-54.784c-2.253 2.253-2.253 5.906 0 8.159 2.254 2.253 5.907 2.253 8.16 0 2.253-2.253 2.253-5.906 0-8.159-2.253-2.254-5.906-2.254-8.16 0"/></svg>