<svg xmlns="http://www.w3.org/2000/svg" shape-rendering="geometricPrecision" image-rendering="optimizeQuality" fill-rule="evenodd" clip-rule="evenodd" viewBox="0 0 700 700"><path fill="#fcf32a" d="m223.29 467.99c-28.783 0-52.12-47.846-52.12-106.87 0 59.02-23.335 106.87-52.12 106.87 28.783 0 52.12 47.847 52.12 106.86 0-59.02 23.334-106.87 52.12-106.87"/><path fill="#86e5c7" d="m586.83 124.93c-13.1 0-23.713-29.549-23.713-66 0 36.451-10.616 66-23.712 66 13.1 0 23.712 29.549 23.712 65.999 0-36.45 10.617-65.999 23.713-65.999"/><path fill="#fff" fill-rule="nonzero" d="m347.14 522.24c0 14.253-4.476 26.03-13.543 35.34-9.193 9.309-20.15 14.02-32.997 14.02-14.253 0-26.03-4.709-35.34-14.02-9.426-9.31-14.02-21.09-14.02-35.34 0-14.03 4.593-25.925 14.02-35.702 9.31-9.778 21.09-14.729 35.34-14.729 12.607 0 23.57 4.951 32.755 14.846 9.193 9.894 13.785 21.8 13.785 35.585m-57.26-75.65v-128.07c0-13.309 4.834-24.389 14.378-33.22 9.543-8.951 24.856-20.615 45.83-35.23 21.09-14.611 37.11-28.63 47.951-41.948 10.963-13.309 16.499-29.808 16.499-49.36 0-12.02-4.241-23.329-12.608-34.17-8.483-10.837-19.554-19.437-33.34-25.683-13.785-6.362-28.397-9.543-43.835-9.543-16.85 0-31.22 3.774-43.12 11.197-12.02 7.539-18.03 16.256-18.03 26.392 0 3.766 1.528 5.536 4.476 5.536.467 0 1.177-.117 2-.351.701-.242 1.294-.359 1.527-.359 13.552 0 25.45 4.359 35.586 12.959 10.01 8.725 15.08 19.913 15.08 33.698 0 14.261-4.475 26.16-13.434 35.586-8.951 9.427-20.264 14.14-33.816 14.14-16.607 0-30.16-5.887-40.762-17.676-10.604-11.664-15.789-26.744-15.789-45.12 0-16.615 5.068-31.461 15.08-44.77 10.137-13.201 24.272-23.445 42.3-30.751 18.14-7.189 38.29-10.846 60.676-10.846 25.21 0 47.6 5.068 66.93 15.204 19.32 10.128 34.05 24.389 44.29 42.766 10.253 18.503 15.438 39.585 15.438 63.51 0 26.743-6.01 52.08-18.03 76.11-11.898 24.16-27.804 42.3-47.6 54.789l-65.978 42.42c-19.68 13.543-29.574 37.815-29.574 72.808h-12.14"/><path fill="#29304d" d="m421.07 361.48c23.681-22.345 24.764-59.658 2.419-83.34-22.346-23.682-59.658-24.766-83.34-2.42-23.682 22.345-24.765 59.658-2.419 83.34 22.345 23.681 59.658 24.765 83.34 2.419l3.236-3.053 25.08 20.1 75.26 79.75-2.186 2.062c2.235 2.368 2.127 6.099-.242 8.334-2.368 2.234-6.099 2.126-8.334-.242l-2.185 2.062-75.25-79.76-18.611-26.21 3.237-3.054m-5.533-5.863c20.444-19.29 21.379-51.5 2.089-71.944-19.29-20.444-51.5-21.379-71.945-2.089-20.443 19.29-21.379 51.5-2.088 71.945 19.29 20.443 51.5 21.379 71.944 2.088"/><path fill="none" stroke="#29304d" stroke-width="2" stroke-linecap="round" stroke-linejoin="round" stroke-miterlimit="22.926" d="m355.88 292.39c4.764-4.496 10.429-7.444 16.374-8.865m8.874-.988c6.252.077 12.479 1.767 18 5.05m7.841 6.288c3.635 3.851 6.258 8.291 7.88 12.992m1.934 10.06c.489 10.177-3.305 20.499-11.297 28.04m-13.71 8.119c-12.849 4.134-27.504.869-37.38-9.603"/></svg>