<svg xmlns="http://www.w3.org/2000/svg" width="561.016" height="206.458" viewBox="0 0 561.016 206.458"><g transform="translate(1.333 1.458)"><path d="M.318,0H559.682V205H.318Z" fill="none" fill-rule="evenodd"/><path d="M39.082,87.621h148.7L148.7,200.1H0Z" fill="none" stroke="#29304d" stroke-linecap="round" stroke-linejoin="round" stroke-miterlimit="22.926" stroke-width="2.667" fill-rule="evenodd"/><path d="M187.785,87.622,148.7,200.1h78.164Z" fill="none" stroke="#29304d" stroke-linecap="round" stroke-linejoin="round" stroke-miterlimit="22.926" stroke-width="2.667" fill-rule="evenodd"/><line x1="2.537" y2="7.3" transform="translate(55.631 131.104)" fill="none" stroke="#29304d" stroke-linecap="round" stroke-linejoin="round" stroke-miterlimit="22.926" stroke-width="2.667"/><line x2="6.328" transform="translate(53.736 134.754)" fill="none" stroke="#29304d" stroke-linecap="round" stroke-linejoin="round" stroke-miterlimit="22.926" stroke-width="2.667"/><line x1="2.537" y2="7.301" transform="translate(49.303 149.318)" fill="none" stroke="#29304d" stroke-linecap="round" stroke-linejoin="round" stroke-miterlimit="22.926" stroke-width="2.667"/><line x2="6.328" transform="translate(47.407 152.969)" fill="none" stroke="#29304d" stroke-linecap="round" stroke-linejoin="round" stroke-miterlimit="22.926" stroke-width="2.667"/><line x1="2.537" y2="7.3" transform="translate(42.974 167.533)" fill="none" stroke="#29304d" stroke-linecap="round" stroke-linejoin="round" stroke-miterlimit="22.926" stroke-width="2.667"/><line x2="6.328" transform="translate(41.079 171.183)" fill="none" stroke="#29304d" stroke-linecap="round" stroke-linejoin="round" stroke-miterlimit="22.926" stroke-width="2.667"/><line x1="2.537" y2="7.3" transform="translate(82.027 112.89)" fill="none" stroke="#29304d" stroke-linecap="round" stroke-linejoin="round" stroke-miterlimit="22.926" stroke-width="2.667"/><line x2="6.327" transform="translate(80.132 116.54)" fill="none" stroke="#29304d" stroke-linecap="round" stroke-linejoin="round" stroke-miterlimit="22.926" stroke-width="2.667"/><line x1="2.536" y2="7.3" transform="translate(75.699 131.104)" fill="none" stroke="#29304d" stroke-linecap="round" stroke-linejoin="round" stroke-miterlimit="22.926" stroke-width="2.667"/><line x2="6.328" transform="translate(73.803 134.754)" fill="none" stroke="#29304d" stroke-linecap="round" stroke-linejoin="round" stroke-miterlimit="22.926" stroke-width="2.667"/><line x1="2.537" y2="7.301" transform="translate(69.37 149.318)" fill="none" stroke="#29304d" stroke-linecap="round" stroke-linejoin="round" stroke-miterlimit="22.926" stroke-width="2.667"/><line x2="6.328" transform="translate(67.474 152.969)" fill="none" stroke="#29304d" stroke-linecap="round" stroke-linejoin="round" stroke-miterlimit="22.926" stroke-width="2.667"/><line x1="2.537" y2="7.3" transform="translate(63.041 167.533)" fill="none" stroke="#29304d" stroke-linecap="round" stroke-linejoin="round" stroke-miterlimit="22.926" stroke-width="2.667"/><line x2="6.328" transform="translate(61.146 171.183)" fill="none" stroke="#29304d" stroke-linecap="round" stroke-linejoin="round" stroke-miterlimit="22.926" stroke-width="2.667"/><line x1="2.536" y2="7.3" transform="translate(102.095 112.89)" fill="none" stroke="#29304d" stroke-linecap="round" stroke-linejoin="round" stroke-miterlimit="22.926" stroke-width="2.667"/><line x2="6.328" transform="translate(100.199 116.54)" fill="none" stroke="#29304d" stroke-linecap="round" stroke-linejoin="round" stroke-miterlimit="22.926" stroke-width="2.667"/><line x1="2.537" y2="7.3" transform="translate(95.766 131.104)" fill="none" stroke="#29304d" stroke-linecap="round" stroke-linejoin="round" stroke-miterlimit="22.926" stroke-width="2.667"/><line x2="6.328" transform="translate(93.87 134.754)" fill="none" stroke="#29304d" stroke-linecap="round" stroke-linejoin="round" stroke-miterlimit="22.926" stroke-width="2.667"/><line x1="2.537" y2="7.3" transform="translate(83.109 167.533)" fill="none" stroke="#29304d" stroke-linecap="round" stroke-linejoin="round" stroke-miterlimit="22.926" stroke-width="2.667"/><line x2="6.328" transform="translate(81.213 171.183)" fill="none" stroke="#29304d" stroke-linecap="round" stroke-linejoin="round" stroke-miterlimit="22.926" stroke-width="2.667"/><line x1="2.536" y2="7.3" transform="translate(122.162 112.89)" fill="none" stroke="#29304d" stroke-linecap="round" stroke-linejoin="round" stroke-miterlimit="22.926" stroke-width="2.667"/><line x2="6.328" transform="translate(120.266 116.54)" fill="none" stroke="#29304d" stroke-linecap="round" stroke-linejoin="round" stroke-miterlimit="22.926" stroke-width="2.667"/><line x1="2.537" y2="7.3" transform="translate(115.833 131.104)" fill="none" stroke="#29304d" stroke-linecap="round" stroke-linejoin="round" stroke-miterlimit="22.926" stroke-width="2.667"/><line x2="6.327" transform="translate(113.938 134.754)" fill="none" stroke="#29304d" stroke-linecap="round" stroke-linejoin="round" stroke-miterlimit="22.926" stroke-width="2.667"/><line x1="2.536" y2="7.301" transform="translate(109.505 149.318)" fill="none" stroke="#29304d" stroke-linecap="round" stroke-linejoin="round" stroke-miterlimit="22.926" stroke-width="2.667"/><line x2="6.328" transform="translate(107.609 152.969)" fill="none" stroke="#29304d" stroke-linecap="round" stroke-linejoin="round" stroke-miterlimit="22.926" stroke-width="2.667"/><line x1="2.537" y2="7.3" transform="translate(103.176 167.533)" fill="none" stroke="#29304d" stroke-linecap="round" stroke-linejoin="round" stroke-miterlimit="22.926" stroke-width="2.667"/><line x2="6.328" transform="translate(101.28 171.183)" fill="none" stroke="#29304d" stroke-linecap="round" stroke-linejoin="round" stroke-miterlimit="22.926" stroke-width="2.667"/><line x1="2.537" y2="7.3" transform="translate(142.229 112.89)" fill="none" stroke="#29304d" stroke-linecap="round" stroke-linejoin="round" stroke-miterlimit="22.926" stroke-width="2.667"/><line x2="6.327" transform="translate(140.334 116.54)" fill="none" stroke="#29304d" stroke-linecap="round" stroke-linejoin="round" stroke-miterlimit="22.926" stroke-width="2.667"/><line x1="2.537" y2="7.301" transform="translate(129.572 149.318)" fill="none" stroke="#29304d" stroke-linecap="round" stroke-linejoin="round" stroke-miterlimit="22.926" stroke-width="2.667"/><line x2="6.328" transform="translate(127.676 152.969)" fill="none" stroke="#29304d" stroke-linecap="round" stroke-linejoin="round" stroke-miterlimit="22.926" stroke-width="2.667"/><line x1="2.537" y2="7.3" transform="translate(123.243 167.533)" fill="none" stroke="#29304d" stroke-linecap="round" stroke-linejoin="round" stroke-miterlimit="22.926" stroke-width="2.667"/><line x2="6.328" transform="translate(121.348 171.183)" fill="none" stroke="#29304d" stroke-linecap="round" stroke-linejoin="round" stroke-miterlimit="22.926" stroke-width="2.667"/><path d="M47.438,87.621c0-17.507,16.444-17.268,16.444,0" fill="none" stroke="#29304d" stroke-linecap="round" stroke-linejoin="round" stroke-miterlimit="22.926" stroke-width="2.667" fill-rule="evenodd"/><path d="M60.307,87.621c0-17.507,16.443-17.268,16.443,0" fill="none" stroke="#29304d" stroke-linecap="round" stroke-linejoin="round" stroke-miterlimit="22.926" stroke-width="2.667" fill-rule="evenodd"/><path d="M73.175,87.621c0-17.507,16.443-17.268,16.443,0" fill="none" stroke="#29304d" stroke-linecap="round" stroke-linejoin="round" stroke-miterlimit="22.926" stroke-width="2.667" fill-rule="evenodd"/><path d="M86.043,87.621c0-17.507,16.443-17.268,16.443,0" fill="none" stroke="#29304d" stroke-linecap="round" stroke-linejoin="round" stroke-miterlimit="22.926" stroke-width="2.667" fill-rule="evenodd"/><path d="M98.911,87.621c0-17.507,16.444-17.268,16.444,0" fill="none" stroke="#29304d" stroke-linecap="round" stroke-linejoin="round" stroke-miterlimit="22.926" stroke-width="2.667" fill-rule="evenodd"/><path d="M111.78,87.621c0-17.507,16.443-17.268,16.443,0" fill="none" stroke="#29304d" stroke-linecap="round" stroke-linejoin="round" stroke-miterlimit="22.926" stroke-width="2.667" fill-rule="evenodd"/><path d="M124.648,87.621c0-17.507,16.443-17.268,16.443,0" fill="none" stroke="#29304d" stroke-linecap="round" stroke-linejoin="round" stroke-miterlimit="22.926" stroke-width="2.667" fill-rule="evenodd"/><path d="M137.516,87.621c0-17.507,16.444-17.268,16.444,0" fill="none" stroke="#29304d" stroke-linecap="round" stroke-linejoin="round" stroke-miterlimit="22.926" stroke-width="2.667" fill-rule="evenodd"/><path d="M150.384,87.621c0-17.507,16.444-17.268,16.444,0" fill="none" stroke="#29304d" stroke-linecap="round" stroke-linejoin="round" stroke-miterlimit="22.926" stroke-width="2.667" fill-rule="evenodd"/><path d="M163.253,87.621c0-17.507,16.443-17.268,16.443,0" fill="none" stroke="#29304d" stroke-linecap="round" stroke-linejoin="round" stroke-miterlimit="22.926" stroke-width="2.667" fill-rule="evenodd"/><path d="M61.2,111.319l2.029,5.221L73.711,103.1" fill="none" stroke="#5159be" stroke-linecap="round" stroke-linejoin="round" stroke-miterlimit="22.926" stroke-width="2.667" fill-rule="evenodd"/><path d="M88.677,147.748l2.029,5.221,10.482-13.443" fill="none" stroke="#5159be" stroke-linecap="round" stroke-linejoin="round" stroke-miterlimit="22.926" stroke-width="2.667" fill-rule="evenodd"/><path d="M135.14,129.534l2.029,5.22,10.482-13.442" fill="none" stroke="#5159be" stroke-linecap="round" stroke-linejoin="round" stroke-miterlimit="22.926" stroke-width="2.667" fill-rule="evenodd"/><path d="M271.022,122.669a4.994,4.994,0,1,0-4.994-4.994A4.993,4.993,0,0,0,271.022,122.669Z" fill="#5159be" fill-rule="evenodd"/><path d="M356.721,67.818a4.994,4.994,0,1,0-4.994-4.994A4.994,4.994,0,0,0,356.721,67.818Z" fill="#5159be" fill-rule="evenodd"/><path d="M553.294,41.509a4.994,4.994,0,1,0-4.994-4.994A4.993,4.993,0,0,0,553.294,41.509Z" fill="#5159be" fill-rule="evenodd"/><path d="M153.642,63.114h84.765l-16.513,47.527H137.129Z" fill="#5159be" fill-rule="evenodd"/><path d="M175.613,97.716h-1.332l-.922-15.983-4.886,15.983h-1.82L173.3,75.983h1.446l.892,15.707,4.8-15.707h1.821l-6.645,21.733Zm10.611,0h-7.14l6.644-21.733h7.055l-.522,1.706h-5.12L184.662,85.8h4.666l-.531,1.736h-4.666l-2.591,8.477h5.206l-.522,1.707Zm22.66-21.733-9.62,21.79H197.7l2.62-16.324c.077-.284.188-.707.336-1.27-.089.293-.239.72-.445,1.27l-7.347,16.324H191.3l3.7-21.79h1.906L193.987,91.6q-.147.526-.417,1.55.147-.526.526-1.55l7.022-15.617h1.65L200.236,91.6c-.089.351-.227.867-.418,1.55q.162-.526.546-1.55l6.614-15.617h1.906Z" fill="#fff"/><path d="M165.972,150.4C248.5,197,304.5,176,287.5,138c-14.426-26.077-32.9-30.633-40.732-24.846-7.776,5.747-5.053,21.7,22.567,36.9C317.022,176.3,412.815,192.732,400.5,125,374.641,8.022,242.793,71.378,372.927,136.4,498.2,198.993,565.39,140.313,551.5,0" fill="none" stroke="#5159be" stroke-linecap="round" stroke-linejoin="round" stroke-miterlimit="22.926" stroke-width="2.667" fill-rule="evenodd"/></g></svg>