<svg xmlns="http://www.w3.org/2000/svg" width="381.481" height="391.598" viewBox="0 0 381.481 391.598">
  <g transform="translate(-7.695 0.736)">
    <g>
      <path d="M203.966,128.523c-.869-2.216-1.995-5.034-2.985-7.339M192.519,106.1c-7.062-19.618-22.305-37.907-37.778-44.655m58.1,104.63a88.783,88.783,0,0,0-2.636-17.6m-51.751,57.324c78.833-2.326,73.479-37.687,45.906-37.929" fill="none" stroke="#29304d" stroke-linecap="round" stroke-linejoin="round" stroke-miterlimit="22.926" stroke-width="2" fill-rule="evenodd"/>
      <path d="M173,101.587q15.719,18.234,37.743,5.89c8.091-5.873,11.463,3.791,5.041,7.485-6.039,2.9-12.381,6.362-20.387,7.335" fill="none" stroke="#29304d" stroke-linecap="round" stroke-linejoin="round" stroke-miterlimit="22.926" stroke-width="2" fill-rule="evenodd"/>
      <path d="M196.291,132.173c4.067,2.991,8.235.85,11.33-1.455a15.671,15.671,0,0,0,2.152-1.969c3.975-1.386,7.187,3.846,2.41,8.015,6.054.324,7.507,5.953,2.06,7a22.921,22.921,0,0,0-2.56.049c-4.707.37-6.1,3.091-5.492,6.167" fill="none" stroke="#29304d" stroke-linecap="round" stroke-linejoin="round" stroke-miterlimit="22.926" stroke-width="2" fill-rule="evenodd"/>
      <path d="M109.072,146.628c-51.4-4.279-36.51,30.9,20.531,34.358" fill="none" stroke="#29304d" stroke-linecap="round" stroke-linejoin="round" stroke-miterlimit="22.926" stroke-width="2" fill-rule="evenodd"/>
      <path d="M102.366,164.081q23.957-3.1,37.891,18.52" fill="none" stroke="#29304d" stroke-linecap="round" stroke-linejoin="round" stroke-miterlimit="22.926" stroke-width="2" fill-rule="evenodd"/>
      <path d="M77.6,156.925q1.614-12.582,31.47-10.3a94.751,94.751,0,0,0,33.169,6.618l-.266-2.037-7.037-2.743,6.614-.49-.288-2.209-7.151-1.5,6.938-.125-.106-.812c-43.362-27.837-51.31-65.042-15.431-80.059q28.9,6.8,54.757-12.957a69.434,69.434,0,0,1-20.917.648c16.241-10.585,17.983-30.388,8.234-51.7-4.742,13.974-13.412,25.632-29.972,22.905C93.982,5.525,18.81,31.537,47.46,88.074q-26.946,19.8-31.237,52.52,6.395-6.54,11.49-12.47c-2.884,33.839,31.064,59.766,66.959,59.223,5.983,1.206,10.226,3.058,17.07,7.282q.51-1.116.935-2.2l-5.937-6.467,7.062,3.171q.319-1.114.539-2.189l-5.576-5.257,5.991,2.39a18.277,18.277,0,0,0-.224-4.874q-34.577-7.483-36.93-22.282ZM47.46,88.074C72.2,75.814,62.8,105.845,47.46,88.074Z" fill="#29304d" fill-rule="evenodd"/>
      <circle cx="17.2" cy="17.2" r="17.2" transform="translate(337.466 207.866)" fill="#fcf32a"/>
      <path d="M166.9,112.268q-4.486,10.1-20.9,11.373" fill="none" stroke="#29304d" stroke-linecap="round" stroke-linejoin="round" stroke-miterlimit="22.926" stroke-width="2" fill-rule="evenodd"/>
      <path d="M183.975,101.436q7.488-1.556,8.273-7.43" fill="none" stroke="#29304d" stroke-linecap="round" stroke-linejoin="round" stroke-miterlimit="22.926" stroke-width="2" fill-rule="evenodd"/>
      <path d="M190.73,81.575a20.914,20.914,0,0,0-12.6,6.509q-4.537-.276-8.265-4.9,12.213-6.015,18.365-3.813l2.495,2.2Z" fill="#29304d" fill-rule="evenodd"/>
      <path d="M140.153,108.246q14.093-.543,18.593-8.3l-3.474-6.416q-10.926,8.238-15.8,7.187Z" fill="#29304d" fill-rule="evenodd"/>
      <path d="M8.863,291.895c10.745-57.029,52.3-78.229,100.062-49.941,60.925,36.083,84.933,122.435,158.507,141.376,74,19.051,64.627-123.287,3.635-182.955-15.152-14.824-24.088-36.541-24.911-54.777,9.031-2.206,16.93,1.32,19.465,12.694,1.859,8.552,3.507,15.593,6.426,19.839,10.935,15.91,39.386-6.923,22.819-29.2-5.269-7.084-19.8-9.256-42.362-5.591-11.34,3.062-16.6.664-18.76-4.514,40.925-20,70.451-18.213,82.372,10.721" fill="none" stroke="#29304d" stroke-linecap="round" stroke-linejoin="round" stroke-miterlimit="22.926" stroke-width="2" fill-rule="evenodd"/>
      <path d="M323.309,138.263q-23.963-71.789-22.285-98.17-16.758,5.752-8.653,35.776,1.032,28.386,9.9,48.9" fill="none" stroke="#29304d" stroke-linecap="round" stroke-linejoin="round" stroke-miterlimit="22.926" stroke-width="2" fill-rule="evenodd"/>
      <path d="M335.44,137.7q3.957-56.454,11-79.552" fill="none" stroke="#29304d" stroke-linecap="round" stroke-linejoin="round" stroke-miterlimit="22.926" stroke-width="2" fill-rule="evenodd"/>
      <path d="M365.06,88.9q-.507,8.387-21.721,55.009c-15.267,47.812,1.175,65.624,20.955,111.845q27,56.289,23.476,134.068" fill="none" stroke="#29304d" stroke-linecap="round" stroke-linejoin="round" stroke-miterlimit="22.926" stroke-width="2" fill-rule="evenodd"/>
      <path d="M346.442,58.147q-16.248-.954-15.971,24.022-8.811,18.981-10.276,46.621" fill="none" stroke="#29304d" stroke-linecap="round" stroke-linejoin="round" stroke-miterlimit="22.926" stroke-width="2" fill-rule="evenodd"/>
      <path d="M365.06,88.9c-9.663,1.049-16.392,10.406-23.489,31.823a30.179,30.179,0,0,1-5.495,8.381" fill="none" stroke="#29304d" stroke-linecap="round" stroke-linejoin="round" stroke-miterlimit="22.926" stroke-width="2" fill-rule="evenodd"/>
      <path d="M187.49,206.447c-12.832,21.4-18.138,42.35-18.12,68.171" fill="none" stroke="#29304d" stroke-linecap="round" stroke-linejoin="round" stroke-miterlimit="22.926" stroke-width="2" fill-rule="evenodd"/>
      <path d="M208.031,329.724c-8.756,0-15.854-19.756-15.854-44.127,0,24.371-7.1,44.127-15.854,44.127,8.756,0,15.854,19.756,15.854,44.126C192.177,349.48,199.275,329.724,208.031,329.724Z" fill="#29304d" stroke="#29304d" stroke-linecap="round" stroke-linejoin="round" stroke-miterlimit="22.926" stroke-width="1" fill-rule="evenodd"/>
      <path d="M243.792,108.7c22.289-4.661,21.868,16-14.68,19.729-3.752-42.155,13.927-40.5,14.68-19.729Z" fill="#fc5b61" fill-rule="evenodd"/>
      <path d="M258.277,75.267c10.561-3.215,11.252,6.783-6.236,10.162C248.405,65.235,257.014,65.269,258.277,75.267Z" fill="#fc5b61" fill-rule="evenodd"/>
      <circle cx="10.2" cy="10.2" r="10.2" transform="translate(46.665 194.666)" fill="#86e5c7"/>
    </g>
  </g>
</svg>
