<svg xmlns="http://www.w3.org/2000/svg" width="864" height="663.997" viewBox="0 0 864 663.997"><g transform="translate(-1128 -145)"><g transform="translate(1419.001 140)"><g transform="translate(-91.001 5)"><circle cx="289.848" cy="289.848" r="289.848" transform="translate(42.153 42.151)" fill="#f2f3fe"/><g transform="translate(324.559)"><circle cx="7.441" cy="7.441" r="7.441" transform="translate(0 18.379)" fill="#f2f3fe"/><circle cx="4.887" cy="4.887" r="4.887" transform="translate(2.554)" fill="#f2f3fe"/><g transform="translate(0 630.737)"><circle cx="7.441" cy="7.441" r="7.441" fill="#f2f3fe"/><circle cx="4.887" cy="4.887" r="4.887" transform="translate(2.554 23.487)" fill="#f2f3fe"/></g></g><g transform="translate(269.535 4.197)"><g transform="translate(0 0)"><ellipse cx="7.441" cy="7.441" rx="7.441" ry="7.441" transform="matrix(0.985, -0.174, 0.174, 0.985, 0.677, 20.239)" fill="#f2f3fe"/><ellipse cx="4.887" cy="4.886" rx="4.887" ry="4.886" transform="matrix(0.985, -0.173, 0.174, 0.985, 0, 1.695)" fill="#f2f3fe"/></g><g transform="translate(107.013 620.709)"><ellipse cx="7.441" cy="7.441" rx="7.441" ry="7.441" transform="matrix(0.985, -0.174, 0.174, 0.985, 0, 2.586)" fill="#f2f3fe"/><ellipse cx="4.887" cy="4.886" rx="4.887" ry="4.886" transform="matrix(0.985, -0.173, 0.174, 0.985, 6.593, 25.27)" fill="#f2f3fe"/></g></g><g transform="translate(213.858 18.353)"><g transform="translate(0 0)"><ellipse cx="7.442" cy="7.442" rx="7.442" ry="7.442" transform="matrix(0.94, -0.342, 0.342, 0.94, 3.886, 21.484)" fill="#f2f3fe"/><ellipse cx="4.887" cy="4.885" rx="4.887" ry="4.885" transform="matrix(0.94, -0.342, 0.342, 0.94, 0, 3.342)" fill="#f2f3fe"/></g><g transform="translate(213.325 591.82)"><ellipse cx="7.442" cy="7.442" rx="7.442" ry="7.442" transform="matrix(0.94, -0.342, 0.342, 0.94, 0, 5.093)" fill="#f2f3fe"/><ellipse cx="4.887" cy="4.885" rx="4.887" ry="4.885" transform="matrix(0.94, -0.342, 0.342, 0.94, 10.434, 26.293)" fill="#f2f3fe"/></g></g><g transform="translate(161.766 42.036)"><g transform="translate(0 0)"><ellipse cx="7.442" cy="7.439" rx="7.442" ry="7.439" transform="matrix(0.866, -0.5, 0.5, 0.866, 6.98, 22.083)" fill="#f2f3fe"/><ellipse cx="4.888" cy="4.887" rx="4.888" ry="4.887" transform="matrix(0.866, -0.5, 0.5, 0.866, 0, 4.888)" fill="#f2f3fe"/></g><g transform="translate(313.159 544.96)"><ellipse cx="7.442" cy="7.439" rx="7.442" ry="7.439" transform="matrix(0.866, -0.5, 0.5, 0.866, 0, 7.442)" fill="#f2f3fe"/><ellipse cx="4.888" cy="4.887" rx="4.888" ry="4.887" transform="matrix(0.866, -0.5, 0.5, 0.866, 13.955, 26.504)" fill="#f2f3fe"/></g></g><g transform="translate(114.851 74.53)"><g transform="translate(0 0)"><ellipse cx="7.439" cy="7.442" rx="7.439" ry="7.442" transform="matrix(0.766, -0.643, 0.643, 0.766, 9.857, 22.001)" fill="#f2f3fe"/><ellipse cx="4.888" cy="4.887" rx="4.888" ry="4.887" transform="matrix(0.766, -0.643, 0.643, 0.766, 0, 6.283)" fill="#f2f3fe"/></g><g transform="translate(403.475 481.532)"><ellipse cx="7.439" cy="7.442" rx="7.439" ry="7.442" transform="matrix(0.766, -0.643, 0.643, 0.766, 0, 9.562)" fill="#f2f3fe"/><ellipse cx="4.888" cy="4.887" rx="4.888" ry="4.887" transform="matrix(0.766, -0.643, 0.643, 0.766, 17.053, 25.916)" fill="#f2f3fe"/></g></g><g transform="translate(74.532 114.85)"><g transform="translate(0 0)"><ellipse cx="7.439" cy="7.442" rx="7.439" ry="7.442" transform="matrix(0.643, -0.766, 0.766, 0.643, 12.439, 21.256)" fill="#f2f3fe"/><ellipse cx="4.888" cy="4.887" rx="4.888" ry="4.887" transform="matrix(0.643, -0.766, 0.766, 0.643, 0, 7.489)" fill="#f2f3fe"/></g><g transform="translate(481.532 403.475)"><ellipse cx="7.439" cy="7.442" rx="7.439" ry="7.442" transform="matrix(0.643, -0.766, 0.766, 0.643, 0, 11.399)" fill="#f2f3fe"/><ellipse cx="4.888" cy="4.887" rx="4.888" ry="4.887" transform="matrix(0.643, -0.766, 0.766, 0.643, 19.633, 24.542)" fill="#f2f3fe"/></g></g><g transform="translate(42.037 161.765)"><g transform="translate(0 0)"><ellipse cx="7.442" cy="7.439" rx="7.442" ry="7.439" transform="matrix(0.5, -0.866, 0.866, 0.5, 14.641, 19.869)" fill="#f2f3fe"/><ellipse cx="4.888" cy="4.887" rx="4.888" ry="4.887" transform="matrix(0.5, -0.866, 0.866, 0.5, 0, 8.467)" fill="#f2f3fe"/></g><g transform="translate(544.959 313.159)"><ellipse cx="7.442" cy="7.439" rx="7.442" ry="7.439" transform="matrix(0.5, -0.866, 0.866, 0.5, 0, 12.889)" fill="#f2f3fe"/><ellipse cx="4.888" cy="4.887" rx="4.888" ry="4.887" transform="matrix(0.5, -0.866, 0.866, 0.5, 21.616, 22.42)" fill="#f2f3fe"/></g></g><g transform="translate(18.354 213.856)"><g transform="translate(0 0)"><ellipse cx="7.442" cy="7.442" rx="7.442" ry="7.442" transform="matrix(0.342, -0.94, 0.94, 0.342, 16.392, 17.871)" fill="#f2f3fe"/><ellipse cx="4.887" cy="4.885" rx="4.887" ry="4.885" transform="matrix(0.342, -0.94, 0.94, 0.342, 0, 9.184)" fill="#f2f3fe"/></g><g transform="translate(591.82 213.325)"><ellipse cx="7.442" cy="7.442" rx="7.442" ry="7.442" transform="matrix(0.342, -0.94, 0.94, 0.342, 0, 13.985)" fill="#f2f3fe"/><ellipse cx="4.887" cy="4.885" rx="4.887" ry="4.885" transform="matrix(0.342, -0.94, 0.94, 0.342, 22.95, 19.618)" fill="#f2f3fe"/></g></g><g transform="translate(4.199 269.534)"><g transform="translate(0 0)"><ellipse cx="7.441" cy="7.441" rx="7.441" ry="7.441" transform="matrix(0.174, -0.985, 0.985, 0.174, 17.653, 15.332)" fill="#f2f3fe"/><ellipse cx="4.887" cy="4.886" rx="4.887" ry="4.886" transform="matrix(0.173, -0.985, 0.985, 0.174, 0, 9.625)" fill="#f2f3fe"/></g><g transform="translate(620.709 107.013)"><ellipse cx="7.441" cy="7.441" rx="7.441" ry="7.441" transform="matrix(0.174, -0.985, 0.985, 0.174, 0, 14.655)" fill="#f2f3fe"/><ellipse cx="4.887" cy="4.886" rx="4.887" ry="4.886" transform="matrix(0.173, -0.985, 0.985, 0.174, 23.577, 16.218)" fill="#f2f3fe"/></g></g><g transform="translate(0 324.557)"><g transform="translate(0 0)"><ellipse cx="7.442" cy="7.441" rx="7.442" ry="7.441" transform="translate(18.38 14.883) rotate(-90)" fill="#f2f3fe"/><ellipse cx="4.888" cy="4.888" rx="4.888" ry="4.888" transform="translate(0 12.329) rotate(-90)" fill="#f2f3fe"/></g><g transform="translate(630.738 0)"><ellipse cx="7.442" cy="7.441" rx="7.442" ry="7.441" transform="translate(0 14.883) rotate(-90)" fill="#f2f3fe"/><ellipse cx="4.888" cy="4.888" rx="4.888" ry="4.888" transform="translate(23.486 12.329) rotate(-90)" fill="#f2f3fe"/></g></g><g transform="translate(4.199 269.535)"><g transform="translate(0 107.012)"><ellipse cx="7.441" cy="7.441" rx="7.441" ry="7.441" transform="matrix(-0.174, -0.985, 0.985, -0.174, 20.239, 17.24)" fill="#f2f3fe"/><ellipse cx="4.887" cy="4.886" rx="4.887" ry="4.886" transform="matrix(-0.173, -0.985, 0.985, -0.174, 1.695, 17.917)" fill="#f2f3fe"/></g><g transform="translate(620.709 0)"><ellipse cx="7.441" cy="7.441" rx="7.441" ry="7.441" transform="matrix(-0.174, -0.985, 0.985, -0.174, 2.586, 17.916)" fill="#f2f3fe"/><ellipse cx="4.887" cy="4.886" rx="4.887" ry="4.886" transform="matrix(-0.173, -0.985, 0.985, -0.174, 25.272, 11.325)" fill="#f2f3fe"/></g></g><g transform="translate(18.354 213.856)"><g transform="translate(0 213.325)"><ellipse cx="7.442" cy="7.442" rx="7.442" ry="7.442" transform="matrix(-0.342, -0.94, 0.94, -0.342, 21.484, 19.074)" fill="#f2f3fe"/><ellipse cx="4.887" cy="4.885" rx="4.887" ry="4.885" transform="matrix(-0.342, -0.94, 0.94, -0.342, 3.342, 22.96)" fill="#f2f3fe"/></g><g transform="translate(591.82 0)"><ellipse cx="7.442" cy="7.442" rx="7.442" ry="7.442" transform="matrix(-0.342, -0.94, 0.94, -0.342, 5.093, 22.96)" fill="#f2f3fe"/><ellipse cx="4.887" cy="4.885" rx="4.887" ry="4.885" transform="matrix(-0.342, -0.94, 0.94, -0.342, 26.293, 12.526)" fill="#f2f3fe"/></g></g><g transform="translate(42.037 161.765)"><g transform="translate(0 313.159)"><ellipse cx="7.442" cy="7.439" rx="7.442" ry="7.439" transform="matrix(-0.5, -0.866, 0.866, -0.5, 22.083, 20.33)" fill="#f2f3fe"/><ellipse cx="4.888" cy="4.887" rx="4.888" ry="4.887" transform="matrix(-0.5, -0.866, 0.866, -0.5, 4.888, 27.309)" fill="#f2f3fe"/></g><g transform="translate(544.96 0)"><ellipse cx="7.442" cy="7.439" rx="7.442" ry="7.439" transform="matrix(-0.5, -0.866, 0.866, -0.5, 7.442, 27.309)" fill="#f2f3fe"/><ellipse cx="4.888" cy="4.887" rx="4.888" ry="4.887" transform="matrix(-0.5, -0.866, 0.866, -0.5, 26.504, 13.355)" fill="#f2f3fe"/></g></g><g transform="translate(74.532 114.849)"><g transform="translate(0 403.474)"><ellipse cx="7.439" cy="7.442" rx="7.439" ry="7.442" transform="matrix(-0.643, -0.766, 0.766, -0.643, 22.001, 20.966)" fill="#f2f3fe"/><ellipse cx="4.888" cy="4.887" rx="4.888" ry="4.887" transform="matrix(-0.643, -0.766, 0.766, -0.643, 6.283, 30.825)" fill="#f2f3fe"/></g><g transform="translate(481.533 0)"><ellipse cx="7.439" cy="7.442" rx="7.439" ry="7.442" transform="matrix(-0.643, -0.766, 0.766, -0.643, 9.562, 30.823)" fill="#f2f3fe"/><ellipse cx="4.888" cy="4.887" rx="4.888" ry="4.887" transform="matrix(-0.643, -0.766, 0.766, -0.643, 25.916, 13.77)" fill="#f2f3fe"/></g></g><g transform="translate(114.851 74.53)"><g transform="translate(0 481.533)"><ellipse cx="7.439" cy="7.442" rx="7.439" ry="7.442" transform="matrix(-0.766, -0.643, 0.643, -0.766, 21.256, 20.965)" fill="#f2f3fe"/><ellipse cx="4.888" cy="4.887" rx="4.888" ry="4.887" transform="matrix(-0.766, -0.643, 0.643, -0.766, 7.489, 33.405)" fill="#f2f3fe"/></g><g transform="translate(403.475 0)"><ellipse cx="7.439" cy="7.442" rx="7.439" ry="7.442" transform="matrix(-0.766, -0.643, 0.643, -0.766, 11.399, 33.404)" fill="#f2f3fe"/><ellipse cx="4.888" cy="4.887" rx="4.888" ry="4.887" transform="matrix(-0.766, -0.643, 0.643, -0.766, 24.542, 13.772)" fill="#f2f3fe"/></g></g><g transform="translate(161.766 42.035)"><g transform="translate(0 544.96)"><ellipse cx="7.442" cy="7.439" rx="7.442" ry="7.439" transform="matrix(-0.866, -0.5, 0.5, -0.866, 19.869, 20.326)" fill="#f2f3fe"/><ellipse cx="4.888" cy="4.887" rx="4.888" ry="4.887" transform="matrix(-0.866, -0.5, 0.5, -0.866, 8.467, 34.966)" fill="#f2f3fe"/></g><g transform="translate(313.159 0)"><ellipse cx="7.442" cy="7.439" rx="7.442" ry="7.439" transform="matrix(-0.866, -0.5, 0.5, -0.866, 12.889, 34.967)" fill="#f2f3fe"/><ellipse cx="4.888" cy="4.887" rx="4.888" ry="4.887" transform="matrix(-0.866, -0.5, 0.5, -0.866, 22.42, 13.351)" fill="#f2f3fe"/></g></g><g transform="translate(213.858 18.352)"><g transform="translate(0 591.821)"><ellipse cx="7.442" cy="7.442" rx="7.442" ry="7.442" transform="matrix(-0.94, -0.342, 0.342, -0.94, 17.871, 19.08)" fill="#f2f3fe"/><ellipse cx="4.887" cy="4.885" rx="4.887" ry="4.885" transform="matrix(-0.94, -0.342, 0.342, -0.94, 9.184, 35.471)" fill="#f2f3fe"/></g><g transform="translate(213.325 0)"><ellipse cx="7.442" cy="7.442" rx="7.442" ry="7.442" transform="matrix(-0.94, -0.342, 0.342, -0.94, 13.985, 35.472)" fill="#f2f3fe"/><ellipse cx="4.887" cy="4.885" rx="4.887" ry="4.885" transform="matrix(-0.94, -0.342, 0.342, -0.94, 19.618, 12.523)" fill="#f2f3fe"/></g></g><g transform="translate(269.535 4.197)"><g transform="translate(0 620.709)"><ellipse cx="7.441" cy="7.441" rx="7.441" ry="7.441" transform="matrix(-0.985, -0.174, 0.174, -0.985, 15.332, 17.242)" fill="#f2f3fe"/><ellipse cx="4.887" cy="4.886" rx="4.887" ry="4.886" transform="matrix(-0.985, -0.173, 0.174, -0.985, 9.625, 34.893)" fill="#f2f3fe"/></g><g transform="translate(107.013 0)"><ellipse cx="7.441" cy="7.441" rx="7.441" ry="7.441" transform="matrix(-0.985, -0.174, 0.174, -0.985, 14.655, 34.895)" fill="#f2f3fe"/><ellipse cx="4.887" cy="4.886" rx="4.887" ry="4.886" transform="matrix(-0.985, -0.173, 0.174, -0.985, 16.218, 11.318)" fill="#f2f3fe"/></g></g><g transform="translate(324.559)"><g transform="translate(0 630.737)"><circle cx="7.441" cy="7.441" r="7.441" fill="#f2f3fe"/><circle cx="4.887" cy="4.887" r="4.887" transform="translate(2.554 23.487)" fill="#f2f3fe"/></g><circle cx="7.441" cy="7.441" r="7.441" transform="translate(0 18.379)" fill="#f2f3fe"/><circle cx="4.887" cy="4.887" r="4.887" transform="translate(2.554)" fill="#f2f3fe"/></g></g></g><g transform="translate(1128 200)"><g transform="translate(294.865 550.343)"><ellipse cx="77.377" cy="8.637" rx="77.377" ry="8.637" fill="#29304d"/></g><g transform="translate(25.699 25.788)"><path d="M674.581,203.574c-1.732.32-4.972-.68-4.365-6.012,1.854-7.913,11.873-46.482-3.955-39.812-.317,15.285-13.267,33.347-15.542,53.51Q649.2,229.4,630.7,245.118C586.485,282.7,453.6,322.4,396.981,336.3l-18.039-55.061-32.839,19.1-12.045,49.443C194.622,375.277,64.777,368.427,61.031,284.868c18.94-19.1,3.167-44.359,39.015-50.435-11.618-15.712-30.342,4.715-38.921,7.573-4.137-16.367-21.041-56.571-29.476-64.087-5.778-5.312-10.462,2.437-.5,17.728,7,18.5,7.753,26.858,10.3,33.117-13.307,2.984-30.376,14.411-34.484,38.3.168,103.651,85.272,156.161,224.116,155.977,32.06,3.81,31.736,13.591,44.3,27.265,50.918,53.253,152.476,42.62,203.279-60.9,5.923-11.236,9.723-16.9,25.222-23.484,36.259-14.228,170.679-46.831,202.362-118.332l2.717-46.388c-14.041-1.614-25.522-.962-34.374,2.377Z" transform="translate(-6.959 -156.978)" fill="#e49173" fill-rule="evenodd"/><path d="M356.669,293.616c4.212-7.495,6.927-19.049,8.423-30.427,6.257-28.434-21.291-39.689-34.262-27.48-7.211,8.207-12.766,31.886-12.926,53.746C317.7,317.7,342.227,319.322,356.669,293.616Z" transform="translate(9.5 -153.286)" fill="#e49173" fill-rule="evenodd"/><path d="M375.782,265.579q5.035-3.917,0-7.833-7.262,5.735-19.021,1.119c-2.238,0-2.8,3.076-.279,4.755q10.463,5.634,19.3,1.958Z" transform="translate(-41.564 -151.94)" fill="#e49173" fill-rule="evenodd"/><path d="M358.621,275.112q-4.725,5.835-12.586,3.078" transform="translate(-12.656 -151.072)" fill="none" stroke="#b5684c" stroke-linecap="round" stroke-linejoin="round" stroke-miterlimit="22.926" stroke-width="1" fill-rule="evenodd"/><path d="M359.321,322.9c-23-10.284-37.167-8.93-52.908-10.071l1.224-5.023c17.285,10.27,32.592-17.927,36.1-32.48L359.321,322.9Z" transform="translate(28.247 -151.061)" fill="#b5684c" fill-rule="evenodd"/><path d="M307.253,224.961c1.667,5.179,5.918,7.3,14.419,7.729a68.472,68.472,0,0,1-8.281,1.221c.9,1.044,1.828,2.043,2.8,2.988a32.451,32.451,0,0,0,9.311.041,54.354,54.354,0,0,1-7.116,1.959c14.342,3.992,23.7,11.579,36.619,2.188-3.573,12.006,6.629,13.28-1.6,27.508,23.56,2.734,30.9-32.383,8.022-39.495-1.744-9.605-23.24-16.181-35.713-2.743q-7.6,5.1-18.461-1.4Z" transform="translate(11.386 -153.89)" fill="#29304d" fill-rule="evenodd"/><ellipse cx="1.958" cy="3.217" rx="1.958" ry="3.217" transform="translate(334.441 102.536) rotate(167.63)" fill="#29304d"/><ellipse cx="2.246" cy="3.69" rx="2.246" ry="3.69" transform="translate(345.676 106.088) rotate(167.631)" fill="#29304d"/><path d="M340.742,243.674c7.75.146,13.7,3.861,10.442,10.393q-2.3-6.012-9.232-6.154C340.619,247.571,340.444,245.153,340.742,243.674Z" transform="translate(-0.44 -152.644)" fill="#29304d" fill-rule="evenodd"/><path d="M362.343,243.018c-3.041.654-5.36.727-7.741,1.855,1.308,2.776,3.852,2.312,6.6,2.034.781-.44,1.446-2.776,1.139-3.889Z" transform="translate(-25.449 -152.676)" fill="#29304d" fill-rule="evenodd"/><path d="M308.174,268.681c9.709-17.673,17.9-22.377,20.419-13.706,1.068,7.544-4.073,15.181-16.3,23.487Z" transform="translate(56.989 -152.29)" fill="#e49173" fill-rule="evenodd"/><path d="M326.508,261.252c-4.755,1.4-6.99,5.5-9.51,13.146" transform="translate(49.947 -151.765)" fill="none" stroke="#b5684c" stroke-linecap="round" stroke-linejoin="round" stroke-miterlimit="22.926" stroke-width="1" fill-rule="evenodd"/><path d="M355.186,263.116c6.858,4.605,14.411,4.2,21.761,1.545" transform="translate(-40.59 -151.671)" fill="none" stroke="#b5684c" stroke-linecap="round" stroke-linejoin="round" stroke-miterlimit="22.926" stroke-width="1" fill-rule="evenodd"/><path d="M616.424,273.16q-5.432-27.6,19.013-34.957a49.439,49.439,0,0,0,8.929-5.167" transform="translate(-581.272 -153.175)" fill="none" stroke="#b5684c" stroke-linecap="round" stroke-linejoin="round" stroke-miterlimit="22.926" stroke-width="1" fill-rule="evenodd"/><path d="M59.69,245.52c-3.694,7.364-5.143,11.337-12.875,20.922-11.729-2.172-30.683-13.61-39.856-24.126Q34.742,231.6,28.871,201.2q13.225-4.531,33.536-2.073Q59.689,245.519,59.69,245.52Z" transform="translate(639.588 -154.914)" fill="#b5684c" fill-rule="evenodd"/></g><g transform="translate(53.015 0)"><rect width="656.52" height="365.538" rx="15.944" transform="translate(0)" fill="none" stroke="#29304d" stroke-linecap="round" stroke-linejoin="round" stroke-miterlimit="22.926" stroke-width="2"/><line x1="656.521" transform="translate(0 18.545)" fill="none" stroke="#29304d" stroke-linecap="round" stroke-linejoin="round" stroke-miterlimit="22.926" stroke-width="2"/><g transform="translate(587.182 4.747)"><ellipse cx="4.52" cy="4.526" rx="4.52" ry="4.526" transform="translate(38.898)" fill="none" stroke="#29304d" stroke-linecap="round" stroke-linejoin="round" stroke-miterlimit="22.926" stroke-width="2"/><ellipse cx="4.52" cy="4.526" rx="4.52" ry="4.526" transform="translate(19.449)" fill="none" stroke="#29304d" stroke-linecap="round" stroke-linejoin="round" stroke-miterlimit="22.926" stroke-width="2"/><ellipse cx="4.52" cy="4.526" rx="4.52" ry="4.526" transform="translate(0)" fill="none" stroke="#29304d" stroke-linecap="round" stroke-linejoin="round" stroke-miterlimit="22.926" stroke-width="2"/></g></g><g transform="translate(0 46.98)"><path d="M650.017,271.73c-18.42,1.007-46.28-7.848-45.185-30.69q6.919-1.177,10.7,6.65,6.135,6.506,12.182,7.179-.277-17.679-1.178-22.366c4.966-10.731,8.552-27.668,9.752-39.1,9.072-2.051,11.268,10.294,7.536,26.005,1.307-.161,2.74-.372,4.287-.632,11.08-8.3,25.547-29.225,33.183-41.614,7.411,6.453,7.366,16.892-.138,22.956-1.491,3.009-8.1,11.527-9.515,13.421,12.669-3.259,17.913-6.509,32.192-11.054,2.882,6.067-1.381,12.675-6.768,15.473-11.552,5.671-30.437,14.792-47.046,16.805V271.73Z" transform="translate(-604.801 -177.161)" fill="#e49173" fill-rule="evenodd"/><path d="M668.74,244.331q11.362,10.255,22.1,7.061" transform="translate(-658.011 -173.802)" fill="none" stroke="#b5684c" stroke-linecap="round" stroke-linejoin="round" stroke-miterlimit="22.926" stroke-width="1" fill-rule="evenodd"/><path d="M667.577,220.5q-38.862,17.928-46.014,11.678c-4.543-4.918.577-12.412,1.186-15.859a38.15,38.15,0,0,0,.023-19.3" transform="translate(-583.261 -176.168)" fill="none" stroke="#b5684c" stroke-linecap="round" stroke-linejoin="round" stroke-miterlimit="22.926" stroke-width="1" fill-rule="evenodd"/><path d="M653.166,177.161q11.118,11.572-.138,22.956c-2.247,5.43-12.235,17.9-20.979,27.011q-6.571,6.894-10.159,7.634" transform="translate(-576.674 -177.161)" fill="none" stroke="#b5684c" stroke-linecap="round" stroke-linejoin="round" stroke-miterlimit="22.926" stroke-width="1" fill-rule="evenodd"/><path d="M665.625,227.029a20.582,20.582,0,0,1-.732,10.16" transform="translate(-629.086 -174.668)" fill="none" stroke="#b5684c" stroke-linecap="round" stroke-linejoin="round" stroke-miterlimit="22.926" stroke-width="1" fill-rule="evenodd"/></g><g transform="translate(657.215 43.349)"><g transform="translate(0 0.001)"><g transform="translate(0.035)"><path d="M69.281,194.5c-32.275-6.7-55.55-13.256-66.713-20.8-8.567,21.717,48.91,30.913,62,31.638,7.126-.257,9.783-8.062,4.715-10.839Z" transform="translate(4.059 -173.704)" fill="#e49173" fill-rule="evenodd"/><path d="M73.143,219.393c6.305-1.537,6.021-12.007-.131-15.333l-36.8-7.912A251.446,251.446,0,0,1,0,194.091c.4,10.2,5.058,13.12,12.879,14.8,10.01,2.155,20,.09,20.109.2,11.795,6.509,25.159,10.834,40.155,10.3Z" transform="translate(0 -172.685)" fill="#e49173" fill-rule="evenodd"/><path d="M70.42,231.654q10.42-3.2,4.2-13.286-24.742.425-37.385-3.788-20.929,3.432-34.122,2.372C-.4,224.024,6.658,227.6,12.71,227.977q15.808.976,26.433-1.185,12.872,6.78,31.277,4.863Z" transform="translate(-1.479 -171.66)" fill="#e49173" fill-rule="evenodd"/><path d="M65.671,230.659c6.9,2.076,6.452,14.481-.419,14.757-10.458,1.705-20.924-1.66-31.042-4.492A48.653,48.653,0,0,1,4.4,235.609c-2.88-2.228-1.3-6.694,1.854-6.527C22,231.526,39.669,231.972,65.671,230.659Z" transform="translate(4.082 -170.935)" fill="#e49173" fill-rule="evenodd"/></g><path d="M65.945,231.348q-12.035,2.243-28-5.138A104.293,104.293,0,0,1,11.512,227.4" transform="translate(-0.247 -171.079)" fill="none" stroke="#b5684c" stroke-linecap="round" stroke-linejoin="round" stroke-miterlimit="22.926" stroke-width="1" fill-rule="evenodd"/><path d="M77.56,204.06q-30.35-6.146-39.267-8.856-12.413,1.9-33.745-1.112-1.117,19.062,32.988,15c9.524,5.077,20.167,9.2,31.021,10.028" transform="translate(-4.513 -172.685)" fill="none" stroke="#b5684c" stroke-linecap="round" stroke-linejoin="round" stroke-miterlimit="22.926" stroke-width="1" fill-rule="evenodd"/></g><path d="M70.913,194.5c-26.1-4.826-47.966-10.659-66.713-20.8" transform="translate(2.463 -173.703)" fill="none" stroke="#b5684c" stroke-linecap="round" stroke-linejoin="round" stroke-miterlimit="22.926" stroke-width="1" fill-rule="evenodd"/></g><g transform="translate(188.38 396.304)"><path d="M393.681,519.021q-62.14-13.762-108.913,1.94c-4.708,2.126-3.964,6.074,1.974,5.151q51.033-13.915,92.19.67Z" transform="translate(-142.842 -509.713)" fill="#fff" fill-rule="evenodd"/><path d="M521.35,567.434q-5.98-14.117,4.554-28.416-61.444-18.358-97.261-6.954a36.635,36.635,0,0,0-14.3,13.39q10.8,7.552,35.487,4.021,18.5-4.793,71.519,17.959Z" transform="translate(-414.344 -508.958)" fill="#fff" fill-rule="evenodd"/><path d="M401.6,592.547c17.3-8.824,28.646,5.734,13.975,20.623-30.351,19.14-69.2,14.5-101.986,4.829-19.021-6.4-37.966-14.671-56.321-23.263-15.688-7.343-30.946-14.917-45.45-21.748q-.871-.411-1.739-.817a2.021,2.021,0,0,1-3.362-1.568c-1.864-9.3.588-28,14.931-37.406C245.323,529.993,341.207,632.212,401.6,592.547Z" transform="translate(-92.177 -508.686)" fill="#fff" fill-rule="evenodd"/><path d="M230.552,568.588q-16.29-5.939-29.207-11.975,66.268-41.289,120.087-37.571,7.125,3.359,16.8,13.521c-34.045-2.85-65.467,9.435-96.326,29.129a21.346,21.346,0,0,0-1.947,2.542A36.791,36.791,0,0,1,230.552,568.588Z" transform="translate(-3.024 -509.406)" fill="#fff" fill-rule="evenodd"/><path d="M505.509,598.19a38.707,38.707,0,0,0-9.977-14.992c-51.274,23.974-79.628,15.594-90.557-15.527-.985-9.615-16.775-2.544-16.6,10.669,2.936,35.878,37.975,52.627,117.137,19.85Z" transform="translate(-366.678 -507.181)" fill="#fff" fill-rule="evenodd"/><g transform="translate(0 0)"><path d="M445.683,515.869c-24.72-5.216-52.142-6.955-79.349-5.552-11.353.586-33.906,3.945-58.853,10.275M233.05,549.882c-22.414,14.371-34.662,32.61-22.633,55.063,17.107,31.934,84.042,14.737,143.5-9.046m73.8-33.764c8.651-4.627,15.636-8.658,20.224-11.462q36.852-19.727,76.1-17.667-21.379-24.1-53.146-18.386-11.888-5.63-15.472-4.147-23.809,13.424-46.611,24.5M308.463,574.151c-29.068,8.1-43.635,7.3-42.728-2.556m230.82-37.384c20.689,11.819,35.419,28.144,40.322,49.427,2.371,23.835-9.287,38.507-31.17,44.115-63.926,16.38-138.224-25.94-198.982-54.417a2.021,2.021,0,0,1-3.362-1.568c-26.956-12.5-51.092-21.954-70.311-21.885h0c-14,.1-31.569,4.978-44.224-3.536,3.516-6.918,14.712-16.581,32.9-20.058,22.475.752,35.609-.937,40.087-13.991,16.921-3.028,40.949,5.5,67.036,17.233,2.249-.926,5.038.463,4.634,2.106,17.006-4.513,28.29,13.482,40.32,19.2,14.669,6.969,27.98,12.993,41.407,17.791,17.414,6.225,33.091,9.478,45.228,6.782,8.7-1.933,13.017-6.521,6.7-12.868-4.135-4.155-13.637-9.26-19.108-11.915" transform="translate(-188.827 -509.85)" fill="none" stroke="#29304d" stroke-linecap="round" stroke-linejoin="round" stroke-miterlimit="22.926" stroke-width="2" fill-rule="evenodd"/><path d="M394.48,601.547c-4.7-15.825-15.555-25.472-31.114-27.74q4.949-1.131,10.646-2.717c14.5,6.83,29.762,14.4,45.45,21.748-7.708,3.037-15.576,5.972-23.466,8.71l-1.378.475c-.045-.159-.091-.317-.139-.475Z" transform="translate(-254.376 -506.788)" fill="#29304d" fill-rule="evenodd"/><path d="M243.021,561.779a35.224,35.224,0,0,0-8.169-6.036,101.468,101.468,0,0,0-11.422-6.232A148.853,148.853,0,0,1,272.143,533.1q2.144,1.227,4.2,2.518c-16.806-1.96-28.209,11.57-33.3,26.182Z" transform="translate(35.677 -508.687)" fill="#29304d" fill-rule="evenodd"/><path d="M422.513,527.153a14.26,14.26,0,0,0-9.669-.379c-14.8,4.365-27.816,29.177-19.839,40.74" transform="translate(-285.999 -509.037)" fill="none" stroke="#29304d" stroke-linecap="round" stroke-linejoin="round" stroke-miterlimit="22.926" stroke-width="1" fill-rule="evenodd"/><path d="M437.679,520.894c-17.858-7.374-39.376,26.049-29.673,40.114" transform="translate(-316.931 -509.35)" fill="none" stroke="#29304d" stroke-linecap="round" stroke-linejoin="round" stroke-miterlimit="22.926" stroke-width="1" fill-rule="evenodd"/><path d="M309.986,559.455c7.893-11.691-5.065-29.735-21.833-25.594" transform="translate(-68.299 -508.68)" fill="none" stroke="#29304d" stroke-linecap="round" stroke-linejoin="round" stroke-miterlimit="22.926" stroke-width="1" fill-rule="evenodd"/><path d="M300.147,554.544c6.692-9.287-4.542-30.022-20.45-25.708" transform="translate(-49.178 -508.93)" fill="none" stroke="#29304d" stroke-linecap="round" stroke-linejoin="round" stroke-miterlimit="22.926" stroke-width="1" fill-rule="evenodd"/><line x1="15.666" y1="6.488" transform="translate(109.219 11.889)" fill="none" stroke="#29304d" stroke-linecap="round" stroke-linejoin="round" stroke-miterlimit="22.926" stroke-width="1"/><line x1="15.666" y1="6.487" transform="translate(103.725 15.2)" fill="none" stroke="#29304d" stroke-linecap="round" stroke-linejoin="round" stroke-miterlimit="22.926" stroke-width="1"/><line x1="15.665" y1="6.487" transform="translate(97.857 20.969)" fill="none" stroke="#29304d" stroke-linecap="round" stroke-linejoin="round" stroke-miterlimit="22.926" stroke-width="1"/><line x1="15.666" y1="6.488" transform="translate(92.722 28.909)" fill="none" stroke="#29304d" stroke-linecap="round" stroke-linejoin="round" stroke-miterlimit="22.926" stroke-width="1"/><line x1="15.942" y1="6.6" transform="translate(89.796 35.514)" fill="none" stroke="#29304d" stroke-linecap="round" stroke-linejoin="round" stroke-miterlimit="22.926" stroke-width="1"/><line x1="15.932" y1="6.556" transform="translate(88.723 41.345)" fill="none" stroke="#29304d" stroke-linecap="round" stroke-linejoin="round" stroke-miterlimit="22.926" stroke-width="1"/><line x1="15.666" y1="6.488" transform="translate(89.067 45.693)" fill="none" stroke="#29304d" stroke-linecap="round" stroke-linejoin="round" stroke-miterlimit="22.926" stroke-width="1"/><line x1="15.666" y1="6.487" transform="translate(89.845 49.248)" fill="none" stroke="#29304d" stroke-linecap="round" stroke-linejoin="round" stroke-miterlimit="22.926" stroke-width="1"/><line x1="15.91" y1="6.569" transform="translate(113.87 10.581)" fill="none" stroke="#29304d" stroke-linecap="round" stroke-linejoin="round" stroke-miterlimit="22.926" stroke-width="1"/><line y1="5.1" x2="9.575" transform="translate(225.385 19.323)" fill="none" stroke="#29304d" stroke-linecap="round" stroke-linejoin="round" stroke-miterlimit="22.926" stroke-width="1"/><line y1="5.099" x2="9.575" transform="translate(229.185 19.846)" fill="none" stroke="#29304d" stroke-linecap="round" stroke-linejoin="round" stroke-miterlimit="22.926" stroke-width="1"/><line y1="4.902" x2="9.206" transform="translate(233.757 21.646)" fill="none" stroke="#29304d" stroke-linecap="round" stroke-linejoin="round" stroke-miterlimit="22.926" stroke-width="1"/><line y1="4.865" x2="9.135" transform="translate(237.583 24.617)" fill="none" stroke="#29304d" stroke-linecap="round" stroke-linejoin="round" stroke-miterlimit="22.926" stroke-width="1"/><line y1="4.631" x2="8.696" transform="translate(240.954 28.315)" fill="none" stroke="#29304d" stroke-linecap="round" stroke-linejoin="round" stroke-miterlimit="22.926" stroke-width="1"/><line y1="4.683" x2="8.795" transform="translate(243.905 36.117)" fill="none" stroke="#29304d" stroke-linecap="round" stroke-linejoin="round" stroke-miterlimit="22.926" stroke-width="1"/><line y1="4.647" x2="8.727" transform="translate(244.191 39.705)" fill="none" stroke="#29304d" stroke-linecap="round" stroke-linejoin="round" stroke-miterlimit="22.926" stroke-width="1"/><line y1="4.848" x2="9.104" transform="translate(243.236 42.886)" fill="none" stroke="#29304d" stroke-linecap="round" stroke-linejoin="round" stroke-miterlimit="22.926" stroke-width="1"/><line y1="4.548" x2="8.542" transform="translate(243.185 32.509)" fill="none" stroke="#29304d" stroke-linecap="round" stroke-linejoin="round" stroke-miterlimit="22.926" stroke-width="1"/><path d="M459.184,513.792Q445.87,528.31,427.5,522.6" transform="translate(-361.439 -509.653)" fill="none" stroke="#29304d" stroke-linecap="round" stroke-linejoin="round" stroke-miterlimit="22.926" stroke-width="1" fill-rule="evenodd"/><path d="M254.921,517.6a26.814,26.814,0,0,0,21.8.172" transform="translate(2.228 -509.463)" fill="none" stroke="#29304d" stroke-linecap="round" stroke-linejoin="round" stroke-miterlimit="22.926" stroke-width="1" fill-rule="evenodd"/><path d="M410.149,530.6c-18.709,4.665-30.033,22.169-26.762,41.7" transform="translate(-265.495 -508.813)" fill="none" stroke="#29304d" stroke-linecap="round" stroke-linejoin="round" stroke-miterlimit="22.926" stroke-width="2" fill-rule="evenodd"/><path d="M385.227,531.964c19.269-.014,14.964,14.883-1.77,4.078-2.981-1.84-5.3.859-2.923,3.41q5.513,7.511-5.494,3.348" transform="translate(-245.11 -508.744)" fill="none" stroke="#29304d" stroke-linecap="round" stroke-linejoin="round" stroke-miterlimit="22.926" stroke-width="1" fill-rule="evenodd"/><path d="M413.19,528.592c-16.358,3.987-28.521,21.609-25.485,42.238" transform="translate(-273.171 -508.913)" fill="none" stroke="#29304d" stroke-linecap="round" stroke-linejoin="round" stroke-miterlimit="22.926" stroke-width="2" fill-rule="evenodd"/><path d="M292.081,547.649c11.8-3.377,24.015-11.37,27.083-12.379,16.212-6.747,37.7,13.622,26.722,28.2a36.524,36.524,0,0,1-9.408,4.354" transform="translate(-108.95 -508.646)" fill="none" stroke="#29304d" stroke-linecap="round" stroke-linejoin="round" stroke-miterlimit="22.926" stroke-width="2" fill-rule="evenodd"/><path d="M389.639,558.5c12.245,23.087-7.343,32.975-27.47,31.82-28.034-1.607-52.918-14.162-74.457-31.234-17.292-13.708-37.427-30.257-48.459-27.5" transform="translate(-98.03 -508.778)" fill="none" stroke="#29304d" stroke-linecap="round" stroke-linejoin="round" stroke-miterlimit="22.926" stroke-width="2" fill-rule="evenodd"/><path d="M470.579,577.974q.32-.192.648-.377c11.519-6.49,25.7-3.155,31.673,7.449s1.483,24.461-10.035,30.951" transform="translate(-453.033 -506.628)" fill="none" stroke="#29304d" stroke-linecap="round" stroke-linejoin="round" stroke-miterlimit="22.926" stroke-width="1" fill-rule="evenodd"/><path d="M493.649,572a12.4,12.4,0,0,0-.987,4.764" transform="translate(-464.324 -506.743)" fill="none" stroke="#29304d" stroke-linecap="round" stroke-linejoin="round" stroke-miterlimit="22.926" stroke-width="1" fill-rule="evenodd"/><path d="M486.735,576.372a7.815,7.815,0,0,0,1.888-4.334" transform="translate(-453.074 -506.741)" fill="none" stroke="#29304d" stroke-linecap="round" stroke-linejoin="round" stroke-miterlimit="22.926" stroke-width="1" fill-rule="evenodd"/><path d="M475.2,603.67a9.68,9.68,0,0,0-5.923-1.544" transform="translate(-421.327 -505.238)" fill="none" stroke="#29304d" stroke-linecap="round" stroke-linejoin="round" stroke-miterlimit="22.926" stroke-width="1" fill-rule="evenodd"/><path d="M480.121,613.152a18.552,18.552,0,0,1-2.748-3.262" transform="translate(-434.742 -504.848)" fill="none" stroke="#29304d" stroke-linecap="round" stroke-linejoin="round" stroke-miterlimit="22.926" stroke-width="1" fill-rule="evenodd"/></g><path d="M206.773,567.744c-10.5,4.325-5.457,13.752,3.23,16.322C222.438,587.746,217.945,564.6,206.773,567.744Z" transform="translate(118.232 -506.97)" fill="#fff" fill-rule="evenodd"/></g></g></g></svg>