<svg xmlns="http://www.w3.org/2000/svg" width="404.096" height="404.5" viewBox="0 0 404.096 404.5"><circle cx="22.236" cy="22.236" r="22.236" transform="translate(115.253 171.111)" fill="#fcf32a"/><path d="M347.436,186.137c-10.585,0-19.165-23.882-19.165-53.341,0,29.459-8.581,53.341-19.165,53.341,10.584,0,19.165,23.883,19.165,53.341C328.272,210.02,336.851,186.137,347.436,186.137Z" transform="translate(-59.289 -25.067)" fill="#29304d" stroke="#29304d" stroke-linecap="round" stroke-linejoin="round" stroke-miterlimit="22.926" stroke-width="1" fill-rule="evenodd"/><circle cx="13.517" cy="13.517" r="13.517" transform="translate(326.009 229.079)" fill="#86e5c7"/><path d="M267.258,408.111l8.417,10.726.032-.025c11.063,14.1,48.093,3.5,82.709-23.661s53.708-60.614,42.645-74.712a13.576,13.576,0,0,0-1.75-1.842l-6.857-8.737" transform="translate(-51.262 -59.03)" fill="none" stroke="#29304d" stroke-linecap="round" stroke-linejoin="round" stroke-miterlimit="22.926" stroke-width="2" fill-rule="evenodd"/><path d="M266.287,383.243c-3.824,9.677-4.026,17.952.225,23.368,11.063,14.1,48.093,3.5,82.708-23.661s53.688-60.6,42.645-74.713c-5.376-6.871-16.838-7.827-31.267-3.877m-18.225,6.884c-4.63,2.178-9.4,4.721-14.24,7.605m-8.678,5.494c-3.459,2.319-6.879,4.873-10.3,7.555m-15.669,13.716a161.329,161.329,0,0,0-11.647,12.639" transform="translate(-50.517 -57.529)" fill="none" stroke="#29304d" stroke-linecap="round" stroke-linejoin="round" stroke-miterlimit="22.926" stroke-width="2" fill-rule="evenodd"/><path d="M103.08,174.3c22.631,23.6,55.743,46.147,87.184,43.273,16.287-.623,28.469,12.722,22.8,29.049-9.946,28.165,1.839,71.657,31.883,109.939,7.723,9.841,37.322-.5,66.11-23.088s45.865-48.885,38.142-58.727c-21.608-27.534-61.689-60.8-99.278-57.049-18.752,1.772-26.469-14.859-22.966-28.427,8.844-24.65,1.159-61.347-21.111-95.869" transform="translate(-19.772 -17.512)" fill="none" stroke="#29304d" stroke-linecap="round" stroke-linejoin="round" stroke-miterlimit="22.926" stroke-width="2" fill-rule="evenodd"/><path d="M66.328,152.086l8.417,10.726c9.737,12.407,45.691.444,80.307-26.721S209.835,76.845,200.1,64.439a10.54,10.54,0,0,0-1.679-1.695l-6.954-8.862" transform="translate(-12.722 -9.931)" fill="none" stroke="#29304d" stroke-linecap="round" stroke-linejoin="round" stroke-miterlimit="22.926" stroke-width="2" fill-rule="evenodd"/><ellipse cx="79.672" cy="28.557" rx="79.672" ry="28.557" transform="matrix(0.787, -0.617, 0.617, 0.787, 35.976, 119.69)" fill="none" stroke="#29304d" stroke-linecap="round" stroke-linejoin="round" stroke-miterlimit="22.926" stroke-width="1.955"/><path d="M291.944,351.816c-42.917,21.3-78.8-37.562-65.17-93.231.916-15.14-13.205-29.9-25.793-29.553-33.494-4.789-58.513-21.362-69.767-40.5" transform="translate(-25.168 -35.758)" fill="none" stroke="#29304d" stroke-linecap="round" stroke-linejoin="round" stroke-miterlimit="22.926" stroke-width="2" fill-rule="evenodd"/><path d="M228.335,130.851a78.07,78.07,0,0,1,7.636,13.816m3.685,10.181q1.315,4.413,2.266,9.145m1.571,10.471a122.34,122.34,0,0,1,.409,19.3m9.984,31.658a29.12,29.12,0,0,0,4.338,3.015m12.192,2.973c55.376,2.387,100.807,49.683,70.7,85.372a109.171,109.171,0,0,1-30.545,23.971" transform="translate(-43.796 -24.694)" fill="none" stroke="#29304d" stroke-linecap="round" stroke-linejoin="round" stroke-miterlimit="22.926" stroke-width="2" fill-rule="evenodd"/><path d="M271.875,293.975a25.71,25.71,0,0,0,13.41,4.567l.011,0h0q1.28.068,2.6.021c28.356,0,51.344,8.336,51.344,18.619a7.148,7.148,0,0,1-.438,2.437l.441.029q-3.616,15.331-31.052,33.381c.283-.012.567-.026.851-.043q-4.051,2.627-8.371,4.923c-.384.191-.766.363-1.149.539l-.1.06-.013-.007c-27.267,12.579-51.5-7.075-61.708-37.387a7.754,7.754,0,0,1-1.141-3.61,102.987,102.987,0,0,1-1.06-52.825c.52-8.6-3.814-17.084-9.964-22.74a22.648,22.648,0,0,0-6.321-4.452,19.817,19.817,0,0,0-9.508-2.362q-5.68-.811-11.026-2.062c-3.573-.867-10.534-3.07-16.739-5.366a12.125,12.125,0,0,1-4.76-1.848l-.023-.01h.011a1.191,1.191,0,0,1-.477-.859c0-2.583,12.639-4.677,28.232-4.677s28.231,2.094,28.231,4.677a21.061,21.061,0,0,0,.933,3.756c8.606,33.563,22.2,56.027,37.789,65.238Z" transform="translate(-33.891 -41.852)" fill="#29304d" fill-rule="evenodd"/><g transform="translate(25.836)"><path d="M84.913-.107A.4.4,0,0,1,85.328-.5a.4.4,0,0,1,.393.415Zm-5.32,38.969-.781-.209.319-1.2.312-1.2.305-1.205.3-1.206.291-1.206.284-1.207.276-1.207.269-1.207.26-1.208.253-1.207.244-1.209.237-1.209.227-1.21.219-1.211.211-1.211.2-1.211.193-1.211.183-1.212.174-1.212.164-1.213.155-1.213.145-1.214.135-1.214.125-1.215.115-1.216.1-1.216.095-1.216.082-1.216.073-1.216.061-1.218.05-1.217.039-1.219.807.023-.039,1.225-.05,1.225L85.57,3.591,85.5,4.815l-.083,1.224-.095,1.223-.105,1.223L85.1,9.706l-.126,1.221-.136,1.221-.145,1.22-.156,1.22-.166,1.219-.175,1.219-.184,1.218-.194,1.217-.2,1.217L83.4,21.894l-.22,1.216-.229,1.216-.238,1.215-.246,1.214-.254,1.213-.262,1.213-.269,1.212L81.409,31.6l-.284,1.211-.293,1.211-.3,1.209-.306,1.21-.314,1.208-.32,1.208Zm0,0a.4.4,0,0,1-.781-.209ZM66.364,75.83a.4.4,0,1,1,.755.289ZM40.9,206.46l-.776.225h0l-1.047-3.955-.857-3.965-.676-3.975-.5-3.984-.331-3.994-.169-4-.014-4.011.134-4.021.275-4.03.409-4.038.537-4.047.656-4.055.77-4.064.877-4.072.976-4.08,1.069-4.089,1.155-4.1,1.234-4.1,1.306-4.113,1.372-4.12,1.43-4.128,1.481-4.136,1.527-4.144,1.565-4.152,1.6-4.159,1.62-4.167,1.637-4.174L59.8,92.63l1.652-4.189,1.649-4.2,1.638-4.2,1.622-4.211.755.289L65.5,80.333l-1.64,4.207-1.65,4.2-1.651,4.19-1.648,4.182-1.637,4.173-1.618,4.164L54.058,109.6,52.5,113.747l-1.524,4.138-1.479,4.128-1.426,4.12-1.368,4.11-1.3,4.1-1.23,4.092-1.151,4.082-1.065,4.072-.972,4.063-.873,4.052-.766,4.043-.653,4.033-.533,4.022-.407,4.013-.272,4-.133,3.991.014,3.982.168,3.971.327,3.96.5,3.95.669,3.94.849,3.929L40.9,206.46h0Zm136.02,41.484.15.794h0l-7.282,1.307-7.088,1.139-6.895.97-6.7.8-6.507.634-6.314.464-6.12.3-5.926.127-5.733-.042-5.54-.211-5.347-.38-5.153-.548-4.961-.718-4.767-.887-4.574-1.057-4.381-1.226-4.187-1.4L75.6,246.445l-3.8-1.736L68.194,242.8l-3.413-2.076-3.218-2.247-3.024-2.416-2.829-2.587-2.633-2.758-2.438-2.926L48.4,224.7l-2.046-3.265L44.5,218l-1.654-3.6-1.459-3.77-1.262-3.938.776-.225,1.249,3.895,1.441,3.725,1.633,3.557,1.826,3.388,2.018,3.22,2.21,3.053,2.4,2.884,2.6,2.717,2.788,2.551,2.982,2.383,3.176,2.217,3.37,2.05,3.564,1.884,3.759,1.717,3.954,1.549,4.149,1.384,4.344,1.216L92.9,250.9l4.734.881,4.929.713,5.124.546,5.32.378,5.514.209,5.709.042,5.9-.127,6.1-.294,6.294-.463,6.488-.631,6.684-.8,6.879-.968,7.073-1.136,7.268-1.3h0Zm211.072-17.9.8-.148-.661.38-5.92-4.743-5.986-4.11-6.05-3.507-6.113-2.934-6.172-2.388-6.231-1.873-6.288-1.386-6.342-.929-6.394-.5-6.445-.1-6.491.273-6.537.616-6.579.93-6.618,1.216-6.656,1.474-6.69,1.7-6.723,1.9-6.751,2.073-6.777,2.214-6.8,2.328-6.821,2.411-6.841,2.467-6.855,2.492-6.869,2.49-6.879,2.459-6.887,2.4-6.892,2.307-6.895,2.189-6.895,2.041-6.892,1.865-6.887,1.658-6.88,1.424-.15-.794,6.853-1.418,6.863-1.653,6.872-1.859,6.879-2.037,6.881-2.185,6.882-2.3,6.879-2.395,6.874-2.457,6.866-2.489,6.857-2.493,6.843-2.467,6.828-2.414,6.811-2.331,6.79-2.218,6.766-2.077,6.741-1.907,6.714-1.708,6.682-1.48,6.65-1.222,6.614-.936,6.576-.619,6.536-.275,6.492.1,6.447.5,6.4.937,6.346,1.4,6.29,1.89,6.231,2.411,6.169,2.961,6.105,3.538,6.036,4.145,5.964,4.779-.661.381Zm.661-.381a.4.4,0,1,1-.527.613l.527-.613Zm-45.8-41.3.16-.792,2.422.522,2.358.574,2.294.626,2.231.676,2.168.729,2.1.779,2.041.832,1.976.883,1.913.935,1.849.988,1.785,1.039,1.721,1.091,1.658,1.143,1.593,1.194,1.529,1.246,1.465,1.3,1.4,1.35,1.337,1.4,1.272,1.453,1.207,1.506,1.143,1.557L381.56,211l1.013,1.659.949,1.711.884,1.762.82,1.814.755,1.865.69,1.915.626,1.966.562,2.017.5,2.067.432,2.119-.8.148-.426-2.092-.491-2.041-.553-1.989-.617-1.937-.68-1.886-.744-1.835-.806-1.784-.87-1.733-.933-1.681-1-1.631-1.059-1.58L378.7,208.33l-1.186-1.478-1.249-1.427-1.313-1.377-1.376-1.326-1.439-1.276-1.5-1.225-1.567-1.176-1.632-1.124-1.695-1.074-1.759-1.024-1.823-.973-1.887-.923-1.952-.873-2.016-.822-2.08-.771-2.145-.72-2.208-.67-2.273-.62-2.337-.568-2.4-.518Zm0,0a.4.4,0,0,1,.16-.792l-.16.792Zm-21.421-3.116a.4.4,0,0,1-.023.808l.023-.808ZM291.79,187.4l-.086-.8,1.009-.107,1-.1,1-.1.994-.095.989-.09.984-.086.978-.082.974-.078.967-.074.963-.069.957-.065.953-.061.947-.057.942-.052.936-.048.932-.044.927-.04.921-.036.916-.032.91-.027.906-.023.9-.019.9-.015.89-.011.885-.006.879,0,.874,0,.87.006.864.01.858.015.854.019.848.023-.023.808-.845-.023-.849-.019-.855-.014-.86-.011-.866-.006-.87,0-.876,0-.881.006-.887.011-.891.015-.9.019-.9.023-.907.027-.912.032-.918.036-.923.04-.928.044-.933.048-.939.053-.943.057-.95.061-.954.065-.959.069-.965.074-.971.078-.975.082-.98.086-.986.089-.991.095-1,.1-1,.1-1.007.107Zm0,0a.4.4,0,1,1-.086-.8Zm-122.9,29.45a.4.4,0,0,1,.155.793l-.155-.793Zm-78.766,3.783.162-.792,1.949.38,1.983.349,2.015.318,2.047.288,2.081.258,2.113.228,2.146.2,2.179.166,2.211.136,2.244.1,2.277.075,2.309.044,2.342.013,2.374-.017,2.408-.047,2.44-.078,2.473-.108,2.505-.139,2.539-.17,2.571-.2,2.6-.23,2.636-.262,2.669-.292,2.7-.322,2.734-.353,2.767-.384,2.8-.415,2.832-.445,2.864-.475,2.9-.506,2.931-.537,2.963-.567.155.793-2.969.569-2.936.537-2.9.507-2.872.477-2.839.446-2.806.415-2.775.385-2.741.354-2.71.324-2.677.293-2.644.262-2.612.232-2.58.2-2.547.171-2.514.14-2.483.109-2.45.078-2.417.048-2.386.017-2.352-.013-2.32-.044-2.288-.075-2.256-.106-2.223-.137-2.191-.167-2.158-.2-2.126-.228-2.094-.259-2.061-.29-2.029-.321-2-.352-1.965-.382Zm0,0a.4.4,0,0,1,.162-.792Zm-17.3-6.158a.4.4,0,1,1-.32.742l.32-.742ZM38.851,90l.777.221,0-.019-1.39,6.181-1.233,6.033L35.935,108.3l-.919,5.737-.761,5.588-.605,5.439-.448,5.29L32.91,135.5l-.134,4.994.023,4.846.179,4.7.336,4.549.493,4.4.649,4.25.8,4.1.962,3.954,1.118,3.806,1.273,3.657,1.43,3.508,1.585,3.361,1.741,3.213,1.9,3.065,2.052,2.918,2.209,2.77,2.364,2.623,2.52,2.477,2.676,2.33,2.834,2.185,2.99,2.037,3.147,1.891,3.3,1.745,3.461,1.6-.32.742L69,213.6l-3.343-1.765-3.186-1.915-3.028-2.064-2.871-2.213-2.713-2.362-2.556-2.511-2.4-2.66L46.671,195.3l-2.079-2.956-1.921-3.105-1.763-3.253-1.6-3.4-1.445-3.548-1.287-3.7L35.442,171.5l-.971-3.989-.812-4.137-.654-4.284-.5-4.43-.339-4.578-.181-4.725-.023-4.872.135-5.019.292-5.165.45-5.313.607-5.459.765-5.607.921-5.754,1.079-5.9,1.237-6.049,1.393-6.2,0-.019Zm0,.019a.4.4,0,0,1,.787.184l-.787-.184Zm9.4-76.7.8-.082.192,2.032.16,2.055.129,2.079.1,2.1.065,2.128.035,2.152,0,2.176-.028,2.2-.06,2.225-.091,2.248-.122,2.273-.154,2.3-.185,2.321-.216,2.345-.248,2.37-.279,2.394-.31,2.417-.342,2.442-.373,2.467-.4,2.49-.436,2.514L46.015,63.5l-.5,2.563-.529,2.587-.56,2.611L43.836,73.9l-.623,2.66-.655,2.684-.685,2.708-.717,2.732-.748,2.756-.779,2.781L38.851,90l.777-2.774.747-2.75.715-2.726.684-2.7.652-2.677.621-2.652.59-2.628.559-2.6.527-2.58.5-2.555.465-2.53.434-2.506.4-2.482.372-2.458.34-2.433.309-2.409.277-2.384.246-2.36.216-2.336.184-2.311.152-2.286.122-2.263.091-2.238.059-2.213.028-2.189,0-2.164-.035-2.14-.065-2.116-.1-2.092-.129-2.067-.159-2.043-.19-2.018Zm0,0a.4.4,0,0,1,.8-.082l-.8.082Z" transform="translate(-31.968 0.5)" fill="#29304d"/></g><g transform="translate(86.055 310.056)"><path d="M364.879,383.207a.4.4,0,1,1,.44.677l-.44-.677Zm-105.52,28.872-.028-.808,4.178-.171,4.124-.223,4.071-.273,4.018-.323,3.964-.373,3.909-.421,3.855-.47,3.8-.517,3.744-.565,3.689-.611,3.632-.657,3.575-.7,3.518-.748,3.461-.791,3.4-.836,3.345-.879,3.286-.922,3.226-.964,3.168-1.005,3.107-1.047,3.047-1.087,2.986-1.127,2.926-1.166,2.864-1.206,2.8-1.244,2.74-1.282,2.677-1.319,2.615-1.355,2.551-1.392,2.486-1.427,2.423-1.462,2.357-1.5.44.677-2.373,1.507-2.437,1.471-2.5,1.436-2.566,1.4-2.629,1.363-2.692,1.326-2.754,1.289-2.817,1.25-2.878,1.211-2.939,1.173-3,1.132-3.061,1.092-3.121,1.051-3.18,1.01-3.24.968-3.3.925-3.357.883-3.416.839-3.473.794-3.531.75-3.588.706-3.644.66-3.7.613-3.756.567-3.811.519-3.866.47-3.921.423-3.975.373-4.029.324-4.082.274-4.135.224-4.187.172Zm0,0a.4.4,0,0,1-.028-.808Zm-45.5-2.092a.4.4,0,1,1-.07.8l.07-.8Zm-107.1-20.577.234-.773,3.615,1.083,3.6,1.054,3.581,1.026,3.564,1,3.548.97,3.53.942,3.512.916,3.5.887,3.478.861,3.461.833,3.444.807,3.425.78,3.407.753,3.39.727,3.371.7,3.353.674,3.335.648,3.317.622,3.3.6,3.28.571,3.26.546,3.242.52,3.223.495,3.2.47,3.184.444,3.166.42,3.146.4,3.126.371,3.107.346,3.087.323,3.068.3,3.047.275-.069.8-3.053-.276-3.073-.3-3.093-.323-3.113-.348-3.132-.371-3.151-.4-3.171-.42-3.19-.445-3.209-.47-3.228-.5-3.246-.52-3.266-.546-3.285-.571-3.3-.6-3.321-.623-3.34-.649-3.358-.675-3.377-.7-3.394-.727-3.412-.754-3.43-.781-3.449-.808-3.466-.834-3.483-.862-3.5-.889-3.517-.916-3.535-.944-3.553-.972-3.568-1-3.586-1.028-3.6-1.056-3.619-1.084Zm0,0a.4.4,0,1,1,.234-.773Z" transform="translate(-106.478 -383.142)" fill="#29304d"/></g><g transform="translate(374.836 230.067)"><path d="M470.822,284.656a.4.4,0,1,1,.79-.166l-.79.166Zm-6.269,48.713-.706-.393.742-1.367.71-1.378.676-1.388.643-1.4.611-1.409.577-1.419.544-1.429.512-1.439.478-1.449.444-1.459.411-1.468.377-1.477.343-1.486.309-1.5.275-1.5.24-1.512.206-1.521.171-1.529.137-1.537.1-1.545.067-1.553.032-1.561,0-1.569-.038-1.575-.074-1.583-.109-1.59-.145-1.6-.18-1.6-.217-1.61-.252-1.616-.289-1.623-.324-1.629.79-.166.328,1.645.292,1.64.255,1.633.218,1.627.183,1.62.146,1.615.11,1.608.074,1.6.039,1.593,0,1.587-.033,1.579-.068,1.571-.1,1.564-.138,1.556-.173,1.548-.208,1.539-.243,1.531-.278,1.523-.313,1.513-.347,1.5-.381,1.5-.415,1.486-.449,1.476-.483,1.467-.517,1.456-.55,1.446-.585,1.437-.617,1.426-.651,1.415-.684,1.4-.718,1.393-.75,1.382Zm0,0a.4.4,0,1,1-.706-.393Z" transform="translate(-463.796 -284.169)" fill="#29304d"/></g><rect width="404.096" height="404.096" transform="translate(0 0.404)" fill="none"/></svg>