<svg xmlns="http://www.w3.org/2000/svg" xmlns:xlink="http://www.w3.org/1999/xlink" width="1640" height="808" viewBox="0 0 1640 808"><defs><linearGradient id="linear-gradient" x1="0.267" y1="0.5" x2="0.642" y2="0.5" gradientUnits="objectBoundingBox"><stop offset="0" stop-color="#515670"/><stop offset="1" stop-color="#29304d"/></linearGradient><linearGradient id="linear-gradient-2" x1="0.5" y1="0" x2="0.5" y2="0.922" xlink:href="#linear-gradient"/><linearGradient id="linear-gradient-3" x1="0.896" x2="0" xlink:href="#linear-gradient"/><radialGradient id="radial-gradient" cx="0.528" cy="-2.813" r="0.616" gradientTransform="translate(0 21.453) scale(1 8.628)" xlink:href="#linear-gradient"/><linearGradient id="linear-gradient-4" x1="1" x2="0.208" xlink:href="#linear-gradient"/></defs><g transform="translate(-144 -2224)"><path d="M32,0H1160a32,32,0,0,1,32,32H0A32,32,0,0,1,32,0Z" transform="translate(368 2224)" fill="#29304d"/><path d="M0,0H1629V24H0Z" transform="translate(155 3008)" fill="url(#linear-gradient)"/><path d="M10485,13251H8845c0-1.8.144-4.066,1.242-5.66s2.968-2.348,5.755-2.348l212-24h1196l216,24c3.039,0,9,3.625,9,8.006v0h0Z" transform="translate(-8701 -10243)" fill="url(#linear-gradient-2)"/><path d="M16,0H0V24H16Z" transform="translate(144 3008)" fill="url(#linear-gradient-3)"/><path d="M0,0H216a0,0,0,0,1,0,0V0a8,8,0,0,1-8,8H8A8,8,0,0,1,0,0V0A0,0,0,0,1,0,0Z" transform="translate(840 3008)" fill="url(#radial-gradient)"/><path d="M16,0H0V24H16Z" transform="translate(1768 3008)" fill="url(#linear-gradient-4)"/><g transform="translate(-31 272)"><circle cx="4" cy="4" r="4" transform="translate(1047 1964)" fill="#515670"/><line x1="104" transform="translate(935 1968)" fill="none" stroke="#515670" stroke-width="1"/></g></g></svg>
