<svg xmlns="http://www.w3.org/2000/svg" viewBox="0 0 2328 4657" shape-rendering="geometricPrecision" image-rendering="optimizeQuality" fill-rule="evenodd" clip-rule="evenodd"><path fill="#5159be" d="m0 0h2328v4657h-2328z"/><g fill="#fff"><path d="m974 2752h120l-195-246 184-198h-114l-197 208v-208h-102v445h102v-112l60-62 142 175zm485-445h-192v445h103v-123h90c119 0 193-62 193-161 0-100-74-161-193-161zm-6 238h-84v-154h84c63 0 95 29 95 77 0 48-32 77-95 77m-288 841l-1-445h-85l-164 276-166-276h-85v445h97v-261l130 214h46l131-220 1 267h97zm233 0h103v-445h-103v445m366 5c34 0 62-26 62-62 0-37-27-61-62-61-34 0-62 24-62 61 0 36 27 62 62 62m-709 630l-100-143c58-25 91-74 91-140 0-100-74-161-193-161h-192v445h103v-124h90 5l86 124h110zm-112-283c0 48-32 77-95 77h-84v-155h84c63 0 95 29 95 77zm510 291c126 0 201-72 201-203v-249h-102v245c0 84-36 119-99 119-62 0-99-35-99-119v-245h-103v249c0 131 75 203 201 203z" fill-rule="nonzero"/><g><path d="m1571 1765c35-37 54-85 54-136 0-35-10-70-28-101-64-12-123-44-169-90-45 3-88 23-120 56-25 26-42 58-50 93-3 14-5 28-5 42 0 0 0 1 0 1 0 50 20 99 54 135 5 5 9 9 14 13 33 28 74 43 117 43 50 0 97-20 131-56z"/><g fill-opacity=".6"><path d="m1424 951c61-64 146-100 234-100 28 0 56 4 83 11-14-82-84-142-167-142-94 0-170 76-170 170 0 2 0 4 0 6 0 22 4 44 12 64 3-3 5-6 8-8z"/><path d="m1251 1825l-91 80c46 0 90-19 122-53-69-52-109-134-109-220 0-1 0-1 0-2 0-25 3-50 10-74-7-1-15-2-22-2-95 3-170 81-170 175 0 95 75 172 170 175l91-80z"/><path d="m451 1237c61-64 146-100 234-100 23 0 45 2 67 7-24-68-87-114-159-115-94 1-170 78-170 173 0 1 0 2 0 3 0 18 3 36 8 54 6-7 13-15 19-22z"/><path d="m1082 483c62 65 97 151 97 241 0 0 0 1 0 1 0 47-10 95-28 138 112-10 198-104 198-217 0-1 0-2 0-3 0-1 0-2 0-3 0-119-95-215-214-217-33 0-66 8-96 23 15 11 29 24 42 37z"/></g><ellipse cx="854" cy="734" rx="246" ry="254"/><path d="m1659 939c137 2 246 114 246 250 0 1 0 2 0 4 0 1 0 2 0 4 0 137-110 248-246 250-137-2-246-114-246-250 0-1 0-2 0-4 0-1 0-2 0-4 0-137 110-248 246-250"/><ellipse cx="685" cy="1479" rx="246" ry="254"/></g></g></svg>