<svg xmlns="http://www.w3.org/2000/svg" width="280" height="280" viewBox="0 0 280 280"><path d="M72.334,147.806h83.413a8,8,0,0,1,7.977,7.977V203.82a8,8,0,0,1-7.977,7.976H92.778L72.334,232.24V211.8a8,8,0,0,1-7.977-7.976V155.783a8,8,0,0,1,7.977-7.977Z" fill="none" stroke="#29304d" stroke-linecap="round" stroke-linejoin="round" stroke-miterlimit="22.926" stroke-width="2.667" fill-rule="evenodd"/><path d="M76.379,147.806h79.368a8,8,0,0,1,7.977,7.977v43.991h4.045a8,8,0,0,0,7.977-7.976V143.761a8,8,0,0,0-7.977-7.977H84.356a8,8,0,0,0-7.977,7.977Z" fill="#29304d" fill-rule="evenodd"/><path d="M215.643,114.859c-13.314,0-24.107-30.042-24.107-67.1,0,37.057-10.793,67.1-24.107,67.1,13.314,0,24.107,30.042,24.107,67.1C191.536,144.9,202.329,114.859,215.643,114.859Z" fill="#86e5c7" fill-rule="evenodd"/><circle cx="4.754" cy="4.754" r="4.754" transform="translate(86.703 184.051)" fill="none" stroke="#29304d" stroke-linecap="round" stroke-linejoin="round" stroke-miterlimit="22.926" stroke-width="2.667"/><circle cx="4.754" cy="4.754" r="4.754" transform="translate(109.286 184.051)" fill="none" stroke="#29304d" stroke-linecap="round" stroke-linejoin="round" stroke-miterlimit="22.926" stroke-width="2.667"/><circle cx="4.754" cy="4.754" r="4.754" transform="translate(131.87 184.051)" fill="none" stroke="#29304d" stroke-linecap="round" stroke-linejoin="round" stroke-miterlimit="22.926" stroke-width="2.667"/><rect width="280" height="280" fill="none"/></svg>