<svg xmlns="http://www.w3.org/2000/svg" viewBox="0 0 1009.402 585.403"><defs><linearGradient id="linear-gradient" x1="0.49" y1="-0.207" x2="0.5" y2="1" gradientUnits="objectBoundingBox"><stop offset="0" stop-color="#f2f3fe"/><stop offset="1" stop-color="#a7abde"/></linearGradient></defs><g transform="translate(-896 -5912)"><g transform="translate(120 -3440)"><path d="M68.751,244.954A130.083,130.083,0,0,1,48.12,174.487q0-5.316.423-10.525A47.839,47.839,0,0,1,69.465,72.9a48.364,48.364,0,0,1,21.358,4.935,133.284,133.284,0,0,1,161.484-13.87A142.389,142.389,0,0,1,367.714,5.333c72.653,0,132.576,54.051,141.176,123.838a80.2,80.2,0,0,1,14.281-1.277c43.728,0,79.176,35.174,79.176,78.563a77.76,77.76,0,0,1-10.146,38.5H68.751Z" transform="translate(754.799 9354.667)" fill-rule="evenodd" fill="url(#linear-gradient)"/><path d="M773.419,473.787,422.751,203.74m-61.1-47.054-24.542-18.9" transform="translate(1010.582 9462.213)" fill="none" stroke="#ccc" stroke-linecap="round" stroke-miterlimit="22.926" stroke-width="2" stroke-dasharray="2 10.001" fill-rule="evenodd"/><path d="M773.419,473.787,422.751,203.74m-61.1-47.054-24.542-18.9" transform="translate(610.582 9462.213)" fill="none" stroke="#ccc" stroke-linecap="round" stroke-miterlimit="22.926" stroke-width="2" stroke-dasharray="2 10.001" fill-rule="evenodd"/><line x1="436.31" y1="336" transform="translate(1310.522 9600)" fill="none" stroke="#a7abde" stroke-linecap="round" stroke-miterlimit="22.926" stroke-width="2" stroke-dasharray="2 10.001"/><line x1="436.31" y1="336" transform="translate(910.522 9600)" fill="none" stroke="#a7abde" stroke-linecap="round" stroke-miterlimit="22.926" stroke-width="2" stroke-dasharray="2 10.001"/><line x1="234.741" y1="180.774" transform="translate(1273.352 9600)" fill="none" stroke="#a7abde" stroke-linecap="round" stroke-miterlimit="22.926" stroke-width="2" stroke-dasharray="2 10.001"/><line x1="234.741" y1="180.774" transform="translate(873.352 9600)" fill="none" stroke="#a7abde" stroke-linecap="round" stroke-miterlimit="22.926" stroke-width="2" stroke-dasharray="2 10.001"/><line x1="356.124" y1="274.25" transform="translate(1316.37 9661.75)" fill="none" stroke="#a7abde" stroke-linecap="round" stroke-miterlimit="22.926" stroke-width="2" stroke-dasharray="2 10.001"/><line x1="356.124" y1="274.25" transform="translate(916.37 9661.75)" fill="none" stroke="#a7abde" stroke-linecap="round" stroke-miterlimit="22.926" stroke-width="2" stroke-dasharray="2 10.001"/><line x1="304.133" y1="234.212" transform="translate(1199.014 9600)" fill="none" stroke="#a7abde" stroke-linecap="round" stroke-miterlimit="22.926" stroke-width="2" stroke-dasharray="2 10.001"/><line x1="436.31" y1="336" transform="translate(1161.845 9600)" fill="none" stroke="#a7abde" stroke-linecap="round" stroke-miterlimit="22.926" stroke-width="2" stroke-dasharray="2 10.001"/><path d="M600.973,473.787,386.123,308.332M213.364,175.292l-48.7-37.505" transform="translate(960.013 9462.213)" fill="none" stroke="#ccc" stroke-linecap="round" stroke-miterlimit="22.926" stroke-width="2" stroke-dasharray="2 10.001" fill-rule="evenodd"/><line x1="436.31" y1="336" transform="translate(1087.507 9600)" fill="none" stroke="#a7abde" stroke-linecap="round" stroke-miterlimit="22.926" stroke-width="2" stroke-dasharray="2 10.001"/><path d="M543.491,473.787,386.036,352.532M225.175,228.653,107.181,137.787" transform="translate(943.157 9462.213)" fill="none" stroke="#ccc" stroke-linecap="round" stroke-miterlimit="22.926" stroke-width="2" stroke-dasharray="2 10.001" fill-rule="evenodd"/><line x1="436.31" y1="336" transform="translate(1013.169 9600)" fill="none" stroke="#a7abde" stroke-linecap="round" stroke-miterlimit="22.926" stroke-width="2" stroke-dasharray="2 10.001"/><line x1="122.582" y1="94.4" transform="translate(976 9600)" fill="none" stroke="#a7abde" stroke-linecap="round" stroke-miterlimit="22.926" stroke-width="2" stroke-dasharray="2 10.001"/></g><circle cx="76" cy="76" r="76" transform="translate(1408 6275.813)" fill="#fff"/><g transform="translate(122 6119)"><g transform="translate(854 -207)"><rect width="584" height="584" fill="none"/><g transform="translate(120.244 22.034)"><path d="M311.065,39.19c21.729,3.008,39.778,9.87,53.824,19.259M350.6,543.1c5.938,10.026,3.1,11.833.74,11.833-53.922.594-91.774,11.089-95.625,33.018l155.466-.43c6.755-11.7,3-30.821-6.024-54.4M337.822,77.728c-.712-5.034-4.55-8.055-10.709-7.486m59.4,90.587c21.457-33.285,19.179-71.94-10.569-99.523M359.083,203.969c-2.088,5.032-5.02,4.916-5.349,15.63.045,3.018-2.22,4.542-4.594,5.485" transform="translate(-162.619 -28.529)" fill="none" stroke="#29304d" stroke-linecap="round" stroke-linejoin="round" stroke-miterlimit="22.926" stroke-width="2" fill-rule="evenodd"/><path d="M244.191,639.405c4.55,12.23,8.268,23.242,1.564,23.621-27.422-.344-62.806,3.318-73.68,24.152l70.928.194" transform="translate(-148.759 -127.993)" fill="none" stroke="#29304d" stroke-linecap="round" stroke-linejoin="round" stroke-miterlimit="22.926" stroke-width="2" fill-rule="evenodd"/><path d="M418.684,452.079c1.076,19.924-8.4,29.239-17.086,28.681q-1.066-3.344,2.916-7.959c6.128-7.645,7.993-18.836,1.508-31.683-1.894.079-5.774,4.607-11.444,13.518-4.448,7.223-17.129,6.459-11.935,1.294,9.868-6.227,4.768-21.865,15.426-30.16a157.013,157.013,0,0,0,3.052-25.8m39.783-.981a193.189,193.189,0,0,1-4.015,28.33q-.672,10.139-.851,19.017c-.109,5.476-1.169,14.346-8.683,15.573" transform="translate(-183.45 -88.153)" fill="none" stroke="#29304d" stroke-linecap="round" stroke-linejoin="round" stroke-miterlimit="22.926" stroke-width="2" fill-rule="evenodd"/><path d="M396.3,350.716c-2.131-.972-5.459-2.822-5.459-5.543,12.112-45.938-17.2-140.374-32.459-185.514-11.3-32.835-6.014-53.282,9.216-57.35,33.275-8.888,30.775,90.467,48.272,129.209,14.812,38.31,19.837,72.182,25.263,113.655,0,2.026-1.905,3.885-5.108,5.382.02-.274.039-.546.058-.82q-.912-2.443-8.606-3.938-10.985-2.249-25.287.8-5.317,1.422-5.89,4.121Z" transform="translate(-178.627 -38.896)" fill="none" stroke="#29304d" stroke-linecap="round" stroke-linejoin="round" stroke-miterlimit="22.926" stroke-width="2" fill-rule="evenodd"/><path d="M295.755,77.049a24.571,24.571,0,0,0,13.576,6.77q3.015,17.051,5.182.318a25.756,25.756,0,0,0,13.244-4.106c2.649.541,5.557-1.215,4.853-4.232A18.473,18.473,0,0,0,337.2,63.534" transform="translate(-169.255 -32.563)" fill="none" stroke="#29304d" stroke-linecap="round" stroke-linejoin="round" stroke-miterlimit="22.926" stroke-width="2" fill-rule="evenodd"/><path d="M254.984,157.122c1.382,22.7,45.015-49.985,71.593-55.658" transform="translate(-162.498 -38.848)" fill="none" stroke="#29304d" stroke-linecap="round" stroke-miterlimit="22.926" stroke-width="1" fill-rule="evenodd"/><path d="M289.876,84.1q3.45-.019,4.375-1.875,3.405-2.457.625-4.374-4.056-1.658.624-5.624,3.086-2.915,1.251-6.249c-1.339-4.02-.946-6.854,1.18-9.274a6.621,6.621,0,0,1-1.294-.823,32.575,32.575,0,0,0-8.722-11.353c-.062.359-.108.72-.138,1.081a4.175,4.175,0,0,0-2.253.36,29.824,29.824,0,0,0,7.624,7.232c2.925,2.3.49,6.392-3.711,4.73a48.415,48.415,0,0,1-8.163-6.914q-.225.526-.42,1.087a11.743,11.743,0,0,0,5.47,5.707c2.807,1.95,2.122,3.936.778,4.849a16.13,16.13,0,0,1-7.333-3.381,19.681,19.681,0,0,0,2.3,8.887c2.416,3.774,2.945,7.107,1.875,10q-2.962,3.406-.312,6.562,1.783,2.672-1.251,5.624,6.2-2.185,4.375-6.874a11.219,11.219,0,0,1,1.875-6.249Q292.9,81.552,289.876,84.1Zm12.811-29.618a14.681,14.681,0,0,1,4.748-.075c-5.157-5.711,4.153-15.71,10.642-1.86,5.01-5.108,7.2-10.024,6.479-14.375-8.71-6.908-17.332-8.1-24.04-6.2q5.752,5.779,7.776,10.517c.288,2.887-2.545,4.3-5.987,1.916-3.732-6.506-7-7.932-10.019-7.768q-.581.562-1.094,1.166c7.536,8.352,11.325,13.838,11.495,16.68Z" transform="translate(-166.606 -27.198)" fill="#29304d" fill-rule="evenodd"/><path d="M314.333,58.209c-8.812-5.52,3.708-19.927,10.45.909" transform="translate(-171.831 -30.022)" fill="none" stroke="#29304d" stroke-linecap="round" stroke-linejoin="round" stroke-miterlimit="22.926" stroke-width="1" fill-rule="evenodd"/><path d="M327.461,80.268q-.14-3.481,3.124-6.249" transform="translate(-174.508 -34.3)" fill="none" stroke="#29304d" stroke-linecap="round" stroke-linejoin="round" stroke-miterlimit="22.926" stroke-width="2" fill-rule="evenodd"/><path d="M311.978,87.17l-.245-3.414" transform="translate(-171.903 -35.914)" fill="none" stroke="#29304d" stroke-linecap="round" stroke-linejoin="round" stroke-miterlimit="22.926" stroke-width="2" fill-rule="evenodd"/><path d="M322.254,60.723a10.918,10.918,0,0,1-5.858-6.591" transform="translate(-172.675 -31.005)" fill="none" stroke="#29304d" stroke-linecap="round" stroke-miterlimit="22.926" stroke-width="1" fill-rule="evenodd"/><ellipse cx="2.359" cy="1.179" rx="2.359" ry="1.179" transform="translate(131.155 49.809) rotate(-29.088)" fill="#29304d"/><ellipse cx="2.359" cy="1.179" rx="2.359" ry="1.179" transform="translate(134.105 43.304) rotate(-29.088)" fill="#29304d"/><path d="M395.5,488.466l8.211-6.829M388.84,452.306l-12.252,5.638" transform="translate(-182.65 -96.988)" fill="none" stroke="#29304d" stroke-linecap="round" stroke-linejoin="round" stroke-miterlimit="22.926" stroke-width="2" fill-rule="evenodd"/><path d="M384.84,462.624c-3.585-3.269-7.023-4.7-9.06-3.4-3.285,2.1-1.619,10.58,3.722,18.945s12.335,13.444,15.621,11.345,1.618-10.58-3.723-18.944c-.561-.878-1.125-1.7-1.707-2.49" transform="translate(-182.237 -98.055)" fill="none" stroke="#29304d" stroke-linecap="round" stroke-linejoin="round" stroke-miterlimit="22.926" stroke-width="2" fill-rule="evenodd"/><path d="M396.521,480.14,385.533,487.2c4.384,4.91,8.963,7.421,11.452,5.878l.028-.024.615-.521c1.793-2.029,1.285-6.865-1.108-12.393Z" transform="translate(-184.132 -101.6)" fill="#29304d" stroke="#29304d" stroke-linecap="round" stroke-miterlimit="22.926" stroke-width="1" fill-rule="evenodd"/><path d="M390.039,510.238v5.925a2.258,2.258,0,0,1-2.252,2.253h0a2.259,2.259,0,0,1-2.253-2.253V488.6h13.519v32.356a2.258,2.258,0,0,1-2.253,2.253h0a2.259,2.259,0,0,1-2.253-2.253V509.518a2.258,2.258,0,0,0-2.253-2.252h0a2.259,2.259,0,0,0-2.253,2.252v.72Z" transform="translate(-184.132 -103.003)" fill="#29304d" fill-rule="evenodd"/><path d="M422.037,481.3c6.448-5.484,9.578-13.335,9.36-23.8" transform="translate(-190.181 -97.849)" fill="none" stroke="#29304d" stroke-linecap="round" stroke-linejoin="round" stroke-miterlimit="22.926" stroke-width="2" fill-rule="evenodd"/><path d="M427.459,476.567c7.881-3.158,11.466-10.681,11.06-22.72" transform="translate(-191.08 -97.243)" fill="none" stroke="#29304d" stroke-linecap="round" stroke-linejoin="round" stroke-miterlimit="22.926" stroke-width="2" fill-rule="evenodd"/><path d="M346.349,74.741a32.27,32.27,0,0,0-1.6-11.207A18.623,18.623,0,0,1,341.3,74.276a12.545,12.545,0,0,1,5.053.465Z" transform="translate(-176.802 -32.563)" fill="#29304d" fill-rule="evenodd"/><path d="M373.855,98.914c3.871-3.329,7.284-7.871,6.165-14.673" transform="translate(-182.197 -35.994)" fill="none" stroke="#29304d" stroke-linecap="round" stroke-linejoin="round" stroke-miterlimit="22.926" stroke-width="1" fill-rule="evenodd"/><path d="M334.8,267.772c3.322,24.653-3.225,42.479-19.664,53.318q-3.573,2.024-.934,4.7,2.811,3.125-.244,5.859-4.24,2.744-.733,5,3.235,2.749-.123,5.126-4.759,3.52-.244,5.98c2.876,1.286,2.761,4.644.386,6.6,5.414,88.793,95.579,135.215,103.8,201.117-31.491,21.087-62.644,22.064-84.7,19.282q-86.665-142.037-92.477-259.493m17.219-78.927c-38.859,72.347-47.525,167.025-33.185,251.253,4.594,1.986,5.584,9.59,2.289,12.317-5.043,3.908-2.928,8.91,0,11.25,4.185,3.366,4.529,7.586,2.424,11.966-2.263,4.1-1.942,6.8.561,9.58,3.272,2.595,4.071,5.536,1.9,10.649-2.034,4.885-1.219,9.8,3.06,13.317q1.768,8.152,3.727,16.117,13.907,1.1,66.763-5.853" transform="translate(-156.271 -61.199)" fill="none" stroke="#29304d" stroke-linecap="round" stroke-linejoin="round" stroke-miterlimit="22.926" stroke-width="2" fill-rule="evenodd"/><path d="M403.927,574.641q-3.749-45.05-56.742-125.126c-38.4-49.3-48.411-114.362-28.739-182.412" transform="translate(-171.387 -66.297)" fill="none" stroke="#29304d" stroke-linecap="round" stroke-linejoin="round" stroke-miterlimit="22.926" stroke-width="1" fill-rule="evenodd"/><path d="M441.4,425.493c-.106-3.356-9.548-6.2-20.478-6.2s-18.852,2.786-18.681,6.132" transform="translate(-186.901 -91.518)" fill="none" stroke="#29304d" stroke-linecap="round" stroke-linejoin="round" stroke-miterlimit="22.926" stroke-width="2" fill-rule="evenodd"/><path d="M311.023,258.636q-8.756,26.281-1.652,51.258" transform="translate(-170.984 -64.894)" fill="none" stroke="#29304d" stroke-linecap="round" stroke-miterlimit="22.926" stroke-width="1" fill-rule="evenodd"/><path d="M262.963,222.567c10.849,5.738,21.346,10.9,31.383,15.349m4.933,2.149a247.071,247.071,0,0,0,33.1,11.766m4.363,1.113a116.676,116.676,0,0,0,17.711,2.952" transform="translate(-163.821 -58.917)" fill="none" stroke="#29304d" stroke-linecap="round" stroke-linejoin="round" stroke-miterlimit="22.926" stroke-width="1" fill-rule="evenodd"/><path d="M299.75,254.683Q303.1,243.33,305.8,240.8q-4.568-1.943-4.568-1.941-4.583,5.342-6.235,14.2" transform="translate(-169.129 -61.616)" fill="none" stroke="#29304d" stroke-linecap="round" stroke-linejoin="round" stroke-miterlimit="22.926" stroke-width="1" fill-rule="evenodd"/><path d="M340.2,268.066a33.955,33.955,0,0,0,5.6-13.185l4.05,1.057c-1.758,6.659-3.371,11.8-6.121,13.606" transform="translate(-176.62 -64.272)" fill="none" stroke="#29304d" stroke-linecap="round" stroke-linejoin="round" stroke-miterlimit="22.926" stroke-width="1" fill-rule="evenodd"/><path d="M306.4,243.859q15.394,6.694,19.144,21.846.9,4.587-.122,5.858l-4.882-3.051q-5.4-12.32-18.7-16.1" transform="translate(-170.263 -62.445)" fill="none" stroke="#29304d" stroke-linecap="round" stroke-linejoin="round" stroke-miterlimit="22.926" stroke-width="1" fill-rule="evenodd"/><path d="M374.559,57.356c5.057-2.919,7.95-3.223,9.029-2.5,2.81,1.894-9.588,14.117-33.375,27.586a80.363,80.363,0,0,0-.488,18.062q18.2-15.022,33.2-26.606c4.846-4.138,8.028-7.757,9.415-12.292q-4.365-5.111-8.748-6.749" transform="translate(-178.151 -31.07)" fill="none" stroke="#29304d" stroke-linecap="round" stroke-linejoin="round" stroke-miterlimit="22.926" stroke-width="1" fill-rule="evenodd"/><path d="M348.3,103.522q.464-13.808.466-13.807c-3.233.642-5.511,1.674-6.88,3.077A22.951,22.951,0,0,0,348.3,103.522Z" transform="translate(-176.898 -36.901)" fill="#29304d" fill-rule="evenodd"/><path d="M461.171,183.965l-11.285,12.541c-22.013-3.754-34.6-37.747-47.051-64.624-7.8-16.839-25.754-48.3-45.857-25.88-14.222,18.745-19.778,4.625-10.646-7.132l1.924,4.041c-4.24,7.883-1.135,9.178,5.46,2.307,25.153-28.735,46.8-9.189,66.338,27.94,10.158,19.3,14.747,39.092,31.037,45.051Z" transform="translate(-176.897 -37.187)" fill="#29304d" fill-rule="evenodd"/><path d="M269.718,208.95q-5.952-12.078,7.871-14.755c1.841-.293,2.1-1.995,1.065-4.86q-1.937-7,6.589-8.544,4.332-1.639,3.219-5.416-1.46-8.99,6.917-11.269,6.5-2.861,5.245-8.246c-1.115-5.259,4.547-7.943,8.2-12.443q9.043-13.353,15.087-21.661" transform="translate(-164.643 -42.211)" fill="none" stroke="#29304d" stroke-linecap="round" stroke-linejoin="round" stroke-miterlimit="22.926" stroke-width="2" fill-rule="evenodd"/><path d="M274.687,196.223c1.841-.293,2.1-1.994,1.064-4.86q-1.937-7,6.59-8.544,4.332-1.639,3.219-5.415-1.46-8.991,6.917-11.27c4.708-1.317,6.642-3.773,6.1-6.9-.566-3.207,1.263-5.5,3.638-7.811" transform="translate(-165.764 -47.127)" fill="none" stroke="#29304d" stroke-linecap="round" stroke-miterlimit="22.926" stroke-width="1" fill-rule="evenodd"/><path d="M343.815,135.468a14.835,14.835,0,0,1-6.517-.987m-1.828-1.07a6.523,6.523,0,0,1-1.906-2.336c-4.813,7.239-9.722,15.7-12.521,24.792q4.8,5.016,15.268,4.911a35.846,35.846,0,0,0,5.736-11.717" transform="translate(-173.445 -43.755)" fill="none" stroke="#29304d" stroke-linecap="round" stroke-linejoin="round" stroke-miterlimit="22.926" stroke-width="1" fill-rule="evenodd"/><path d="M258.99,233.086q16.548,9.074,30.587,15.7m28.009,11.82q4.954,1.777,9.343,3.076m4.72,1.3c8.6,2.606,14.886,2.236,19.8,2.726" transform="translate(-163.162 -60.66)" fill="none" stroke="#29304d" stroke-linecap="round" stroke-linejoin="round" stroke-miterlimit="22.926" stroke-width="1" fill-rule="evenodd"/><path d="M342.259,134.077l3.132-7a.925.925,0,0,0-.444-1.219l-.978-.456a.92.92,0,0,0-1.219.444l-1.547,3.317" transform="translate(-176.786 -42.801)" fill="none" stroke="#29304d" stroke-linecap="round" stroke-linejoin="round" stroke-miterlimit="22.926" stroke-width="1" fill-rule="evenodd"/><rect width="2.024" height="10.993" rx="1.012" transform="matrix(0.906, 0.423, -0.423, 0.906, 163.703, 86.028)" fill="#fff" stroke="#29304d" stroke-linecap="round" stroke-linejoin="round" stroke-miterlimit="22.926" stroke-width="1.322"/><path d="M326.081,239.351q8.005,1.45,8.258-8.96c3.222-20.023,12.528-24.277,21.948-51.173" transform="translate(-174.28 -51.733)" fill="none" stroke="#29304d" stroke-linecap="round" stroke-linejoin="round" stroke-miterlimit="22.926" stroke-width="1" fill-rule="evenodd"/><path d="M330.472,169.53c2.5,3.534,4.121,2.588,3.379-.353-.179-1.741.45-1.851,1.307-.285,1.469,1.816,4.286.769,2.668-2.259-.175-1.267.383-1.741,1.272-.787,1.991.523,2.671-1.481,1.351-2.865-.714-3.105-3.394-4.387-4.257-.594-.471,1.79-1.3.994-2.09-.889-1.185-1.325-4.312.046-2.453,2.2,1.937,2.645-3.944.235-1.178,5.828Z" transform="translate(-174.883 -48.557)" fill="#29304d" fill-rule="evenodd"/><ellipse cx="1.633" cy="1.89" rx="1.633" ry="1.89" transform="translate(157.721 107.08)" fill="#29304d"/><ellipse cx="1.459" cy="1.344" rx="1.459" ry="1.344" transform="translate(158.329 123.458)" fill="#29304d"/><path d="M266.532,40.5c1.643-6.7,12.3-13.97,17.608-14.092A96.258,96.258,0,0,1,296.58,29.49q7.2,6.788,9.518,12.211c.288,2.887-2.545,4.3-5.987,1.916-4.525-7.89-8.374-8.309-11.912-7.483,8.068,8.848,12.118,14.621,12.294,17.561-.842,2.542-3.193,3.678-6.051,1.4-4.086-8.31-9.329-12.413-12.826-13.812l-.779.537q5.464,7.834,10.117,10.6c2.925,2.3.49,6.392-3.711,4.73q-7.839-5.584-9.638-8.979a12.421,12.421,0,0,0,6.525,8.858c2.807,1.95,2.122,3.936.778,4.849-6.47-1.177-11.1-5.9-15.05-13.713" transform="translate(-164.412 -26.411)" fill="none" stroke="#29304d" stroke-linecap="round" stroke-linejoin="round" stroke-miterlimit="22.926" stroke-width="2" fill-rule="evenodd"/><path d="M264.183,43.3q-2.877,9.309-11.824,27.981" transform="translate(-162.063 -29.21)" fill="none" stroke="#29304d" stroke-linecap="round" stroke-linejoin="round" stroke-miterlimit="22.926" stroke-width="2" fill-rule="evenodd"/><path d="M258.007,64.659q9.545,8.53,20.453,9.058" transform="translate(-162.999 -32.749)" fill="none" stroke="#29304d" stroke-linecap="round" stroke-linejoin="round" stroke-miterlimit="22.926" stroke-width="2" fill-rule="evenodd"/><path d="M250.576,183.339c-17.663,11.167-29.254-15.319-9.625-104.156a4.744,4.744,0,0,1,7.821-2.586q6.918,7.292,17.972,7.338c4.213.372,3.5,4.2,1.221,9.4-8.994,24.581-11.972,41.973-9.276,53.822" transform="translate(-158.476 -34.523)" fill="none" stroke="#29304d" stroke-linecap="round" stroke-linejoin="round" stroke-miterlimit="22.926" stroke-width="2" fill-rule="evenodd"/><path d="M144.128,696.864H410.7m10.809,0,29.305-.023m14.92-.013,62.57-.051m14.616-.012,11.651-.01" transform="translate(-144.128 -137.497)" fill="none" stroke="#29304d" stroke-linecap="round" stroke-linejoin="round" stroke-miterlimit="22.926" stroke-width="3" fill-rule="evenodd"/></g><path d="M350.263,87.991q-.639,8.336-.488,18.062" transform="translate(-57.958 -14.581)" fill="none" stroke="#000" stroke-miterlimit="22.926" stroke-width="0.567" fill-rule="evenodd"/></g></g></g></svg>
