<svg xmlns="http://www.w3.org/2000/svg" shape-rendering="geometricPrecision" image-rendering="optimizeQuality" fill-rule="evenodd" clip-rule="evenodd" viewBox="0 0 700 700"><defs><linearGradient id="1" gradientUnits="userSpaceOnUse" x1="404.5" y1="392.54" x2="54.733" y2="56.03"><stop stop-color="#fff"/><stop offset="1" stop-opacity="0" stop-color="#fff"/></linearGradient><mask id="0"><path fill="url(#1)" d="m15.392 35.774h451.35v401.74h-451.35z"/></mask></defs><path fill="#fcf32a" mask="url(#0)" d="m449.43 401.96l-1.408 4.33c-5.417.041-10.458.004-15.12-.108-3.898.838-2.415 4.83.09 5.827 2.425.207 3.57.373 3.435.497-.426 2.356.441 4.052 2.602 5.09 1.941.373 3.622.656 5.04.848l-3.567 10.975-28.896 8.091-12.247-25.719-8.06-.479-6.579.144c2.459-2.167 1.448-3.7-3.03-4.599-10.515-.032-23.328 3.565-38.437 10.792 0 0-.332-1.159-.994-3.479 9.436-6.493 18.682-9.721 27.741-9.683 5.897-1.608 6.1-3.632.606-6.07-5.111-.572-9.855-.402-14.232.509-5.728 1.181-11.549 3.568-17.462 7.16-5.458 3.502-10.901 5.746-16.33 6.732l4.541-19.878c-7.471 3.903-9.209 5.597-12.46 10.927l-286.66-225.14c-72.17-136.34 184.54-192.76 287.55-90.54l137.01 246.21 4.768 16.701 9.418-2.391-11.236 34.558c-7.508.511-14.685 2.083-21.531 4.717-2.966 2.544-2.754 4.784.638 6.72.777.85.907 1.248.39 1.196-4.04 1.197-5.823 3.068-5.357 5.614.362 1.452 1.479 2.181 3.351 2.188 7.527-1.568 13.161-2.138 16.901-1.71l-.47-.03"/><g stroke="#29304d" stroke-linejoin="round" stroke-linecap="round" stroke-width="2" stroke-miterlimit="22.926"><path fill="none" d="m259.27 557.39c-79.24 38.11-136.46 1.605-132.45-77.11"/><path fill="#fff" d="m327.33 332.71c8.36 8.338 13.628 11.558 15.803 9.659l21.858-18.04v-.002c.867 3.41 2.468 6.399 4.851 8.798 9.365 9.427 27.926 6.855 45.32-4.999 3.505 8.889 13.369 7.114 11.131 1.156-1.281-2.708-2.066-5.389-2.356-8.04 1.135-1.017 2.258-2.072 3.363-3.17 20.13-19.996 27.395-42.698 15.438-57.36-20.963-25.7-54.44-12.379-72.75 13.98l-40.577 28.649-14.797 10.446c3.072 6.356 7.309 12.662 12.711 18.92z"/><path fill="none" d="m411.61 437.51c19.263-5.394 28.896-8.091 28.896-8.091 17.494 12.724 26.24 19.08 26.24 19.08-15.341 65.34-26.623 117.86-33.849 157.54-36.23 1.691-58.63-22.309-91.19-20.355"/></g><circle fill="#86e5c7" cx="512.98" cy="333.53" r="26.999"/><g fill="none" stroke="#29304d" stroke-linejoin="round" stroke-linecap="round" stroke-width="2" stroke-miterlimit="22.926"><path d="m439.77 429.62l3.628-10.886m4.235-12.704l1.186-3.559m2.857-8.571l.507-1.521m3.095-9.286l8.968-26.906 2.495-7.484-57.11 24.585-8.341.585-66.15-16.02c-3.696 16.18-6.905 30.22-9.628 42.14"/><path d="m376.88 592.84c-6.88 45.04-10.194 67.71-9.941 67.99 74.22-.53 111.33-.795 111.33-.795-16.272-18.19-42.646-24.685-64.809-26.639l-1.859-29.22"/><path d="m276.99 541.89l-17.719 15.503-32.776 28.676c22.872 35.23 37.662 58 44.37 68.33 2.862 4.01 6.907 6.069 12.134 6.178l42.21-1.319c-.568-8.68-12.991-22.592-28-24.993-7.464-21.49-11.195-32.24-11.195-32.24l22.721-28.12"/><path d="m384.12 411.95c3.075-2.33 2.442-4.01-1.898-5.04-7.819-.951-20.807 2.627-38.965 10.735 0 0-.332-1.159-.994-3.479 8.643-5.998 17.16-9.179 25.546-9.542 9.102-.007 9.06-6.354-.121-6.518-22.826-.928-30.31 12.558-45.1 14.708 0 0 1.514-6.626 4.541-19.878-6.712 2.962-11.257 7.7-14.333 14.514 0 0-31.866 13.783-95.6 41.35-3.434-6.227 12.243-24.04 43.25-60.06 12.465-13.304 23.455-26.18 32.97-38.619 23.15-37.14-18.627-43.895-51.843-20.635-17.02 11.309-33.803 18.511-50.46 21.616"/><path d="m329.41 303.35c-41.758-46.38-200.78-10.65-274.19 58.955"/><path d="m367.21 437.59c-62.57 23.765-100.92 56.41-116.37 89.25 37.16 12.17 51.45 52.16 80.58 61.979l88.41-133.55c0 0-7.158-14.579-21.471-43.737-27.04-3.106-92.06 21.721-196.41 75.15-26.781 11.152-38.32 3.137-42.963-4.957-3.352-16.313 6.256-40.41 28.825-72.3 26.754-34.487 40.13-51.731 40.13-51.731"/><path d="m401.29 373.88c-.835-5.264 6.552-6.339 8.341-.585"/><path d="m402.09 370.64c-10.06-8.498-22.964-9.359-47.835-11.188-5.951-.43-10.09-2.287-13.618-5.872"/></g><path fill="#29304d" d="m394.67 275.12c-3.795-13.309-23.767-8.987-20.424 19.14-1.051.19-2.143.319-3.29.369-13.353.582-37.801-28.32-12.05-65.17 3.983-19.19-4.724-31.414-26.12-36.661 1.554 22.625 10.261 34.845 26.12 36.661 5.324 1.297 24.69 4.078 44.509-1.967 21.836-6.66 50.4 4.944 54.79 28.999 2.835.717 5.248-.828 7.24-4.635.842 3.109 1.168 5.939.98 8.492 2.343-4.02 3.982-8.844 4.84-14.399 9.04 19.894-8.644 49.07-27.833 42.85-6.752-.76-12.628-6.131-17.282-16.873-10.28-2.025-18.728.613-25.22 4.613-2.647 1.87-4.872 2.241-6.254-1.42"/><g fill="none" stroke="#29304d" stroke-linejoin="round" stroke-linecap="round" stroke-miterlimit="22.926"><g stroke-width="2"><path d="m408.26 370.47c27.715-8.889 44.48-19.9 44.3-36.07 4.072 6.164 5.661 11.73 4.768 16.701"/><path d="m407.23 369.29c29.554-10.866 43.57-22.728 42.05-35.586"/><path d="m391.3 411.31l9.988-37.435"/><path d="m399.36 411.79l10.27-38.499"/><path d="m171.79 435.27c-22.96.567-87.48-42.621-70.25-45.601 10.453-6.408-30.04-34.613-46.32-27.363-8.599 14.326 6.843 43.956 58.44 77.855 5.906-3.196 7.716-2.05 5.429 3.437-1.725 5.829-.002 7.155 5.169 3.976 6.775-5.29 8.763-3.832 5.964 4.373-2.524 10.916.226 13 8.25 6.263 4.17 2.468 6.49 3.517 6.959 3.145"/><path d="m214.25 374.16c-.238-6.673-6.689-11.343-19.07-14.51-14.03-5.965-4.986-10.783 2.186-7.753 6.467 3.35 13.07 5.313 11.531 1.193 3.273-9.169 28.982 8.06 51.567 35.626"/></g><path d="m296.16 320.78c9.655-1.709 14.482-2.563 14.482-2.563"/><path d="m103.42 399.61c19.72-21.19 37.981-30.3 54.782-27.335 24.52 2.983 40.833.286 48.941-8.092"/></g><path fill="#29304d" fill-rule="nonzero" d="m265.68 533.73c-.154.229-.465.29-.694.136-.229-.154-.29-.465-.136-.694l.83.558m114.61-100.77l.604.798-.04.027-5.077 3.161-4.983 3.158-4.887 3.157-4.792 3.154-4.696 3.151-4.601 3.15-4.506 3.146-4.41 3.145-4.315 3.142-4.219 3.14-4.124 3.137-4.03 3.135-3.934 3.132-3.837 3.13-3.742 3.128-3.647 3.125-3.552 3.122-3.455 3.12-3.361 3.118-3.265 3.115-3.17 3.113-3.074 3.11-2.979 3.107-2.883 3.106-2.788 3.102-2.693 3.1-2.597 3.097-2.502 3.095-2.406 3.092-2.311 3.09-2.216 3.087-2.12 3.084-.83-.558 2.132-3.101 2.227-3.103 2.323-3.105 2.418-3.107 2.513-3.109 2.609-3.111 2.704-3.113 2.799-3.115 2.894-3.117 2.99-3.119 3.085-3.12 3.18-3.124 3.275-3.125 3.37-3.126 3.466-3.13 3.561-3.13 3.657-3.134 3.751-3.135 3.847-3.137 3.942-3.14 4.04-3.142 4.132-3.144 4.228-3.145 4.323-3.148 4.418-3.151 4.514-3.152 4.608-3.154 4.705-3.157 4.799-3.159 4.894-3.161 4.99-3.163 5.085-3.165-.04.026m.04-.026c.234-.145.543-.072.687.163.145.234.072.543-.163.688l-.524-.851m-2.796-1.215l-.445-.896.07-.028.52-.161.492-.142.464-.122.436-.102.408-.084.383-.065.356-.048.331-.03.309-.013.285.004.265.022.246.04.228.062.212.085.194.114.172.147.14.18.098.207.051.22.006.219-.03.213-.061.207-.085.202-.108.198-.129.198-.149.198-.169.198-.188.2-.207.202-.227.203-.245.205-.263.206-.604-.798.239-.186.219-.183.198-.178.177-.173.156-.165.134-.158.112-.148.088-.135.067-.122.044-.103.024-.083.009-.059v-.035l-.003-.016-.003-.008-.011-.013-.027-.022-.055-.032-.088-.036-.123-.033-.158-.025-.191-.016-.224-.003-.255.011-.287.026-.318.042-.348.06-.379.078-.409.096-.44.115-.471.136-.501.155.069-.028m-.069.028c-.263.085-.545-.06-.629-.323-.085-.262.06-.544.323-.629l.306.952m-2.02-2.808l.155.987.015-.002-.382.082-.346.094-.312.104-.276.112-.242.118-.208.121-.174.121-.141.119-.109.113-.078.104-.051.091-.028.074-.001.057v.043l.008.036.016.035.03.041.051.047.077.052.108.051.138.046.169.036.201.022.229.006.259-.013.287-.036.313-.059.339-.084.366-.113.389-.141.414-.173.437-.207.445.896-.475.224-.456.191-.435.158-.415.128-.394.098-.374.071-.353.043-.331.017-.312-.008-.291-.033-.271-.057-.25-.083-.229-.11-.206-.138-.177-.167-.144-.197-.102-.223-.054-.238-.004-.245.043-.24.085-.23.122-.217.155-.205.185-.194.216-.182.246-.171.275-.161.306-.148.336-.136.368-.123.4-.109.432-.093.015-.002m-.015.002c.271-.051.532.127.584.399.051.271-.127.532-.399.584l-.185-.983m-2.108-1.451l-.171-.986-.007.002.619-.108.581-.084.541-.061.504-.038.467-.017.43.002.397.022.363.041.331.058.301.076.272.097.244.116.217.14.188.168.152.198.108.226.054.245-.003.247-.054.236-.095.219-.128.202-.157.187-.183.174-.207.162-.231.153-.255.142-.277.133-.301.121-.323.111-.345.098-.366.084-.388.07-.155-.987.341-.062.32-.074.296-.084.272-.093.247-.1.221-.105.194-.109.167-.11.138-.108.108-.103.08-.095.051-.08.028-.062.001-.042v-.025l-.004-.018-.012-.025-.031-.04-.062-.055-.099-.064-.139-.066-.18-.063-.222-.057-.263-.047-.304-.033-.344-.019-.386-.002-.426.015-.466.036-.509.057-.55.079-.592.103-.007.002m.007-.002c-.271.051-.533-.127-.584-.398-.051-.272.127-.533.399-.584l.185.982m-191.84 88.68l-.783-.622.119-.108 7.244-4.674 7.163-4.551 7.084-4.43 7-4.307 6.925-4.185 6.845-4.063 6.766-3.941 6.686-3.818 6.607-3.696 6.526-3.574 6.448-3.452 6.367-3.329 6.289-3.208 6.208-3.084 6.129-2.963 6.05-2.841 5.97-2.718 5.89-2.597 5.811-2.473 5.731-2.352 5.652-2.229 5.573-2.107 5.493-1.986 5.414-1.862 5.334-1.74 5.255-1.618 5.176-1.496 5.096-1.373 5.02-1.252 4.937-1.129 4.859-1.01 4.779-.884.171.986-4.758.879-4.838 1-4.918 1.124-4.998 1.246-5.078 1.369-5.159 1.491-5.238 1.613-5.319 1.735-5.399 1.858-5.479 1.98-5.559 2.101-5.639 2.225-5.72 2.347-5.798 2.468-5.88 2.591-5.959 2.714-6.04 2.835-6.119 2.959-6.199 3.08-6.279 3.202-6.359 3.325-6.438 3.447-6.519 3.57-6.599 3.692-6.679 3.814-6.758 3.936-6.838 4.059-6.918 4.181-6.998 4.303-7.078 4.425-7.158 4.548-7.238 4.67.119-.108m-.119.108c-.231.151-.541.085-.692-.146-.15-.232-.084-.542.147-.692l.545.838m-6.305-3l.797.604.0001-.002-.669.919-.602.877-.533.834-.469.788-.403.742-.34.692-.278.641-.218.587-.159.53-.102.47-.049.404v.334l.04.258.066.18.079.115.092.074.128.05.19.023.259-.021.327-.078.387-.145.44-.215.49-.287.535-.362.577-.437.617-.515.655-.593.691-.673.726-.755.758-.837.789-.921.819-1.01.783.622-.834 1.025-.807.941-.777.859-.747.777-.716.697-.683.619-.651.543-.617.468-.583.394-.55.323-.518.252-.488.182-.46.11-.439.034-.417-.053-.384-.155-.324-.257-.236-.339-.146-.392-.069-.432v-.469l.061-.51.12-.553.179-.597.238-.642.299-.688.359-.731.422-.777.487-.819.551-.861.618-.902.686-.941.002-.002m-.002.002c.166-.221.479-.265.7-.1.221.166.266.479.1.7l-.8-.6m-4.164-1.893l-.811-.584.008-.011.744-.952.723-.876.702-.799.677-.725.654-.651.627-.578.599-.509.572-.438.544-.371.516-.303.488-.237.462-.171.44-.104.421-.031.402.054.372.15.314.249.231.328.145.38.07.418.002.454-.056.493-.115.535-.172.577-.231.622-.29.667-.351.71-.414.755-.477.798-.543.84-.611.883-.679.922-.797-.604.662-.9.593-.857.526-.813.459-.767.394-.719.331-.671.27-.618.21-.566.152-.51.096-.449.045-.386-.002-.317-.039-.244-.064-.17-.074-.106-.086-.068-.119-.047-.176-.023-.242.018-.303.072-.36.134-.409.199-.454.267-.493.336-.531.407-.565.479-.598.552-.627.625-.655.7-.681.776-.706.854-.727.932.007-.011m-.007.011c-.167.219-.481.262-.701.095-.22-.167-.262-.481-.095-.701l.796.606m-4.126-3.545l.695.719h.0001l-.803.806-.718.772-.635.735-.554.696-.477.656-.4.613-.329.57-.258.523-.191.472-.128.42-.068.362-.017.299.026.233.054.169.072.114.089.08.124.061.175.039.234.006.291-.04.342-.093.387-.151.427-.211.461-.275.492-.338.52-.405.543-.471.564-.54.581-.61.596-.681.608-.753.618-.826.811.584-.639.856-.632.782-.623.712-.612.641-.597.573-.582.505-.564.439-.543.374-.523.31-.5.248-.477.186-.455.123-.434.059-.413-.001-.388-.09-.353-.176-.294-.265-.212-.336-.127-.383-.047-.417.025-.447.09-.48.156-.512.222-.548.288-.585.358-.621.43-.658.504-.693.58-.729.66-.764.742-.797.826-.83h.0001m-.0001.0001c.198-.193.515-.188.707.001.193.198.188.515-.001.707l-.697-.717m-3.083-2.688l.502-.865-.555.036.577-.429.557-.384.536-.343.514-.302.492-.261.47-.222.447-.184.424-.145.403-.107.381-.07.36-.032.341.008.322.052.3.1.272.152.234.207.183.253.123.287.066.308.013.323-.034.335-.077.348-.119.363-.159.378-.2.393-.241.411-.283.426-.325.443-.37.459-.413.475-.458.489-.504.504-.695-.719.481-.481.434-.464.389-.446.343-.427.299-.406.254-.384.213-.361.17-.335.129-.307.091-.278.054-.243.022-.207-.007-.168-.027-.129-.041-.096-.052-.073-.069-.06-.096-.054-.134-.044-.176-.028-.218-.005-.258.023-.297.055-.331.089-.365.124-.395.162-.425.201-.453.241-.479.281-.504.323-.529.365-.552.409-.555.036m.555-.036c-.219.168-.533.127-.701-.092-.168-.219-.126-.534.093-.701l.608.793m-15.492-25.506l.991-.135.163 1.111.181 1.089.201 1.068.219 1.046.238 1.024.257 1 .275.98.294.958.312.937.332.915.349.893.369.871.387.85.405.828.424.806.442.785.461.763.479.741.498.72.516.699.535.677.554.656.571.635.59.613.609.592.628.571.646.549.665.529.684.507.702.487.721.465.741.445-.502.865-.767-.461-.748-.483-.73-.505-.71-.527-.691-.549-.672-.572-.651-.593-.633-.615-.614-.637-.593-.659-.575-.68-.555-.703-.535-.724-.515-.746-.496-.767-.477-.789-.457-.811-.437-.832-.418-.853-.398-.875-.379-.896-.359-.918-.34-.939-.321-.96-.301-.981-.281-1-.263-1.024-.242-1.046-.224-1.066-.204-1.088-.185-1.109-.166-1.131m0 0c-.037-.273.154-.526.427-.563.274-.037.527.154.564.428l-.991.135"/><g fill="none" stroke="#29304d" stroke-linejoin="round" stroke-linecap="round" stroke-miterlimit="22.926"><g stroke-width="2"><path d="m158.38 477c-15.887 4.857-26.367 6.079-31.439 3.667-1.148-2.685 3.296-4.844 13.332-6.477"/><path d="m137.91 481.64c3.901-14.04 11.281-29.711 22.14-47.02"/><path d="m367.09 629.97c20.244 5.934 34.36 10.506 42.34 13.717 1.447-4 4.097-7.309 7.949-9.91"/><path d="m366.94 660.83h111.11v8.69h-111.11z"/></g><path d="m394.33 660.63c-5.39-15.673-16.854-24.5-34.394-26.48"/><path stroke-width="2" d="m243.64 568.74c15.373 22.22 24.452 37.26 27.24 45.13 8.855-1.544 15.06-2.155 18.611-1.831"/><path d="m238.23 604.14c3.915-13.928 4.26-25.53 1.033-34.805"/><path stroke-width="2" d="m219.19 590.61c29.78 45.911 44.669 68.865 44.669 68.865 5.03 7.01 9.772 8.627 15.672 9.439l45.865.001-.183-9.667"/><path stroke-width="3" d="m579.01 652.31c-3.121 9.723-10.265 16.563-18.529 16.563h-294.57c-8.263 0-15.408-6.84-18.529-16.563"/></g><path fill="#29304d" d="m351.87 668.87c0 9.462-7.296 17.13-16.295 17.13-9 0-16.295-7.67-16.295-17.13h32.59"/><g fill="#fff" stroke="#29304d" stroke-linejoin="round" stroke-linecap="round" stroke-miterlimit="22.926"><circle stroke-width="3" cx="335.58" cy="685.84" r="12.243"/><circle cx="335.58" cy="685.84" r="5.227"/></g><path fill="#29304d" d="m507.11 668.87c0 9.462-7.296 17.13-16.295 17.13-8.999 0-16.295-7.67-16.295-17.13h32.59"/><g stroke="#29304d" stroke-linejoin="round" stroke-linecap="round" stroke-miterlimit="22.926"><g fill="#fff"><circle stroke-width="3" cx="490.81" cy="685.84" r="12.243"/><circle cx="490.81" cy="685.84" r="5.227"/></g><path fill="none" stroke-width="3" d="m110.52 698.08h12.601m20.516 0h23.618m22.902 0h208.02m27.912 0h89.27"/></g><path fill="#29304d" d="m328.52 698.08c-30.387-17.923-38.578-17.923-24.572 0-29.382-21.866-39.799-21.866-31.25 0-15.813-12.558-22.493-12.558-20.04 0h75.862"/><g fill="none" stroke="#29304d" stroke-linejoin="round" stroke-linecap="round" stroke-width="2" stroke-miterlimit="22.926"><path d="m456.96 391.32c3.919-1.917 3.939-7.711-1.732-8.08-9.305.975-16.39 2.555-21.255 4.74-3.348 2.275-2.301 5.59.638 6.72 14.9-2.254 22.349-3.381 22.349-3.381z"/><path d="m455.75 402.86c4.54-.258 5.316-6.923 2.01-8.253-13.08-1.017-21.932.006-26.556 3.068-2.436 1.792-2.365 6.129 1.799 6.03 8.729-2.083 16.311-2.365 22.746-.846z"/><path d="m454.37 412.32c4.905-.748 3.991-6.593.835-6.441-7.399.42-14.836.522-22.309.307-3.519.682-3.112 4.417.09 5.827 9.997 1.457 17.14 1.559 21.384.307z"/><path d="m436.43 412.51c-.379 2.543.551 4.245 2.602 5.09 5.21 1.01 9.21 1.436 12.01 1.28 5.337-.529 6.451-4.625 3.341-6.56"/><path d="m124.32 224.09c-23.08 43.35-7.494 56.706 49.621 28.628 84.98-50.594 108.84-44.868 71.57 17.18-15.766 24.17 2.456 25.754 34.29 13.359 23.285-13.841 33.569-5.866 14.425 22.806-20.861 36.45 9.04 66.46 38.12 62.59m19.768-9.808c6.434-6.376 10.03-15.693 4.746-27.884"/><path d="m414.29 316.54c-2.941 21.19 14.935 20.562 12 12.75-6.979-14.748 3.999-36.22 18.352-28.427"/></g><g fill="#29304d"><ellipse transform="matrix(.70397-.71624.95472.88165 414.57 300.7)" rx="6.094" ry="3.094"/><ellipse transform="matrix(.5844-.59458.79255.73189 432.54 312.24)" rx="6.094" ry="3.094"/></g><path fill="none" stroke="#29304d" stroke-width="2" stroke-linecap="round" stroke-linejoin="round" stroke-miterlimit="22.926" d="m393 319.4c.109 6.192 5.589 11.961 13.394 13.732"/><path fill="#29304d" d="m421.36 284.62c1.445 4.03 5.724 5.927 7.349 10.54-1.012 1.437-4.04 2.219-5.765 1.876-2.609-3.651-4.968-9.121-5.063-11.673l3.479-.743"/><g stroke="#29304d" stroke-linejoin="round" stroke-linecap="round" stroke-width="2" stroke-miterlimit="22.926"><path fill="none" d="m382.16 286.17c3.107-3.62 3.982-8.276 2.625-13.969"/><path fill="#29304d" d="m364.99 324.34c-1.452-6.217-3.068-14.707.247-27.02-9.592 15.93-14.189 28.29-13.811 38.07l13.564-11.05z"/></g><path fill="#29304d" d="m102.9 376.83c2.841 0 5.144-2.231 5.144-4.984 0-2.752-2.303-4.983-5.144-4.983-2.842 0-5.145 2.231-5.145 4.983 0 2.753 2.303 4.984 5.145 4.984m-24.354-24.352c2.842 0 5.145-2.231 5.145-4.984 0-2.447-1.82-4.482-4.22-4.904-2.051 1.447-4.066 2.915-6.04 4.403-.017.165-.026.332-.026.501 0 2.753 2.304 4.984 5.145 4.984m97.41-48.704c2.782 0 5.05-2.139 5.141-4.812.002-.057.003-.115.003-.172 0-1.237-.465-2.369-1.235-3.24-.753.22-1.507.443-2.26.669-2.258.675-4.515 1.373-6.77 2.094-.016.157-.024.316-.024.477 0 2.752 2.303 4.984 5.145 4.984m53.849-4.984c0-2.753-2.303-4.984-5.144-4.984-2.842 0-5.145 2.231-5.145 4.984 0 2.752 2.303 4.984 5.145 4.984 2.841 0 5.144-2.232 5.144-4.984m43.56-4.984c-2.842 0-5.145 2.231-5.145 4.984 0 2.752 2.303 4.984 5.145 4.984 2.842 0 5.144-2.232 5.144-4.984 0-2.753-2.302-4.984-5.144-4.984m20.699 25.827c-.922.901-1.492 2.141-1.492 3.509 0 2.753 2.304 4.984 5.145 4.984.706 0 1.378-.137 1.99-.386-.803-3.473-2.783-6.174-5.643-8.107m71.57 27.861c0 2.753 2.303 4.984 5.144 4.984 2.842 0 5.145-2.231 5.145-4.984 0-2.753-2.303-4.984-5.145-4.984-2.841 0-5.144 2.231-5.144 4.984m-43.56 43.72c-2.841 0-5.145 2.232-5.145 4.985 0 1.13.388 2.173 1.043 3.01 1.056-1.174 2.242-2.174 3.841-3.229 1.366-.996 2.852-1.877 4.469-2.649-.932-1.28-2.469-2.116-4.208-2.116m-92.49 52.23c-.643-2.043-2.603-3.528-4.922-3.528-2.84 0-5.144 2.231-5.144 4.984 0 .943.271 1.826.741 2.578 3.191-1.38 6.299-2.725 9.325-4.03m24.576-22.896c0-2.753-2.304-4.985-5.145-4.985-2.842 0-5.145 2.232-5.145 4.985 0 2.752 2.303 4.984 5.145 4.984 2.841 0 5.145-2.232 5.145-4.984m24.352-24.352c0-2.753-2.303-4.985-5.145-4.985-2.841 0-5.145 2.232-5.145 4.985 0 2.752 2.304 4.984 5.145 4.984 2.842 0 5.145-2.232 5.145-4.984m38.42-48.705c0 2.753 2.304 4.984 5.145 4.984 2.33 0 4.298-1.5 4.931-3.559-3.12-1.167-5.944-2.936-8.357-5.144-1.055.913-1.719 2.241-1.719 3.719m-19.21 19.369c-2.842 0-5.145 2.231-5.145 4.983 0 2.753 2.303 4.984 5.145 4.984 2.841 0 5.145-2.231 5.145-4.984 0-2.752-2.304-4.983-5.145-4.983m-52.14-40.01c2.809-1.736 5.657-3.264 8.501-4.583-.426-2.337-2.531-4.111-5.065-4.111-2.842 0-5.145 2.231-5.145 4.984 0 1.473.66 2.797 1.709 3.71m22.643 20.642c0 2.753 2.304 4.984 5.145 4.984 2.842 0 5.145-2.231 5.145-4.984 0-2.753-2.303-4.984-5.145-4.984-2.841 0-5.145 2.231-5.145 4.984m-19.21 19.369c-2.482 0-4.553 1.701-5.04 3.966 1.956 1.873 3.934 3.853 5.918 5.929 2.422-.405 4.265-2.45 4.265-4.912 0-2.752-2.304-4.983-5.145-4.983m-29.497-19.369c0 2.753 2.304 4.984 5.144 4.984 2.842 0 5.145-2.231 5.145-4.984 0-2.753-2.303-4.984-5.145-4.984-2.84 0-5.144 2.231-5.144 4.984m-67.912 68.07c-2.842 0-5.145 2.232-5.145 4.985 0 2.752 2.303 4.984 5.145 4.984 2.841 0 5.145-2.232 5.145-4.984 0-2.753-2.304-4.985-5.145-4.985m-19.21-19.367c0-2.753-2.303-4.985-5.144-4.985-2.842 0-5.145 2.232-5.145 4.985 0 2.752 2.303 4.984 5.145 4.984 2.841 0 5.144-2.232 5.144-4.984m48.705 0c0-2.753-2.303-4.985-5.145-4.985-2.841 0-5.145 2.232-5.145 4.985 0 2.752 2.304 4.984 5.145 4.984 2.842 0 5.145-2.232 5.145-4.984m14.06-73.06c0 2.752 2.303 4.984 5.145 4.984 2.841 0 5.144-2.232 5.144-4.984 0-2.753-2.303-4.984-5.144-4.984-2.842 0-5.145 2.231-5.145 4.984m-19.21 29.336c2.842 0 5.145-2.231 5.145-4.984 0-2.753-2.303-4.984-5.145-4.984-2.841 0-5.145 2.231-5.145 4.984 0 2.753 2.304 4.984 5.145 4.984m19.21 19.368c0 2.753 2.303 4.984 5.145 4.984 2.841 0 5.145-2.231 5.145-4.984 0-1.819-1.01-3.41-2.509-4.28-2.211 1.396-4.78 2.544-7.709 3.443-.048.272-.072.552-.072.837m-38.42 0c0-2.752-2.304-4.983-5.145-4.983-2.842 0-5.145 2.231-5.145 4.983 0 .095.003.19.008.283 3.484-.508 6.91-.536 10.278-.083.003-.067.004-.133.004-.2m-10.29-48.704c0 2.752 2.303 4.984 5.145 4.984 2.841 0 5.144-2.232 5.144-4.984 0-2.753-2.303-4.984-5.144-4.984-2.842 0-5.145 2.231-5.145 4.984m-19.21 19.368c-2.842 0-5.145 2.231-5.145 4.984 0 2.753 2.303 4.984 5.145 4.984 2.841 0 5.144-2.231 5.144-4.984 0-2.753-2.303-4.984-5.144-4.984"/><circle fill="#5159be" cx="79.82" cy="220.96" r="20.18"/><g fill="#29304d"><path d="m140.28 474.19c-9.529 1.554-14 3.582-13.427 6.086.029.127.072.256.127.386 2.421 1.151 6.074 1.475 10.96.97.676-2.431 1.456-4.912 2.34-7.442"/><path stroke="#29304d" stroke-width="2" stroke-linecap="round" stroke-linejoin="round" stroke-miterlimit="22.926" d="m314.62 313.8l11.622-8.317c-5.996-6.266-11.524-9.529-14.06-7.769-2.559 1.775-1.401 8.186 2.44 16.09z"/></g><ellipse fill="#fc5b61" transform="matrix(.2355.70532-.51863.17317 399.43 301.21)" rx="11.625" ry="12.75"/></svg>