<svg xmlns="http://www.w3.org/2000/svg" xmlns:xlink="http://www.w3.org/1999/xlink" viewBox="0 0 1009.01 620.85">
    <defs>
        <style>
            .cls-1,.cls-11,.cls-12,.cls-16,.cls-6,.cls-7,.cls-8{fill-rule:evenodd;}.cls-1{fill:url(#gr);}.cls-10,.cls-14,.cls-2,.cls-3,.cls-5,.cls-9{fill:none;}.cls-2{stroke:#ccc;}.cls-10,.cls-11,.cls-12,.cls-14,.cls-15,.cls-16,.cls-2,.cls-3,.cls-5,.cls-6,.cls-7,.cls-9{stroke-linecap:round;}.cls-10,.cls-2,.cls-3,.cls-7{stroke-miterlimit:22.93;}.cls-11,.cls-15,.cls-16,.cls-2,.cls-3,.cls-5,.cls-6{stroke-width:2px;}.cls-2,.cls-3{stroke-dasharray:2
            10;}.cls-3{stroke:#a7abde;}.cls-11,.cls-12,.cls-4{fill:#fff;}.cls-10,.cls-11,.cls-12,.cls-14,.cls-15,.cls-16,.cls-5,.cls-6,.cls-7,.cls-9{stroke:#29304d;}.cls-11,.cls-12,.cls-14,.cls-15,.cls-16,.cls-5,.cls-6,.cls-9{stroke-linejoin:round;}.cls-6{fill:#fc5b61;}.cls-13,.cls-15,.cls-16,.cls-7,.cls-8{fill:#29304d;}.cls-14{stroke-width:3px;}
        </style>
        <linearGradient id="gr" x1="199.16" y1="725.64" x2="199.17" y2="724.43"
                        gradientTransform="matrix(581.16, 0, 0, -239.62, -115456.78, 173874.3)"
                        gradientUnits="userSpaceOnUse">
            <stop offset="0" stop-color="#f2f3fe"/>
            <stop offset="1" stop-color="#a7abde"/>
        </linearGradient>
    </defs>
    <g>
        <g>
            <path class="cls-1"
                  d="M47.56,283.48A130.13,130.13,0,0,1,26.93,213c0-3.55.14-7,.42-10.53a47.84,47.84,0,0,1,20.92-91.06,48.35,48.35,0,0,1,21.36,4.94,133.29,133.29,0,0,1,161.49-13.87,142.39,142.39,0,0,1,115.4-58.64c72.66,0,132.58,54.06,141.18,123.84A79.48,79.48,0,0,1,502,166.42c43.73,0,79.18,35.17,79.18,78.56A77.79,77.79,0,0,1,571,283.48Z"/>
            <path class="cls-2" d="M1008,619.85l-350.67-270m-61.1-47.06-24.54-18.9"/>
            <path class="cls-2" d="M608,619.85l-350.67-270m-61.1-47.06-24.54-18.9"/>
            <line class="cls-3" x1="970.84" y1="619.85" x2="534.53" y2="283.85"/>
            <line class="cls-3" x1="570.84" y1="619.85" x2="134.53" y2="283.85"/>
            <line class="cls-3" x1="732.1" y1="464.63" x2="497.36" y2="283.85"/>
            <line class="cls-3" x1="332.1" y1="464.63" x2="97.36" y2="283.85"/>
            <line class="cls-3" x1="896.5" y1="619.85" x2="540.38" y2="345.6"/>
            <line class="cls-3" x1="496.5" y1="619.85" x2="140.38" y2="345.6"/>
            <line class="cls-3" x1="727.16" y1="518.07" x2="423.02" y2="283.85"/>
            <line class="cls-3" x1="822.16" y1="619.85" x2="385.85" y2="283.85"/>
            <path class="cls-2" d="M785,619.85,570.15,454.4m-172.76-133-48.7-37.51"/>
            <line class="cls-3" x1="747.83" y1="619.85" x2="311.52" y2="283.85"/>
            <path class="cls-2" d="M710.66,619.85,553.2,498.6M392.34,374.72l-118-90.87"/>
            <line class="cls-3" x1="673.49" y1="619.85" x2="237.18" y2="283.85"/>
            <line class="cls-3" x1="322.59" y1="378.25" x2="200.01" y2="283.85"/>
            <circle class="cls-4" cx="588.01" cy="475.67" r="76"/>
            <path class="cls-5"
                  d="M401.73,570.39c.59,5.83-.29,13.07-5.09,12.51-44.73,0-86.66-3.41-98.42,26.72M461,609.18c6.79-16,1.24-24.25.25-52.71M435.14,168.65c22.46-34.36,20.08-74.27-11.06-102.75M405.16,216.14c-1.87,2.83-4.06,4.6-4.33,13.19.05,3.11-2.32,4.69-4.81,5.66"/>
            <path class="cls-5" d="M309.84,566.41c1.58,11.79.22,18.6-5.53,18.92-31.7,2.29-59.7-6.89-76.45,24.29"/>
            <path class="cls-5"
                  d="M421.52,364.34q-9-.82-7.77-11.47c12.68-48.09-8.83-147.61-24.81-194.86-11.83-34.37-6.3-55.78,9.65-60,34.83-9.3,32.21,94.71,50.53,135.26,15.51,40.11,24.37,76.88,30.05,120.29q1.74,8.46-6.35,7.07"/>
            <path class="cls-6"
                  d="M403.79,409.46c-3.44,2.19-1.69,11.07,3.9,19.83S420.6,443.36,424,441.17s1.7-11.08-3.89-19.83c-.59-.92-1.18-1.78-1.79-2.61-5.58,3.31-12.94,1.91-8.65-2.35a12.79,12.79,0,0,0,3.57-3.36c-3.75-3.42-7.35-4.92-9.48-3.56Z"/>
            <path class="cls-5" d="M423.59,441.41l8.59-7.15m-15.57-30.71-12.82,5.91"/>
            <path class="cls-7"
                  d="M423.11,427.87l-11.51,7.39c4.59,5.14,9.39,7.77,12,6.15l0,0,.65-.55c1.87-2.12,1.34-7.18-1.16-13Z"/>
            <path class="cls-8"
                  d="M416.32,457.91v6.2a2.36,2.36,0,1,1-4.71,0V435.26h14.15v33.87a2.36,2.36,0,0,1-2.36,2.36h0a2.36,2.36,0,0,1-2.36-2.36v-12a2.36,2.36,0,0,0-4.72,0v.75"/>
            <path class="cls-9" d="M401.4,97.45c4.05-3.48,7.63-8.24,6.46-15.36"/>
            <path class="cls-5"
                  d="M387.66,247.84c3.48,25.81-3.38,44.47-20.59,55.82q-3.74,2.11-1,4.92,2.94,3.27-.25,6.13-4.44,2.88-.77,5.24,3.39,2.88-.13,5.37-5,3.68-.26,6.25c3,1.35,2.89,4.86.41,6.91C370.76,431.43,465.15,480,473.75,549a124.23,124.23,0,0,1-72,21.35,145.76,145.76,0,0,1-16.64-1.17q-90.72-148.68-96.81-271.65m18-82.63c-40.68,75.74-49.75,174.85-34.74,263,4.81,2.08,5.85,10,2.4,12.89-5.28,4.1-3.06,9.33,0,11.78,4.38,3.52,4.74,7.94,2.54,12.52-2.37,4.3-2,7.12.58,10,3.43,2.72,4.27,5.8,2,11.15-2.13,5.11-1.28,10.26,3.2,13.94q1.86,8.54,3.9,16.87,14.56,1.15,69.89-6.12"/>
            <path class="cls-9" d="M444.2,563.76q-3.92-47.18-59.4-131c-40.2-51.61-50.68-119.72-30.08-191"/>
            <path class="cls-10" d="M347.36,234.41q-9.17,27.51-1.73,53.66"/>
            <path class="cls-5"
                  d="M304.55,202.91c11.36,6,22.35,11.41,32.86,16.06m5.16,2.25a259.62,259.62,0,0,0,34.65,12.32m4.39,1.2a123.21,123.21,0,0,0,18.72,3"/>
            <path class="cls-5"
                  d="M337.5,233.7c2.34-7.93,4.45-12.76,6.34-14.54l-4.78-2c-3.2,3.73-5.38,8.67-6.53,14.86"/>
            <path class="cls-5" d="M372,244.93a41.81,41.81,0,0,0,5.86-13.8l4.24,1.11c-.7,4.17-3,12.51-5.87,14.4"/>
            <path class="cls-5" d="M343.28,221.51q16.11,7,20,22.87.94,4.8-.13,6.13l-5.11-3.2q-5.65-12.9-19.58-16.85"/>
            <path class="cls-11"
                  d="M443.9,432.79a26.74,26.74,0,0,0,4.16-4.43,17.67,17.67,0,0,0,7.57-5.61c7.87-1.28,9.86-10.68,10-16.41q.18-9.3.89-19.91,1.14-5.24,2-10.55c-4.67-1-12.41-1.64-21.16-1.64a121.68,121.68,0,0,0-19.89,1.39q-.68,4.74-1.6,9.17c-11.16,8.69-5.82,25.05-16.15,31.58-5.43,5.41,7.84,6.21,12.5-1.36,5.93-9.33,10-14.07,12-14.15C441,414.32,439,426,432.61,434q-4.17,4.83-3.05,8.33c5.27.34,10.83-2.81,14.35-9.58Z"/>
            <path class="cls-5" d="M443.9,432.79c6.75-5.74,10-14,9.8-24.92"/>
            <path class="cls-5" d="M448.06,428.36c8.25-3.31,12.58-11.07,12.15-23.68"/>
            <path class="cls-5" d="M447.43,412.35c1.13,20.86-8.79,30.61-17.88,30"/>
            <path class="cls-5"
                  d="M406.37,59.1c5.3-3.05,8.32-3.37,9.45-2.61,2.95,2-10,14.78-34.94,28.88a84.86,84.86,0,0,0-.51,18.91q19.06-15.73,34.76-27.85c5.07-4.34,8.4-8.13,9.85-12.87q-4.58-5.36-9.16-7.07"/>
            <path class="cls-8"
                  d="M501.54,184.24l-15,14.13c-30.24-1.92-37.13-37.34-49.25-67.66-7.22-18-27-50.56-48-27.09-14.27,18.81-20.21,6-12.25-5.93a24.93,24.93,0,0,1-3.55-7.6c1.43-1.47,3.81-2.55,7.2-3.22t-.49,14.45c-.12-.11-.24-.22-.35-.34-4,7.72-.71,8.83,6,1.82,26.33-30.08,55.46-22.26,72.4,20.29,8.45,21.21,18.5,46.54,35.22,50.43l8,10.71"/>
            <path class="cls-5"
                  d="M310.76,206.14q-6.22-12.64,8.24-15.45c1.93-.31,2.2-2.09,1.12-5.09q-2-7.32,6.9-8.94,4.53-1.71,3.37-5.67-1.53-9.41,7.24-11.8,6.8-3,5.49-8.63c-1.17-5.5,4.76-8.31,8.58-13q9.46-14,15.79-22.68"/>
            <path class="cls-10"
                  d="M314.79,187.67c1.93-.3,2.19-2.08,1.11-5.08q-2-7.34,6.9-9c3-1.14,4.15-3,3.37-5.67q-1.53-9.41,7.24-11.79c4.93-1.38,6.95-4,6.39-7.23s1.32-5.76,3.81-8.18"/>
            <path class="cls-9"
                  d="M379.12,127.6a15.59,15.59,0,0,1-6.83-1m-1.91-1.12a6.66,6.66,0,0,1-2-2.45c-5,7.58-10.18,16.44-13.11,25.95q5,5.25,16,5.15a37.69,37.69,0,0,0,6-12.27"/>
            <path class="cls-5"
                  d="M301.08,212.09q17.32,9.49,32,16.44m29.32,12.37q5.19,1.86,9.78,3.22m5.17,1.43c9,2.73,15.36,2.27,20.5,2.79"/>
            <path class="cls-9" d="M374,127.14l3.28-7.33a1,1,0,0,0-.46-1.28l-1-.47a1,1,0,0,0-1.27.46L372.89,122"/>
            <path class="cls-12"
                  d="M372.74,121.93l.71.33c.34.16.26,1-.17,1.95l-3.31,7.1c-.43.92-1.05,1.54-1.38,1.38l-.71-.33c-.33-.15-.26-1,.17-2l3.31-7.09C371.79,122.4,372.41,121.78,372.74,121.93Z"/>
            <path class="cls-9" d="M359.68,228q8.38,1.53,8.64-9.38c3.38-21,13.12-25.41,23-53.57"/>
            <path class="cls-8"
                  d="M363.64,158.23c2.62,3.7,4.32,2.71,3.54-.37-.19-1.82.47-1.94,1.37-.3,1.54,1.91,4.49.81,2.79-2.36-.18-1.33.4-1.82,1.33-.83,2.09.55,2.8-1.55,1.42-3-.75-3.26-3.56-4.6-4.46-.63-.49,1.88-1.36,1-2.19-.93-1.24-1.38-4.51.05-2.56,2.31,2,2.77-4.13.25-1.24,6.1"/>
            <ellipse class="cls-13" cx="367.59" cy="145.66" rx="1.71" ry="1.98"/>
            <ellipse class="cls-13" cx="368.04" cy="162.24" rx="1.53" ry="1.41"/>
            <path class="cls-14" d="M200.76,617.17H479.82m11.32,0,30.68,0m15.62,0,65.49,0m15.3,0h12.2"/>
            <path class="cls-11"
                  d="M287.13,56.3c4.4-19.92,40.33-25.12,74.07-16.52a265.8,265.8,0,0,1,48.22,17.75q2.67,1.38,5.28,2.88c-3.86,5-14.87,14-31.68,23.74a46.43,46.43,0,0,0-12.63-6.8c2.05,4.52.45,8.3-6.18,7.63-5.85,3.77-15.1,5.82-25.21,6.07-.33,5.49-3.8,11.6-7,8.16a55.06,55.06,0,0,0-.37-8.29c-24-1.41-49.38-12.58-44.52-34.62Z"/>
            <path class="cls-5"
                  d="M337.74,85.53c3.67,4.81-1.31,18.46-5.73,13.68,0-5.15,0-9.06-1.43-11.71-3.52-6.53-15.38-5.55-16.74,4"/>
            <ellipse class="cls-15" cx="323.25" cy="13.37" rx="20.69" ry="12.37"/>
            <path class="cls-16"
                  d="M333.1,21.66c-5.46-5.69-11.55-5.67-13-3.2-4.12-2.29-11.49-4.92-13.43,2.07-2.52-2.42-9.71-3-12,5.47-2.08-1.69-9.2-.86-11.13,7.29C283,32.76,266,36.23,271.91,52c2.41,4.16,2.1,8.74-1.67,11.71-3.28,1.91-4.74,5.66-.5,9.37-.07-3.56,1.08-4.14,3.76-5.53a9.61,9.61,0,0,0,3.39-2.79,18.41,18.41,0,0,0,5.89,10.15,12.1,12.1,0,0,0,2.67,12c5.05,5.85,8.37,12.42,3.47,22.49,8.48-2.11,13-11,5.71-19.92-4.43-5.62-3.91-10.21,1.8-13.2,2.47-1.15,4.78-5.92.56-11,9.52,3.65,7.14,12.21,4.56,13.45-7.91,6.17-2,12.18,2.49,13.37,2.41,1.07,2.89,7,1.68,11,5.93-3.68,8.39-8.3,4.37-13.54-5.8-4.51-4.76-8.15.67-11,6.48-6.75,3.8-15.33,2.77-21.48,7.76-.06,14.27,1,10.77-3.84-7.22-10,8.05-23.05,17.82-.69,17.29-.07,11.87-9.08,21.14-12.2C348,23,335.68,22.23,333.1,21.66Z"/>
            <path class="cls-5" d="M329.17,46.16a15.58,15.58,0,0,0,7.69,10.31"/>
            <ellipse class="cls-13" cx="326.8" cy="74.75" rx="4.24" ry="2.26"
                     transform="translate(-8.34 83.08) rotate(-14.31)"/>
            <ellipse class="cls-13" cx="324.75" cy="88.07" rx="3.06" ry="1.96"
                     transform="translate(-9.4 127.55) rotate(-21.91)"/>
            <path class="cls-8"
                  d="M319.8,67.94a3.26,3.26,0,0,1,1.11,1.92c-2.91,3.57-1.33,5.84-1.88,9a4,4,0,0,1-4.55,1.72,15.53,15.53,0,0,1,5.32-12.65"/>
            <path class="cls-11"
                  d="M310.45,11.29c7.06-7.31,23.07-4.06,28.39,0a121,121,0,0,1,9.8,12.81q1.74,12.33-.25,19.48c-2,3.06-5.89,2.23-7.39-2.82C342.76,29.45,339.31,26,335.18,24c1,15,.41,23.89-1.73,26.92-2.83,1.84-6,1.1-7.05-3.38,2.52-11.38.6-19.54-1.74-23.66l-1.19-.09q-.8,12,1.61,18.37c1.06,4.56-4.55,6.67-7.37,1.73q-3.3-11.66-2.4-16.4c-2.34,4.8-2.56,9.43-.56,13.83,1.22,4.13-1,5.54-3.05,5.37-5.43-6.24-6.27-14.53-4-25.31l2.75-10.14Z"/>
            <path class="cls-5" d="M348.91,84.55a13.16,13.16,0,0,1,3.15-8.15"/>
            <path class="cls-16"
                  d="M363.58,50.82c12,5.81,24.73,14.73,30.79,26.3q-4.83,3.15-11.35,7a47,47,0,0,0-12.64-6.81Q370.28,54.93,363.58,50.82Z"/>
            <path class="cls-5"
                  d="M473.16,361.24c0-2.13-11.56-3.85-25.82-3.85s-25.82,1.72-25.82,3.85V378.1c0-2.13,11.56-3.85,25.82-3.85s25.82,1.72,25.82,3.85Z"/>
            <path class="cls-16"
                  d="M426.7,380.41c.28-1.56.53-3.15.76-4.77-3.71.67-5.94,1.52-5.94,2.46s1.93,1.67,5.18,2.31Z"/>
            <path class="cls-16"
                  d="M468.51,375.88c-.25,1.53-.52,3.06-.8,4.58,3.42-.66,5.46-1.48,5.46-2.37S471.44,376.51,468.51,375.88Z"/>
            <path class="cls-5" d="M276.9,64.78c-7.86,20.64-7.5,53.27-1.12,70.15q26.12,19.13,64.08,14"/>
            <path class="cls-5"
                  d="M375.65,92a169.26,169.26,0,0,0-25.9,16.78q-21.45,8-36,6.55c-1.26,4.08-4.25,3.23-2.67-1,1.83-5.77-.45-6.49-3.58-1.53-3.28,5.48-8.61,3.12-5-2.19"/>
            <path class="cls-5" d="M298.22,609.62H461.14v7.55H298.22Z"/>
            <path class="cls-5" d="M298.22,617.17H227.86v-7.55h70.36"/>
        </g>
    </g>
</svg>