<svg xmlns="http://www.w3.org/2000/svg" viewBox="0 0 473.84 554.72">
<defs>
    <linearGradient id="0" x1="-35.87" y1="657.52" x2="-35.02" y2="656.62"
                    gradientTransform="matrix(378.4, 0, 0, -336.79, 13611.22, 221442.88)"
                    gradientUnits="userSpaceOnUse">
        <stop offset="0" stop-color="#f2f3fe"/>
        <stop offset="1" stop-color="#fcf32a"/>
    </linearGradient>
</defs>
<g fill="#29304d">
    <path fill="url(#0)" d="M363.87,307l-1.18,3.63q-6.81,0-12.67-.09c-3.27.7-2,4.05.07,4.89,2,.17,3,.31,2.88.41a3.61,3.61,0,0,0,2.18,4.27c1.63.31,3,.55,4.23.71l-3,9.2-24.22,6.78L321.9,315.23l-6.76-.4-5.51.12q3.09-2.71-2.55-3.85-13.21,0-32.22,9l-.83-2.91q11.87-8.18,23.25-8.12,7.43-2,.51-5.09a37.62,37.62,0,0,0-11.93.43,46.05,46.05,0,0,0-14.64,6,37.91,37.91,0,0,1-13.69,5.64l3.81-16.66c-6.26,3.27-7.72,4.69-10.45,9.16L10.57,119.84c-60.5-114.3,154.71-161.6,241.06-75.9L366.5,250.35l4,14,7.9-2-9.42,29a61.68,61.68,0,0,0-18.05,4q-3.74,3.2.53,5.63c.65.72.76,1,.33,1-3.39,1-4.88,2.58-4.49,4.71.3,1.22,1.24,1.83,2.81,1.83q9.47-2,14.16-1.43l-.39,0Z"/>
    <g>
        <path d="M310.3,241.05a27.59,27.59,0,0,1-21.65-10.4,1,1,0,1,1,1.56-1.25,25.57,25.57,0,0,0,20.25,9.65h0a26.58,26.58,0,0,0,7.15-1,1,1,0,0,1,.54,1.92,28.54,28.54,0,0,1-7.69,1.06Zm15.53-4.73a1,1,0,0,1-.83-.44,1,1,0,0,1,.27-1.39,24,24,0,0,0,10.61-19.81c0-13.44-11.4-24.37-25.41-24.37a1,1,0,0,1,0-2c15.11,0,27.41,11.83,27.41,26.37a26,26,0,0,1-11.49,21.47A1,1,0,0,1,325.83,236.32Z"/>
        <path d="m154.89 450.05c-13.21 0-25.06-3.29-35-9.88-19.44-12.92-29.26-37.28-27.67-68.59a1 1 0 0 1 1.05 -.95 1 1 0 0 1 .95 1.05c-1.56 30.58 8 54.31 26.78 66.82 20.66 13.74 50.07 12.62 82.83-3.13a1 1 0 0 1 1.33 .47 1 1 0 0 1 -.46 1.34c-17.81 8.57-34.7 12.87-49.81 12.87"/>
        <path d="m346.77 478.13c-14.26 0-26-4.58-37.35-9-11.73-4.58-22.79-8.91-36-8.12a1 1 0 0 1 -1.06 -.94 1 1 0 0 1 .94 -1.06c13.61-.81 24.88 3.59 36.81 8.25s24 9.36 38.86 8.85c6-32.91 15.47-76.87 28.09-130.68l-21.06-15.35-23.75 6.65a1 1 0 0 1 -1.25 -.73 1 1 0 0 1 .7 -1.23l24.3-6.77a1 1 0 0 1 .86 .16l22 16a1 1 0 0 1 .38 1c-12.79 54.51-22.34 98.93-28.36 132a1 1 0 0 1 -.94 .82c-1.1.13-2.14.15-3.17.15"/>
        <path d="M355.61,330.16a1.19,1.19,0,0,1-.32-.05,1,1,0,0,1-.63-1.27l3-9.12a1,1,0,0,1,1.9.63l-3,9.13A1,1,0,0,1,355.61,330.16Zm6.59-19.78a.89.89,0,0,1-.32-.05,1,1,0,0,1-.63-1.26l1-3a1,1,0,1,1,1.9.64l-1,3A1,1,0,0,1,362.2,310.38Zm-102.37-5.06a.83.83,0,0,1-.22,0,1,1,0,0,1-.76-1.19l8.08-35.33a1,1,0,0,1,1.21-.75l55.3,13.39,6.67-.46,47.73-20.55a1,1,0,0,1,1.07.19,1,1,0,0,1,.27,1.05l-9.61,28.83a1,1,0,0,1-1.89-.63l8.9-26.72-45.83,19.73a1,1,0,0,1-.33.08l-7,.49a1.08,1.08,0,0,1-.31,0l-54.47-13.2-7.85,34.34A1,1,0,0,1,259.83,305.32Zm105.77-5.11a.89.89,0,0,1-.32,0,1,1,0,0,1-.63-1.26l.42-1.28a1,1,0,0,1,1.27-.63,1,1,0,0,1,.63,1.26l-.42,1.28A1,1,0,0,1,365.6,300.21Z"/>
        <path d="M294.55,524a1,1,0,0,1-.75-.34c-.47-.53-.63-.71,8.09-57.81a1,1,0,1,1,2,.3c-6,39.32-7.87,52.47-8.25,55.84l90-.64c-14-14.21-35.91-18.93-52.13-20.36a1,1,0,0,1-.91-.93L331,475.55a1,1,0,0,1,2-.13l1.5,23.65c17.11,1.61,40.07,6.86,54.14,22.58a1,1,0,0,1-.74,1.67l-93.33.67Z"/>
        <path d="M223.93,523.77a13.07,13.07,0,0,1-10.75-5.61L176,460.85a1,1,0,0,1,.18-1.29l42.34-37A1,1,0,0,1,219.8,424l-41.69,36.46,36.73,56.56a11,11,0,0,0,9.31,4.72l34.28-1.06c-1.31-6.64-10.83-17.14-22.5-19a1,1,0,0,1-.79-.66l-7-20.27c-2.51-7.24-2.51-7.24-2.22-7.67L245,449.49a1,1,0,0,1,1.56,1.26l-18.7,23.14c.54,1.58,2.57,7.4,9,25.94,12.22,2.26,23.19,13.72,23.72,21.78a1,1,0,0,1-.26.73,1,1,0,0,1-.71.33l-35.39,1.1Z"/>
        <path d="m323.81 249.91c-1.53 0-3.26-2-6.82-10.49a1 1 0 1 1 1.84 -.78c3.1 7.37 4.48 8.9 5 9.21.48-.69 1.28-3.87.51-18a1 1 0 0 1 2 -.11c1 17.93-.42 19.75-2.06 20.13a1.54 1.54 0 0 1 -.47 .04"/>
        <ellipse cx="317.78" cy="228.2" rx="3" ry="1.5" transform="matrix(.69076-.72309.72309.69076-66.73 300.36)"/>
        <ellipse cx="331.58" cy="230.54" rx="3" ry="1.5" transform="matrix(.69076-.72309.72309.69076-64.16 311.07)"/>
        <path d="M295.87,222a.49.49,0,0,1-.49-.45c-.85-8.35,1.34-12.86,3.68-14.31a3.2,3.2,0,0,1,3.49,0c2.22,1.4,3.22,5.28,2.66,10.36a.52.52,0,0,1-.56.44.5.5,0,0,1-.44-.55c.61-5.53-.74-8.48-2.2-9.41a2.18,2.18,0,0,0-2.43.05c-2,1.23-4,5.46-3.21,13.36a.5.5,0,0,1-.45.55Z"/>
        <path d="M270.33,257.45a19.52,19.52,0,0,1-14.86-7c-4.76-5.69-5.6-13.21-2.3-20.64a1,1,0,0,1,.46-.49l30-15.51a1,1,0,0,1,.92,1.78l-29.66,15.35c-2.81,6.6-2,13.23,2.14,18.22a17.53,17.53,0,0,0,17,5.9l23.17-18.88a1,1,0,0,1,1.41.14,1,1,0,0,1-.15,1.41l-23.35,19a1,1,0,0,1-.39.2A18.12,18.12,0,0,1,270.33,257.45Z"/>
        <path d="M310.47,241.05a.91.91,0,0,1-.39-.08c-4-1.65-5.83-6.95-4.09-11.58a1,1,0,1,1,1.87.7c-1.49,4,.38,7.95,3,9a1,1,0,0,1-.38,1.92Z"/>
        <path d="M298.6,221.41a.52.52,0,0,1-.29-.09.51.51,0,0,1-.13-.7,11.68,11.68,0,0,0,2.08-7.19.5.5,0,0,1,.48-.52.47.47,0,0,1,.52.47,12.82,12.82,0,0,1-2.25,7.81A.52.52,0,0,1,298.6,221.41Z"/>
        <path d="M169,346.24a1,1,0,0,1-.88-.52c-3.1-5.63,8.38-19,33.53-48.18l2.85-3.31c10.41-11.11,19.68-22,27.6-32.33,6.32-10.14,7.13-18.32,2.23-23-7-6.65-26.5-5.39-44.32,7.09-14.33,9.52-28.69,15.67-42.7,18.28a1,1,0,0,1-.36-2c13.74-2.57,27.84-8.61,41.93-18,17.15-12,38.16-15.1,46.83-6.88,3.28,3.1,7.38,10.56-2,25.55-8,10.48-17.34,21.4-27.76,32.53l-2.82,3.28c-21,24.39-34.16,39.66-33.56,45l78.77-34.07a23.66,23.66,0,0,1,12.38-12.32,1,1,0,0,1,1,.15,1,1,0,0,1,.33,1l-3.47,15.19c4.15-.89,7.68-2.89,11.4-5,6.28-3.55,13.38-7.57,25.14-7.09,4.69.08,6.78,2,6.76,3.82s-2.09,3.64-6.7,3.64c-6.57.29-13.4,2.78-20.25,7.42l.32,1.12c15-6.61,25.49-9.43,32.14-8.61l.11,0c1.52.36,3.58,1,3.92,2.62s-1.39,2.94-2,3.37a1,1,0,0,1-1.21-1.59c1.07-.81,1.23-1.28,1.21-1.37s-.21-.55-2.37-1.07c-6.35-.75-17.14,2.25-32.08,8.92a1,1,0,0,1-.83,0,1,1,0,0,1-.54-.63l-.83-2.92a1,1,0,0,1,.39-1.1c7.37-5.11,14.75-7.86,21.94-8.18,3.35,0,4.74-1.08,4.74-1.66s-1.4-1.74-4.81-1.8c-11.2-.46-17.76,3.25-24.11,6.83-4.31,2.44-8.38,4.74-13.55,5.49a1,1,0,0,1-.87-.31,1,1,0,0,1-.24-.9l3.34-14.63A21.65,21.65,0,0,0,250.08,311a1,1,0,0,1-.53.53l-80.14,34.67A1.14,1.14,0,0,1,169,346.24Z"/>
        <path d="M33.22,273.72a1,1,0,0,1-.72-.31,1,1,0,0,1,0-1.42c52.1-49.33,157-48,207.46-47.34,11.28.14,19.42.25,23.31-.29a1,1,0,0,1,.27,2c-4,.56-12.24.45-23.61.31-50.17-.65-154.55-2-206.06,46.8A1,1,0,0,1,33.22,273.72Z"/>
        <path d="M264.77,463.61a.84.84,0,0,1-.31-.05c-11.68-3.93-20.47-13.42-29.77-23.46-10.55-11.38-21.45-23.15-37.78-28.49a1,1,0,0,1-.6-1.38c14.06-29.89,48.9-56.64,98.11-75.33a1,1,0,0,1,1.29.58,1,1,0,0,1-.58,1.29c-48.17,18.29-82.38,44.29-96.52,73.3,16.22,5.66,27.06,17.35,37.54,28.67,8.93,9.64,17.38,18.75,28.22,22.67l73.37-110.83-17.51-35.66c-22.7-2.16-77.71,19-163.55,63-24.4,10.16-33.86,1.51-37.34-4.55a1,1,0,0,1-.11-.3c-2.86-13.89,5.33-34.55,24.33-61.39l33.67-43.4a1,1,0,0,1,1.4-.18,1,1,0,0,1,.18,1.41l-33.65,43.36c-18.56,26.24-26.65,46.31-24,59.64,3.22,5.48,12,13,34.69,3.6C243.88,331,297.93,310.35,321,313a1,1,0,0,1,.79.56l18,36.66a1,1,0,0,1-.07,1l-74.11,112A1,1,0,0,1,264.77,463.61Z"/>
        <path d="M323.34,282.92a.49.49,0,0,1-.49-.42,3.49,3.49,0,0,1,2.63-4.2,4.59,4.59,0,0,1,5.34,3.48.51.51,0,0,1-.33.63.5.5,0,0,1-.63-.33,3.62,3.62,0,0,0-4.15-2.81,2.51,2.51,0,0,0-1.87,3.08.51.51,0,0,1-.42.57Z"/>
        <path d="M324,280.21a.49.49,0,0,1-.32-.12c-8.22-6.94-18.55-7.7-39.12-9.21l-.7-.05c-5-.37-8.64-1.93-11.73-5.07a.5.5,0,1,1,.71-.7c2.91,2.95,6.33,4.43,11.1,4.77l.69.05c20.79,1.53,31.23,2.3,39.69,9.45a.5.5,0,0,1-.32.88Z"/>
        <path d="M329.18,280.07a.5.5,0,0,1-.47-.35.49.49,0,0,1,.32-.63c25.24-8.09,36.93-17.55,36.8-29.76a.5.5,0,0,1,.91-.28c3.47,5.25,4.85,10.09,4.08,14.36a.5.5,0,1,1-1-.17c.66-3.65-.37-7.77-3.06-12.26-.88,11.91-12.84,21.18-37.43,29.06A.45.45,0,0,1,329.18,280.07Z"/>
        <path d="M328.32,279.08a.52.52,0,0,1-.47-.33.5.5,0,0,1,.3-.64c24.41-9,36.17-18.84,34.93-29.31a.49.49,0,0,1,.43-.55.5.5,0,0,1,.56.44c1.3,11-10.67,21.2-35.57,30.36Z"/>
        <path d="M315,314.81a.82.82,0,0,1-.26,0,1,1,0,0,1-.7-1.22l8.37-31.38a1,1,0,1,1,1.93.51l-8.37,31.39A1,1,0,0,1,315,314.81Z"/>
        <path d="M321.73,315.21a1.15,1.15,0,0,1-.26,0,1,1,0,0,1-.71-1.23l8.61-32.27a1,1,0,1,1,1.93.51l-8.61,32.28A1,1,0,0,1,321.73,315.21Z"/>
        <path d="M97.23,357.36a2.61,2.61,0,0,1-1.39-.38c-1.74-1.07-2-4-.71-9.34l0-.09c1.43-4.21.86-4.95.85-5h0s-.91-.24-4.29,2.4l-.09.06c-1.65,1-4,2.23-5.47,1.11s-.9-3.72-.35-5.57a.49.49,0,0,1,0-.11c1-2.37.68-2.94.67-3h0s-.72-.34-3.83,1.34a1,1,0,0,1-1-.05C37.43,309.76,25,284.42,32.37,272.2a1,1,0,0,1,.45-.39c11.74-5.24,36.27,9.83,40.8,18.44,2,3.84-.05,5.66-1,6.26a1.17,1.17,0,0,1-.35.14c-1.69.29-1.62.92-1.59,1.26.36,3.64,10.52,12.28,24.17,20.55,11.73,7.12,27.38,14.64,36.11,14.43a1,1,0,0,1,1,1,1,1,0,0,1-1,1h-.4c-17.63,0-61-27.51-61.92-36.78-.08-.83.06-2.8,3-3.4.53-.35,1.41-1.18.17-3.53-4.12-7.84-27.11-22.05-37.93-17.67-6.46,11.47,6,35.35,48.35,63.32,2.84-1.46,4.58-1.7,5.6-.77,1.28,1.15.54,3.48-.16,5.14-.83,2.84-.34,3.37-.33,3.38s.64.33,3.15-1.2c3.36-2.61,5.35-3.33,6.65-2.41s1.28,3.08-.11,7.17c-1.39,6-.4,7-.18,7.13s1.37.54,5.49-2.92a1,1,0,0,1,1.15-.09c3.58,2.12,4.71,2.48,5,2.55a1,1,0,0,1,.93,1.73c-.65.52-1.47.64-6.35-2.2C100.61,356.36,98.69,357.36,97.23,357.36Z"/>
        <path d="M205.28,295.86a1,1,0,0,1-.77-.36C188,275.36,170.57,263,164.64,264a1.94,1.94,0,0,0-1.52,1.07,2.14,2.14,0,0,1-.51,2.33c-1.8,1.58-6.8-.48-10.68-2.49-3.08-1.29-6.12-.51-6.51.41-.28.65,1,2.33,5.45,4.26,11,2.82,16.46,7.1,16.67,13.07a1,1,0,0,1-1,1,1,1,0,0,1-1-1c-.17-5-5.16-8.66-15.23-11.24l-.15,0c-7-3-7.13-5.61-6.58-6.91,1-2.32,5.45-3,9.19-1.44,5.3,2.74,8,3.07,8.49,2.81a4.27,4.27,0,0,0-.15-.53,1,1,0,0,1,0-.69A3.92,3.92,0,0,1,164.3,262c7.54-1.32,25.88,12.85,41.76,32.23a1,1,0,0,1-.78,1.63Z"/>
        <path d="M268.35,263.31a21.61,21.61,0,0,1-16.5-7.67,22.22,22.22,0,0,1-2.57-26,.51.51,0,0,1,.69-.18.5.5,0,0,1,.18.68A21.24,21.24,0,0,0,252.61,255a20.94,20.94,0,0,0,24.25,5.63.49.49,0,0,1,.65.27.5.5,0,0,1-.28.66A23.89,23.89,0,0,1,268.35,263.31Z"/>
        <path d="M235.21,238.41a.51.51,0,0,1-.5-.41.51.51,0,0,1,.41-.58l12.14-2.15a.5.5,0,0,1,.17,1l-12.14,2.14Z"/>
        <path d="M73.62,304.5a.51.51,0,0,1-.34-.14.5.5,0,0,1,0-.71c16.58-17.81,32.18-25.57,46.38-23.06,20.26,2.46,33.93.23,40.58-6.64a.5.5,0,0,1,.72.69c-6.88,7.11-20.83,9.45-41.45,6.94-13.87-2.45-29.17,5.21-45.5,22.76A.52.52,0,0,1,73.62,304.5Z"/>
        <path d="m306.68 265.85h-.13a1 1 0 0 1 -.86 -1.12c1.27-9.51-3.08-17-13.28-23a1 1 0 0 1 -.36 -1.37 1 1 0 0 1 1.36 -.36c11 6.39 15.65 14.55 14.27 25a1 1 0 0 1 -1 .85"/>
        <path d="M231.86,152.16q5.59,28,25.67,27.67a78.88,78.88,0,0,0,36.79-6.43c23.81-10.77,61.75,5.42,46.71,44.76q-12.22,6.47-25.16-9.67a37.59,37.59,0,0,1-11,7.31c.53-12.17-9.17-11.5-9.14,2.36-25.75,6.05-46.36-14.24-38.16-38.33q1.86-24.59-25.67-27.67Z"/>
        <path d="M209.65 416.44a.42 .42 0 0 1 -.58 .11A.41 .41 0 0 1 209 416M305.73 332l.51.67L302 335.29l-4.18 2.65-4.1 2.65-4 2.64-3.94 2.64-3.85 2.64-3.78 2.64-3.7 2.64-3.62 2.63-3.53 2.63-3.46 2.63-3.38 2.63-3.3 2.63-3.22 2.62-3.13 2.62-3.06 2.62-3 2.62L241.8 380 239 382.65l-2.73 2.61-2.66 2.61L231 390.48l-2.5 2.61-2.41 2.6-2.34 2.6-2.26 2.6-2.18 2.6-2.1 2.59-2 2.59-1.94 2.59-1.86 2.59-1.78 2.59-.7-.47 1.79-2.6 1.87-2.6 1.95-2.6 2-2.6 2.11-2.61 2.19-2.61 2.26-2.61 2.35-2.61 2.43-2.61 2.5-2.61 2.59-2.62 2.66-2.62 2.75-2.62 2.83-2.62 2.9-2.62 3-2.64 3.07-2.63 3.14-2.62 3.23-2.63 3.3-2.64 3.38-2.63 3.46-2.63 3.55-2.64 3.62-2.64 3.7-2.64 3.79-2.64 3.86-2.65 3.94-2.65 4-2.64 4.1-2.65 4.18-2.66 4.26-2.65m.04.07a.42 .42 0 0 1 .58 .15 .42 .42 0 0 1 -.14 .56m-2.78-1.71l-.37-.75h.06l.43-.14.41-.12.39-.1.37-.08.34-.07.32-.06h.3.28.5.22.2l.2.05.17.07.17.1.14.12.12.16.08.17v.18.19.18.17l-.07.17-.09.16-.11.17-.12.17-.15.16-.15.17-.18.17-.19.17-.2.17-.22.17-.51-.66.2-.16.18-.15.17-.15.15-.15.13-.14.11-.13.1-.12.07-.11.06-.1v-.09-.07-.08h-.05-.07-.1-.13-.16H306h-.24-.26-.29l-.32.06-.35.08-.36.1-.4.12-.42.13h.06m-.09-.13a.41 .41 0 0 1 -.53 -.27 .42 .42 0 0 1 .28 -.53m-1.44-1.55l.13.83-.32.07-.29.08-.26.08-.23.1-.2.1-.18.1-.14.1-.12.1-.09.09-.07.09v.08.06.14h.05l.06.05h.09.12.14.17.41.24l.26-.05.29-.07.3-.09.33-.12.35-.15.36-.17.38.75-.4.19-.39.16-.36.13-.35.11-.33.08-.31.06h-.3-.54-.25l-.22-.05-.21-.07-.19-.09-.18-.12-.15-.14-.12-.17-.08-.18-.05-.2v-.21-.2l.07-.19.1-.18.13-.17.16-.17.18-.15.2-.14.23-.14.26-.12.28-.12.31-.1.33-.09.37-.08m.03.18a.43 .43 0 0 1 .49 .33 .42 .42 0 0 1 -.34 .49m-1.92-2.04l-.14-.82.52-.09.49-.07.45-.05h.42.75.34.3l.27.05.26.07.22.08.2.1.19.11.15.14.13.17.09.19.05.2v.21l-.05.2-.08.19-.1.16-.14.16-.15.15-.17.13-.2.13-.21.12-.23.11-.26.1-.27.09-.29.09-.3.07-.33.06-.13-.83.29-.05.27-.07.24-.07.23-.07.21-.09.18-.09.17-.09.14-.09.11-.09.09-.09.07-.07v-.07-.05-.1h-.05l-.09-.05-.11-.06-.16-.05-.18-.05h-.22-.26-.28-.68-.4-.42l-.46.07-.5.08m.03-.07a.41 .41 0 1 1 -.18 -.81M139.06 401.71l-.65-.52.1-.09 6.07-3.92 6-3.81 5.94-3.72L162.4 386l5.8-3.5 5.74-3.41 5.68-3.3 5.6-3.2 5.54-3.1 5.47-3 5.4-2.89 5.34-2.8 5.27-2.68 5.21-2.59 5.14-2.48 5.07-2.38 5-2.28 4.94-2.18 4.87-2.08 4.8-2 4.74-1.87 4.67-1.77 4.61-1.66 4.54-1.56 4.47-1.46 4.41-1.36 4.34-1.25 4.27-1.15 4.21-1.05 4.14-.95 4.07-.84 4-.74.14.83-4 .73-4 .84-4.13.95-4.19 1-4.25 1.15L275 333.33l-4.39 1.35-4.46 1.46-4.53 1.55L257 339.35l-4.66 1.76L247.59 343l-4.8 2L237.93 347 233 349.19l-5 2.27-5.06 2.38-5.13 2.48-5.2 2.58-5.26 2.69L202 364.37l-5.4 2.89-5.47 3-5.53 3.1-5.6 3.2-5.67 3.3-5.73 3.4-5.8 3.5L157 390.37 151 394.08l-6 3.81L139 401.81l.1-.09m-.14.08a.41 .41 0 1 1 -.5 -.66 .1 .1 0 0 1 0 0m-4.78-1.85l.67.5-.57.77-.5.74-.44.7-.4.66-.33.62-.29.58-.23.54-.18.49-.14.44-.08.4v.33.28.22l.06.15.06.1.08.06.11.05h.15.22l.28-.07.32-.12.37-.18.41-.24.45-.3.48-.37.52-.43.55-.5.58-.56.61-.64.63-.7.66-.77.69-.84.66.52-.7.86-.68.79-.65.72-.63.65-.6.58-.57.52-.55.46-.51.39-.49.33-.46.27-.44.21-.41.15-.38.1h-.37-.35l-.32-.13-.27-.22-.2-.28-.12-.33-.06-.36V406l.05-.43.1-.47.15-.5.2-.53.25-.58.3-.61.35-.65.41-.69.46-.72.52-.76.58-.79m-.001.02a.42 .42 0 0 1 .59 -.06 .43 .43 0 0 1 .08 .56m-4.16-2.09l-.68-.49.63-.8.6-.73.59-.68.57-.6.55-.55.52-.48.5-.43.48-.37.46-.31.43-.25.41-.2.39-.15.37-.08h.35.34l.31.12.26.21.2.28.12.32.06.35v.38l-.05.41-.1.45-.15.48-.19.52-.24.56-.3.6-.34.63-.4.67-.46.71-.51.74-.57.77-.67-.51.56-.75.5-.72.44-.68.38-.64.33-.6.28-.57.23-.51.17-.48.13-.43.08-.37v-.33-.26-.2l-.05-.15-.06-.09-.07-.05h-.1-.15-.2l-.26.06-.3.11-.34.16-.38.23-.41.28-.45.34-.47.4-.5.46-.53.53-.55.59-.57.65-.59.71-.61.78m.001-.04a.42 .42 0 1 1 -.67 -.51m-2.79-2.49l.58.6-.67.67-.6.65-.53.61-.47.59-.4.55-.33.51-.28.48-.21.44-.16.4-.11.35-.06.3v.25.2l.05.14.06.1.07.07.1.05h.15.2.24l.29-.08.32-.13.36-.17.39-.23.41-.29.43-.34.46-.39.47-.46.49-.51.5-.57.51-.63.52-.69.68.49-.54.72-.53.65-.52.6-.51.54-.5.48-.49.42-.47.37-.46.32-.44.26-.42.2-.4.16-.38.1-.36.05h-.35l-.32-.07-.3-.15-.25-.22-.18-.28-.1-.33v-.35-.37l.07-.4.13-.43.19-.46.24-.49.3-.52.36-.55.42-.58.49-.61.55-.64.62-.67.7-.7m-.001-.001a.42 .42 0 0 1 .58 .6m-3.16-2.86l.42-.72h-.47l.49-.36.46-.33.45-.28.43-.26.41-.22.4-.18.37-.15.36-.13.34-.09.32-.06h.3.28l.27.05.25.08.23.13.2.17.15.22.1.24.06.26v.27.28l-.06.29-.1.3-.14.32-.16.33-.2.34-.24.36-.27.37-.31.38-.35.4-.38.42-.43.42-.58-.6.4-.4.37-.39.32-.38.29-.35.25-.34.21-.33.18-.3.14-.28.11-.25.08-.24v-.2-.17V391v-.11-.08-.06l-.06-.05h-.08-.11-.15-.4l-.25.05-.28.08-.3.1-.33.13-.36.17-.38.2-.4.23-.42.28-.45.3-.46.35h-.46m.4-.15a.42 .42 0 1 1 -.51 -.66m-12.49-20.72l.83-.11.14.93.15.91.17.9.19.88.2.86.21.84.23.82.25.8.26.79.28.76.29.75.31.73.32.71.34.7.36.68.37.65.39.64.4.62.41.6.44.59.44.57.47.55.48.53.49.51.51.5.53.48.54.46.56.45.57.42.59.41.6.39.62.37-.42.73-.64-.39-.63-.4-.61-.42-.6-.44-.58-.46-.56-.48-.55-.5-.53-.52-.51-.53-.5-.56-.49-.57-.46-.58L117 386l-.43-.63-.42-.64-.4-.66-.38-.68-.37-.7-.35-.72-.33-.73-.32-.75-.3-.77-.28-.79-.27-.8-.25-.82-.24-.85-.22-.85-.2-.88-.19-.89-.17-.92-.15-.93-.14-.94m.02.001a.42 .42 0 0 1 .83 -.11"/>
        <path d="M291.43,242.1l6.34-5.17a26.25,26.25,0,0,1-8.34-6.91q-.66,7.28,2,12.08Z"/>
        <path d="M99.1,374a14.62,14.62,0,0,1-6.18-1.1,1,1,0,0,1-.49-.51,2.56,2.56,0,0,1,.1-2.32c.66-1.21,2.61-3,11.83-4.49a1,1,0,1,1,.32,2c-8.41,1.37-10.08,2.89-10.4,3.49a.63.63,0,0,0-.08.23c4.17,1.65,12.64.54,25.21-3.3a1,1,0,0,1,1.25.66,1,1,0,0,1-.66,1.25C111,372.59,104.06,374,99.1,374Z"/>
        <path d="M102.54,373.77a.84.84,0,0,1-.27,0,1,1,0,0,1-.7-1.23c3.28-11.81,9.57-25.16,18.68-39.68a1,1,0,1,1,1.69,1.06c-9,14.36-15.21,27.54-18.44,39.16A1,1,0,0,1,102.54,373.77Z"/>
        <path d="M330.18,509.62a1,1,0,0,1-.38-.07c-6.63-2.67-18.54-6.53-35.41-11.47a1,1,0,0,1-.67-1.24,1,1,0,0,1,1.24-.68c16.17,4.74,27.82,8.49,34.66,11.17a17.92,17.92,0,0,1,6.68-7.86,1,1,0,0,1,1.38.3,1,1,0,0,1-.3,1.38,15.94,15.94,0,0,0-6.27,7.82,1,1,0,0,1-.53.57A1.14,1.14,0,0,1,330.18,509.62Z"/>
        <path d="m387.7 531.27h-93.15a1 1 0 0 1 -1 -1v-7.27a1 1 0 0 1 1 -1h93.15a1 1 0 0 1 1 1v7.28a1 1 0 0 1 -1 .99m-92.15-2h91.15v-5.27h-91.15"/>
        <path d="M317.51,523.32A.51.51,0,0,1,317,523c-4.42-12.87-14-20.23-28.41-21.86a.5.5,0,0,1-.44-.55.5.5,0,0,1,.55-.44c14.84,1.67,24.69,9.25,29.25,22.53a.51.51,0,0,1-.31.64Z"/>
        <path d="M214,484.62a1,1,0,0,1-.95-.67c-2.29-6.48-9.93-19.13-22.7-37.59a1,1,0,0,1,.25-1.39,1,1,0,0,1,1.39.25c12.38,17.9,20,30.43,22.66,37.27,7.13-1.21,12.06-1.67,15-1.4a1,1,0,0,1,.9,1.09,1,1,0,0,1-1.08.9c-2.88-.26-8,.25-15.34,1.53Z"/>
        <path d="M186.64,476l-.13,0a.51.51,0,0,1-.35-.62c3.24-11.52,3.54-21.24.88-28.88a.5.5,0,0,1,.31-.63.49.49,0,0,1,.63.3c2.73,7.84,2.44,17.76-.85,29.48A.52.52,0,0,1,186.64,476Z"/>
        <path d="m259.72 530.77h-38.59c-5.38-.74-9.56-2.39-13.82-8.32l.06-.05c-.43-.53-1.12-1.58-2.42-3.6l-35.11-54.12a1 1 0 1 1 1.68 -1.09c23.22 35.8 37.33 57.55 37.44 57.73 3.84 5.34 7.32 6.75 12.37 7.46h37.37l-.14-7.08a1 1 0 0 1 1 -1 1 1 0 0 1 1 1l.16 8.1a1 1 0 0 1 -.29 .72 1 1 0 0 1 -.71 .25"/>
        <path d="m456.8 531.23h-246.95c-7.39 0-14-5.86-17-14.93a1.5 1.5 0 0 1 2.85 -.92c2.51 7.81 8 12.85 14.11 12.85h247c6.07 0 11.6-5 14.11-12.84a1.5 1.5 0 1 1 2.86 .91c-2.93 9.07-9.58 14.93-16.98 14.93"/>
        <g>
            <g>
                <path d="m281.92 529.73c0 7.93-6.12 14.36-13.66 14.36s-13.67-6.43-13.67-14.36"/>
                <g stroke="#29304d" fill="#FFFFFF">
                    <circle cx="268.26" cy="543.96" r="10.26"/>
                    <circle cx="268.26" cy="543.96" r="4.38"/>
                </g>
            </g>
            <g>
                <path d="m412.06 529.73c0 7.93-6.12 14.36-13.66 14.36s-13.67-6.43-13.67-14.36"/>
                <g stroke="#29304d" fill="#FFFFFF">
                    <circle cx="398.4" cy="543.96" r="10.26"/>
                    <circle cx="398.4" cy="543.96" r="4.38"/>
                </g>
            </g>
        </g>
        <path d="M419,554.72H344.14a.5.5,0,0,1,0-1H419a.5.5,0,0,1,0,1Zm-98.25,0H146.34a.5.5,0,0,1,0-1h174.4a.5.5,0,0,1,0,1Zm-193.6,0h-19.8a.5.5,0,0,1,0-1h19.8a.5.5,0,0,1,0,1Zm-37,0H79.58a.5.5,0,0,1,0-1H90.14a.5.5,0,0,1,0,1Z"/>
        <path d="m262.34 554.22q-38.22-22.53-20.6 0-36.94-27.5-26.2 0-19.89-15.79-16.8 0"/>
        <path d="M351.28,300.88a1,1,0,0,1-.35-.06,4,4,0,0,1-.74-7.4l.15-.08c4.15-1.87,10.25-3.23,18.12-4.06h.17c2.5.16,4.22,1.46,4.62,3.48a4.85,4.85,0,0,1-2.79,5.19,1.4,1.4,0,0,1-.29.09l-18.74,2.83Zm0-5.76a2.32,2.32,0,0,0-1.22,2.06,2.22,2.22,0,0,0,1.39,1.67l18.3-2.77a2.85,2.85,0,0,0,1.58-2.94c-.21-1.07-1.19-1.74-2.71-1.86C361,292.08,355.19,293.37,351.24,295.12ZM370,297.05h0Z"/>
        <path d="M349.82,308.43a3.52,3.52,0,0,1-3.58-2.26,4.23,4.23,0,0,1,1.59-4.61c4.14-2.74,11.63-3.64,22.93-2.76a1.09,1.09,0,0,1,.3.07,4.25,4.25,0,0,1,2.25,4.79,4.57,4.57,0,0,1-4.26,4,.86.86,0,0,1-.28,0c-5.22-1.23-11.48-1-18.61.71l-.21,0Zm13.32-7.95c-6.68,0-11.43.91-14.17,2.72a2.23,2.23,0,0,0-.83,2.32,1.59,1.59,0,0,0,1.66.91c7.33-1.74,13.81-2,19.27-.72a2.65,2.65,0,0,0,2.27-2.37,2.43,2.43,0,0,0-.91-2.56Q366.47,300.48,363.14,300.48Z"/>
        <path d="M361.36,316.38a81.93,81.93,0,0,1-11.58-1,1.11,1.11,0,0,1-.26-.07,4.16,4.16,0,0,1-2.73-4,3.25,3.25,0,0,1,2.87-2.75.81.81,0,0,1,.22,0c6.2.18,12.47.09,18.61-.26a3.13,3.13,0,0,1,3.22,3,4,4,0,0,1-3.64,4.34A24.84,24.84,0,0,1,361.36,316.38Zm-11.15-3c8.13,1.18,14,1.27,17.35.27l.14,0c1.63-.25,2.11-1.28,2-2.17-.06-.62-.44-1.28-1.12-1.24-6.16.35-12.44.43-18.66.26-.45.1-1.09.35-1.16,1A2.17,2.17,0,0,0,350.21,313.42Z"/>
        <path d="M364.69,321.15a44.91,44.91,0,0,1-9.93-1.1l-.16-.05c-2.18-.9-3.17-2.79-2.79-5.34a1,1,0,0,1,2,.29c-.31,2.09.68,2.82,1.5,3.17a43.77,43.77,0,0,0,9.75,1c2.07-.21,3-1.17,3.21-1.92a1.63,1.63,0,0,0-.93-1.73,1,1,0,0,1,1.05-1.7,3.59,3.59,0,0,1,1.83,3.88c-.34,1.47-1.85,3.15-5.06,3.46Z"/>
        <path d="m262.17 279.27c-9.94 0-19.56-5.57-26.26-15.39-8.27-12.13-9.53-27.36-3.2-38.79l.08-.13c4.69-6.14 6.13-11.23 4-14-2.82-3.54-11-3.07-20.37 1.18-15.27 6-25.27 6.67-29 2.11-3-3.73-1.51-10.32 4.52-19.56 16-26.67 15.53-36.15 12.29-39.4-4.52-4.53-20.49-3.63-70.94 26.4-25.88 12.73-42.26 15.76-48.76 9-5.37-5.55-3.42-17.11 5.77-34.38a1 1 0 0 1 1.35 -.41 1 1 0 0 1 .42 1.35c-8.62 16.18-10.73 27.27-6.1 32.05 4 4.13 15.3 5.86 46.37-9.42 41.9-24.95 65.9-33.48 73.31-26 5.51 5.54 1.59 19.23-12 41.87-5.37 8.23-7 14.34-4.67 17.24 3 3.71 12.73 2.73 26.65-2.69 10.32-4.69 19.25-4.92 22.71-.58 1.64 2.06 3.32 6.93-3.87 16.38-5.93 10.77-4.7 25.14 3.13 36.63 7.06 10.34 17.47 15.68 27.86 14.3a1 1 0 1 1 .26 2 25.88 25.88 0 0 1 -3.55 .24m19.95-8.45a1 1 0 0 1 -.71 -.29 1 1 0 0 1 0 -1.42c4.28-4.24 8.41-11.55 3.76-22.27a1 1 0 0 1 1.84 -.79c5.09 11.75.53 19.8-4.19 24.48a1 1 0 0 1 -.7 .29"/>
    </g>
</g>
</svg>