<svg xmlns="http://www.w3.org/2000/svg" width="560.519" height="562" viewBox="0 0 560.519 562">
  <g transform="translate(0.53)">
    <g transform="translate(0.518)">
      <rect width="557.107" height="562" transform="translate(2.03)" fill="none"/>
      <path d="M447.8,46.48q28.391,1.656,19.924,31.708c-8.006,16.6,7.115,28.911,26.494,36.53,22.914,7.372,25.822,36.874-13.818,61.348-34.3,20.154-42.912,48.67-11.071,75.539,23.863,26.155-9.169,68.5-43.354,65.834-34.431-2.64-48.174,18.447-33.588,45.224l-93.559,34.671q-27.263-10.78-8.94-40.154,39.891-32.209,13.448-56.6-34.673-30.437-2.81-53.391c11.491-7.3,12.695-15.994,4.013-26.093-26.628-20.733-28.635-53.449-1.607-70.249,22.612-12.321,18.376-38.777,6.825-54.087L447.8,46.48Z" transform="translate(-56.112 -9.163)" fill="#fff" fill-rule="evenodd"/>
      <path d="M533.151,286.941l15.408-5.612a15.838,15.838,0,0,0,9.433-20.242L473.146,28.141A15.836,15.836,0,0,0,452.9,18.708L10.9,179.7a15.838,15.838,0,0,0-9.433,20.242L51.643,337.7m4.676,12.837,4.808,13.2m16.551,45.442,8.636,23.711a15.806,15.806,0,0,0,20.242,9.433L279.072,378.39,457.951,312.1" transform="translate(-0.518 -3.501)" fill="none" stroke="#29304d" stroke-linecap="round" stroke-linejoin="round" stroke-miterlimit="22.926" stroke-width="2" fill-rule="evenodd"/>
      <line x1="471.679" y2="171.801" transform="translate(0.397 23.126)" fill="none" stroke="#29304d" stroke-linecap="round" stroke-linejoin="round" stroke-miterlimit="22.926" stroke-width="2"/>
      <g transform="translate(418.648 18.812)">
        <ellipse cx="3.457" cy="3.461" rx="3.457" ry="3.461" transform="matrix(-0.94, 0.342, -0.342, -0.94, 36.812, 6.503)" fill="none" stroke="#29304d" stroke-linecap="round" stroke-linejoin="round" stroke-miterlimit="22.926" stroke-width="2"/>
        <ellipse cx="3.457" cy="3.461" rx="3.457" ry="3.461" transform="matrix(-0.94, 0.342, -0.342, -0.94, 22.839, 11.593)" fill="none" stroke="#29304d" stroke-linecap="round" stroke-linejoin="round" stroke-miterlimit="22.926" stroke-width="2"/>
        <ellipse cx="3.457" cy="3.461" rx="3.457" ry="3.461" transform="matrix(-0.94, 0.342, -0.342, -0.94, 8.866, 16.682)" fill="none" stroke="#29304d" stroke-linecap="round" stroke-linejoin="round" stroke-miterlimit="22.926" stroke-width="2"/>
      </g>
      <path d="M152.312,270.39c-4.068,0-7.367-9.181-7.367-20.507,0,11.325-3.3,20.507-7.368,20.507,4.069,0,7.368,9.181,7.368,20.506C144.945,279.57,148.244,270.39,152.312,270.39Z" transform="translate(-27.538 -49.263)" fill="none" stroke="#29304d" stroke-linecap="round" stroke-linejoin="round" stroke-miterlimit="22.926" stroke-width="1" fill-rule="evenodd"/>
      <path d="M517.976,239.472c-6.953,0-12.589-15.687-12.589-35.038,0,19.351-5.637,35.038-12.589,35.038,6.952,0,12.589,15.688,12.589,35.039,0-19.351,5.636-35.039,12.589-35.039Z" transform="translate(-97.567 -40.303)" fill="#29304d" stroke="#29304d" stroke-linecap="round" stroke-linejoin="round" stroke-miterlimit="22.926" stroke-width="1" fill-rule="evenodd"/>
      <path d="M613.521,282.336c-3.309,0-5.992-7.467-5.992-16.678,0,9.211-2.682,16.678-5.992,16.678,3.309,0,5.992,7.467,5.992,16.677C607.53,289.8,610.213,282.336,613.521,282.336Z" transform="translate(-119.005 -52.373)" fill="#29304d" stroke="#29304d" stroke-linecap="round" stroke-linejoin="round" stroke-miterlimit="22.926" stroke-width="1" fill-rule="evenodd"/>
      <path d="M364.556,250.438c-9.377,8.077-19.665,11.931-28.087,9.807-12.488-3.152-21.666-19.161-23.825-38.813m-.413-11.136A125.939,125.939,0,0,1,315,187.37" transform="translate(-61.97 -36.939)" fill="none" stroke="#29304d" stroke-linecap="round" stroke-miterlimit="22.926" stroke-width="2" fill-rule="evenodd"/>
      <path d="M164.827,398.47c29.054-28.245,62.368-53.017,99.548-70.175m12.822-5.623c3.574-1.471,6.907-2.757,10.515-4.065,9.539-5.86,12.657-11.1,11.163-28.36,5.608,15.9,68.634,9.914,72.862-.5.655,12.22,5.916,14.933,15.768,17.53,2.524.417,4.205.711,6.514,1.193m10.514,2.579a169.378,169.378,0,0,1,46.585,21.5" transform="translate(-32.91 -57.121)" fill="none" stroke="#29304d" stroke-linecap="round" stroke-linejoin="round" stroke-miterlimit="22.926" stroke-width="2" fill-rule="evenodd"/>
      <path d="M407.858,284.848c.422,3.4.887,6.315,1.45,9.111" transform="translate(-80.822 -56.156)" fill="none" stroke="#29304d" stroke-linecap="round" stroke-miterlimit="22.926" stroke-width="2" fill-rule="evenodd"/>
      <path d="M339.466,277.228c-.126,5.39-.287,10.1-.462,14.162" transform="translate(-67.248 -54.654)" fill="none" stroke="#29304d" stroke-linecap="round" stroke-miterlimit="22.926" stroke-width="2" fill-rule="evenodd"/>
      <path d="M311.966,207.434A29.7,29.7,0,0,1,289.455,222.6c-6.377.855-6.476,8.81-.692,8.81,9.324-2.161,18.423-5.279,22.083-9.463" transform="translate(-56.512 -40.894)" fill="none" stroke="#29304d" stroke-linecap="round" stroke-miterlimit="22.926" stroke-width="2" fill-rule="evenodd"/>
      <ellipse cx="2.082" cy="4.627" rx="2.082" ry="4.627" transform="translate(242.874 157.362) rotate(-1.826)" fill="#29304d"/>
      <ellipse cx="2.271" cy="5.047" rx="2.271" ry="5.047" transform="matrix(0.99, -0.138, 0.138, 0.99, 264.308, 155.083)" fill="#29304d"/>
      <path d="M57.217,449.9c-.336-3.106-.234-9.189-3.81-14.641-.088-.06,25.974-15.955,20.469-30.319Q57.943,415.4,41.962,428.226q-.572,14.252-1.4,31.713.66,7.416,5.218,8.631,2.051,11.684,8.43,10.638a10.74,10.74,0,0,0,10.236,7.828q5.4,14.644,17.463,3.011,15.213-19.176,14.853-20.071c4.4-4.274,17.163-16.356,10.738-22.781a306.819,306.819,0,0,0-34.121,31.813q13.186-17.573,16.96-20.874c10.932-5.687,20.165-14.251,20.473-17.663-6.663-4.8-21.114,2.43-36.129,13.649l-11.943,14.05" transform="translate(-8.412 -79.832)" fill="none" stroke="#29304d" stroke-linecap="round" stroke-linejoin="round" stroke-miterlimit="22.926" stroke-width="2" fill-rule="evenodd"/>
      <path d="M58.058,461.4,69.3,447.148c12.31-7.092,24.286-13.046,24.286-13.046l15.254-2.409c.776,2.987-1.932,6.572-5.928,9.848" transform="translate(-11.862 -85.105)" fill="none" stroke="#29304d" stroke-linecap="round" stroke-linejoin="round" stroke-miterlimit="22.926" stroke-width="2" fill-rule="evenodd"/>
      <path d="M79.169,517.315q-1.041,27.4-1.611,45.063c2.564,21.939,10.994,30.435,21.677,39.942,15.757,3.125,35.191-15.5,57-48.371" transform="translate(-15.706 -101.985)" fill="none" stroke="#29304d" stroke-linecap="round" stroke-linejoin="round" stroke-miterlimit="22.926" stroke-width="2" fill-rule="evenodd"/>
      <path d="M627.14,383.5q12.735-13.889,24.889-21.476,5.832-24.93,11.641-34.524-12.338-1.961-17.061,12.846-5.62,13.848-5.62,13.849l-8.43,5.82" transform="translate(-124.052 -64.519)" fill="none" stroke="#29304d" stroke-linecap="round" stroke-linejoin="round" stroke-miterlimit="22.926" stroke-width="2" fill-rule="evenodd"/>
      <path d="M610.572,389.639a59.308,59.308,0,0,0,5.219-40.344,105.479,105.479,0,0,0-38.738-24.487c-2.172,6.135,3.582,12.625,8.831,14.05q8.125,11.185,15.054,11.442a132.363,132.363,0,0,0-2.007,18.064q-7.677-16.893-17.462-23.484A56.023,56.023,0,0,0,562,334.442q-.884,8.549,7.627,15.657,14.254,11.642,15.254,27.5-10.984-12.065-13.849-22.68-3.559-9.51-11.441-12.847-2.787,7.884.8,16.659,10.432,17.408,12.472,27.75" transform="translate(-110.495 -64.034)" fill="none" stroke="#29304d" stroke-linecap="round" stroke-linejoin="round" stroke-miterlimit="22.926" stroke-width="2" fill-rule="evenodd"/>
      <path d="M580.139,414.812c5.735,4.458,12.091.979,13.046-3.814,5.7,3.354,12.191.711,12.846-4.315" transform="translate(-114.786 -80.175)" fill="none" stroke="#29304d" stroke-linecap="round" stroke-linejoin="round" stroke-miterlimit="22.926" stroke-width="2" fill-rule="evenodd"/>
      <path d="M604.258,418.059a100.246,100.246,0,0,0-28.537,21.8c23.772,45.29,26.014,81.626,15.49,126.122" transform="translate(-113.915 -82.417)" fill="none" stroke="#29304d" stroke-linecap="round" stroke-linejoin="round" stroke-miterlimit="22.926" stroke-width="2" fill-rule="evenodd"/>
      <path d="M537.89,500.588q11.938-6.415,3.011-62c-5.793-14.1-5.5-28.743,4.042-51.852,4.124-10.034-1.791-30.191-14.679-34.273,4.406-4.527,15.384-6,19.361,4.377" transform="translate(-104.953 -68.804)" fill="none" stroke="#29304d" stroke-linecap="round" stroke-linejoin="round" stroke-miterlimit="22.926" stroke-width="2" fill-rule="evenodd"/>
      <path d="M322.436,248.379q16.63,3.53,28.9-13.448" transform="translate(-63.982 -46.315)" fill="none" stroke="#29304d" stroke-linecap="round" stroke-miterlimit="22.926" stroke-width="2" fill-rule="evenodd"/>
      <path d="M396.5,195.9c18.126-29.153,30.809,6.1.549,21.1" transform="translate(-78.583 -36.413)" fill="none" stroke="#29304d" stroke-linecap="round" stroke-miterlimit="22.926" stroke-width="2" fill-rule="evenodd"/>
      <path d="M391.183,219.289q4-16.611,13.849-23.484" transform="translate(-77.535 -38.602)" fill="none" stroke="#29304d" stroke-linecap="round" stroke-linejoin="round" stroke-miterlimit="22.926" stroke-width="1" fill-rule="evenodd"/>
      <path d="M393.357,196.408A70.263,70.263,0,0,1,395,218.879c53.994,25.064,49.386-61.227-4.881-92.989C363.99,110.6,328.932,114.6,323.492,138.867m58.731,31.305q1.951,3.036,3.671,6.3" transform="translate(-64.19 -23.038)" fill="none" stroke="#29304d" stroke-linecap="round" stroke-miterlimit="22.926" stroke-width="2" fill-rule="evenodd"/>
      <path d="M438.9,155.033c8.092,2.424,12.038-4.88,11.2-12.105-.047-2.665-3.325-4.087-3.513,0,.133,10.857-6.148,10.532-11.1,7.663" transform="translate(-86.269 -27.673)" fill="none" stroke="#29304d" stroke-linecap="round" stroke-miterlimit="22.926" stroke-width="2" fill-rule="evenodd"/>
      <path d="M340.088,149.726c-10.984,23.879-32.654,36.633-61.4,23.21q-10.554-4.556-17.261,2.408c3.294-16.453,12.66-22.608,29.706-11.641,16.789-26.639,37.24-26.3,48.953-13.976Z" transform="translate(-51.955 -27.924)" fill="none" stroke="#29304d" stroke-linecap="round" stroke-linejoin="round" stroke-miterlimit="22.926" stroke-width="2" fill-rule="evenodd"/>
      <path d="M298.43,169.118c6.727,4.038,16.06,7.182,26.591,4.115" transform="translate(-59.249 -33.34)" fill="none" stroke="#29304d" stroke-linecap="round" stroke-linejoin="round" stroke-miterlimit="22.926" stroke-width="2" fill-rule="evenodd"/>
      <path d="M359.561,151.074c15.34-8.718,33.833,3.948,29.693,25.17-1.417,6.86-1.943,10.749,1.784,15.307-9.353,1.487-15.466-5.687-16.634-12.791-1.671-13.446-5.815-21.137-14.843-27.687Z" transform="translate(-71.301 -29.234)" fill="none" stroke="#29304d" stroke-linecap="round" stroke-linejoin="round" stroke-miterlimit="22.926" stroke-width="2" fill-rule="evenodd"/>
      <path d="M359.4,151.71q25.1.117,21.392,30.134" transform="translate(-71.27 -29.909)" fill="none" stroke="#29304d" stroke-linecap="round" stroke-linejoin="round" stroke-miterlimit="22.926" stroke-width="2" fill-rule="evenodd"/>
      <path d="M409.146,238.009c-1.315,5.888.772,14.07,14.273,17.281q-4.509,4.122-12.948,3.211,6.7,5.486,12.244,4.516l-11.842,2.91A14.147,14.147,0,0,1,417,276.967c-21.951-10.451-25.861-24.184-20.361-52.036" transform="translate(-78.17 -44.344)" fill="none" stroke="#29304d" stroke-linecap="round" stroke-miterlimit="22.926" stroke-width="2" fill-rule="evenodd"/>
      <path d="M331.784,288.916q-.413-4.346,5.619-5.921" transform="translate(-65.82 -55.79)" fill="none" stroke="#29304d" stroke-linecap="round" stroke-linejoin="round" stroke-miterlimit="22.926" stroke-width="2" fill-rule="evenodd"/>
      <path d="M421.105,421.536q.714.358.133-11.161a256.464,256.464,0,0,0-45.727-8.681m-8.37-.693c-4.576-.314-9.665-.562-14.394-.681m-3.113-.063a406.5,406.5,0,0,0-52.642,2.772m-14.347,17.209-3.133,53.768" transform="translate(-55.52 -78.899)" fill="none" stroke="#29304d" stroke-linecap="round" stroke-linejoin="round" stroke-miterlimit="22.926" stroke-width="2" fill-rule="evenodd"/>
      <path d="M451.437,391.412q4.6-60.228,9.523-76.255,3.881-12.629,7.969,2.184" transform="translate(-89.413 -60.985)" fill="none" stroke="#29304d" stroke-linecap="round" stroke-linejoin="round" stroke-miterlimit="22.926" stroke-width="2" fill-rule="evenodd"/>
      <path d="M432.5,387.206q8.855-78.046,18.9-80.836a61.818,61.818,0,0,1,9.378,2.177" transform="translate(-85.681 -60.399)" fill="none" stroke="#29304d" stroke-linecap="round" stroke-linejoin="round" stroke-miterlimit="22.926" stroke-width="2" fill-rule="evenodd"/>
      <path d="M278.165,404.409c2.305-58.238,10.147-79.778,16.337-82.826,4.511-.556,4.52-.452,9.055-.707" transform="translate(-55.254 -63.259)" fill="none" stroke="#29304d" stroke-linecap="round" stroke-linejoin="round" stroke-miterlimit="22.926" stroke-width="2" fill-rule="evenodd"/>
      <path d="M307.831,325.562q-11.342-22.342-11.272,61.846.138,7.579-.437,15.8c-9.161.933-17.957,1.2-17.957,1.2" transform="translate(-55.254 -63.259)" fill="none" stroke="#29304d" stroke-linecap="round" stroke-linejoin="round" stroke-miterlimit="22.926" stroke-width="2" fill-rule="evenodd"/>
      <path d="M392.746,441.273s-.056-1.175-.168-3.524q-42.945-4.933-80.687,4.014-2.631,30.448-2.632,30.448" transform="translate(-61.384 -85.954)" fill="none" stroke="#29304d" stroke-linecap="round" stroke-linejoin="round" stroke-miterlimit="22.926" stroke-width="2" fill-rule="evenodd"/>
      <path d="M334.342,438.968q-.666,26.564-.666,26.565" transform="translate(-66.198 -86.539)" fill="none" stroke="#29304d" stroke-linecap="round" stroke-linejoin="round" stroke-miterlimit="22.926" stroke-width="2" fill-rule="evenodd"/>
      <ellipse cx="4.215" cy="5.168" rx="4.215" ry="5.168" transform="translate(228.425 324.659) rotate(12.284)" fill="none" stroke="#29304d" stroke-linecap="round" stroke-linejoin="round" stroke-miterlimit="22.926" stroke-width="2"/>
      <path d="M374.731,426.04l16.229-40.552,7.454,2.983L383.33,426.16" transform="translate(-74.291 -75.996)" fill="none" stroke="#29304d" stroke-linecap="round" stroke-linejoin="round" stroke-miterlimit="22.926" stroke-width="2" fill-rule="evenodd"/>
      <path d="M394.945,382.834l8.649-10.808-1.2,13.791Z" transform="translate(-78.276 -73.342)" fill="none" stroke="#29304d" stroke-linecap="round" stroke-linejoin="round" stroke-miterlimit="22.926" stroke-width="2" fill-rule="evenodd"/>
      <path d="M359.241,428.058c1.435-11.242,3.982-23.427,8.69-34.035,1.187,11.178.136,23.091-1.706,33.782" transform="translate(-71.238 -77.679)" fill="none" stroke="#29304d" stroke-linecap="round" stroke-linejoin="round" stroke-miterlimit="22.926" stroke-width="2" fill-rule="evenodd"/>
      <path d="M362.009,419.836a8.235,8.235,0,0,0,6.4,1.016" transform="translate(-71.783 -82.768)" fill="none" stroke="#29304d" stroke-linecap="round" stroke-linejoin="round" stroke-miterlimit="22.926" stroke-width="2" fill-rule="evenodd"/>
      <path d="M369.47,391.105c5.337.045,6.941-6.325,3.394-16.54-1.076,6.685-10.681,10.276-3.858,16.473" transform="translate(-72.684 -73.843)" fill="none" stroke="#29304d" stroke-linecap="round" stroke-linejoin="round" stroke-miterlimit="22.926" stroke-width="2" fill-rule="evenodd"/>
    </g>
  </g>
</svg>
