<svg xmlns="http://www.w3.org/2000/svg" width="582.383" height="584" viewBox="0 0 582.383 584">
  <g id="Слой_x0020_1" transform="translate(0.532)">
    <g id="_1985526663216" transform="translate(0.518)">
      <rect id="Rectangle_983" data-name="Rectangle 983" width="578.915" height="584" transform="translate(2.111)" fill="none"/>
      <path id="Path_1553" data-name="Path 1553" d="M239.516,115.931c-20.755,3.052-29.407,41.175-6.054,63.724,31.661,30.574-49.305,42.3-1.669,98.351,25.885,30.459-38,55.536,19.606,96.146,17.686,12.468,9.754,40.033-.846,46.205l141.1-52.288q-21.352-55.859,38.586-69.36,43.451-9.267,25.638-56.558c-10.2-20.562-6.781-28.759,11.929-35.437,15.662-8.043,19.491-24.858,9.82-39.6-16.166-18.141-12.551-31.629,10.846-37.96,34.042-5.692,51.419-33.12,53.382-61.011l-15-41.188Q518,14.5,506.385,18.729l-266.869,97.2Z" transform="translate(-36.29 -2.926)" fill="#fff" fill-rule="evenodd"/>
      <path id="Path_1554" data-name="Path 1554" d="M554,297.478l16.012-5.832a16.458,16.458,0,0,0,9.8-21.034L491.647,28.547a16.456,16.456,0,0,0-21.034-9.8L11.306,186.039a16.458,16.458,0,0,0-9.8,21.034l52.14,143.153M58.5,363.565l5,13.714M80.7,424.5l8.974,24.639a16.425,16.425,0,0,0,21.034,9.8L475.857,323.623" transform="translate(-0.518 -2.943)" fill="none" stroke="#29304d" stroke-linecap="round" stroke-linejoin="round" stroke-miterlimit="22.926" stroke-width="2" fill-rule="evenodd"/>
      <line id="Line_196" data-name="Line 196" x1="490.143" y2="178.526" transform="translate(0.413 24.032)" fill="none" stroke="#29304d" stroke-linecap="round" stroke-linejoin="round" stroke-miterlimit="22.926" stroke-width="2"/>
      <g id="Group_3295" data-name="Group 3295" transform="translate(435.036 19.549)">
        <ellipse id="Ellipse_325" data-name="Ellipse 325" cx="3.593" cy="3.596" rx="3.593" ry="3.596" transform="matrix(-0.94, 0.342, -0.342, -0.94, 38.253, 6.758)" fill="none" stroke="#29304d" stroke-linecap="round" stroke-linejoin="round" stroke-miterlimit="22.926" stroke-width="2"/>
        <ellipse id="Ellipse_326" data-name="Ellipse 326" cx="3.593" cy="3.596" rx="3.593" ry="3.596" transform="matrix(-0.94, 0.342, -0.342, -0.94, 23.733, 12.047)" fill="none" stroke="#29304d" stroke-linecap="round" stroke-linejoin="round" stroke-miterlimit="22.926" stroke-width="2"/>
        <ellipse id="Ellipse_327" data-name="Ellipse 327" cx="3.593" cy="3.596" rx="3.593" ry="3.596" transform="matrix(-0.94, 0.342, -0.342, -0.94, 9.213, 17.335)" fill="none" stroke="#29304d" stroke-linecap="round" stroke-linejoin="round" stroke-miterlimit="22.926" stroke-width="2"/>
      </g>
      <path id="Path_1555" data-name="Path 1555" d="M512.929,231.7c-4.228,0-7.656-9.54-7.656-21.309,0,11.768-3.427,21.309-7.655,21.309,4.228,0,7.655,9.541,7.655,21.309C505.272,241.245,508.7,231.7,512.929,231.7Z" transform="translate(-82.894 -34.866)" fill="none" stroke="#29304d" stroke-linecap="round" stroke-linejoin="round" stroke-miterlimit="22.926" stroke-width="1" fill-rule="evenodd"/>
      <path id="Path_1556" data-name="Path 1556" d="M170.837,322.6c-7.225,0-13.082-16.3-13.082-36.411,0,20.109-5.857,36.411-13.082,36.411,7.225,0,13.082,16.3,13.082,36.41C157.756,338.9,163.612,322.6,170.837,322.6Z" transform="translate(-24.407 -47.425)" fill="#29304d" stroke="#29304d" stroke-linecap="round" stroke-linejoin="round" stroke-miterlimit="22.926" stroke-width="1" fill-rule="evenodd"/>
      <path id="Path_1557" data-name="Path 1557" d="M549.732,187.634c-3.439,0-6.226-7.759-6.226-17.331,0,9.572-2.788,17.331-6.227,17.331,3.439,0,6.227,7.759,6.227,17.33C543.506,195.392,546.293,187.634,549.732,187.634Z" transform="translate(-89.467 -28.222)" fill="#29304d" stroke="#29304d" stroke-linecap="round" stroke-linejoin="round" stroke-miterlimit="22.926" stroke-width="1" fill-rule="evenodd"/>
      <path id="Path_1558" data-name="Path 1558" d="M312.231,214.465c.071-2.362.24-4.844.509-7.348M366.6,256.179c-9.744,8.393-20.435,12.4-29.187,10.191-12.977-3.275-22.514-19.911-24.757-40.333" transform="translate(-52.173 -34.322)" fill="none" stroke="#29304d" stroke-linecap="round" stroke-miterlimit="22.926" stroke-width="2" fill-rule="evenodd"/>
      <path id="Path_1559" data-name="Path 1559" d="M164.827,406.344c36.009-35.007,80.564-65.905,127.7-82.989m103.7-11.776a168.092,168.092,0,0,1,66.1,26.259" transform="translate(-27.746 -51.633)" fill="none" stroke="#29304d" stroke-linecap="round" stroke-linejoin="round" stroke-miterlimit="22.926" stroke-width="2" fill-rule="evenodd"/>
      <path id="Path_1560" data-name="Path 1560" d="M407.858,284.848a124.217,124.217,0,0,0,5.075,23.176" transform="translate(-68.02 -47.203)" fill="none" stroke="#29304d" stroke-linecap="round" stroke-miterlimit="22.926" stroke-width="2" fill-rule="evenodd"/>
      <path id="Path_1561" data-name="Path 1561" d="M339.2,277.228c-.591,25.266-1.932,36.133-1.932,36.133" transform="translate(-56.322 -45.941)" fill="none" stroke="#29304d" stroke-linecap="round" stroke-miterlimit="22.926" stroke-width="2" fill-rule="evenodd"/>
      <path id="Path_1562" data-name="Path 1562" d="M313.04,207.434a30.865,30.865,0,0,1-23.393,15.76c-6.627.889-6.729,9.155-.719,9.155,9.689-2.246,19.144-5.485,22.947-9.834" transform="translate(-47.585 -34.375)" fill="none" stroke="#29304d" stroke-linecap="round" stroke-miterlimit="22.926" stroke-width="2" fill-rule="evenodd"/>
      <ellipse id="Ellipse_328" data-name="Ellipse 328" cx="2.164" cy="4.808" rx="2.164" ry="4.808" transform="translate(258.693 158.591) rotate(19.562)" fill="#29304d"/>
      <ellipse id="Ellipse_329" data-name="Ellipse 329" cx="2.36" cy="5.245" rx="2.36" ry="5.245" transform="translate(278.917 160.082) rotate(19.562)" fill="#29304d"/>
      <path id="Path_1563" data-name="Path 1563" d="M314.291,203.877c1.826-3.834,8.166-1.5,9.506,1.29" transform="translate(-52.515 -33.452)" fill="none" stroke="#29304d" stroke-linecap="round" stroke-miterlimit="22.926" stroke-width="2" fill-rule="evenodd"/>
      <path id="Path_1564" data-name="Path 1564" d="M338.4,202.435c8.951-5.38,21.918-10.228,29.727-11.749" transform="translate(-56.509 -31.599)" fill="none" stroke="#29304d" stroke-linecap="round" stroke-miterlimit="22.926" stroke-width="2" fill-rule="evenodd"/>
      <ellipse id="Ellipse_330" data-name="Ellipse 330" cx="5.944" cy="11.784" rx="5.944" ry="11.784" transform="translate(251.108 151.211)" fill="none" stroke="#29304d" stroke-linecap="round" stroke-miterlimit="22.926" stroke-width="2"/>
      <ellipse id="Ellipse_331" data-name="Ellipse 331" cx="6.089" cy="12.073" rx="6.089" ry="12.073" transform="translate(270.055 152.372)" fill="none" stroke="#29304d" stroke-linecap="round" stroke-miterlimit="22.926" stroke-width="2"/>
      <path id="Path_1565" data-name="Path 1565" d="M384.53,185.859c4.321,2.237,4.259,10.644,1.412,12.525-3.553,2.349-9.578.219-10.5-9.38-.6-6.172,1.322-13.107,5.975-14.8,6.709-2.446,12.216,3.917,14.282,11.8,6.6,25.18-19.95,28.008-26.854,7.586-3.516-10.4-22.475-61.411-34.954-37.709-5.261-8-13.214-7.551-18.251,7.091,4.785-26.635,23.038-36.462,33.905-34.224" transform="translate(-52.737 -21.284)" fill="none" stroke="#29304d" stroke-linecap="round" stroke-linejoin="round" stroke-miterlimit="22.926" stroke-width="2" fill-rule="evenodd"/>
      <path id="Path_1566" data-name="Path 1566" d="M388.9,225.138c.551,24.926,7.941,40.51,18.419,43.511,12.529,3.591,22.061-8.383,20.469-20.605-1.4-10.764-10.88-18.97-20.085-16.313-9.4,2.714-11.018,19.645-2.614,24.282,10.876,6,16.5-7.335,10.331-12.141a4.307,4.307,0,0,0-6.605,1.134" transform="translate(-64.879 -37.309)" fill="none" stroke="#29304d" stroke-linecap="round" stroke-miterlimit="22.926" stroke-width="2" fill-rule="evenodd"/>
      <path id="Path_1567" data-name="Path 1567" d="M312.036,246.514c4.959,35.652-17.391,42.067-20.433,17.247-2.484-20.256,16.75-16.591,13.134,5.119" transform="translate(-48.718 -40.851)" fill="none" stroke="#29304d" stroke-linecap="round" stroke-miterlimit="22.926" stroke-width="2" fill-rule="evenodd"/>
      <path id="Path_1568" data-name="Path 1568" d="M394.478,180.69q19.482-14.126,26.73-13c10.4.929,16.386,9.553,13.627,19.365-2.584,9.192-22.24,25.356-32.455,25.756" transform="translate(-65.803 -27.774)" fill="none" stroke="#29304d" stroke-linecap="round" stroke-miterlimit="22.926" stroke-width="2" fill-rule="evenodd"/>
      <path id="Path_1569" data-name="Path 1569" d="M407.778,230.737c10.665-9.98,23.755-16.772,33.154-20.4,14.606-3.371,25.1,8.4,21.3,21.943-3.606,12.851-30.736,32.49-42.31,33.573" transform="translate(-68.007 -34.759)" fill="none" stroke="#29304d" stroke-linecap="round" stroke-miterlimit="22.926" stroke-width="2" fill-rule="evenodd"/>
      <path id="Path_1570" data-name="Path 1570" d="M337.512,155.111c7.686-33.089,30.991-35.913,46.222-26.854,15.8,9.4,23.459,31.36,26.521,32.091" transform="translate(-56.363 -20.516)" fill="none" stroke="#29304d" stroke-linecap="round" stroke-linejoin="round" stroke-miterlimit="22.926" stroke-width="2" fill-rule="evenodd"/>
      <path id="Path_1571" data-name="Path 1571" d="M431.4,206.565q2.5,6.052,9.19,5" transform="translate(-71.921 -34.231)" fill="none" stroke="#29304d" stroke-linecap="round" stroke-miterlimit="22.926" stroke-width="2" fill-rule="evenodd"/>
      <path id="Path_1572" data-name="Path 1572" d="M302.361,284.464c10.333,2.8,21.818,2.021,30.949-2.462" transform="translate(-50.538 -46.732)" fill="none" stroke="#29304d" stroke-linecap="round" stroke-miterlimit="22.926" stroke-width="2" fill-rule="evenodd"/>
      <g id="Group_3297" data-name="Group 3297" transform="translate(242.668 291.53)">
        <path id="Path_1573" data-name="Path 1573" d="M328.711,365.575c2.674,0,4.841-3.613,4.841-8.069s-2.167-8.069-4.841-8.069-4.841,3.612-4.841,8.069S326.037,365.575,328.711,365.575Z" transform="translate(-296.77 -349.437)" fill="none" stroke="#29304d" stroke-linecap="round" stroke-miterlimit="22.926" stroke-width="2" fill-rule="evenodd"/>
        <g id="Group_3296" data-name="Group 3296" transform="translate(0 1.726)">
          <path id="Path_1574" data-name="Path 1574" d="M388.6,372.363c3.456,0,6.257-4.669,6.257-10.429s-2.8-10.429-6.257-10.429-6.257,4.67-6.257,10.429S385.143,372.363,388.6,372.363Z" transform="translate(-306.459 -351.506)" fill="none" stroke="#29304d" stroke-linecap="round" stroke-miterlimit="22.926" stroke-width="2" fill-rule="evenodd"/>
          <path id="Path_1575" data-name="Path 1575" d="M336.224,357.526c11.97,4.237,23.275,5.249,37.988,3.181" transform="translate(-298.817 -352.504)" fill="none" stroke="#29304d" stroke-linecap="round" stroke-linejoin="round" stroke-miterlimit="22.926" stroke-width="2" fill-rule="evenodd"/>
          <path id="Path_1576" data-name="Path 1576" d="M382.845,369.677c1.707,24.143,2.179,49.275,2.877,69.146" transform="translate(-306.543 -354.517)" fill="none" stroke="#29304d" stroke-linecap="round" stroke-linejoin="round" stroke-miterlimit="22.926" stroke-width="2" fill-rule="evenodd"/>
          <path id="Path_1577" data-name="Path 1577" d="M325.069,368.929Q301.58,419.2,301.98,464.766" transform="translate(-293.141 -354.393)" fill="none" stroke="#29304d" stroke-linecap="round" stroke-miterlimit="22.926" stroke-width="2" fill-rule="evenodd"/>
          <path id="Path_1578" data-name="Path 1578" d="M355.675,448.7q.5-31.431,7.908-69.206c1.8-10.025,5.348-10.172,3.122,2.064a579.289,579.289,0,0,0-6.217,65.359" transform="translate(-302.04 -354.929)" fill="none" stroke="#29304d" stroke-linecap="round" stroke-linejoin="round" stroke-miterlimit="22.926" stroke-width="2" fill-rule="evenodd"/>
          <path id="Path_1579" data-name="Path 1579" d="M317.73,459.9q2-43.54,27.256-90.97-15.816,53-18.744,87.815" transform="translate(-295.752 -354.393)" fill="none" stroke="#29304d" stroke-linecap="round" stroke-linejoin="round" stroke-miterlimit="22.926" stroke-width="2" fill-rule="evenodd"/>
          <path id="Path_1580" data-name="Path 1580" d="M322.192,371.841c-13.649,16.151-24.752,46.764-30.805,83.911a22.523,22.523,0,0,0,8.841,6.032" transform="translate(-291.387 -354.876)" fill="none" stroke="#29304d" stroke-linecap="round" stroke-miterlimit="22.926" stroke-width="2" fill-rule="evenodd"/>
          <path id="Path_1581" data-name="Path 1581" d="M385.534,374.241q8.293,38.07,13.832,60.447" transform="translate(-306.988 -355.274)" fill="none" stroke="#29304d" stroke-linecap="round" stroke-linejoin="round" stroke-miterlimit="22.926" stroke-width="2" fill-rule="evenodd"/>
        </g>
      </g>
      <path id="Path_1582" data-name="Path 1582" d="M401.363,293.428c27.788-2.525,18.243,22.5-39.233,27.05l-.164,24.609c23.6-3.744,40.843-11.914,51.309-26.8" transform="translate(-60.415 -48.596)" fill="none" stroke="#29304d" stroke-linecap="round" stroke-linejoin="round" stroke-miterlimit="22.926" stroke-width="2" fill-rule="evenodd"/>
      <path id="Path_1583" data-name="Path 1583" d="M335.6,302.314c-24.347,7.694-18.942,17.545,10.938,19.969,0,0,.281,6.054,1.115,23.992-14.96-3.194-23.167-10.2-26.489-17.311" transform="translate(-53.506 -50.098)" fill="none" stroke="#29304d" stroke-linecap="round" stroke-linejoin="round" stroke-miterlimit="22.926" stroke-width="2" fill-rule="evenodd"/>
      <path id="Path_1584" data-name="Path 1584" d="M317.591,318.756q9.142,10.4,28.744,11.463" transform="translate(-53.061 -52.822)" fill="none" stroke="#29304d" stroke-miterlimit="22.926" stroke-width="0.567" fill-rule="evenodd"/>
      <path id="Path_1585" data-name="Path 1585" d="M362.111,328.533c36.087-4.2,54.158-14,56.715-25.027" transform="translate(-60.439 -50.295)" fill="none" stroke="#29304d" stroke-miterlimit="22.926" stroke-width="0.567" fill-rule="evenodd"/>
      <path id="Path_1586" data-name="Path 1586" d="M57.869,451.663c-.35-3.228-.244-9.548-3.959-15.214-.092-.063,26.991-16.58,21.27-31.506q-16.558,10.866-33.164,24.194-.594,14.809-1.459,32.954.686,7.706,5.422,8.969,2.131,12.141,8.76,11.054,2.608,7.612,10.637,8.134,5.606,15.217,18.147,3.129,15.808-19.927,15.434-20.857c4.576-4.441,17.835-17,11.159-23.673a318.83,318.83,0,0,0-35.457,33.059q13.7-18.261,17.624-21.691c11.36-5.909,20.954-14.809,21.274-18.354-6.924-4.983-21.941,2.525-37.543,14.183l-12.41,14.6" transform="translate(-7.153 -67.105)" fill="none" stroke="#29304d" stroke-linecap="round" stroke-linejoin="round" stroke-miterlimit="22.926" stroke-width="2" fill-rule="evenodd"/>
      <path id="Path_1587" data-name="Path 1587" d="M58.058,462.562l11.68-14.809C82.53,440.384,94.975,434.2,94.975,434.2l15.851-2.5c.807,3.1-2.008,6.829-6.16,10.233" transform="translate(-10.053 -71.538)" fill="none" stroke="#29304d" stroke-linecap="round" stroke-linejoin="round" stroke-miterlimit="22.926" stroke-width="2" fill-rule="evenodd"/>
      <path id="Path_1588" data-name="Path 1588" d="M79.232,517.315q-1.081,28.471-1.674,46.827c2.664,22.8,11.424,31.627,22.526,41.506,16.374,3.248,36.568-16.11,59.234-50.265" transform="translate(-13.285 -85.726)" fill="none" stroke="#29304d" stroke-linecap="round" stroke-linejoin="round" stroke-miterlimit="22.926" stroke-width="2" fill-rule="evenodd"/>
      <path id="Path_1589" data-name="Path 1589" d="M627.14,385.7Q640.374,371.27,653,363.386q6.061-25.906,12.1-35.875-12.821-2.037-17.729,13.349-5.84,14.39-5.84,14.391l-8.76,6.048" transform="translate(-104.358 -54.234)" fill="none" stroke="#29304d" stroke-linecap="round" stroke-linejoin="round" stroke-miterlimit="22.926" stroke-width="2" fill-rule="evenodd"/>
      <path id="Path_1590" data-name="Path 1590" d="M612.616,392.177q10.174-20.388,5.423-41.923a109.608,109.608,0,0,0-40.254-25.446c-2.257,6.376,3.723,13.119,9.177,14.6Q595.4,351.031,602.6,351.3a137.537,137.537,0,0,0-2.086,18.771q-7.978-17.554-18.146-24.4a58.217,58.217,0,0,0-20.231-10.846q-.919,8.884,7.926,16.269,14.812,12.1,15.851,28.573-11.414-12.537-14.391-23.568-3.7-9.883-11.889-13.349-2.9,8.193.834,17.311,10.84,18.089,12.961,28.836" transform="translate(-92.963 -53.825)" fill="none" stroke="#29304d" stroke-linecap="round" stroke-linejoin="round" stroke-miterlimit="22.926" stroke-width="2" fill-rule="evenodd"/>
      <path id="Path_1591" data-name="Path 1591" d="M580.139,415.13c5.959,4.633,12.564,1.017,13.557-3.963,5.925,3.486,12.669.739,13.349-4.484" transform="translate(-96.569 -67.393)" fill="none" stroke="#29304d" stroke-linecap="round" stroke-linejoin="round" stroke-miterlimit="22.926" stroke-width="2" fill-rule="evenodd"/>
      <path id="Path_1592" data-name="Path 1592" d="M605.375,418.059a104.17,104.17,0,0,0-29.654,22.657c24.7,47.063,27.032,84.822,16.1,131.06" transform="translate(-95.837 -69.278)" fill="none" stroke="#29304d" stroke-linecap="round" stroke-linejoin="round" stroke-miterlimit="22.926" stroke-width="2" fill-rule="evenodd"/>
      <path id="Path_1593" data-name="Path 1593" d="M538.189,506.522q12.405-6.666,3.129-64.429c-6.02-14.654-5.714-29.868,4.2-53.882,4.286-10.427-1.861-31.372-15.254-35.615,4.578-4.7,15.986-6.232,20.119,4.549" transform="translate(-88.304 -57.836)" fill="none" stroke="#29304d" stroke-linecap="round" stroke-linejoin="round" stroke-miterlimit="22.926" stroke-width="2" fill-rule="evenodd"/>
      <ellipse id="Ellipse_332" data-name="Ellipse 332" cx="4.797" cy="3.963" rx="4.797" ry="3.963" transform="translate(270.511 202.986)" fill="none" stroke="#29304d" stroke-linecap="round" stroke-miterlimit="22.926" stroke-width="2"/>
    </g>
  </g>
</svg>
