<svg xmlns="http://www.w3.org/2000/svg" viewBox="0 0 176 176">
  <g>
    <circle cx="88" cy="88" r="88" fill="#fcf32a"/>
    <path d="M76.221,160.465c-5.889-10.089,8.915-11.637,21.143-11.083,8.219.373,2.348-30.213,34.721-26.211,15.33,1.9-2.955-25.367,16.991-33.922,25.409-10.9-10.638-32.086,7.453-52.707,12.109-13.8,1.849-44.609-19.463-32.011-8.134,4.808-9.074,26.824-35.934,17.857C45.578,3.841,69.281,40.113,37.2,54.372,23.815,60.321,20.643,79.5,34.842,92.845c19.262,18.108-21.472,36.716,1.577,68.114,14.187,19.326,42.522,14.9,39.8-.494Z" transform="translate(-6.82 -0.418)" fill="#fff" fill-rule="evenodd"/>
    <path d="M80.949,115.58c-25.13-24.234-15.566-42.448-2.935-25.5C76.665,70.312,83.53,51.989,105.51,51.989c21.913,0,28.8,18.212,27.507,37.909,12.514-16.6,21.944,1-2.872,25.057-12.824,32.193-36.277,32.819-49.195.625Z" transform="translate(-17.391 -13.864)" fill="none" stroke="#29304d" stroke-linecap="round" stroke-linejoin="round" stroke-miterlimit="22.926" stroke-width="2" fill-rule="evenodd"/>
    <ellipse cx="2.966" cy="3.062" rx="2.966" ry="3.062" transform="translate(74.02 73.974)" fill="#29304d"/>
    <g transform="translate(131.568 13.004)">
      <g transform="translate(9.313)">
        <path d="M210.634,41.244a.367.367,0,1,1,.362.637Zm-12.211.674.365-.636h0l.356.2.359.183.363.169.367.155.37.142.372.129.375.117.376.1.378.09.38.077.381.064.382.051.383.039.383.026.383.014h.383l.383-.01.381-.023.381-.035.379-.047.378-.059.375-.071.373-.083.37-.1.367-.106.364-.118.361-.129.358-.142.353-.152.348-.164.344-.175.34-.186.362.637-.359.2-.364.186-.37.173-.374.161-.378.15-.383.137-.386.125-.389.112-.393.1-.4.088-.4.076-.4.063-.4.05-.4.037-.406.025-.406.012h-.407l-.407-.015-.406-.028-.407-.041-.406-.055-.406-.068-.4-.081-.4-.1-.4-.109-.4-.123-.4-.138-.392-.151-.389-.165-.386-.18-.382-.194-.378-.208h0Zm-6.312-10.993.733,0,.007.39.02.389.032.388.044.385.056.384.067.381.081.378.092.375.1.372.115.367.127.364.139.36.15.355.161.351.172.345.183.34.2.334.205.327.217.321.227.315.238.307.249.3.26.293.271.284.28.276.291.268.3.259.312.25.322.24.331.23.342.221.352.21-.365.636-.374-.223-.363-.234-.353-.245-.342-.256-.331-.265-.321-.275-.309-.285-.3-.294-.287-.3-.276-.311-.265-.318-.253-.327-.241-.334-.23-.341-.219-.348-.207-.354-.194-.36-.183-.367-.171-.372-.159-.377-.147-.381-.134-.386-.122-.391-.11-.395-.1-.4-.085-.4-.072-.4-.059-.406-.047-.409-.034-.41-.021-.413-.008-.413Zm0,0a.367.367,0,1,1,.733,0Zm1.446-4.17a.366.366,0,1,1-.691-.245Zm.312-2.425.637.364h0l-.036.063-.036.063-.034.063-.034.063-.034.063-.034.064-.034.064-.033.063-.032.064-.032.065-.032.064-.032.064-.03.064-.032.065-.03.064-.029.065-.029.065-.029.065-.029.065-.029.065-.027.065-.028.065-.027.065-.026.065-.026.065-.026.065-.026.066-.026.065-.024.065-.024.066-.024.065-.023.065-.691-.245.025-.07.026-.07.025-.069.026-.07.026-.07.027-.068.027-.069.028-.07.029-.069.029-.068.029-.069.029-.069.03-.068.031-.069.031-.068.031-.068.032-.068.032-.068.032-.067.032-.068.034-.068L193.51,25l.034-.067.034-.067.035-.067.035-.067.036-.067.036-.067.037-.067.037-.067.038-.067.037-.066h0Zm17.484-4.942-.365.636h0l-.542-.293-.551-.262-.558-.23-.565-.2-.57-.169-.574-.139-.578-.109-.58-.081-.582-.051-.582-.022-.582.006-.58.034-.577.063-.573.089-.569.118-.562.144-.556.172-.548.2-.539.224-.529.251-.518.276-.506.3-.492.326-.479.352-.463.375-.447.4-.43.424-.411.448-.392.472-.372.494-.35.517-.328.54-.637-.364.347-.571.37-.547.394-.524.415-.5.435-.474.455-.449.474-.425.491-.4.507-.372.522-.347.535-.319.549-.293.561-.265.571-.238.581-.21.59-.183.6-.153.6-.125.608-.1.612-.066.615-.037.617-.007.618.023.617.054.617.086.614.117.611.148.606.18.6.212.593.245.585.278.576.311h0Zm4.553,17.589-.636-.365h0l.3-.555.27-.564.24-.57.209-.576.179-.581.15-.585.12-.587.091-.59.062-.591.034-.59.005-.589-.023-.587-.051-.583-.078-.579-.106-.573-.132-.567-.159-.559-.185-.55-.211-.54-.238-.53-.263-.518-.288-.505-.312-.491-.337-.476-.363-.461-.386-.444-.41-.426-.434-.406-.458-.386-.48-.366-.5-.343-.526-.32.365-.636.558.34.535.364.51.389.486.411.461.432.436.452.411.472.385.489.359.506.332.522.306.536.279.55.251.562.224.573.2.584.168.593.14.6.111.607.083.613.054.618.024.621-.006.624-.036.625-.065.626-.1.625-.127.623-.158.62-.19.615-.221.61-.254.6-.285.6-.318.587h0Zm-1.471,2.078-.555-.48.048-.056.048-.056.048-.057.047-.057.047-.057.048-.058.045-.058.046-.059.046-.059.045-.059.045-.059.045-.06.045-.06.044-.06.044-.061.044-.062.043-.062.043-.062.043-.062.043-.063.042-.063.042-.063.042-.063.04-.064.041-.064.04-.065.041-.065.039-.065.04-.066.04-.066.039-.065.038-.067.636.365-.04.07-.041.071-.041.069-.042.069-.043.07-.042.068-.043.068-.043.068-.043.067-.044.067-.044.067-.045.067-.045.065-.045.066-.046.066-.045.065-.046.065-.047.065-.047.064-.047.064-.048.063-.048.063-.048.063-.048.062-.048.062-.05.062-.049.06-.05.061-.051.061-.05.06-.051.06-.051.059Zm0,0a.367.367,0,0,1-.555-.48l.555.48Z" transform="translate(-192.111 -17.733)" fill="#29304d"/>
      </g>
      <g transform="translate(5.822 2.968)">
        <path d="M216.125,36.51a.367.367,0,0,1,.488-.548Zm1.448.347-.513.524h0l-.027-.026-.027-.026-.027-.026-.027-.026-.027-.026-.028-.026-.028-.027-.029-.027-.028-.026-.027-.026-.029-.028-.029-.027-.029-.026-.029-.027-.029-.027-.029-.027-.029-.027-.029-.027-.03-.028-.029-.027-.03-.028-.031-.028-.029-.027-.03-.027-.032-.029-.03-.028-.031-.027-.032-.028-.031-.028-.031-.028-.032-.029-.032-.028.488-.548.032.029.032.029.032.029.032.029.031.029.032.029.032.029.031.027.032.029.032.029.03.027.031.029.031.029.03.027.03.029.031.028.03.029.029.027.029.028.03.029.029.027.029.027.029.029.029.028.029.027.028.027.029.027.029.028.029.027.028.027.028.027.028.027h0Zm2.165,4.126-.636-.364h0l.017-.033.013-.036.011-.039.007-.045,0-.05v-.055l-.005-.062-.01-.067-.015-.073-.022-.078L219.073,40l-.034-.089L219,39.813l-.047-.1-.054-.1-.06-.106-.066-.11-.073-.114-.078-.117-.085-.12-.091-.123-.1-.127-.1-.129-.109-.133-.115-.136-.12-.137-.126-.141-.132-.142-.137-.146-.143-.147-.148-.15-.153-.152.513-.524.158.158.154.155.149.153.143.152.138.15.133.147.128.146.122.144.117.141.111.14.1.137.1.135.095.133.088.131.082.129.076.128.071.125.065.124.059.122.052.121.045.119.04.117.032.117.025.117.018.115.009.114v.114l-.008.113-.019.111-.029.109-.041.106-.051.1h0ZM201.66,35.146l.364-.636h0l.813.461.806.447.8.433.791.418.781.4.77.387.758.371.747.354.732.338.716.321.7.3.683.285.664.268.645.249.623.23.6.21.578.191.554.17.528.15.5.129.472.108.443.087.411.065.378.043.342.021h.305l.265-.022.221-.04.176-.056.13-.066.087-.07.056-.074.636.364-.167.221-.215.175-.25.128-.276.089-.3.056-.33.027h-.357l-.384-.023-.413-.046-.44-.069-.467-.092-.494-.112-.52-.134-.544-.155-.568-.175-.592-.2-.614-.215-.634-.234-.655-.252-.674-.271-.692-.289-.709-.307-.725-.324-.739-.342-.753-.358-.766-.375-.777-.39-.788-.406-.8-.421-.805-.436-.813-.45-.818-.464h0ZM187.5,22.48l.637.364h0l-.036.087-.016.111.008.145.04.18.077.212.114.24.153.264.191.285.228.305.263.322.3.339.331.353.364.367.4.38.427.392.456.4.485.414.513.422.54.431.565.439.591.446.615.452.639.457.661.461.683.465.7.468.723.47.741.472.76.472.776.472.793.471.807.469-.364.636-.814-.472-.8-.475-.783-.475-.766-.475-.748-.476-.729-.474-.71-.472-.689-.47-.668-.466-.646-.462-.623-.458-.6-.451-.574-.445-.549-.438-.522-.43-.494-.422-.467-.412-.438-.4-.408-.392-.378-.381-.347-.37-.314-.357-.282-.345-.249-.333-.214-.32-.179-.309-.142-.3-.1-.29-.063-.285-.015-.28.042-.274.106-.256h0Zm7.49.721-.257.686-.35-.129-.343-.123-.335-.118-.329-.111-.321-.1-.314-.1-.306-.092-.3-.086-.29-.079-.281-.073-.272-.067-.263-.059-.254-.054-.245-.046-.235-.04-.224-.032-.214-.026-.2-.019-.192-.012-.181-.005h-.169l-.156.008-.144.015-.13.02-.117.026-.1.03-.087.034-.073.037-.059.038-.047.04-.036.04-.028.042-.637-.364.087-.129.1-.116.118-.1.13-.085.14-.071.148-.059.157-.047.164-.037.173-.027.181-.018.19-.01h.2l.207.006.216.013.224.021.233.028.241.035.25.043.259.048.267.056.275.062.283.07.291.076.3.082.307.088.315.095.321.1.329.107.335.114.343.12.349.125.356.132Zm0,0a.367.367,0,1,1-.257.686Z" transform="translate(-187.35 -21.78)" fill="#29304d"/>
      </g>
      <g transform="translate(0 0.733)">
        <path d="M217.073,37.122a.367.367,0,0,1,.494-.543Zm5.013,7.088-.636-.365h0l.048-.1.037-.1.027-.109.017-.118.007-.128-.005-.137-.017-.147-.03-.157-.043-.165-.055-.175-.068-.182-.082-.191-.095-.2-.108-.2-.121-.212-.134-.219-.146-.224-.159-.231-.172-.236-.183-.242-.2-.246-.207-.252-.22-.257-.23-.261-.242-.265-.254-.27-.264-.274-.276-.278-.286-.282-.3-.285-.307-.288-.318-.292.494-.543.323.3.312.294.3.291.293.287.282.285.271.281.261.278.249.274.239.27.227.267.216.262.2.258.193.254.181.25.169.246.158.241.145.237.133.233.12.228.108.224.095.221.081.216.067.212.053.208.039.205.023.2.007.2-.01.194-.028.189-.045.184-.065.177-.085.169Zm-24.168-7.046.365-.637h0l1.076.609,1.068.588,1.06.568,1.05.547,1.038.524,1.025.5,1.011.48.994.457.977.433.958.408.936.384.915.359.891.334.866.308.839.282.81.255.78.228.749.2.716.172.68.144.645.114.6.085.564.056.522.026.477,0,.429-.033.379-.061.327-.088.272-.112.218-.132.168-.15.122-.168.636.365-.216.3-.275.247-.325.2-.367.152-.408.11-.446.073-.485.037-.522,0-.561-.028-.6-.059-.634-.089-.668-.119-.7-.147-.734-.177-.766-.2-.8-.232-.824-.26-.852-.286-.878-.312-.9-.338-.925-.364-.946-.388-.967-.414-.986-.436-1-.461-1.019-.483-1.033-.507-1.046-.528-1.058-.551-1.068-.572L199,37.777l-1.083-.613h0Zm-9.088-5.892.436-.59h0l.246.181.249.181.252.182.254.182.257.183.259.183.262.183.263.183.266.183.268.183.271.183.274.184.275.183.278.184.279.184.282.183.284.184.286.184.289.183.29.183.292.183.295.183.3.183.3.183.3.183.3.182.3.182.306.182.307.182.309.181.312.18.312.18-.365.637-.315-.182-.314-.182-.311-.183-.31-.183-.308-.183-.306-.183-.3-.183-.3-.184-.3-.184-.3-.185-.3-.184-.294-.185-.293-.185-.291-.186-.288-.185-.286-.186-.285-.186-.282-.185-.28-.186-.277-.185L191.7,33.3l-.274-.185-.271-.185-.268-.185-.266-.185-.264-.184-.261-.185L189.839,32l-.256-.184-.254-.183-.252-.183-.249-.183h0ZM179.642,19.85l.636.365h0l-.062.133-.044.147-.024.162,0,.18.019.2.042.217.067.235.092.25.117.265.142.279.166.293.191.3.215.316.238.327.262.337.285.347.307.356.329.364.35.373.371.381.391.387.411.394.431.4.451.406.469.412.488.417.505.422.524.426.54.43.557.433.574.437.589.439-.436.59-.595-.444-.58-.441-.563-.439-.546-.435-.53-.432-.513-.427-.494-.423-.477-.419-.458-.413-.439-.408-.419-.4-.4-.4-.381-.389-.359-.383-.339-.376-.318-.368-.3-.362-.274-.353-.252-.345-.23-.337-.207-.329-.182-.32-.159-.313-.134-.3-.109-.3-.083-.29-.055-.283-.026-.276.005-.269.04-.261.075-.249.111-.235h0Zm13.873,1.907-.284.676-.648-.268-.638-.256-.628-.245-.616-.232-.6-.22L189.505,21l-.579-.2-.566-.183-.552-.17-.538-.157-.523-.144-.507-.131-.491-.117-.474-.1-.458-.089-.44-.076-.422-.063-.4-.048-.384-.034-.362-.021-.342-.006-.32.008-.3.022-.274.035-.25.048-.224.061-.2.073-.172.083-.147.092-.122.1-.1.109-.081.118-.636-.365.142-.209.171-.186.2-.162.221-.139.242-.117.262-.1.28-.076.3-.059.317-.04.335-.025.353-.009.371.007.389.021.406.037.424.051.441.065.457.079.474.093.489.106.5.121.519.133.535.147.549.16.562.173.575.186.588.2.6.21.612.224.623.235.635.247.645.26.656.271Zm0,0a.367.367,0,1,1-.284.676Z" transform="translate(-179.411 -18.732)" fill="#29304d"/>
      </g>
    </g>
    <path d="M44.869,68.71c-4.449,0-8.056-10.039-8.056-22.422,0,12.383-3.607,22.422-8.056,22.422,4.449,0,8.056,10.039,8.056,22.422C36.813,78.75,40.42,68.71,44.869,68.71Z" transform="translate(-7.669 -12.343)" fill="none" stroke="#29304d" stroke-linecap="round" stroke-linejoin="round" stroke-miterlimit="22.926" stroke-width="1" fill-rule="evenodd"/>
    <path d="M71.471,161.538c-3.412,0-6.179-7.7-6.179-17.2,0,9.5-2.766,17.2-6.179,17.2,3.413,0,6.179,7.7,6.179,17.2C65.292,169.239,68.059,161.538,71.471,161.538Z" transform="translate(-15.763 -38.49)" fill="#29304d" stroke="#29304d" stroke-linecap="round" stroke-linejoin="round" stroke-miterlimit="22.926" stroke-width="1" fill-rule="evenodd"/>
    <path d="M121.227,100.645q-.165,11.594,7.357,16.088c4.625,1.86.821,7.291-5.638,2.062" transform="translate(-32.326 -26.839)" fill="none" stroke="#29304d" stroke-linecap="round" stroke-miterlimit="22.926" stroke-width="2" fill-rule="evenodd"/>
    <path d="M142.529,99.153a33.3,33.3,0,0,1-10.616,4.455,32.623,32.623,0,0,0,8.306,1.155" transform="translate(-35.177 -26.441)" fill="none" stroke="#29304d" stroke-linecap="round" stroke-linejoin="round" stroke-miterlimit="22.926" stroke-width="2" fill-rule="evenodd"/>
    <path d="M123.633,139.153c5.156-1.1,7.04,1.9,1.614,3.043,3.978,1.092,2.384,4.135-1.863,2.764" transform="translate(-32.902 -37.044)" fill="none" stroke="#29304d" stroke-linecap="round" stroke-linejoin="round" stroke-miterlimit="22.926" stroke-width="2" fill-rule="evenodd"/>
    <g transform="translate(56.599 78.618)">
      <path d="M77.3,107.843a.367.367,0,1,1,.5-.541Zm8.309,14.628-.723.123-.1-.576-.111-.568-.12-.56-.128-.553-.138-.546-.146-.538-.155-.531-.164-.524-.172-.516-.18-.508-.189-.5-.2-.494-.207-.486-.216-.478-.224-.472-.232-.464-.241-.457-.25-.45-.259-.442-.267-.435-.276-.428-.285-.42-.293-.413-.3-.406-.31-.4-.32-.391-.328-.384-.337-.377-.345-.37-.354-.362-.363-.355-.371-.348.5-.541.384.359.374.366.366.374.356.381.348.389.339.4.33.4.32.411.312.419.3.426.293.434.285.441.276.449.266.456.258.463.249.471.24.478.23.485.222.494.213.5.2.507.194.515.186.522.177.529.168.537.158.544.15.551.141.559.132.566.122.573.114.58.1.587Zm0,0a.367.367,0,1,1-.723.123Z" transform="translate(-77.18 -107.206)" fill="#29304d"/>
    </g>
    <g transform="translate(112.149 77.407)">
      <path d="M153.659,123.142a.367.367,0,0,1-.724-.119Zm6.555-17.5.467.565-.222.2-.232.238-.241.276-.246.312-.252.345-.255.377-.259.406-.261.435-.263.461-.263.485-.263.508-.262.529-.26.548-.257.566-.255.581-.251.6-.247.608-.241.619-.236.628-.23.636-.223.641-.215.645-.207.648-.2.648-.188.647-.178.645-.167.639-.156.634-.143.626-.131.616-.117.6-.1.593-.724-.119.106-.606.12-.618.133-.628.147-.637.158-.645.17-.65.181-.654.191-.656.2-.657.209-.656.219-.654.225-.65.233-.644.24-.637.245-.628.251-.617.254-.6.259-.591.263-.576.265-.558.267-.54.269-.52.27-.5.271-.475.27-.45.27-.424.268-.4.268-.367.266-.336.265-.3.264-.271.263-.235Zm0,0a.367.367,0,0,1,.467.565Z" transform="translate(-152.93 -105.555)" fill="#29304d"/>
    </g>
    <path d="M132.5,35.551C121.59,18.774,100.814,23.2,99.095,34.7c-18.306-10.952-41.05,19.1-19.771,43.2,3.333-25.271,13.914-27.257,26.521-24.886A37.022,37.022,0,0,0,124.2,63.194a14.565,14.565,0,0,0,6.39,5.991,40.228,40.228,0,0,1,3.961,12.25A65.236,65.236,0,0,0,136.5,70.3q7.462-.207,17.995-7.225a22.369,22.369,0,0,1-13.869-1.833c5.829-2.893,10.564-8.254,13.125-15.942-8.466,4.459-15.459-.763-21.253-9.745Z" transform="translate(-18.863 -6.528)" fill="#29304d" fill-rule="evenodd"/>
    <path d="M89.557,144c.639,69.488,45.756,77.8,46.254-3.425" transform="translate(-23.882 -37.486)" fill="none" stroke="#29304d" stroke-linecap="round" stroke-miterlimit="22.926" stroke-width="2" fill-rule="evenodd"/>
    <path d="M113.271,87.9c-1.665-9.327-8.6-12-15.62-8.03" transform="translate(-26.04 -20.824)" fill="none" stroke="#29304d" stroke-linecap="round" stroke-miterlimit="22.926" stroke-width="2" fill-rule="evenodd"/>
    <path d="M153.784,124.64c16.651,1.252,12.148,15.726-14.359,10.912C145.361,105.088,157.48,109.852,153.784,124.64Z" transform="translate(-37.18 -30.146)" fill="#fc5b61" fill-rule="evenodd"/>
    <path d="M194.609,113.846c7.745-2.358,8.251,4.974-4.573,7.452C187.369,106.489,193.683,106.514,194.609,113.846Z" transform="translate(-50.502 -29.075)" fill="#fc5b61" fill-rule="evenodd"/>
    <circle cx="2.119" cy="2.119" r="2.119" transform="translate(118.239 109.559)" fill="#fcf32a"/>
    <circle cx="3.369" cy="3.369" r="3.369" transform="translate(124.818 130.3)" fill="#86e5c7"/>
    <circle cx="3.85" cy="3.85" r="3.85" transform="translate(159.875 55.853)" fill="#a7abde"/>
    <circle cx="1.486" cy="1.486" r="1.486" transform="translate(19.796 39.027)" fill="#a7abde"/>
    <circle cx="2.2" cy="2.2" r="2.2" transform="translate(43.143 50.825)" fill="#fcf32a"/>
    <circle cx="3.227" cy="3.227" r="3.227" transform="translate(13.87 21.176)" fill="#fcf32a"/>
  </g>
</svg>
