<svg xmlns="http://www.w3.org/2000/svg" viewBox="0 0 176 176">
  <g>
    <circle cx="88" cy="88" r="88" fill="#a7abde"/>
    <path d="M80.949,115.58c-25.13-24.234-15.566-42.448-2.935-25.5C76.665,70.312,83.53,51.989,105.51,51.989c21.913,0,28.8,18.212,27.507,37.909,12.514-16.6,21.944,1-2.872,25.057-12.824,32.193-36.277,32.819-49.195.625Z" transform="translate(-17.391 -13.864)" fill="#fc5b61" stroke="#29304d" stroke-linecap="round" stroke-linejoin="round" stroke-miterlimit="22.926" stroke-width="2" fill-rule="evenodd"/>
    <path d="M120.362,96.545c-.111,7.729,2.754,10.066,7.768,13.062,6,1.31.758,7.53-6.05,3.163" transform="translate(-32.096 -25.745)" fill="none" stroke="#29304d" stroke-linecap="round" stroke-miterlimit="22.926" stroke-width="2" fill-rule="evenodd"/>
    <path d="M142.529,99.153a33.3,33.3,0,0,1-10.616,4.455,32.623,32.623,0,0,0,8.306,1.155" transform="translate(-35.177 -26.441)" fill="none" stroke="#29304d" stroke-linecap="round" stroke-linejoin="round" stroke-miterlimit="22.926" stroke-width="2" fill-rule="evenodd"/>
    <path d="M96.745,99.153a33.29,33.29,0,0,0,10.615,4.455,32.623,32.623,0,0,1-8.306,1.155" transform="translate(-25.799 -26.441)" fill="none" stroke="#29304d" stroke-linecap="round" stroke-linejoin="round" stroke-miterlimit="22.926" stroke-width="2" fill-rule="evenodd"/>
    <g transform="translate(56.599 78.618)">
      <path d="M77.3,107.843a.367.367,0,1,1,.5-.541Zm8.309,14.628-.723.123-.1-.576-.111-.568-.12-.56-.128-.553-.138-.546-.146-.538-.155-.531-.164-.524-.172-.516-.18-.508-.189-.5-.2-.494-.207-.486-.216-.478-.224-.472-.232-.464-.241-.457-.25-.45-.259-.442-.267-.435-.276-.428-.285-.42-.293-.413-.3-.406-.31-.4-.32-.391-.328-.384-.337-.377-.345-.37-.354-.362-.363-.355-.371-.348.5-.541.384.359.374.366.366.374.356.381.348.389.339.4.33.4.32.411.312.419.3.426.293.434.285.441.276.449.266.456.258.463.249.471.24.478.23.485.222.494.213.5.2.507.194.515.186.522.177.529.168.537.158.544.15.551.141.559.132.566.122.573.114.58Zm0,0a.367.367,0,1,1-.723.123Z" transform="translate(-77.18 -107.206)" fill="#29304d"/>
    </g>
    <g transform="translate(112.149 77.407)">
      <path d="M153.659,123.142a.367.367,0,0,1-.724-.119Zm6.555-17.5.467.565-.222.2-.232.238-.241.276-.246.312-.252.345-.255.377-.259.406-.261.435-.263.461-.263.485-.263.508-.262.529-.26.548-.257.566-.255.581-.251.6-.247.608-.241.619-.236.628-.23.636-.223.641-.215.645-.207.648-.2.648-.188.647-.178.645-.167.639-.156.634-.143.626-.131.616-.117.6-.1.593-.724-.119.106-.606.12-.618.133-.628.147-.637.158-.645.17-.65.181-.654.191-.656.2-.657.209-.656.219-.654.225-.65.233-.644.24-.637.245-.628.251-.617.254-.6.259-.591.263-.576.265-.558.267-.54.269-.52.27-.5.271-.475.27-.45.27-.424.268-.4.268-.367.266-.336.265-.3.264-.271.263-.235Zm0,0a.367.367,0,1,1,.467.565Z" transform="translate(-152.93 -105.555)" fill="#29304d"/>
    </g>
    <ellipse cx="6.731" cy="9.833" rx="6.731" ry="9.833" transform="translate(83.854 94.274)" fill="none" stroke="#29304d" stroke-linecap="round" stroke-linejoin="round" stroke-miterlimit="22.926" stroke-width="2"/>
    <path d="M139.024,188.773c-4.05-28.562-8.965-62.6-15.748-77.268-2.1-4.291-3.284-3.45-3.249,1.734,2.825,45.393-4.76,69.332-12.721,70.338q-.564,0-1.134-.006c-7.767-1.14-15.44-24.116-13.744-70.333.034-5.184-1.154-6.024-3.25-1.734C82.394,126.181,76.52,160.19,72.246,188.75a.927.927,0,0,0-.04.263h0c0,3.005,14.966,5.441,33.426,5.441s33.425-2.436,33.426-5.441h0a.924.924,0,0,0-.034-.239ZM79.01,124.014C75.308,134.83,68.923,125.607,79.01,124.014Zm6.3-13.82C79.384,117.2,77.3,108.442,85.305,110.194Zm44.511,3.951C140.479,118.267,131.013,124.287,129.816,114.145Zm11.833,59.608C150.1,163.361,136.9,162.787,141.649,173.753Zm6.141.593C161.035,172.33,151.637,163.03,147.79,174.346Zm-6.022,10.04C152.006,179.3,142.026,174.177,141.768,184.386Zm-70.779-3.62C62.534,170.373,75.742,169.8,70.989,180.765Zm-.144,6.446C60.607,182.125,70.587,177,70.845,187.211Z" transform="translate(-17.663 -29.001)" fill="#5159be" fill-rule="evenodd"/>
    <path d="M135.978,83.06c-.743-26.943-17.939-34.753-24.385-25.893-1.138,1.564-4.674,1.809-5.877-.14C100.3,48.248,80.328,58.8,80.735,80.9a40.265,40.265,0,0,1-3.9-12.85l-.015.022Q74.55,52.318,78.628,43.855q1.624-.925,3.012-1.832L83.3,45.918l.813-5.642c.166-.127.328-.254.487-.381l.282,4.511,1.458-6.03q.415-.4.78-.8l.925,5.383.371-7a8.364,8.364,0,0,0,1.21-2.555q3.153,3.68,2.652,6.788c.129-.067.262-.126.391-.191q3.384-6.345,6.72-7.834c.34-.021.677-.037,1.013-.054l-1.013,6.379,2.894-6.445c.957-.022,1.9-.029,2.817-.014l-.76,7.49,2.7-7.428q1.793.083,3.484.265l.552,7.232,1.093-7.027q1.378.195,2.683.461l1.311,7.047.095-6.737q21.479,5.154,22.276,30.581l-.015-.018a58.916,58.916,0,0,1-2.543,19.16h0Z" transform="translate(-20.269 -8.54)" fill="#29304d" fill-rule="evenodd"/>
    <g transform="translate(66.579 4.928)">
      <ellipse cx="6.462" cy="6.737" rx="6.462" ry="6.737" fill="#29304d"/>
      <ellipse cx="6.462" cy="6.737" rx="6.462" ry="6.737" transform="translate(29.919)" fill="#29304d"/>
    </g>
    <path d="M115.173,143.111q4.254-4.318,6.059-.3,2.51-4.642,6.25-1.384a14.074,14.074,0,0,0,.329-3.044c0-5.43-3.014-9.833-6.732-9.833s-6.731,4.4-6.731,9.833a13.492,13.492,0,0,0,.826,4.723Z" transform="translate(-30.493 -34.281)" fill="#29304d" fill-rule="evenodd"/>
  </g>
</svg>
