<svg xmlns="http://www.w3.org/2000/svg" shape-rendering="geometricPrecision" image-rendering="optimizeQuality"
     fill-rule="evenodd" clip-rule="evenodd" viewBox="0 0 500 500">
    <g fill="none" stroke="#29304d" stroke-linejoin="round" stroke-linecap="round" stroke-width="2"
       stroke-miterlimit="22.926">
        <path d="m160.55 202.09c-51.4-4.278-36.509 30.902 20.531 34.36"/>
        <path d="m153.85 219.54c15.971-2.064 28.602 4.11 37.892 18.52"/>
    </g>
    <path fill="#29304d"
          d="m129.08 212.38c1.076-8.388 11.566-11.82 31.47-10.298 9.908 4.04 20.965 6.25 33.17 6.618l-.266-2.036-7.04-2.744 6.614-.49-.289-2.208-7.151-1.502 6.938-.125-.106-.812c-43.36-27.837-51.31-65.04-15.43-80.06 19.266 4.535 37.519.217 54.757-12.956-7.445 1.287-14.417 1.502-20.917.648 16.24-10.586 23.23-32.638 8.234-51.696-11.1 25.23-54.94 7.975-87.15 11.575-25.22 2.819-61.32 34.927-32.977 77.24-17.964 13.197-28.376 30.703-31.24 52.52 4.263-4.36 8.093-8.516 11.491-12.47-2.885 33.84 31.06 59.767 66.958 59.22 5.983 1.207 10.226 3.059 17.07 7.283.34-.744.651-1.476.935-2.196l-5.937-6.468 7.06 3.172c.213-.744.393-1.473.539-2.189l-5.576-5.258 5.991 2.391c.14-1.716.065-3.34-.223-4.874-23.05-4.99-35.36-12.417-36.931-22.282m-30.14-68.851c24.741-12.26 15.343 17.771 0 0"/>
    <circle fill="#fcf32a" cx="406.15" cy="280.52" r="17.2"/>
    <path fill="none" stroke="#29304d" stroke-width="2" stroke-linecap="round" stroke-linejoin="round"
          stroke-miterlimit="22.926" d="m216.81 166.46c-2.991 6.733-9.957 10.523-20.897 11.373"/>
    <path fill="#29304d"
          d="m196.64 159.19c-6.209 1.228-10.962 4.115-14.26 8.664-2.84-7.05 3.239-12.752 6.987-17.12 5.984-1.397 11.697-2.292 21.358-9.717 2.906-1.125 5.316 5.705 4.603 10.176-3.322 5.721-9.563 7.329-18.688 7.992"/>
    <g stroke="#29304d" stroke-linejoin="round" stroke-linecap="round" stroke-miterlimit="22.926">
        <g fill="none" stroke-width="2">
            <path d="m249.3 391.71c18.841 21.1 40.72 39.641 69.61 47.08 73.998 19.05 64.63-123.29 3.635-182.96-15.15-14.824-24.09-36.541-24.911-54.777 9.03-2.207 16.93 1.32 19.465 12.694 1.86 8.552 3.508 15.593 6.426 19.839 10.935 15.91 39.39-6.923 22.819-29.2-5.269-7.084-19.803-9.256-42.36-5.591-11.339 3.061-16.605.664-18.76-4.514 40.926-20 70.45-18.213 82.37 10.72"/>
            <path d="m374.79 193.72c-15.976-47.86-23.404-80.58-22.286-98.17-11.172 3.835-14.06 15.76-8.653 35.775-1.937 17.424 1.516 40.572 7.428 54.25"/>
            <path d="m386.92 193.16c2.638-37.636 6.305-64.15 11-79.55"/>
            <path d="m439.25 445.28c2.348-51.853-5.478-96.54-23.476-134.07-19.78-46.22-36.22-64.03-20.955-111.84 14.14-31.08 21.383-49.42 21.721-55.01-9.923-1.46-19.577 11.85-28.963 39.927"/>
            <path d="m397.92 113.61c-10.832-.637-16.16 7.371-15.971 24.02-5.874 12.654-9.299 28.19-10.276 46.622"/>
            <path d="m262.58 165.53c-12.712-22.09-29.807-42.547-48.876-54.18m57.47 69.58c1.036 2.463 2.897 7.63 3.955 10.43m7.35 22.406c2.559 11.07 3.978 23.3 2.788 31.19-9.05 7.916-21.04 12.715-35.983 14.399-4.338 26.66-15.843 52.42-34.514 77.29"/>
        </g>
        <path fill="#29304d"
              d="m292.46 414.05c-8.755 0-15.854-19.756-15.854-44.13 0 24.371-7.098 44.13-15.853 44.13 8.755 0 15.853 19.756 15.853 44.13 0-24.37 7.099-44.13 15.854-44.13z"/>
    </g>
    <g fill="#fc5b61">
        <path d="m305.23 162.46c22.288-4.661 21.867 16.01-14.681 19.729-3.752-42.16 13.927-40.501 14.681-19.729"/>
        <path d="m309.76 130.72c10.561-3.214 11.252 6.783-6.236 10.163-3.635-20.19 4.973-20.16 6.236-10.163"/>
    </g>
    <circle fill="#86e5c7" cx="108.35" cy="260.32" r="10.2"/>
    <g stroke="#29304d" stroke-linejoin="round" stroke-linecap="round" stroke-width="2" stroke-miterlimit="22.926">
        <g fill="none">
            <path d="m243.39 130.65c-7.652-3.146-14.312-1.262-17.355 3.813-8.658 14.441 10.721 48.13 48.749 26.12 5.972-3.457 9.942 12.422-8.943 24.09 2.346 6.1 10.292 9.355 15.955 5.685 1.967 3.382 1.967 8.929-1.781 11.297 4.628.145 8.941 2.583 10.125 6.187-6.403 2.995-9.888 7.449-10.453 13.361"/>
            <path d="m235.09 151.97c8.329-.425 12.579-2.988 12.75-7.688"/>
        </g>
        <path fill="#29304d"
              d="m200.42 254.42c8.653 17.484 20.311 33.675 34.972 48.571 6.843-14.268 11.47-28.814 13.882-43.637-13.97 1.437-30.25-.208-48.854-4.934z"/>
        <path fill="none"
              d="m135.23 486.42c61.54-21.517 99.29-57.767 116.25-100.5-47.09-70.3-88.72-105.26-124.87-104.87-35.17.38-61.51 33.587-66.26 66.3"/>
    </g>
</svg>