<svg xmlns="http://www.w3.org/2000/svg" width="731.973" height="733.06" viewBox="0 0 731.973 733.06">
  <g transform="translate(0 1.06)">
    <g transform="translate(0 -0.596)">
      <rect width="731.973" height="731.973" transform="translate(0 0.623)" fill="none"/>
      <path d="M213.806,418.53c-38.76-24.2-93.343-77.763-57.683-111.406,18.443-16.33,25.406-31.779.479-43.946-36.145-17.868-39.187-56.69-24.013-64.117,15.911-8.221,18.993-17.787,3.842-31.218C88.1,123.261,87.3,82.188,131.148,56.011,189.335,8.59,492.126-65.466,500.663,111.04c2.751,56.87-80.641,58.549-42.715,102.514,42.676,45.118-31.14,80.112-79.306,95.028-16.94,5.085-61.849,17.632-47.312,41.6,18.344,34.254-26.836,31.857-15.271,50.827,3.1,5.085-3.644,13.943-8.385,17.3,0-18.77-14.092-43.6-47.073-43.6-20.4,0-46.8,15.277-46.8,43.809Z" transform="translate(4.53 0.596)" fill="#fff" fill-rule="evenodd"/>
      <path d="M357.367,232.687c7.922,14.895,13.825,26.652,18.683,38.145m6.936,18.2a122.328,122.328,0,0,1,3.976,15.544m-5.279,28.908c-20.724,33.667-71.374,21.957-66.827-22.367,3.642-6.1,5-18.621,3.476-30.4" transform="translate(14.368 11.251)" fill="none" stroke="#29304d" stroke-linecap="round" stroke-linejoin="round" stroke-miterlimit="22.926" stroke-width="2" fill-rule="evenodd"/>
      <path d="M294.8,263.339c14.447,16.152,30.737,23.428,47.174,16.958,7.454-2.934,11.657-8.705,13.416-16.1m-86.159-43.878c2.464,8,8.6,19.553,12.378,25.444a95.021,95.021,0,0,0,5.558,8.126" transform="translate(12.297 10.686)" fill="none" stroke="#29304d" stroke-miterlimit="22.926" stroke-width="2" fill-rule="evenodd"/>
      <ellipse cx="3.722" cy="6.724" rx="3.722" ry="6.724" transform="matrix(-0.788, 0.616, -0.616, -0.788, 313.773, 236.227)" fill="#29304d"/>
      <ellipse cx="3.722" cy="6.724" rx="3.722" ry="6.724" transform="matrix(-0.788, 0.616, -0.616, -0.788, 293.969, 247.159)" fill="#29304d"/>
      <path d="M270.948,226.849a59.624,59.624,0,0,1-2.431-12.169q-.441-10.046,3.878-7.2Q283.5,218.538,286.8,198q20.439-30.944,54.992,25.814,9.706-12.6,5.893-29.828c7.671-11.659,23.983,8.071,6.521,45.01A85.945,85.945,0,0,1,357.3,254.12h0c19.831-38.544,12.338-80.3-22.031-110.1-13.848-12.006-28.21-23.7-17.839-39.561-16.026,3.214-17.134,19.343-10.186,28.87-27.495-18-24.275-40.476-6.753-53.244C273.351,69.286,250.537,99.7,251.745,127.4c2.368,14.534,10.973,14.653,12.487,13.207,3.707-2.409-6.421-11.053-14.252-7.005-30.907,15.977-21.248,92.882,20.967,93.248Z" transform="translate(10.59 4.179)" fill="#29304d" fill-rule="evenodd"/>
      <path d="M283.974,228.546c4,9,6.11,21.222.229,29.846-8.713,12.776,5.891,18.518,10.182,4.176,2.388-6.78,4.346-16.2,3.126-23.3" transform="translate(12.857 11.062)" fill="none" stroke="#29304d" stroke-linecap="round" stroke-miterlimit="22.926" stroke-width="2" fill-rule="evenodd"/>
      <g transform="translate(357.895 212.342)">
        <path d="M343.642,232.474a.523.523,0,1,1-1.039.114Zm4.3-29.717.932.474-.424.854-.408.858-.391.862-.374.866-.358.869-.34.873-.324.877-.306.88-.29.886-.273.888-.256.892-.239.9-.223.9-.2.9-.188.908-.173.912-.155.915-.138.919-.121.923-.1.927-.088.931-.07.935-.054.939-.037.943-.021.947,0,.951.014.955.031.959.047.962.064.967.082.97.1.975-1.039.114-.1-.992-.083-.988-.066-.985-.048-.981-.031-.977-.014-.974,0-.969.021-.965.038-.962.055-.958.072-.954.089-.951.107-.946.124-.942.141-.939.158-.934.176-.931.192-.926.209-.923.228-.919.244-.915.261-.911.279-.907.3-.9.313-.9.33-.9.347-.891.364-.888.382-.883.4-.879.416-.874.433-.871Zm0,0a.523.523,0,1,1,.932.474Z" transform="translate(-342.262 -202.471)" fill="#29304d"/>
      </g>
      <path d="M274.555,318.09A315.426,315.426,0,0,1,321.791,300.9m67.88-5.925q3.267.342,6.506.813m25.712,5.766c113.064,34.414,192.143,179.032,183.318,252.5-9.327,60.022-96.336,43.132-252.864-89.091a117.667,117.667,0,0,0-48.267-54.031c-1.7,8.828-.219,13.99,8.53,21.732,11.593,9.093,15.2,20.339,3.842,17.29-32.02-11.765-68.041-12.886-90.531,3.842q6.643,4.8,24.263-1.983,12.33,2.506,22.805,3.782l-25.446,2.462q-21.307,6.538-25.094,11.406,13.828,2.878,24.614-3.6,16.2,2.917,26.886.781.031,1.714-.172,1.56l-25.754,4.5-20.532,9.126q12.112,4.914,24.974-2.282,14.6,1.217,22.453-1.08c-13.728,4.5-30.656,12.66-37.82,18.25,6.938,1.964,20.586-2.639,27.976-7.564,14.063-.625,54.406,13.582,66.277,9.005q15.55-1.27,56.133,37.415" transform="translate(10.16 14.096)" fill="none" stroke="#29304d" stroke-linecap="round" stroke-linejoin="round" stroke-miterlimit="22.926" stroke-width="2" fill-rule="evenodd"/>
      <path d="M436.354,452.183q9.107-110.786,69.023,19.3c9.089,22.6,2.658,32.436-11.368,30.223" transform="translate(19.931 18.949)" fill="none" stroke="#29304d" stroke-linecap="round" stroke-linejoin="round" stroke-miterlimit="22.926" stroke-width="2" fill-rule="evenodd"/>
      <path d="M300.933,439.585l1.734-25.541c-4.839,3.431-24.087,5.993-47.094,5.993-22.509,0-41.419-2.453-46.759-5.771l9.111,124.969c0,3.05,16.5,10.567,36.849,10.567s37.24-7.245,37.24-10.3l5.015-50.381" transform="translate(9.538 19.535)" fill="none" stroke="#29304d" stroke-linecap="round" stroke-linejoin="round" stroke-miterlimit="22.926" stroke-width="2" fill-rule="evenodd"/>
      <g transform="translate(217.813 425.091)">
        <path d="M209.345,413.329a.523.523,0,1,1-1.046,0Zm25.911-6.575.073,1.044-1.49.108-1.456.114-1.42.12-1.383.127-1.347.132-1.308.137-1.269.143-1.23.148-1.189.154-1.147.159-1.1.164-1.061.169-1.016.174-.972.18-.925.184-.878.188-.83.193-.782.2-.731.2-.68.2-.627.209-.574.211-.519.213-.461.216-.4.215-.344.214-.283.209-.22.2-.159.188-.1.169-.053.15-.017.137H208.3l.044-.376.127-.359.2-.33.255-.3.31-.283.36-.268.409-.255.459-.246.509-.237.558-.23.609-.224.657-.219.706-.213.755-.207.8-.2.849-.2.9-.192.94-.187.985-.181,1.03-.177,1.073-.17,1.115-.166,1.158-.16,1.2-.156,1.238-.148,1.278-.144,1.315-.138,1.354-.133,1.391-.126,1.426-.12,1.461-.115,1.5-.109Zm0,0a.523.523,0,1,1,.073,1.044l-.073-1.044Zm4.971.463a.523.523,0,0,1-.048-1.045Zm15.522-1.283.015,1.046h0l-.421.006-.437.005-.451,0-.463.005-.475,0-.486,0-.495,0-.5,0-.511,0-.518,0-.523,0-.526,0-.53.005-.531,0-.533.005-.532.005-.531.005-.528.006-.526.006-.521.007-.514.007-.509.008-.5.008-.491.009-.482.01-.47.01-.459.011-.444.013-.431.014-.415.015-.4.015-.381.017-.048-1.045.386-.017.4-.016.418-.015.434-.014.448-.011.461-.013.473-.01.484-.01.494-.009.5-.008.509-.008.517-.007.523-.007.526-.006.529-.006.532-.005.533-.005.532-.005.532,0,.53-.005.527,0,.523,0,.518,0,.511,0,.5,0,.5,0,.484,0,.475,0,.463-.005.45,0,.435-.005.42-.006h0Zm13.1.307-.029,1.046-.353-.01-.362-.01-.371-.012-.379-.013-.385-.013-.392-.014-.4-.015-.4-.014-.409-.015-.413-.015-.417-.015-.421-.014-.423-.015-.427-.015-.429-.014-.43-.014-.431-.013-.431-.014-.431-.012-.431-.01-.43-.01-.428-.009L259.4,407l-.422-.007-.419-.006-.415-.005-.411,0-.407,0h-.8l-.389,0-.382,0-.015-1.046.387,0,.393,0h.805l.41,0,.414,0,.419.005.421.006.426.007.428.008.43.009.432.01.432.011.433.011.433.013.432.014.431.013.43.015.428.014.425.015.42.015.418.015.413.015.409.014.4.015.4.014.39.014.385.013.377.013.369.012.362.011.351.009Zm0,0a.523.523,0,1,1-.029,1.046Zm4.595,1.049a.523.523,0,0,1,.054-1.045Zm29.765,6.068-1.045-.059h0l-.01-.152-.052-.164L302,412.8l-.171-.21-.242-.227-.312-.235-.381-.242-.448-.243-.513-.244-.576-.242-.638-.239-.7-.236-.757-.231-.812-.228-.869-.223-.923-.216-.977-.211-1.028-.206-1.08-.2-1.128-.192-1.177-.185-1.224-.178-1.271-.17-1.315-.162-1.359-.155-1.4-.146-1.443-.137-1.485-.129-1.524-.119-1.562-.11-1.6-.1-1.637-.09.054-1.045,1.644.091,1.606.1,1.571.111,1.532.119,1.493.13,1.454.138,1.411.147,1.37.155,1.326.164,1.282.173,1.236.179,1.19.187,1.142.195,1.094.2,1.044.209.994.214.942.222.89.228.837.234.783.239.728.247.672.252.617.258.56.266.5.274.448.283.389.3.331.311.271.334.2.361.122.389.027.406h0Zm-1.908,2.236-.5-.921.091-.05.089-.05.085-.05.082-.049.078-.05.075-.05.07-.048.069-.049.064-.048.062-.049.059-.048.054-.047.051-.047.048-.046.044-.045.043-.046.038-.043.036-.043.032-.044.03-.042.026-.041.024-.039.02-.038.019-.039.017-.037.014-.036.011-.036.009-.032.007-.033.007-.034,0-.031,0-.032,1.045.059-.007.085-.011.085-.015.082-.019.084-.024.083-.027.079-.03.081-.034.078-.039.076-.042.077-.045.075-.048.073-.051.072-.053.071-.058.07-.061.069-.063.068-.066.067-.069.067-.071.065-.074.064-.076.064-.081.063-.083.062-.086.062-.088.062-.091.06-.093.06-.1.06-.1.059-.1.057-.1.059Zm0,0a.523.523,0,0,1-.5-.921Z" transform="translate(-208.299 -405.927)" fill="#29304d"/>
      </g>
      <path d="M269.347,269.2l-4.56.121.449,16.853H243.578l.449-16.853-4.56-.121-1.588,59.639Q233.5,305.762,213.2,298.084q4.611,31.893,24.586,34.142l-2.424,91.005,4.559.121.64-24.025h27.688l.64,24.025,4.559-.121-1.483-55.687q22.092-.613,21.594-36.933-19.153,7.21-21.968,22.931ZM228.654,302.94q6.512-11.621-8.536-26.64Q216.278,291.665,228.654,302.94Zm38.535,56.589H241.624l.436-16.374h24.694Zm-25.628,2.35h25.691l.437,16.375H241.124Zm-.935,35.1.436-16.374h26.689l.436,16.374H240.626Zm1.5-56.173.386-14.487h23.8l.386,14.487H242.122Zm.449-16.836.44-16.548H265.8l.441,16.548Zm.5-18.9.44-16.548H265.3l.44,16.548Z" transform="translate(9.738 12.919)" fill="none" stroke="#29304d" stroke-linecap="round" stroke-linejoin="round" stroke-miterlimit="22.926" stroke-width="2" fill-rule="evenodd"/>
      <path d="M270.346,226.785a10.531,10.531,0,0,1,2.514-9.029l-5.68-2.733c-3.235,3.9-2.063,10.138-.659,11.261l3.825.5Z" transform="translate(12.109 10.444)" fill="#29304d" fill-rule="evenodd"/>
      <path d="M300.391,211.355c-7.665-2.965-13.149-3.481-17.826-.823l-1.159-6.084c6.772-3.248,13.663-1.374,19.472,3.932Q300.392,211.355,300.391,211.355Z" transform="translate(12.853 9.888)" fill="#29304d" fill-rule="evenodd"/>
      <path d="M391.4,493.1c20.988-6.6-12.577,52.027-15.722,28.935" transform="translate(17.159 23.122)" fill="none" stroke="#29304d" stroke-linecap="round" stroke-linejoin="round" stroke-miterlimit="22.926" stroke-width="2" fill-rule="evenodd"/>
      <path d="M376.266,523.149c-13.142,95.974,87.109,129.8,196.056,81.774" transform="translate(17.133 24.518)" fill="none" stroke="#29304d" stroke-linecap="round" stroke-linejoin="round" stroke-miterlimit="22.926" stroke-width="2" fill-rule="evenodd"/>
      <path d="M380.279,525.115c-3.274,73.032,34.514,57.77,3.14-1.12" transform="translate(17.36 24.557)" fill="none" stroke="#29304d" stroke-linecap="round" stroke-linejoin="round" stroke-miterlimit="22.926" stroke-width="2" fill-rule="evenodd"/>
      <path d="M387.9,518.574c23.628,54.127,45.6,29.606,1.878-1.931" transform="translate(17.718 24.221)" fill="none" stroke="#29304d" stroke-linecap="round" stroke-linejoin="round" stroke-miterlimit="22.926" stroke-width="2" fill-rule="evenodd"/>
      <path d="M394.392,507.869c33.38,38.946,45.393,13,1.07-2.081" transform="translate(18.014 23.725)" fill="none" stroke="#29304d" stroke-linecap="round" stroke-linejoin="round" stroke-miterlimit="22.926" stroke-width="2" fill-rule="evenodd"/>
      <path d="M305.331,264.752c9.865,5.358,26.16-.552,18.423-24.986" transform="translate(13.946 11.574)" fill="none" stroke="#29304d" stroke-linecap="round" stroke-miterlimit="22.926" stroke-width="2" fill-rule="evenodd"/>
      <g transform="translate(102.423 209.004)">
        <path d="M132.834,221.683a.523.523,0,1,1,1.023.219Zm-10.857,13.645-.331-.991h0l.547-.193.535-.209.524-.227.513-.243.5-.258.489-.274.479-.289.466-.3.455-.317.442-.333.43-.344.416-.359.4-.37.391-.383.379-.4.364-.407.351-.417.338-.429.323-.439.308-.449.295-.458.28-.467.266-.476.25-.485.235-.491.22-.5.2-.507.188-.513.173-.521.157-.526.14-.532.123-.537,1.023.219-.131.569-.148.564-.166.558-.182.551-.2.545-.216.537-.232.53-.25.522-.265.514-.281.505-.3.5-.313.485-.328.477-.343.465-.358.455-.372.443-.388.431-.4.42-.416.406-.43.394-.442.381-.457.367-.471.352-.483.338-.5.322-.508.306-.521.292-.533.275-.546.257-.556.24-.569.224-.58.2h0Zm-17.693-3.7.693-.783.422.363.433.348.443.333.452.319.462.3.471.289.479.273.486.258.495.242.5.227.508.21.514.193.52.177.527.161.53.143.535.127.541.109.544.092.547.073.551.055.553.038.555.02h.557l.559-.018.56-.037.562-.056.56-.075.562-.1.56-.115.56-.135.559-.156.557-.176.331.991-.592.187-.594.164-.595.144-.6.122-.6.1-.6.079-.6.06-.6.04-.594.019h-.592l-.591-.021-.588-.04-.585-.06-.582-.077-.577-.1-.573-.116-.569-.134-.564-.153-.558-.17-.552-.188-.546-.2-.539-.223-.531-.24-.524-.256-.517-.274-.507-.29-.5-.305-.489-.322-.479-.338-.47-.353-.459-.369-.448-.384Zm0,0a.523.523,0,0,1,.693-.783l-.693.783Zm-3.07-5.493a.523.523,0,0,1-.917.5ZM98.926,223.5l.991-.33h0l.033.1.033.1.035.1.033.1.036.1.036.1.036.1.037.1.038.1.037.094.039.1.039.094.039.094.039.093.04.093.041.093.041.093.042.092.041.091.043.092.043.091.043.091.044.091.044.089.045.09.045.09.045.09.046.088.046.088.047.088.047.089.048.087-.917.5-.05-.093-.05-.092-.049-.093-.049-.094-.049-.094L100,226.08l-.047-.094-.047-.1-.047-.1-.046-.1-.046-.1-.045-.1-.044-.1-.045-.1-.044-.1-.043-.1-.042-.1-.043-.1-.042-.1-.042-.1-.04-.1-.041-.1-.04-.1-.039-.1-.039-.1-.038-.1-.038-.1-.038-.1-.037-.1-.036-.1-.036-.1-.035-.1h0ZM110.237,200.2l.331.992h0l-.826.3-.8.339-.774.376-.748.411-.722.447-.693.48-.665.511-.635.542-.606.571-.575.6-.545.625-.513.65-.48.673-.448.7-.413.716-.38.737-.344.755-.308.772-.271.786-.235.8-.2.814-.158.825-.119.834-.079.842-.038.85L99,218l.045.86.087.863.131.865.174.865.22.863.264.862-.991.33-.279-.91-.232-.914-.184-.915-.138-.915L98,218.936l-.046-.91,0-.907.042-.9.084-.893.125-.884.168-.874.208-.862.249-.849.288-.833.326-.818.365-.8.4-.781.438-.76.475-.739.509-.714.545-.691.578-.663.612-.637.643-.605.675-.576.707-.544.736-.51.766-.474.795-.438.823-.4.85-.36.877-.319h0Zm23.051,11.824-.992.331h0l-.306-.847-.344-.821-.38-.8-.416-.77-.449-.741-.482-.714-.512-.685-.542-.656-.57-.625-.6-.6-.622-.564-.646-.531-.669-.5-.69-.465-.71-.432-.729-.4-.746-.361-.761-.324-.777-.288-.788-.25-.8-.211-.811-.171-.82-.133-.827-.092-.833-.051-.839-.008-.843.033-.844.076-.846.12-.844.166-.844.21-.84.257-.331-.992.892-.273.9-.224.9-.176.9-.128.9-.082.9-.036.891.009.887.053.878.1.871.141.861.182.85.225.838.265.823.305.808.344.791.383.773.419.752.457.732.494.709.529.685.563.659.6.633.631.6.663.574.694.543.727.509.756.476.785.44.814.4.843.364.869.324.9h0Zm.819,3.536-1.037.137-.015-.1-.015-.1-.015-.1-.017-.1-.017-.1-.017-.106-.018-.1-.019-.1-.02-.1-.02-.106-.02-.1-.021-.1-.022-.1-.023-.1-.023-.106-.024-.1-.024-.1-.025-.1-.026-.106-.026-.1-.027-.1-.027-.1-.029-.1-.028-.1-.03-.1-.03-.106-.031-.1-.031-.1-.032-.1-.032-.1-.035-.106-.035-.1.992-.331.037.111.035.109.036.11.035.111.033.111.032.11.032.11.031.111.031.111.029.11.029.11.029.112.027.11.028.111.026.111.026.111.025.11.024.111.024.111.023.111.022.111.022.111.021.11.021.111.02.111.019.112.018.11.018.111.017.11.017.112.016.111.016.11Zm0,0a.523.523,0,1,1-1.037.137Z" transform="translate(-97.949 -199.279)" fill="#29304d"/>
      </g>
      <g transform="translate(95.365 217.418)">
        <path d="M133.362,208.6a.523.523,0,1,1-.121-1.038Zm1.742-1.213.071,1.044h0l-.052,0-.055,0-.053,0-.054,0-.053,0-.055.005-.054,0-.054.005-.056,0-.055.005-.054,0-.055.005-.056.005-.056,0-.056.005-.057.005-.055.005-.057.006-.057.005-.058.005-.057.006-.059.006-.058.005-.056.006-.06.006-.059.006-.06.006-.059.006-.059.007-.06.006-.06.007-.06.006-.121-1.038.061-.007.062-.006.06-.007.062-.006.061-.007.061-.006.059-.006.06-.006.061-.007.061-.005.059-.006.06-.006.059-.005.058-.006.06-.005.059-.005.057-.005.059-.006.057,0,.056-.005.059-.005.057-.005.058,0,.055-.005.057,0,.056-.005.054,0,.058,0,.055,0,.056,0,.054,0,.055,0h0Zm6.448,1.605-.992.331h0l-.019-.049-.025-.048-.032-.049-.04-.05-.049-.05-.06-.052-.071-.053-.082-.053-.093-.052-.106-.051-.116-.05-.127-.048-.139-.045-.15-.043-.159-.04-.17-.038-.18-.033-.19-.03-.2-.028-.208-.023-.219-.02-.227-.018-.235-.013-.245-.009-.252-.006-.261,0h-.27l-.276.005-.285.008-.293.013-.3.016-.307.02-.071-1.044.318-.02.312-.017.3-.013.3-.009.291-.005h.283l.275,0,.269.006.261.01.253.015.247.018.238.022.231.026.224.03.214.035.209.04.2.044.193.048.185.053.178.059.17.064.163.07.155.076.147.083.14.091.131.1.122.108.112.116.1.127.088.135.075.143.06.152h0Zm-23.358,13.722-.33-.991h0l1.26-.429,1.24-.435,1.218-.441,1.194-.445,1.169-.451,1.143-.454,1.115-.456,1.084-.458,1.053-.459,1.022-.459.987-.458.952-.457.915-.454.876-.452.835-.447.795-.441.751-.435.707-.429.661-.42.612-.411.563-.4.512-.389.458-.376.4-.363.347-.345.288-.326.228-.3.166-.275.107-.241.052-.2.008-.16-.025-.13.992-.331.076.388-.018.394-.1.387-.168.38-.227.376-.283.377-.337.382-.39.388-.44.4-.491.4-.54.412-.588.419-.635.427-.682.433-.725.439-.769.445-.81.45-.85.455-.89.458-.928.46-.964.463-1,.463-1.033.464-1.064.464-1.1.462-1.124.461-1.152.458-1.18.454-1.2.45-1.228.445-1.25.437-1.272.432h0Zm-26.915,3.077.992-.331h0l.058.119.1.122.162.129.231.129.3.119.364.106.427.087.484.068.541.046.593.025.642,0,.691-.018.736-.04.781-.062.822-.082.862-.1.9-.124.936-.146.971-.166,1-.187,1.035-.206,1.063-.228,1.093-.247,1.118-.267,1.142-.287,1.165-.305,1.186-.324,1.2-.343,1.223-.361,1.238-.381,1.252-.4,1.266-.415.33.991-1.275.419-1.262.4-1.249.383-1.233.365-1.215.346-1.2.326-1.175.308-1.154.289-1.129.27-1.1.25-1.077.23-1.048.209-1.018.19-.986.168-.954.148-.918.128-.882.106-.844.086-.8.063-.764.041-.722.019-.679,0-.635-.028-.59-.051-.544-.075-.5-.1-.454-.132-.408-.163-.362-.2-.313-.249-.251-.3-.173-.357h0Zm7.869-7.295.487.925-.47.25-.456.248-.443.247-.431.245-.416.243-.4.241-.388.238-.374.236-.359.232-.344.23-.328.227-.314.224-.3.221-.281.217-.265.212-.247.208-.231.2-.212.2-.2.193-.177.187-.159.181-.139.175-.12.166-.1.158-.083.148-.064.137-.046.125-.029.113-.015.1,0,.087.008.076.018.07-.992.331-.055-.215-.024-.22.005-.221.032-.219.056-.216.078-.214.1-.211.117-.21.135-.21.153-.21.169-.211.186-.213.2-.214.217-.216.235-.22.251-.222.267-.224.281-.227.3-.229.313-.231.327-.234.342-.236.357-.238.371-.241.385-.243.4-.245.413-.247.426-.249.439-.25.453-.251.464-.253.478-.254Zm0,0a.523.523,0,0,1,.487.925l-.487-.925Z" transform="translate(-91.199 -207.325)" fill="#29304d"/>
      </g>
      <g transform="translate(87.943 215.465)">
        <path d="M138.107,206.775a.523.523,0,0,1-.11-1.04l.11,1.04Zm12.3,1.379-.991.33h0l-.056-.14-.073-.137-.09-.132-.11-.13-.13-.128-.152-.124-.173-.121-.195-.117-.216-.112-.238-.107-.259-.1-.28-.093-.3-.087-.321-.079-.34-.073-.36-.064-.379-.057-.4-.049-.413-.041-.432-.035-.449-.025-.465-.018-.481-.009-.5,0-.512.006-.528.014-.543.022-.556.03-.571.038-.586.046-.6.053-.612.062-.11-1.04.622-.063.611-.054.6-.046.583-.039.57-.031.556-.022.543-.015.529-.006.513,0,.5.009.485.019.468.027.453.034.438.044.422.052.407.062.39.07.373.079.357.089.341.1.324.108.307.119.29.129.273.141.254.154.236.165.217.18.2.193.176.209.153.224.127.237.1.25h0Zm-30.417,19.063-.331-.991h0l1.669-.569,1.64-.58,1.609-.59,1.577-.6,1.543-.608,1.507-.616,1.469-.621,1.429-.627,1.387-.629,1.344-.633,1.3-.634,1.251-.634,1.2-.633,1.148-.629,1.1-.626,1.04-.622.982-.615.923-.608.862-.6.8-.589.732-.577.664-.564.6-.549.522-.531.449-.511.371-.488.294-.462.216-.432.139-.4.066-.358v-.319l-.063-.292.991-.33.111.51,0,.527-.1.533-.187.534-.27.539-.345.544-.42.552-.491.562-.56.57-.63.58-.7.59-.759.6-.823.608-.885.615-.944.621-1,.628-1.057.632-1.113.636-1.165.639-1.215.641-1.264.64-1.312.641-1.356.639-1.4.636-1.441.632-1.482.626-1.518.621-1.556.613-1.588.6-1.621.6-1.652.585-1.679.572h0ZM105.1,231.311l-.215-1.023h0l.426-.091.43-.093.431-.1.435-.1.438-.1.439-.1.442-.106.445-.107.448-.11.45-.112.452-.115.455-.117.457-.118.459-.121.461-.124.462-.125.465-.129.467-.131.468-.133.471-.136.473-.137.475-.14.476-.142.478-.144.479-.146.481-.148.482-.152.484-.154.484-.156.486-.158.488-.16.488-.162.331.991-.493.164-.49.161-.489.159-.488.157-.487.155-.485.152-.484.151-.483.147-.481.145-.48.143-.477.141-.477.138-.474.136-.473.134-.471.132-.468.13-.467.128-.464.124-.462.122-.46.12-.458.117-.457.116-.453.113-.452.11-.449.109-.447.106-.443.1-.441.1-.438.1-.437.1-.432.093-.431.092h0ZM84.226,230.27l.991-.331h0l.082.193.115.185.15.18.188.174.23.168.271.161.313.151.353.14.393.128.432.113.47.1.505.085.54.071.574.055.608.041.639.026.669.01.7,0,.728-.02.757-.035.783-.05.81-.065.834-.079.861-.094.884-.11.907-.124.929-.139.949-.153.97-.168.99-.182,1.009-.2,1.027-.21.215,1.023-1.037.213-1.02.2-1,.184-.982.17-.962.156-.941.14-.919.125-.9.112-.874.1-.851.081-.826.066-.8.051-.775.036-.749.021-.723,0-.693-.01-.666-.027-.636-.043-.606-.059-.577-.075-.546-.093-.516-.11-.483-.128-.453-.145-.419-.166-.388-.187-.353-.209-.319-.234-.281-.261-.241-.289-.194-.317-.144-.342h0ZM99.409,217.3l.452.943-.9.437-.878.436-.854.437-.831.436-.808.434-.783.434-.757.432-.731.43-.7.427-.677.423-.649.42-.62.417-.591.412-.56.408-.53.4-.5.4-.466.39-.433.383-.4.376-.366.367-.33.358-.295.349-.258.337-.223.325-.184.312-.147.3-.111.28-.075.262-.041.244-.009.226.021.209.049.2-.991.332-.089-.349-.036-.36.015-.364.062-.367.1-.368.146-.369.184-.37.221-.374.257-.376.292-.381.325-.384.359-.39.392-.393.424-.4.456-.4.487-.408.518-.412.548-.416.577-.419.606-.423.635-.427.663-.43.69-.432.717-.435.742-.437.77-.438.794-.439.818-.441.842-.441.866-.441.888-.441Zm0,0a.523.523,0,0,1,.452.943Z" transform="translate(-84.102 -205.458)" fill="#29304d"/>
      </g>
      <path d="M218.448,116.145c-3.979,0-7.2-8.977-7.2-20.051,0,11.074-3.225,20.051-7.2,20.051,3.979,0,7.2,8.977,7.2,20.051,0-11.074,3.226-20.051,7.2-20.051Z" transform="translate(9.32 5.012)" fill="none" stroke="#29304d" stroke-linecap="round" stroke-linejoin="round" stroke-miterlimit="22.926" stroke-width="1" fill-rule="evenodd"/>
      <path d="M207.439,324.563c-6.344,0-11.488-14.314-11.488-31.973,0,17.658-5.143,31.973-11.487,31.973,6.344,0,11.487,14.315,11.487,31.973C195.951,338.878,201.094,324.563,207.439,324.563Z" transform="translate(8.425 13.987)" fill="none" stroke="#29304d" stroke-linecap="round" stroke-linejoin="round" stroke-miterlimit="22.926" stroke-width="1" fill-rule="evenodd"/>
      <path d="M245.535,82.3c-3.235,0-5.859-7.3-5.859-16.307,0,9.006-2.623,16.307-5.859,16.307,3.236,0,5.859,7.3,5.859,16.307C239.676,89.6,242.3,82.3,245.535,82.3Z" transform="translate(10.68 3.637)" fill="none" stroke="#29304d" stroke-linecap="round" stroke-linejoin="round" stroke-miterlimit="22.926" stroke-width="1" fill-rule="evenodd"/>
      <g transform="translate(192.075 180.818)">
        <path d="M188.208,181.5a4.588,4.588,0,1,1,4.524-4.587A4.555,4.555,0,0,1,188.208,181.5Zm-2.454-2.075a3.443,3.443,0,0,0,4.909,0,3.6,3.6,0,0,0,0-5.027,3.443,3.443,0,0,0-4.909,0,3.6,3.6,0,0,0,0,5.027Z" transform="translate(-183.685 -172.324)" fill="#29304d" fill-rule="evenodd"/>
      </g>
      <g transform="translate(158.585 66.786)">
        <path d="M157.95,76.038a6.383,6.383,0,1,1,6.293-6.382A6.337,6.337,0,0,1,157.95,76.038Zm-3.706-2.6a5.195,5.195,0,0,0,7.412,0,5.41,5.41,0,0,0,0-7.563,5.194,5.194,0,0,0-7.412,0,5.414,5.414,0,0,0,0,7.564Z" transform="translate(-151.658 -63.273)" fill="#29304d" fill-rule="evenodd"/>
      </g>
      <g transform="translate(158.143 52.954)">
        <g transform="translate(6.14)">
          <g transform="translate(0.142)">
            <path d="M157.243,50.568a.523.523,0,0,1,1.046,0Zm1.046,8.083h-1.046V50.568h1.046v8.083Zm0,0a.523.523,0,0,1-1.046,0Z" transform="translate(-157.243 -50.045)" fill="#29304d"/>
          </g>
          <g transform="translate(0 31.301)">
            <path d="M157.107,80.5a.523.523,0,1,1,1.046,0Zm1.046,8.082h-1.046V80.5h1.046v8.082Zm0,0a.523.523,0,1,1-1.046,0Z" transform="translate(-157.107 -79.979)" fill="#29304d"/>
          </g>
        </g>
        <g transform="translate(0.173 5.26)">
          <g transform="translate(9.62)">
            <path d="M163.1,55.4a.523.523,0,1,1,.966.4Zm-1.491,6.333-.966-.4,0-.007.01-.026.018-.042.024-.058.029-.071.036-.087.042-.1.047-.115.053-.128.059-.14.063-.151.067-.163.072-.175.076-.184.08-.194.084-.2.089-.212.091-.221.094-.228.1-.235.1-.243.1-.248.1-.254.108-.259.109-.262.111-.268.112-.271.114-.274.114-.276.115-.278.116-.279.116-.28.966.4-.116.28-.116.279-.115.278-.114.276-.114.274-.112.271-.111.268-.109.264-.108.258-.1.253-.1.249-.1.242-.1.235-.094.229-.091.22-.088.212-.085.2-.081.194-.076.184-.072.174-.067.163-.064.153-.058.139-.053.127-.047.115-.042.1-.036.088-.03.072-.023.056-.018.041-.009.025Zm0,0a.523.523,0,1,1-.966-.4Z" transform="translate(-160.6 -55.075)" fill="#29304d"/>
          </g>
          <g transform="translate(0 22.931)">
            <path d="M153.9,77.328a.523.523,0,1,1,.966.4l-.966-.4Zm-1.491,6.332-.966-.4,0-.008.01-.025.018-.043.024-.055.029-.072.037-.088.041-.1.048-.115.052-.127.058-.14.063-.152.068-.163.072-.174.076-.184.081-.194.085-.2.088-.211.091-.221.094-.229.1-.235.1-.242.1-.249.1-.253.108-.259.109-.262.111-.268.112-.271.114-.274.114-.276.115-.278.116-.279.116-.28.966.4-.116.28-.116.279-.115.279-.114.276-.114.273-.112.272-.111.267-.109.264-.108.258-.1.254-.1.248-.1.243-.1.235-.094.228-.091.221-.088.212-.085.2-.081.193-.076.185-.072.174-.068.163-.063.152-.057.14-.053.128-.047.113-.041.1-.037.087-.029.072-.024.058-.017.041-.01.024,0,.009Zm0,0a.523.523,0,1,1-.966-.4l.966.4Z" transform="translate(-151.4 -77.005)" fill="#29304d"/>
          </g>
        </g>
        <g transform="translate(0 5.374)">
          <g>
            <path d="M151.275,55.908a.523.523,0,0,1,.967-.4ZM154.7,61.44l-.966.4,0-.01-.01-.024-.017-.041-.024-.058-.03-.072-.036-.087-.042-.1-.047-.114-.052-.127-.059-.139-.063-.153-.068-.163-.072-.174-.076-.185-.081-.193-.084-.2-.088-.212-.092-.221-.094-.228-.1-.235-.1-.242-.1-.249-.106-.253-.107-.259-.11-.264-.11-.267-.113-.272-.113-.273-.115-.276-.115-.278-.115-.28-.117-.28.967-.4.116.28.115.279.115.278.115.276.113.274.113.271.11.268.11.262.107.259.106.254.1.248.1.242.1.235.094.229.092.22.088.212.084.2.082.194.075.184.072.174.068.163.063.152.058.14.053.128.047.114.042.1.036.088.03.071.023.058.018.041.01.026,0,.008Zm0,0a.523.523,0,0,1-.966.4l.966-.4Z" transform="translate(-151.235 -55.185)" fill="#29304d"/>
          </g>
          <g transform="translate(9.62 22.932)">
            <path d="M160.475,77.838a.523.523,0,0,1,.966-.4ZM163.9,83.37l-.966.4,0-.009-.01-.024L162.9,83.7l-.024-.058-.03-.072-.036-.087-.042-.1-.047-.113-.053-.128-.058-.14-.063-.152-.068-.163-.072-.175-.076-.184-.079-.193-.085-.2-.088-.212-.091-.221-.1-.228-.1-.235-.1-.243-.1-.248-.106-.254-.107-.258-.11-.264-.111-.268-.112-.271-.113-.273-.115-.277-.115-.278-.116-.279-.116-.28.966-.4.117.28.115.28.115.278.115.276.113.273.112.272.111.267.11.264.107.259.1.253.1.249.1.242.1.235.1.229.091.22.088.212.085.2.079.193.077.185.071.174.068.163.063.152.058.14.053.127.047.115.042.1.037.087.029.073.023.055.018.043.01.025,0,.008Zm0,0a.523.523,0,1,1-.966.4l.966-.4Z" transform="translate(-160.435 -77.115)" fill="#29304d"/>
          </g>
        </g>
      </g>
      <g transform="translate(144.619 66.564)">
        <g transform="translate(0 6.141)">
          <g transform="translate(31.3 0.141)">
            <path d="M176.841,69.068a.523.523,0,0,1,0,1.046Zm-8.083,1.046V69.068h8.083v1.046h-8.083Zm0,0a.523.523,0,1,1,0-1.046Z" transform="translate(-168.235 -69.068)" fill="#29304d"/>
          </g>
          <g>
            <path d="M146.907,68.933a.523.523,0,1,1,0,1.046Zm-8.082,1.046V68.933h8.082v1.046h-8.082Zm0,0a.523.523,0,0,1,0-1.046Z" transform="translate(-138.302 -68.933)" fill="#29304d"/>
          </g>
        </g>
        <g transform="translate(5.259 0.172)">
          <g transform="translate(22.932 9.62)">
            <path d="M171.917,74.922a.523.523,0,1,1-.4.966l.4-.966Zm-6.333-1.491.4-.966.007,0,.026.012.043.017.056.024.071.029.087.037.1.042.115.047.128.052.14.059.151.063.164.067.174.072.184.076.195.081.2.085.212.088.221.091.229.1.235.1.242.1.248.1.254.1.259.108.262.109.268.111.271.112.274.114.276.114.278.115.279.116.28.116-.4.966-.281-.116-.279-.115-.278-.116-.276-.114-.274-.113-.271-.113-.267-.111-.263-.109-.259-.108-.253-.1-.249-.1-.242-.1-.235-.1-.228-.1-.221-.091-.212-.088-.2-.085-.193-.081-.184-.076-.175-.072-.163-.067-.152-.064-.14-.058-.127-.052-.115-.047-.1-.042-.087-.037-.073-.03-.056-.023-.041-.017-.025-.01-.009,0Zm0,0a.523.523,0,0,1,.4-.966Z" transform="translate(-165.262 -72.425)" fill="#29304d"/>
          </g>
          <g>
            <path d="M149.988,65.722a.523.523,0,0,1-.4.966l.4-.966Zm-6.333-1.491.4-.966.008,0,.026.012.042.017.055.024.073.029.087.037.1.041.114.048.128.052.14.058.152.064.163.067.175.072.183.076.194.081.2.085.211.088.222.091.228.094.235.1.242.1.249.1.253.106.259.107.263.109.267.111.271.112.274.114.276.114.278.116.279.115.281.116-.4.966-.28-.116-.28-.115-.278-.116-.276-.114-.273-.114L147.929,66l-.268-.111-.264-.109-.259-.107-.253-.106-.248-.1-.243-.1-.235-.1-.228-.1-.221-.091L145.5,65l-.2-.085-.195-.081-.185-.076-.174-.072-.163-.067-.152-.063-.14-.059-.128-.052-.113-.048-.1-.041-.087-.037-.071-.029-.059-.024-.041-.018-.024-.009-.009,0Zm0,0a.523.523,0,0,1,.4-.966Z" transform="translate(-143.332 -63.225)" fill="#29304d"/>
          </g>
        </g>
        <g transform="translate(5.144)">
          <g transform="translate(22.932)">
            <path d="M171.407,63.1a.523.523,0,0,1,.4.966Zm-5.533,3.424-.4-.966.009,0,.024-.009.041-.018.058-.024.072-.029.087-.037.1-.042.114-.047.127-.052.14-.059.152-.063.163-.068.175-.071.184-.076.195-.081.2-.085.212-.088.221-.091.228-.1.235-.1.243-.1.248-.1.253-.106.259-.107.264-.11.268-.11.271-.113.273-.113.276-.114.278-.116.28-.115.28-.116.4.966-.281.116-.279.115-.278.116-.276.114-.274.113-.271.113-.267.111-.264.109-.259.107-.254.106-.248.1-.242.1-.235.1-.228.1-.221.091-.212.088-.2.085-.195.081-.184.076-.174.072-.163.067-.152.063-.14.059-.128.052-.114.047-.1.042-.087.037-.072.029-.056.024-.042.017-.026.012-.008,0Zm0,0a.523.523,0,0,1-.4-.966Z" transform="translate(-165.152 -63.061)" fill="#29304d"/>
          </g>
          <g transform="translate(0 9.62)">
            <path d="M149.477,72.3a.523.523,0,0,1,.4.966l-.4-.966Zm-5.533,3.424-.4-.967.009,0,.024-.01.041-.017.058-.024.072-.029.087-.037.1-.042.113-.047.128-.052.14-.059.152-.063.163-.067.175-.072.184-.076.193-.081.2-.085.212-.088.221-.091.228-.1.235-.1.243-.1.248-.1.254-.106.258-.107.264-.109.268-.111.271-.113.273-.113.277-.115.278-.115.279-.115.28-.116.4.966-.281.116-.279.115-.278.116-.275.114-.275.114-.271.112-.267.111-.264.109-.259.107-.253.106-.248.1-.243.1-.235.1-.228.1-.222.091-.211.088-.2.085-.195.081-.185.076-.174.072-.163.067-.152.063-.14.059-.127.052-.115.047-.1.042-.087.037-.073.029-.055.023-.043.018-.025.01-.008,0Zm0,0a.523.523,0,0,1-.4-.967Z" transform="translate(-143.222 -72.261)" fill="#29304d"/>
          </g>
        </g>
      </g>
      <g transform="translate(611.518 288.897)">
        <path d="M600.782,317.449a21.182,21.182,0,1,1,25.236-15.74,21.032,21.032,0,0,1-25.236,15.74Zm-12.023-10.008a19.632,19.632,0,0,0,12.26,8.995h0a19.635,19.635,0,0,0,15.012-2.47A20.227,20.227,0,0,0,625,301.476a.017.017,0,0,0,0-.007,20.225,20.225,0,0,0-2.344-15.208,19.633,19.633,0,0,0-12.256-8.994H610.4a19.64,19.64,0,0,0-15.012,2.47,20.225,20.225,0,0,0-8.971,12.494.008.008,0,0,1,0,0,20.234,20.234,0,0,0,2.344,15.208Z" transform="translate(-584.807 -275.682)" fill="#29304d" fill-rule="evenodd"/>
      </g>
      <g transform="translate(619.018 296.492)">
        <path d="M602.222,309.727A13.582,13.582,0,1,1,618.4,299.635,13.485,13.485,0,0,1,602.222,309.727Zm-7.388-6.611a12.206,12.206,0,0,0,16.969,4.059,12.668,12.668,0,0,0,4.126-17.254,12.216,12.216,0,0,0-7.622-5.6l-.007,0a12.218,12.218,0,0,0-9.34,1.539,12.6,12.6,0,0,0-5.586,7.774.015.015,0,0,1,0,.007,12.6,12.6,0,0,0,1.461,9.472Z" transform="translate(-591.98 -282.946)" fill="#29304d" fill-rule="evenodd"/>
      </g>
      <g transform="translate(586.116 263.76)">
        <g transform="translate(45.783)">
          <g>
            <path d="M604.3,252.166a.523.523,0,0,1,1.046,0Zm0,14.888V252.166h1.046v14.888Zm1.046,0a.523.523,0,0,1-1.046,0Z" transform="translate(-604.297 -251.643)" fill="#29304d"/>
          </g>
          <g transform="translate(0 76.677)">
            <path d="M604.3,325.494a.523.523,0,0,1,1.046,0Zm0,14.888V325.494h1.046v14.888Zm1.046,0a.523.523,0,0,1-1.046,0Z" transform="translate(-604.297 -324.971)" fill="#29304d"/>
          </g>
        </g>
        <g transform="translate(0 45.783)">
          <g transform="translate(76.677)">
            <path d="M649.253,295.426a.523.523,0,0,1,0,1.046Zm-14.888,0h14.888v1.046H634.365Zm0,1.046a.523.523,0,1,1,0-1.046Z" transform="translate(-633.842 -295.426)" fill="#29304d"/>
          </g>
          <g>
            <path d="M575.925,295.426a.523.523,0,0,1,0,1.046Zm-14.888,0h14.888v1.046H561.037Zm0,1.046a.523.523,0,0,1,0-1.046Z" transform="translate(-560.514 -295.426)" fill="#29304d"/>
          </g>
        </g>
      </g>
      <g transform="translate(607.341 284.985)">
        <g>
          <g transform="translate(41.131)">
            <path d="M628.285,272.094a.523.523,0,0,1,.739.739Zm-7.986,7.987,7.986-7.987.739.739-7.986,7.987Zm.739.739a.523.523,0,0,1-.739-.739Z" transform="translate(-620.146 -271.941)" fill="#29304d"/>
          </g>
          <g transform="translate(0 41.131)">
            <path d="M588.952,311.428a.523.523,0,0,1,.739.739Zm-7.987,7.986,7.987-7.986.739.739-7.987,7.986Zm.739.739a.523.523,0,0,1-.739-.739Z" transform="translate(-580.812 -311.275)" fill="#29304d"/>
          </g>
        </g>
        <g>
          <g transform="translate(41.131 41.131)">
            <path d="M629.024,319.414a.523.523,0,0,1-.739.739Zm-7.986-7.986,7.986,7.986-.739.739-7.986-7.986Zm-.739.739a.523.523,0,1,1,.739-.739Z" transform="translate(-620.146 -311.275)" fill="#29304d"/>
          </g>
          <g >
            <path d="M589.691,280.081a.523.523,0,0,1-.739.739Zm-7.987-7.987,7.987,7.987-.739.739-7.987-7.987Zm-.739.739a.523.523,0,0,1,.739-.739Z" transform="translate(-580.812 -271.941)" fill="#29304d"/>
          </g>
        </g>
      </g>
      <path d="M332.12,357.23c60.964-35.116,122.64-108.835,71.686-213.47q-20.276-34.289-1.922-51.87,15.588-11.938,6.244-34.34" transform="translate(15.17 3.252)" fill="none" stroke="#29304d" stroke-linecap="round" stroke-linejoin="round" stroke-miterlimit="22.926" stroke-width="2" fill-rule="evenodd"/>
      <path d="M345.984,363.535q167.643-83.368,83.124-241.16-7.115-11.951-2.881-23.534,21.926-40.91-12.488-66.758Q389.333,19.52,387.554,0" transform="translate(15.803 0.623)" fill="none" stroke="#29304d" stroke-linecap="round" stroke-linejoin="round" stroke-miterlimit="22.926" stroke-width="2" fill-rule="evenodd"/>
      <g transform="translate(376.683 0.1)">
        <path d="M361.269,339.3a.523.523,0,1,1-1.034-.154l1.034.154Zm58.622-131.1.737.741-2.5,2.528-2.474,2.6-2.448,2.678-2.42,2.756-2.389,2.839-2.359,2.922-2.326,3.009-2.29,3.1-2.255,3.19-2.216,3.286-2.177,3.381-2.134,3.482-2.091,3.584-2.047,3.689-2,3.8-1.951,3.908-1.9,4.019L380.8,267.84l-1.8,4.254-1.742,4.373-1.686,4.5-1.627,4.622-1.566,4.75-1.5,4.882-1.441,5.015-1.376,5.152-1.309,5.29-1.24,5.432-1.17,5.576-1.1,5.724-1.024,5.871-.948,6.023-1.034-.154.951-6.041,1.028-5.889,1.1-5.74,1.174-5.594,1.244-5.45,1.314-5.309,1.38-5.171,1.446-5.034,1.511-4.9,1.574-4.769,1.633-4.643,1.693-4.516,1.75-4.393,1.8-4.273,1.859-4.155,1.911-4.039,1.963-3.926,2.01-3.817,2.058-3.708,2.1-3.6,2.146-3.5,2.19-3.4,2.228-3.3,2.267-3.209,2.3-3.116,2.338-3.026,2.373-2.939,2.4-2.856,2.433-2.773,2.463-2.693,2.488-2.617,2.513-2.542Zm0,0a.523.523,0,1,1,.737.741Zm32.7-25.39a.523.523,0,0,1-.6-.859ZM581.446.089l1.037-.132.867,9.129.267,8.854-.306,8.585-.849,8.321-1.367,8.063-1.853,7.808-2.314,7.56-2.744,7.317-3.146,7.079-3.521,6.846-3.867,6.62-4.184,6.4-4.473,6.182-4.734,5.973-4.966,5.769-5.171,5.569-5.346,5.378-5.495,5.19-5.614,5.01-5.705,4.833-5.769,4.664-5.8,4.5-5.812,4.341-5.791,4.188-5.742,4.04-5.664,3.9-5.56,3.763-5.425,3.633-5.265,3.508-5.074,3.388-4.856,3.275-4.61,3.166-.6-.859,4.618-3.173,4.862-3.278,5.076-3.39,5.264-3.508,5.423-3.63,5.554-3.76,5.657-3.894,5.731-4.033,5.778-4.18,5.8-4.33,5.789-4.487,5.751-4.65,5.686-4.816,5.593-4.99,5.472-5.169,5.323-5.354,5.145-5.542,4.94-5.738,4.707-5.938,4.445-6.143,4.156-6.356,3.84-6.573,3.495-6.795,3.121-7.024,2.723-7.257,2.293-7.5L580.07,42.7l1.355-8,.842-8.252.3-8.516-.265-8.786L581.446.089Zm0,0A.524.524,0,0,1,581.9-.5a.522.522,0,0,1,.585.453l-1.037.132Z" transform="translate(-360.229 0.5)" fill="#29304d"/>
      </g>
      <path d="M337.161,357.678c189.4-123.708,61.6-186.713,89.469-263.154" transform="translate(15.4 4.941)" fill="none" stroke="#29304d" stroke-linecap="round" stroke-linejoin="round" stroke-miterlimit="22.926" stroke-width="2" fill-rule="evenodd"/>
      <path d="M237.571,569.249c-31.786,61.186-122.329,16.906-103.329-51.091Q152.8,472.9,209.165,487.9" transform="translate(6.013 22.737)" fill="none" stroke="#29304d" stroke-linecap="round" stroke-linejoin="round" stroke-miterlimit="22.926" stroke-width="2" fill-rule="evenodd"/>
      <path d="M205.087,419.207c-2.243,39.713-16.531,58.661-38.941,70.178" transform="translate(7.589 19.77)" fill="none" stroke="#29304d" stroke-linecap="round" stroke-linejoin="round" stroke-miterlimit="22.926" stroke-width="2" fill-rule="evenodd"/>
      <path d="M202.419,536.917c13.872,70.6-27.156,54.862-4.943-2.767" transform="translate(8.712 25.021)" fill="none" stroke="#29304d" stroke-linecap="round" stroke-linejoin="round" stroke-miterlimit="22.926" stroke-width="2" fill-rule="evenodd"/>
      <path d="M197.271,532.213c-21.146,31.4-34.656,41.91-42.684,32.2-3.25-10.792,15.232-28.6,40.844-36.113" transform="translate(7.044 24.753)" fill="none" stroke="#29304d" stroke-linecap="round" stroke-linejoin="round" stroke-miterlimit="22.926" stroke-width="2" fill-rule="evenodd"/>
      <path d="M325.413,574.711c2.289,2.855,10.86,16.941,5.462,19.181q-8.846-10.147-14.214-14.391m2.955-11a82.683,82.683,0,0,0-22.28-14.022l-10.068,7.035a67.971,67.971,0,0,1,22.052,10.673q13.3-7.719,31.394-.871-18.471,4.172-36.741,7.924c-21.847-10.38-42.421-19.96-65.249-28.158-3.795-.627-2.663,2.6-.835,3.41,16.247,12.567,22.52,29.271,12.877,37.147-3.136-8.919-9.585-18.188-17.138-25.094-9.839-8.995-13.959-19.927-14.147-26.768" transform="translate(10.025 25.278)" fill="none" stroke="#29304d" stroke-linecap="round" stroke-linejoin="round" stroke-miterlimit="22.926" stroke-width="2" fill-rule="evenodd"/>
      <path d="M299.252,548.939l14.329,10.227c6.961-2.393,17.173-4.684,21.69-.991a210.7,210.7,0,0,1-22.293,6.983" transform="translate(13.668 25.696)" fill="none" stroke="#29304d" stroke-linecap="round" stroke-linejoin="round" stroke-miterlimit="22.926" stroke-width="2" fill-rule="evenodd"/>
      <path d="M301.6,546.337l13.723,5.925a49.425,49.425,0,0,1,14.794-1.773" transform="translate(13.776 25.577)" fill="none" stroke="#29304d" stroke-linecap="round" stroke-linejoin="round" stroke-miterlimit="22.926" stroke-width="2" fill-rule="evenodd"/>
      <g transform="translate(391.066 215.483)">
        <path d="M375.027,316.867a.523.523,0,1,1-1.038-.123l1.038.123ZM417.821,238l.632.832-2.132,1.655-2.091,1.7-2.05,1.741-2.008,1.786-1.964,1.832-1.92,1.877-1.875,1.924-1.828,1.972-1.781,2.02-1.734,2.069-1.684,2.119-1.634,2.169-1.583,2.221-1.531,2.272-1.479,2.326-1.425,2.38-1.37,2.433-1.314,2.488-1.258,2.544-1.2,2.6-1.142,2.658-1.082,2.716-1.022,2.776-.961,2.835-.9,2.9-.834,2.956-.771,3.019-.706,3.082-.639,3.144-.572,3.209-.5,3.274-.435,3.34-1.038-.123.438-3.363.507-3.3.576-3.233.644-3.169.712-3.107.777-3.044.842-2.982.907-2.922.969-2.861,1.031-2.8,1.093-2.743,1.153-2.683,1.212-2.627,1.27-2.569,1.327-2.513,1.384-2.458,1.439-2.4,1.493-2.349,1.547-2.3,1.6-2.243,1.651-2.191,1.7-2.141,1.75-2.089,1.8-2.04,1.846-1.991,1.893-1.942,1.938-1.9,1.982-1.848,2.026-1.8,2.067-1.757,2.109-1.713L417.821,238Zm0,0a.522.522,0,1,1,.632.832l-.632-.832Zm38.556-20.046a.523.523,0,1,1-.745-.734ZM682,205.634l.752.728-5.22,4.746-5.676,3.99-6.1,3.279-6.48,2.617-6.829,2-7.145,1.435-7.429.916-7.676.445-7.894.023-8.079-.352-8.23-.68-8.35-.96-8.436-1.192-8.491-1.379-8.512-1.518-8.5-1.609-8.456-1.654-8.379-1.653-8.268-1.6-8.125-1.508-7.948-1.366-7.737-1.176-7.494-.94-7.217-.657-6.906-.327-6.56.047-6.181.468-5.767.934-5.32,1.444-4.841,2-4.333,2.592-3.8,3.236-.745-.734,3.935-3.352,4.475-2.678,4.973-2.052,5.436-1.475,5.864-.951,6.26-.475,6.624-.048,6.957.329,7.257.661,7.525.944,7.761,1.18,7.965,1.369,8.135,1.51,8.275,1.6,8.38,1.653,8.452,1.654L572.4,218.7l8.5,1.515,8.472,1.376,8.412,1.189,8.32.957,8.193.677,8.034.35,7.842-.023,7.615-.441,7.354-.907,7.062-1.418,6.736-1.973,6.379-2.576,5.991-3.223,5.57-3.916L682,205.634Zm0,0a.523.523,0,0,1,.752.728Z" transform="translate(-373.985 -205.475)" fill="#29304d"/>
      </g>
      <g transform="translate(409.897 148.128)">
        <path d="M392.968,267.409a.523.523,0,1,1-.9-.525l.9.525Zm25.927-38.864.788.688-.9,1.038-.892,1.046L417,232.368l-.878,1.058-.872,1.066-.866,1.074-.861,1.081-.854,1.09-.849,1.1-.845,1.108-.841,1.117-.835,1.127-.832,1.138-.828,1.148-.826,1.16-.822,1.171-.82,1.183-.818,1.194-.816,1.208-.815,1.22-.812,1.234-.811,1.247-.811,1.262-.811,1.277-.81,1.291-.811,1.306-.811,1.323-.812,1.338-.815,1.354-.815,1.372L393.787,266l-.82,1.406-.9-.525.822-1.41.82-1.393.818-1.376.817-1.358.816-1.343.815-1.327.814-1.311.814-1.3.814-1.281.815-1.267.815-1.253.817-1.238.817-1.227.82-1.212.821-1.2.824-1.188.826-1.176.829-1.165.832-1.153.837-1.143.84-1.133.845-1.122L411,238.2l.853-1.1.859-1.095.864-1.087.871-1.079.877-1.071.883-1.063.89-1.057.9-1.051.9-1.045Zm0,0a.523.523,0,0,1,.788.688l-.788-.688Zm36.164-29.994a.523.523,0,1,1-.552-.889l.552.889ZM542.146,180.7l-.216,1.023.03.005-2.976-.42-2.96-.36-2.943-.3-2.927-.239-2.909-.179-2.893-.118-2.877-.059-2.859,0-2.843.064-2.826.124-2.809.185-2.793.247-2.775.307-2.758.368-2.742.43-2.725.491-2.708.553-2.691.614-2.675.675-2.657.738-2.639.8-2.624.862-2.607.923-2.588.985-2.572,1.048-2.556,1.111-2.537,1.172-2.521,1.235-2.5,1.3-2.486,1.359-2.47,1.424-2.452,1.486-.552-.889,2.472-1.5,2.49-1.435,2.507-1.371,2.525-1.308,2.542-1.245,2.56-1.183,2.577-1.12,2.594-1.056,2.612-.994,2.629-.931,2.647-.869,2.663-.807L488,183.1l2.7-.682,2.715-.62,2.731-.557,2.749-.5,2.765-.434,2.783-.371,2.8-.31,2.816-.249,2.832-.187,2.849-.126,2.865-.064,2.882,0,2.9.059,2.914.119,2.931.181,2.947.24,2.964.3,2.979.363,3,.422.03.006Zm-.03-.006a.523.523,0,1,1-.156,1.034Zm139.051-39.455.777.7-3.317,3.568-3.386,3.418-3.455,3.268-3.523,3.118-3.593,2.969-3.66,2.819-3.729,2.669-3.8,2.52-3.867,2.368-3.934,2.22-4,2.069-4.072,1.919-4.139,1.769-4.208,1.619-4.276,1.468-4.345,1.319-4.412,1.168-4.48,1.018-4.548.868-4.615.717-4.684.568-4.752.417-4.817.268-4.886.117-4.953-.032-5.021-.183-5.088-.333-5.156-.482-5.223-.632-5.291-.782-5.359-.932-5.426-1.081.216-1.023,5.4,1.076,5.333.926,5.264.779,5.2.628,5.127.48,5.059.33,4.99.181,4.923.032,4.853-.117,4.785-.265,4.717-.415,4.648-.564,4.58-.712,4.512-.861,4.444-1.01,4.376-1.159,4.308-1.307,4.24-1.457,4.172-1.605,4.1-1.754,4.036-1.9,3.968-2.052,3.9-2.2,3.833-2.351,3.767-2.5,3.7-2.648,3.632-2.8,3.564-2.946,3.5-3.1,3.43-3.245,3.362-3.393,3.295-3.544Zm0,0a.523.523,0,0,1,.777.7l-.777-.7Z" transform="translate(-391.993 -141.062)" fill="#29304d"/>
      </g>
      <path d="M206.722,538.434c-17.655,1.547-22.023-31.44,10.036-29.405" transform="translate(8.817 23.869)" fill="none" stroke="#29304d" stroke-linecap="round" stroke-linejoin="round" stroke-miterlimit="22.926" stroke-width="2" fill-rule="evenodd"/>
    </g>
  </g>
</svg>
