<svg xmlns="http://www.w3.org/2000/svg" width="6" height="6" viewBox="0 0 169 169" shape-rendering="geometricPrecision" image-rendering="optimizeQuality" fill-rule="evenodd" clip-rule="evenodd"><path d="m75 118c12 0 22-5 30-13 8-7 12-18 12-30 0-11-4-22-12-30-8-7-18-12-30-12-12 0-23 5-30 12-8 8-13 19-13 30 0 12 5 23 13 30 7 8 18 13 30 13m75 18c4 4 4 11 0 14-4 4-10 4-14 0l-27-26c-9 7-21 11-34 11-17 0-31-7-42-18-11-10-18-25-18-42 0-16 7-31 18-42 11-10 25-17 42-17 16 0 31 7 42 17 11 11 17 26 17 42 0 13-4 25-11 35l27 26" fill="currentColor" fill-rule="nonzero"/></svg>