<svg xmlns="http://www.w3.org/2000/svg" width="9.6" height="9.6" viewBox="0 0 271 271" shape-rendering="geometricPrecision" image-rendering="optimizeQuality" fill-rule="evenodd" clip-rule="evenodd"><path d="m127 224c0-8-13-15-29-24-31-16-72-38-72-95 0-14 7-29 19-40 10-11 24-18 40-18 14 0 25 3 35 10 6 4 11 9 15 15 5-6 10-11 16-15 10-7 20-10 35-10 15 0 30 7 40 18 12 11 19 26 19 40 0 57-41 79-72 95-16 9-29 16-29 24h-17m-21-39c12 7 22 12 29 19 7-7 18-12 30-19 27-14 63-33 63-80 0-10-5-20-14-28-7-8-17-13-28-13-11 0-19 2-25 7-7 4-13 11-18 21l-8 12-7-12c-5-10-11-17-18-21-6-5-14-7-25-7-11 0-21 5-28 13-9 8-14 18-14 28 0 47 36 66 63 80" fill="currentColor" fill-rule="nonzero"/></svg>