<svg xmlns="http://www.w3.org/2000/svg" width="6" height="6" viewBox="0 0 169 169" shape-rendering="geometricPrecision" image-rendering="optimizeQuality" fill-rule="evenodd" clip-rule="evenodd"><path d="m143 79c-29-12-50-22-66-29-30-13-38-17-44-17-5 0-7 3-8 4-3 4-3 9-1 13l21 35-21 34c-2 4-2 9 1 13 1 1 3 4 8 4 6 0 14-4 44-17 16-7 37-16 66-29 2-1 4-3 4-5 0-3-2-5-4-6m-109-34c5 1 17 6 39 16 10 5 24 11 41 18h-59l-21-34m38 64c-22 10-34 15-38 16l21-35h59c-17 8-31 14-42 19" fill="currentColor" fill-rule="nonzero"/></svg>