<svg xmlns="http://www.w3.org/2000/svg" width="12" height="12" viewBox="0 0 339 339" shape-rendering="geometricPrecision" image-rendering="optimizeQuality" fill-rule="evenodd" clip-rule="evenodd"><path d="m177 223c0-22-22-39-49-39h-4c-1-2-2-5-2-8 0-3 1-8 2-8h1c22 0 41-18 41-41 0-5-3-12-5-15l14-8v-27l-30 17c-6-5-13-7-21-7-22 0-40 18-40 40 0 13 6 24 15 32-3 5-4 11-4 17 0 6 1 11 3 16-12 7-19 18-19 31 0 21 22 38 49 38 27 0 49-17 49-38m37-41v-32h-32v-14h32v-32h14v32h32v14h-32v32h-14m-70-55c0 11-9 19-19 19-10 0-19-8-19-19 0-10 9-19 19-19 10 0 19 9 19 19m6 96c0 8-10 14-22 14-12 0-22-6-22-14 0-9 10-15 22-15 12 0 22 6 22 15" fill="currentColor"/></svg>