<svg xmlns="http://www.w3.org/2000/svg" viewBox="0 0 24 19.504"><path d="M256.115,145.631a9.83,9.83,0,0,1-2.828.776,4.938,4.938,0,0,0,2.165-2.724,9.837,9.837,0,0,1-3.127,1.195,4.926,4.926,0,0,0-8.516,3.369,4.98,4.98,0,0,0,.127,1.122,13.979,13.979,0,0,1-10.148-5.144,4.928,4.928,0,0,0,1.523,6.573,4.9,4.9,0,0,1-2.23-.616v.062a4.926,4.926,0,0,0,3.949,4.827,4.9,4.9,0,0,1-1.3.173,5,5,0,0,1-.927-.087,4.93,4.93,0,0,0,4.6,3.419,9.914,9.914,0,0,1-7.289,2.038,14,14,0,0,0,21.555-11.8q0-.32-.015-.637A10.031,10.031,0,0,0,256.115,145.631Z" transform="translate(-232.12-143.32)"/></svg>