<svg xmlns="http://www.w3.org/2000/svg" viewBox="0 0 24 14.253"><path data-name="Path 416" d="M55.649,61.965c.167-.556,0-.965-.794-.965H52.23a1.134,1.134,0,0,0-1.142.743,21.964,21.964,0,0,1-3.227,5.369c-.612.612-.89.807-1.224.807-.167,0-.408-.195-.408-.751v-5.2c0-.668-.194-.965-.75-.965H41.352a.633.633,0,0,0-.668.6c0,.633.946.779,1.043,2.559v3.867c0,.848-.153,1-.487,1-.89,0-3.055-3.269-4.339-7.01C36.649,61.294,36.4,61,35.726,61H33.1c-.75,0-.9.353-.9.743,0,.7.89,4.145,4.145,8.707,2.17,3.115,5.227,4.8,8.008,4.8,1.669,0,1.875-.375,1.875-1.021V71.878c0-.75.158-.9.687-.9.389,0,1.057.195,2.615,1.7,1.78,1.78,2.074,2.579,3.075,2.579h2.626c.75,0,1.125-.375.909-1.115a11.273,11.273,0,0,0-2.215-3.077c-.612-.723-1.53-1.5-1.808-1.892-.389-.5-.278-.723,0-1.168,0,0,3.2-4.506,3.533-6.036Z" transform="translate(-32.2-61)" fill="#f5f5f5" fill-rule="evenodd"/></svg>