<svg xmlns="http://www.w3.org/2000/svg" shape-rendering="geometricPrecision" image-rendering="optimizeQuality" fill-rule="evenodd" clip-rule="evenodd" viewBox="0 0 300 300"><path fill-rule="nonzero" d="m260.38 250.71c-28.52 31.5-68.69 49.35-111.22 49.35-41.42 0-78.92-16.79-106.07-43.93-27.14-27.15-43.93-64.65-43.93-106.07 0-41.42 16.79-78.92 43.93-106.06 27.15-27.15 64.65-43.94 106.07-43.94 41.42 0 78.92 16.79 106.06 43.94 27.15 27.14 43.94 64.64 43.94 106.06 0 35.56-12.37 68.23-33.05 93.94-3.58-4.3-6.73-7.77-9.43-10.55 18.29-23.17 28.54-51.57 28.54-83.39 0-37.57-15.23-71.59-39.85-96.21-24.62-24.62-58.64-39.85-96.21-39.85-37.58 0-71.59 15.23-96.21 39.85-24.62 24.62-39.86 58.64-39.86 96.21 0 37.58 15.24 71.59 39.86 96.21 24.62 24.63 58.63 39.86 96.21 39.86 36.18 0 69.06-14.13 93.43-37.16-13.92-7.08-30.39-12.87-44.99-12.95-4.67-.28-24.13.22-24.13 7.39 0 3.46 4.95 4.97 9.42 4.97 4.58 0 7.7-2.04 10.21-5.1 3.16-3.61 7.63-4.33 13.41-3.41-5.72 9.28-12.55 16.46-23.77 16.72-8.92.21-19.46-3.07-19.42-11.39.04-7.18 10.48-12.33 16.52-14.04 6.69-1.9 13.45-1.76 20.69-1.55 2.19-5.49 4.13-12.04 5.74-19.72-5.76 4.76-12.82 8.43-19.14 8.49-13.31.15-19.28-14.61-21.25-28.38-8.06 14.31-20.11 28.74-37.46 28.76-20.06-.29-19.85-26.06-18.8-41.81 2.05-30.11 9.87-68.46 9.87-96.77 0-19.94-4.19-25.19-16.8-25.19-38.14 3.3-41.27 67.14-20.17 67.14 8.34 0 13.58-8.85 15.73-23.32l6.65-1.95c-2.73 19.03-10.27 35.9-29.37 36.08-15.16.15-20.82-14.8-21.13-28.89-.65-29.88 24.93-60.36 55.07-60.36 17.41 0 22.56 11.65 22.56 34.59 0 29.74-4.91 62.23-6.96 92.34-.49 7.35-3.12 35.38 8.79 35.34 15.7-.05 30.64-43.32 33.79-54.06l9.15-86.48 15.44-6.22-11.49 107.37c-.84 9.94-6.1 40.67 12.9 40.67 5.05-2.23 11.53-8.57 14.88-13.98l11.48 7.1c-2.28 10.98-5.05 21.39-8.43 30.27 17.39 2.94 35.2 8.49 48.8 20.08"/></svg>