<svg xmlns="http://www.w3.org/2000/svg" viewBox="0 0 19.592 24"><path d="m72.55 62.02c-4.186.449-8.354 3.669-8.524 8.278-.11 2.813 1.068 4.923 3.88 5.516a15.014 15.014 0 0 0 .381 -2.05 5.484 5.484 0 0 1 -1.364 -1.94c-1.034-6.07 7.346-10.21 11.743-5.973 3.03 2.94 1.034 11.98-3.864 11.04-4.694-.9 2.3-8.091-1.449-9.506-3.042-1.152-4.66 3.516-3.22 5.829-.847 3.982-2.669 7.736-1.932 12.726 2.4-1.652 3.2-4.821 3.864-8.125 1.2.695 1.847 1.423 3.381 1.534 5.66.415 8.82-5.38 8.05-10.735-.695-4.745-5.66-7.159-10.947-6.592" transform="translate(-64.02-61.937)"/></svg>