<?xml version="1.0" encoding="UTF-8"?><!DOCTYPE svg PUBLIC "-//W3C//DTD SVG 1.1//EN" "http://www.w3.org/Graphics/SVG/1.1/DTD/svg11.dtd"><svg xmlns="http://www.w3.org/2000/svg" xmlns:xlink="http://www.w3.org/1999/xlink"><symbol id="icon-calendar" viewBox="0 0 203.18 203.18"><g fill="#bdbdbd" fill-rule="nonzero"><path d="m177.79 25.39h-25.4v-16.93h-16.93v50.8h16.93v-16.94h25.4v127h-152.4v-127h16.93v-16.93h-16.93c-9.35 0-16.93 7.58-16.93 16.93v127c0 9.35 7.58 16.94 16.93 16.94h152.4c9.35 0 16.94-7.59 16.94-16.94v-127c0-9.35-7.59-16.93-16.94-16.93"/><path d="m67.72 42.32h59.27v-16.93h-59.27v-16.93h-16.93v50.8h16.93z"/><path d="m76.19 76.19h-33.87v33.87h33.87z"/><path d="m118.52 76.19h-33.86v33.87h33.86z"/><path d="m126.99 110.06h33.87v-33.87h-33.87z"/><path d="m42.32 152.39h33.87v-33.87h-33.87z"/><path d="m84.66 152.39h33.86v-33.87h-33.86z"/></g></symbol><symbol id="icon-eye" viewBox="0 0 7.68 3.83"><path d="M3.84,0A4.79,4.79,0,0,0,0,1.92q.14.19.3.36l.23.24A4.79,4.79,0,0,0,3.84,3.83,4.79,4.79,0,0,0,7.68,1.92,4.79,4.79,0,0,0,3.84,0Zm0,3.24A1.38,1.38,0,0,1,2.4,1.92,1.38,1.38,0,0,1,3.84.6,1.38,1.38,0,0,1,5.28,1.92,1.38,1.38,0,0,1,3.84,3.24Z"/></symbol><symbol id="icon-mark" viewBox="0 0 203.18 203.18"><g fill="#bdbdbd" fill-rule="nonzero"><path d="m101.59 174.09c20.35-24.41 50.8-66.25 50.8-97.89 0-28.01-22.79-50.79-50.8-50.79-28.01 0-50.8 22.78-50.8 50.79 0 31.65 30.47 73.49 50.8 97.89m0-131.75c18.67 0 33.87 15.19 33.87 33.86 0 21.23-20.64 53.29-33.87 70.96-13.23-17.65-33.86-49.7-33.86-70.96 0-18.67 15.19-33.86 33.86-33.86"/><path d="m118.52 76.2c0-9.33-7.59-16.93-16.93-16.93-9.34 0-16.93 7.6-16.93 16.93 0 9.33 7.59 16.94 16.93 16.94 9.34 0 16.93-7.61 16.93-16.94"/><path d="m67.73 194.73h67.73v-16.93h-67.73z"/></g></symbol></svg>