<svg xmlns="http://www.w3.org/2000/svg" shape-rendering="geometricPrecision" image-rendering="optimizeQuality" fill-rule="evenodd" clip-rule="evenodd" viewBox="0 0 500 500"><ellipse fill="#fcf32a" cx="101.14" cy="353.61" rx="35.923" ry="35.2"/><circle fill="#86e5c7" cx="427.25" cy="144.32" r="14.467"/><circle fill="#5159be" cx="70.58" cy="94.52" r="7.874"/><g stroke="#29304d" stroke-linejoin="round" stroke-linecap="round" stroke-width="2" stroke-miterlimit="22.926"><path fill="#29304d" d="m337.6 198.24c-.407-22.15-2.304-41.28-5.689-57.39-6.03-.32-11.875-12.934-7.28-19.01 7.04-8.516 1.443-17.531-7.421-19.03-9.477-1.119-13.01-6.777-12.367-15.615 2.125-22.691-27.445-19.257-37.472-10.582-13.812-21.427-43.38-28.87-51.602-13.837-2.034 3.719-4.607 3.864-10.774 3.279-9.849-.282-16.227 3.929-15.174 14.303 1.672 6.127-2.83 12.343-8.583 11.589-7.173-.0001-14.849 3.846-9.698 18.06-13.02 28.802-18.378 62.2-19.21 93.61 65.29 22.511 140.17 20.822 185.27-5.379z"/><g fill="#fff"><path d="m135.13 313.82c94.41 0 72.41-36.33 68.7-116.94 55.39-.071 83.08-.106 83.08-.106-6.704 78.993-18.594 117.05 61.45 111.3-58.31 85.55-160.67 63.843-213.24 5.745z"/><path d="m201.31 157.6c-1.072-14.627.714-26.465 12.464-25.13 7.473 1.678 13.02-.499 14.715-7.909 1.455-8.952 5.844-11.179 13.167-6.682 10.388 4.673 16.218 1.725 17.49-8.843.807-9.692 6.832-12.771 18.07-9.239 9.203 13.191 11.711 33.985 12.199 57.95l.001-.153c19.826-28.28 41.1 1.835-2.521 39.3l.007-.12c-6.132 32.23-22.42 55.28-41.552 55.28-19.11 0-35.38-22.997-41.532-55.18l.0001.014c-43.624-37.462-22.349-67.58-2.522-39.3v.004z"/></g><g fill="none"><path d="m288.67 181.02c4.242-13.355 9.137-21.442 14.684-24.26"/><path d="m203.12 181.02c-4.242-13.355-9.137-21.442-14.684-24.26"/></g><path fill="#29304d" d="m207.15 282.24c37.16-33.885 62.56-35.583 76.21-5.094-3.352-18.645.6-45.48 3.555-80.26.004-.039.007-.08.011-.119-6.132 32.23-22.42 55.28-41.553 55.28-19.11 0-35.38-22.99-41.531-55.16 1.747 38.03 7.565 66.2 3.312 85.35z"/><path fill="none" d="m211.28 152.2c2.714-17.626 22.97-15.92 24.984 10.285 1.38 17.963-1.519 29.449-6.71 34.35-4.898 5.447 8.935 7.667 13.487-.227"/><g fill="#29304d"><ellipse cx="221.81" cy="158.98" rx="2.953" ry="5.826"/><ellipse cx="258.12" cy="157.31" rx="2.953" ry="5.826"/></g><g fill="none"><path d="m226.36 214.85c10.6 3.735 20.709 2.99 30.33-2.234"/><path d="m74.909 485.95c5.282-74.907 11.197-154.17 60.22-172.14m213.24-5.745c42.979 11.962 67.37 81.79 73.58 164.11"/></g><path fill="#fff" d="m232.09 296.03c-4.969 4.278-5.381 11.36-1.236 21.247-8.418 2.159-10.23 16.543-5.435 43.15-1.192 50.41 6.879 79.06 24.21 85.976 7.482 6.133 14.388 11.703 20.72 16.711 4.37-15.745 9.86-27.496 16.472-35.25-13.407-12.677-18.23-32.958-14.463-60.846 1.251-3.233.043-8.119-3.622-14.66-7.934-25.12-12.216-44.996-12.847-59.62-4.844-1.666-8.193-.431-10.05 3.707-1.702-10.432-2.553-15.648-2.553-15.648-8.361-.514-12.09 4.564-11.2 15.236z"/><g fill="none"><path d="m230.85 317.27c4.724 20.8 9.364 38.23 13.918 52.29"/><path d="m254.82 354.58c-5.546-15.754-10.872-35.464-15.976-59.13-2.183-1.059-4.434-.867-6.753.577"/><path d="m245.84 296.44c5.774 21.534 10.661 39.459 14.658 53.776"/></g><g fill="#fff"><path d="m234.93 431.35c-7.12-14.368-10.291-38.01-9.513-70.923-3.209-17.808-3.459-30.14-.751-36.997-2.211-3.166-5.53-4.476-9.954-3.933.474 23.928 1.18 82.48-18.19 100.35-.805 7.809-.238 17.929 1.905 28.748.899 4.538 2.01 8.856 3.266 12.85 6.02-3.402 21.912-23.79 33.24-30.09z"/><path d="m224.67 323.43c1.339-3.389 3.401-5.441 6.186-6.155-4.145-9.887-3.733-16.969 1.236-21.247-.336-4.01-.018-7.235.954-9.666-1.673-3.734-4.763-4.245-9.271-1.534 0 0 .082 3.65.247 10.952 0 0-1.18.028-3.541.083.605 6.203.544 14.244-.183 24.12 1.759.642 3.217 1.789 4.372 3.443z"/></g><g fill="#29304d"><path d="m203.97 404.6c-3.98.788-6.553 6.599-7.444 15.242 3.919-3.614 7.02-8.895 9.461-15.218-.686-.144-1.36-.155-2.02-.024z"/><path d="m224.96 439c-9.275 8.491-18.887 19.966-23.267 22.442 5.063 16.07 12.558 26.91 18.625 25.708 7.574-1.501 10.05-21.2 5.538-43.991-.279-1.409-.578-2.796-.896-4.159z"/></g><g fill="none"><path d="m203.97 404.6c-21.829 9.763-56.717 33.566-104.67 71.41"/><path d="m386.27 457.26c-36.12-17.222-66.65-29.352-91.62-36.39-13.683 8.797-23.579 31.08-29.687 66.86"/></g></g><path fill="#29304d" d="m262.94 142.86c1.254.004 7.532 3.937 8.659 4.881-.778-4.969-4.01-9.48-11.338-10.262-3.315.78-7.562 1.356-13.409 2.28-.004 2.202 2.373 6 3.938 7.408 7.549-.421 8.498-3.01 12.15-4.307"/><g fill="none" stroke="#29304d" stroke-linejoin="round" stroke-linecap="round" stroke-miterlimit="22.926"><path d="m138.74 227c-4.474-1.01-7.141.963-8 5.909-.176 6.02-2.823 7.978-7.939 5.863-4.591-2.045-7.661-.132-7.517 5.551-.384 7.406-3.886 9.992-10.507 7.759-6.151-2.482-11.599.076-10.134 7.483.337 7.094-3.039 9.587-10.126 7.478-6.56-1.834-10.1.784-10.635 7.854"/><path d="m298.63 237.92c9.76-3.743 16.499-.19 14.885 9.95-.044 8.625 4.499 12.06 13.273 8.873 8.385-3.917 13.328-1.483 11.989 8.01-1.175 8.221 3.286 12.704 13.739 9.183 10.269-4.03 14.557-1.16 12.863 8.599-.997 9.07 4.411 13.628 13.03 8.709"/><path d="m348.33 192.72c7.797-8.392 13.684-8.439 17.662-.14 3.676 6.645 11.392 9.462 16.872-.134 5.472-11.555 13.933-12.391 19.495-.154"/><path d="m349.75 128.39c3.326-9.33 8.475-11.335 15.449-6.01 9.04 5.704 15.292 3.354 16.318-6.351 1.42-9.09 7.552-11.972 15.936-6.202 7.778 5.102 14.1 3.644 16.503-6.423 1.68-11.151 10.463-13.313 18.77-7.305"/><path d="m343.95 76.82c-.292-6.82 3.416-9.599 8.365-8.262 7.01 1.531 9.148-1.207 7.872-7.773-1.608-7.72 1.655-10.942 9.79-9.668"/><path d="m222.24 39.09c3.545-5.217 2.784-8.898-2.283-11.04-6.964-2.542-7.85-6.826-2.657-12.854"/><path d="m131.25 94.29c.692-6.29-4.125-11.629-11.526-10.167-9.592 1.603-13.571-1.907-11.937-10.53 1.855-9.653-.998-11.866-10.04-8.857-8.407 3.238-11.474.532-9.199-8.116"/><path d="m114.06 163.91c-2.755-4.644-5.693-4.896-8.812-.758-5.382 7.489-9.847 7.105-13.393-1.152-3.035-6.975-7.768-7.222-12.41-1.067-5.766 7.02-10.745 6.591-14.938-1.285-1.804-4.226-5.409-4.478-8.793-.756-4.589 4.15-7.214 3.924-7.877-.678"/></g></svg>