<svg xmlns="http://www.w3.org/2000/svg" viewBox="0 0 432 432.001"><g fill-rule="evenodd"><path d="m206.1 134.67c.582-90.37 108.69-100.94 86.65.149 20.3-21.681 29.3 9.04-1.517 30.23-2.805 15.485-11.578 31.485-22 42.34-5.151 45.508-51.56 49.39-65.64-6.712q-.1-23.514 1.763-37.35l.112.078c-27.987-21.03-19.05-49.56.627-28.722" transform="translate(-25.532-7.146)" fill="#fff"/><g fill="none" stroke="#29304d" stroke-linejoin="round" stroke-linecap="round" stroke-width="2" stroke-miterlimit="22.926"><path d="m292.88 145.72c20.3-21.681 29.3 9.04-1.517 30.23-5.421 29.922-33.12 61.769-51.958 54.672s-26.292-24.808-31.691-54.791c-30.535-21.13-21.645-51.6-1.484-30.25" transform="translate(-25.549-17.969)"/><path d="m255.26 182.69c3.781 11.557 15.659 14.213 12.861 5.844-7-16.661-7.627-29.322-4.689-42.763 4.9-23.06 28.2-21.292 25.894.533" transform="translate(-34.716-16.66)"/></g><path d="m246.32 139.5l4.256-3.257q-3.51-9.456-14.87-10.492-1.074 3.39-1.074 3.391" transform="translate(-31.911-16.17)" fill="#29304d"/></g><g fill="#29304d"><ellipse cx="2.479" cy="4.848" rx="2.479" ry="4.848" transform="translate(201.72 126.98)"/><ellipse cx="2.479" cy="4.848" rx="2.479" ry="4.848" transform="translate(239.24 126.98)"/></g><g><path d="M309.246,167.35a.433.433,0,0,1-.561.241.426.426,0,0,1-.243-.556Zm10.466-16.043.5.7-.419.306-.414.316-.41.328-.4.338-.4.35-.395.361-.389.373-.385.384-.379.395-.375.406-.37.417-.366.428-.36.44-.355.451-.35.462-.346.474-.34.485-.336.5-.33.508-.327.519-.321.53-.316.541-.311.552-.306.564-.3.576-.3.587-.291.6-.286.61-.281.621-.276.632-.27.643-.266.655-.8-.315.27-.665.276-.654.281-.642.286-.631.291-.621.3-.609.3-.6.307-.587.312-.576.318-.564.322-.553.328-.542.333-.531.339-.52.344-.508.349-.5.355-.486.359-.474.365-.464.371-.452.376-.442.382-.43.386-.419.392-.408.4-.4.4-.385.408-.373.413-.363.419-.351.424-.339.429-.329.435-.317Zm0,0a.434.434,0,0,1,.6.1.426.426,0,0,1-.1.6l-.5-.7Z" transform="translate(-41.944-19.823)" fill="#29304d"/></g><g><path d="M199.061,151.641a.425.425,0,0,1,.015-.606.434.434,0,0,1,.611.015ZM208.9,168.1l-.837.216-.168-.626-.175-.619-.183-.612-.19-.606-.2-.6-.2-.592-.213-.585-.219-.579-.226-.571-.234-.564-.241-.558-.249-.552-.256-.544-.263-.538-.27-.532-.278-.524-.285-.517-.292-.51-.3-.5-.307-.5L203,156.6l-.321-.484-.328-.477-.337-.471-.343-.464-.351-.457-.358-.451-.365-.444-.372-.438-.38-.431-.387-.424-.395-.417.626-.591.4.427.4.436.39.441.382.449.375.456.367.462.359.469.353.476.345.482.337.489.329.5.322.5.314.51.308.516.3.523.292.529.284.537.276.543.269.55.262.557.254.564.247.57.238.576.232.583.224.59.216.6.209.6.2.61.194.618.187.624.178.63.172.636Zm0,0a.429.429,0,0,1-.31.522.433.433,0,0,1-.527-.307Z" transform="translate(-27.06-19.779)" fill="#29304d"/></g><g fill="none" stroke="#29304d" stroke-linejoin="round" stroke-linecap="round" stroke-width="2" stroke-miterlimit="22.926"><ellipse cx="8.574" cy="3.452" rx="8.574" ry="3.452" transform="translate(234.21 142.26)"/><ellipse cx="8.574" cy="3.452" rx="8.574" ry="3.452" transform="translate(198.38 141.73)"/><g fill-rule="evenodd"><path d="m249.45 166.67q9.86-7.963 18.686.488" transform="translate(-33.925-21.485)"/><path d="m290.92 163.41q16.777-38.475 20.409-22.04" transform="translate(-39.566-17.703)"/><path d="m226.05 163.19q-16.9-32.771-22.582-21.946" transform="translate(-27.672-18)"/></g></g><g fill-rule="evenodd"><g fill="#29304d"><path d="m271.33 63.2c-22.482-29.81-88.34 2.708-71.25 64.05a28.846 28.846 0 0 1 7.425 5.935q9.7-40.29 33-41.22c28.552 25.412 34.498-9.05 30.82-28.765" transform="translate(-26.831-5.582)"/><path d="M284.053 92.208a4.063 4.063 0 0 0 1.566 3.641q12.356 4.03 18.2 31.869.774 3.691 1.433 7.8a42.969 42.969 0 0 1 5.24 -4.664 14.739 14.739 0 0 1 2.957 -1.728c13.853-43.06-12.209-77.7-28.993-63.744 2.2 6.332 1.886 15.9-.4 26.828" transform="translate(-38.628-7.05)"/></g><g stroke="#29304d" stroke-linejoin="round" stroke-linecap="round" stroke-width="2" stroke-miterlimit="22.926"><g fill="none"><path d="M207.971,180.232a265.069,265.069,0,0,0-1.763,37.353" transform="translate(-28.03-23.986)"/><path d="m269.63 87.01c-1.179 28.475-32.5 23.28-55.909-35.59" transform="translate(-29.07-5.499)"/><path d="m269.34 88.24c-1.357 31.482-37.39 25.74-64.32-39.35" transform="translate(-27.882-5.135)"/><path d="m235.26 199.48c11.09 11.561 24.08 13.729 30.678 9.43" transform="translate(-31.995-26.749)"/><path d="m72.66 293.39c27.389-43.521 67.819-66.52 115.34-71.816m71.65 1.654c65.14 14.325 120.5 60.35 143.28 138.27" transform="translate(-9.881-29.92)"/><path d="m206.22 223.84c14.08 56.1 60.49 52.22 65.64 6.712" transform="translate(-28.05-30.25)"/></g><g transform="translate(191.68 218.67)"><path d="m237.82 263.14c85.15-11.51 135.19-12.7 160.26-5.678l-7.5.3q-43.774 5.41-74.97 96.07-.673-2.265-93.77-48.983c3.216-4.568 6.754-7.4 6.227-18.956-1.845-17.371 2.431-22.21 9.749-22.753" transform="translate(-221.85-253.11)" fill="#fff"/><path d="m236.55 264.43c13.586-1.99 31.672 6.6 31.635 24.3q63.717-34.66 131.9-30.6" transform="translate(-223.85-253.77)" fill="none"/></g><g fill="none"><path d="m300.54 263.54c15.08-4.692 41.62-9.753 56.761-10.332" transform="translate(-40.874-34.459)"/><path d="M285.539,272.276a10.319,10.319,0,0,0-2.957-4.449q3.888.757,9.349,4.485" transform="translate(-38.431-36.558)"/></g></g><path d="m374.98 408.93q24.56-9.04 40.3-22.717c-13.77-15.09-22.829-27.994-28.76-40.442l-1.625-39.16a17.861 17.861 0 0 0 -.543 -4.62q-23.3-20.12-70.974-20.454 2.184 10.09 14.286 12.588 7.462 2.144 14.513 4.363-17.18-4.8-38.889-4.251.68 6.069.68 6.069 3.337 1.01 6.683 2.042 2.343 3.922 8.4 8.8c-3.173 6.558 1.553 14.613 14.816 23.38l-.14.077c9.456 23.855 22.946 48.26 41.25 74.32" transform="translate(-41.25-38.526)" fill="#fff"/><g fill="none" stroke="#29304d" stroke-linejoin="round" stroke-linecap="round" stroke-width="2" stroke-miterlimit="22.926"><path d="m319.05 311.15c-4.1 8.465 4.97 19.425 28.567 31.19m-36.967-39.992q6.331 10.6 39.8 28.19m-8.275-32.05q-17.18-4.8-38.889-4.251.68 6.069.68 6.069 30.832 9.342 62.36 20.342m5.216-11.913q-19.786-7.688-43.877-14.611-12.1-2.5-14.286-12.588 47.677.33 70.974 20.454a15.365 15.365 0 0 1 -2.9 13.9q.9 8.13-7.02 10.563-.546 8.834-11.435 15.2" transform="translate(-41.25-38.526)"/><path d="m389.68 310.81l1.625 39.16c6.278 13.175 13.493 24.07 28.552 40.21m-40.09 22.948c-19.05-26.837-31.541-49.823-41.25-74.32" transform="translate(-46.04-42.727)"/></g><path d="m159.58 275.46q14.733 17.437 26.622 26.571a10.855 10.855 0 0 1 -7.9 3.93c9.906 12.458 17.361 22.458 19.726 26.684l-.755.665-.755.665c-2.791-2-8.156-6.829-15.04-13.44q-6.808 4.541-15.225.4c-.284 1.372-.22 3.286-1.748 3.627a57.6 57.6 0 0 1 -16.221 -3.148 23.148 23.148 0 0 1 -11.435 6.137c-3.617.534-7.629-.006-12.11-1.247a62.57 62.57 0 0 0 -12.64 16.319c2.874 3.674 12.257 14.2 8.81 18.759-1.985 2.63-7.716 2.064-15.2-.964a103.614 103.614 0 0 1 -21.859 -12.74 114.674 114.674 0 0 1 -14.311 -12.468c-7.36-7.679-11.289-14.6-9.825-18.17a3.349 3.349 0 0 1 .429 -.754c2.067-2.736 7.64-2.241 15.574 1.114q15.15-37.984 41.816-58.16 3.222.673 6.325 1.454l-17.812-19.9c-6.762-7.552 2.752-15.708 9.731-7.912l18.686 20.873-.007.006c4.288 4.831 8.69 9.885 13.08 15.01a72.218 72.218 0 0 1 12.044 6.686" transform="translate(-8.08-31.09)" fill="#fff"/><g fill="none" stroke="#29304d" stroke-linejoin="round" stroke-linecap="round" stroke-width="2" stroke-miterlimit="22.926"><path d="m136.96 264.79l7.945-7.124c3.809 4.291 8.927 10.175 12.832 14.713m31.16 37.654c9.881 12.43 17.317 22.4 19.678 26.625l-.756.665-.755.664c-6.179-4.425-21.581-19.75-28.1-26.3q-5.711-6.04-12.632-14.444" transform="translate(-18.626-35.1)"/><path d="m130.23 260.03l-17.191-19.2c-6.761-7.552 2.752-15.709 9.731-7.913l18.687 20.873" transform="translate(-15.06-31.09)"/><path d="m129.87 283.05q16.536 8.3 30.569 17.02 17.952 17.386 27.356 6.916-11.888-9.134-26.622-26.572c-7.131-5.1-19.614-10.6-34.557-14.467q-3.656-.946-7.494-1.752-32.607 24.676-47.993 75.97" transform="translate(-9.674-36.04)"/><path d="m136.78 306.12q12.762 6.458 24.97 12.648c11.685 13.585 22.02 17.557 30.24 12.411m-7.617-7.44a215.391 215.391 0 0 1 -18.07 -19.866" transform="translate(-18.603-41.732)"/><path d="m127.43 321.69c20.322 7.916 28.966 15.16 46.32 16.06 1.528-.34 1.464-2.255 1.748-3.626" transform="translate(-17.331-44.29)"/><path d="m115.08 335c12.08 5.04 21.615 8.8 29.344 7.658a23.155 23.155 0 0 0 11.436 -6.137" transform="translate(-15.65-46.2)"/></g></g><g stroke="#29304d" stroke-linejoin="round" stroke-linecap="round" stroke-width="2" stroke-miterlimit="22.926"><g fill="none"><path transform="translate(189.19 302.22)" d="M , 2.764,2.739"/><g fill-rule="evenodd"><path d="m75.72 331.62c-7.934-3.357-13.508-3.852-15.574-1.115-3.688 4.884 6.928 18.937 23.709 31.389s33.375 18.586 37.06 13.7c3.446-4.563-5.937-15.08-8.811-18.759" transform="translate(-8.08-45.3)"/><path d="m98.9 405.79c-3.408.267-8.6-1.185-14.639-3.936q1.912-14.785 1.911-14.785l-12.325 9.231c-2.83-1.71-5.69-3.7-8.575-5.839-16.78-12.451-27.07-25.466-23.708-31.388l16.06-28.27" transform="translate(-5.566-45.595)"/></g></g><g fill="#29304d" fill-rule="evenodd"><path d="m128.2 380.3c3.446-4.563-5.937-15.08-8.811-18.759a66.42 66.42 0 0 0 -6.393 17.8c7.489 3.02 13.219 3.591 15.204.959" transform="translate(-15.368-50.01)"/><path d="m69.54 349.42q2.8-9.345 6.178-17.805c-7.934-3.357-13.508-3.852-15.574-1.115l-.428.754c-1.465 3.565 2.464 10.487 9.824 18.17" transform="translate(-8.08-45.3)"/></g></g><g fill-rule="evenodd"><g fill="#29304d"><path d="m373.97 414.13c-7 6.01-10.653 11.4-9.03 14.3 1.707 3.047 8.841 2.643 18.365-.468q-4.881-6.97-9.337-13.832" transform="translate(-49.58-57.55)"/><path d="m420.18 388.18q4.988 6.289 10.993 12.922c6.562-5.775 9.934-10.912 8.361-13.72-1.766-3.152-9.335-2.611-19.354.798" transform="translate(-57.15-53.42)"/></g><path d="m373.97 409.99c-6.917 5.965-10.644 11.415-9.03 14.3 2.787 4.975 20.05.748 38.561-9.444s31.25-22.486 28.466-27.461c-1.774-3.166-9.269-2.653-19.354.8" transform="translate(-49.582-53.41)" fill="none" stroke="#29304d" stroke-linecap="round" stroke-linejoin="round" stroke-miterlimit="22.926" stroke-width="2"/></g><ellipse cx="9.386" cy="9.118" rx="9.386" ry="9.118" transform="translate(282.83 198.78)" fill="#fcf32a"/><ellipse cx="12.678" cy="12.568" rx="12.678" ry="12.568" transform="translate(93.28 158.96)" fill="#86e5c7"/><ellipse cx="3.771" cy="3.739" rx="3.771" ry="3.739" transform="translate(305.92 48.679)" fill="#5159be"/><path d="m219.34 246.01q29.494-8.821 46.987-3.094a52.95 52.95 0 0 0 5.38 -18.478c-9.684 10.03-20.773 15.6-29.822 12.191-18.843-7.1-26.292-24.808-31.691-54.791q-1.15-.8-2.224-1.608c-.931 8.35-1.53 16.53-1.762 24.1q-.083 3.543-.109 7.373.005 2.01.05 3.932.023.984.057 1.943c3.084 12.29 7.72 21.7 13.13 28.427" transform="translate(-28.03-23.986)" fill="#29304d" fill-rule="evenodd"/></svg>