<svg xmlns="http://www.w3.org/2000/svg"
	 viewBox="0 0 432 432" style="enable-background:new 0 0 432 432;">
<style type="text/css">
	.st0{fill:none;}
	.st1{fill:#29304D;stroke:#29304D;stroke-width:2;stroke-linecap:round;stroke-linejoin:round;stroke-miterlimit:22.926;}
	.st2{fill-rule:evenodd;clip-rule:evenodd;fill:#29304D;}
	.st3{fill-rule:evenodd;clip-rule:evenodd;fill:#5159BE;}
	.st4{fill-rule:evenodd;clip-rule:evenodd;fill:#86E5C7;}
	.st5{fill-rule:evenodd;clip-rule:evenodd;fill:#FCF32A;}
	
		.st6{fill-rule:evenodd;clip-rule:evenodd;fill:#FFFFFF;stroke:#29304D;stroke-width:2;stroke-linecap:round;stroke-linejoin:round;stroke-miterlimit:22.926;}
	.st7{fill:none;stroke:#29304D;stroke-width:2;stroke-linecap:round;stroke-linejoin:round;stroke-miterlimit:22.926;}
	.st8{fill:#29304D;}
	.st9{fill:none;stroke:#29304D;stroke-linecap:round;stroke-linejoin:round;stroke-miterlimit:22.926;}
	.st10{fill:#29304D;stroke:#29304D;stroke-width:2.315;stroke-linecap:round;stroke-linejoin:round;stroke-miterlimit:22.926;}
	.st11{fill-rule:evenodd;clip-rule:evenodd;fill:#FFFFFF;}
	.st12{fill:#86E5C7;}
	.st13{fill:#5159BE;}
</style>
<rect y="0" class="st0" width="432" height="432"/>
<ellipse transform="matrix(0.4256 -0.9049 0.9049 0.4256 -88.5871 376.9721)" class="st1" cx="252.6" cy="258.3" rx="7.4" ry="22.7"/>
<path class="st2" d="M11,322.1c2.3,0.1,4.2-1.6,4.3-3.9c0.1-2.3-1.6-4.2-3.9-4.3c-0.1,0-0.3,0-0.4,0
	c-2.3-0.1-4.2,1.6-4.3,3.9c-0.1,2.3,1.6,4.2,3.9,4.3C10.7,322.1,10.9,322.1,11,322.1z"/>
<path class="st2" d="M11,362.2c2.3-0.1,4-2,4-4.2c-0.1-2.3-2-4-4.2-4c-2,0.1-3.7,1.6-3.9,3.6
	c0.4,1.2,0.8,2.3,1.3,3.4C8.9,361.8,9.9,362.2,11,362.2L11,362.2z"/>
<path class="st3" d="M11,282.1c2.3,0.1,4.2-1.7,4.3-3.9c0.1-2.3-1.7-4.2-3.9-4.3c-0.1,0-0.2,0-0.4,0
	c-1.4,0-2.6,0.6-3.4,1.7c-0.3,0.9-0.5,1.7-0.8,2.6C6.9,280.4,8.8,282.1,11,282.1L11,282.1z"/>
<path class="st2" d="M31,302.1c2.3-0.1,4-2,4-4.2c-0.1-2.3-2-4-4.2-4c-2.2,0.1-4,1.9-4,4.1
	C26.8,300.3,28.7,302.2,31,302.1z"/>
<path class="st3" d="M31,382.2c2.3-0.1,4-2,4-4.2c-0.1-2.3-2-4-4.2-4c-2.2,0.1-4,1.9-4,4.1
	C26.8,380.4,28.7,382.2,31,382.2C31,382.2,31,382.2,31,382.2z"/>
<path class="st4" d="M31,342.1c2.3-0.1,4-2,4-4.2c-0.1-2.3-2-4-4.2-4c-2.2,0.1-4,1.9-4,4.1
	C26.8,340.3,28.7,342.2,31,342.1C31,342.1,31,342.1,31,342.1z"/>
<path class="st2" d="M31,262.1c2.3-0.1,4-2,4-4.2c-0.1-2.3-2-4-4.2-4c-2.2,0.1-4,1.9-4,4.1
	C26.8,260.3,28.7,262.1,31,262.1C31,262.1,31,262.1,31,262.1z"/>
<path class="st4" d="M51,242.1c2.3-0.1,4-2,4-4.2c-0.1-2.3-2-4-4.2-4c-2.2,0.1-4,1.9-4,4.1
	C46.8,240.3,48.7,242.1,51,242.1C51,242.1,51,242.1,51,242.1z"/>
<path class="st2" d="M51,402.2c2.3-0.1,4-2,4-4.2c-0.1-2.3-2-4-4.2-4c-2.2,0.1-4,1.9-4,4.1
	C46.8,400.4,48.7,402.2,51,402.2C51,402.2,51,402.2,51,402.2z"/>
<path class="st2" d="M51,362.2c2.3-0.1,4-2,4-4.2c-0.1-2.3-2-4-4.2-4c-2.2,0.1-4,1.9-4,4.1
	C46.8,360.4,48.7,362.2,51,362.2C51,362.2,51,362.2,51,362.2z"/>
<path class="st4" d="M51,282.1c2.3-0.1,4-2,4-4.2c-0.1-2.3-2-4-4.2-4c-2.2,0.1-4,1.9-4,4.1
	C46.8,280.3,48.7,282.1,51,282.1C51,282.1,51,282.1,51,282.1z"/>
<path class="st2" d="M71,302.1c2.3-0.1,4-2,4-4.2c-0.1-2.3-2-4-4.2-4c-2.2,0.1-4,1.9-4,4.1
	C66.8,300.3,68.7,302.2,71,302.1z"/>
<path class="st5" d="M71,382.2c2.3-0.1,4-2,4-4.2c-0.1-2.3-2-4-4.2-4c-2.2,0.1-4,1.9-4,4.1
	C66.8,380.4,68.7,382.2,71,382.2z"/>
<path class="st2" d="M71,262.1c2.3-0.1,4-2,4-4.2c-0.1-2.3-2-4-4.2-4c-2.2,0.1-4,1.9-4,4.1
	C66.8,260.3,68.7,262.1,71,262.1C71,262.1,71,262.1,71,262.1z"/>
<path class="st2" d="M91,322.1c2.3-0.1,4-2,4-4.2c-0.1-2.3-2-4-4.2-4c-2.2,0.1-4,1.9-4,4.1
	C86.9,320.3,88.7,322.2,91,322.1C91,322.1,91,322.1,91,322.1z"/>
<path class="st4" d="M91,402.2c2.3-0.1,4-2,4-4.2c-0.1-2.3-2-4-4.2-4c-2.2,0.1-4,1.9-4,4.1
	C86.9,400.4,88.7,402.2,91,402.2C91,402.2,91,402.2,91,402.2z"/>
<path class="st2" d="M91,282.1c2.3-0.1,4-2,4-4.2c-0.1-2.3-2-4-4.2-4c-2.2,0.1-4,1.9-4,4.1
	C86.9,280.3,88.7,282.1,91,282.1C91,282.1,91,282.1,91,282.1z"/>
<path class="st3" d="M111.1,302.1c2.3-0.1,4-2,4-4.2c-0.1-2.3-2-4-4.2-4c-2.2,0.1-4,1.9-4,4.1
	C106.9,300.3,108.8,302.2,111.1,302.1C111.1,302.1,111.1,302.1,111.1,302.1z"/>
<path class="st2" d="M111.1,382.2c2.3-0.1,4-2,4-4.2c-0.1-2.3-2-4-4.2-4c-2.2,0.1-4,1.9-4,4.1
	C106.9,380.4,108.8,382.2,111.1,382.2C111.1,382.2,111.1,382.2,111.1,382.2z"/>
<path class="st2" d="M131.1,322.1c2.3-0.1,4-2,4-4.2c-0.1-2.3-2-4-4.2-4c-2.2,0.1-4,1.9-4,4.1
	C126.9,320.3,128.8,322.2,131.1,322.1C131.1,322.1,131.1,322.1,131.1,322.1z"/>
<path class="st4" d="M131.1,282.1c2.3-0.1,4-2,4-4.2c-0.1-2.3-2-4-4.2-4c-2.2,0.1-4,1.9-4,4.1
	C126.9,280.3,128.8,282.1,131.1,282.1C131.1,282.1,131.1,282.1,131.1,282.1z"/>
<path class="st4" d="M171.1,282.1c2.3-0.1,4-2,4-4.2c-0.1-2.3-2-4-4.2-4c-2.2,0.1-4,1.9-4,4.1
	C166.9,280.3,168.8,282.1,171.1,282.1C171.1,282.1,171.1,282.1,171.1,282.1z"/>
<path class="st5" d="M151.1,302.1c2.3-0.1,4-2,4-4.2c-0.1-2.3-2-4-4.2-4c-2.2,0.1-4,1.9-4,4.1
	C146.9,300.3,148.8,302.2,151.1,302.1z"/>
<path class="st5" d="M191.1,302.1c2.3-0.1,4-2,4-4.2c-0.1-2.3-2-4-4.2-4c-2.2,0.1-4,1.9-4,4.1
	C186.9,300.3,188.8,302.2,191.1,302.1C191.1,302.1,191.1,302.1,191.1,302.1z"/>
<path class="st2" d="M151.1,262.1c2.3-0.1,4-2,4-4.2c-0.1-2.3-2-4-4.2-4c-2.2,0.1-4,1.9-4,4.1
	C146.9,260.3,148.8,262.1,151.1,262.1C151.1,262.1,151.1,262.1,151.1,262.1z"/>
<path class="st3" d="M171.1,242.1c2.3-0.1,4-2,4-4.2c-0.1-2.3-2-4-4.2-4c-2.2,0.1-4,1.9-4,4.1
	C166.9,240.3,168.8,242.1,171.1,242.1C171.1,242.1,171.1,242.1,171.1,242.1z"/>
<path class="st2" d="M211.1,282.1c2.3-0.1,4-2,4-4.2c-0.1-2.3-2-4-4.2-4c-2.2,0.1-4,1.9-4,4.1
	C206.9,280.3,208.8,282.1,211.1,282.1C211.1,282.1,211.1,282.1,211.1,282.1z"/>
<path class="st4" d="M191.1,262.1c2.3-0.1,4-2,4-4.2c-0.1-2.3-2-4-4.2-4c-2.2,0.1-4,1.9-4,4.1
	C186.9,260.3,188.8,262.1,191.1,262.1C191.1,262.1,191.1,262.1,191.1,262.1z"/>
<path class="st2" d="M211.1,242.1c2.3-0.1,4-2,4-4.2c-0.1-2.3-2-4-4.2-4c-2.2,0.1-4,1.9-4,4.1
	C206.9,240.3,208.8,242.1,211.1,242.1C211.1,242.1,211.1,242.1,211.1,242.1z"/>
<path class="st5" d="M231.1,262.1c2.3-0.1,4-2,4-4.2c-0.1-2.3-2-4-4.2-4c-2.2,0.1-4,1.9-4,4.1
	C226.9,260.3,228.8,262.1,231.1,262.1C231.1,262.1,231.1,262.1,231.1,262.1z"/>
<path class="st2" d="M251.1,282.1c2.3-0.1,4-2,4-4.2c-0.1-2.3-2-4-4.2-4c-2.2,0.1-4,1.9-4,4.1
	C247,280.3,248.8,282.1,251.1,282.1C251.1,282.1,251.1,282.1,251.1,282.1z"/>
<path class="st6" d="M181,183.5c-4.6,7.2-4.7,24.2-5.2,33.6c-13.8,29.1-23.9,32.8-53.6,10.6l16.9-68
	c-17.9-0.1-22.3-16.6-12.5-21.6c-10.4-19.4-6.3-37,12.3-52.8c33.2-25.2,64.1,14.2,73.5,50.9c3.1,0.1,6.3-0.3,9.3-1.3
	c6.3-1.9,8.3,4.7,0.8,7.6c-2.7,1-5.5,1.6-8.3,2c0,0.3,0.1,0.5,0.1,0.8l0,0c1.2,4.2,3.8,5.9,6.4,7.9c-1.5,1.6-3.3,2.9-5.4,3.8l5.5,1
	l-6.1,7.5l0,0C212.1,181.2,201.8,190.6,181,183.5L181,183.5z"/>
<path class="st7" d="M198.3,118.7c2.1-2.6,5.2-4.2,8.5-4.3"/>
<ellipse transform="matrix(0.9985 -5.561239e-02 5.561239e-02 0.9985 -6.7402 11.5072)" class="st8" cx="203.4" cy="126.9" rx="3" ry="3.6"/>
<path class="st7" d="M175.8,129c2.9,1,7.9,2.4,10.6,2.3c-3.3,1.5-11.3,1.6-15.5,1.6"/>
<path class="st2" d="M194.2,86.7c18.7-18.4,6.8-39-14.8-37.7c-21.7,0.4-47.2,8.8-65.7,36.9
	c-30.6,15.5-24.4,46.1,3.9,51.4c1.1,2.2,2.6,4.2,4.5,5.8c1.2-3.7,5-6.6,11.5-6.5c17.2-25.9,44.8-40.8,64-33.8
	C200.5,98.3,199.8,89.5,194.2,86.7L194.2,86.7z"/>
<path class="st7" d="M108.3,71.2c-11.6-4.1-6.8,15.3,5.6,14.6"/>
<path class="st7" d="M126.8,137.9c4.7-2.3,10.5-1.7,17.4,1.9"/>
<path class="st9" d="M131.8,143.2c5.7,1,10.8,4.5,13.8,9.5"/>
<path class="st7" d="M139.1,159.6c4.1-0.3,11.5-1.6,14.3-4.3"/>
<path class="st2" d="M173.5,116l-1.5,2.7c5.8-0.4,11.4,2.4,14.7,7.3c3.9,0.3,6.2-3.1,5.9-4.5
	C187.7,117,181.4,115.2,173.5,116L173.5,116z"/>
<path class="st2" d="M22.8,196.9c0.3,4.5-5,14.4-14.9,21.1c31.2-10.5,44.1-8.7,62.8,15.6c58.9,94.7,76,0,148.7-19
	c14.5-3.8-12.2-25.3-30.2-21.8c-3.5-5.3-14.3-10-24.7-5.1c-34.8,9.8-24.1-21.5-50.6-28.6c-8.4,7.4-2.1,14.8-8,16
	c-16.2,3.6-18.4,8-6.8,13.1c7.3,2.5-0.6,7.4-3.8,6.7C78.2,182.4,56.5,170.6,22.8,196.9L22.8,196.9z"/>
<path class="st6" d="M260.6,269c-3.8-1-7.6-2.3-11.1-4c-4.2-2-8.2-4.4-11.9-7.3C242.8,243.4,252,225,252,225
	c16.4-9.5,29.5-20.5,39.1-33.3c18.5-3.7,35-5.5,49.4-5.4c0.7,2.9,0.4,4.7-1.1,5.6c-4.1,1.7-8.4,3.2-12.8,4.2l-0.1,0.5
	c9.4-1.1,15.4-1.6,17.8-1.4c1,2.3,0.9,4.1-0.1,5.4c-12.4,3.7-22.9,6.9-30.9,9.3l-2.7,1.3c11.3-1,21.7-2.3,30.9-3.6
	c2,3.2,1.3,5.2-2.1,6.2c-5.7,1.6-11.6,2.7-17.5,3.4c-7.3,2.1-12.4,3.2-15.1,3.3l-0.7,2.2c3.8-0.5,7.6-0.4,11.3,0.4
	c5.1-1,9.4-1.1,12.8-0.4c0.6,1.5,0.4,2.5-0.4,3.1c-8.9,3.5-18.3,5.3-27.9,5.3c-14.6,11.5-25.3,17.1-32.1,16.8
	C267.1,249.1,262.1,260.4,260.6,269L260.6,269z"/>
<ellipse transform="matrix(0.9943 -0.1067 0.1067 0.9943 -40.7521 15.6219)" class="st10" cx="125.6" cy="388.7" rx="7.5" ry="24.1"/>
<path class="st2" d="M243.5,211.8c57.6-8.2,81.9-12.5,136.7-26.5c11.5,1.3,22.5,10.1,25.5-7.6
	c-2.3,3-5.3,5.4-7.9,0.4c-7.2-7.1-13.2-5.5-18.1,4.8c-51.4,6.3-75.6,10.6-136.5,26.6C240.8,210.5,241.4,211.8,243.5,211.8
	L243.5,211.8z"/>
<path class="st11" d="M289.4,204.9c14.7-2.2,28.5-8.5,34.5-15.2c6.7,6.4,1.3,15-13,21.5c-4.9,1.8-8.1,4.1-9.4,6.8
	c-8.5,12.8-17.6,17.8-27.5,14.9L289.4,204.9z"/>
<path class="st7" d="M289.4,204.9c14.7-2.2,28.5-8.5,34.5-15.2c6.7,6.4,1.3,15-13,21.5c-4.9,1.8-8.1,4.1-9.4,6.8
	c-8.5,12.8-17.6,17.8-27.5,14.9"/>
<path class="st7" d="M405.8,24.3v215.9 M405.8,256.4v13.7 M405.8,287.3v7.5"/>
<path class="st7" d="M232.1,88c-18.8,20-41.5,25.8-68.3,17.5c28.5,1.8,49.3-7.3,62.3-27.5"/>
<path class="st7" d="M197.2,129.4c4.9,6.1,15.6,8.5,25,5.2c6.3-1.9,8.3,4.7,0.8,7.6c-5.6,2-13.6,3.4-18.2,1.4"/>
<path class="st6" d="M192.6,373.6c-2.3,4.4-2.3,8.8,1.1,11.8c17.9,15.9,104.7-22.1,90.4-48
	c-14.1-25.6-80-14.5-106.5-2.4c-32.7,15.1-31.9,34.6,6.1,31.3C192,366.1,197.1,365.4,192.6,373.6L192.6,373.6z M183.1,355.3
	c6.1-1.5,10.4-5,9.7-7.8s-6.2-3.9-12.3-2.4s-10.4,5-9.7,7.8S177,356.8,183.1,355.3L183.1,355.3z"/>
<path class="st2" d="M219.4,360.3c-2.6,1.2-10,2.5-6,7.5c1.4,1.7,13.9,7.2,16.4,4.4c6.1-6.9,10.2-0.9,10.3-7
	c0.1-8.1-14.1-2.5-16.5-5.4C223,359.2,220,360.1,219.4,360.3L219.4,360.3z"/>
<path class="st2" d="M251.3,364.3c1.8-0.3,3.4-1.5,3.8-4.4c0.4-3,1.7-5.3-5.2-5.3c-1.4,0-9.6,0.8-6.7,4.1
	C244.8,360.4,242.1,365.9,251.3,364.3z"/>
<circle class="st12" cx="81.1" cy="145" r="11.1"/>
<circle class="st13" cx="279.4" cy="70.4" r="3.8"/>
<path class="st6" d="M171.9,354.5c2.9,1.6,6.9,1.6,11.1,0.8c3.6-3.1,7.5-5.8,11.6-8.1c11-8.4,11.1-19.2,3.8-22.7
	c-2.8,7.4-8.4,13.5-15.6,16.9c-3.7,2.1-7.1,4.6-10.2,7.5C170.5,351.6,170.2,353.5,171.9,354.5z"/>
<path class="st6" d="M123.3,405.4c-3.8-9.2-5.4-19.4-4.8-30.7c5.9,0.6,18.6-0.9,23.2-4.4c5-3.8,9.3-8.6,12.4-14
	c2.9,11.7,22.1,10.4,32.8,10c7.5-0.7,9.7,2,5.7,7.4c-3.1,6.4-1.6,11,4.3,13.8C185.2,394.8,149,404,123.3,405.4L123.3,405.4z"/>
<path class="st7" d="M123.1,364.9c-46.3,2.3-80.7-15-103-52"/>
</svg>
