<svg xmlns="http://www.w3.org/2000/svg" shape-rendering="geometricPrecision" image-rendering="optimizeQuality" fill-rule="evenodd" clip-rule="evenodd" viewBox="0 0 500 500"><circle fill="#fcf32a" cx="409.37" cy="140.75" r="22.09"/><circle fill="#5159be" cx="149.05" cy="222.76" r="13.04"/><circle fill="#86e5c7" cx="355.14" cy="420.13" r="9.742"/><g stroke="#29304d" stroke-linejoin="round" stroke-linecap="round" stroke-miterlimit="22.926"><path fill="#fff" stroke-width="2" d="m265.08 382.1c-2.682-46.717-12.02-84.43-24.305-92.62-12.305-.997-23.752-1.577-35.82-4.668v-82.33c-46.03-35.533-19.323-75.1-4.134-47.754-14.399-55.6 27-83.3 55.889-83.3 28.862 0 66.63 33.72 55.88 83.17 15.19-27.08 41.717 12.343-4.109 47.802v82.39c-6.409 1.65-14.733 2.986-24.305 3.873-15.535 21.698-18.12 67.67-19.1 93.44z"/><g fill="none"><path d="m188.93 159.59c5.856 2.391 10.133 11.274 12.831 26.649"/><path d="m324.32 159.59c-5.857 2.391-10.134 11.274-12.832 26.649"/></g><path fill="#29304d" stroke-width="2" d="m204.95 283.88c43.08-23.06 77.59-27.11 103.53-12.153v-69.26h-.017c-8.586 33.601-28.525 57.15-51.754 57.15-23.23 0-43.16-23.543-51.755-57.14v81.41z"/></g><path fill="#29304d" d="m193.26 146.57c2.73 1.669 5.271 4.054 7.625 7.155 2.466-15 5.73-29.06 12.487-38.926-2.517-.787-4.365-1.934-5.545-3.44 2.73.609 5.275.83 7.635.665.973-1.174 2.01-2.271 3.116-3.284-3.889-.85-7.03-2.499-9.435-4.948 4.606 1.403 9.02 2.067 13.232 1.991 3.474-2.274 7.523-3.859 12.275-4.598 16.989 10.524 42.08 18.39 63.796 13.244 4.942 9.399 8.672 23.464 14.14 40.16 2.112-3.704 4.399-6.264 6.86-7.68 2.046-16.232 1.251-30.08-1.652-41.689 10.605-8.341 18.883-22.08 22.63-43.23-17.408 13.05-31.904 9.496-48.692-5.922-18.561-15.225-58.806-14.756-57.01 15.563-1.49-4.203-1.79-8.07-.899-11.602-33.486-8.598-61.937 19.886-40.563 86.54"/><path fill="none" stroke="#29304d" stroke-width="2" stroke-linecap="round" stroke-linejoin="round" stroke-miterlimit="22.926" d="m302.53 152.59c-8.443-19.863-39.09-10.393-36.825 16.285.748 11.283 3.152 21.701 7.213 31.25 1.16 6.333-9.752 7.567-16.04-3.701"/><path fill="#29304d" d="m252.46 144.79c-8.708-1.915-16.554-3.24-23.77-6.246-4.072.366-7.691 2.735-10.857 7.107 6.58.431 9.87.646 9.87.646 8.84 7.721 16.353 10.737 22.536 9.05l2.221-10.553"/><path fill="none" stroke="#29304d" stroke-width="2" stroke-linecap="round" stroke-linejoin="round" stroke-miterlimit="22.926" d="m242.48 218.86c10.09 2.616 21.774 4.04 34.546-.658"/><g fill="#29304d"><ellipse cx="286.57" cy="160.08" rx="3.866" ry="5.922"/><ellipse cx="234.01" cy="160.08" rx="3.866" ry="5.922"/></g><g stroke="#29304d" stroke-linejoin="round" stroke-linecap="round" stroke-width="2" stroke-miterlimit="22.926"><path fill="none" d="m191.03 276.7c-1.204 17.221-10.627 33.887-23.824 33.887-58.33-.0001-115.59 33.27-139.19 95.26m446.02 19.526c-10.915-72.5-61.07-113.06-129.02-113.06-12.18-1.163-20.615-14.627-22.725-35.618"/><g fill="#29304d"><path d="m204.95 283.88v-15.281c-8.723 2.235-13.922 5.05-13.922 8.106 0 3.057 5.199 5.871 13.922 8.105v-.93z"/><path d="m308.48 271.73v13.06c8.664-2.23 13.824-5.03 13.824-8.08 0-3.047-5.16-5.851-13.824-8.08v3.102z"/></g><path fill="none" d="m265.08 382.1c.388 31.702.776 63.4 1.164 95.11"/><g fill="#29304d"><path d="m190.59 401.12c-4.7-7.21-9.488-11.12-13.362-10.1-4.255 1.112-6.567 7.937-6.827 17.961 6.922-2.803 13.652-5.422 20.19-7.858z"/><path d="m209.09 467.85c-7.201 1.809-14.468 3.869-21.799 6.179 10.844 18.441 21.512 15.02 21.799-6.179z"/></g><path fill="#fff" d="m303.65 374.41c5.991 12.288-6.798 20.377-38.37 24.267-4.724 1.221-8.631 2.738-11.723 4.552 7.148-.242 11.07-.29 11.777-.144.454 37.07.716 58.52.716 58.52-22.641 2.805-42.736 3.184-56.96 6.252-7.203 1.809-14.469 3.869-21.8 6.179-4.636-7.884-9.07-18.847-12.331-31.31-3.308-12.65-4.799-24.548-4.561-33.751 33.671-13.965 60.49-25.18 89.92-30.728 12.09-.811 30.05.696 43.33-3.842z"/><path fill="none" d="m177.22 391.01c-38.838 5.442-79.899 25.885-123.18 61.33"/></g><path fill="#29304d" d="m156.7 298.7c42.14 33.639 79.5 26.29 117.2 12.995-5.02 14.19-6.353 32.731-7.135 42.2-55.842 23.15-109.75 16.07-156.48-23.557-13.49-5.884-36.08 11.05-47.692 22.309 5.566-23.425 24.09-40.19 40.965-41.589 16-15.01 38.778-21.486 53.14-12.363"/><g fill="none" stroke="#29304d" stroke-linejoin="round" stroke-linecap="round" stroke-width="2" stroke-miterlimit="22.926"><path d="m443.26 354c12.626 2.372 12.63-7.454-2.679-17.42-19.295-12.563-43.06-19.805-65.772-24.12m-7.611-1.355c-13.04-2.275-20.828-4.242-19.406-16.14l7.694.909c-.585 4.899 4.492 6.107 13.241 7.635m7.927 1.417c24.04 4.522 47.924 12.38 68.45 25.372 14.448 9.143 24.88 29.405 2.834 29.515"/><path d="m366.71 313.65c.645-3.5 1.327-6.564 2.045-9.191.75-2.741.737-3.094 1.549-4.842l7.821 1.349c-.661 1.423-1.3 3.264-1.918 5.523-.648 2.373-1.28 5.225-1.894 8.555"/></g></svg>