<svg xmlns="http://www.w3.org/2000/svg"
	 viewBox="0 0 432 432" style="enable-background:new 0 0 432 432;">
<style type="text/css">
	.st0{fill:none;}
	
		.st1{fill-rule:evenodd;clip-rule:evenodd;fill:#FFFFFF;stroke:#29304D;stroke-width:2;stroke-linecap:round;stroke-linejoin:round;stroke-miterlimit:22.926;}
	.st2{fill:none;stroke:#29304D;stroke-width:2;stroke-linecap:round;stroke-linejoin:round;stroke-miterlimit:22.926;}
	
		.st3{fill-rule:evenodd;clip-rule:evenodd;fill:#29304D;stroke:#29304D;stroke-width:2;stroke-linecap:round;stroke-linejoin:round;stroke-miterlimit:22.926;}
	.st4{fill:none;stroke:#29304D;stroke-linecap:round;stroke-linejoin:round;stroke-miterlimit:22.926;}
	.st5{fill-rule:evenodd;clip-rule:evenodd;fill:#29304D;}
	.st6{fill:#FFFFFF;stroke:#29304D;stroke-width:1.8434;stroke-linecap:round;stroke-miterlimit:4.0008;}
	.st7{fill:#29304D;}
	.st8{fill:#5159BE;}
	.st9{fill-rule:evenodd;clip-rule:evenodd;fill:#FFFFFF;}
	.st10{fill:#86E5C7;}
</style>
<g transform="translate(0 2.196)">
	<rect x="-0.9" y="-5.8" class="st0" width="433" height="440"/>
	<path class="st1" d="M199.6,154.6c-7.3,20.4-10.7,40.7-10,60.8c4,19.3,20,30.1,34.2,26.5c9-2.2,17.1-10.2,20.9-25.3
		c-1.3-14.5,1.8-30,9.2-46.5L199.6,154.6z"/>
	<path class="st1" d="M199.6,151.2c-15.5-45.3,2.9-61,7.9-33.6c8.3-23.7,16.9-40.8,44.6-31.2s24,28.4,16.1,52.2v0
		c20.7-18.4,25.6,5.3-14.3,31.4l0,0c-10.7,15.1-25,23.1-36.9,19S198.9,169.8,199.6,151.2L199.6,151.2z"/>
	<path class="st2" d="M231.1,128.9c-6.8,0.1-11.2-1.7-13.1-5.5"/>
	<path class="st2" d="M244.2,133.5c5.3,4.3,9.9,5.6,13.7,3.8"/>
	<path class="st2" d="M262.8,128.7c-0.6-8.6-11.4-12.2-19.6-3.1c-5.5,6.6-8,17.1-8.1,29c0.7,3.8-5.2,6.6-8.4-1.2"/>
	<path class="st2" d="M215.6,162.3c6.2,6.9,13.2,9.3,20.9,7.3"/>
	<path class="st3" d="M215.1,379.4c6.3,11.6,8.5,22,4.6,24.8c-5,3.6-18-6-28.9-21.5s-15.7-30.9-10.7-34.5
		c2.4-1.7,5.8-0.9,10.8,2.5L215.1,379.4z"/>
	<path class="st4" d="M260.4,155.9c4.8-6.6,9.2-11.1,13.4-13.3"/>
	<path class="st4" d="M203.1,136c0.3-8.2-0.5-14.4-2.4-18.8"/>
	<path class="st2" d="M85.9,405.8C69,285.3,113.1,201.3,190.7,191.1 M246.2,195.2c72.9,17.2,108.9,85.6,94.9,215.1"
		/>
	<path class="st3" d="M273.4,358.6c-8.3,5.1-13.1,10.1-11.9,13.1c1.9,4.4,16.4,3,32.5-3.5s27.6-15.6,25.8-20.2
		c-1.5-3.7-10.1-3.7-22.2-0.1L273.4,358.6z"/>
	<path class="st5" d="M199.5,151.2c0,1.1,0.2,2.7,0,3.4c0.1,17,6.4,30.6,17.5,34.5c11.9,4.1,26.1-3.9,36.9-19l0,0
		l0,0c10.8-7.1,19.5-14.9,26.4-24.5c4.6-7.2,4.8-11.6,0.7-13.3c-2.5-0.3-6.8,1-12.8,6.4c1.2-28.2-31.9-24.4-35.8-47.7
		c-8.4,14.1-20.1,14.8-24.9,26.7C202.5,90.3,184.1,105.9,199.5,151.2L199.5,151.2z M294,128.4c-3.1,22.1-16.9,68.4,8.7,70.2
		c-19.1,13.5-38.1,16.2-58.3,12.4c0-2-0.1-3.8,0.1-5.7c-1.2-5.4-14.3-26-55,7.8c-0.1-5.5,0.1-11,0.6-16.5
		c-25.4-22.5-26.8-61.3-12.5-89.5C216,31.4,306,43.9,294,128.4L294,128.4z"/>
	<g transform="translate(236.901 37.345)">
		<path class="st1" d="M53.2,53.9c-0.1,0.2-0.1,0.3-0.2,0.4c-2.6,4.4-16.7,0.9-31.5-7.9s-24.7-19.5-22.1-24
			c0.1-0.1,0.2-0.3,0.3-0.4L13.2,3.2l49.6,30.6L53.2,53.9L53.2,53.9z"/>
		<path class="st6" d="M42.1,11.3C56,19.6,65.3,29.7,62.9,33.8s-15.7,0.8-29.5-7.4S10.2,8.1,12.6,3.9
			S28.3,3.1,42.1,11.3z"/>
		<path class="st5" d="M27.3,29.3l2.9,1.7l-2.4,4c1.1,0.6,2.2,1.2,3.3,1.8l-1.6,2.9c-1.1-0.6-2.2-1.2-3.3-1.9
			l-1.9,3.3l-2.9-1.7l2-3.4c-1.1-0.7-2.2-1.5-3.2-2.2c0.6-1,1.3-2.1,1.8-2.8c1,0.7,2,1.4,3,2.1L27.3,29.3L27.3,29.3z"/>
	</g>
	<path class="st2" d="M188.7,199.4c-10.9,6.2-11.9,17.4-11.7,22.7c1,23.4,26,39.6,46.6,36.3c2.8-0.4,5.5-1.1,8.1-2.1
		 M239.5,252.2c4.5-3,8.2-7,10.8-11.6 M252.9,233.7c2-8.6,0.3-19.5-7.7-31.3"/>
	<line class="st2" x1="223.6" y1="258.4" x2="223.8" y2="241.9"/>
	<path class="st2" d="M221.1,258.7c-1.5,15.5-0.7,29.5,2.4,42.2"/>
	<ellipse class="st7" cx="217.6" cy="249.4" rx="2.4" ry="2.6"/>
	<ellipse class="st7" cx="212.8" cy="276.1" rx="2.4" ry="2.6"/>
	<ellipse class="st7" cx="214.6" cy="299.1" rx="2.4" ry="2.6"/>
	<path class="st2" d="M148.2,376.7c-2.8-4.9-5.7-2.9-8.6,5.9c0.7-10.2-1.5-11.5-6.4-3.9c3.3-6.3,2.1-8.6-2.7-6.6"/>
	<path class="st8" d="M320.5,253.7c2-4.3,4.1-6.4,8.1-6.4c4.6,0.1,8.2,3.9,8.1,8.5c0,8.5-8.1,17-16.3,25.5
		c-8.1-8.5-16.3-17-16.3-25.5c-0.1-4.6,3.5-8.4,8.1-8.5C316.4,247.3,318.5,249.4,320.5,253.7z"/>
	<path class="st9" d="M297.7,347.9c-12.1-14.6-19.3-27-21.5-37c2.7-3.7,6-7,9.7-9.8c0-0.1,0-2.1,0-6.1
		c-0.5-0.7-1.2-1.3-2-1.8c2-2.2,3.6-4.8,4.8-7.5l-1.6-5.7c-0.4-0.4-0.9-0.8-1.5-1c0.7-1.6,1.3-2.9,2-4.2c-0.3-3.9-2.2-7.5-5.3-9.9
		c-0.8,0-1.5,0-2.3,0.1c0-2,0-3.5,0-5.3c2.9-1.8,6.1-3.6,9.4-5.4c4.9-3.4,7.2-7.5,7.1-12.6c-5.9,1.8-11.7,4.1-17.3,6.8
		c-0.2-1.9-0.7-3.8-1.6-5.5c-2.8,1.5-4.6,4.6-5.6,9.2c-1.3,0.7-2.6,1.4-3.9,2.2c-5.8-6.9-11.1-14.1-15.8-21.8
		c-3.1,4.2-2.7,9.2,1.3,14.9c4.4,6.6,6.7,10.4,6.9,11.4c-0.5,0.3-0.9,0.6-1.4,0.9c-9.8-3.2-20.7-8.2-30-12.6c-1,5.9,1.8,10,8.6,12.4
		l12.4,6.1c-9.1-0.5-18.1-2.1-26.8-4.7c-1.2,6,6.2,10,22.2,12c-4.7,7.5-11.5,16.1-20.4,25.8c-9.7,12.3-30.5,45-43.1,67
		c2.6,5.9,5.8,11.6,9.6,16.9c4.5,6.5,9.8,12.3,16,17.3c0.6,0.5,1.2,0.9,1.8,1.3c8.1-34.2,12.6-48.3,31.5-81.6c3.3-0.1,6.5-1,9.4-2.5
		c12,15.7,21.7,37.1,29.2,55.8c5-1.2,9.9-2.8,14.7-4.8c5.2-2.1,10.2-4.6,14.9-7.5c0.4-0.3,0.9-0.5,1.3-0.8c-0.4-0.1-0.8-0.1-1.3-0.2
		C304.9,356,301.1,352.1,297.7,347.9z"/>
	<path class="st2" d="M285.6,279.1c0.7-1.6,1.3-2.9,2-4.2c-0.3-3.9-2.2-7.5-5.3-9.9c-4-0.1-9.5,1.2-16.7,3.9
		c6.4-4.4,14.4-9.3,23.7-14.5c4.9-3.4,7.2-7.5,7.1-12.6c-12.9,3.7-28.6,11.9-47.1,24.4c-4.4,8.9-12.4,19.7-24.2,32.5
		c-12,15.2-27.3,38.3-43.4,68c6.1,13.7,15.5,25.6,27.3,34.8"/>
	<path class="st2" d="M267,280.3c9.4-2.8,17.2-3.1,20-0.2l1.6,5.7c-1.2,2.7-2.8,5.2-4.8,7.5"/>
	<path class="st2" d="M279.3,301c-5.2,0.5-10.3,2.1-14.8,4.6c-8.8,9.4-16.7,14-23.7,14
		c-13.9,24.5-24.7,49.4-31.5,81.6 M267,292.2c9.3-1.5,16.8-0.4,18.9,2.8c0,4,0,6,0,6.1c-3.7,2.7-7,6.1-9.7,9.8"/>
	<path class="st2" d="M275.7,301.6c-2,13.4,9.9,33.1,33.9,58.6"/>
	<path class="st2" d="M250.2,317.1c9.4,12.3,19.8,31.1,29.7,55.7c11.8-2.3,21.3-6.4,29.4-12.4"/>
	<path class="st2" d="M268,254.5c-5.8-6.9-11.1-14.1-15.8-21.8c-3.1,4.2-2.7,9.2,1.3,14.9c4.4,6.6,6.7,10.4,6.9,11.4
		"/>
	<path class="st2" d="M259.1,259.9c-9.8-3.2-20.7-8.2-30-12.6c-1,5.9,1.8,10,8.6,12.4l12.4,6.1
		c-9.1-0.5-18.1-2.1-26.8-4.7c-1.2,6,6.2,10,22.2,12"/>
	<path class="st2" d="M280,265.1c0-2,0-3.5,0-5.3 M279.1,248.7c-0.2-1.9-0.7-3.8-1.6-5.5c-2.8,1.5-4.6,4.6-5.6,9.2"
		/>
	<ellipse class="st10" cx="170.9" cy="165.9" rx="8.1" ry="8.1"/>
	<line class="st4" x1="231" y1="13.3" x2="231" y2="49.6"/>
	<line class="st4" x1="207.7" y1="36.5" x2="210.7" y2="52.5"/>
	<path class="st4" d="M179.7,30.9l1.1,2.8 M182.6,38.1l3.8,9.1 M191.8,60.2l2.7,6.5"/>
	<path class="st4" d="M138.9,29.9l6.4,8.8 M151.7,47.4l16.5,23.2 M172.9,77.1l8.4,11.7"/>
	<path class="st4" d="M115.2,64.8l10.8,8.8 M138,83.4l25.2,20.5 M315,225.9l12.3,9.9"/>
	<path class="st4" d="M84.6,103.9l35.2,12.8 M134,121.9l8.8,3.2 M336.4,197.6l15.8,5.9"/>
	<path class="st4" d="M92.8,158.2h11.5 M126.9,158.2h28.6 M297.8,157.8h14.9 M328.3,157.8h15 M351.6,157.8h11.2"/>
	<path class="st4" d="M102.6,206.3l43.1-16.1 M322.5,124l7.9-3 M345.3,115.5l14.1-5.3"/>
	<path class="st4" d="M314.3,100.8l8.7-7.1 M337.8,81.7l9.4-7.6"/>
	<path class="st4" d="M311.2,65.5l12-16.4 M330.8,38.6l6.3-8.6"/>
	<line class="st4" x1="283.3" y1="39.1" x2="289.3" y2="24.9"/>
	<line class="st4" x1="254.5" y1="32.3" x2="259.1" y2="8.2"/>
</g>
</svg>
