<?xml version="1.0" encoding="utf-8"?>
<!-- Generator: Adobe Illustrator 24.1.2, SVG Export Plug-In . SVG Version: 6.00 Build 0)  -->
<svg version="1.1" id="Слой_1" xmlns="http://www.w3.org/2000/svg" xmlns:xlink="http://www.w3.org/1999/xlink" x="0px" y="0px"
	 viewBox="0 0 432 432" style="enable-background:new 0 0 432 432;" xml:space="preserve">
<style type="text/css">
	.st0{fill:none;}
	
		.st1{fill-rule:evenodd;clip-rule:evenodd;fill:#FFFFFF;stroke:#29304D;stroke-width:2;stroke-linecap:round;stroke-linejoin:round;stroke-miterlimit:22.926;}
	.st2{fill-rule:evenodd;clip-rule:evenodd;fill:#29304D;}
	.st3{fill:none;stroke:#29304D;stroke-width:2;stroke-linecap:round;stroke-linejoin:round;stroke-miterlimit:22.926;}
	.st4{fill:#86E5C7;}
	.st5{fill:#FCF32A;}
	.st6{fill:#29304D;stroke:#29304D;stroke-width:3.121;stroke-linecap:round;}
	.st7{fill:#29304D;stroke:#29304D;stroke-width:3.073;stroke-linecap:round;}
	.st8{fill:#5159BE;}
	.st9{fill:none;stroke:#29304D;stroke-linecap:round;stroke-linejoin:round;stroke-miterlimit:22.926;}
</style>
<g id="Слой_x0020_1" transform="translate(0 2.196)">
	<g id="_1817549180944" transform="translate(0 -2.196)">
		<rect id="Rectangle_1058" x="0.8" class="st0" width="432" height="432"/>
		<path id="Path_3244" class="st1" d="M199.4,252.4c-36.3,19.4,11.4,54,65.6,8l16.2-52c43.7-5.2,40.4-46,33-62.4
			c-7.8-17.3-41.3-19.2-74.7-4.3c-3.5,1.5-6.8,3.2-10,5c-6.7-3.1-12.4-7.9-16.4-14c-5.7-7.7-10.2-1.2-8.3,4.5
			c2.2,6.4,8.1,13,13.1,16.9c-20.1,14.5-30.7,32.7-24.8,45.9c3.2,7,11.9,12.5,23.4,15.6C229.6,216.6,214.7,247.1,199.4,252.4z"/>
		<path id="Path_3245" class="st2" d="M367.6,64.6c-7.7,0-13.9-17.1-13.9-38.2c0,21.1-6.2,38.2-13.9,38.2c7.7,0,13.9,17.1,13.9,38.2
			C353.7,81.7,359.9,64.6,367.6,64.6z"/>
		<path id="Path_3246" class="st2" d="M102.9,107.8c-9,0-16.3-20.2-16.3-45.1c0,24.9-7.3,45.1-16.3,45.1c9,0,16.3,20.2,16.3,45.1
			C86.6,128,93.9,107.8,102.9,107.8z"/>
		<path id="Path_3247" class="st3" d="M229.6,146.7c6,2.5,14.2,2.5,18.6-1.4"/>
		<path id="Path_3248" class="st2" d="M284.9,175c15-12.5,22.2-28.9,5.2-32.2c-10.4-0.4-12.1-3.5-5-9.2c-5.1-1.1-8.6-1.7-13.6-1.2
			c-1.9-25.6,45.5-44.4,66.1-8.3c18.8,30.1,33.7,13.8,34.3-19.1c0.9,1,1.9,2,2.8,3l0,0c9,34.3,3,54.7-18.2,61.1
			c-9.8,1.3-10.4-7.5,0.3-7.5c23-3.6,34.4-16,34.3-37l0,0c5.9,14.5,5.5,29.6-1.2,45.3c-8.1,10.1-15.2-3.5-3.8-7.3
			c12.2-4.3,16.9-9.3,21.3-16.7c3.5,6.7,5.5,13.7,4.9,21.2c-13.4,88.8-131.6,108.9-150.4,34.2c55.8,7.8,56-32.8,14.5-13.3
			C276.7,182.7,279.8,179.2,284.9,175z"/>
		<path id="Path_3249" class="st3" d="M205.2,165c1.4,5.4,6.1,10.2,14,14.4"/>
		<path id="Path_3250" class="st3" d="M251,152.7c-0.5,3.4,2.6,7,9.1,11"/>
		<path id="Path_3251" class="st3" d="M243.8,143.5c-3.3-1.5-4.7-5.4-3.2-8.6c0.1-0.1,0.1-0.3,0.2-0.4"/>
		<ellipse id="Ellipse_614" class="st4" cx="59.4" cy="89.2" rx="6.3" ry="6.1"/>
		<ellipse id="Ellipse_615" class="st5" cx="289.3" cy="336.1" rx="8.1" ry="7.9"/>
		<g id="Group_3545" transform="translate(102.294 11.664)">
			<path id="Path_3265" class="st6" d="M8.4,24c4.2-1.2,11.8,11.7,16.9,28.8s5.8,32.1,1.6,33.3C22.7,87.3,15.1,74.4,10,57.3
				S4.2,25.2,8.4,24z"/>
			<path id="Path_3252" class="st1" d="M16.3,73.8C10.6,62.3,8,49.6,5.9,37.6c18.8-4.4,36.3-6.2,57.9-6.3
				c30.8-3.7,61.2-16,88.1-31.2c3.5,5.7,0.8,10.4-8.2,14c-5.1,2.6-9.8,5.9-14,9.8c1.1,1.3,2.1,2.6,3,4c18.4-4.5,34-5.7,46.8-3.7
				c0,4.5,0.1,6.7,0.4,6.7c-12.2,2.1-26.6,4-42.9,5.7c0.3,0.8,0.6,1.7,0.8,2.6c20.5,1,37.3,0,50.4-3.1c3.8,7.8-2.7,12.8-19.4,14.8
				c-12.8,0.4-22.5,0.7-29.1,0.8c0,1.5,0,3,0,4.6c15.3,6.4,29.1,10.7,41.2,12.7c-1.9,5.8-9.7,7.6-23.3,5.4
				c-27.6-10.6-44.1-10.9-49.6-0.8c-0.7,6.1,1.9,11,7.9,14.5c5.6,6.2,6.4,13.2,2.7,20.9c-11.3-14.2-29.3-42.2-49.8-41.9
				C47.6,67.3,32.7,69,16.3,73.8z"/>
		</g>
		<g id="Group_3551" transform="translate(25.16 241.015)">
			<path id="Path_3266" class="st7" d="M200.5,100.5c5.6,1.3,6.2,18.5,1.4,38.4s-13.3,34.9-18.9,33.5c-5.6-1.3-6.2-18.5-1.4-38.4
				C186.4,114.2,194.9,99.2,200.5,100.5z"/>
			<g id="Group_3550">
				<g id="Group_3546" transform="translate(22.501 11.659)">
					<path id="Path_3253" class="st1" d="M78.4,23.4c5.8,4.5,14,3.5,18.6-2.3c4.4-5.7,3.3-13.9-2.4-18.3c0,0-0.1-0.1-0.1-0.1
						c-5.8-4.5-14-3.5-18.6,2.3c-4.4,5.7-3.3,13.9,2.4,18.3C78.3,23.3,78.4,23.4,78.4,23.4z"/>
					<path id="Path_3254" class="st1" d="M6,116.5c5.8,4.5,14,3.5,18.6-2.3c4.4-5.7,3.3-13.9-2.4-18.3c0,0-0.1-0.1-0.1-0.1
						c-5.8-4.5-14-3.5-18.6,2.3c-4.4,5.7-3.3,13.9,2.4,18.3C5.9,116.5,6,116.5,6,116.5z"/>
				</g>
				<g id="Group_3547" transform="translate(11.761 22.305)">
					<path id="Path_3255" class="st1" d="M24.4,21.1c4.5-5.7,3.5-13.8-2.2-18.3c0,0-0.1-0.1-0.1-0.1C16.3-1.7,8-0.6,3.6,5.2
						C-0.9,10.9,0.1,19,5.7,23.5c0,0,0.1,0.1,0.1,0.1C11.7,28,19.9,26.9,24.4,21.1z"/>
					<path id="Path_3256" class="st1" d="M118.3,92.8c4.5-5.7,3.5-13.8-2.2-18.3c0,0-0.1-0.1-0.1-0.1c-5.8-4.4-14.1-3.3-18.5,2.5
						c-4.5,5.7-3.5,13.8,2.2,18.3c0,0,0.1,0.1,0.1,0.1C105.6,99.7,113.9,98.6,118.3,92.8z"/>
				</g>
				<g id="Group_3548" transform="translate(50.99)">
					<path id="Path_3257" class="st1" d="M15.8,25.9c7.1-1.1,12-7.7,10.9-14.9C25.6,4,18.9-0.9,11.8,0.2C4.8,1.3,0,7.7,0.9,14.7
						C1.9,21.9,8.5,26.9,15.8,25.9C15.7,25.9,15.8,25.9,15.8,25.9z"/>
					<path id="Path_3258" class="st1" d="M31,142.5c7.1-1.1,12-7.7,10.9-14.9c-1.1-7.1-7.7-12-14.9-10.9c-7,1.1-11.8,7.5-10.9,14.5
						C17.1,138.5,23.8,143.5,31,142.5C31,142.5,31,142.5,31,142.5z"/>
				</g>
				<g id="Group_3549" transform="translate(0 50.547)">
					<path id="Path_3259" class="st1" d="M118.5,14.9c-0.9-7.2,4.2-13.7,11.4-14.6c7.2-0.9,13.7,4.2,14.6,11.4
						c0.9,7.2-4.2,13.7-11.3,14.6C126,27.2,119.5,22.2,118.5,14.9C118.5,14.9,118.5,14.9,118.5,14.9z"/>
					<path id="Path_3260" class="st1" d="M0.9,30C0,22.8,5.1,16.3,12.3,15.4S26.1,19.6,27,26.8c0.9,7.2-4.2,13.7-11.3,14.6
						C8.4,42.4,1.8,37.3,0.9,30C0.9,30.1,0.9,30,0.9,30L0.9,30z"/>
				</g>
				<path id="Path_3261" class="st1" d="M36.4,118c26.4,20.2,64,15.6,84.1-10.2s14.9-63-11.5-83.2S45,9,24.9,34.8S10,97.9,36.4,118z
					 M40.8,112.4c23.2,17.7,56.3,13.7,74-9s13.1-55.4-10.1-73.2s-56.3-13.7-74,9S17.6,94.7,40.8,112.4L40.8,112.4z"/>
			</g>
			<path id="Path_3262" class="st1" d="M195.3,158.5c5.1-11.8,8.4-24.4,9.6-37.3c0,0-15.8-3.5-33.9-9.4
				c-9.4-6.9-14.9-19.1-16.5-36.5c-25.5-8.7-50.3-19.3-74.2-31.7c-3.9,8.3,0.3,14.5,12.8,18.6c10.3,8.2,21.7,15,33.8,20l-30.7-11
				c-14-1.1-25.9-2.1-35.8-2.9c-1.8,2.6-1.5,6,0.6,8.3c14.7,5.6,26.7,9.3,36.3,11.1c13.9,6.3,21.6,9.7,23,10.3
				c-14.9-2.9-25.4-5.2-31.6-7c-10.9-4.9-19.1-8-24.7-9.3L61.4,86c11.2,12.4,28.6,21.8,52,28.1c-10.7,0.9-20.2-0.2-28.6-3.3
				c-9.1-5.3-15.7-7.6-19.8-6.8c4.6,6.6,12.3,13.4,23.3,20.6c21.3,9.3,39.2,15.1,53.8,17.4C164,145.4,166.6,150.1,195.3,158.5
				L195.3,158.5z"/>
		</g>
		<path id="Path_3263" class="st3" d="M422.4,378.3c-31.6-42.2-80.1-80.9-146.5-112.9c-2.7-1.3-8.1-3.7-10.8-4.9 M212.1,242.6
			c-33.6-8.6-75.1-15.6-125-21.1c-79.8-8.8-76.6-110.5,42.1-123.8"/>
		<ellipse id="Ellipse_618" class="st8" cx="333.2" cy="298.5" rx="17.2" ry="16.7"/>
		<path id="Path_3264" class="st9" d="M275.2,197.5c5.9-4.3,11.2-6.9,15.9-7.9"/>
	</g>
</g>
</svg>
