<svg xmlns="http://www.w3.org/2000/svg" shape-rendering="geometricPrecision" image-rendering="optimizeQuality" fill-rule="evenodd" clip-rule="evenodd" viewBox="0 0 500 500"><circle fill="#fcf32a" cx="310.76" cy="116.83" r="31.01"/><circle fill="#86e5c7" cx="94.94" cy="175.95" r="13.768"/><circle fill="#5159be" cx="71.965" cy="372.5" r="11.929"/><g stroke="#29304d" stroke-linejoin="round" stroke-linecap="round" stroke-width="2" stroke-miterlimit="22.926"><path fill="#fff" d="m162.71 309.2l-11.901-65.71c-47.01-11.636-54.38-49.5-28.1-38.17l.033.039c-22.994-37.22-28.699-81.03 12.607-103.27 41.923-22.572 75.33 6.04 93.62 45.618 5.422-28.467 34.492 1.654 14.28 50.19l-.038-.131c.52 4.222.859 8.393 1.012 12.472l16.275 87.32c6.074.274 12.07.763 17.995 1.456 4.377 3.254 6.823 6.887 6.823 10.721 0 14.821-23.656 24.03-51.83 27.17v.005c.841 9.539 1.86 22.12 2.847 36.861-4.956-13.279-10.736-25.21-17.339-35.796l-.002-.003c-34.38 1.278-70.58-6-77.2-22.632 7.05-2.259 14.02-4.306 20.923-6.142z"/><path fill="#29304d" d="m194.23 83.5c6.331 4.78 12.48 11.03 18.215 18.966 4.394-2.546 8.591-5.49 12.589-8.833-1.412 4.393-3.254 8.46-5.442 12.221 5.612 1.706 11.424 1.555 17.434-.452-4.073 6.743-8.552 11.969-13.408 15.942 2.817 5.783 5.457 12.12 7.868 19.09-1.295 2.413-2.137 4.839-2.524 7.277-1.014 3.657-2.978 6.681-7.308 3.315-3.451-7.167-7.608-14.398-12.471-21.693-5.795 1.947-11.979 2.768-18.522 2.756-21.972 10.789-49.04 11.44-68.18 2.935-14.302 10.442-11.05 31.741 7.815 66.38-.15 4.211-2.216 4.857-7.587 3.919-1.733-.766-3.506-1.348-5.318-1.748-31.17-41.707-40.16-78.53-15.912-96.33.624-39.842 63.971-69.43 92.74-23.773l.015.023z"/></g><g fill="#29304d"><ellipse transform="matrix(.88049-.47407.47407.88049 155.21 182.59)" rx="5.25" ry="7.05"/><ellipse transform="matrix(.88049-.47407.47407.88049 197.8 159.66)" rx="5.25" ry="7.05"/></g><g fill="none" stroke="#29304d" stroke-linejoin="round" stroke-linecap="round" stroke-miterlimit="22.926"><g stroke-width="2"><path d="m181.37 234.27c18.22-.089 32.941-6.709 39.43-21.06"/><path d="m207.29 144.84c-19.532-17.18-32.16 8.161-23.96 28.799 4.604 11.592 12.982 21.593 26.325 27.17 1.062 10.02-12.904 15.72-24.819 2.63"/></g><path d="m143.56 232.14c-8.826-10.504-17.02-16.654-24.585-18.45"/><path d="m238.01 179.75c-3.589-10.652-3.778-21.339-.568-32.06"/></g><path fill="#29304d" d="m157.56 156.92c-17.534 3.694-25.67 17.12-20.647 26.576 2.626-10.637 11.838-16.732 24.831-17.799 1.545-1.016-.942-7.327-4.184-8.777"/><g stroke="#29304d" stroke-linejoin="round" stroke-linecap="round" stroke-width="2" stroke-miterlimit="22.926"><path fill="#fff" d="m300.13 310.48c-11.826-42.55-20.591-70.1-26.294-82.65 10.882-2.59 19.614 3.232 26.2 17.465 2.865 10.515 7.112 17.196 12.741 20.04 5.822-3.627 8.733-5.441 8.733-5.441 4.02-43.681 11.465-75.22 22.332-94.63 5.393-2.344 8.743-2.149 10.05.584-2.579 29.2-3.553 49.94-2.922 62.23 2.836.252 5.601.669 8.294 1.248 11.136-33.887 21.519-54.32 31.15-61.29 5.01-.557 8.272 1.197 9.788 5.259-10.1 26.38-17.447 47.526-22.05 63.44.822.49 1.635 1 2.44 1.533 9.276-12.399 17.226-25.1 23.846-38.09 2.203-5.072 5.076-8.334 8.619-9.788 4.967 2.046 7.451 3.068 7.451 3.068-3.876 25.559-12.283 44.854-25.22 57.885 1.365 1.58 2.696 3.24 3.992 4.98 5.447-3.347 12.04-8.719 19.764-16.12 9.906-14.645 18.04-18.249 24.396-10.811-7.88 18.725-19.03 33.626-33.452 44.702-18.756 34.22-27.814 51.51-27.17 51.861l23.706 53.912c-6.074 5.092-17.297 10.897-30.713 15.456-11.317 3.846-21.937 6.04-29.737 6.43l-32.21-76.967c-9.271-8.785-12.03-12.02-13.732-14.316z"/><g fill="#29304d"><path d="m346.07 401.76l-5.551-13.265c-5.228 3.772-7.965 7.294-7.101 9.835.908 2.674 5.64 3.78 12.652 3.43z"/><path d="m401.47 368.39l5.05 11.485c3.657-3.065 5.447-5.873 4.726-7.995-.778-2.29-4.36-3.43-9.776-3.49z"/><path d="m162.71 309.2l-1.16-6.403-1.989-10.98c-11.708 4.251-18.848 10.283-18.848 17.917 0 1.975.371 3.844 1.074 5.608 7.05-2.259 14.02-4.306 20.923-6.142zm96.43-18.909l1.354 7.266c6.072.279 12.07.764 17.995 1.456-4.553-3.386-11.197-6.361-19.349-8.722zm-.634-3.399l-14.286-76.64c.955 25.495-5.392 47.38-20.693 55.616-17.726 9.544-43.939-1.129-67.22-21.18l.017.019c-1.894-.361-3.731-.764-5.512-1.204l10.74 59.3c39.714-29.66 72.03-34.962 96.96-15.905z"/></g><g fill="none"><path d="m333.42 398.33c6.795 33.814 18.988 64.973 36.577 93.48"/><path d="m410.27 370.48c14.1 15.09 28.456 32.974 42.514 52.842"/><path d="m51.09 342.11c30.3-28.837 66.17-47.35 107.29-56.756m99.42-4.797c12.333 1.485 23.507 3.449 35.672 6.441m89.59 37.954c20.226 12.788 38.757 28.06 55.03 45.958"/><path d="m236.32 373.78c3.602 48.701 8.16 90.78 13.675 126.22"/></g><g fill="#29304d"><circle cx="257.07" cy="397.19" r="9.15"/><circle cx="267.65" cy="466.42" r="9.15"/></g><path fill="none" d="m42.572 371.69c25.27-31.364 59.01-54.51 99.52-67.53"/></g></svg>