<svg xmlns="http://www.w3.org/2000/svg"
	 viewBox="0 0 432 432" style="enable-background:new 0 0 432 432;">
<style type="text/css">
	.st0{fill:none;}
	.st1{fill-rule:evenodd;clip-rule:evenodd;fill:#FFFFFF;}
	.st2{fill:none;stroke:#29304D;stroke-width:2;stroke-linecap:round;stroke-linejoin:round;stroke-miterlimit:22.926;}
	.st3{fill:#29304D;}
	.st4{fill-rule:evenodd;clip-rule:evenodd;fill:#29304D;}
	.st5{fill:none;stroke:#29304D;stroke-linecap:round;stroke-linejoin:round;stroke-miterlimit:22.926;}
	.st6{fill-rule:evenodd;clip-rule:evenodd;fill:#29304D;stroke:#29304D;stroke-width:0.567;stroke-miterlimit:22.926;}
	.st7{fill:#FCF32A;}
	
		.st8{fill-rule:evenodd;clip-rule:evenodd;fill:#FFFFFF;stroke:#29304D;stroke-width:2;stroke-linecap:round;stroke-linejoin:round;stroke-miterlimit:22.926;}
	.st9{fill:#86E5C7;}
	.st10{fill:#5159BE;}
	.st11{fill-rule:evenodd;clip-rule:evenodd;fill:#29304D;stroke:#2B2A29;stroke-width:0.567;stroke-miterlimit:22.926;}
</style>
<g transform="translate(0 2.196)">
	<rect y="-2.5" class="st0" width="432" height="440"/>
	<path class="st1" d="M131,263.9c9.5-4.7,18.9-6.4,28.1-5.1c5.1-12.5,7.3-24.5,6.6-35.9c-0.3-2.7-0.5-4-0.5-4
		c27.9,6.8,32.5-15.7,29.6-39.5c-11.1,3.1-23.7,3.2-35.8-3.7c13,3.4,24.7,2.5,35-2.6c-1.1-5.9-2.8-11.7-5-17.3l0,0
		c1.4-0.5,2.7-1.1,3.9-1.8c4.1-2.2,4.2-7.2,0.3-6.9c-2.5,1-5.2,1.4-7.8,1.3c-3.2-6.7-6.8-13.3-10.7-19.7
		c-12.6-29.4-34.1-49.1-65.4-33.3c-30,13.4-32.3,51.8-18.3,78.9c6.5,23.3,11.8,47,15.7,70.9l-2.6,2C110.2,255.4,119.2,261,131,263.9
		L131,263.9z"/>
	<path class="st2" d="M194,173.1l0-0.1l0,0c-10.3,5.1-22,6-35,2.6c12.2,7,24.7,6.8,35.8,3.7
		c3,33.9-7.3,52.2-47.8,32.9 M193.9,173c-1.1-5.9-2.8-11.7-5-17.3C191.2,161.3,192.8,167.1,193.9,173L193.9,173z M185.8,148.2
		c-3.2-6.8-7-13.4-11.1-19.7c-12.6-29.4-34.1-49.1-65.4-33.3c-30,13.4-32.3,51.8-18.3,78.9c6.5,23.3,11.8,47,15.7,70.9l-2.6,2
		c6.1,8.4,15,14.1,26.8,17c9.5-4.7,18.9-6.4,28.1-5.1c5.1-12.5,7.3-24.5,6.6-35.9c-0.3-2.7-0.5-4-0.5-4"/>
	<path class="st2" d="M20.5,314.1c15.8-28.8,40.5-49.4,65.3-62 M172.9,233.5c26.6,2.3,57.6,11.7,83.2,24.4
		 M321.3,311c5.2,6.3,10.8,13.4,12.7,16"/>
	<path class="st2" d="M173.6,110c-20.8,12.8-2.1,45,19.6,36.9c3.9-0.3,3.8,4.7-0.3,6.9c-5.3,3.1-11.5,3.9-18.5,2.2
		 M161.8,170.9c-1.7,2.6-3.2,5.3-4.4,8.1"/>
	<path class="st3" d="M149.4,136c1.6,0.1,2.9,2,2.7,4.2s-1.6,4-3.2,3.9c-1.6-0.1-2.9-2-2.7-4.2
		C146.3,137.7,147.7,135.9,149.4,136z"/>
	<path class="st3" d="M176.1,125.2c1.5,0.1,2.6,1.8,2.4,3.8c-0.1,2-1.4,3.5-2.9,3.4c-1.5-0.1-2.6-1.8-2.4-3.8
		C173.4,126.6,174.6,125.1,176.1,125.2z"/>
	<path class="st4" d="M75.4,131.6c-26.6,9.1-16.7,60.2,37.6,66.2c4.1-1.7,5.5-7.2,4.4-16.6
		c-34.2-8-26.8-37.2-7.5-27.9c-5-20.1,3.6-42.2,26.1-40.6c16.8,2.2,20.1-1.2,16.5-9.1c-0.5-3.3,3.8-1.9,5.5-1.3
		c18.9-11.4,12.5-40.5-12.7-52.9c8.1,31.3-13,15.1-46.3,22.4C69.6,78.3,53.7,114.6,75.4,131.6L75.4,131.6z"/>
	<path class="st4" d="M136.3,137.4c4.1-5.6,10.2-9.5,17-10.8c0.9-2.9,0.6-5.3-0.9-7.2c-9.9,2.3-16.7,8.2-20.5,17.7
		L136.3,137.4L136.3,137.4z"/>
	<ellipse class="st2" cx="177.4" cy="128.8" rx="5.6" ry="13.1"/>
	<ellipse class="st2" cx="151.6" cy="141" rx="6.7" ry="15.5"/>
	<path class="st2" d="M158.2,140c3.7-11.8,11.4-14.7,13.9-6.4"/>
	<path class="st2" d="M121.5,162.5c-27.3-30.1-45,10.4-2.3,19.1"/>
	<path class="st5" d="M107.5,159.1c4.9,2.6,7.9,6.8,9,12.7"/>
	<path class="st6" d="M141.6,289.1L131,263.9c5.6-3.6,22.6-7.5,28.9-4.8l-4.6,29.4L141.6,289.1z"/>
	<path class="st6" d="M21.3,310l-3.7-3.3l17.2-22.4c10.8-13.1,30.7-10.7,52.2,31.1c23.9,39.4,76.8,19.2,68.2-27
		c-4.6,0.6-9.1,0.8-13.7,0.7c-2.3,43-48.2,76.8-71.9,42.1C51.1,302.3,33.8,300.5,21.3,310L21.3,310z"/>
	<path class="st2" d="M85.6,247.3c6.1-13.7,11.8-21.9,17.2-24.7c-12.8,8.1,2.6,36.4,28.2,41.3
		c-6.8,15.9-12.7,32.1-17.7,48.6C95,285.5,85.8,263.8,85.6,247.3L85.6,247.3z"/>
	<path class="st2" d="M159.1,258.8c8,14.9,14.6,30.4,19.9,46.4c1.9-26.8,5.5-61.5-13.2-82.3
		C166.4,233.6,164,248.5,159.1,258.8z"/>
	<path class="st2" d="M69,75.7c-13.7,27.3-11.6,45.9,6.4,56c-12-2.3-19.4-11.4-22.3-27.5"/>
	<path class="st2" d="M178.4,87.8c-4.8,10.7-13.1,14.7-20.1,13.4c14.1-3.5,20.1-23.1,10.2-43"/>
	<path class="st3" d="M287.2,286.4c16.6-1.2,30.2,0.8,30.5,4.6s-12.9,7.8-29.5,9c-16.6,1.2-30.2-0.8-30.5-4.6
		C257.4,291.6,270.6,287.6,287.2,286.4z"/>
	<path class="st1" d="M270.2,299.8c6,0.5,12,0.5,18,0c6.9-0.4,13.8-1.6,20.5-3.4c-4.9-11.4-9.3-31.1-3.7-37.9
		c7.2-8.7,10.8-15.4,10.9-19.9c-1-3.3-2.3-5.4-3.8-6.2c0.4-5.3-1.6-8.4-6-9.5l0,0c0.9-3.6,0.3-6.3-1.7-8.1c-2.6-1.3-5-2.5-7.3-3.5
		c-4.6-7-8.8-11.4-12.5-13.3c-3.5,0.5-7.5,3.7-11.9,9.5l0,0c-0.1-0.5-0.3-1.1-0.5-1.6c-4.8,1.3-9.8,0.9-14.4-1l-5.8,3.1
		C249.1,230.1,255.6,268.1,270.2,299.8L270.2,299.8z M280,262.8l11.9-10.2l-1.5-7.5c-4.7,6-8.3,6.5-10.9,1.6c-2,1.9-4,2.5-6.2,1.7
		L280,262.8L280,262.8z M267.4,235.8c0.9-2.6,1.8-5.2,2.5-8c-1,1.3-2.4,0.5-4.3-2.3c-0.1-2.2,0.2-4.4,0.9-6.5c-2.1,0.6-4.3,1-6.5,1
		L267.4,235.8z"/>
	<path class="st2" d="M266,290c-5.1,1.6-8.5,3.6-8.3,5.4c0.3,3.8,13.9,5.8,30.5,4.6c9.5-0.7,17.8-2.3,23.2-4.3
		c4-1.5,6.4-3.1,6.3-4.7c-0.2-2.2-5-3.9-12.5-4.6"/>
	<path class="st2" d="M270,299.5c-14.4-31.6-21-69.5-18.3-91.6l5.8-3.1c4.5,1.9,9.6,2.3,14.4,1
		c3.2,9.2-1.2,14-13.2,14.3"/>
	<path class="st2" d="M308.7,296.4c-4.8-11.5-9.2-31.2-3.7-37.9c7.2-8.7,10.8-15.4,10.9-19.9c-1-3.3-2.3-5.4-3.8-6.2
		c0.4-5.3-1.6-8.4-6-9.5c0.9-3.6,0.3-6.3-1.7-8.1c-7-3.6-12.8-5.9-17.4-6.9c-5.8,4.5-11.4,10.9-16.7,19c-1.1,4.3-2.5,8.5-4.2,12.6
		c4.1,3.2,7.6,1.7,10.4-4.4"/>
	<path class="st2" d="M306,223c-5.5-2.9-10.1-4.4-13.8-4.6c-5.4,4.6-10.4,9.7-14.9,15.1c-0.8,1.5-3.3,5.8-7.3,12.8
		c5.5,5.1,10.4,2.2,14.8-8.8c9.4-6.4,14.1-9.6,14.2-9.4l8.6,3.1"/>
	<path class="st2" d="M279.4,246.7c3,5.5,7.2,4.1,12.8-4.2c4.3-0.7,8.2-3.2,11.7-7.3"/>
	<path class="st2" d="M298.6,240c1.7,3.3,5.3,3.9,11.1,1.9"/>
	<path class="st2" d="M297,211.4c-4.6-7-8.8-11.4-12.5-13.3c-3.5,0.5-7.5,3.7-11.9,9.5 M266.5,219.1
		c-0.6,2.1-0.9,4.3-0.9,6.5c1.8,2.8,3.3,3.5,4.3,2.3"/>
	<path class="st2" d="M327.8,105.7c8.2-2.1,19.9,16.3,26.3,41.2s4.8,46.7-3.3,48.9s-19.9-16.3-26.3-41.2
		S319.6,107.8,327.8,105.7L327.8,105.7z"/>
	<ellipse class="st7" cx="234.9" cy="205.1" rx="15.8" ry="15.6"/>
	<path class="st2" d="M230.7,152.3c39.3-10.2,61.5-17.3,93.7-44.3c-5.1,6.7-5.3,25.5,0,46.5s14.5,37.4,22.2,40.7
		c-41.2-8-63.9-3.4-103.3,6.9c-4.1,1.1-10.3-9.2-13.8-22.9S226.6,153.4,230.7,152.3L230.7,152.3z"/>
	<path class="st8" d="M321.9,142.2c0.6,4,1.5,8.1,2.5,12.3s2.3,8.2,3.6,12l8.6-2.2c6.7-1.8,10.6-8.6,8.9-15.3
		c-1.7-6.7-8.4-10.7-15.1-9c0,0,0,0,0,0L321.9,142.2L321.9,142.2z"/>
	<path class="st2" d="M229.6,179.2c-2.1-8.2-2.8-15.8-2.1-20.8c-9.1,4.4-13.9,14.5-11.4,24.3
		c2.5,9.8,11.5,16.4,21.6,15.8C234.7,194.4,231.7,187.4,229.6,179.2z"/>
	<path class="st2" d="M260,220.1l7.1,15 M273.4,248.8l6.6,14l11.8-10.1l-1.5-7.5 M281.1,199.2l-1.1-5.5 M250.5,200.3
		l3.1,6.5"/>
	<path class="st2" d="M359.6,74.8l-9.7,28.6l-9.8,28.8 M363.9,120.5l13.7-13.9 M377.1,138l-27.3,9.5 M367,157.5
		l21.9,3.8 M373.2,192.1l-29.5-25.9"/>
	<path class="st2" d="M257.7,295.4l2.2,30.4c0.4,4.9,14.5,7.9,31.5,6.6c17-1.3,30.3-6.3,30.2-11.2
		c-0.1-4.3-3.4-29.1-3.8-30.3"/>
	<line class="st2" x1="314.8" y1="327.4" x2="311.4" y2="295.7"/>
	<path class="st3" d="M304.5,309.7c2.5-0.1,4.6,1.8,4.7,4.3c0.3,2.5-1.5,4.7-4,5c-2.5,0.1-4.6-1.8-4.7-4.3
		C300.3,312.2,302,309.9,304.5,309.7z"/>
	<path class="st3" d="M150.5,329c2.5-0.1,4.6,1.8,4.7,4.3c0.3,2.5-1.5,4.7-4,5c-2.5,0.1-4.6-1.8-4.7-4.3
		C146.2,331.5,148,329.3,150.5,329z"/>
	<path class="st3" d="M156.9,360.9c2.5-0.1,4.6,1.8,4.7,4.3c0.3,2.5-1.5,4.7-4,5c-2.5,0.1-4.6-1.8-4.7-4.3
		C152.6,363.4,154.4,361.2,156.9,360.9z"/>
	<path class="st2" d="M156,294c1,34,5.2,67.2,13,82c5.5,9,8.1,14.2,4.5,19.1c-2.5,5.1-2.1,9.1,1.2,12.1"/>
	<path class="st2" d="M142.1,326.2c1.9,23.2,5.9,40.6,11.9,52.1c4.6,10.2,8.1,14.2,4.5,19.1
		c-2.5,5.1-2.1,9.1,1.2,12.1"/>
	<path class="st2" d="M256.1,374.6c-11.6-27.7-12.2-44.4,0.5-46.1c3.4,0.4,3.4,2,1,4.4c-4.9,6.1,0.8,9.5,5.9,2.8
		c3.2-3,8-2,8.1,4.2"/>
	<ellipse class="st9" cx="73.6" cy="259" rx="11.7" ry="11.9"/>
	<ellipse class="st10" cx="305.4" cy="82.1" rx="6.4" ry="6.5"/>
	<path class="st11" d="M147,212.3c6.4,9.9,12.5,17.5,18.3,22.7c0.4-3.8,0.6-7.6,0.4-11.4c0-0.2,0-0.5,0-0.7
		c-0.3-2.3-0.5-3.6-0.5-3.9C158.9,217.4,152.8,215.1,147,212.3L147,212.3z"/>
</g>
</svg>
