<svg xmlns="http://www.w3.org/2000/svg" shape-rendering="geometricPrecision" image-rendering="optimizeQuality" fill-rule="evenodd" clip-rule="evenodd" viewBox="0 0 500 500"><circle fill="#fcf32a" cx="389.65" cy="306.98" r="19.01"/><circle fill="#86e5c7" cx="147.66" cy="193.77" r="18.537"/><circle fill="#5159be" cx="400.33" cy="94.7" r="11.929"/><g stroke="#29304d" stroke-linejoin="round" stroke-linecap="round" stroke-miterlimit="22.926"><g stroke-width="2"><path fill="#fff" d="m313.92 191.8c33.386-53.658 18.421-99.31-6.908-110.93-25.328-11.625-54.09 11.258-76.66 46.08-5.505-39.33-44.948-11.524-19.759 40.39-20.358 34.05-30.989 71.892-31.895 113.54 9.226 8.56 25.821 15.635 46.558 18.418 20.736 2.782 40.561.051 51.49-6.455-1.366-17.579.24-37.4 4.884-59.43 10.325-10.02 21.18-23.765 32.29-41.616zm-103.32-24.46l.008-.013-.004.011-.004.002z"/><g fill="none"><path d="m11.147 425.37c16.501-119.46 94.35-162.39 170.35-176.99m97.72 3.94c55.38 8.989 125.8 34.784 163.93 157.44"/><path d="m259.45 191.88c1.119 12.422 13.12 18.597 15.3 9.975.126-18.775 3.462-31.728 15.552-41.735 14.863-12.531 30.13-5.394 23.747 13.461"/><path d="m291.79 170.21c4.258 4.839 10.01 6.739 17.25 5.699"/><path d="m269.31 161.29c-9.09-1.268-17.09-6.514-18.888-11.409"/></g></g><path fill="none" d="m216.03 123.71c4.542 8.664 3.942 18.564-1.8 29.701"/><path fill="#29304d" stroke-width="2" d="m180.73 253.62c-4.388 2.617-8.532 6.662-9.24 11.936-.696 5.195 1.995 10.483 7.209 15.32.065-3.6.219-7.261.457-10.937 13.43-7.675 60.872-21.94 97.55-2.413-.618 8.902-.615 17.346.008 25.332 5.323-3.169 8.668-7.222 9.3-11.935.774-5.77-2.632-11.656-9.03-16.91.836-9.675 2.385-19.878 4.648-30.608-20.709 20.1-39.28 25.23-53.48 18.469-21.264-10.135-31.13-45.32-17.556-84.55-1.076-2.257-16.15-33.13-3.128-52.44 12.749-15.432 23.16 2.881 23.28 15.697 15.601-16.381 30.573-34.464 54.938-21.07 2.502 10.343 6.878 18.668 13.13 24.977-2.093-5.838-3.49-13.933-4.189-24.284 3.447 12.752 7.08 22.687 10.887 29.808 1.997 1.336 4.129 2.526 6.394 3.574-2.837-9.117-4.748-16.945-5.731-23.482 4.427 10.941 8.549 19.614 12.366 26.02 3.66 1.137 7.603 1.968 11.831 2.492.076 1.884.097 3.856.032 5.902 2.44-1.663 4.709-3.448 6.825-5.33 7.183.325 15.08-.119 23.695-1.336-3.282-6.03-6.349-11.763-9.202-17.201 23.777-61.12-28.29-94.92-54.37-78.68-53.844-54.17-141.63 33.647-92.2 124.97-13.13 24.852-20.955 49.624-24.431 76.67z"/></g><g fill="#29304d"><path d="m252.66 136.42c3.988-4.065 12.138-4.01 18.375-2.775 4.176 3.087 11.558 7.921 15.825 10.95-.6 2.633-5.875 4.334-10.65 3.825-5.65-5.8-8.475-9.75-8.475-9.75-3.496-2.082-11.897-1.983-15.07-2.25"/><g stroke="#29304d" stroke-linejoin="round" stroke-linecap="round" stroke-width="2" stroke-miterlimit="22.926"><path d="m261.43 163.09c1.867 0 3.488-1.018 4.294-2.507-3.287-.851-6.321-2.186-8.826-3.773-.198.508-.306 1.057-.306 1.63 0 2.568 2.166 4.65 4.838 4.65z"/><path d="m294.69 174.04c0 2.568 2.165 4.65 4.837 4.65 1.887 0 3.521-1.038 4.318-2.553-3.425-.232-6.435-1.283-9.03-3.153-.082.339-.125.693-.125 1.056z"/></g></g><g stroke="#29304d" stroke-linejoin="round" stroke-linecap="round" stroke-width="2" stroke-miterlimit="22.926"><g fill="none"><path d="m241.18 207.71c7.551 10.179 17.15 14.979 28.8 14.4"/><path d="m409.81 385.36c-14.333-7.526-26.1-14.58-29.486-32.909-5.722-33.923-17.668-43.1-29.26-37.14"/></g><g fill="#fff"><path d="m325.82 409.84c-30.997 3.231-63.914 3.426-87.37 7.807-5.25-2.745-5.2-8.764-.977-12.208 14.982-8.529 39.4-10.754 73.25-6.674l15.1 11.07z"/><path d="m377.57 388.87c6.762 5.289 11.509 10.332 14.632 15.05-1.139 2.024-2.631 4.189-4.432 6.431-4.264-7.562-7.752-14.837-10.2-21.478zm-5.163 36.32c-.817.64-1.65 1.276-2.5 1.907-2.02 1.497-4.04 2.899-6.04 4.199-14.909-11.03-28.719-18.564-41.43-22.601-14.08-4.616-27.428 1.298-40.04 17.742-8.142 11.34-15.955 14.162-23.439 8.464 5.677-8.55 12.405-18.859 20.18-30.926-7.401.13-14.997 6.75-22.788 19.858-6.662 12.739-14.475 14.964-23.439 6.674 3.648-4.836 13.14-18.07 28.484-39.717-5.441-.94-13.146 1.067-23.11 6.02-16.631 13.347-28.785 15.14-36.461 5.371 6.138-3.815 13.408-8.644 21.812-14.486-14.05 3.22-21.813.128-23.277-9.278 16.633-2.693 40.18-10.886 70.64-24.579 14.12 6.099 31.21 10.977 51.26 14.635 7.07 17.206 22.367 23.925 41.16 24.58 2.523 11.842 5.518 22.552 8.985 32.13z"/></g><g fill="none"><path d="m223.64 387.7c12.04-8.139 18.07-12.208 18.07-12.208 13.782-4.775 26.22-8.512 26.22-8.512"/><path d="m261.4 390.79c15.735-10.96 23.602-16.44 23.602-16.44"/><path d="m279.15 403.98c10.864-11.497 11.587-12.431 15.701-16.326"/></g><g fill="#29304d"><path d="m363.87 431.3c-7.872-5.824-15.438-10.674-22.697-14.548-9.544 9.745-14.282 19-11.1 23.292 3.893 5.243 18.321 1.301 33.795-8.744z"/><path d="m380.78 391.49c5.088 4.341 8.821 8.5 11.425 12.432 2.689-4.78 3.415-8.783 1.618-11.203-1.999-2.692-6.774-2.962-13.04-1.229z"/></g><g fill="none"><path d="m393.82 392.71c11.93 11.418 35.815 38.481 71.66 81.19"/><path d="m330.08 440.04c6.856 14.914 17.49 33.7 31.902 56.36"/><path d="m311.42 282.21l-6.86-6.23 4.84.7"/><path d="m316.39 275.44l-9.66-3.73 5.05 9.41"/><path d="m319.14 319.98c-1.298-9.784-3.388-18.952-6.268-27.504-2.234-3.865-2.618-8.476-.601-12.431 3.349-6.568 12.05-8.842 19.427-5.079 10.942 5.58 4.084 25.99 20.633 41.592 18.246 11.434 26.816 31.09 25.749 58.05m-.735 13.627c6.603 17.909 21.01 41.08 37.556 61.4 1.612 5.619-6.965 10.994-9.914 9.519 0 0-2.404-1.838-4.206-4.892.627 5.415-7.585 9.19-12.15 3-10.943-15.307-19.342-36.707-25.2-64.2-18.581-.647-33.989-7.806-41.16-24.58"/><path d="m400.78 454.26c-12.386-16.05-24.11-36.914-32.479-63.34"/><path d="m339.93 334.89c14.851 29.12 36.751 44.42 74.1 51.3-33.627 5.642-58.61.413-75.26-7.588-62.51-29.2-19.819-85.86 1.161-43.712z"/><path d="m316.85 280.04c.511 1.883 1.37 4.203 3.6 5.325"/><path d="m278.75 257.51c14.248 9.137 22.923 21.16 21.246 32.678-2.884 19.807-33.873 31.878-70.48 28.12-22.476-2.309-75.25-18.338-70.833-48.696.728-4.995 3.242-9.498 7.184-13.379"/><path d="m265.82 316.41l-11.36 36.81-24.94-34.92"/><path d="m56.46 355.77c16.395-40.23 55.2-66.02 102.17-79.48"/><path d="m362.9 83.45c-9.946-34.37-39.42-48.28-66.62-32.528 18.11-19.01 51.819-14.445 68.03 13.347"/></g></g></svg>