<svg xmlns="http://www.w3.org/2000/svg" shape-rendering="geometricPrecision" image-rendering="optimizeQuality" fill-rule="evenodd" clip-rule="evenodd" viewBox="0 0 500 500"><path fill="#fff" stroke="#29304d" stroke-width="2" stroke-linecap="round" stroke-linejoin="round" stroke-miterlimit="22.926" d="m311.32 240.59c.387 17.51-.011 33.35-1.05 47.526-2.384 15.05-23.25 27.05-48.794 27.389-10.862.146-20.933-1.837-29.14-5.315-7.148-24.899-13.231-57.19-17.333-97.15l.42.12c-39.42-24.21-33.911-57.55-7.995-40.82-2.443-42.964 13.02-78.49 42.3-83.64 29.28-5.151 74.41 21.657 73.74 86.04-.281 26.794-4.784 49.3-12.163 65.849l.012.003z"/><circle fill="#fcf32a" cx="161.14" cy="98.51" r="25"/><circle fill="#5159be" cx="417.63" cy="144.72" r="12.5"/><circle fill="#86e5c7" cx="125.18" cy="364.67" r="20.1"/><g stroke="#29304d" stroke-linejoin="round" stroke-linecap="round" stroke-width="2" stroke-miterlimit="22.926"><path fill="#29304d" d="m304.57 161.76c.399.776.625 1.657.625 2.592 0 3.114-2.501 5.637-5.587 5.637-3.086 0-5.587-2.523-5.587-5.637 0-.129.005-.257.013-.384 3.041-2.153 6.553-2.889 10.536-2.208z"/><path fill="none" d="m314.01 165.5c-9.719-5.709-17.396-5.279-23.03 1.292"/><path fill="#29304d" d="m254.13 166.37c.642.966 1.016 2.129 1.016 3.379 0 3.358-2.698 6.081-6.03 6.081-3.329 0-6.03-2.723-6.03-6.081 0-.641.099-1.259.281-1.839 3.197-1.406 6.782-1.919 10.756-1.54z"/><path fill="none" d="m287.75 200.81c17.711-10.421 15.354-19.16.989-15.726-7.824.122-11.09-13.754-10.384-23 1.527-19.985 19.288-29.24 32.793-16.11"/></g><path fill="#29304d" d="m258.82 153.34c2.042-.868 3.435-5 4.323-7.233-5.794-.3-15.483-.028-25.544-2.455-4.728 2.393-12.412 8.26-11.731 15.713 5.792-6.239 9.595-9.539 11.408-9.901 6 3.03 14.275 4.82 21.544 3.876"/><g stroke="#29304d" stroke-linejoin="round" stroke-linecap="round" stroke-miterlimit="22.926"><g stroke-width="2"><path fill="none" d="m264.83 169.16c-12.891-5.191-22.756-3.433-29.595 5.274"/><path fill="#29304d" d="m99.08 251.98c1.524 60.42 80.44 87.05 133.25 58.2 2.168.919 4.465 1.733 6.873 2.431 25.764-35.13 49.53-44.35 71.29-27.634l.074-1.15c6.616-2.251 15.173-1.214 25.671 3.112 4.143 1.607 9 1.984 14.63.942 14.664-4.916 29.517-16.966 36.03-34.28 0 0-1.134-1.1-2.962-2.792-2.023 2.606-4.2 5.01-6.645 7.495.83-2.15 1.842-6.073 2.707-11.07-.965-.857-1.993-1.757-3.06-2.672-2.475 4.299-5.617 8.541-9.206 11.728 2.677-6.302 4.163-10.968 4.992-15.231-.83-.666-1.663-1.32-2.489-1.948-2.331 5.256-5.639 10.647-9.924 16.17 3.4-7.468 5.521-13.716 6.366-18.747-.547-.371-1.084-.722-1.605-1.049-3.492 21.404-18.11 20.03-28.3 5.799-5.073-10.01-7.05-26.06-5.537-49.06 17.669-93.33-25.731-138.77-91.68-107.42-40.35-10.291-63.56 18.851-70.32 47.902-11.629 49.99 23.54 142.06-70.16 119.27zm116.55-38.694c-.075-.046-.149-.091-.222-.136l-.412-.118c-37.97-24.537-31.29-57.23-4.593-38.623-1.261-19.756.198-36.532 7.394-48.52 11.04-17.832 28.313-26.05 51.821-24.652 18.843-3.066 30.895 7.092 38.07 22.802 40.957 105.49-27.84 221.39-92.06 89.25z"/></g><g fill="none"><path d="m212.27 199.09c-4.205-12.06-9.572-20.03-16.1-23.899"/><path stroke-width="2" d="m311.39 262.79c60.721 23.546 113.47 4.952 139.1 46.858"/></g></g><ellipse fill="#fc5b61" cx="210.22" cy="209.73" rx="6.539" ry="6.415"/><path fill="none" stroke="#29304d" stroke-width="2" stroke-linecap="round" stroke-linejoin="round" stroke-miterlimit="22.926" d="m357.37 285.24c22.09 96.93-14.988 121.66-79.87 46.13-24.752 71.73-50.03 73.79-71.934 41.838"/><path fill="#29304d" d="m258.4 333.42c-2.387.793-5.01 1.604-7.874 2.433-2.554-2.109-3.896-5.337-4.03-9.685 7.933-4.88 16.276-6.082 25.03-3.606 2.115-1.84 6.955-2.15 7.98-.746 6.271-4.087 12.192-6.962 19.926-9.303 2.564-.46 5.183 12.147 2.032 12.523-5.346 1.068-10.02 1.582-14.04 1.544 5.753.605 10.547.552 14.381-.161 1.428 1.098-1.696 9.504-4.276 9.182-7.944-1.894-13.867-4.505-17.773-7.834 2.205 20.2 9.753 38.14 19.912 55.97l-5.305-1.712-1.952 5.85c-6.862-12.04-11.374-24.14-14.312-36.864.533 10.912-.3 21.875-4.747 30.15l-1.301-7.447-6.069 3.483c6.676-12.427 7.877-34.497 6.24-48.805-2.698 6.06-8.973 10.338-16.372 13.754-2.22.072-5.287-2.404-4.671-4.725 2.648-.754 5.237-1.689 7.698-2.799l-.484-1.205"/><g stroke="#29304d" stroke-linejoin="round" stroke-linecap="round" stroke-width="2" stroke-miterlimit="22.926"><path fill="#fff" d="m154.44 279.63c-4.458-16.961.272-24.658 14.19-23.09-8.981-18.715-14.12-36.24-15.426-52.56 9.49-5.29 17.551 3.597 24.19 26.662 12.02 22.817 20.713 40.528 26.09 53.13 4.512 14.827 6.67 22.317 6.474 22.472 2.146-5.076 5.828-9.98 5.714-9.379-7.159-20.22-3.128-24.787 9.997-33.33 1.604 10.801 5.477 21.21 11.617 31.23-4.444 22.598-6.665 33.897-6.665 33.897-12.805 34.526-24.01 49.772-32.444 88.19-7.536.323-17.814-.289-29.03-1.911-10.11-1.46-19.248-3.49-26.18-5.665-2.405-23.378-2.694-53.12-10.803-65.948-12.686-22.829-10.465-35.21 6.666-37.13 2.44-1.14 3.138-3.711 2.094-7.713-1.265-11.796 3.243-18.08 13.521-18.854z"/><g fill="none"><path d="m168.62 256.55c5.696 1.982 10.837 8.03 15.422 18.14 12.25 13.241 14.663 23.08 7.237 29.517-6.304 4.159-13.35.224-21.14-11.807-4.127-7.822-8.317-13.344-12.57-16.568"/><path d="m154.44 279.63c6.397.548 12.396 7.149 17.995 19.806 12.138 10.919 17.724 21.01 16.759 30.28-4.36 2.653-5.563 3.823-7.618 4.571-6.956-.717-14.13-7-21.519-18.854-5.531-8.272-11.12-13.16-16.759-14.664"/><path d="m146.91 308.77c4.562 5.122 9.196 9.249 13.902 12.379 8.242 7.253 13.193 13.665 14.854 19.234-.302 1.298-2.74 3.304-3.809 3.999-8.395 1.96-16.837-1.341-25.328-9.903-6.395-6.405-11.537-8.627-15.425-6.665"/></g><g fill="#29304d"><path d="m142.96 409.29c-.379-3.685-.706-7.528-1.019-11.439-7.287.345-11.922 1.583-12.22 3.643-.333 2.304 4.824 5.156 13.239 7.796z"/><path d="m200.56 406.42c-.768 3.193-1.564 6.659-2.394 10.439 7.496-.321 12.281-1.565 12.583-3.659.291-2.01-3.6-4.439-10.189-6.78z"/></g><g fill="none"><path d="m220.27 491.51c-5.827 1.934-7.161.309-11.269-7.877 2.695 15.467-8.508 15.386-12.516 2.6-1.289 15.498-13.03 14.562-14.13.192-4.287 16.734-15.393 15.427-16.729-.761-3.848 15.842-16.472 14.446-16.544-2.529-6.426 15.07-19.332 11.699-17.625-4.438-8.726 12.11-20.09 8.979-15.619-6.538-4.892 3.463-11.221 4.906-13.773 3.536l27.655-74.2"/><path d="m269.38 223.09c14.543-6.6 26.343-8.7 35.4-6.3"/></g></g></svg>