<svg xmlns="http://www.w3.org/2000/svg" shape-rendering="geometricPrecision" image-rendering="optimizeQuality" fill-rule="evenodd" clip-rule="evenodd" viewBox="0 0 500 500" xmlns:xlink="http://www.w3.org/1999/xlink"><defs><linearGradient id="0" gradientUnits="userSpaceOnUse" x1="81.24" y1="103.31" x2="168.26" y2="288.54"><stop stop-color="#86e5c7"/><stop offset=".71" stop-color="#6c9fc3"/><stop offset="1" stop-color="#5159be"/></linearGradient><linearGradient id="1" gradientUnits="userSpaceOnUse" x1="89.83" y1="150.1" x2="92.79" y2="167.96" xlink:href="#0"/></defs><path fill="url(#0)" d="m130.7 158.55c9.806 0 17.755-8.582 17.755-19.17 0-9.01-5.758-16.565-13.518-18.617.907-2.01 1.413-4.245 1.413-6.603 0-8.692-6.865-15.738-15.334-15.738-8.469 0-15.334 7.05-15.334 15.738 0 .989.09 1.956.26 2.894-10.474-4-21.647 6.681-20.436 17.685 1.035 9.409 7.828 17.2 17.693 17.726 2.149 12.462 4.893 22.965 4.893 42.498v59.6c-.834-.651-1.617-1.328-2.346-2.029-7.312-5.43-14.16-10.699-27.738-9.543-2.114 4.555-3.297 9.63-3.297 14.982 0 19.674 15.95 35.624 35.624 35.624 18.287 0 33.35-13.78 35.388-31.522-13.03 2.112-24.22.084-32.385-4.165v-62.944c0-19.896 3.096-29.68 5.674-41.16 3.122 2.952 7.212 4.741 11.688 4.741m-39.34-48.826c4.346 0 7.869-3.343 7.869-7.466 0-4.123-3.523-7.465-7.869-7.465-4.345 0-7.869 3.342-7.869 7.465 0 4.123 3.524 7.466 7.869 7.466"/><g stroke="#29304d" stroke-linejoin="round" stroke-linecap="round" stroke-width="2" stroke-miterlimit="22.926"><g fill="none"><path d="m99.94 172.61v30.797c0 8.897-3.216 12.299-12.1 17.235h.003c-13.02 7.417-21.794 21.416-21.794 37.469 0 23.803 19.297 43.1 43.1 43.1 23.804 0 43.1-19.296 43.1-43.1 0-16.05-8.778-30.05-21.794-37.469h.003c-8.517-4.451-12.1-6.56-12.1-17.235v-30.797"/><path d="m115.79 170.16c1.597.634 2.581 1.498 2.581 2.449 0 1.95-4.125 3.529-9.213 3.529-5.088 0-9.212-1.579-9.212-3.529 0-1.275 1.767-2.393 4.415-3.01"/></g><g fill="#fff"><path d="m92.98 297.44c-3.499-1.542-6.754-3.534-9.691-5.904-8.132-2.881-17.575-4.15-28.329-3.809-8.812-.255-14.697 2.805-17.654 9.18 11.619-2.02 23.662-1.919 36.13.306 7.308-.488 14.548-.016 19.369.619.096-.124.154-.255.177-.392z"/><path d="m54.959 287.72c10.754-.341 20.2.928 28.329 3.809-3.134-2.529-5.905-5.487-8.226-8.785-4.99-1.168-11.09-1.191-18.287-.068-6.132-.886-11.774 1.38-14.249 7.983 3.148-2.108 7.292-3.088 12.433-2.939z"/><path d="m69.52 281.95c1.725.117 3.31.325 4.753.625-.671-1.962-1.699-4.146-3.084-6.552-6.145-4.03-11.05-3.825-14.711.605 3.663.25 8.433 2.546 13.04 5.322z"/></g></g><ellipse fill="url(#1)" cx="88.29" cy="158.89" rx="8.474" ry="8.07"/><g stroke="#29304d" stroke-linejoin="round" stroke-linecap="round" stroke-width="2" stroke-miterlimit="22.926"><path fill="#fff" d="m151.98 324.46c-1.989-9.717-5.878-18.765-3.339-28.2-5.845-18.17-4.163-30.986-4.907-44.756-10.06 4.686-13.787 15.547-10.996 24.414 3.42 10.788.43 18.43-8.971 22.926-8.775 2.885-18.807 3.452-29.25-.771-11.744-1.87-45.04-3.245-47.36 13.671 33.35-6.125 55.51-2.605 66.84 23.07l3.347.188c2.753 6.658 4.571 14.662 5.497 24.555 13.01-1.806 24.513-4.568 34.503-8.286-1.764-6.906-5.622-15.87-7.556-25.13l2.193-1.678z"/><path fill="none" d="m114.03 334.82c12.849 1.066 29.18-2.939 37.951-10.355"/></g><g fill="#29304d"><path d="m86.68 130.91l-32 24.58 22.316.43z"/><path d="m148.09 105.22l-19.16 6.96 23.67 10.21z"/><path d="m69.12 67.986l12.71-4.646 8.07 19.37z"/></g><path fill="none" stroke="#29304d" stroke-width="2" stroke-linecap="round" stroke-linejoin="round" stroke-miterlimit="22.926" d="m376.92 98.12c4.178 10.482 12.701 19.13 23.272 23.347l-5.592 15.505 21.495-12.528c22.845-.168 41.31-18.501 41.31-41.09 0-22.699-18.637-41.1-41.627-41.1-17.08 0-32.608 12.224-39.02 26.757"/><path fill="#29304d" fill-rule="nonzero" d="m411.16 58.822h9.349l-1.579 29.563h-6.254l-1.516-29.563m4.675 44.661c-1.474 0-2.696-.474-3.664-1.422-.969-.947-1.453-2.116-1.453-3.505 0-1.39.484-2.548 1.453-3.475.968-.926 2.19-1.389 3.664-1.389 1.432 0 2.621.463 3.569 1.389.947.927 1.421 2.085 1.421 3.475 0 1.389-.474 2.558-1.421 3.505-.948.948-2.137 1.422-3.569 1.422"/><path fill="none" stroke="#29304d" stroke-width="2" stroke-linecap="round" stroke-linejoin="round" stroke-miterlimit="22.926" d="m362.34 104.16c11.408-.084 20.63-9.239 20.63-20.522 0-11.335-9.307-20.524-20.788-20.524-11.481 0-20.788 9.189-20.788 20.524 0 8.618 5.38 15.993 13 19.03l-2.793 7.743 10.734-6.256z"/><path fill="#29304d" fill-rule="nonzero" d="m360.1 87.17c0-1.166.264-2.132.793-2.898.529-.767 1.301-1.603 2.316-2.51.777-.691 1.355-1.29 1.733-1.797.377-.507.566-1.085.566-1.733 0-.906-.367-1.641-1.101-2.202-.734-.561-1.716-.842-2.947-.842-2.331 0-4.091.831-5.278 2.494l-3.142-2.04c.929-1.274 2.127-2.251 3.595-2.931 1.468-.68 3.195-1.02 5.181-1.02 2.419 0 4.345.523 5.781 1.57 1.436 1.047 2.154 2.489 2.154 4.324 0 .885-.146 1.662-.438 2.331-.291.669-.642 1.236-1.052 1.7-.41.465-.95.999-1.619 1.603-.821.735-1.431 1.382-1.83 1.944-.399.561-.599 1.23-.599 2.01h-4.113m2.073 7.74c-.756 0-1.377-.243-1.862-.728-.486-.486-.729-1.085-.729-1.798 0-.712.243-1.306.729-1.781.485-.475 1.106-.712 1.862-.712.734 0 1.344.237 1.829.712.486.475.729 1.069.729 1.781 0 .713-.243 1.312-.729 1.798-.485.485-1.095.728-1.829.728"/><g stroke="#29304d" stroke-linejoin="round" stroke-linecap="round" stroke-width="2" stroke-miterlimit="22.926"><path fill="#fff" d="m237.09 361.13l59.63-89.73-6.645-49.951c4.486-6.663 24.1-7.226 29.84-26.394 16.16-53.987-8.995-70.04-43.12-81.31-34.12-11.268-52.47 19.554-66.01 60.58-13.546 41.02-5.274 79.44 13.06 86.3 3.145 1.177 7.081 1.363 11.512.654l1.732 99.84z"/><g fill="none"><path d="m165.95 304.29c21.419-14.637 45.29-23.786 69.59-27.633m103.77 16.9c43.84 23.479 77 68.49 80.32 132.64"/><path d="m104.72 358.05c.456 18.894 6.743 50.05 15.517 78.79"/><path d="m224.16 187.09c-2.807 5.302-7.213 8.673-13.82 9.738-5.344 2.809-.895 10.609 8.279 8.808m14.969 9.36c2.252 1.916 4.154 3.905 5.705 5.966"/></g></g><g fill="#29304d"><ellipse cx="218.79" cy="171.28" rx="2.545" ry="5.285"/><ellipse cx="244.52" cy="176.94" rx="2.763" ry="5.739"/></g><path fill="none" stroke="#29304d" stroke-width="2" stroke-linecap="round" stroke-linejoin="round" stroke-miterlimit="22.926" d="m210.07 225.72c7.674 7.084 20.868.233 26.821-7.599"/><g fill="#29304d"><path d="m290.17 139.45c-1.772 6.395-4.278 12.368-7.518 17.918-3.303-1.155-6.546-2.074-9.725-2.818 1.747-7.653 2.762-15.781 3.046-24.381-1.875 9.417-3.82 17.338-5.837 23.767-27.556-5.665-49.89 1.014-62.25-18.02 14.992-44.736 51.927-63.25 84.15-44.934 52.12-11.587 76.879 46.765 67.42 116.77-3.989 34.51 1.297 59.761 29.25 44.04-19.586 31.04-43.32 45.52-76.975 45.968-21.03.28-46.592-2.9-37.535-31.798 6.129-17.625 10.756-34.28 13.886-49.97 48.45-24.716 26.459-54.06 4.205-29.406 1.393-17.07.688-32.78-2.115-47.14"/><path d="m247.34 151.17c-1.569-.111-3.112-.217-4.624-.328 4.091-9.577 7.02-15.868 8.798-18.871l-4.174 19.2m-6.067-.437c-1.66-.129-3.284-.27-4.869-.435 4.133-9.294 8.406-16.753 12.82-22.379-4.01 9.33-6.659 16.935-7.951 22.814"/><path d="m198.17 287.07c-11.779-3.387-19.848-11.929-25.1-24.352 16.418 3.122 30.18-7.352 32.83-30.365 3.872 20.14 14.514 32.04 29.458 28.93l.268 15.475c-16.522 3.116-29.01 6.554-37.458 10.312"/><path d="m261.16 163.13c-10.05-1.693-17.725 5.935-24.907 10.464-2.202-.959-2.789-6.549-2.31-9.862 13.668-4.922 22.473-5.503 29.519-2.835l-2.302 2.233"/><path d="m214.68 154.83c5.881 2.503 4.358 9.534 8.62 12.668 2.238-1.96 4.01-4.164 3.587-7.886-6.332-5.642-9.205-6.955-12.327-7.127-.171 1.01-.162 1.85.12 2.345"/><path stroke="#29304d" stroke-width="2" stroke-linecap="round" stroke-linejoin="round" stroke-miterlimit="22.926" d="m235.36 261.28c12.887-2.464 26.25-11.641 40.1-27.531-9.01 22.12-20.07 41.08-39.642 52.78l-.46-25.25z"/></g><g fill="none" stroke-miterlimit="22.926"><g stroke="#29304d" stroke-linejoin="round" stroke-linecap="round"><path d="m289.47 206.13c-.205-8.097 8.624-17.02 15.321-18.802"/><path stroke-width="2" d="m212.26 398.49l-20.31-67.17 44.15-26.93"/></g><path stroke="#000" stroke-width=".567" d="m270.35 311.09c16.32 29.829 24.481 44.744 24.481 44.744"/><g stroke="#29304d" stroke-linejoin="round" stroke-linecap="round" stroke-width="2"><ellipse cx="213.44" cy="174.74" rx="8.33" ry="13.919"/><ellipse cx="240.52" cy="182.32" rx="8.898" ry="14.869"/><path d="m221.16 179.98c2.621-6.45 9.192-5.847 10.462 2.34"/><path d="m249.14 186.02c22.318-10.829 40.31-14.758 54.23-13.567"/><path d="m245.44 348.57l-36.839 55.43"/><path d="m201.32 434.85l93.51-79.02-13.22-24.16-11.26-20.58"/><path d="m281.61 331.67l27.14 8.72 17.44-48.8"/><path d="m214.03 317.86l-23.49-1.25 12.68-36.3"/><path d="m173.35 341.33c6.963 51.01 17.711 92.44 30.497 124.36m126.63 22.18c7.127-22.965 11.752-52.648 12.791-88.996 4.232-42.41 26.96-69.941 44.928-63.56"/><path d="m370.96 338.49c-14.08-13.667-30.08-26.31-47.98-37.929"/></g></g><ellipse fill="#fcf32a" cx="361.08" cy="233.52" rx="18.236" ry="17.871"/><circle fill="#86e5c7" cx="120.23" cy="436.84" r="13.596"/><circle fill="#5159be" cx="375.48" cy="152.04" r="7.4"/><g fill="#29304d" stroke="#29304d" stroke-linejoin="round" stroke-linecap="round" stroke-width="2" stroke-miterlimit="22.926"><path d="m122.84 359.56c-.423-4.521-1.033-8.648-1.832-12.432-11.08 4.02-17.847 8.331-16.293 10.924 1.326 2.215 8.414 2.654 18.12 1.508z"/><path d="m153.5 339.21c1.469 4.405 2.932 8.505 3.84 12.06 9.728-3.58 16-7.366 16.01-9.947 0-.279-.072-.543-.221-.792-1.394-2.328-9.151-2.695-19.628-1.321z"/></g></svg>