<?xml version="1.0" encoding="utf-8"?>
<!-- Generator: Adobe Illustrator 24.1.2, SVG Export Plug-In . SVG Version: 6.00 Build 0)  -->
<svg version="1.1" id="Слой_1" xmlns="http://www.w3.org/2000/svg" xmlns:xlink="http://www.w3.org/1999/xlink" x="0px" y="0px"
	 viewBox="0 0 432 432" style="enable-background:new 0 0 432 432;" xml:space="preserve">
<style type="text/css">
	.st0{fill:none;}
	.st1{fill:#29304D;stroke:#29304D;stroke-width:1.793;stroke-linecap:round;stroke-linejoin:round;stroke-miterlimit:22.926;}
	.st2{fill-rule:evenodd;clip-rule:evenodd;fill:url(#Path_3093_1_);}
	.st3{fill:none;stroke:#29304D;stroke-width:2;stroke-linecap:round;stroke-linejoin:round;stroke-miterlimit:22.926;}
	
		.st4{fill-rule:evenodd;clip-rule:evenodd;fill:#FFFFFF;stroke:#29304D;stroke-width:2;stroke-linecap:round;stroke-linejoin:round;stroke-miterlimit:22.926;}
	.st5{fill:url(#Ellipse_583_1_);}
	.st6{fill-rule:evenodd;clip-rule:evenodd;fill:#29304D;}
	.st7{fill:#29304D;}
	
		.st8{fill-rule:evenodd;clip-rule:evenodd;fill:#29304D;stroke:#29304D;stroke-width:2;stroke-linecap:round;stroke-linejoin:round;stroke-miterlimit:22.926;}
	.st9{fill:none;stroke:#29304D;stroke-linecap:round;stroke-linejoin:round;stroke-miterlimit:22.926;}
	.st10{fill:none;stroke:#000000;stroke-width:0.567;stroke-miterlimit:22.926;}
	.st11{fill:#FCF32A;}
	.st12{fill:#86E5C7;}
	.st13{fill:#5159BE;}
</style>
<rect id="Rectangle_1054" x="0.9" y="-2.2" class="st0" width="432.7" height="436.5"/>
<ellipse id="Ellipse_582" transform="matrix(0.9643 -0.2648 0.2648 0.9643 -75.6421 42.3965)" class="st1" cx="119.4" cy="301.8" rx="30.7" ry="6.2"/>
<linearGradient id="Path_3093_1_" gradientUnits="userSpaceOnUse" x1="-87.5813" y1="611.8289" x2="-86.4013" y2="610.8969" gradientTransform="matrix(63.8165 0 0 -172.0342 5655.3174 105361.8984)">
	<stop  offset="0" style="stop-color:#86E5C7"/>
	<stop  offset="0.71" style="stop-color:#6C9FC3"/>
	<stop  offset="1" style="stop-color:#5159BE"/>
</linearGradient>
<path id="Path_3093" class="st2" d="M114,136.9c8.5,0,15.4-7.4,15.4-16.6c0-7.8-5-14.3-11.7-16.1c0.8-1.8,1.2-3.7,1.2-5.7
	c0.2-7.3-5.6-13.4-12.9-13.6c-7.3-0.2-13.4,5.6-13.6,12.9c0,0.2,0,0.5,0,0.7c0,0.8,0.1,1.7,0.2,2.5c-9.1-3.5-18.7,5.8-17.7,15.3
	c0.9,8.1,6.8,14.9,15.3,15.3c1.9,10.8,4.2,19.9,4.2,36.8v51.6c-0.7-0.6-1.4-1.1-2-1.8c-6.3-4.7-12.3-9.3-24-8.3
	c-7.2,15.5-0.4,33.8,15,40.9c15.5,7.2,33.8,0.4,40.9-15c1.4-3,2.3-6.1,2.6-9.4c-11.3,1.8-21,0.1-28-3.6v-54.5
	c0-17.2,2.7-25.7,4.9-35.6C106.6,135.4,110.3,136.8,114,136.9L114,136.9z M80,94.6c3.6-0.2,6.3-3.2,6.1-6.8
	c-0.2-3.6-3.2-6.3-6.8-6.1c-3.4,0.2-6.1,3-6.1,6.5C73.3,91.8,76.3,94.7,80,94.6z"/>
<path id="Path_3094" class="st3" d="M87.4,149v26.6c0,7.7-2.8,10.6-10.5,14.9l0,0c-17.9,10.2-24.2,33-14,50.9s33,24.2,50.9,14
	s24.2-33,14-50.9c-3.3-5.8-8.2-10.7-14-14l0,0c-7.4-3.9-10.5-5.7-10.5-14.9V149"/>
<path id="Path_3095" class="st3" d="M101.4,146.5c1.8,0.6,3,1.4,3,2.4c0,1.7-3.6,3.1-8,3.1s-8-1.4-8-3.1c0-1.1,1.5-2.1,3.8-2.6"/>
<path id="Path_3096" class="st4" d="M81.4,257c-3-1.3-5.8-3-8.4-5.1c-7-2.5-15.2-3.6-24.5-3.3c-7.6-0.2-12.7,2.4-15.3,7.9
	c10.4-1.7,20.9-1.7,31.3,0.3c5.6-0.3,11.2-0.2,16.8,0.5C81.3,257.3,81.4,257.2,81.4,257L81.4,257z"/>
<path id="Path_3097" class="st4" d="M48.5,248.6c9.3-0.3,17.5,0.8,24.5,3.3c-2.7-2.2-5.1-4.7-7.1-7.6c-4.3-1-9.6-1-15.8-0.1
	c-5.3-0.8-10.2,1.2-12.3,6.9C40.4,249.4,44,248.5,48.5,248.6z"/>
<path id="Path_3098" class="st4" d="M61.1,243.6c1.4,0.1,2.8,0.3,4.1,0.5c-0.7-2-1.6-3.9-2.7-5.7c-5.3-3.5-9.6-3.3-12.7,0.5
	C53,239.3,57.1,241.2,61.1,243.6z"/>
<linearGradient id="Ellipse_583_1_" gradientUnits="userSpaceOnUse" x1="-82.4503" y1="600.3608" x2="-82.2753" y2="599.2538" gradientTransform="matrix(14.666 0 0 -13.966 1289.566 8507.29)">
	<stop  offset="0" style="stop-color:#86E5C7"/>
	<stop  offset="0.71" style="stop-color:#6C9FC3"/>
	<stop  offset="1" style="stop-color:#5159BE"/>
</linearGradient>
<ellipse id="Ellipse_583" class="st5" cx="81.5" cy="129.9" rx="7.3" ry="7"/>
<path id="Path_3099" class="st4" d="M132.4,280.4c-1.7-8.4-5.1-16.2-2.9-24.4c-5.1-15.7-3.6-26.8-4.2-38.7
	c-8,3.7-12.1,12.7-9.5,21.1c3,9.3,0.4,15.9-7.8,19.8c-8.2,2.8-17.2,2.6-25.3-0.7c-10.2-1.6-39-2.8-41,11.8c28.9-5.3,48-2.3,57.8,20
	l2.9,0.2c2.4,5.8,4,12.7,4.8,21.2c10.2-1.3,20.2-3.7,29.9-7.2c-1.5-6-4.9-13.7-6.5-21.7L132.4,280.4L132.4,280.4z"/>
<path id="Path_3100" class="st3" d="M99.6,289.4c11.1,0.9,25.3-2.5,32.8-9"/>
<path id="Path_3101" class="st6" d="M77.5,125.9l-19.9,8l11.5,13.6L77.5,125.9z"/>
<path id="Path_3102" class="st6" d="M129.1,90.7l-16.6,6l20.5,8.8L129.1,90.7z"/>
<path id="Path_3103" class="st6" d="M60.7,58.5l11-4l7,16.8L60.7,58.5z"/>
<path id="Path_3104" class="st3" d="M327.1,84.6c3.7,9.2,11,16.5,20.1,20.2l-4.8,13.4l18.6-10.8c19.6,0.1,35.6-15.8,35.7-35.4
	s-15.8-35.6-35.4-35.7c-0.2,0-0.4,0-0.6,0c-14.8,0-28.2,10.6-33.8,23.2"/>
<path id="Path_3105" class="st7" d="M356.7,50.6h8.1l-1.4,25.6H358L356.7,50.6z M360.8,89.2c-1.2,0-2.3-0.4-3.2-1.2
	c-0.8-0.8-1.3-1.9-1.3-3c0-1.1,0.4-2.2,1.3-3c0.9-0.8,2-1.2,3.2-1.2c1.1,0,2.3,0.4,3.1,1.2c0.8,0.8,1.3,1.9,1.2,3
	c0,1.1-0.4,2.2-1.2,3C363,88.8,361.9,89.2,360.8,89.2L360.8,89.2z"/>
<path id="Path_3106" class="st3" d="M314.5,89.8c9.9-0.1,17.8-8.2,17.7-18.1S324,53.8,314.1,54c-9.9,0.1-17.8,8.2-17.7,18.1
	c0.1,7.3,4.5,13.7,11.3,16.4l-2.4,6.7L314.5,89.8L314.5,89.8z"/>
<path id="Path_3107" class="st7" d="M312.5,75.1c0-0.9,0.2-1.8,0.7-2.5c0.6-0.8,1.3-1.5,2-2.2c0.5-0.5,1.1-1,1.5-1.6
	c0.3-0.4,0.5-1,0.5-1.5c0-0.8-0.3-1.5-1-1.9c-0.7-0.5-1.6-0.8-2.5-0.7c-1.8-0.1-3.5,0.7-4.6,2.2l-2.7-1.8c0.8-1.1,1.9-2,3.1-2.5
	c1.4-0.6,2.9-0.9,4.5-0.9c1.8-0.1,3.5,0.4,5,1.4c1.2,0.9,1.9,2.3,1.9,3.7c0,0.7-0.1,1.4-0.4,2c-0.2,0.5-0.5,1-0.9,1.5
	c-0.4,0.5-0.9,1-1.4,1.4c-0.6,0.5-1.1,1.1-1.6,1.7c-0.4,0.5-0.5,1.1-0.5,1.7L312.5,75.1L312.5,75.1z M314.3,81.8
	c-0.6,0-1.2-0.2-1.6-0.6c-0.4-0.4-0.6-1-0.6-1.6c0-0.6,0.2-1.1,0.6-1.5c0.4-0.4,1-0.6,1.6-0.6c0.6,0,1.2,0.2,1.6,0.6
	c0.4,0.4,0.6,1,0.6,1.5c0,0.6-0.2,1.1-0.6,1.6C315.5,81.6,314.9,81.8,314.3,81.8L314.3,81.8z"/>
<path id="Path_3108" class="st4" d="M206.1,312.2l51.6-77.6l-5.7-43.2c3.9-5.8,20.9-6.3,25.8-22.8c14-46.7-7.8-60.6-37.3-70.4
	S195,115,183.3,150.5s-4.6,68.7,11.3,74.7c3.2,1,6.6,1.2,10,0.6L206.1,312.2z"/>
<path id="Path_3109" class="st3" d="M144.5,263c18.1-12.3,38.6-20.5,60.2-23.9 M294.5,253.7C332.5,274,361.2,313,364,368.5"/>
<path id="Path_3110" class="st3" d="M91.5,309.5c0.4,16.4,5.8,43.3,13.4,68.2"/>
<path id="Path_3111" class="st3" d="M194.9,161.6c-2.3,4.6-6.8,7.8-12,8.4c-4.6,2.4-0.8,9.2,7.2,7.6 M203.1,185.7
	c1.8,1.5,3.5,3.3,4.9,5.2"/>
<ellipse id="Ellipse_584" class="st7" cx="190.2" cy="147.9" rx="2.2" ry="4.6"/>
<ellipse id="Ellipse_585" class="st7" cx="212.5" cy="152.8" rx="2.4" ry="5"/>
<path id="Path_3112" class="st3" d="M182.7,195c6.6,6.1,18.1,0.2,23.2-6.6"/>
<path id="Path_3113" class="st6" d="M252,120.3c-1.5,5.4-3.7,10.6-6.5,15.5c-2.8-1-5.6-1.8-8.4-2.4c1.6-6.9,2.4-14,2.6-21.1
	c-1.3,6.9-3,13.8-5.1,20.6c-23.8-4.9-43.2,0.9-53.9-15.6c13-38.7,44.9-54.7,72.8-38.9c45.1-10,66.5,40.5,58.3,101
	c-3.5,29.9,1.1,51.7,25.3,38.1c-16.9,26.9-37.5,39.4-66.6,39.8c-18.2,0.2-40.3-2.5-32.5-27.5c5-14.1,9-28.6,12-43.2
	c41.9-21.4,22.9-46.8,3.6-25.4C255.1,147.5,254.5,133.8,252,120.3L252,120.3z"/>
<path id="Path_3114" class="st6" d="M215,130.5c-1.4-0.1-2.7-0.2-4-0.3c2.3-5.6,4.8-11,7.6-16.3L215,130.5L215,130.5z M209.7,130.1
	c-1.4-0.1-2.8-0.2-4.2-0.4c2.9-6.9,6.6-13.4,11.1-19.4C213.7,116.7,211.4,123.3,209.7,130.1z"/>
<path id="Path_3115" class="st6" d="M172.4,248.1c-10.2-2.9-17.2-10.3-21.7-21.1c14.2,2.7,26.1-6.4,28.4-26.3
	c3.4,17.4,12.6,27.7,25.5,25l0.2,13.4C190.5,241.8,179.7,244.8,172.4,248.1L172.4,248.1z"/>
<path id="Path_3116" class="st6" d="M226.9,140.8c-8.7-1.5-15.3,5.1-21.6,9.1c-1.9-0.8-2.4-5.7-2-8.5c11.8-4.3,19.4-4.8,25.5-2.5
	L226.9,140.8z"/>
<path id="Path_3117" class="st6" d="M186.7,133.6c5.1,2.2,3.8,8.3,7.5,11c1.9-1.7,3.5-3.6,3.1-6.8c-5.5-4.9-8-6-10.7-6.2
	C186.4,132.3,186.4,133,186.7,133.6z"/>
<path id="Path_3118" class="st8" d="M204.6,225.8c11.2-2.1,22.7-10.1,34.7-23.8c-7.8,19.1-17.4,35.5-34.3,45.7L204.6,225.8z"/>
<path id="Path_3119" class="st9" d="M251.4,178c-0.2-7,7.5-14.7,13.3-16.3"/>
<path id="Path_3120" class="st3" d="M187.8,339.7L167,286.4l38.2-23.3"/>
<path id="Path_3121" class="st10" d="M234.9,268.9l21.2,38.7"/>
<ellipse id="Ellipse_586" class="st3" cx="185.6" cy="150.9" rx="7.2" ry="12"/>
<ellipse id="Ellipse_587" class="st3" cx="209.1" cy="157.4" rx="7.7" ry="12.9"/>
<path id="Path_3122" class="st3" d="M192.3,155.4c2.3-5.6,8-5.1,9.1,2"/>
<path id="Path_3123" class="st3" d="M216.5,160.6c19.3-9.4,34.9-12.8,46.9-11.7"/>
<line id="Line_244" class="st3" x1="213.3" y1="301.3" x2="181.4" y2="349.3"/>
<path id="Path_3124" class="st3" d="M184.5,357.8l71.6-50.2l-11.4-20.9l-9.7-17.8"/>
<path id="Path_3125" class="st3" d="M244.6,286.7l23.5,7.5l15.1-42.2"/>
<path id="Path_3126" class="st3" d="M186.1,274.7l-20.3-1.1l11-31.4"/>
<path id="Path_3127" class="st3" d="M150.9,295c6,44.1,15.3,80,26.4,107.6 M286.9,421.8c6.2-19.9,10.2-45.6,11.1-77
	c3.7-36.7,23.3-60.5,38.9-55"/>
<path id="Path_3128" class="st3" d="M321.9,292.6c-12.7-12.3-26.6-23.3-41.5-32.8"/>
<ellipse id="Ellipse_588" class="st11" cx="313.4" cy="201.7" rx="15.8" ry="15.5"/>
<circle id="Ellipse_589" class="st12" cx="105" cy="377.7" r="11.8"/>
<circle id="Ellipse_590" class="st13" cx="325.8" cy="131.2" r="6.4"/>
</svg>
