<svg xmlns="http://www.w3.org/2000/svg" shape-rendering="geometricPrecision" image-rendering="optimizeQuality" fill-rule="evenodd" clip-rule="evenodd" viewBox="0 0 500 500"><circle fill="#86e5c7" cx="127.18" cy="251.03" r="24.694"/><g stroke="#29304d" stroke-linejoin="round" stroke-linecap="round" stroke-width="2" stroke-miterlimit="22.926"><path fill="none" d="m280.66 243.61c.516.947 1 1.921 1.451 2.92 9.968 22.12 1.919 49.27-20.978 59.59-22.897 10.321-51.971-.101-61.94-22.22"/><g fill="#fff"><path d="m236.65 154.5c-19.428 31.32-30.07 65.06-31.919 101.23 8.405 50.643 66.56 49.33 73.65 7.865-.626-19.239 2.711-40.929 10.01-65.07l-51.745-44.02z"/><path d="m180.26 420.27l46.17-14.601c6.244 5.324 13.728 6.609 22.452 3.854 5.464 3.37 10.484 7.326 15.06 11.867 10.09 5.867 17.865 1.271 16.358-7.889 4.093 4.308 8.385 9.799 12.878 16.475 5.427 5.454 12.729 3.264 11.718-6.03 2.274 12.907 7.92 18.205 16.938 15.894 4.01-4.061 2.307-16.243-5.104-36.545 9.641 23.675 17.531 33.498 23.667 29.468 6.236-5.352 1.596-20.782-13.922-46.29-10.519-9.9-20.264-19.646-29.24-29.24-4.143-1.941-10.285-2.412-19.965.417-21.755 5.262-39.922 9.02-55.22 7.705l-52.21-.178c-1.192 7.526-.903 17.645 1.141 28.396 2.043 10.751 5.438 20.14 9.265 26.698z"/><path d="m240.61 159.32l-.075.23c-11.363 34.782 3.378 71.02 23.542 81.16 20.769 10.444 41.911-12.08 53.22-29.393 6.412 3.308 12.492-.152 10.905-4.78-1.013-1.941-1.907-3.896-2.681-5.865 3.264-4.696 43.751-71.17 20.11-103.27-29.04-63.63-159.46-7.929-105.02 61.918z"/></g><g fill="none"><path d="m323.51 167.15c-3.408 13.736-1.844 26.864 4.693 39.38 2.365 6.897-12.294 11.203-19.707-5.616"/><path d="m29.57 303.98c47.657-49.46 119.63-71.58 177.96-73.6m79.78 10.239c71.43 20.894 134.29 72.23 158.06 144.06"/><path d="m316.74 403.29c-2.08-7.436-10.05-16.369-23.9-26.8"/><path d="m304.9 423.95c-1.747-7.104-5.112-14.297-10.09-21.58-6.39-7.548-12.539-13.504-18.447-17.867"/><path d="m248.89 409.53c-12.163 3.839-21.915-.172-29.26-12.03"/></g></g><path fill="#29304d" d="m337.53 480c12.214 0 22.12-3.485 22.12-7.783v-9.699h-9.01c.719-2.916.42-6.678-.884-11.199-.925-3.207-2.334-6.716-4.187-10.476.338.027 7.439-2.348 8.342-2.633 1.41-.113 2.677-1.416 3.79-3.944-.395-1.889-.523-3.573-.382-5.075-5.395-5.293-8.24-9.627-8.814-13.252-2.732-1.178-4.059-1.744-4.059-1.744.269-1.506.404-2.256.404-2.256-1.772-.61-2.641-.911-2.641-.911.43-4.937.643-7.42.643-7.42l-8.425 2.642c-2.413 1.486-3.345 4.795-3.774 7.423-3.815.392-6.987 2.13-8.823 5.548 2.868 10.564 2.874 17.437.016 20.621 1.38 5.157 2.279 9.517 2.677 12.981.402 3.504.289 6.04-.343 7.558l5.471 2.137h-14.23v9.699c0 4.298 9.902 7.783 22.12 7.783"/><path fill="#5159be" d="m333.95 436.42c.951.534 1.963.45 3.036-.265 1.576-.868 2.897-.356 3.938 1.6 1.683 2.195 3.238 3.23 4.66 3.065 1.364-.158 2.606-1.419 3.692-3.918-.395-1.89-.523-3.573-.381-5.076-5.395-5.293-8.24-9.626-8.815-13.252-2.731-1.178-4.059-1.744-4.059-1.744.27-1.506.404-2.256.404-2.256-1.771-.61-2.64-.911-2.64-.911.43-4.937.643-7.419.643-7.419-1.904 1.169-3.156 3.638-3.774 7.423-3.815.392-6.987 2.13-8.823 5.548 2.868 10.564 2.874 17.437.016 20.621 1.344 5.02 2.837 11.08 2.91 16.322-5.649 1.411-9.335 3.731-9.335 6.354 0 4.299 9.902 7.783 22.12 7.783 12.214 0 22.12-3.484 22.12-7.783 0-2.543-3.466-4.802-8.825-6.222.354 2.695.321 5.702-.893 8.198l-8.425 2.641c3.978-8.182-3.853-23.273-7.997-30.378l.436-.331"/><g stroke="#29304d" stroke-linejoin="round" stroke-linecap="round" stroke-miterlimit="22.926"><g stroke-width="2"><g fill="#29304d"><path d="m192.23 429.82c4.253-.808 7.03-6.919 7.962-15.879l-19.95 6.289c3.851 6.599 8.154 10.319 11.988 9.59z"/><path d="m169.85 365.18l21.508.073c-4.295-8.808-9.421-14.04-13.906-13.189-3.799.722-6.424 5.677-7.602 13.12z"/></g><path fill="none" d="m321.84 439.84c2.99-3.177 2.824-10.647-.496-22.409"/><path fill="#29304d" d="m404.94 113.67c-18.782 43.813-81.54 51.645-94.23 1.794-13.211-10.834-33.08 4.527-50.635 21.282 3.207-44.888-53.642-21.286-19.458 22.575-8.4 25.711-3.197 67.98 23.467 81.39 5.04 2.535 10.1 3.128 15.04 2.325-.135 1.354-.253 2.699-.354 4.03-.125 1.642-.225 3.269-.3 4.88-18.2-12.767-55.43-1.45-71.46 13.14-.959-2.893-1.73-6.01-2.285-9.351.16-3.131.386-6.243.678-9.337 2.56-27.13 10.184-52.869 22.871-77.21-37.542-86.63 39.14-130.34 56.53-108.78 4.217 4.961 7.572 12.442 10.09 18.4-1.684-7.625-3.863-13.477-6.779-19.974 40.04-18.376 75.03-2.555 84.04 40.466 2.267 12.293 10.258 14.316 20.392 7.49l-7.93 11.926 11.547-11.199 2.226 1.562-7.909 13.355 11.205-11.04 3.243 2.276z"/></g><path fill="none" d="m243.41 151.21c4.204-8.921 4.979-17.8 2.324-26.637"/></g><g fill="#29304d"><path d="m301.68 148.66c-3.207-1.612-7.735-3.31-13.586-5.095 6.745-5.04 16.13-1.796 23.06 1.431 1.749 2.357 4.251 4.843 7.91 9.474-1.421 2.673-4.147 4.61-5.944 5.095-6.573-6.608-10.387-10.243-11.441-10.905"/><path d="m349.41 158.68c-4-.619-11.182 1.288-16.804.984-1.407 3.089-1.497 5.621-1.341 7.955 8.533-.339 12.213-1.053 16.715-2.771l1.43-6.168"/></g><g fill="none" stroke="#29304d" stroke-linejoin="round" stroke-linecap="round" stroke-width="2" stroke-miterlimit="22.926"><path d="m306.45 167.03c-7.242-.62-13.618-4.493-19.13-11.62"/><path d="m329.16 174.19c4.824 1.71 9.174 2.306 13.05 1.787"/></g><g fill="#29304d"><path d="m302.4 166.32c-2.777-.748-6.368-2.74-8.866-4.538-.511 2.925.136 6.259 2.905 7.435 2.111.897 4.733.229 5.961-2.897"/><path d="m330.27 174.56c-.132 1.487-.11 3.439 1.904 4.296 2.01.857 4.702-.943 5.438-2.367.736-1.426.153-.26.221-.392-2.372-.16-4.892-.672-7.563-1.537"/></g><g fill="none" stroke="#29304d" stroke-linejoin="round" stroke-linecap="round" stroke-width="2" stroke-miterlimit="22.926"><path d="m289.46 214.41c4.815 4.495 10.149 6.133 14.12 6.257"/><path d="m177.45 352.06c-39.23-.117-86.31 1.509-144.74 13.945"/></g><circle fill="#fcf32a" cx="393.36" cy="195.94" r="13.07"/><circle fill="#5159be" cx="406.76" cy="398.53" r="6.938"/></svg>