<svg xmlns="http://www.w3.org/2000/svg" shape-rendering="geometricPrecision" image-rendering="optimizeQuality" fill-rule="evenodd" clip-rule="evenodd" viewBox="0 0 500 500"><g stroke="#29304d" stroke-linejoin="round" stroke-linecap="round" stroke-width="2" stroke-miterlimit="22.926"><path fill="#29304d" d="m307.41 127.03c8.343 70.5 10.325 90.47 38.1 87.54-13.361 11.561-27.505 20.878-42.07 28.03-3.52-1.827-6.462-4.161-8.825-7 1.241 3.361 2.88 6.315 4.916 8.86-1.14.527-2.283 1.04-3.428 1.541-3.686-1.973-6.852-5.246-9.498-9.819.835 4.693 2.145 8.743 3.928 12.15-52.5 20.89-109.01 14.592-153.37-16.06 2.845-2.375 5.377-5.538 7.597-9.489-3.237 3.611-6.939 5.941-11.1 6.99-1.27-.928-2.527-1.881-3.775-2.85 4.747-2.678 8.251-6.097 10.511-10.257-4.628 3.126-10.11 4.935-16.444 5.427-2.708-2.312-5.363-4.717-7.951-7.231 16.947-.723 28.25-29.08 31.31-71.849 3.703-59.47 42.594-82.43 60.44-69.36 24.17-28.488 100.93-5.98 99.67 53.38z"/><path fill="none" d="m405.54 412.58c19.655-2.605 35.17-7.888 34.649-11.8-.018-.131-.055-.26-.108-.385l-12.568-45.14-59.48 7.883.976 46.777c-.007.1-.007.199.006.297.518 3.912 16.871 4.972 36.526 2.367z"/><path fill="#fff" d="m184.4 311.03c4.241 11.379 23.295 19.964 46.16 19.964 10.153 0 41.589-7.512 46.32-20.428-1.064-.353-2.131-.693-3.202-1.021v-13.218-.848-77.1c34.643-34.03 21.654-68.976 3.343-40.961.466-7.382.282-14.346-.445-20.861-33.746 5.493-61.22-7.745-82.43-39.719-8.517 12.782-13.686 32.399-12.287 60.58-18.311-28.01-31.3 6.928 3.343 40.962.565 2.547 1.193 5.03 1.88 7.455v79.951 4.356c-.896.288-1.79.584-2.681.89z"/></g><g fill="#fc5b61"><ellipse cx="176.62" cy="207.18" rx="5.462" ry="5.545"/><ellipse cx="280.85" cy="207.18" rx="5.462" ry="5.545"/></g><circle fill="#fcf32a" cx="78.919" cy="406.26" r="27.21"/><circle fill="#5159be" cx="93.93" cy="253.46" r="13.06"/><g fill="#29304d"><ellipse cx="209.87" cy="180.92" rx="4.806" ry="7.573"/><ellipse cx="251.96" cy="180.92" rx="4.806" ry="7.573"/></g><g fill="none" stroke="#29304d" stroke-linejoin="round" stroke-linecap="round" stroke-width="2" stroke-miterlimit="22.926"><path d="m195.35 171.3c4.847-18.911 25.673-17.746 31.17.582 3.652 21.423 2.439 32.782-5.243 47.33-.817 4.829 11.125 3.276 13.11-5.243"/><path d="m219.97 240.04c13.06.942 23.15-4.398 30.29-16.02"/></g><path fill="#29304d" d="m376.43 228.08l-21.61-6.973v-7.249c9.07.0001 18.239-.281 27.305-.463v1.887h5.316v-1.98c2.538-.036 5.064-.058 7.574-.058 10.456 0 18.933 8.215 18.933 18.349 0 10.135-8.477 18.35-18.933 18.35-10.456 0-18.932-8.215-18.932-18.35 0-1.201.119-2.376.347-3.513"/><g stroke="#29304d" stroke-linejoin="round" stroke-linecap="round" stroke-width="2" stroke-miterlimit="22.926"><path fill="#fff" d="m416.51 360.9c-2.864-17.88-4.175-31.18-4.1-36.802 14.166-41.977 24.466-69.02 30.902-81.12-6.834-14.803-19.656-25.694-38.467-32.672-3.332 11.03 1.765 18.973 15.29 23.82.521 4.122 2.774 7.61 6.76 10.461-5.472 6.867-8.208 10.3-8.208 10.3-4.622-7.332-9.129-12.804-13.52-16.416-15.21-2.745-28.89.152-41.04 8.691 4.73 7.234 10.954 8.414 18.67 3.541 8.833-.263 13.232.648 13.197 2.736-11.294.855-19.02 4.558-23.18 11.11-1.561 4.43-3.224 7.756-4.989 9.978 1.778 3.187 3.763 4.26 5.955 3.219-4.674 3.611-4.781 8.655-.322 15.13 2.598.483 4.476.108 5.633-1.127-.691 9.682-.53 16.603.483 20.763-8.104 13.874-6.337 37.728-3.01 53.613 5.582.436 13.407.135 21.985-1 6.829-.905 13.06-2.197 17.978-3.633.005-.195-.0001-.391-.024-.588zm-28.08-85.65c-3.34-2.314-6.076-2.877-8.209-1.69.912-1.878 1.369-2.817 1.369-2.817 2.12-.197 3.864-.572 5.23-1.127 1.771 2.146 2.656 3.219 2.656 3.219-.698 1.61-1.046 2.415-1.046 2.415z"/><g fill="none"><path d="m396 253.44c5.694 3.324 12.158 10.325 19.394 21"/><path d="m388.43 275.25c2.825 1.797 7.224 4.077 13.197 6.84"/><path d="m378.29 284.66c3.062 5.425 7.06 9.422 11.99 11.99"/><path d="m385.8 293.71c.978 5.25 3.628 9.797 7.949 13.641"/><path d="m388.25 300.59c-3.881 4.532-6.771 8.504-8.668 11.915"/><path d="m380.22 273.56c-1.507 2.112-3.653 3.507-6.437 4.184"/></g><g fill="#29304d"><path d="m376.57 366.12c-.52-2.481-1-5.156-1.414-7.957-4.617 1.679-7.328 3.453-7.126 4.977.207 1.562 3.434 2.58 8.54 2.98z"/><path d="m415.18 352.1c.401 2.786.847 5.724 1.339 8.796.023.197.029.393.024.588 6.911-2.02 11.231-4.318 10.978-6.228-.255-1.921-5.076-3.02-12.341-3.156z"/></g><g fill="none"><path d="m369.02 410.21c-13.364 3.716-30.655 31.803-29.15 72.61"/><path d="m440.19 400.78c7.475 1.636 15.487 8.176 21.661 19.508"/><path d="m393.9 426.22c2.737 20.03 6.371 36.22 6.939 44.73.957 14.337-10 14.983-11.124 1.389-.971-9.179.914-22.927 5.747-58.714"/><path d="m395.46 413.63c1.559-17.208.23-33.12-3.987-47.74"/></g></g><g fill="#29304d"><ellipse cx="228.69" cy="365.65" rx="4.06" ry="4.226"/><ellipse cx="232.12" cy="428.19" rx="4.06" ry="4.226"/></g><g stroke="#29304d" stroke-linejoin="round" stroke-linecap="round" stroke-miterlimit="22.926"><g stroke-width="2"><g fill="none"><path d="m230.56 330.99c-22.864 0-41.918-8.585-46.16-19.964-1.888-5.067-.621-10.06 2.681-14.261v-4.861c-6.79 5.299-11.79 12.929-9.844 21.791 3.297 15.01 25.717 26.616 52.885 26.616 27.696 0 50.46-12.07 53.05-27.496 1.402-8.319-3.232-15.437-9.498-20.501v3.161.848c3.415 4.11 4.927 9.09 3.202 14.239-4.733 12.916-36.17 20.428-46.32 20.428z"/><path d="m66.923 455.62c4.346-98.91 57.909-157.53 120.16-176.23m88.21.186c33.804 10.723 67.65 35.34 87.05 72.45"/></g><path fill="#29304d" d="m410.12 232.47c65.52 155.73-12.01 185.33-94.7 160.76-30.734-9.13-70.59-27.931-117.53-63.45-12.29-9.301-22.663-17.623-24.854-34.437-1.431-10.976 4.97-18.586 14.05-23.546v-16.53-29.434c3.771 13.287 9.331 24.581 16.09 32.795 7.536 9.156 16.564 14.486 26.27 14.486 9.896 0 19.09-5.542 26.713-15.03 7.782-9.687 13.93-23.487 17.526-39.706v35.695 28.819c13.834 10.591 26.28 24.353 37.726 37.02 11.93 13.198 22.754 25.17 32.824 30.753 10.342 5.733 20.05 4.848 29.637-8.105.059 4.464.336 8.667.832 12.609-8.863 9.509-17.941 9.595-27.588 4.247-10.615-5.884-21.771-18.226-34.07-31.829-11.876-13.14-24.845-27.482-39.36-38.04v5.937c-23.846-23.388-56.769-22.373-86.6 10.305v4.356c-.896.288-1.79.584-2.681.89-1.888-5.067-.621-10.06 2.681-14.261v-13.7c-5.907 4.196-10.673 10.525-9.678 18.16 2.747 21.07 81.73 66.36 140.06 80.47 114.19 27.644 126.83-31.27 88.33-148.06l4.322-1.165zm-136.44 63.853v13.218c1.071.328 2.138.668 3.202 1.021 1.725-5.146.213-10.129-3.202-14.239z"/><path fill="none" d="m244.38 473.85c-.459-38.812-3.832-108.18-10.2-133.62.697-3.592.419-6.716-.834-9.374"/></g><g fill="none"><path d="m174.1 182.74c4 5.059 7.403 12.51 10.2 22.35"/><path d="m273.69 205.34c4.404-13.428 7.67-19.523 12.6-24.9"/></g></g></svg>