<?xml version="1.0" encoding="utf-8"?>
<!-- Generator: Adobe Illustrator 24.1.2, SVG Export Plug-In . SVG Version: 6.00 Build 0)  -->
<svg version="1.1" id="Слой_1" xmlns="http://www.w3.org/2000/svg" xmlns:xlink="http://www.w3.org/1999/xlink" x="0px" y="0px"
	 viewBox="0 0 432 432" style="enable-background:new 0 0 432 432;" xml:space="preserve">
<style type="text/css">
	.st0{fill:none;}
	.st1{fill:#FFFFFF;}
	.st2{fill:none;stroke:#29304D;stroke-width:2;stroke-linecap:round;stroke-linejoin:round;stroke-miterlimit:22.926;}
	.st3{fill-rule:evenodd;clip-rule:evenodd;fill:#29304D;}
	
		.st4{fill-rule:evenodd;clip-rule:evenodd;fill:#29304D;stroke:#29304D;stroke-width:2;stroke-linecap:round;stroke-linejoin:round;stroke-miterlimit:22.926;}
	.st5{fill:#29304D;stroke:#29304D;stroke-width:1.1658;stroke-linecap:round;stroke-linejoin:round;stroke-miterlimit:22.9226;}
	
		.st6{fill-rule:evenodd;clip-rule:evenodd;fill:#FFFFFF;stroke:#29304D;stroke-width:2;stroke-linecap:round;stroke-linejoin:round;stroke-miterlimit:22.926;}
	.st7{fill:#5159BE;}
	.st8{fill:#FFFFFF;stroke:#29304D;stroke-width:2.231;stroke-linecap:round;stroke-linejoin:round;stroke-miterlimit:22.9258;}
	.st9{fill:none;stroke:#29304D;stroke-linecap:round;stroke-linejoin:round;stroke-miterlimit:22.926;}
	.st10{fill:#86E5C7;}
	.st11{fill:#FCF32A;}
</style>
<g id="Слой_x0020_1" transform="translate(0 2.196)">
	<g id="_2160104740592" transform="translate(0 -2.196)">
		<rect id="Rectangle_1060" x="1.9" y="0" class="st0" width="428.2" height="432"/>
		<g id="Group_3554" transform="translate(32.607 198.349)">
			<ellipse id="Ellipse_624" class="st1" cx="6.4" cy="109.6" rx="4.4" ry="4.3"/>
			<ellipse id="Ellipse_625" class="st1" cx="6.4" cy="151.7" rx="4.4" ry="4.3"/>
			<ellipse id="Ellipse_626" class="st1" cx="6.4" cy="67.5" rx="4.4" ry="4.3"/>
			<g id="Group_3553" transform="translate(21.057)">
				<ellipse id="Ellipse_627" class="st1" cx="6.4" cy="130.7" rx="4.4" ry="4.3"/>
				<ellipse id="Ellipse_628" class="st1" cx="6.4" cy="46.4" rx="4.4" ry="4.3"/>
				<ellipse id="Ellipse_629" class="st1" cx="6.4" cy="172.8" rx="4.4" ry="4.3"/>
				<ellipse id="Ellipse_630" class="st1" cx="6.4" cy="88.5" rx="4.4" ry="4.3"/>
				<ellipse id="Ellipse_631" class="st1" cx="27.4" cy="109.6" rx="4.4" ry="4.3"/>
				<ellipse id="Ellipse_632" class="st1" cx="27.4" cy="25.4" rx="4.4" ry="4.3"/>
				<ellipse id="Ellipse_633" class="st1" cx="27.4" cy="67.5" rx="4.4" ry="4.3"/>
				<ellipse id="Ellipse_634" class="st1" cx="48.5" cy="46.4" rx="4.4" ry="4.3"/>
				<ellipse id="Ellipse_635" class="st1" cx="48.5" cy="88.5" rx="4.4" ry="4.3"/>
				<ellipse id="Ellipse_636" class="st1" cx="69.5" cy="25.4" rx="4.4" ry="4.3"/>
				<ellipse id="Ellipse_637" class="st1" cx="69.5" cy="67.5" rx="4.4" ry="4.3"/>
				<ellipse id="Ellipse_638" class="st1" cx="90.6" cy="4.3" rx="4.4" ry="4.3"/>
				<ellipse id="Ellipse_639" class="st1" cx="90.6" cy="88.5" rx="4.4" ry="4.3"/>
				<ellipse id="Ellipse_640" class="st1" cx="111.7" cy="109.6" rx="4.4" ry="4.3"/>
				<ellipse id="Ellipse_641" class="st1" cx="132.7" cy="130.7" rx="4.4" ry="4.3"/>
				<ellipse id="Ellipse_642" class="st1" cx="132.7" cy="88.5" rx="4.4" ry="4.3"/>
				<ellipse id="Ellipse_643" class="st1" cx="153.8" cy="109.6" rx="4.4" ry="4.3"/>
				<ellipse id="Ellipse_644" class="st1" cx="153.8" cy="67.5" rx="4.4" ry="4.3"/>
				<ellipse id="Ellipse_645" class="st1" cx="174.8" cy="46.4" rx="4.4" ry="4.3"/>
				<ellipse id="Ellipse_646" class="st1" cx="174.8" cy="88.5" rx="4.4" ry="4.3"/>
				<ellipse id="Ellipse_647" class="st1" cx="195.9" cy="25.4" rx="4.4" ry="4.3"/>
				<ellipse id="Ellipse_648" class="st1" cx="216.9" cy="130.7" rx="4.4" ry="4.3"/>
				<ellipse id="Ellipse_649" class="st1" cx="216.9" cy="46.4" rx="4.4" ry="4.3"/>
				<ellipse id="Ellipse_650" class="st1" cx="216.9" cy="4.3" rx="4.4" ry="4.3"/>
				<ellipse id="Ellipse_651" class="st1" cx="238" cy="25.4" rx="4.4" ry="4.3"/>
				<ellipse id="Ellipse_652" class="st1" cx="238" cy="151.7" rx="4.4" ry="4.3"/>
				<ellipse id="Ellipse_653" class="st1" cx="259.1" cy="130.7" rx="4.4" ry="4.3"/>
				<ellipse id="Ellipse_654" class="st1" cx="259.1" cy="46.4" rx="4.4" ry="4.3"/>
				<ellipse id="Ellipse_655" class="st1" cx="259.1" cy="4.3" rx="4.4" ry="4.3"/>
				<ellipse id="Ellipse_656" class="st1" cx="259.1" cy="172.8" rx="4.4" ry="4.3"/>
				<ellipse id="Ellipse_657" class="st1" cx="280.1" cy="25.4" rx="4.4" ry="4.3"/>
				<ellipse id="Ellipse_658" class="st1" cx="280.1" cy="151.7" rx="4.4" ry="4.3"/>
				<ellipse id="Ellipse_659" class="st1" cx="301.2" cy="130.7" rx="4.4" ry="4.3"/>
				<ellipse id="Ellipse_660" class="st1" cx="301.2" cy="46.4" rx="4.4" ry="4.3"/>
				<ellipse id="Ellipse_661" class="st1" cx="301.2" cy="172.8" rx="4.4" ry="4.3"/>
				<ellipse id="Ellipse_662" class="st1" cx="322.2" cy="109.6" rx="4.4" ry="4.3"/>
				<ellipse id="Ellipse_663" class="st1" cx="322.2" cy="151.7" rx="4.4" ry="4.3"/>
				<ellipse id="Ellipse_664" class="st1" cx="322.2" cy="67.5" rx="4.4" ry="4.3"/>
				<ellipse id="Ellipse_665" class="st1" cx="343.3" cy="130.7" rx="4.4" ry="4.3"/>
				<ellipse id="Ellipse_666" class="st1" cx="343.3" cy="46.4" rx="4.4" ry="4.3"/>
				<ellipse id="Ellipse_667" class="st1" cx="343.3" cy="172.8" rx="4.4" ry="4.3"/>
				<ellipse id="Ellipse_668" class="st1" cx="343.3" cy="88.5" rx="4.4" ry="4.3"/>
			</g>
		</g>
		<g id="Group_3557" transform="translate(106.562 400.823)">
			<g id="Group_3555">
				<path id="Path_3321" class="st2" d="M10.5,8.6C15.2,8.6,19,4.7,19,0l0,0H1.9C1.9,4.7,5.8,8.6,10.5,8.6z"/>
				<path id="Path_3322" class="st2" d="M35.1,8.6c4.7,0,8.6-3.8,8.6-8.6l0,0H26.5C26.5,4.7,30.4,8.6,35.1,8.6L35.1,8.6z"/>
			</g>
			<g id="Group_3556" transform="translate(134.339)">
				<path id="Path_3323" class="st2" d="M10.5,8.6C15.2,8.6,19,4.7,19,0l0,0H1.9C1.9,4.7,5.8,8.6,10.5,8.6L10.5,8.6z"/>
				<path id="Path_3324" class="st2" d="M35.1,8.6c4.7,0,8.6-3.8,8.6-8.6l0,0H26.5C26.5,4.7,30.4,8.6,35.1,8.6L35.1,8.6z"/>
			</g>
		</g>
		<path id="Path_3325" class="st3" d="M210.6,354.1c-1.6-7.8-9.2-12.7-16.9-11.2c-5.5,1.1-9.8,5.4-11.1,10.8c4.9,1,9.9,1.5,14.8,1.5
			C201.8,355.2,206.2,354.9,210.6,354.1L210.6,354.1z"/>
		<path id="Path_3326" class="st4" d="M77.7,351.1c-1.6-15.2,12-31.8,30.4-37.1s34.5,2.9,36.1,18.1c0.6,5.9-1.1,12-4.4,17.6
			c-15.7,5.2-28.4,12.4-36.6,21C89.5,370.9,79,363.3,77.7,351.1L77.7,351.1z"/>
		
			<ellipse id="Ellipse_669" transform="matrix(0.9941 -0.108 0.108 0.9941 -29.1728 39.9533)" class="st5" cx="354.2" cy="289.3" rx="13.8" ry="35.9"/>
		<path id="Path_3327" class="st6" d="M235.4,312.8c1.1,1.6,2.9,2.6,4.9,2.7c3.5-1.9,6.1-3.5,6.1-3.5c-1.6,3.8,1.5,6.6,6.9,5.6
			l17-7.7c8.6,6.7,22.4,6.7,41.4-0.2c7.9-3.3,35.4,3.7,53.1,8.7c3.1-6.7,4.1-21,3.1-30.7s-2.2-13.3-4.1-18.6
			c-25.8-2-85.2-22.2-87.4-21c-10.4,7.9-19.8,15.1-28.3,21.6c-2.2,3.1-4.2,6.1-6.2,8.9l-5.4,7.7c-3.9,5.5-7.3,10.1-10.1,14
			c4.1,2.3,9.1,2.2,13.1-0.2c2.6-1.5,5.1-3.4,7.1-5.7l-3.6,9.8c-1.1,2.4-3.4,4.1-6.1,4.2L235.4,312.8z"/>
		<path id="Path_3328" class="st2" d="M299.1,400.8c0.7-2.4,1-4.9,1.1-7.4c0-22.9-29.4-42.4-70.3-49.4c-7.1,14.9-58.7,14.8-65.1-0.3
			c-41.7,6.7-71.9,26.4-71.9,49.6c0,2.5,0.4,5,1.1,7.4H299.1z"/>
		<path id="Path_3329" class="st2" d="M276.4,248.2c-10.4,7.9-19.8,15.1-28.3,21.6c-9.1,13.1-16.3,23.2-21.8,30.5
			c8.9,4.6,17.5-0.5,27.2-14.6c7.9-6.5,14.4-11.9,19.7-16.3"/>
		<path id="Path_3330" class="st2" d="M246.4,312.1c7.4-6.3,13.6-11.6,18.4-15.8c7-5.1,13.8-10.2,20.3-15.4"/>
		<path id="Path_3331" class="st2" d="M270.4,310l7-4c6.1-4.2,10.5-7.2,13.2-8.9"/>
		<path id="Path_3332" class="st6" d="M118.2,368.6c-14.8-5-21.9-12.2-21.5-21.4l0,0c-2.2-14.3,4.2-23.9,19.2-28.6
			c0.2-0.4,0.4-0.7,0.6-1.1c1.7-1.4,4.4-2.2,8.1-2.4l8.5-5.3c5.2,2,10,5,13.9,9c5.9,0,21.7-11.2,26.2-15.5
			c5.2,6.1,3.4,12.6-5.3,19.5c-6.3,2.9-10.2,5.4-11.7,7.5l0,0c3.6,5.8,6.7,11.8,9.3,18.1c-1.1,2.6-3.3,3.9-6.5,4
			c-4.4-3.2-6.9-5.2-7.6-6.1c2.6,3.5,4.6,7.5,5.8,11.7c-1.2,2-3.6,3.7-7.3,5c-6.2-4.6-11.5-10.4-15.5-17l-2.4,1.1
			c4.3,4.6,6,9.2,2.2,11.9c-4.5,2.1-11-1.1-16.3-8l-6,2C117.6,357.2,121.6,363.3,118.2,368.6L118.2,368.6z"/>
		<path id="Path_3333" class="st2" d="M118.1,351c-3.1-4.2-6.6-8-10.4-11.4"/>
		<path id="Path_3334" class="st2" d="M134.6,346c-4.5-6.8-10-12.8-16.3-17.9c3,7.4,7.8,13.9,13.9,19"/>
		<path id="Path_3335" class="st2" d="M151.6,346.2c-7.6-14.9-15.3-24-23-27.6"/>
		<path id="Path_3336" class="st2" d="M112.1,353c-4-3.2-5.4-6.8-4.4-10.8"/>
		<path id="Path_3337" class="st2" d="M116,318.6c-1.9,2.5-3.5,4.6-4.9,6.3c-4.3,1.2-7.4,4.3-9.2,9.4"/>
		<path id="Path_3338" class="st2" d="M393.4,236.1c-33.3-26.4-81.3-40.4-126.4-46.6 M155.7,190.6c-15.5,3.4-27.2,6.7-41.2,12.4
			 M90.8,213.7c-18,9-31.1,18.4-46.5,32.2"/>
		<path id="Path_3339" class="st6" d="M214.1,237.4l8.3-72.6l-38.7-27.4l-32.6,61.8C116.7,264.4,202.4,294.9,214.1,237.4z"/>
		<circle id="Ellipse_670" class="st7" cx="137.1" cy="131.9" r="6.3"/>
		<path id="Path_3340" class="st2" d="M147.2,318.8c3.7,3.2,6.8,7.1,9.2,11.5"/>
		<path id="Path_3341" class="st6" d="M193.8,209c42.7,19.6,115.4-93,63-121.8c-23.2-12.8-47.2,4.8-63,30.4
			c-1.7-23.5-31.8-8.6-13.1,28.3l0,0C172.3,171.8,178.4,201.9,193.8,209z"/>
		
			<ellipse id="Ellipse_671" transform="matrix(0.365 -0.931 0.931 0.365 6.5587 343.8853)" class="st8" cx="255.4" cy="167.1" rx="20.8" ry="19.5"/>
		
			<ellipse id="Ellipse_672" transform="matrix(0.365 -0.931 0.931 0.365 6.1959 350.3135)" class="st8" cx="259.9" cy="170.6" rx="20.8" ry="19.5"/>
		<path id="Path_3342" class="st2" d="M256.3,181.7c1.1,0.4,2.3,0.7,3.6,0.7 M263.4,181.9c1.2-0.4,2.4-0.9,3.4-1.7 M271,174.8
			c0.9-2.3,1.1-4.9,0.5-7.3 M268.5,161.9c-1-1-2.2-1.7-3.6-2.3"/>
		<path id="Path_3343" class="st2" d="M274.7,148.2c-5.6-10.7-16.8-15.1-30.5-5.7c-7.9,6.7-13.1,14-15.9,24.1
			c-2.3,12.1-10,11.8-10.6,0"/>
		<path id="Path_3344" class="st2" d="M246.6,294.4l-3.4,9.4c-1.3,3.7-5.4,5.6-9.1,4.3l0,0c-2.8-1-4.7-3.7-4.7-6.7 M232.3,292.2
			l14.1-39.2c1.3-3.7,5.4-5.6,9.1-4.3l0,0c3.7,1.3,5.6,5.4,4.3,9.1l-1.4,3.9"/>
		<path id="Path_3345" class="st2" d="M237,308.5l-15.1,42.2l-6.9,2.4l16.7-46.5c0.7,0.7,1.5,1.2,2.5,1.5l0,0
			C235,308.4,236,308.6,237,308.5z"/>
		<path id="Path_3346" class="st2" d="M219.9,141.9c-5.6-0.7-9.2-3.2-10.9-7.5"/>
		<path id="Path_3347" class="st9" d="M183.4,135.3c2.7-7.3,2.8-14.2,0.1-20.7"/>
		<path id="Path_3348" class="st3" d="M233.4,136.7c-2.2,1.2-4.9,1.3-7.2,0.3c-3-5.5-6.4-10.2-9.7-12.9c-3.1,0.5-6.3,0.4-9.3-0.4
			c-0.6-0.7-0.8-1.7-0.7-2.6c6.1,0,10.3-0.5,12.7-1.4C226.1,124.2,230.8,129.9,233.4,136.7z"/>
		<path id="Path_3349" class="st3" d="M211.4,138.2c-0.9,1.6-0.3,3.6,1.2,4.5c1.5,0.8,3.4,0.4,4.3-1
			C214.9,140.9,213,139.7,211.4,138.2z"/>
		<circle id="Ellipse_673" class="st10" cx="66.4" cy="228" r="11.6"/>
		<path id="Path_3350" class="st3" d="M271.9,141.2c1-13.2,1.6-31.6-4.6-26.9c-7,5.2-13.8,4-19-8.7c-25.5-30.4-42.9,7-54.6,11.9
			c-1.7-23.2-31.1-9-13.7,26.9l-9.9,18.8c-38.7-17.7-0.6-83.4,27.2-99.8c-8.6-0.5-18.3,4-26.7,17.2c-12.3,19.1-29.3,22.1-40.9,13.4
			c3.1-2,6.1-4.3,8.8-6.8c-3.9,2-8.1,3.1-12.5,3.4c-1.3-1.4-2.4-2.9-3.4-4.6c7.5-1.6,13.5-4.5,18.2-8.7c-7.8,2.8-14.8,3.8-21.1,3
			c-0.9-2.4-1.7-4.9-2.2-7.4c9.6,3.6,17.6-0.4,27.8-14.2c13.5-17.1,27.5-24.6,38.8-23.9c-2.9-1.9-6.2-3.1-9.6-3.6
			c5.5-2.4,11.8-2.7,19.1-1.1c11,4.3,17.2,13.2,18.5,26.6c6.8-2.2,14-3.2,21.2-2.9C274,55.7,303.5,93,271.9,141.2z"/>
		<path id="Path_3351" class="st6" d="M264.4,148.4c-2.7-0.9-5.5-1.5-8.3-1.9c17.6-35.7,27.3-82.9,6.8-87.6
			C289.9,59.8,287.3,110.9,264.4,148.4L264.4,148.4z"/>
		<path id="Path_3352" class="st2" d="M203.4,180c4.5,5.7,9.9,8.8,16.2,9.5"/>
		<path id="Path_3353" class="st2" d="M231.5,293.3c-28.4-2.8-64.2-2.6-107.4,0.6l-10.2-96.5l-23.3,8.9l9.6,101.6"/>
		<line id="Line_252" class="st2" x1="236.4" y1="280.8" x2="238.6" y2="194.6"/>
		<line id="Line_253" class="st2" x1="261.7" y1="191" x2="262.7" y2="257.8"/>
		<path id="Path_3354" class="st2" d="M217.6,213.6c16.1,29.7-3.5,69.9-41,67.2c-43.9-3.2-60.6-61.3-25.6-81.5"/>
		<path id="Path_3355" class="st2" d="M127.3,313.5c-22-8.4-50.1-7.6-84.2,2.3"/>
		<path id="Path_3356" class="st2" d="M351.3,253.6c9.7,0.4,31.2,3,54.8,7.4"/>
		<path id="Path_3357" class="st6" d="M238.9,273.7c-3.5,3.1-7.7,5.2-12.2,6.4c3,3.2,5.9,4.3,8.8,3.2L238.9,273.7z"/>
		<path id="Path_3358" class="st3" d="M143.9,218.8c36.4-7.8,60.3-6,71.7,5.2l1.8-15.4c-8.2,3.2-16.4,3.7-23.6,0.4
			c-15.4-7.1-21.5-37.2-13.1-63.2c-0.2-0.5-0.5-0.9-0.7-1.4l0,0l-9.9,18.8l-14.4,27.3l-4.6,8.7C147.8,205.4,145.4,212,143.9,218.8z"
			/>
		<path id="Path_3359" class="st2" d="M262.9,58.9c-2.5-0.3-4.9-0.3-7.4,0"/>
		<path id="Path_3360" class="st2" d="M352.9,323.1c13.6,21.4,34.3,32.1,55,28.8"/>
		<line id="Line_254" class="st2" x1="197.4" y1="400.8" x2="197.4" y2="355.2"/>
		<path id="Path_3361" class="st2" d="M296.8,380.1c-22.6,5.6-57.8,8.9-99.4,8.9c-41.3,0-78.3-3.7-100.9-9.3"/>
		<line id="Line_255" class="st2" x1="53.5" y1="409.4" x2="276" y2="409.4"/>
		<ellipse id="Ellipse_674" class="st11" cx="321" cy="159.5" rx="22.1" ry="21.6"/>
	</g>
</g>
</svg>
