<svg xmlns="http://www.w3.org/2000/svg" width="80.37" viewBox="0 0 80.367 60"><g transform="translate(.184)"><circle cx="26" cy="26" r="26" transform="translate(.968.027)" fill="#fff"/><g fill-rule="evenodd"><path d="M36.719 50.137a16.993 16.993 0 0 0 12.554 5.9A16.915 16.915 0 0 0 61.59 50.393a24.7 24.7 0 0 0 5.781 -10.777H49.14A26.1 26.1 0 0 1 36.719 50.137" fill="#86e5c7"/><path d="M36.719 50.137A26.1 26.1 0 0 0 49.138 39.616H31.18A24.809 24.809 0 0 0 36.719 50.137" fill="#fcf32a"/></g><circle cx="6" cy="6" r="6" transform="translate(-.184 40.03)" fill="#5159be"/><g fill="#a7abde"><path d="m68.27 33.03c-.288 12.764-8.684 23-19 23s-18.712-10.236-19-23m30.706 15.031a24.125 24.125 0 0 0 5.18 -13.031h-33.772a24.125 24.125 0 0 0 5.18 13.031 15.274 15.274 0 0 0 11.706 5.969 15.27 15.27 0 0 0 11.706 -5.969" fill-rule="evenodd"/><path d="M67.578,37.988a1,1,0,1,1-.609-1.9ZM59.834,51.533l-.122-2,2.171-.179,2-.256,1.84-.325,1.68-.389,1.523-.445,1.371-.494,1.22-.534,1.075-.568.933-.593.8-.61.663-.619.538-.62.418-.613.305-.6.2-.579.107-.555.02-.528-.062-.5-.138-.48-.214-.454-.291-.428-.368-.4-.448-.364-.529-.323-.609-.273-.689-.215-.765-.148-.84-.074-.912.01-.981.1-1.046.2-1.109.308-.609-1.9,1.259-.35,1.211-.232,1.158-.119,1.1-.012,1.041.091.977.19.908.284.832.373.752.459.663.54.567.614.462.682.349.74.227.787.1.82-.031.841-.164.849-.295.844-.425.833-.554.812-.682.787-.812.757-.942.723-1.075.683-1.21.639-1.349.59-1.49.537-1.637.478-1.786.414-1.939.343-2.1.268-2.257.185Zm0,0a1,1,0,1,1-.122-2l.122,2Z"/><path d="M40.4,27.759a1,1,0,1,1-1.262,1.552ZM39.056,16.835l1.427,1.4-.343.36-.32.356-.295.351-.271.345-.248.341-.223.334-.2.329-.178.324-.154.316-.132.311-.11.3-.088.3-.069.292-.048.287-.028.282-.01.277.01.274.028.271.047.271.066.269L38,24.7l.106.271.127.272.148.274.17.276.193.278.216.279.239.28.264.282.288.282.311.284.337.283-1.262,1.552-.391-.329-.369-.335-.345-.34-.324-.345-.3-.352-.277-.358-.253-.364-.228-.371-.205-.378-.178-.384-.152-.39-.126-.4-.1-.4-.07-.405-.043-.409-.014-.411.014-.413.042-.413.069-.412.1-.413.123-.411.148-.409.173-.409.2-.406.222-.406.245-.4.269-.4.293-.4.316-.4.338-.4.361-.4.383-.4Zm0,0a1,1,0,1,1,1.427,1.4l-1.427-1.4Z"/><path d="M49.9 28.259a1 1 0 0 1 -1.262 1.552l1.262-1.552M48.47 17.438l1.6 1.194-.089.1-.344.36-.319.356-.3.351-.271.345-.247.341-.224.334-.2.329-.177.324-.154.316-.132.311-.11.3-.089.3L47.36 23l-.048.287-.029.282-.009.277.009.274.029.271.046.271.067.269.085.27.106.271.127.272.147.274.171.276.193.278.215.279.24.28.263.282.288.283.312.283.337.283-1.262 1.552-.391-.329-.369-.335-.346-.34-.323-.345-.3-.352-.277-.358-.253-.364-.229-.371-.2-.378-.178-.384-.152-.39-.126-.4-.1-.4-.071-.405-.042-.409-.014-.411.014-.413.042-.413.069-.412.1-.413.123-.411.147-.409.174-.409.2-.406.221-.405.246-.405.269-.4.292-.4.316-.4.338-.4.361-.4.384-.4-.089.1m.081-.109a1 1 0 0 1 1.427 1.4l-1.427-1.4M48.52 3.69l1.511-1.309.386.46.362.465.339.469.315.474.291.478.267.482.242.487.218.492.193.5.167.5.143.5.117.508.091.51.064.513.04.516.012.518-.012.52-.04.52-.064.522-.09.523-.115.524-.141.524-.166.523-.189.525-.215.524-.238.525L51.743 16l-.286.525-.31.525-.334.525-.357.526-.38.526-1.6-1.194.347-.48.323-.476.3-.472.276-.468.254-.464.23-.46.207-.455.185-.451.161-.446.14-.443.118-.438.1-.434.075-.43.052-.427.032-.423.001-.42-.001-.417-.032-.416L51.18 9l-.073-.412-.094-.41L50.9 7.774l-.138-.41L50.6 6.956l-.181-.408-.2-.408-.226-.409-.248-.408-.272-.408-.295-.409L48.859 4.1l-.341-.408m0-.002a1 1 0 0 1 1.511 -1.309L48.52 3.69"/><path d="M59.408,28.759a1,1,0,1,1-1.262,1.552Zm-1.433-10.82,1.6,1.193-.088.1-.344.36-.319.356-.3.351-.271.345-.247.341-.224.334-.2.329-.177.324-.154.317-.132.31-.11.3-.089.3-.068.293-.048.286-.029.282-.009.277.009.274.028.271.047.271.066.269.086.27.106.271.126.272.148.274.17.276.193.278.216.279.24.28.263.282.288.283.312.283.336.283-1.262,1.552-.391-.329-.368-.335-.346-.34-.323-.345-.3-.352-.277-.358-.252-.364-.229-.371-.2-.378-.179-.384-.152-.39-.126-.4-.1-.4-.071-.405-.042-.409-.014-.411.014-.413.042-.413L54.9,23.1l.1-.413.122-.411.148-.409.173-.409.2-.406.222-.405.246-.405.269-.4.292-.4.316-.4.338-.4.361-.4.384-.4-.089.1Zm.089-.1a1,1,0,0,1,1.427,1.4l-1.427-1.4Zm2.714-7.251,2-.04,0,.266-.005.266-.012.266-.018.268-.026.267-.032.267-.038.268-.046.268-.052.268-.059.268-.065.269-.072.268-.079.269-.084.268-.092.268-.1.269-.1.269-.111.269-.117.269-.124.269-.129.268-.136.269-.142.269-.149.269-.155.269-.16.269-.168.269-.173.269-.179.269-.186.27-.192.27-.2.269-1.6-1.193.181-.247.174-.246L58.5,17.2l.162-.243.157-.243.149-.241.144-.24.138-.24.131-.237.126-.237.119-.236.113-.235.108-.233.1-.232.1-.232.089-.23.084-.229.077-.228.072-.227.066-.226.06-.224.055-.223.048-.223.043-.221.038-.22.031-.22.027-.219.02-.217.015-.216.01-.216,0-.216,0-.214Zm0,0a1,1,0,1,1,2-.04l-2,.04Z"/></g></g></svg>