<svg xmlns="http://www.w3.org/2000/svg" viewBox="0 0 72 72"><g fill="#fff"><g fill-rule="evenodd"><path d="M300.371,353.606a9.554,9.554,0,0,0,1.286-11.475,15.917,15.917,0,0,1-8.229-4.38,8.88,8.88,0,0,0-5.825,2.708,9.344,9.344,0,0,0-2.407,4.5,9.547,9.547,0,0,0-.225,2.078,9.425,9.425,0,0,0,2.642,6.583,9.152,9.152,0,0,0,.693.645,8.834,8.834,0,0,0,12.066-.655Z" transform="translate(-244.58-288.39)"/><path d="M337.344 109.962a15.733 15.733 0 0 1 15.4 -4.345 8.239 8.239 0 0 0 -16.36 1.638 8.725 8.725 0 0 0 .571 3.118C337.08 110.23 337.2 110.1 337.34 109.96" transform="translate(-288.7-84.31)" opacity=".6"/><path d="M207,389.263l-4.429,3.876a8.11,8.11,0,0,0,5.907-2.564,13.473,13.473,0,0,1-5.3-10.789,13.785,13.785,0,0,1,.478-3.6,8.137,8.137,0,0,0-1.089-.073,8.519,8.519,0,0,0,0,17.029Z" transform="translate(-166.77-321.14)" opacity=".6"/><path d="M1.335,211.634a15.827,15.827,0,0,1,11.385-4.867,15.637,15.637,0,0,1,3.275.345,8.276,8.276,0,0,0-7.75-5.572A8.39,8.39,0,0,0-.01,210.057a8.718,8.718,0,0,0,.4,2.627c.3-.362.608-.715.943-1.049Z" transform="translate(.001-172.08)" opacity=".6"/><path d="M213.285,2.932A16.842,16.842,0,0,1,218,14.683a17.015,17.015,0,0,1-1.379,6.735,10.588,10.588,0,0,0,9.635-10.689A10.561,10.561,0,0,0,215.867.01a10.114,10.114,0,0,0-4.647,1.128,17.012,17.012,0,0,1,2.065,1.793Z" transform="translate(-181.28-.001)" opacity=".6"/></g><ellipse cx="11.974" cy="12.348" rx="11.974" ry="12.348" transform="translate(8.931 2.736)"/><path d="M11.974 0A12.165 12.165 0 0 1 23.947 12.348 12.165 12.165 0 0 1 11.974 24.7 12.165 12.165 0 0 1 0 12.348 12.165 12.165 0 0 1 11.974 0" transform="translate(48.05 25.06)"/><ellipse cx="11.974" cy="12.348" rx="11.974" ry="12.348" transform="translate(.757 38.955)"/></g></svg>