<svg xmlns="http://www.w3.org/2000/svg" viewBox="0 0 17.474 32.87"><path d="M4.7.331C4.7.148,3.644,0,2.348,0S0,.148,0,.331C0,.5.858.633,1.981.657V.426h-.6v-.1h.6V.258c0-.083.351-.129.887-.129.257,0,.526.006.526.006V.217H3.1c-.292,0-.383.025-.383.052V.331h.651l-.1.1H2.715V.657C3.837.633,4.7.5,4.7.331Z" transform="translate(6.388 15.985)"/><path d="M4210.327,2795.352l.9-5.905h-5.663v-3.831c0-1.615.79-3.191,3.329-3.191h2.577V2777.4a31.4,31.4,0,0,0-4.573-.4c-4.663,0-7.713,2.826-7.713,7.947v4.5H4194v5.905h5.187v14.27a20.472,20.472,0,0,0,3.191.247,20.868,20.868,0,0,0,3.19-.247v-14.27Z" transform="translate(-4194-2777)"/></svg>