<svg xmlns="http://www.w3.org/2000/svg" viewBox="0 0 80 60">
    <circle cx="26" cy="26" r="26" fill="#fff"/>
    <path fill="#86e5c7" stroke-width="1" d="m29 44.04h27.903v7.936h-27.903z"/>
    <g >
        <path d="M31,49.972H54.9V45.2a9.642,9.642,0,0,0-9.61-9.609H40.61A9.644,9.644,0,0,0,31,45.2Zm-2,2H56.9V45.2a11.645,11.645,0,0,0-11.611-11.61H40.61A11.645,11.645,0,0,0,29,45.2Z"
              fill="#a7abde" fill-rule="evenodd"/>
    </g>
    <path d="M54,29.042l-22.284.024a11.272,11.272,0,0,0,7.455,4.941,16.261,16.261,0,0,1,3.676-.418h.21a16.252,16.252,0,0,1,3.675.418A10.908,10.908,0,0,0,54,29.042Z"
          fill="#86e5c7" fill-rule="evenodd"/>
    <g>
        <path d="M29,16.042H56.9v6.773a11.644,11.644,0,0,1-11.611,11.61H40.61A11.644,11.644,0,0,1,29,22.815Zm25.9,2H31v4.773a9.645,9.645,0,0,0,9.61,9.61h4.683a9.644,9.644,0,0,0,9.61-9.61Z"
              fill="#a7abde" fill-rule="evenodd"/>
    </g>
    <g>
        <path d="m58 56h-30v2h30m2-4h-34v6h34" fill="#a7abde" fill-rule="evenodd"/>
    </g>
    <g>
        <path d="m58 10.04h-30v2h30m2-4h-34v6h34" fill="#a7abde" fill-rule="evenodd"/>
    </g>
    <g fill="#86e5c7" fill-rule="evenodd">
        <path d="m39.5 30.536h7v3.5a3.51 3.51 0 0 1 -3.5 3.5 3.51 3.51 0 0 1 -3.5 -3.5"/>
        <path d="m39.5 30.536h7v3.5a3.51 3.51 0 0 1 -3.5 3.5 3.51 3.51 0 0 1 -3.5 -3.5m5-1.5h-3v1.5a1.5 1.5 0 0 0 1.5 1.5 1.5 1.5 0 0 0 1.5 -1.5"/>
    </g>
    <circle cx="6" cy="6" r="6" transform="translate(0 40.04)" fill="#5159be"/>
</svg>