<svg xmlns="http://www.w3.org/2000/svg" viewBox="0 0 40 40"><g fill="#5159be"><g><path d="M293.526,346.559a5.308,5.308,0,0,0,.714-6.375,8.843,8.843,0,0,1-4.572-2.434,4.934,4.934,0,0,0-3.236,1.5,5.191,5.191,0,0,0-1.337,2.5,5.3,5.3,0,0,0-.125,1.155,5.236,5.236,0,0,0,1.468,3.657,5.09,5.09,0,0,0,.385.358,4.908,4.908,0,0,0,6.7-.364Z" transform="translate(-262.53-310.33)"/><path d="M336.915 104.974a8.741 8.741 0 0 1 8.554 -2.414 4.577 4.577 0 0 0 -9.089 .91 4.847 4.847 0 0 0 .317 1.732C336.77 105.13 336.84 105.05 336.92 104.97" transform="translate(-309.89-90.72)" opacity=".6"/><path d="M201.357,383.417l-2.461,2.153a4.506,4.506,0,0,0,3.282-1.424,7.485,7.485,0,0,1-2.943-5.994,7.657,7.657,0,0,1,.265-2,4.509,4.509,0,0,0-.6-.041,4.733,4.733,0,0,0,0,9.461Z" transform="translate(-179.01-345.57)" opacity=".6"/><path d="M.737,207.148a8.793,8.793,0,0,1,6.325-2.7,8.689,8.689,0,0,1,1.82.192,4.6,4.6,0,0,0-4.306-3.1A4.661,4.661,0,0,0-.01,206.271a4.843,4.843,0,0,0,.224,1.459c.165-.2.338-.4.524-.583Z" transform="translate(.001-185.18)" opacity=".6"/><path d="M212.367,1.633a9.356,9.356,0,0,1,2.622,6.528,9.453,9.453,0,0,1-.766,3.742,5.882,5.882,0,0,0,5.353-5.938A5.867,5.867,0,0,0,213.8.01a5.619,5.619,0,0,0-2.582.627,9.449,9.449,0,0,1,1.147,1Z" transform="translate(-194.59-.001)" opacity=".6"/></g><ellipse cx="6.652" cy="6.86" rx="6.652" ry="6.86" transform="translate(4.961 1.52)"/></g><path d="M6.652 0A6.758 6.758 0 0 1 13.3 6.86a6.758 6.758 0 0 1 -6.652 6.86A6.758 6.758 0 0 1 0 6.86 6.758 6.758 0 0 1 6.652 0" transform="translate(26.696 13.921)" fill="#fc5b61"/><ellipse cx="6.652" cy="6.86" rx="6.652" ry="6.86" transform="translate(.42 21.641)" fill="#5159be"/></svg>