<svg xmlns="http://www.w3.org/2000/svg" width="80.37" viewBox="0 0 80.367 60">
    <g transform="translate(.184)">
        <circle cx="26" cy="26" r="26" transform="translate(.968.027)" fill="#fff"/>
        <circle cx="6" cy="6" r="6" transform="translate(-.184 40.03)" fill="#5159be"/>
        <g fill="#a7abde" fill-rule="evenodd">
            <path d="M31.184,58h30V25.812L48.517,12.97H31.184V58Zm-2,2h34V25L49.346,10.97H29.184V60Z"/>
            <g>
                <path d="M59.705,21.473,49.346,10.97V25H63.184l-.892-.9Z"/>
                <path d="M58.283,22.871l-6.937-7.033V23H58.41Zm1.422-1.4L49.346,10.97V25H63.184l-.892-.9-2.587-2.623Z"/>
            </g>
        </g>
        <path d="M37.477,37.706H43.2a2.641,2.641,0,0,0,1.428-.382,2.521,2.521,0,0,0,.954-1.08,3.665,3.665,0,0,0,.34-1.613h0a3.67,3.67,0,0,0-.34-1.625,2.566,2.566,0,0,0-.954-1.088,2.61,2.61,0,0,0-1.428-.387H37.477V29.142h5.637a5.647,5.647,0,0,1,2.819.684,4.729,4.729,0,0,1,1.886,1.924,5.96,5.96,0,0,1,.672,2.881h0a5.91,5.91,0,0,1-.672,2.874,4.735,4.735,0,0,1-1.886,1.914,5.73,5.73,0,0,1-2.819.677H37.477Zm-1.293-8.564H38.7V47.035H36.184V29.142ZM53.33,44.649h4.049a4.286,4.286,0,0,0,3.066-1.029,3.787,3.787,0,0,0,1.092-2.9V35.455a3.791,3.791,0,0,0-1.092-2.9,4.289,4.289,0,0,0-3.066-1.025H53.33V29.142H57.3a8.27,8.27,0,0,1,3.68.751,5.244,5.244,0,0,1,2.327,2.189,7.046,7.046,0,0,1,.8,3.474v5.07a7.042,7.042,0,0,1-.8,3.469,5.222,5.222,0,0,1-2.335,2.189,8.317,8.317,0,0,1-3.684.751H53.33V44.649Zm-1.7-15.507H54.14V47.035H51.629V29.142Zm16.294,0h2.511V47.035H67.923V29.142Zm1.23,7.976h8.678V39.5H69.153Zm0-7.976H79.184v2.389H69.153Z"
              fill="#5159be"/>
    </g>
</svg>