<svg xmlns="http://www.w3.org/2000/svg" width="80.37" height="61.36" viewBox="0 0 80.367 61.358">
    <g transform="translate(.184.679)">
        <circle cx="26" cy="26" r="26" transform="translate(.968-.052)" fill="#fff"/>
        <circle cx="6" cy="6" r="6" transform="translate(-.184 39.957)" fill="#5159be"/>
        <g fill-rule="evenodd">
            <path d="M54.815,30.3C46.633,30.3,40,16.7,40-.079,40,16.7,33.366,30.3,25.184,30.3,33.366,30.3,40,43.9,40,60.679,40,43.9,46.633,30.3,54.815,30.3Z"
                  fill="#fcf32a"/>
            <path d="m66.939 22.639c-4.626 0-8.377-10.44-8.377-23.318 0 12.878-3.752 23.318-8.378 23.318 4.626 0 8.378 10.44 8.378 23.318 0-12.878 3.751-23.318 8.377-23.318"
                  fill="#86e5c7"/>
        </g>
    </g>
</svg>