<svg xmlns="http://www.w3.org/2000/svg" width="93.99" height="12.02" viewBox="0 0 2633 337" ><path d="m226 331h89l-145-183 137-147h-85l-147 155v-155h-76v331h76v-84l44-46 106 130zm361-331h-143v331h77v-91h67c88 0 144-46 144-120 0-74-55-120-144-120zm-4 177h-62v-115h62c47 0 70 21 70 58 0 36-24 57-70 57m670 154l-1-331h-63l-122 206-124-206h-63v331h72v-194l97 159h35l97-164v199h72m173 0h77v-331h-77v331m272 4c26 0 46-19 46-46 0-27-20-45-46-45-26 0-46 18-46 45 0 27 20 46 46 46m489-4l-74-106c43-18 68-55 68-104 0-74-55-120-144-120h-143v331h77v-92h67 4l64 92h82zm-84-211c0 36-24 58-70 58h-62v-115h62c47 0 70 21 70 58zm380 217c94 0 150-54 150-151v-185h-76v182c0 63-27 89-74 89-46 0-74-26-74-89v-182h-77v185c0 97 56 151 150 151z"/></svg>