<svg xmlns="http://www.w3.org/2000/svg" viewBox="0 0 25.531 31.275"><path d="m75.13 62.04c-5.454.585-10.886 4.781-11.11 10.787-.144 3.666 1.391 6.415 5.057 7.188a19.568 19.568 0 0 0 .5 -2.672 7.147 7.147 0 0 1 -1.783 -2.528c-1.347-7.905 9.573-13.3 15.3-7.784 3.953 3.831 1.347 15.612-5.03 14.386-6.117-1.17 2.992-10.544-1.888-12.388-3.964-1.5-6.073 4.582-4.2 7.6-1.1 5.189-3.478 10.08-2.517 16.584 3.125-2.153 4.174-6.282 5.03-10.588 1.568.905 2.407 1.855 4.405 2 7.375.541 11.494-7.01 10.489-13.989-.896-6.189-7.366-9.339-14.256-8.596" transform="translate(-64.02-61.937)"/></svg>