<svg xmlns="http://www.w3.org/2000/svg" viewBox="0 0 35.912 20.489"><path d="M35.721,136.252a2.468,2.468,0,0,0-.122-.234,18.611,18.611,0,0,0-3.571-4.132l-.037-.037-.019-.018-.019-.019h-.019q-1.2-1.141-1.514-1.533a1.44,1.44,0,0,1-.262-1.515,14.118,14.118,0,0,1,1.683-2.449q.767-.991,1.215-1.589,3.235-4.3,2.8-5.5l-.111-.186a1.094,1.094,0,0,0-.579-.309,2.944,2.944,0,0,0-1.2-.047l-5.385.037a.7.7,0,0,0-.374.009l-.243.056-.094.047-.074.056a.831.831,0,0,0-.206.2,1.283,1.283,0,0,0-.187.327,30.531,30.531,0,0,1-2,4.207q-.692,1.159-1.272,2.01a9.673,9.673,0,0,1-.972,1.253,6.786,6.786,0,0,1-.711.645q-.318.243-.486.206c-.112-.025-.218-.05-.318-.075a1.243,1.243,0,0,1-.42-.458,2.051,2.051,0,0,1-.215-.729q-.056-.44-.065-.757t.009-.9q.019-.58.019-.785,0-.711.028-1.543t.047-1.318q.019-.486.019-1.029a4.32,4.32,0,0,0-.065-.851,2.91,2.91,0,0,0-.2-.6,1.007,1.007,0,0,0-.383-.449,2.161,2.161,0,0,0-.626-.253,12.443,12.443,0,0,0-2.524-.243,12.265,12.265,0,0,0-4.469.449,2.518,2.518,0,0,0-.71.561q-.337.411-.094.449a2.292,2.292,0,0,1,1.589.8l.112.225a3.576,3.576,0,0,1,.262.86,8.678,8.678,0,0,1,.168,1.365,14.554,14.554,0,0,1,0,2.337q-.094.972-.178,1.515a3.032,3.032,0,0,1-.252.879,3.71,3.71,0,0,1-.224.411.322.322,0,0,1-.093.093,1.4,1.4,0,0,1-.5.094,1.185,1.185,0,0,1-.636-.262,4.486,4.486,0,0,1-.776-.72,9.627,9.627,0,0,1-.907-1.281q-.5-.823-1.047-1.944l-.3-.542q-.28-.523-.766-1.524t-.86-1.935a1.233,1.233,0,0,0-.449-.6l-.094-.056a1.278,1.278,0,0,0-.3-.159,1.984,1.984,0,0,0-.43-.121l-5.123.037a1.3,1.3,0,0,0-1.066.355l-.075.112a.6.6,0,0,0-.056.3,1.489,1.489,0,0,0,.112.5q1.122,2.637,2.44,5.086t2.29,3.945q.972,1.5,1.982,2.823t1.337,1.7q.327.374.514.561l.468.449a11.1,11.1,0,0,0,1.318,1.075,22.485,22.485,0,0,0,1.926,1.234,10.447,10.447,0,0,0,2.459.991,8.5,8.5,0,0,0,2.73.309h2.15a1.489,1.489,0,0,0,.991-.411l.074-.094a1.24,1.24,0,0,0,.14-.346,1.9,1.9,0,0,0,.065-.514,6.161,6.161,0,0,1,.121-1.449,3.81,3.81,0,0,1,.318-.972,2.39,2.39,0,0,1,.4-.551,1.625,1.625,0,0,1,.318-.271,1.222,1.222,0,0,1,.149-.065,1.187,1.187,0,0,1,1.057.29,6.206,6.206,0,0,1,1.141,1.084q.533.645,1.281,1.449a8.8,8.8,0,0,0,1.309,1.2l.374.224a4.552,4.552,0,0,0,.973.411,2.1,2.1,0,0,0,1.047.093l4.786-.075a2.169,2.169,0,0,0,1.1-.234.927.927,0,0,0,.468-.514,1.448,1.448,0,0,0,.01-.636A2.347,2.347,0,0,0,35.721,136.252Z" transform="translate(0-117.75)"/></svg>