<svg xmlns="http://www.w3.org/2000/svg" viewBox="0 0 35.912 29.185"><path d="M268.027,146.776a14.711,14.711,0,0,1-4.231,1.16,7.388,7.388,0,0,0,3.239-4.076,14.72,14.72,0,0,1-4.679,1.788,7.37,7.37,0,0,0-12.743,5.041,7.45,7.45,0,0,0,.19,1.679,20.918,20.918,0,0,1-15.184-7.7,7.374,7.374,0,0,0,2.28,9.835,7.334,7.334,0,0,1-3.337-.921v.093a7.37,7.37,0,0,0,5.909,7.223,7.327,7.327,0,0,1-1.941.258,7.477,7.477,0,0,1-1.387-.13,7.376,7.376,0,0,0,6.881,5.116,14.834,14.834,0,0,1-10.907,3.05,20.849,20.849,0,0,0,11.293,3.311c13.55,0,20.961-11.226,20.961-20.961q0-.479-.022-.953A15.011,15.011,0,0,0,268.027,146.776Z" transform="translate(-232.12-143.32)"/></svg>