<svg xmlns="http://www.w3.org/2000/svg" viewBox="0 0 148.98 40"><defs><clipPath id="0"><path fill="none" d="m0 0h40v40h-40z"/></clipPath><linearGradient id="8" x1="66.66" y1="26.82" x2="67.86" y2="28.02" gradientTransform="matrix(16.38 0 0-20.69-1068.45 593.93)" gradientUnits="userSpaceOnUse"><stop stop-color="#ffd54f"/><stop offset=".1" stop-color="#e65100"/><stop offset=".38" stop-color="#ff6f00"/><stop offset=".58" stop-color="#ff8f00"/><stop offset="1" stop-color="#ffd54f"/></linearGradient><linearGradient id="9" x1="65.43" y1="26.42" x2="64.04" y2="27.59" gradientTransform="matrix(10.64 0 0-24.79-655.88 683.68)" gradientUnits="userSpaceOnUse"><stop stop-color="#ffd54f"/><stop offset=".14" stop-color="#e65100"/><stop offset=".35" stop-color="#ff6f00"/><stop offset=".66" stop-color="#ff8f00"/><stop offset="1" stop-color="#ffd54f"/></linearGradient><linearGradient id="A" x1="68.33" y1="30.89" x2="69.58" y2="30.29" gradientTransform="matrix(26.1 0 0-7.26-1777.33 257.1)" gradientUnits="userSpaceOnUse"><stop stop-color="#ffd54f"/><stop offset=".14" stop-color="#e65100"/><stop offset=".31" stop-color="#ff6f00"/><stop offset=".52" stop-color="#ff8f00"/><stop offset="1" stop-color="#ffd54f"/></linearGradient><linearGradient id="B" x1="23.854" y1="-9.606" x2="17.07" y2="41.491" gradientUnits="userSpaceOnUse"><stop stop-color="#ff6f00"/><stop offset=".78" stop-color="#e65100"/><stop offset="1" stop-color="#bf4300"/></linearGradient><linearGradient id="C" x1="64.33" y1="27.65" x2="65.63" y2="26.54" gradientTransform="matrix(10.99 0 0-24.58-709.07 689.4)" gradientUnits="userSpaceOnUse"><stop stop-color="#ffd54f"/><stop offset=".22" stop-color="#e65100"/><stop offset=".44" stop-color="#ff6f00"/><stop offset=".73" stop-color="#ff8f00"/><stop offset="1" stop-color="#ffd54f"/></linearGradient><linearGradient id="D" x1="67.55" y1="28.23" x2="68.68" y2="27.28" gradientTransform="matrix(20.85 0 0-16.38-1409.02 486.46)" gradientUnits="userSpaceOnUse"><stop stop-color="#ffd54f"/><stop offset=".13" stop-color="#e65100"/><stop offset=".51" stop-color="#ff6f00"/><stop offset=".72" stop-color="#ff8f00"/><stop offset="1" stop-color="#ffd54f"/></linearGradient><linearGradient id="7" x1="68" y1="28.46" x2="69.19" y2="29.47" gradientTransform="matrix(24.51 0 0-10.88-1655.92 348.83)" gradientUnits="userSpaceOnUse"><stop stop-color="#ffd54f"/><stop offset=".13" stop-color="#e65100"/><stop offset=".23" stop-color="#ff6f00"/><stop offset=".57" stop-color="#ff8f00"/><stop offset="1" stop-color="#ffd54f"/></linearGradient><linearGradient id="1" x1="69.25" y1="29.35" x2="68.1" y2="28.37" gradientTransform="matrix(24.81 0 0-10.77-1688.47 317.66)" gradientUnits="userSpaceOnUse"><stop stop-color="#ffd54f"/><stop offset=".17" stop-color="#e65100"/><stop offset=".35" stop-color="#ff6f00"/><stop offset=".64" stop-color="#ff8f00"/><stop offset="1" stop-color="#ffd54f"/></linearGradient><linearGradient id="6" x1="61.95" y1="27.42" x2="61.57" y2="26.2" gradientTransform="matrix(7.28 0 0-26.22-444.44 723.52)" gradientUnits="userSpaceOnUse"><stop stop-color="#ffd54f"/><stop offset=".25" stop-color="#e65100"/><stop offset=".38" stop-color="#ff6f00"/><stop offset=".57" stop-color="#ff8f00"/><stop offset="1" stop-color="#ffd54f"/></linearGradient><linearGradient id="2" x1="67.78" y1="27.72" x2="66.67" y2="26.7" gradientTransform="matrix(16.55 0 0-21.03-1103.88 584.1)" gradientUnits="userSpaceOnUse"><stop stop-color="#ffd54f"/><stop offset=".18" stop-color="#e65100"/><stop offset=".31" stop-color="#ff6f00"/><stop offset=".74" stop-color="#ff8f00"/><stop offset="1" stop-color="#ffd54f"/></linearGradient><linearGradient id="4" x1="68.61" y1="27.15" x2="67.49" y2="28.26" gradientTransform="matrix(20.88 0 0-16.59-1392.67 468.38)" gradientUnits="userSpaceOnUse"><stop stop-color="#ffd54f"/><stop offset=".22" stop-color="#e65100"/><stop offset=".49" stop-color="#ff6f00"/><stop offset=".61" stop-color="#ff8f00"/><stop offset=".78" stop-color="#ff8f00"/><stop offset="1" stop-color="#ffd54f"/></linearGradient><linearGradient id="5" x1="69.27" y1="30.73" x2="68.11" y2="31.41" gradientTransform="matrix(26.46 0 0-6.61-1798.8 211.16)" gradientUnits="userSpaceOnUse"><stop stop-color="#ffd54f"/><stop offset=".25" stop-color="#e65100"/><stop offset=".52" stop-color="#ff6f00"/><stop offset=".68" stop-color="#ff8f00"/><stop offset="1" stop-color="#ffd54f"/></linearGradient><linearGradient id="3" x1="60.56" y1="26.45" x2="61.03" y2="27.57" gradientTransform="matrix(6.65 0 0-26.37-370.03 731.63)" gradientUnits="userSpaceOnUse"><stop stop-color="#ffd54f"/><stop offset=".13" stop-color="#e65100"/><stop offset=".42" stop-color="#ff6f00"/><stop offset=".7" stop-color="#ff8f00"/><stop offset="1" stop-color="#ffd54f"/></linearGradient></defs><g data-name="Layer 1"><g isolation="isolate" fill="#ff5252"><path d="M57.92,29V12.2h6q9,0,9,8.19a8.28,8.28,0,0,1-2.44,6.27A9,9,0,0,1,63.88,29Zm3.79-13.72V25.93h1.88a5.07,5.07,0,0,0,3.86-1.48,5.6,5.6,0,0,0,1.4-4,5.08,5.08,0,0,0-1.39-3.78,5.29,5.29,0,0,0-3.9-1.38Z"/><path d="M89.32,21.72q0,7.57-7.05,7.57-6.84,0-6.84-7.39V12.2h3.8v9.75Q79.22,26,82.4,26t3.13-3.94V12.2h3.79Z"/><path d="M105.07,29H91.53V26.82l8.61-11.54h-8V12.2H105v2.12L96.62,25.93h8.45Z"/><path d="M119.63,29H106.1V26.82l8.61-11.54h-8V12.2h12.89v2.12l-8.43,11.61h8.45Z"/><path d="M132.18,29H122.11V12.2h9.69v3.08h-5.91V19h5.5v3.07h-5.5v3.84h6.29Z"/><path d="M149,29h-4.35L142,24.68q-.29-.49-.56-.88a4.88,4.88,0,0,0-.54-.66,2.17,2.17,0,0,0-.57-.42,1.46,1.46,0,0,0-.65-.15h-1V29h-3.79V12.2h6q6.12,0,6.12,4.57a4.73,4.73,0,0,1-.27,1.62,4.51,4.51,0,0,1-.76,1.34,4.83,4.83,0,0,1-1.19,1,6.13,6.13,0,0,1-1.55.68v0a2.41,2.41,0,0,1,.73.38,5.2,5.2,0,0,1,.68.62,8.58,8.58,0,0,1,.63.76q.3.4.54.79ZM138.66,15v4.68h1.64a2.72,2.72,0,0,0,2-.7,2.35,2.35,0,0,0,.75-1.77q0-2.2-2.64-2.2Z"/></g><g clip-path="url(#0)"><path d="M18.54 8a27.8 27.8 0 0 1 -5.79 2.32h-.07A25 25 0 0 1 10 11c-.46.08-.92.14-1.39.2a25.89 25.89 0 0 1 -3.41 .19H4.5c-.82 0-1.64-.08-2.45-.18.31-.63.66-1.25 1-1.86.58.05 1.15.08 1.73.09a26.49 26.49 0 0 0 3.44 -.16h.1a26.69 26.69 0 0 0 3.05 -.54h.07a25 25 0 0 0 2.64 -.8c.58-.21 1.15-.44 1.72-.69A26.74 26.74 0 0 0 18.47 8h.08M21 4.14c.35.54.72 1.08 1.11 1.61-.35.26-.71.51-1.07.76a24.26 24.26 0 0 1 -2.68 -.63 28 28 0 0 0 2.58 -1.7m4.83-1.72c-.67.72-1.38 1.4-2.13 2.06-.39-.53-.77-1.08-1.12-1.63a25 25 0 0 0 2.3 -2.3 18.63 18.63 0 0 1 2 .63C26.51 1.64 26.14 2.06 25.76 2.46" fill="url(#1)"/><path d="M12.75 10.36a28.35 28.35 0 0 1 -3.9 5l-.13.12a26.56 26.56 0 0 1 -3 2.61c-.23.17-.46.34-.7.5-.7.49-1.42 1-2.16 1.37l-.56.31C1.53 20.65.79 21 0 21.33c0-.71-.05-1.42 0-2.14q.78-.36 1.53-.78a28.53 28.53 0 0 0 2.9 -1.86l.08-.07.76-.58c.55-.45 1.09-.92 1.61-1.41s1.22-1.22 1.78-1.88S9.57 11.54 10 11a25 25 0 0 0 2.7 -.6h.07m.11-4.53c.54.28 1.1.54 1.66.78l.11.05c-.17.39-.34.78-.53 1.17a25 25 0 0 1 -2.64 .79 25.58 25.58 0 0 0 1.39 -2.77m3.35-3.96a28.09 28.09 0 0 1 -.85 2.94h-.06c-.58-.25-1.16-.53-1.73-.82A25.52 25.52 0 0 0 14.46 .79 21.14 21.14 0 0 1 16.55 .3C16.45.85 16.35 1.39 16.22 1.93" fill="url(#2)"/><path d="M31.12,24.91a27.48,27.48,0,0,1,.9-6.25s0,0,0-.06a27.41,27.41,0,0,1,.87-2.7c.15-.39.3-.78.47-1.17a.08.08,0,0,1,0,0q.39-.9.84-1.77A26.3,26.3,0,0,1,35.7,10.4q.48-.72,1-1.41a21.09,21.09,0,0,1,1.08,1.84,29.47,29.47,0,0,0-1.71,2.8c-.3.58-.59,1.17-.85,1.78l0,.1a25.28,25.28,0,0,0-1,2.84s0,0,0,.06c-.25.86-.46,1.73-.63,2.62-.13.7-.23,1.42-.3,2.13a27,27,0,0,0-2.07,1.93Zm2.14,4L32.18,29c.31-.39.64-.77,1-1.13,0,.31,0,.63.09,1C33.25,28.88,33.26,28.92,33.26,29Zm-.46,6.41a27.22,27.22,0,0,1-.87-2.87c.66-.07,1.32-.12,2-.14.14.53.29,1,.46,1.55C33.87,34.41,33.35,34.9,32.8,35.36Z" fill="url(#3)"/><path d="M29.73 12.77a27.87 27.87 0 0 1 -4.88 -3.85 26.77 26.77 0 0 1 -1.9 -2.08c-.28-.34-.55-.68-.81-1-.39-.53-.76-1.07-1.11-1.61A29.12 29.12 0 0 1 19.54 1.6Q19.15.82 18.82 0A19.08 19.08 0 0 1 21 0a24.84 24.84 0 0 0 1.55 2.87c.35.55.73 1.1 1.12 1.63l.07.09a24.39 24.39 0 0 0 2 2.34 26.56 26.56 0 0 0 2 1.86c.48.41 1 .79 1.48 1.17A26.83 26.83 0 0 0 29.73 12.77m4.5.15q-.45.87-.84 1.77c-.4-.17-.79-.36-1.18-.55a23.82 23.82 0 0 1 -.77 -2.58v-.05h.08A27.66 27.66 0 0 0 34.23 12.92m2.48 3c-.5-.14-1-.31-1.5-.48.26-.61.55-1.2.85-1.78a28.22 28.22 0 0 0 3.17 .88 20.87 20.87 0 0 1 .47 2.08A26.92 26.92 0 0 1 36.71 15.89" fill="url(#4)"/><path d="M24.72 8.9A27.5 27.5 0 0 1 18.55 8h-.07a26.11 26.11 0 0 1 -2.64 -.83L14.65 6.7l-.11-.05c-.56-.24-1.12-.5-1.66-.78s-1.34-.72-2-1.11-1.37-.89-2-1.38a21.18 21.18 0 0 1 1.84 -1.09A27.06 27.06 0 0 0 13.58 4c.57.29 1.15.57 1.73.82h.06a24.9 24.9 0 0 0 2.86 1h.07A24.26 24.26 0 0 0 21 6.55c.65.12 1.3.21 2 .27a26.77 26.77 0 0 0 1.9 2.08m3.89-2.15q0 1 .15 2h-.06q-.61.07-1.23.12a26.55 26.55 0 0 1 -2 -1.86 25.08 25.08 0 0 0 3 -.18m5.14.86c-.94.28-1.9.52-2.88.71-.07-.65-.12-1.31-.15-2a25 25 0 0 0 3.14 -.83 19.65 19.65 0 0 1 1.46 1.56C34.81 7.35 34.29 7.53 33.76 7.69" fill="url(#5)"/><path d="M8.73,15.44a27.52,27.52,0,0,1-.88,6l0,.07a27.91,27.91,0,0,1-1.34,3.89h0l-.28.63c-.24.51-.48,1-.75,1.5A25.9,25.9,0,0,1,3.3,31a20.7,20.7,0,0,1-1.45-2.61c-.12-.27-.29-.66-.4-.93A22.36,22.36,0,0,0,5,18.58,26.87,26.87,0,0,0,8.73,15.44ZM5.14,11.36a25.89,25.89,0,0,0,3.41-.19c.06.48.1,1,.13,1.44-.56.66-1.16,1.28-1.78,1.88s-1.06,1-1.61,1.41c0-.68.05-1.36,0-2.05a23.39,23.39,0,0,0-.16-2.34v0A.41.41,0,0,0,5.14,11.36ZM7,4.78c.31.85.58,1.73.81,2.62.16.6.29,1.22.41,1.84a26.33,26.33,0,0,1-3.44.16c0-.22-.09-.43-.14-.65-.09-.41-.2-.81-.31-1.21.19-.24.39-.48.59-.71A19.18,19.18,0,0,1,7,4.78Z" fill="url(#6)"/><path d="M21.45 32.25a27.52 27.52 0 0 1 5.84 -2.34h.08a27 27 0 0 1 4 -.77h.06l.8-.08L33.27 29c.37 0 .75 0 1.13 0a29.84 29.84 0 0 1 3.41 .17 19.71 19.71 0 0 1 -1.36 2.29c-.23.33-.47.66-.73 1-.57 0-1.14 0-1.71 0h-.09c-.67 0-1.33.07-2 .15h-.14c-.74.09-1.48.21-2.21.36h-.06a23.86 23.86 0 0 0 -3.48 1 6.65 6.65 0 0 0 -.61 -.27l-.13-.06A26.92 26.92 0 0 0 21.45 32.25m.4 3.7a22.16 22.16 0 0 0 -2 1.36c-.18-.31-.36-.62-.55-.93s-.56-.87-.86-1.29A23.32 23.32 0 0 1 21.85 36M13.3 38.84a26.67 26.67 0 0 1 2 -2.12 26.45 26.45 0 0 1 1.87 3.07c-.37-.06-.85-.14-1.22-.22A19.35 19.35 0 0 1 13.3 38.84" fill="url(#7)"/><path d="M27.37 29.89a27.72 27.72 0 0 1 3.75 -4.8 27.15 27.15 0 0 1 2.08 -1.93c.38-.32.76-.63 1.16-.92.51-.38 1-.74 1.56-1.08.31-.21.63-.4 1-.59A26.57 26.57 0 0 1 40 19a19.55 19.55 0 0 1 0 2.65c0 .41-.08.82-.14 1.23-.51.26-1 .54-1.49.84h-.08c-.57.35-1.12.72-1.65 1.12l-.12.08c-.61.46-1.2.94-1.77 1.46s-1 1-1.53 1.5-.67.74-1 1.13l-.8.08h-.06A27 27 0 0 0 27.37 29.89m.64 5c-.64-.36-1.3-.7-2-1a23.86 23.86 0 0 1 3.48 -1h.06c-.36.67-.69 1.35-1 2.06l-.09.21m-4.84 4.47a27.55 27.55 0 0 1 .65 -2.76 26.06 26.06 0 0 1 3.11 1.69c-.35.14-.75.28-1.1.39A18.52 18.52 0 0 1 23.62 39.66" fill="url(#8)"/><path d="M32 18.6a27.9 27.9 0 0 1 -2.3 -5.77s0 0 0-.06a26.83 26.83 0 0 1 -.6 -2.77c-.07-.42-.13-.83-.18-1.24a.13 .13 0 0 0 0 -.06q-.1-1-.15-1.95a28.44 28.44 0 0 1 0 -2.92c0-.57.09-1.14.16-1.71.63.32 1.25.67 1.86 1.06a25.2 25.2 0 0 0 -.09 3.25c0 .66.08 1.32.15 2 0 0 0 .08 0 .13a23.88 23.88 0 0 0 .53 3v.05a23.81 23.81 0 0 0 .77 2.58c.21.59.44 1.18.69 1.76A27.36 27.36 0 0 0 32 18.6M36 21.12c-.54.34-1 .7-1.56 1.08-.14-.2-.58-.79-.84-1.18a24.3 24.3 0 0 1 .64 -2.68v.09A25.3 25.3 0 0 0 35.9 21 .27 .27 0 0 1 36 21.12m2.8 5.79c-.76-.64-1.49-1.33-2.19-2 .53-.4 1.08-.77 1.65-1.12.38.39.77.76 1.17 1.12C39.23 25.55 39 26.23 38.77 26.91" fill="url(#9)"/><path d="M15.27 31.33a27.89 27.89 0 0 1 6.09 .89h.09a26.92 26.92 0 0 1 3.85 1.33l.13.06a6.65 6.65 0 0 1 .61 .27c.67.31 1.33.65 2 1l.46.27a27.86 27.86 0 0 1 2.41 1.59 20.93 20.93 0 0 1 -2.32 1.3c-.37.17-.8.36-1.18.51a24.32 24.32 0 0 0 -8.94 -3.5c-.15-.21-.3-.43-.46-.63A28.28 28.28 0 0 0 15.27 31.33m-7.76.81a31.33 31.33 0 0 1 0 3.5c-.29-.23-.57-.47-.84-.71a19.84 19.84 0 0 1 -1.93 -2A27.79 27.79 0 0 1 7.51 32.14m6.13 2.59c-.75 0-1.52.08-2.28.17h-.14c0-.35 0-.71 0-1.07 0-.56-.05-1.12-.1-1.67a22.12 22.12 0 0 1 2.65 2.56" fill="url(#A)"/><path d="M36.16,25.17c.14-.1.27-.21.42-.31a28,28,0,0,0,2.19,2c-.12.33-.24.61-.4,1a13,13,0,0,1-.56,1.22,28.64,28.64,0,0,0-3.93-.16,23.2,23.2,0,0,0,2-3.49l0-.08ZM37.07,16c.88.24,1.76.44,2.63.59A19.05,19.05,0,0,1,40,19a26.77,26.77,0,0,0-2.78,1.4A16.79,16.79,0,0,0,37.07,16ZM35.33,7.16h0A18.86,18.86,0,0,1,36.69,9q-.51.69-1,1.41l-.3.46a16.37,16.37,0,0,0-2-3.06l.37-.11c.53-.17,1.06-.34,1.58-.53ZM28.8,4a16.24,16.24,0,0,0-3.18-1.37l.14-.15c.38-.41.75-.82,1.1-1.25.34.13.68.26,1,.41s.72.32,1.08.5c-.07.57-.12,1.14-.16,1.71ZM18.82,0q.33.78.72,1.56l.15.29a16.25,16.25,0,0,0-3.61.63c0-.2.1-.39.14-.59.13-.54.23-1.08.33-1.63A19,19,0,0,1,18.82,0ZM7,4.78a22.31,22.31,0,0,1,1.84-1.4c.66.49,1.33.95,2,1.38l.2.12A17.78,17.78,0,0,0,7.93,7.73c0-.11-.05-.22-.08-.33A24.94,24.94,0,0,0,7,4.78ZM3.18,15.16a27.12,27.12,0,0,0-2-1.86c.14-.4.29-.79.46-1.18s.28-.63.44-.94c.81.09,1.62.15,2.44.17h.64v.15c0,.17,0,.33.05.49a1.89,1.89,0,0,1-.11.25A17.58,17.58,0,0,0,4,16C3.71,15.72,3.45,15.44,3.18,15.16ZM.34,23.62c1,.17,1.94.41,2.88.66h0a19.47,19.47,0,0,0,.94-2.37c-.38-.62-.81-1.24-1.25-1.84l0,0L2.81,20l-.56.31C1.53,20.65.79,21,0,21.33A19.63,19.63,0,0,0,.34,23.62Zm7.17,8.52A27.79,27.79,0,0,0,4.78,33,21.55,21.55,0,0,1,3.3,31,25.93,25.93,0,0,0,5,28.49l.23.09h.05c.66.28,1.31.59,1.93.93a25.33,25.33,0,0,1,.34,2.6Zm7.79,4.58a26.68,26.68,0,0,0-2,2.12c-.39-.14-.79-.3-1.18-.46L11,37.88a29.37,29.37,0,0,0,.17-3h.14c.76-.09,1.53-.15,2.28-.17h.11A24.69,24.69,0,0,1,15.3,36.72Zm9,.18a27.55,27.55,0,0,0-.65,2.76,19.83,19.83,0,0,1-2.44.3,27.33,27.33,0,0,0-1.33-2.65h0a22.16,22.16,0,0,1,2-1.36h0A23.63,23.63,0,0,1,24.27,36.9Zm5.31-4c-.36.67-.69,1.35-1,2.06l0,0-.09.21a27.09,27.09,0,0,1,2.41,1.59,21.59,21.59,0,0,0,1.92-1.42h0a27.78,27.78,0,0,1-.87-2.86A23.43,23.43,0,0,0,29.58,32.87Z" fill="url(#B)"/><path d="M7.9 21.58a28.05 28.05 0 0 1 2.32 5.78 .25 .25 0 0 0 0 .07A28.23 28.23 0 0 1 11 31.49c0 .22.05.44.07.66.05.55.08 1.11.1 1.67 0 .36 0 .72 0 1.08a29.37 29.37 0 0 1 -.17 3 20.22 20.22 0 0 1 -3.5 -2.24 23.67 23.67 0 0 0 -1.34 -9.56l.28-.63a27.91 27.91 0 0 0 1.34 -3.89v-.07M5 18.58a22.48 22.48 0 0 1 -.81 3.33c-.38-.62-.81-1.24-1.25-1.84L2.81 20C3.55 19.53 4.27 19.07 5 18.58M3.18 15.17c.44.44.86.9 1.27 1.38a25.83 25.83 0 0 1 -2.89 1.86l-.45-.49c-.28-.3-.58-.6-.88-.89.05-.31.1-.61.16-.91a21 21 0 0 1 .77 -2.82C1.86 13.89 2.53 14.51 3.18 15.17" fill="url(#C)"/><path d="M10.31 27.42a27.36 27.36 0 0 1 4.95 3.9 28.28 28.28 0 0 1 2.7 3.1c.16.2.31.42.46.63.3.42.58.85.86 1.29s.37.62.55.93c.49.86.94 1.75 1.34 2.65a20 20 0 0 1 -3 0l-1-.12a23.84 23.84 0 0 0 -6.07 -7.63c0-.22-.05-.44-.07-.66a28.23 28.23 0 0 0 -.78 -4.06 .25 .25 0 0 1 0 -.07m-3.06 2.21c-.62-.34-1.27-.65-1.93-.93H5.19L5 28.49c.17-.3.34-.6.5-.91.27-.49.51-1 .75-1.5A20.06 20.06 0 0 1 7.17 29.54M.34 23.62c.89.15 1.79.36 2.68.6l.2.06a28.61 28.61 0 0 1 -1.77 3.18c-.11-.29-.27-.73-.37-1A18.28 18.28 0 0 1 .34 23.62" fill="url(#D)"/></g></g></svg>