<svg xmlns="http://www.w3.org/2000/svg" viewBox="0 0 156 40"><defs><clipPath id="0"><path data-name="Rectangle 151" fill="#ff5252" stroke-width="1" d="m208 24h40v40h-40z"/></clipPath><linearGradient id="8" x1=".067" y1="1.043" x2="1.267" y2="-.154" gradientUnits="objectBoundingBox"><stop stop-color="#ffd54f"/><stop offset=".102" stop-color="#e65100"/><stop offset=".38" stop-color="#ff6f00"/><stop offset=".58" stop-color="#ff8f00"/><stop offset="1" stop-color="#ffd54f"/></linearGradient><linearGradient id="9" x1="1.156" y1="1" x2="-.23" y2="-.169" gradientUnits="objectBoundingBox"><stop stop-color="#ffd54f"/><stop offset=".141" stop-color="#e65100"/><stop offset=".349" stop-color="#ff6f00"/><stop offset=".659" stop-color="#ff8f00"/><stop offset="1" stop-color="#ffd54f"/></linearGradient><linearGradient id="A" x1="-.055" y1=".43" x2="1.193" y2="1.025" gradientUnits="objectBoundingBox"><stop stop-color="#ffd54f"/><stop offset=".141" stop-color="#e65100"/><stop offset=".31" stop-color="#ff6f00"/><stop offset=".522" stop-color="#ff8f00"/><stop offset="1" stop-color="#ffd54f"/></linearGradient><linearGradient id="B" x1=".63" y1="-.242" x2=".458" y2="1.038" gradientUnits="objectBoundingBox"><stop stop-color="#ff6f00"/><stop offset=".78" stop-color="#e65100"/><stop offset="1" stop-color="#bf4300"/></linearGradient><linearGradient id="C" x1="-.32" y1="-.012" x2=".977" y2="1.098" gradientUnits="objectBoundingBox"><stop stop-color="#ffd54f"/><stop offset=".22" stop-color="#e65100"/><stop offset=".439" stop-color="#ff6f00"/><stop offset=".729" stop-color="#ff8f00"/><stop offset="1" stop-color="#ffd54f"/></linearGradient><linearGradient id="D" x1="-.058" y1=".04" x2="1.071" y2=".998" gradientUnits="objectBoundingBox"><stop stop-color="#ffd54f"/><stop offset=".129" stop-color="#e65100"/><stop offset=".51" stop-color="#ff6f00"/><stop offset=".722" stop-color="#ff8f00"/><stop offset="1" stop-color="#ffd54f"/></linearGradient><linearGradient id="7" x1=".004" y1="1.072" x2="1.198" y2=".059" gradientUnits="objectBoundingBox"><stop stop-color="#ffd54f"/><stop offset=".129" stop-color="#e65100"/><stop offset=".231" stop-color="#ff6f00"/><stop offset=".569" stop-color="#ff8f00"/><stop offset="1" stop-color="#ffd54f"/></linearGradient><linearGradient id="1" x1="1.042" y1=".005" x2="-.102" y2=".992" gradientUnits="objectBoundingBox"><stop stop-color="#ffd54f"/><stop offset=".169" stop-color="#e65100"/><stop offset=".349" stop-color="#ff6f00"/><stop offset=".639" stop-color="#ff8f00"/><stop offset="1" stop-color="#ffd54f"/></linearGradient><linearGradient id="6" x1=".387" y1="-.108" x2=".008" y2="1.119" gradientUnits="objectBoundingBox"><stop stop-color="#ffd54f"/><stop offset=".251" stop-color="#e65100"/><stop offset=".38" stop-color="#ff6f00"/><stop offset=".569" stop-color="#ff8f00"/><stop offset="1" stop-color="#ffd54f"/></linearGradient><linearGradient id="2" x1=".985" y1="-.051" x2="-.122" y2=".973" gradientUnits="objectBoundingBox"><stop stop-color="#ffd54f"/><stop offset=".18" stop-color="#e65100"/><stop offset=".31" stop-color="#ff6f00"/><stop offset=".741" stop-color="#ff8f00"/><stop offset="1" stop-color="#ffd54f"/></linearGradient><linearGradient id="4" x1="1.095" y1=".996" x2="-.03" y2="-.107" gradientUnits="objectBoundingBox"><stop stop-color="#ffd54f"/><stop offset=".22" stop-color="#e65100"/><stop offset=".49" stop-color="#ff6f00"/><stop offset=".612" stop-color="#ff8f00"/><stop offset=".78" stop-color="#ff8f00"/><stop offset="1" stop-color="#ffd54f"/></linearGradient><linearGradient id="5" x1="1.074" y1=".669" x2="-.084" y2="-.014" gradientUnits="objectBoundingBox"><stop stop-color="#ffd54f"/><stop offset=".251" stop-color="#e65100"/><stop offset=".522" stop-color="#ff6f00"/><stop offset=".678" stop-color="#ff8f00"/><stop offset="1" stop-color="#ffd54f"/></linearGradient><linearGradient id="3" x1=".466" y1="1.044" x2=".928" y2="-.073" gradientUnits="objectBoundingBox"><stop stop-color="#ffd54f"/><stop offset=".129" stop-color="#e65100"/><stop offset=".42" stop-color="#ff6f00"/><stop offset=".702" stop-color="#ff8f00"/><stop offset="1" stop-color="#ffd54f"/></linearGradient></defs><g data-name="Group 284" transform="translate(-208-24)"><text transform="translate(264 53)" fill="#ff5252" font-size="24" font-family="SegoeUI-Bold, Segoe UI" font-weight="700" letter-spacing="0"><tspan x="0" y="0">DUZZER</tspan></text><g data-name="Mask Group 2" clip-path="url(#0)"><g transform="translate(208 24)" fill-rule="evenodd"><path data-name="Path 129" d="M18.54,8.03a27.8,27.8,0,0,1-5.79,2.32.185.185,0,0,1-.07.02,25.03,25.03,0,0,1-2.7.6c-.46.08-.92.14-1.39.2H8.55a25.893,25.893,0,0,1-3.41.19c-.21,0-.43,0-.64-.01-.82-.02-1.64-.08-2.45-.18.31-.63.66-1.25,1.04-1.86.58.05,1.15.08,1.73.09a26.492,26.492,0,0,0,3.44-.16c.03-.01.07-.01.1-.02a26.694,26.694,0,0,0,3.05-.54c.02-.01.05-.01.07-.02a25.009,25.009,0,0,0,2.64-.8c.58-.21,1.15-.44,1.72-.69A26.745,26.745,0,0,0,18.47,8c.03.01.05.01.08.02a.01.01,0,0,0-.01.01Zm2.45-3.89c.35.54.72,1.08,1.11,1.61a.176.176,0,0,0-.05.04c-.35.26-.71.51-1.07.76a24.263,24.263,0,0,1-2.68-.63,27.968,27.968,0,0,0,2.58-1.7.444.444,0,0,1,.11-.08Zm4.77-1.68c-.67.72-1.38,1.4-2.13,2.06-.39-.53-.77-1.08-1.12-1.63a24.963,24.963,0,0,0,2.3-2.3,18.634,18.634,0,0,1,2.05.63c-.35.42-.72.84-1.1,1.24Z" transform="translate(-.003)" fill="url(#1)"/><path data-name="Path 130" d="M12.75,10.36a28.348,28.348,0,0,1-3.9,4.96,1.538,1.538,0,0,1-.13.12,26.557,26.557,0,0,1-3.01,2.61c-.01.01-.03.02-.04.03-.23.17-.46.34-.7.5-.7.49-1.42.95-2.16,1.37-.18.1-.37.21-.56.31-.72.39-1.46.75-2.21,1.07C0,20.62-.01,19.91.02,19.19q.78-.36,1.53-.78a28.531,28.531,0,0,0,2.9-1.86.5.5,0,0,0,.08-.07c.26-.19.51-.38.76-.58.55-.45,1.09-.92,1.61-1.41.62-.6,1.22-1.22,1.78-1.88.45-.53.89-1.07,1.3-1.64a25.029,25.029,0,0,0,2.7-.6.185.185,0,0,0,.07-.02v.01Zm.13-4.49c.54.28,1.1.54,1.66.78a1.173,1.173,0,0,1,.11.05c-.17.39-.34.78-.53,1.17a24.948,24.948,0,0,1-2.64.79,25.583,25.583,0,0,0,1.39-2.77C12.87,5.88,12.87,5.88,12.88,5.87Zm3.34-3.94a28.09,28.09,0,0,1-.85,2.94c-.02-.01-.04-.01-.06-.02-.58-.25-1.16-.53-1.73-.82A25.521,25.521,0,0,0,14.46.79,21.137,21.137,0,0,1,16.55.3c-.1.55-.2,1.09-.33,1.63Z" transform="translate(-.003)" fill="url(#2)"/><path data-name="Path 131" d="M31.12,24.91a27.484,27.484,0,0,1,.9-6.25c0-.02.01-.04.01-.06a27.408,27.408,0,0,1,.87-2.7c.15-.39.3-.78.47-1.17a.076.076,0,0,1,.02-.04q.39-.9.84-1.77A26.3,26.3,0,0,1,35.7,10.4q.48-.72.99-1.41a21.09,21.09,0,0,1,1.08,1.84,29.475,29.475,0,0,0-1.71,2.8c-.3.58-.59,1.17-.85,1.78a1.038,1.038,0,0,0-.04.1,25.277,25.277,0,0,0-1.03,2.84c-.01.02-.01.04-.02.06-.25.86-.46,1.73-.63,2.62-.13.7-.23,1.42-.3,2.13a27.006,27.006,0,0,0-2.07,1.93v-.18Zm2.14,4.04c-.36.02-.72.05-1.08.08.31-.39.64-.77.98-1.13.02.31.05.63.09.95,0,.03.01.07.01.1Zm-.46,6.41a27.223,27.223,0,0,1-.87-2.87c.66-.07,1.32-.12,1.98-.14.14.53.29,1.04.46,1.55C33.87,34.41,33.35,34.9,32.8,35.36Z" transform="translate(-.0001.002)" fill="url(#3)"/><path data-name="Path 132" d="M29.73,12.77a27.873,27.873,0,0,1-4.88-3.85.035.035,0,0,1-.01-.02,26.769,26.769,0,0,1-1.9-2.08c-.28-.34-.55-.68-.81-1.03a.138.138,0,0,0-.03-.04c-.39-.53-.76-1.07-1.11-1.61A29.116,29.116,0,0,1,19.54,1.6Q19.15.82,18.82.04A19.077,19.077,0,0,1,20.96.02a24.845,24.845,0,0,0,1.55,2.87c.35.55.73,1.1,1.12,1.63a.55.55,0,0,0,.07.09,24.386,24.386,0,0,0,1.97,2.34c.01.01.01.02.02.02a26.555,26.555,0,0,0,1.96,1.86c.48.41.97.79,1.48,1.17a26.835,26.835,0,0,0,.6,2.77Zm4.5.15q-.45.87-.84,1.77c-.4-.17-.79-.36-1.18-.55a23.816,23.816,0,0,1-.77-2.58l-.01-.05a.594.594,0,0,0,.08.04A27.657,27.657,0,0,0,34.23,12.92Zm2.48,2.97c-.5-.14-1-.31-1.5-.48.26-.61.55-1.2.85-1.78a28.223,28.223,0,0,0,3.17.88,20.868,20.868,0,0,1,.47,2.08,26.924,26.924,0,0,1-2.99-.7Z" transform="translate(-.0001)" fill="url(#4)"/><path data-name="Path 133" d="M24.72,8.9a27.5,27.5,0,0,1-6.17-.88A.185.185,0,0,1,18.48,8a26.106,26.106,0,0,1-2.64-.83c-.4-.15-.79-.31-1.19-.47a1.173,1.173,0,0,0-.11-.05c-.56-.24-1.12-.5-1.66-.78-.68-.34-1.34-.72-1.98-1.11-.7-.43-1.37-.89-2.03-1.38a21.185,21.185,0,0,1,1.84-1.09,27.058,27.058,0,0,0,2.87,1.74c.57.29,1.15.57,1.73.82.02.01.04.01.06.02A24.9,24.9,0,0,0,18.23,5.9a.637.637,0,0,0,.07.02,24.263,24.263,0,0,0,2.68.63c.65.12,1.3.21,1.96.27a26.769,26.769,0,0,0,1.9,2.08h-.12Zm4.07-2.15q.045.975.15,1.95a.127.127,0,0,1-.06.01q-.615.075-1.23.12a26.555,26.555,0,0,1-1.96-1.86l-.02-.02a25.076,25.076,0,0,0,2.98-.18c.05-.01.09-.01.14-.02Zm4.97.94c-.94.28-1.9.52-2.88.71-.07-.65-.12-1.31-.15-1.97a24.96,24.96,0,0,0,3.14-.83,19.648,19.648,0,0,1,1.46,1.56C34.81,7.35,34.29,7.53,33.76,7.69Z" transform="translate(-.0001)" fill="url(#5)"/><path data-name="Path 134" d="M8.73,15.44a27.516,27.516,0,0,1-.88,6.04.637.637,0,0,0-.02.07,27.911,27.911,0,0,1-1.34,3.89v.01c-.09.21-.19.42-.28.63-.24.51-.48,1.01-.75,1.5A25.9,25.9,0,0,1,3.3,31a20.7,20.7,0,0,1-1.45-2.61c-.12-.27-.29-.66-.4-.93a22.357,22.357,0,0,0,3.52-8.88,26.869,26.869,0,0,0,3.76-3.14ZM5.14,11.36a25.893,25.893,0,0,0,3.41-.19c.06.48.1.96.13,1.44-.56.66-1.16,1.28-1.78,1.88-.52.49-1.06.96-1.61,1.41.04-.68.05-1.36.03-2.05a23.388,23.388,0,0,0-.16-2.34l-.01-.04a.41.41,0,0,0-.01-.11Zm1.9-6.58c.31.85.58,1.73.81,2.62.16.6.29,1.22.41,1.84a26.329,26.329,0,0,1-3.44.16c-.04-.22-.09-.43-.14-.65-.09-.41-.2-.81-.31-1.21.19-.24.39-.48.59-.71A19.18,19.18,0,0,1,7.04,4.78Z" transform="translate(-.003)" fill="url(#6)"/><path data-name="Path 135" d="M21.45,32.25a27.523,27.523,0,0,1,5.84-2.34.309.309,0,0,1,.08-.02,27.012,27.012,0,0,1,3.95-.77c.02,0,.04-.01.06-.01.26-.03.53-.06.8-.08.36-.03.72-.06,1.09-.08s.75-.03,1.13-.03a29.837,29.837,0,0,1,3.41.17,19.709,19.709,0,0,1-1.36,2.29c-.23.33-.47.66-.73.99-.57-.03-1.14-.03-1.71-.02h-.09c-.67.02-1.33.07-1.99.15-.05,0-.1.01-.14.01-.74.09-1.48.21-2.21.36-.02.01-.04.01-.06.02a23.86,23.86,0,0,0-3.48,1.02,6.646,6.646,0,0,0-.61-.27c-.04-.02-.09-.04-.13-.06a26.924,26.924,0,0,0-3.85-1.33Zm.4,3.7a22.163,22.163,0,0,0-2,1.36c-.18-.31-.36-.62-.55-.93-.28-.44-.56-.87-.86-1.29A23.316,23.316,0,0,1,21.85,35.95ZM13.3,38.84a26.674,26.674,0,0,1,2-2.12,26.448,26.448,0,0,1,1.87,3.07v.01c-.37-.06-.85-.14-1.22-.22a19.347,19.347,0,0,1-2.65-.74Z" transform="translate(-.0001.002)" fill="url(#7)"/><path data-name="Path 136" d="M27.37,29.89a27.722,27.722,0,0,1,3.75-4.8,27.148,27.148,0,0,1,2.08-1.93c.38-.32.76-.63,1.16-.92a.218.218,0,0,1,.05-.04c.51-.38,1.02-.74,1.56-1.08.31-.21.63-.4.95-.59a26.565,26.565,0,0,1,3.05-1.56,19.552,19.552,0,0,1-.03,2.65c-.04.41-.08.82-.14,1.23-.51.26-1,.54-1.49.84a.559.559,0,0,0-.08.05c-.57.35-1.12.72-1.65,1.12a.834.834,0,0,0-.12.08c-.61.46-1.2.94-1.77,1.46q-.795.72-1.53,1.5c-.34.37-.67.74-.98,1.13-.27.02-.54.05-.8.08-.02,0-.04.01-.06.01a27.012,27.012,0,0,0-3.95.77Zm.64,5.03c-.64-.36-1.3-.7-1.97-1.01a23.86,23.86,0,0,1,3.48-1.02l.06-.02c-.36.67-.69,1.35-1,2.06l-.02.05-.09.21C28.32,35.1,28.17,35.01,28.01,34.92Zm-4.39,4.74a27.551,27.551,0,0,1,.65-2.76,26.058,26.058,0,0,1,3.11,1.69c-.35.14-.75.28-1.1.39A18.52,18.52,0,0,1,23.62,39.66Z" transform="translate(-.0001.002)" fill="url(#8)"/><path data-name="Path 137" d="M32.04,18.6a27.9,27.9,0,0,1-2.3-5.77c0-.02-.01-.04-.01-.06a26.835,26.835,0,0,1-.6-2.77c-.07-.42-.13-.83-.18-1.24a.127.127,0,0,0-.01-.06q-.1-.975-.15-1.95a28.44,28.44,0,0,1,.01-2.92c.04-.57.09-1.14.16-1.71.63.32,1.25.67,1.86,1.06a25.2,25.2,0,0,0-.09,3.25c.03.66.08,1.32.15,1.97.01.04.01.08.02.13a23.883,23.883,0,0,0,.53,2.98.433.433,0,0,1,.01.05,23.815,23.815,0,0,0,.77,2.58c.21.59.44,1.18.69,1.76A27.359,27.359,0,0,0,32.04,18.6Zm3.93,2.52c-.54.34-1.05.7-1.56,1.08a.218.218,0,0,0-.05.04c-.01-.01.12.17-.02-.03s-.58-.79-.84-1.18a24.3,24.3,0,0,1,.64-2.68.405.405,0,0,0,.05.09,25.3,25.3,0,0,0,1.71,2.6.27.27,0,0,1,.07.08Zm2.8,5.79c-.76-.64-1.49-1.33-2.19-2.05.53-.4,1.08-.77,1.65-1.12.38.39.77.76,1.17,1.12C39.23,25.55,39.01,26.23,38.77,26.91Z" transform="translate(-.0001)" fill="url(#9)"/><path data-name="Path 138" d="M15.27,31.33a27.885,27.885,0,0,1,6.09.89l.09.03a26.923,26.923,0,0,1,3.85,1.33c.04.02.09.04.13.06a6.645,6.645,0,0,1,.61.27c.67.31,1.33.65,1.97,1.01.16.09.31.18.46.27a27.857,27.857,0,0,1,2.41,1.59,20.933,20.933,0,0,1-2.32,1.3c-.37.17-.8.36-1.18.51a24.322,24.322,0,0,0-8.94-3.5c-.15-.21-.3-.43-.46-.63,0-.01-.01-.02-.01-.03a28.279,28.279,0,0,0-2.7-3.1Zm-7.76.81a31.329,31.329,0,0,1,.04,3.5c-.29-.23-.57-.47-.84-.71a19.84,19.84,0,0,1-1.93-1.96A27.785,27.785,0,0,1,7.51,32.14Zm6.13,2.59c-.75.02-1.52.08-2.28.17h-.05l-.09.01c0-.35-.01-.71-.02-1.07-.02-.56-.05-1.12-.1-1.67h0a22.123,22.123,0,0,1,2.65,2.56Z" transform="translate(-.003.002)" fill="url(#A)"/><path data-name="Path 139" d="M36.161,25.171c.14-.1.27-.21.42-.31a27.992,27.992,0,0,0,2.19,2.04c-.12.33-.24.61-.4.97a13.007,13.007,0,0,1-.56,1.22,28.643,28.643,0,0,0-3.93-.16,23.2,23.2,0,0,0,2-3.49l.03-.08c.09-.07.17-.13.25-.19Zm.91-9.17c.88.24,1.76.44,2.63.59a19.051,19.051,0,0,1,.27,2.38,26.771,26.771,0,0,0-2.78,1.4,16.794,16.794,0,0,0-.12-4.37Zm-1.74-8.84h0a18.858,18.858,0,0,1,1.36,1.83q-.51.69-.99,1.41c-.1.15-.2.3-.3.46a16.372,16.372,0,0,0-2.02-3.06c.12-.04.25-.08.37-.11C34.281,7.52,34.811,7.35,35.331,7.16ZM28.8,3.98a16.239,16.239,0,0,0-3.18-1.37,1.92,1.92,0,0,0,.14-.15c.38-.41.75-.82,1.1-1.25.34.13.68.26,1.02.41.36.16.72.32,1.08.5-.07.57-.12,1.14-.16,1.71v.15ZM18.821.04q.33.78.72,1.56c.05.09.1.19.15.29a16.254,16.254,0,0,0-3.61.63c.05-.2.1-.39.14-.59.13-.54.23-1.08.33-1.63a19,19,0,0,1,2.27-.26ZM7.03,4.78a22.309,22.309,0,0,1,1.84-1.4c.66.49,1.33.95,2.03,1.38.07.04.14.08.2.12A17.778,17.778,0,0,0,7.93,7.73c-.02-.11-.05-.22-.08-.33a24.936,24.936,0,0,0-.82-2.62ZM3.18,15.16A27.124,27.124,0,0,0,1.16,13.3c.14-.4.29-.79.46-1.18.14-.32.28-.63.44-.94.81.09,1.62.15,2.44.17.21.01.43.01.64.01l.01.11.01.04c.02.17.04.33.05.49a1.889,1.889,0,0,1-.11.25,17.585,17.585,0,0,0-1.13,3.76c-.26-.29-.52-.57-.79-.85ZM.34,23.621c.97.17,1.94.41,2.88.66h0a19.474,19.474,0,0,0,.94-2.37c-.38-.62-.81-1.24-1.25-1.84l-.03-.04-.07-.08c-.18.1-.37.21-.56.31-.72.39-1.46.75-2.2,1.07a19.633,19.633,0,0,0,.29,2.29Zm7.17,8.52a27.785,27.785,0,0,0-2.73.83A21.549,21.549,0,0,1,3.3,31a25.932,25.932,0,0,0,1.66-2.51c.08.03.15.06.23.09v.01l.04.01a.01.01,0,0,1,.01.01c.66.28,1.31.59,1.93.93a25.332,25.332,0,0,1,.34,2.6Zm7.79,4.58a26.675,26.675,0,0,0-2,2.12c-.39-.14-.79-.3-1.18-.46-.36-.16-.72-.33-1.07-.5a29.37,29.37,0,0,0,.17-2.96v-.01l.09-.01h.05c.76-.09,1.53-.15,2.28-.17h.11a24.693,24.693,0,0,1,1.55,1.99Zm8.97.18a27.551,27.551,0,0,0-.65,2.76,19.829,19.829,0,0,1-2.44.3,27.327,27.327,0,0,0-1.33-2.65h0a22.163,22.163,0,0,1,2-1.36h.01a23.631,23.631,0,0,1,2.41.95Zm5.31-4.03c-.36.67-.69,1.35-1,2.06l-.02.05-.09.21a27.089,27.089,0,0,1,2.41,1.59,21.593,21.593,0,0,0,1.92-1.42h0a27.779,27.779,0,0,1-.87-2.86,23.428,23.428,0,0,0-2.35.37Z" transform="translate(-.003)" fill="url(#B)"/><path data-name="Path 140" d="M7.9,21.58a28.054,28.054,0,0,1,2.32,5.78.254.254,0,0,0,.02.07,28.233,28.233,0,0,1,.78,4.06.035.035,0,0,1,.01.02c.02.22.05.44.07.66.05.55.08,1.11.1,1.67.01.36.02.72.02,1.08a29.369,29.369,0,0,1-.17,2.96,20.224,20.224,0,0,1-3.5-2.24,23.667,23.667,0,0,0-1.34-9.56c.09-.21.19-.42.28-.63v-.01a27.911,27.911,0,0,0,1.34-3.89.637.637,0,0,1,.02-.07.929.929,0,0,1,.05.1Zm-2.93-3a22.483,22.483,0,0,1-.81,3.33c-.38-.62-.81-1.24-1.25-1.84l-.03-.04-.07-.08c.74-.42,1.46-.88,2.16-1.37ZM3.18,15.17c.44.44.86.9,1.27,1.38a25.828,25.828,0,0,1-2.89,1.86c-.15-.17-.3-.33-.45-.49-.28-.3-.58-.6-.88-.89.05-.31.1-.61.16-.91a20.978,20.978,0,0,1,.77-2.82c.7.59,1.37,1.21,2.02,1.87Z" transform="translate(-.003.002)" fill="url(#C)"/><path data-name="Path 141" d="M10.31,27.42a27.365,27.365,0,0,1,4.95,3.9l.01.01a28.279,28.279,0,0,1,2.7,3.1c0,.01.01.02.01.03.16.2.31.42.46.63.3.42.58.85.86,1.29.19.31.37.62.55.93.49.86.94,1.75,1.34,2.65a20.033,20.033,0,0,1-3-.04c-.29-.03-.73-.08-1.02-.12a23.845,23.845,0,0,0-6.07-7.63c-.02-.22-.05-.44-.07-.66a.035.035,0,0,0-.01-.02,28.233,28.233,0,0,0-.78-4.06.254.254,0,0,1-.02-.07l.09.06ZM5.19,28.59v0Zm1.98.95c-.62-.34-1.27-.65-1.93-.93l-.01-.01-.04-.01v-.01c-.08-.03-.15-.06-.23-.09.17-.3.34-.6.5-.91.27-.49.51-.99.75-1.5A20.059,20.059,0,0,1,7.17,29.54ZM.34,23.62c.89.15,1.79.36,2.68.6.07.02.13.04.2.06a28.612,28.612,0,0,1-1.77,3.18h0c-.11-.29-.27-.73-.37-1.02a18.28,18.28,0,0,1-.74-2.82Z" transform="translate(-.003.002)" fill="url(#D)"/></g></g></g></svg>